  0
SECTION
  2
HEADER
  9
$ACADVER
  1
AC1014
  9
$ACADMAINTVER
 70
     9
  9
$DWGCODEPAGE
  3
ANSI_1252
  9
$INSBASE
 10
0.0
 20
0.0
 30
0.0
  9
$EXTMIN
 10
0.0
 20
0.0
 30
0.0
  9
$EXTMAX
 10
2440.0
 20
1220.0
 30
0.0
  9
$LIMMIN
 10
0.0
 20
0.0
  9
$LIMMAX
 10
2440.0
 20
1220.0
  9
$ORTHOMODE
 70
     0
  9
$REGENMODE
 70
     1
  9
$FILLMODE
 70
     1
  9
$QTEXTMODE
 70
     0
  9
$MIRRTEXT
 70
     1
  9
$DRAGMODE
 70
     2
  9
$LTSCALE
 40
1.0
  9
$OSMODE
 70
    37
  9
$ATTMODE
 70
     1
  9
$TEXTSIZE
 40
3.5
  9
$TRACEWID
 40
1.0
  9
$TEXTSTYLE
  7
STANDARD
  9
$CLAYER
  8
0
  9
$CELTYPE
  6
BYLAYER
  9
$CECOLOR
 62
   256
  9
$CELTSCALE
 40
1.0
  9
$DELOBJ
 70
     1
  9
$DISPSILH
 70
     0
  9
$DIMSCALE
 40
1.0
  9
$DIMASZ
 40
3.302
  9
$DIMEXO
 40
1.0
  9
$DIMDLI
 40
3.75
  9
$DIMRND
 40
0.0
  9
$DIMDLE
 40
0.0
  9
$DIMEXE
 40
1.0
  9
$DIMTP
 40
0.0
  9
$DIMTM
 40
0.0
  9
$DIMTXT
 40
4.5861111111
  9
$DIMCEN
 40
2.5
  9
$DIMTSZ
 40
0.0
  9
$DIMTOL
 70
     0
  9
$DIMLIM
 70
     0
  9
$DIMTIH
 70
     1
  9
$DIMTOH
 70
     1
  9
$DIMSE1
 70
     0
  9
$DIMSE2
 70
     0
  9
$DIMTAD
 70
     1
  9
$DIMZIN
 70
     0
  9
$DIMBLK
  1

  9
$DIMASO
 70
     1
  9
$DIMSHO
 70
     1
  9
$DIMPOST
  1

  9
$DIMAPOST
  1

  9
$DIMALT
 70
     0
  9
$DIMALTD
 70
     3
  9
$DIMALTF
 40
0.0393700787
  9
$DIMLFAC
 40
1.0
  9
$DIMTOFL
 70
     1
  9
$DIMTVP
 40
0.0
  9
$DIMTIX
 70
     0
  9
$DIMSOXD
 70
     0
  9
$DIMSAH
 70
     0
  9
$DIMBLK1
  1

  9
$DIMBLK2
  1

  9
$DIMSTYLE
  2
ISO-25
  9
$DIMCLRD
 70
     0
  9
$DIMCLRE
 70
     0
  9
$DIMCLRT
 70
     0
  9
$DIMTFAC
 40
1.0
  9
$DIMGAP
 40
1.524
  9
$DIMJUST
 70
     0
  9
$DIMSD1
 70
     0
  9
$DIMSD2
 70
     0
  9
$DIMTOLJ
 70
     0
  9
$DIMTZIN
 70
     0
  9
$DIMALTZ
 70
     0
  9
$DIMALTTZ
 70
     0
  9
$DIMFIT
 70
     3
  9
$DIMUPT
 70
     0
  9
$DIMUNIT
 70
     2
  9
$DIMDEC
 70
     2
  9
$DIMTDEC
 70
     2
  9
$DIMALTU
 70
     2
  9
$DIMALTTD
 70
     3
  9
$DIMTXSTY
  7
STANDARD
  9
$DIMAUNIT
 70
     0
  9
$LUNITS
 70
     2
  9
$LUPREC
 70
     2
  9
$SKETCHINC
 40
1.0
  9
$FILLETRAD
 40
10.0
  9
$AUNITS
 70
     0
  9
$AUPREC
 70
     2
  9
$MENU
  1
.
  9
$ELEVATION
 40
0.0
  9
$PELEVATION
 40
0.0
  9
$THICKNESS
 40
0.0
  9
$LIMCHECK
 70
     0
  9
$CHAMFERA
 40
0.0
  9
$CHAMFERB
 40
0.0
  9
$CHAMFERC
 40
0.0
  9
$CHAMFERD
 40
0.0
  9
$SKPOLY
 70
     0
  9
$TDCREATE
 40
2457718.749141563
  9
$TDUPDATE
 40
2457718.749141921
  9
$TDINDWG
 40
0.0000000116
  9
$TDUSRTIMER
 40
0.0000000116
  9
$USRTIMER
 70
     1
  9
$ANGBASE
 50
0.0
  9
$ANGDIR
 70
     0
  9
$PDMODE
 70
     0
  9
$PDSIZE
 40
-1.0
  9
$PLINEWID
 40
0.0
  9
$COORDS
 70
     1
  9
$SPLFRAME
 70
     0
  9
$SPLINETYPE
 70
     6
  9
$SPLINESEGS
 70
     8
  9
$ATTDIA
 70
     0
  9
$ATTREQ
 70
     1
  9
$HANDLING
 70
     1
  9
$HANDSEED
  5
395
  9
$SURFTAB1
 70
     6
  9
$SURFTAB2
 70
     6
  9
$SURFTYPE
 70
     6
  9
$SURFU
 70
     6
  9
$SURFV
 70
     6
  9
$UCSNAME
  2

  9
$UCSORG
 10
0.0
 20
0.0
 30
0.0
  9
$UCSXDIR
 10
1.0
 20
0.0
 30
0.0
  9
$UCSYDIR
 10
0.0
 20
1.0
 30
0.0
  9
$PUCSNAME
  2

  9
$PUCSORG
 10
0.0
 20
0.0
 30
0.0
  9
$PUCSXDIR
 10
1.0
 20
0.0
 30
0.0
  9
$PUCSYDIR
 10
0.0
 20
1.0
 30
0.0
  9
$USERI1
 70
     0
  9
$USERI2
 70
     0
  9
$USERI3
 70
     0
  9
$USERI4
 70
     0
  9
$USERI5
 70
     0
  9
$USERR1
 40
0.0
  9
$USERR2
 40
0.0
  9
$USERR3
 40
0.0
  9
$USERR4
 40
0.0
  9
$USERR5
 40
0.0
  9
$WORLDVIEW
 70
     1
  9
$SHADEDGE
 70
     3
  9
$SHADEDIF
 70
    70
  9
$TILEMODE
 70
     1
  9
$MAXACTVP
 70
    64
  9
$PINSBASE
 10
0.0
 20
0.0
 30
0.0
  9
$PLIMCHECK
 70
     0
  9
$PEXTMIN
 10
1.0000000000E+20
 20
1.0000000000E+20
 30
1.0000000000E+20
  9
$PEXTMAX
 10
-1.0000000000E+20
 20
-1.0000000000E+20
 30
-1.0000000000E+20
  9
$PLIMMIN
 10
0.0
 20
0.0
  9
$PLIMMAX
 10
420.0
 20
297.0
  9
$UNITMODE
 70
     0
  9
$VISRETAIN
 70
     1
  9
$PLINEGEN
 70
     0
  9
$PSLTSCALE
 70
     1
  9
$TREEDEPTH
 70
  3020
  9
$PICKSTYLE
 70
     1
  9
$CMLSTYLE
  2
STANDARD
  9
$CMLJUST
 70
     0
  9
$CMLSCALE
 40
20.0
  9
$PROXYGRAPHICS
 70
     1
  9
$MEASUREMENT
 70
     1
  0
ENDSEC
  0
SECTION
  2
CLASSES
  0
CLASS
  1
ACDBDICTIONARYWDFLT
  2
AcDbDictionaryWithDefault
  3
ObjectDBX Classes
 90
        0
280
     0
281
     0
  0
CLASS
  1
VISUALSTYLE
  2
AcDbVisualStyle
  3
ObjectDBX Classes
 90
     4095
280
     0
281
     0
  0
CLASS
  1
MATERIAL
  2
AcDbMaterial
  3
ObjectDBX Classes
 90
     1153
280
     0
281
     0
  0
CLASS
  1
SCALE
  2
AcDbScale
  3
ObjectDBX Classes
 90
     1153
280
     0
281
     0
  0
CLASS
  1
TABLESTYLE
  2
AcDbTableStyle
  3
ObjectDBX Classes
 90
     4095
280
     0
281
     0
  0
CLASS
  1
MLEADERSTYLE
  2
AcDbMLeaderStyle
  3
ACDB_MLEADERSTYLE_CLASS
 90
     4095
280
     0
281
     0
  0
CLASS
  1
SUN
  2
AcDbSun
  3
SCENEOE
 90
     1153
280
     0
281
     0
  0
CLASS
  1
XRECORD
  2
AcDbXrecord
  3
ObjectDBX Classes
 90
        0
280
     0
281
     0
  0
CLASS
  1
LWPOLYLINE
  2
AcDbPolyline
  3
ObjectDBX Classes
 90
        0
280
     0
281
     1
  0
CLASS
  1
HATCH
  2
AcDbHatch
  3
ObjectDBX Classes
 90
        0
280
     0
281
     1
  0
ENDSEC
  0
SECTION
  2
TABLES
  0
TABLE
  2
VPORT
  5
8
330
0
100
AcDbSymbolTable
 70
     1
  0
VPORT
  5
29
330
8
100
AcDbSymbolTableRecord
100
AcDbViewportTableRecord
  2
*ACTIVE
 70
     0
 10
0.0
 20
0.0
 11
1.0
 21
1.0
 12
1220.0
 22
610.0
 13
0.0
 23
0.0
 14
10.0
 24
10.0
 15
10.0
 25
10.0
 16
0.0
 26
0.0
 36
1.0
 17
0.0
 27
0.0
 37
0.0
 40
1220.0
 41
2.0
 42
50.0
 43
0.0
 44
0.0
 50
0.0
 51
0.0
 71
     0
 72
  2000
 73
     1
 74
     3
 75
     0
 76
     0
 77
     0
 78
     0
  0
ENDTAB
  0
TABLE
  2
LTYPE
  5
5
330
0
100
AcDbSymbolTable
 70
     6
  0
LTYPE
  5
14
330
5
100
AcDbSymbolTableRecord
100
AcDbLinetypeTableRecord
  2
BYBLOCK
 70
     0
  3

 72
    65
 73
     0
 40
0.0
  0
LTYPE
  5
15
330
5
100
AcDbSymbolTableRecord
100
AcDbLinetypeTableRecord
  2
BYLAYER
 70
     0
  3

 72
    65
 73
     0
 40
0.0
  0
LTYPE
  5
16
330
5
100
AcDbSymbolTableRecord
100
AcDbLinetypeTableRecord
  2
CONTINUOUS
 70
     0
  3
Solid line
 72
    65
 73
     0
 40
0.0
  0
LTYPE
  5
6E
330
5
100
AcDbSymbolTableRecord
100
AcDbLinetypeTableRecord
  2
HIDDEN
 70
     0
  3
Hidden __ __ __ __ __ __ __ __ __ __ __ __ __ __
 72
    65
 73
     2
 40
1.905
 49
1.27
 74
     0
 49
-0.635
 74
     0
  0
LTYPE
  5
6F
330
5
100
AcDbSymbolTableRecord
100
AcDbLinetypeTableRecord
  2
PHANTOM
 70
     0
  3
Phantom ______  __  __  ______  __  __  ______
 72
    65
 73
     6
 40
12.7
 49
6.35
 74
     0
 49
-1.27
 74
     0
 49
1.27
 74
     0
 49
-1.27
 74
     0
 49
1.27
 74
     0
 49
-1.27
 74
     0
  0
LTYPE
  5
70
330
5
100
AcDbSymbolTableRecord
100
AcDbLinetypeTableRecord
  2
CENTER
 70
     0
  3
Center ____ _ ____ _ ____ _ ____ _ ____ _ ____
 72
    65
 73
     4
 40
10.16
 49
6.35
 74
     0
 49
-1.27
 74
     0
 49
1.27
 74
     0
 49
-1.27
 74
     0
  0
LTYPE
  5
71
330
5
100
AcDbSymbolTableRecord
100
AcDbLinetypeTableRecord
  2
CENTERX2
 70
     0
  3
Center (2x) ________  __  ________  __  _____
 72
    65
 73
     4
 40
20.32
 49
12.7
 74
     0
 49
-2.54
 74
     0
 49
2.54
 74
     0
 49
-2.54
 74
     0
  0
LTYPE
  5
72
330
5
100
AcDbSymbolTableRecord
100
AcDbLinetypeTableRecord
  2
DOT2
 70
     0
  3
Dot (.5x) ........................................
 72
    65
 73
     2
 40
0.635
 49
0.0
 74
     0
 49
-0.635
 74
     0
  0
ENDTAB
  0
TABLE
  2
LAYER
  5
2
330
0
100
AcDbSymbolTable
 70
     6
  0
LAYER
  5
10
330
2
100
AcDbSymbolTableRecord
100
AcDbLayerTableRecord
  2
0
 70
     0
 62
     7
  6
CONTINUOUS
  0
LAYER
  5
73
330
2
100
AcDbSymbolTableRecord
100
AcDbLayerTableRecord
  2
BOX_STOCK
 70
     0
 62
     1
  6
CONTINUOUS
  0
LAYER
  5
74
330
2
100
AcDbSymbolTableRecord
100
AcDbLayerTableRecord
  2
HOLES
 70
     0
 62
    30
  6
CONTINUOUS
  0
LAYER
  5
75
330
2
100
AcDbSymbolTableRecord
100
AcDbLayerTableRecord
  2
POCKETS
 70
     0
 62
   171
  6
CONTINUOUS
  0
LAYER
  5
76
330
2
100
AcDbSymbolTableRecord
100
AcDbLayerTableRecord
  2
PROFILES_OUTSIDE
 70
     0
 62
     6
  6
CONTINUOUS
  0
LAYER
  5
77
330
2
100
AcDbSymbolTableRecord
100
AcDbLayerTableRecord
  2
PROFILES_INSIDE
 70
     0
 62
     4
  6
CONTINUOUS
  0
ENDTAB
  0
TABLE
  2
STYLE
  5
3
330
0
100
AcDbSymbolTable
 70
     1
  0
STYLE
  5
11
330
3
100
AcDbSymbolTableRecord
100
AcDbTextStyleTableRecord
  2
STANDARD
 70
     0
 40
0.0
 41
1.0
 50
0.0
 71
     0
 42
3.5
  3
txt
  4

  0
ENDTAB
  0
TABLE
  2
VIEW
  5
6
330
0
100
AcDbSymbolTable
 70
     0
  0
ENDTAB
  0
TABLE
  2
UCS
  5
7
330
0
100
AcDbSymbolTable
 70
     0
  0
ENDTAB
  0
TABLE
  2
APPID
  5
9
330
0
100
AcDbSymbolTable
 70
     1
  0
APPID
  5
12
330
9
100
AcDbSymbolTableRecord
100
AcDbRegAppTableRecord
  2
ACAD
 70
     0
  0
ENDTAB
  0
TABLE
  2
DIMSTYLE
  5
A
330
0
100
AcDbSymbolTable
 70
     1
  0
DIMSTYLE
105
27
330
A
100
AcDbSymbolTableRecord
100
AcDbDimStyleTableRecord
  2
ISO-25
 70
     0
  3

  4

  5

  6

  7

 40
1.0
 41
2.5
 42
0.625
 43
3.75
 44
1.25
 45
0.0
 46
0.0
 47
0.0
 48
0.0
140
2.5
141
2.5
142
0.0
143
0.0393700787
144
1.0
145
0.0
146
1.0
147
0.625
 71
     0
 72
     0
 73
     0
 74
     0
 75
     0
 76
     0
 77
     1
 78
     8
170
     0
171
     3
172
     1
173
     0
174
     0
175
     0
176
     0
177
     0
178
     0
270
     2
271
     2
272
     2
273
     2
274
     3
340
11
275
     0
280
     0
281
     0
282
     0
283
     0
284
     8
285
     0
286
     0
287
     3
288
     0
  0
ENDTAB
  0
TABLE
  2
BLOCK_RECORD
  5
1
330
0
100
AcDbSymbolTable
 70
     1
  0
BLOCK_RECORD
  5
1F
330
1
100
AcDbSymbolTableRecord
100
AcDbBlockTableRecord
  2
*MODEL_SPACE
  0
BLOCK_RECORD
  5
1B
330
1
100
AcDbSymbolTableRecord
100
AcDbBlockTableRecord
  2
*PAPER_SPACE
  0
BLOCK_RECORD
  5
23
330
1
100
AcDbSymbolTableRecord
100
AcDbBlockTableRecord
  2
*PAPER_SPACE0
  0
ENDTAB
  0
ENDSEC
  0
SECTION
  2
BLOCKS
  0
BLOCK
  5
20
330
1F
100
AcDbEntity
  8
0
100
AcDbBlockBegin
  2
*MODEL_SPACE
 70
     0
 10
0.0
 20
0.0
 30
0.0
  3
*MODEL_SPACE
  1

  0
ENDBLK
  5
21
330
1F
100
AcDbEntity
  8
0
100
AcDbBlockEnd
  0
BLOCK
  5
1C
330
1B
100
AcDbEntity
 67
     1
  8
0
100
AcDbBlockBegin
  2
*PAPER_SPACE
 70
     0
 10
0.0
 20
0.0
 30
0.0
  3
*PAPER_SPACE
  1

  0
ENDBLK
  5
1D
330
1B
100
AcDbEntity
 67
     1
  8
0
100
AcDbBlockEnd
  0
BLOCK
  5
24
330
23
100
AcDbEntity
  8
0
100
AcDbBlockBegin
  2
*PAPER_SPACE0
 70
     0
 10
0.0
 20
0.0
 30
0.0
  3
*PAPER_SPACE0
  1

  0
ENDBLK
  5
25
330
23
100
AcDbEntity
  8
0
100
AcDbBlockEnd
  0
ENDSEC
  0
SECTION
  2
ENTITIES
  0
ARC
  5
78
330
1F
100
AcDbEntity
  8
0
  6
CONTINUOUS
 62
     7
100
AcDbCircle
 10
31.9482800697
 20
776.4190562278
 30
0.0
 40
6.000000000000007
100
AcDbArc
 50
80.0
 51
180.0
  0
LINE
  5
79
330
1F
100
AcDbEntity
  8
0
  6
CONTINUOUS
 62
     7
100
AcDbLine
 10
32.9901678692
 20
782.3279215515
 30
0.0
 11
608.9901542495
 21
680.7635738075
 31
0.0
  0
ARC
  5
7A
330
1F
100
AcDbEntity
  8
0
  6
CONTINUOUS
 62
     7
100
AcDbCircle
 10
607.9482800697
 20
674.8547153397
 30
0.0
 40
6.0
100
AcDbArc
 50
0.0
 51
80.0
  0
LINE
  5
7B
330
1F
100
AcDbEntity
  8
0
  6
CONTINUOUS
 62
     7
100
AcDbLine
 10
613.9483070205
 20
674.8547269523
 30
0.0
 11
613.9483070205
 21
646.7255069435
 31
0.0
  0
ARC
  5
7C
330
1F
100
AcDbEntity
  8
0
  6
CONTINUOUS
 62
     7
100
AcDbCircle
 10
582.2893262558
 20
652.6689668636
 30
0.0
 40
5.169999999999918
100
AcDbArc
 50
346.0551969084
 51
14.8879011019
  0
ARC
  5
7D
330
1F
100
AcDbEntity
  8
0
  6
CONTINUOUS
 62
     7
100
AcDbCircle
 10
588.2522015485
 20
654.2542170786
 30
0.0
 40
1.000000000000008
100
AcDbArc
 50
170.0
 51
194.8879011019
  0
LINE
  5
7E
330
1F
100
AcDbEntity
  8
0
  6
CONTINUOUS
 62
     7
100
AcDbLine
 10
589.2496919464
 20
665.669889611
 30
0.0
 11
587.2674202751
 21
654.42785756
 31
0.0
  0
ARC
  5
7F
330
1F
100
AcDbEntity
  8
0
  6
CONTINUOUS
 62
     7
100
AcDbCircle
 10
590.2344988047
 20
665.4962231979
 30
0.0
 40
1.000027830745214
100
AcDbArc
 50
145.1121740788
 51
170.0
  0
ARC
  5
80
330
1F
100
AcDbEntity
  8
0
  6
CONTINUOUS
 62
     7
100
AcDbCircle
 10
579.7055357439
 20
671.8838841836
 30
0.0
 40
1.000000000000201
100
AcDbArc
 50
260.0000385431
 51
332.3995412421
  0
LINE
  5
81
330
1F
100
AcDbEntity
  8
0
  6
CONTINUOUS
 62
     7
100
AcDbLine
 10
575.549683554
 20
671.6012670219
 30
0.0
 11
579.5318698715
 21
670.8990647018
 31
0.0
  0
ARC
  5
82
330
1F
100
AcDbEntity
  8
0
  6
CONTINUOUS
 62
     7
100
AcDbCircle
 10
575.7233304788
 20
672.5860516525
 30
0.0
 40
1.000000750860803
100
AcDbArc
 50
187.6004748139
 51
260.0000385431
  0
ARC
  5
83
330
1F
100
AcDbEntity
  8
0
  6
CONTINUOUS
 62
     7
100
AcDbCircle
 10
569.6075373581
 20
671.7699790426
 30
0.0
 40
5.169999249139224
100
AcDbArc
 50
7.6004748139
 51
194.8878493682
  0
ARC
  5
84
330
1F
100
AcDbEntity
  8
0
  6
CONTINUOUS
 62
     7
100
AcDbCircle
 10
563.6446631319
 20
670.1847348757
 30
0.0
 40
0.999998917168526
100
AcDbArc
 50
350.0
 51
14.8878493682
  0
LINE
  5
85
330
1F
100
AcDbEntity
  8
0
  6
CONTINUOUS
 62
     7
100
AcDbLine
 10
562.6471853088
 20
658.7690426529
 30
0.0
 11
564.6294569801
 21
670.011074704
 31
0.0
  0
ARC
  5
86
330
1F
100
AcDbEntity
  8
0
  6
CONTINUOUS
 62
     7
100
AcDbCircle
 10
561.6623911507
 20
658.9427118275
 30
0.0
 40
0.9999999999999113
100
AcDbArc
 50
325.1121170491
 51
350.0
  0
ARC
  5
87
330
1F
100
AcDbEntity
  8
0
  6
CONTINUOUS
 62
     7
100
AcDbCircle
 10
566.7234746742
 20
655.4136420395
 30
0.0
 40
5.170000000000059
100
AcDbArc
 50
145.1121170491
 51
173.9447545661
  0
LINE
  5
88
330
1F
100
AcDbEntity
  8
0
  6
CONTINUOUS
 62
     7
100
AcDbLine
 10
91.3750743698
 20
738.8692213714
 30
0.0
 11
561.5823483299
 21
655.9590412796
 31
0.0
  0
ARC
  5
89
330
1F
100
AcDbEntity
  8
0
  6
CONTINUOUS
 62
     7
100
AcDbCircle
 10
86.3574450112
 20
740.1151381206
 30
0.0
 40
5.17000000000007
100
AcDbArc
 50
346.0551969084
 51
14.8879011019
  0
ARC
  5
8A
330
1F
100
AcDbEntity
  8
0
  6
CONTINUOUS
 62
     7
100
AcDbCircle
 10
92.3203203039
 20
741.7003883355
 30
0.0
 40
1.000000000000009
100
AcDbArc
 50
170.0
 51
194.8879011019
  0
LINE
  5
8B
330
1F
100
AcDbEntity
  8
0
  6
CONTINUOUS
 62
     7
100
AcDbLine
 10
93.3177834581
 20
753.116042775
 30
0.0
 11
91.3355117868
 21
741.8740107239
 31
0.0
  0
ARC
  5
8C
330
1F
100
AcDbEntity
  8
0
  6
CONTINUOUS
 62
     7
100
AcDbCircle
 10
94.3026175601
 20
752.9423944548
 30
0.0
 40
1.000027830745284
100
AcDbArc
 50
145.1121740788
 51
170.0
  0
ARC
  5
8D
330
1F
100
AcDbEntity
  8
0
  6
CONTINUOUS
 62
     7
100
AcDbCircle
 10
89.2415076951
 20
756.4714751236
 30
0.0
 40
5.170000000000135
100
AcDbArc
 50
325.1121740788
 51
152.3995412421
  0
ARC
  5
8E
330
1F
100
AcDbEntity
  8
0
  6
CONTINUOUS
 62
     7
100
AcDbCircle
 10
83.7736544992
 20
759.3300554406
 30
0.0
 40
1.000000000000101
100
AcDbArc
 50
260.0000385431
 51
332.3995412421
  0
LINE
  5
8F
330
1F
100
AcDbEntity
  8
0
  6
CONTINUOUS
 62
     7
100
AcDbLine
 10
79.6178048681
 20
759.0474201858
 30
0.0
 11
83.6000060867
 21
758.3452178657
 31
0.0
  0
ARC
  5
90
330
1F
100
AcDbEntity
  8
0
  6
CONTINUOUS
 62
     7
100
AcDbCircle
 10
79.7914492342
 20
760.0322229094
 30
0.0
 40
1.000000750860788
100
AcDbArc
 50
187.6004748139
 51
260.0000385431
  0
ARC
  5
91
330
1F
100
AcDbEntity
  8
0
  6
CONTINUOUS
 62
     7
100
AcDbCircle
 10
73.6756561135
 20
759.2161502995
 30
0.0
 40
5.169999249139196
100
AcDbArc
 50
7.6004748139
 51
194.8878493682
  0
ARC
  5
92
330
1F
100
AcDbEntity
  8
0
  6
CONTINUOUS
 62
     7
100
AcDbCircle
 10
67.7127818872
 20
757.6309061326
 30
0.0
 40
0.9999989171684124
100
AcDbArc
 50
350.0
 51
14.8878493682
  0
LINE
  5
93
330
1F
100
AcDbEntity
  8
0
  6
CONTINUOUS
 62
     7
100
AcDbLine
 10
66.7153140734
 20
746.2152554214
 30
0.0
 11
68.6975857447
 21
757.4572874725
 31
0.0
  0
ARC
  5
94
330
1F
100
AcDbEntity
  8
0
  6
CONTINUOUS
 62
     7
100
AcDbCircle
 10
65.7305099061
 20
746.3888830844
 30
0.0
 40
0.9999999999999278
100
AcDbArc
 50
325.1121170491
 51
350.0
  0
ARC
  5
95
330
1F
100
AcDbEntity
  8
0
  6
CONTINUOUS
 62
     7
100
AcDbCircle
 10
70.7915934296
 20
742.8598132965
 30
0.0
 40
5.170000000000022
100
AcDbArc
 50
145.1121170491
 51
173.9447545661
  0
LINE
  5
96
330
1F
100
AcDbEntity
  8
0
  6
CONTINUOUS
 62
     7
100
AcDbLine
 10
25.9482795577
 20
750.4057599724
 30
0.0
 11
65.6504398416
 21
743.4051944435
 31
0.0
  0
LINE
  5
97
330
1F
100
AcDbEntity
  8
0
  6
CONTINUOUS
 62
     7
100
AcDbLine
 10
25.9482795577
 20
750.4057599724
 30
0.0
 11
25.9482795577
 21
776.4190746963
 31
0.0
  0
ARC
  5
98
330
1F
100
AcDbEntity
  8
0
  6
CONTINUOUS
 62
     7
100
AcDbCircle
 10
585.1733889397
 20
669.0253038667
 30
0.0
 40
5.170000000000135
100
AcDbArc
 50
325.1121740788
 51
152.3995412421
  0
LINE
  5
99
330
1F
100
AcDbEntity
  8
0
  6
CONTINUOUS
 62
     7
100
AcDbLine
 10
587.3069381546
 20
651.4230682075
 30
0.0
 11
613.9483070205
 21
646.7255069435
 31
0.0
  0
ARC
  5
9A
330
1F
100
AcDbEntity
  8
0
  6
CONTINUOUS
 62
     7
100
AcDbCircle
 10
607.9482800697
 20
604.9239109139
 30
0.0
 40
6.0
100
AcDbArc
 50
280.0
 51
0.0
  0
LINE
  5
9B
330
1F
100
AcDbEntity
  8
0
  6
CONTINUOUS
 62
     7
100
AcDbLine
 10
593.9482664894
 20
225.3308607757
 30
0.0
 11
593.9482664894
 21
591.3281752289
 31
0.0
  0
ARC
  5
9C
330
1F
100
AcDbEntity
  8
0
  6
CONTINUOUS
 62
     7
100
AcDbCircle
 10
599.9482800697
 20
225.3308658779
 30
0.0
 40
6.000000000000026
100
AcDbArc
 50
180.0
 51
260.0
  0
LINE
  5
9D
330
1F
100
AcDbEntity
  8
0
  6
CONTINUOUS
 62
     7
100
AcDbLine
 10
608.9901542495
 20
217.6439775646
 30
0.0
 11
598.9064192604
 21
219.4220139206
 31
0.0
  0
ARC
  5
9E
330
1F
100
AcDbEntity
  8
0
  6
CONTINUOUS
 62
     7
100
AcDbCircle
 10
607.9482800697
 20
211.7351306896
 30
0.0
 40
6.000000000000034
100
AcDbArc
 50
0.0
 51
80.0
  0
LINE
  5
9F
330
1F
100
AcDbEntity
  8
0
  6
CONTINUOUS
 62
     7
100
AcDbLine
 10
573.9482855629
 20
181.8486465633
 30
0.0
 11
613.9483070205
 21
188.9017237842
 31
0.0
  0
LINE
  5
A0
330
1F
100
AcDbEntity
  8
0
  6
CONTINUOUS
 62
     7
100
AcDbLine
 10
573.9482855629
 20
634.8104192436
 30
0.0
 11
573.9482855629
 21
181.8486465633
 31
0.0
  0
LINE
  5
A1
330
1F
100
AcDbEntity
  8
0
  6
CONTINUOUS
 62
     7
100
AcDbLine
 10
613.9483070205
 20
627.757282418
 30
0.0
 11
613.9483070205
 21
604.9239350975
 31
0.0
  0
ARC
  5
A2
330
1F
100
AcDbEntity
  8
0
  6
CONTINUOUS
 62
     7
100
AcDbCircle
 10
599.9482800697
 20
591.3281757256
 30
0.0
 40
6.0
100
AcDbArc
 50
100.0
 51
180.0
  0
LINE
  5
A3
330
1F
100
AcDbEntity
  8
0
  6
CONTINUOUS
 62
     7
100
AcDbLine
 10
613.9483070205
 20
211.7351307094
 30
0.0
 11
613.9483070205
 21
188.9017237842
 31
0.0
  0
LINE
  5
A4
330
1F
100
AcDbEntity
  8
0
  6
CONTINUOUS
 62
     7
100
AcDbLine
 10
598.9064192604
 20
597.237022084
 30
0.0
 11
608.9901542495
 21
599.0150882423
 31
0.0
  0
LINE
  5
A5
330
1F
100
AcDbEntity
  8
0
  6
CONTINUOUS
 62
     7
100
AcDbLine
 10
613.9483070205
 20
627.757282418
 30
0.0
 11
573.9482855629
 21
634.8104192436
 31
0.0
  0
ARC
  5
A6
330
1F
100
AcDbEntity
  8
0
  6
CONTINUOUS
 62
     7
100
AcDbCircle
 10
607.9482800697
 20
141.8043262637
 30
0.0
 40
6.0
100
AcDbArc
 50
280.0
 51
0.0
  0
ARC
  5
A7
330
1F
100
AcDbEntity
  8
0
  6
CONTINUOUS
 62
     7
100
AcDbCircle
 10
31.9482800697
 20
40.2399853756
 30
0.0
 40
6.000000000000227
100
AcDbArc
 50
180.0
 51
280.0
  0
LINE
  5
A8
330
1F
100
AcDbEntity
  8
0
  6
CONTINUOUS
 62
     7
100
AcDbLine
 10
25.9482795577
 20
40.23998366
 30
0.0
 11
25.9482795577
 21
66.253298384
 31
0.0
  0
LINE
  5
A9
330
1F
100
AcDbEntity
  8
0
  6
CONTINUOUS
 62
     7
100
AcDbLine
 10
65.6504398416
 20
73.2538564623
 30
0.0
 11
25.9482795577
 21
66.253298384
 31
0.0
  0
ARC
  5
AA
330
1F
100
AcDbEntity
  8
0
  6
CONTINUOUS
 62
     7
100
AcDbCircle
 10
70.791593378
 20
73.7992238622
 30
0.0
 40
5.169999249139373
100
AcDbArc
 50
186.0551963346
 51
214.8878493682
  0
ARC
  5
AB
330
1F
100
AcDbEntity
  8
0
  6
CONTINUOUS
 62
     7
100
AcDbCircle
 10
65.7305099061
 20
70.270158519
 30
0.0
 40
0.9999989171684945
100
AcDbArc
 50
10.0
 51
34.8878493682
  0
LINE
  5
AC
330
1F
100
AcDbEntity
  8
0
  6
CONTINUOUS
 62
     7
100
AcDbLine
 10
68.6975931953
 20
59.2017820597
 30
0.0
 11
66.7153140734
 21
70.4438029349
 31
0.0
  0
ARC
  5
AD
330
1F
100
AcDbEntity
  8
0
  6
CONTINUOUS
 62
     7
100
AcDbCircle
 10
67.7127818872
 20
59.0281354708
 30
0.0
 40
0.9999999999999456
100
AcDbArc
 50
345.1121170491
 51
10.0
  0
ARC
  5
AE
330
1F
100
AcDbEntity
  8
0
  6
CONTINUOUS
 62
     7
100
AcDbCircle
 10
73.6756576821
 20
57.4428871449
 30
0.0
 40
5.170000000000024
100
AcDbArc
 50
165.1121170491
 51
352.3995412421
  0
ARC
  5
AF
330
1F
100
AcDbEntity
  8
0
  6
CONTINUOUS
 62
     7
100
AcDbCircle
 10
79.7914510315
 20
56.6268162488
 30
0.0
 40
1.000000000000048
100
AcDbArc
 50
100.0000385431
 51
172.3995412421
  0
LINE
  5
B0
330
1F
100
AcDbEntity
  8
0
  6
CONTINUOUS
 62
     7
100
AcDbLine
 10
83.6000060867
 20
58.3137957871
 30
0.0
 11
79.6178048681
 21
57.6116232694
 31
0.0
  0
ARC
  5
B1
330
1F
100
AcDbEntity
  8
0
  6
CONTINUOUS
 62
     7
100
AcDbCircle
 10
83.7736553519
 20
57.3289890753
 30
0.0
 40
1.000000000000001
100
AcDbArc
 50
27.6004748139
 51
100.0000385431
  0
ARC
  5
B2
330
1F
100
AcDbEntity
  8
0
  6
CONTINUOUS
 62
     7
100
AcDbCircle
 10
89.2415077466
 20
60.1875709246
 30
0.0
 40
5.17000000000011
100
AcDbArc
 50
207.6004748139
 51
34.8879011019
  0
ARC
  5
B3
330
1F
100
AcDbEntity
  8
0
  6
CONTINUOUS
 62
     7
100
AcDbCircle
 10
94.3025901521
 20
63.7166423159
 30
0.0
 40
0.9999999999999342
100
AcDbArc
 50
190.0
 51
214.8879011019
  0
LINE
  5
B4
330
1F
100
AcDbEntity
  8
0
  6
CONTINUOUS
 62
     7
100
AcDbLine
 10
91.3355117868
 20
74.785002929
 30
0.0
 11
93.3177834581
 21
63.5429932297
 31
0.0
  0
ARC
  5
B5
330
1F
100
AcDbEntity
  8
0
  6
CONTINUOUS
 62
     7
100
AcDbCircle
 10
92.3203477118
 20
74.9586581007
 30
0.0
 40
1.000027830745301
100
AcDbArc
 50
165.1121740788
 51
190.0
  0
ARC
  5
B6
330
1F
100
AcDbEntity
  8
0
  6
CONTINUOUS
 62
     7
100
AcDbCircle
 10
86.3574434425
 20
76.5439076419
 30
0.0
 40
5.170000000000007
100
AcDbArc
 50
345.1121740788
 51
13.9447545661
  0
LINE
  5
B7
330
1F
100
AcDbEntity
  8
0
  6
CONTINUOUS
 62
     7
100
AcDbLine
 10
561.5823483299
 20
160.7000245273
 30
0.0
 11
91.3750743698
 21
77.7898071826
 31
0.0
  0
ARC
  5
B8
330
1F
100
AcDbEntity
  8
0
  6
CONTINUOUS
 62
     7
100
AcDbCircle
 10
566.7234746226
 20
161.2453951192
 30
0.0
 40
5.169999249139217
100
AcDbArc
 50
186.0551963346
 51
214.8878493682
  0
ARC
  5
B9
330
1F
100
AcDbEntity
  8
0
  6
CONTINUOUS
 62
     7
100
AcDbCircle
 10
561.6623911507
 20
157.7163297759
 30
0.0
 40
0.999998917168521
100
AcDbArc
 50
10.0
 51
34.8878493682
  0
LINE
  5
BA
330
1F
100
AcDbEntity
  8
0
  6
CONTINUOUS
 62
     7
100
AcDbLine
 10
564.6294569801
 20
146.6479613006
 30
0.0
 11
562.6471853088
 21
157.8899784506
 31
0.0
  0
ARC
  5
BB
330
1F
100
AcDbEntity
  8
0
  6
CONTINUOUS
 62
     7
100
AcDbCircle
 10
563.6446631319
 20
146.4743067278
 30
0.0
 40
1.000000000000066
100
AcDbArc
 50
345.1121170491
 51
10.0
  0
ARC
  5
BC
330
1F
100
AcDbEntity
  8
0
  6
CONTINUOUS
 62
     7
100
AcDbCircle
 10
569.6075389267
 20
144.8890584018
 30
0.0
 40
5.170000000000103
100
AcDbArc
 50
165.1121170491
 51
352.3995412421
  0
ARC
  5
BD
330
1F
100
AcDbEntity
  8
0
  6
CONTINUOUS
 62
     7
100
AcDbCircle
 10
575.7233322761
 20
144.0729875058
 30
0.0
 40
1.000000000000013
100
AcDbArc
 50
100.0000385431
 51
172.3995412421
  0
LINE
  5
BE
330
1F
100
AcDbEntity
  8
0
  6
CONTINUOUS
 62
     7
100
AcDbLine
 10
579.5318698715
 20
145.7599713028
 30
0.0
 11
575.549683554
 21
145.057798785
 31
0.0
  0
ARC
  5
BF
330
1F
100
AcDbEntity
  8
0
  6
CONTINUOUS
 62
     7
100
AcDbCircle
 10
579.7055365965
 20
144.7751603323
 30
0.0
 40
1.000000000000033
100
AcDbArc
 50
27.6004748139
 51
100.0000385431
  0
ARC
  5
C0
330
1F
100
AcDbEntity
  8
0
  6
CONTINUOUS
 62
     7
100
AcDbCircle
 10
585.1733889913
 20
147.6337421815
 30
0.0
 40
5.170000000000017
100
AcDbArc
 50
207.6004748139
 51
34.8879011019
  0
ARC
  5
C1
330
1F
100
AcDbEntity
  8
0
  6
CONTINUOUS
 62
     7
100
AcDbCircle
 10
590.2344713967
 20
151.1628135728
 30
0.0
 40
0.9999999999999931
100
AcDbArc
 50
190.0
 51
214.8879011019
  0
LINE
  5
C2
330
1F
100
AcDbEntity
  8
0
  6
CONTINUOUS
 62
     7
100
AcDbLine
 10
587.2674202751
 20
162.2311784447
 30
0.0
 11
589.2496919464
 21
150.9891612947
 31
0.0
  0
ARC
  5
C3
330
1F
100
AcDbEntity
  8
0
  6
CONTINUOUS
 62
     7
100
AcDbCircle
 10
588.2522289564
 20
162.4048293576
 30
0.0
 40
1.000027830745316
100
AcDbArc
 50
165.1121740788
 51
190.0
  0
LINE
  5
C4
330
1F
100
AcDbEntity
  8
0
  6
CONTINUOUS
 62
     7
100
AcDbLine
 10
613.9483070205
 20
169.9335588634
 30
0.0
 11
587.3069381546
 21
165.2359826982
 31
0.0
  0
LINE
  5
C5
330
1F
100
AcDbEntity
  8
0
  6
CONTINUOUS
 62
     7
100
AcDbLine
 10
613.9483070205
 20
169.9335588634
 30
0.0
 11
613.9483070205
 21
141.8043239534
 31
0.0
  0
LINE
  5
C6
330
1F
100
AcDbEntity
  8
0
  6
CONTINUOUS
 62
     7
100
AcDbLine
 10
608.9901542495
 20
135.8954770983
 30
0.0
 11
32.9901678692
 21
34.3311386675
 31
0.0
  0
ARC
  5
C7
330
1F
100
AcDbEntity
  8
0
  6
CONTINUOUS
 62
     7
100
AcDbCircle
 10
582.2893246872
 20
163.9900788989
 30
0.0
 40
5.170000000000052
100
AcDbArc
 50
345.1121740788
 51
13.9447545661
  0
LINE
  5
C8
330
1F
100
AcDbEntity
  8
0
  6
CONTINUOUS
 62
     7
100
AcDbLine
 10
25.9482795577
 20
85.2214633048
 30
0.0
 11
25.9482795577
 21
731.4375950516
 31
0.0
  0
LINE
  5
C9
330
1F
100
AcDbEntity
  8
0
  6
CONTINUOUS
 62
     7
100
AcDbLine
 10
555.6082939933
 20
178.6148114622
 30
0.0
 11
555.6082939933
 21
638.0442096413
 31
0.0
  0
LINE
  5
CA
330
1F
100
AcDbEntity
  8
0
  6
CONTINUOUS
 62
     7
100
AcDbLine
 10
555.6082939933
 20
638.0442096413
 30
0.0
 11
25.9482795577
 21
731.4375950516
 31
0.0
  0
LINE
  5
CB
330
1F
100
AcDbEntity
  8
0
  6
CONTINUOUS
 62
     7
100
AcDbLine
 10
25.9482795577
 20
85.2214633048
 30
0.0
 11
555.6082939933
 21
178.6148114622
 31
0.0
  0
ARC
  5
CC
330
1F
100
AcDbEntity
  8
0
  6
CONTINUOUS
 62
     7
100
AcDbCircle
 10
576.1735313378
 20
164.8061497949
 30
0.0
 40
1.000000000000013
100
AcDbArc
 50
280.0000385431
 51
352.3995412421
  0
LINE
  5
CD
330
1F
100
AcDbEntity
  8
0
  6
CONTINUOUS
 62
     7
100
AcDbLine
 10
576.3471937011
 20
163.8213409603
 30
0.0
 11
572.3649477791
 21
163.1191684425
 31
0.0
  0
ARC
  5
CE
330
1F
100
AcDbEntity
  8
0
  6
CONTINUOUS
 62
     7
100
AcDbCircle
 10
572.1913270174
 20
164.1039769684
 30
0.0
 40
1.000000000000133
100
AcDbArc
 50
207.6004748139
 51
280.0000385431
  0
ARC
  5
CF
330
1F
100
AcDbEntity
  8
0
  6
CONTINUOUS
 62
     7
100
AcDbCircle
 10
80.2416500931
 20
77.359978538
 30
0.0
 40
1.000000000000077
100
AcDbArc
 50
280.0000385431
 51
352.3995412421
  0
LINE
  5
D0
330
1F
100
AcDbEntity
  8
0
  6
CONTINUOUS
 62
     7
100
AcDbLine
 10
80.415300114
 20
76.3751728952
 30
0.0
 11
76.4330914448
 21
75.6730003775
 31
0.0
  0
ARC
  5
D1
330
1F
100
AcDbEntity
  8
0
  6
CONTINUOUS
 62
     7
100
AcDbCircle
 10
76.2594457728
 20
76.6578057115
 30
0.0
 40
0.9999999999999979
100
AcDbArc
 50
207.6004748139
 51
280.0000385431
  0
ARC
  5
D2
330
1F
100
AcDbEntity
  8
0
  6
CONTINUOUS
 62
     7
100
AcDbCircle
 10
76.2594466254
 20
740.0012329795
 30
0.0
 40
0.9999999999999628
100
AcDbArc
 50
80.0000385431
 51
152.3995412421
  0
LINE
  5
D3
330
1F
100
AcDbEntity
  8
0
  6
CONTINUOUS
 62
     7
100
AcDbLine
 10
76.4330914448
 20
740.986020726
 30
0.0
 11
80.415300114
 21
740.2838780105
 31
0.0
  0
ARC
  5
D4
330
1F
100
AcDbEntity
  8
0
  6
CONTINUOUS
 62
     7
100
AcDbCircle
 10
80.2416518905
 20
739.2990655107
 30
0.0
 40
1.000000000000075
100
AcDbArc
 50
7.6004748139
 51
80.0000385431
  0
ARC
  5
D5
330
1F
100
AcDbEntity
  8
0
  6
CONTINUOUS
 62
     7
100
AcDbCircle
 10
572.19132787
 20
652.5550617226
 30
0.0
 40
0.9999999999999578
100
AcDbArc
 50
80.0000385431
 51
152.3995412421
  0
LINE
  5
D6
330
1F
100
AcDbEntity
  8
0
  6
CONTINUOUS
 62
     7
100
AcDbLine
 10
572.3649477791
 20
653.5398675621
 30
0.0
 11
576.3471937011
 21
652.8377248466
 31
0.0
  0
ARC
  5
D7
330
1F
100
AcDbEntity
  8
0
  6
CONTINUOUS
 62
     7
100
AcDbCircle
 10
576.1735331351
 20
651.8528942537
 30
0.0
 40
1.000000000000104
100
AcDbArc
 50
7.6004748139
 51
80.0000385431
  0
LINE
  5
D8
330
1F
100
AcDbEntity
  8
0
  6
CONTINUOUS
 62
     7
100
AcDbLine
 10
25.9482795577
 20
85.2214633048
 30
0.0
 11
25.9482795577
 21
66.253298384
 31
0.0
  0
LINE
  5
D9
330
1F
100
AcDbEntity
  8
0
  6
CONTINUOUS
 62
     7
100
AcDbLine
 10
25.9482795577
 20
750.4057599724
 30
0.0
 11
25.9482795577
 21
731.4375950516
 31
0.0
  0
ARC
  5
DA
330
1F
100
AcDbEntity
  8
0
  6
CONTINUOUS
 62
     7
100
AcDbCircle
 10
86.3574450112
 20
740.1151381206
 30
0.0
 40
5.170000000000087
100
AcDbArc
 50
187.6004748139
 51
346.0551969086
  0
ARC
  5
DB
330
1F
100
AcDbEntity
  8
0
  6
CONTINUOUS
 62
     7
100
AcDbCircle
 10
86.3574434425
 20
76.5439076419
 30
0.0
 40
5.17000000000001
100
AcDbArc
 50
13.9447545661
 51
172.3995412421
  0
ARC
  5
DC
330
1F
100
AcDbEntity
  8
0
  6
CONTINUOUS
 62
     7
100
AcDbCircle
 10
70.791593378
 20
73.7992238622
 30
0.0
 40
5.169999999999927
100
AcDbArc
 50
27.6004748139
 51
186.0551963345
  0
ARC
  5
DD
330
1F
100
AcDbEntity
  8
0
  6
CONTINUOUS
 62
     7
100
AcDbCircle
 10
70.7915934296
 20
742.8598132965
 30
0.0
 40
5.170000000000083
100
AcDbArc
 50
173.944754566
 51
332.3995412421
  0
ARC
  5
DE
330
1F
100
AcDbEntity
  8
0
  6
CONTINUOUS
 62
     7
100
AcDbCircle
 10
566.7234746742
 20
655.4136420395
 30
0.0
 40
5.170000000000043
100
AcDbArc
 50
173.9447545643
 51
332.3995412421
  0
ARC
  5
DF
330
1F
100
AcDbEntity
  8
0
  6
CONTINUOUS
 62
     7
100
AcDbCircle
 10
566.7234746226
 20
161.2453951192
 30
0.0
 40
5.169999999999975
100
AcDbArc
 50
27.6004748139
 51
186.0551963345
  0
LINE
  5
E0
330
1F
100
AcDbEntity
  8
0
  6
CONTINUOUS
 62
     7
100
AcDbLine
 10
613.9483070205
 20
627.757282418
 30
0.0
 11
613.9483070205
 21
646.7255069435
 31
0.0
  0
ARC
  5
E1
330
1F
100
AcDbEntity
  8
0
  6
CONTINUOUS
 62
     7
100
AcDbCircle
 10
582.2893262558
 20
652.6689668636
 30
0.0
 40
5.170000000000035
100
AcDbArc
 50
187.6004748139
 51
346.0551969103
  0
LINE
  5
E2
330
1F
100
AcDbEntity
  8
0
  6
CONTINUOUS
 62
     7
100
AcDbLine
 10
613.9483070205
 20
169.9335588634
 30
0.0
 11
613.9483070205
 21
188.9017237842
 31
0.0
  0
ARC
  5
E3
330
1F
100
AcDbEntity
  8
0
  6
CONTINUOUS
 62
     7
100
AcDbCircle
 10
582.2893246872
 20
163.9900788989
 30
0.0
 40
5.170000000000051
100
AcDbArc
 50
13.9447545661
 51
172.3995412421
  0
ARC
  5
E4
330
1F
100
AcDbEntity
  8
0
  6
CONTINUOUS
 62
     7
100
AcDbCircle
 10
690.4139965791
 20
73.8243333887
 30
0.0
 40
5.169999249139228
100
AcDbArc
 50
186.0551963346
 51
214.8878493682
  0
ARC
  5
E5
330
1F
100
AcDbEntity
  8
0
  6
CONTINUOUS
 62
     7
100
AcDbCircle
 10
685.3529131072
 20
70.2952680455
 30
0.0
 40
0.999998917168521
100
AcDbArc
 50
10.0
 51
34.8878493682
  0
LINE
  5
E6
330
1F
100
AcDbEntity
  8
0
  6
CONTINUOUS
 62
     7
100
AcDbLine
 10
688.320002539
 20
59.2268942416
 30
0.0
 11
686.3377308677
 21
70.4689188421
 31
0.0
  0
ARC
  5
E7
330
1F
100
AcDbEntity
  8
0
  6
CONTINUOUS
 62
     7
100
AcDbCircle
 10
687.3351850883
 20
59.0532449973
 30
0.0
 40
1.000000000000116
100
AcDbArc
 50
345.1121170491
 51
10.0
  0
ARC
  5
E8
330
1F
100
AcDbEntity
  8
0
  6
CONTINUOUS
 62
     7
100
AcDbCircle
 10
693.2980608832
 20
57.4679966714
 30
0.0
 40
5.169999999999996
100
AcDbArc
 50
165.1121170491
 51
352.3995412421
  0
ARC
  5
E9
330
1F
100
AcDbEntity
  8
0
  6
CONTINUOUS
 62
     7
100
AcDbCircle
 10
699.4138542326
 20
56.6519257753
 30
0.0
 40
1.000000000000175
100
AcDbArc
 50
100.0000385431
 51
172.3995412421
  0
LINE
  5
EA
330
1F
100
AcDbEntity
  8
0
  6
CONTINUOUS
 62
     7
100
AcDbLine
 10
703.2224154304
 20
58.338907969
 30
0.0
 11
699.240229113
 21
57.636731726
 31
0.0
  0
ARC
  5
EB
330
1F
100
AcDbEntity
  8
0
  6
CONTINUOUS
 62
     7
100
AcDbCircle
 10
703.3960585529
 20
57.3540986018
 30
0.0
 40
1.000000000000013
100
AcDbArc
 50
27.6004748139
 51
100.0000385431
  0
ARC
  5
EC
330
1F
100
AcDbEntity
  8
0
  6
CONTINUOUS
 62
     7
100
AcDbCircle
 10
708.8639109477
 20
60.2126804511
 30
0.0
 40
5.170000000000017
100
AcDbArc
 50
207.6004748139
 51
34.8879011019
  0
ARC
  5
ED
330
1F
100
AcDbEntity
  8
0
  6
CONTINUOUS
 62
     7
100
AcDbCircle
 10
713.9249933532
 20
63.7417518424
 30
0.0
 40
0.9999999999999646
100
AcDbArc
 50
190.0
 51
214.8879011019
  0
LINE
  5
EE
330
1F
100
AcDbEntity
  8
0
  6
CONTINUOUS
 62
     7
100
AcDbLine
 10
710.9579062294
 20
74.8101113856
 30
0.0
 11
712.9401779007
 21
63.5681054116
 31
0.0
  0
ARC
  5
EF
330
1F
100
AcDbEntity
  8
0
  6
CONTINUOUS
 62
     7
100
AcDbCircle
 10
711.9427509129
 20
74.9837676272
 30
0.0
 40
1.000027830745209
100
AcDbArc
 50
165.1121740788
 51
190.0
  0
ARC
  5
F0
330
1F
100
AcDbEntity
  8
0
  6
CONTINUOUS
 62
     7
100
AcDbCircle
 10
705.9798466436
 20
76.5690171684
 30
0.0
 40
5.16999999999994
100
AcDbArc
 50
345.1121740788
 51
13.9447545661
  0
LINE
  5
F1
330
1F
100
AcDbEntity
  8
0
  6
CONTINUOUS
 62
     7
100
AcDbLine
 10
710.9974837135
 20
77.8149156392
 30
0.0
 11
1181.0623621772
 21
160.7000245273
 31
0.0
  0
ARC
  5
F2
330
1F
100
AcDbEntity
  8
0
  6
CONTINUOUS
 62
     7
100
AcDbCircle
 10
1186.2034746226
 20
161.2453951192
 30
0.0
 40
5.169999249139205
100
AcDbArc
 50
186.0551963346
 51
214.8878493682
  0
ARC
  5
F3
330
1F
100
AcDbEntity
  8
0
  6
CONTINUOUS
 62
     7
100
AcDbCircle
 10
1181.1423911507
 20
157.7163297759
 30
0.0
 40
0.999998917168521
100
AcDbArc
 50
10.0
 51
34.8878493682
  0
LINE
  5
F4
330
1F
100
AcDbEntity
  8
0
  6
CONTINUOUS
 62
     7
100
AcDbLine
 10
1184.1094708275
 20
146.6479613006
 30
0.0
 11
1182.1271395515
 21
157.8899784506
 31
0.0
  0
ARC
  5
F5
330
1F
100
AcDbEntity
  8
0
  6
CONTINUOUS
 62
     7
100
AcDbCircle
 10
1183.1246631319
 20
146.4743067278
 30
0.0
 40
1.000000000000176
100
AcDbArc
 50
345.1121170491
 51
10.0
  0
ARC
  5
F6
330
1F
100
AcDbEntity
  8
0
  6
CONTINUOUS
 62
     7
100
AcDbCircle
 10
1189.0875389267
 20
144.8890584018
 30
0.0
 40
5.170000000000103
100
AcDbArc
 50
165.1121170491
 51
352.3995412421
  0
ARC
  5
F7
330
1F
100
AcDbEntity
  8
0
  6
CONTINUOUS
 62
     7
100
AcDbCircle
 10
1195.2033322761
 20
144.0729875058
 30
0.0
 40
0.9999999999999573
100
AcDbArc
 50
100.0000385431
 51
172.3995412421
  0
LINE
  5
F8
330
1F
100
AcDbEntity
  8
0
  6
CONTINUOUS
 62
     7
100
AcDbLine
 10
1199.0119433235
 20
145.7599713028
 30
0.0
 11
1195.0296377968
 21
145.057798785
 31
0.0
  0
ARC
  5
F9
330
1F
100
AcDbEntity
  8
0
  6
CONTINUOUS
 62
     7
100
AcDbCircle
 10
1199.1855365965
 20
144.7751603323
 30
0.0
 40
1.00000000000012
100
AcDbArc
 50
27.6004748139
 51
100.0000385431
  0
ARC
  5
FA
330
1F
100
AcDbEntity
  8
0
  6
CONTINUOUS
 62
     7
100
AcDbCircle
 10
1204.6533889913
 20
147.6337421815
 30
0.0
 40
5.170000000000103
100
AcDbArc
 50
207.6004748139
 51
34.8879011019
  0
ARC
  5
FB
330
1F
100
AcDbEntity
  8
0
  6
CONTINUOUS
 62
     7
100
AcDbCircle
 10
1209.7144713967
 20
151.1628135728
 30
0.0
 40
1.000000000000115
100
AcDbArc
 50
190.0
 51
214.8879011019
  0
LINE
  5
FC
330
1F
100
AcDbEntity
  8
0
  6
CONTINUOUS
 62
     7
100
AcDbLine
 10
1206.7474341224
 20
162.2311784447
 30
0.0
 11
1208.7296461891
 21
150.9891612947
 31
0.0
  0
ARC
  5
FD
330
1F
100
AcDbEntity
  8
0
  6
CONTINUOUS
 62
     7
100
AcDbCircle
 10
1207.7322289564
 20
162.4048293576
 30
0.0
 40
1.000027830745535
100
AcDbArc
 50
165.1121740788
 51
190.0
  0
ARC
  5
FE
330
1F
100
AcDbEntity
  8
0
  6
CONTINUOUS
 62
     7
100
AcDbCircle
 10
1201.7693246872
 20
163.9900788989
 30
0.0
 40
5.169999999999943
100
AcDbArc
 50
345.1121740788
 51
13.9447545661
  0
LINE
  5
FF
330
1F
100
AcDbEntity
  8
0
  6
CONTINUOUS
 62
     7
100
AcDbLine
 10
1206.7870116066
 20
165.2359826982
 30
0.0
 11
1233.4282612632
 21
169.9335588634
 31
0.0
  0
LINE
  5
100
330
1F
100
AcDbEntity
  8
0
  6
CONTINUOUS
 62
     7
100
AcDbLine
 10
1233.4282612632
 20
141.8043239534
 30
0.0
 11
1233.4282612632
 21
169.9335588634
 31
0.0
  0
ARC
  5
101
330
1F
100
AcDbEntity
  8
0
  6
CONTINUOUS
 62
     7
100
AcDbCircle
 10
1227.4282800697
 20
141.8043262637
 30
0.0
 40
6.0
100
AcDbArc
 50
280.0
 51
0.0
  0
LINE
  5
102
330
1F
100
AcDbEntity
  8
0
  6
CONTINUOUS
 62
     7
100
AcDbLine
 10
652.4701928924
 20
34.3311386675
 30
0.0
 11
1228.4702277015
 21
135.8954770983
 31
0.0
  0
ARC
  5
103
330
1F
100
AcDbEntity
  8
0
  6
CONTINUOUS
 62
     7
100
AcDbCircle
 10
651.4282800697
 20
40.2399853756
 30
0.0
 40
6.0
100
AcDbArc
 50
180.0
 51
280.0
  0
LINE
  5
104
330
1F
100
AcDbEntity
  8
0
  6
CONTINUOUS
 62
     7
100
AcDbLine
 10
645.4282617401
 20
66.253298384
 30
0.0
 11
645.4282617401
 21
40.23998366
 31
0.0
  0
LINE
  5
105
330
1F
100
AcDbEntity
  8
0
  6
CONTINUOUS
 62
     7
100
AcDbLine
 10
645.4282617401
 20
66.253298384
 30
0.0
 11
685.2728342842
 21
73.2789649189
 31
0.0
  0
ARC
  5
106
330
1F
100
AcDbEntity
  8
0
  6
CONTINUOUS
 62
     7
100
AcDbCircle
 10
1201.7693262558
 20
652.6689668636
 30
0.0
 40
5.170000000000059
100
AcDbArc
 50
346.0551969084
 51
14.8879011019
  0
ARC
  5
107
330
1F
100
AcDbEntity
  8
0
  6
CONTINUOUS
 62
     7
100
AcDbCircle
 10
1207.7322015485
 20
654.2542170786
 30
0.0
 40
1.000000000000349
100
AcDbArc
 50
170.0
 51
194.8879011019
  0
LINE
  5
108
330
1F
100
AcDbEntity
  8
0
  6
CONTINUOUS
 62
     7
100
AcDbLine
 10
1208.7296461891
 20
665.669889611
 30
0.0
 11
1206.7474341224
 21
654.42785756
 31
0.0
  0
ARC
  5
109
330
1F
100
AcDbEntity
  8
0
  6
CONTINUOUS
 62
     7
100
AcDbCircle
 10
1209.7144988047
 20
665.4962231979
 30
0.0
 40
1.000027830745284
100
AcDbArc
 50
145.1121740788
 51
170.0
  0
ARC
  5
10A
330
1F
100
AcDbEntity
  8
0
  6
CONTINUOUS
 62
     7
100
AcDbCircle
 10
1204.6533889397
 20
669.0253038667
 30
0.0
 40
5.170000000000045
100
AcDbArc
 50
325.1121740788
 51
152.3995412421
  0
ARC
  5
10B
330
1F
100
AcDbEntity
  8
0
  6
CONTINUOUS
 62
     7
100
AcDbCircle
 10
1199.1855357439
 20
671.8838841836
 30
0.0
 40
1.000000000000189
100
AcDbArc
 50
260.0000385431
 51
332.3995412421
  0
LINE
  5
10C
330
1F
100
AcDbEntity
  8
0
  6
CONTINUOUS
 62
     7
100
AcDbLine
 10
1195.0296377968
 20
671.6012670219
 30
0.0
 11
1199.0119433235
 21
670.8990647018
 31
0.0
  0
ARC
  5
10D
330
1F
100
AcDbEntity
  8
0
  6
CONTINUOUS
 62
     7
100
AcDbCircle
 10
1195.2033304788
 20
672.5860516525
 30
0.0
 40
1.00000075086069
100
AcDbArc
 50
187.6004748139
 51
260.0000385431
  0
ARC
  5
10E
330
1F
100
AcDbEntity
  8
0
  6
CONTINUOUS
 62
     7
100
AcDbCircle
 10
1189.0875373581
 20
671.7699790426
 30
0.0
 40
5.169999249139337
100
AcDbArc
 50
7.6004748139
 51
194.8878493682
  0
ARC
  5
10F
330
1F
100
AcDbEntity
  8
0
  6
CONTINUOUS
 62
     7
100
AcDbCircle
 10
1183.1246631318
 20
670.1847348757
 30
0.0
 40
0.999998917168526
100
AcDbArc
 50
350.0
 51
14.8878493682
  0
LINE
  5
110
330
1F
100
AcDbEntity
  8
0
  6
CONTINUOUS
 62
     7
100
AcDbLine
 10
1182.1271395515
 20
658.7690426529
 30
0.0
 11
1184.1094708275
 21
670.011074704
 31
0.0
  0
ARC
  5
111
330
1F
100
AcDbEntity
  8
0
  6
CONTINUOUS
 62
     7
100
AcDbCircle
 10
1181.1423911507
 20
658.9427118275
 30
0.0
 40
0.9999999999999009
100
AcDbArc
 50
325.1121170491
 51
350.0
  0
ARC
  5
112
330
1F
100
AcDbEntity
  8
0
  6
CONTINUOUS
 62
     7
100
AcDbCircle
 10
1186.2034746742
 20
655.4136420395
 30
0.0
 40
5.170000000000107
100
AcDbArc
 50
145.1121170491
 51
173.9447545661
  0
LINE
  5
113
330
1F
100
AcDbEntity
  8
0
  6
CONTINUOUS
 62
     7
100
AcDbLine
 10
1181.0623621772
 20
655.9590412796
 30
0.0
 11
710.9974837135
 21
738.844127816
 31
0.0
  0
ARC
  5
114
330
1F
100
AcDbEntity
  8
0
  6
CONTINUOUS
 62
     7
100
AcDbCircle
 10
705.9798482123
 20
740.0900285941
 30
0.0
 40
5.169999999999999
100
AcDbArc
 50
346.0551969084
 51
14.8879011019
  0
ARC
  5
115
330
1F
100
AcDbEntity
  8
0
  6
CONTINUOUS
 62
     7
100
AcDbCircle
 10
711.9427235049
 20
741.675278809
 30
0.0
 40
0.9999999999999931
100
AcDbArc
 50
170.0
 51
194.8879011019
  0
LINE
  5
116
330
1F
100
AcDbEntity
  8
0
  6
CONTINUOUS
 62
     7
100
AcDbLine
 10
712.9401779007
 20
753.0909492195
 30
0.0
 11
710.9579062294
 21
741.8489171684
 31
0.0
  0
ARC
  5
117
330
1F
100
AcDbEntity
  8
0
  6
CONTINUOUS
 62
     7
100
AcDbCircle
 10
713.9250207611
 20
752.9172849283
 30
0.0
 40
1.000027830745234
100
AcDbArc
 50
145.1121740788
 51
170.0
  0
ARC
  5
118
330
1F
100
AcDbEntity
  8
0
  6
CONTINUOUS
 62
     7
100
AcDbCircle
 10
708.8639108962
 20
756.4463655971
 30
0.0
 40
5.170000000000042
100
AcDbArc
 50
325.1121740788
 51
152.3995412421
  0
ARC
  5
119
330
1F
100
AcDbEntity
  8
0
  6
CONTINUOUS
 62
     7
100
AcDbCircle
 10
703.3960577003
 20
759.3049459141
 30
0.0
 40
1.000000000000136
100
AcDbArc
 50
260.0000385431
 51
332.3995412421
  0
LINE
  5
11A
330
1F
100
AcDbEntity
  8
0
  6
CONTINUOUS
 62
     7
100
AcDbLine
 10
699.240229113
 20
759.0223266304
 30
0.0
 11
703.2224154304
 21
758.3201243103
 31
0.0
  0
ARC
  5
11B
330
1F
100
AcDbEntity
  8
0
  6
CONTINUOUS
 62
     7
100
AcDbCircle
 10
699.4138524353
 20
760.0071133829
 30
0.0
 40
1.000000750860675
100
AcDbArc
 50
187.6004748139
 51
260.0000385431
  0
ARC
  5
11C
330
1F
100
AcDbEntity
  8
0
  6
CONTINUOUS
 62
     7
100
AcDbCircle
 10
693.2980593146
 20
759.191040773
 30
0.0
 40
5.169999249139209
100
AcDbArc
 50
7.6004748139
 51
194.8878493682
  0
ARC
  5
11D
330
1F
100
AcDbEntity
  8
0
  6
CONTINUOUS
 62
     7
100
AcDbCircle
 10
687.3351850883
 20
757.6057966061
 30
0.0
 40
0.9999989171685497
100
AcDbArc
 50
350.0
 51
14.8878493682
  0
LINE
  5
11E
330
1F
100
AcDbEntity
  8
0
  6
CONTINUOUS
 62
     7
100
AcDbLine
 10
686.3377308677
 20
746.1901022613
 30
0.0
 11
688.320002539
 21
757.4321343124
 31
0.0
  0
ARC
  5
11F
330
1F
100
AcDbEntity
  8
0
  6
CONTINUOUS
 62
     7
100
AcDbCircle
 10
685.3529131072
 20
746.363773558
 30
0.0
 40
0.9999999999999931
100
AcDbArc
 50
325.1121170491
 51
350.0
  0
ARC
  5
120
330
1F
100
AcDbEntity
  8
0
  6
CONTINUOUS
 62
     7
100
AcDbCircle
 10
690.4139966306
 20
742.83470377
 30
0.0
 40
5.169999999999937
100
AcDbArc
 50
145.1121170491
 51
173.9447545661
  0
LINE
  5
121
330
1F
100
AcDbEntity
  8
0
  6
CONTINUOUS
 62
     7
100
AcDbLine
 10
685.2728342842
 20
743.380100888
 30
0.0
 11
645.4282617401
 21
750.4057599724
 31
0.0
  0
LINE
  5
122
330
1F
100
AcDbEntity
  8
0
  6
CONTINUOUS
 62
     7
100
AcDbLine
 10
645.4282617401
 20
776.4190746963
 30
0.0
 11
645.4282617401
 21
750.4057599724
 31
0.0
  0
ARC
  5
123
330
1F
100
AcDbEntity
  8
0
  6
CONTINUOUS
 62
     7
100
AcDbCircle
 10
651.4282800697
 20
776.4190562278
 30
0.0
 40
6.00000000000011
100
AcDbArc
 50
80.0
 51
180.0
  0
LINE
  5
124
330
1F
100
AcDbEntity
  8
0
  6
CONTINUOUS
 62
     7
100
AcDbLine
 10
1228.4702277015
 20
680.7635738075
 30
0.0
 11
652.4701928924
 21
782.3279215515
 31
0.0
  0
ARC
  5
125
330
1F
100
AcDbEntity
  8
0
  6
CONTINUOUS
 62
     7
100
AcDbCircle
 10
1227.4282800697
 20
674.8547153397
 30
0.0
 40
6.0
100
AcDbArc
 50
0.0
 51
80.0
  0
LINE
  5
126
330
1F
100
AcDbEntity
  8
0
  6
CONTINUOUS
 62
     7
100
AcDbLine
 10
1233.4282612632
 20
646.7255069435
 30
0.0
 11
1233.4282612632
 21
674.8547269523
 31
0.0
  0
LINE
  5
127
330
1F
100
AcDbEntity
  8
0
  6
CONTINUOUS
 62
     7
100
AcDbLine
 10
1233.4282612632
 20
646.7255069435
 30
0.0
 11
1206.7870116066
 21
651.4230682075
 31
0.0
  0
LINE
  5
128
330
1F
100
AcDbEntity
  8
0
  6
CONTINUOUS
 62
     7
100
AcDbLine
 10
1228.4702277015
 20
599.0150882423
 30
0.0
 11
1218.3864331077
 21
597.237022084
 31
0.0
  0
ARC
  5
129
330
1F
100
AcDbEntity
  8
0
  6
CONTINUOUS
 62
     7
100
AcDbCircle
 10
1219.4282800697
 20
591.3281757256
 30
0.0
 40
5.999999999999846
100
AcDbArc
 50
100.0
 51
180.0
  0
LINE
  5
12A
330
1F
100
AcDbEntity
  8
0
  6
CONTINUOUS
 62
     7
100
AcDbLine
 10
1213.4282803367
 20
591.3281752289
 30
0.0
 11
1213.4282803367
 21
225.3308607757
 31
0.0
  0
ARC
  5
12B
330
1F
100
AcDbEntity
  8
0
  6
CONTINUOUS
 62
     7
100
AcDbCircle
 10
1219.4282800697
 20
225.3308658779
 30
0.0
 40
6.0
100
AcDbArc
 50
180.0
 51
260.0
  0
LINE
  5
12C
330
1F
100
AcDbEntity
  8
0
  6
CONTINUOUS
 62
     7
100
AcDbLine
 10
1218.3864331077
 20
219.4220139206
 30
0.0
 11
1228.4702277015
 21
217.6439775646
 31
0.0
  0
ARC
  5
12D
330
1F
100
AcDbEntity
  8
0
  6
CONTINUOUS
 62
     7
100
AcDbCircle
 10
1227.4282800697
 20
211.7351306896
 30
0.0
 40
6.000000000000014
100
AcDbArc
 50
0.0
 51
80.0
  0
LINE
  5
12E
330
1F
100
AcDbEntity
  8
0
  6
CONTINUOUS
 62
     7
100
AcDbLine
 10
1233.4282612632
 20
188.9017237842
 30
0.0
 11
1233.4282612632
 21
211.7351307094
 31
0.0
  0
LINE
  5
12F
330
1F
100
AcDbEntity
  8
0
  6
CONTINUOUS
 62
     7
100
AcDbLine
 10
1233.4282612632
 20
188.9017237842
 30
0.0
 11
1193.4282994102
 21
181.8486465633
 31
0.0
  0
LINE
  5
130
330
1F
100
AcDbEntity
  8
0
  6
CONTINUOUS
 62
     7
100
AcDbLine
 10
1193.4282994102
 20
181.8486465633
 30
0.0
 11
1193.4282994102
 21
634.8104192436
 31
0.0
  0
LINE
  5
131
330
1F
100
AcDbEntity
  8
0
  6
CONTINUOUS
 62
     7
100
AcDbLine
 10
1233.4282612632
 20
604.9239350975
 30
0.0
 11
1233.4282612632
 21
627.757282418
 31
0.0
  0
LINE
  5
132
330
1F
100
AcDbEntity
  8
0
  6
CONTINUOUS
 62
     7
100
AcDbLine
 10
1193.4282994102
 20
634.8104192436
 30
0.0
 11
1233.4282612632
 21
627.757282418
 31
0.0
  0
ARC
  5
133
330
1F
100
AcDbEntity
  8
0
  6
CONTINUOUS
 62
     7
100
AcDbCircle
 10
1227.4282800697
 20
604.9239109139
 30
0.0
 40
6.0
100
AcDbArc
 50
280.0
 51
0.0
  0
LINE
  5
134
330
1F
100
AcDbEntity
  8
0
  6
CONTINUOUS
 62
     7
100
AcDbLine
 10
645.4282617401
 20
731.4375950516
 30
0.0
 11
645.4282617401
 21
85.2214633048
 31
0.0
  0
LINE
  5
135
330
1F
100
AcDbEntity
  8
0
  6
CONTINUOUS
 62
     7
100
AcDbLine
 10
645.4282617401
 20
731.4375950516
 30
0.0
 11
1175.0883078407
 21
638.0442096413
 31
0.0
  0
LINE
  5
136
330
1F
100
AcDbEntity
  8
0
  6
CONTINUOUS
 62
     7
100
AcDbLine
 10
1175.0883078407
 20
178.6148114622
 30
0.0
 11
645.4282617401
 21
85.2214633048
 31
0.0
  0
LINE
  5
137
330
1F
100
AcDbEntity
  8
0
  6
CONTINUOUS
 62
     7
100
AcDbLine
 10
1175.0883078407
 20
638.0442096413
 30
0.0
 11
1175.0883078407
 21
178.6148114622
 31
0.0
  0
ARC
  5
138
330
1F
100
AcDbEntity
  8
0
  6
CONTINUOUS
 62
     7
100
AcDbCircle
 10
1195.6535313378
 20
164.8061497949
 30
0.0
 40
1.000000000000054
100
AcDbArc
 50
280.0000385431
 51
352.3995412421
  0
LINE
  5
139
330
1F
100
AcDbEntity
  8
0
  6
CONTINUOUS
 62
     7
100
AcDbLine
 10
1195.8271479438
 20
163.8213409603
 30
0.0
 11
1191.8449616264
 21
163.1191684425
 31
0.0
  0
ARC
  5
13A
330
1F
100
AcDbEntity
  8
0
  6
CONTINUOUS
 62
     7
100
AcDbCircle
 10
1191.6713270174
 20
164.1039769684
 30
0.0
 40
1.00000000000012
100
AcDbArc
 50
207.6004748139
 51
280.0000385431
  0
ARC
  5
13B
330
1F
100
AcDbEntity
  8
0
  6
CONTINUOUS
 62
     7
100
AcDbCircle
 10
699.8640532942
 20
77.3850880645
 30
0.0
 40
1.000000000000062
100
AcDbArc
 50
280.0000385431
 51
352.3995412421
  0
LINE
  5
13C
330
1F
100
AcDbEntity
  8
0
  6
CONTINUOUS
 62
     7
100
AcDbLine
 10
700.0376796554
 20
76.4002813518
 30
0.0
 11
696.055493338
 21
75.6981088341
 31
0.0
  0
ARC
  5
13D
330
1F
100
AcDbEntity
  8
0
  6
CONTINUOUS
 62
     7
100
AcDbCircle
 10
695.8818489739
 20
76.682915238
 30
0.0
 40
1.000000000000113
100
AcDbArc
 50
207.6004748139
 51
280.0000385431
  0
ARC
  5
13E
330
1F
100
AcDbEntity
  8
0
  6
CONTINUOUS
 62
     7
100
AcDbCircle
 10
695.8818498265
 20
739.976123453
 30
0.0
 40
0.9999999999999578
100
AcDbArc
 50
80.0000385431
 51
152.3995412421
  0
LINE
  5
13F
330
1F
100
AcDbEntity
  8
0
  6
CONTINUOUS
 62
     7
100
AcDbLine
 10
696.055493338
 20
740.9609271706
 30
0.0
 11
700.0376796554
 21
740.2587844551
 31
0.0
  0
ARC
  5
140
330
1F
100
AcDbEntity
  8
0
  6
CONTINUOUS
 62
     7
100
AcDbCircle
 10
699.8640550915
 20
739.2739559842
 30
0.0
 40
0.9999999999999917
100
AcDbArc
 50
7.6004748139
 51
80.0000385431
  0
ARC
  5
141
330
1F
100
AcDbEntity
  8
0
  6
CONTINUOUS
 62
     7
100
AcDbCircle
 10
1191.67132787
 20
652.5550617226
 30
0.0
 40
0.9999999999999875
100
AcDbArc
 50
80.0000385431
 51
152.3995412421
  0
LINE
  5
142
330
1F
100
AcDbEntity
  8
0
  6
CONTINUOUS
 62
     7
100
AcDbLine
 10
1191.8449616264
 20
653.5398675621
 30
0.0
 11
1195.8271479438
 21
652.8377248466
 31
0.0
  0
ARC
  5
143
330
1F
100
AcDbEntity
  8
0
  6
CONTINUOUS
 62
     7
100
AcDbCircle
 10
1195.6535331351
 20
651.8528942537
 30
0.0
 40
0.9999999999999776
100
AcDbArc
 50
7.6004748139
 51
80.0000385431
  0
LINE
  5
144
330
1F
100
AcDbEntity
  8
0
  6
CONTINUOUS
 62
     7
100
AcDbLine
 10
645.4282617401
 20
731.4375950516
 30
0.0
 11
645.4282617401
 21
750.4057599724
 31
0.0
  0
LINE
  5
145
330
1F
100
AcDbEntity
  8
0
  6
CONTINUOUS
 62
     7
100
AcDbLine
 10
645.4282617401
 20
66.253298384
 30
0.0
 11
645.4282617401
 21
85.2214633048
 31
0.0
  0
ARC
  5
146
330
1F
100
AcDbEntity
  8
0
  6
CONTINUOUS
 62
     7
100
AcDbCircle
 10
1186.2034746226
 20
161.2453951192
 30
0.0
 40
5.169999999999901
100
AcDbArc
 50
27.6004748139
 51
186.0551963346
  0
ARC
  5
147
330
1F
100
AcDbEntity
  8
0
  6
CONTINUOUS
 62
     7
100
AcDbCircle
 10
1186.2034746742
 20
655.4136420395
 30
0.0
 40
5.170000000000194
100
AcDbArc
 50
173.9447545661
 51
332.3995412421
  0
ARC
  5
148
330
1F
100
AcDbEntity
  8
0
  6
CONTINUOUS
 62
     7
100
AcDbCircle
 10
1201.7693262558
 20
652.6689668636
 30
0.0
 40
5.170000000000132
100
AcDbArc
 50
187.6004748139
 51
346.0551969084
  0
ARC
  5
149
330
1F
100
AcDbEntity
  8
0
  6
CONTINUOUS
 62
     7
100
AcDbCircle
 10
1201.7693246872
 20
163.9900788989
 30
0.0
 40
5.170000000000103
100
AcDbArc
 50
13.9447545661
 51
172.3995412421
  0
LINE
  5
14A
330
1F
100
AcDbEntity
  8
0
  6
CONTINUOUS
 62
     7
100
AcDbLine
 10
1233.4282612632
 20
188.9017237842
 30
0.0
 11
1233.4282612632
 21
169.9335588634
 31
0.0
  0
LINE
  5
14B
330
1F
100
AcDbEntity
  8
0
  6
CONTINUOUS
 62
     7
100
AcDbLine
 10
1233.4282612632
 20
646.7255069435
 30
0.0
 11
1233.4282612632
 21
627.757282418
 31
0.0
  0
ARC
  5
14C
330
1F
100
AcDbEntity
  8
0
  6
CONTINUOUS
 62
     7
100
AcDbCircle
 10
705.9798466436
 20
76.5690171684
 30
0.0
 40
5.16999999999999
100
AcDbArc
 50
13.9447545661
 51
172.3995412421
  0
ARC
  5
14D
330
1F
100
AcDbEntity
  8
0
  6
CONTINUOUS
 62
     7
100
AcDbCircle
 10
705.9798482123
 20
740.0900285941
 30
0.0
 40
5.170000000000019
100
AcDbArc
 50
187.6004748139
 51
346.0551969084
  0
ARC
  5
14E
330
1F
100
AcDbEntity
  8
0
  6
CONTINUOUS
 62
     7
100
AcDbCircle
 10
690.4139965791
 20
73.8243333887
 30
0.0
 40
5.170000000000027
100
AcDbArc
 50
27.6004748139
 51
186.0551963346
  0
ARC
  5
14F
330
1F
100
AcDbEntity
  8
0
  6
CONTINUOUS
 62
     7
100
AcDbCircle
 10
690.4139966306
 20
742.83470377
 30
0.0
 40
5.170000000000094
100
AcDbArc
 50
173.9447545661
 51
332.3995412421
  0
LINE
  5
150
330
1F
100
AcDbEntity
  8
0
  6
CONTINUOUS
 62
     7
100
AcDbLine
 10
2311.8683314155
 20
30.0712617606
 30
0.0
 11
2311.8683314155
 21
67.5144432605
 31
0.0
  0
LINE
  5
151
330
1F
100
AcDbEntity
  8
0
  6
CONTINUOUS
 62
     7
100
AcDbLine
 10
1983.868262751
 20
30.0712617606
 30
0.0
 11
2311.8683314155
 21
30.0712617606
 31
0.0
  0
LINE
  5
152
330
1F
100
AcDbEntity
  8
0
  6
CONTINUOUS
 62
     7
100
AcDbLine
 10
1983.868262751
 20
67.5144432605
 30
0.0
 11
1983.868262751
 21
30.0712617606
 31
0.0
  0
LINE
  5
153
330
1F
100
AcDbEntity
  8
0
  6
CONTINUOUS
 62
     7
100
AcDbLine
 10
1983.868262751
 20
67.5144432605
 30
0.0
 11
2311.8683314155
 21
67.5144432605
 31
0.0
  0
LINE
  5
154
330
1F
100
AcDbEntity
  8
0
  6
CONTINUOUS
 62
     7
100
AcDbLine
 10
2311.8683314155
 20
623.9682151497
 30
0.0
 11
1983.868262751
 21
623.9682151497
 31
0.0
  0
LINE
  5
155
330
1F
100
AcDbEntity
  8
0
  6
CONTINUOUS
 62
     7
100
AcDbLine
 10
2311.8683314155
 20
85.9621180714
 30
0.0
 11
1983.868262751
 21
85.9621180714
 31
0.0
  0
LINE
  5
156
330
1F
100
AcDbEntity
  8
0
  6
CONTINUOUS
 62
     7
100
AcDbLine
 10
1983.868262751
 20
623.9682151497
 30
0.0
 11
1983.868262751
 21
85.9621180714
 31
0.0
  0
LINE
  5
157
330
1F
100
AcDbEntity
  8
0
  6
CONTINUOUS
 62
     7
100
AcDbLine
 10
2311.8683314155
 20
85.9621180714
 30
0.0
 11
2311.8683314155
 21
623.9682151497
 31
0.0
  0
LINE
  5
158
330
1F
100
AcDbEntity
  8
0
  6
CONTINUOUS
 62
     7
100
AcDbLine
 10
1983.868262751
 20
67.5144432605
 30
0.0
 11
1983.868262751
 21
85.9621180714
 31
0.0
  0
LINE
  5
159
330
1F
100
AcDbEntity
  8
0
  6
CONTINUOUS
 62
     7
100
AcDbLine
 10
2311.8683314155
 20
85.9621180714
 30
0.0
 11
2311.8683314155
 21
67.5144432605
 31
0.0
  0
LINE
  5
15A
330
1F
100
AcDbEntity
  8
0
  6
CONTINUOUS
 62
     7
100
AcDbLine
 10
1624.3882393669
 20
30.0712617606
 30
0.0
 11
1952.3883080314
 21
30.0712617606
 31
0.0
  0
LINE
  5
15B
330
1F
100
AcDbEntity
  8
0
  6
CONTINUOUS
 62
     7
100
AcDbLine
 10
1624.3882393669
 20
67.5144432605
 30
0.0
 11
1624.3882393669
 21
30.0712617606
 31
0.0
  0
LINE
  5
15C
330
1F
100
AcDbEntity
  8
0
  6
CONTINUOUS
 62
     7
100
AcDbLine
 10
1952.3883080314
 20
67.5144432605
 30
0.0
 11
1624.3882393669
 21
67.5144432605
 31
0.0
  0
LINE
  5
15D
330
1F
100
AcDbEntity
  8
0
  6
CONTINUOUS
 62
     7
100
AcDbLine
 10
1952.3883080314
 20
30.0712617606
 30
0.0
 11
1952.3883080314
 21
67.5144432605
 31
0.0
  0
LINE
  5
15E
330
1F
100
AcDbEntity
  8
0
  6
CONTINUOUS
 62
     7
100
AcDbLine
 10
1952.3883080314
 20
623.9682151497
 30
0.0
 11
1624.3882393669
 21
623.9682151497
 31
0.0
  0
LINE
  5
15F
330
1F
100
AcDbEntity
  8
0
  6
CONTINUOUS
 62
     7
100
AcDbLine
 10
1624.3882393669
 20
85.9621180714
 30
0.0
 11
1952.3883080314
 21
85.9621180714
 31
0.0
  0
LINE
  5
160
330
1F
100
AcDbEntity
  8
0
  6
CONTINUOUS
 62
     7
100
AcDbLine
 10
1624.3882393669
 20
623.9682151497
 30
0.0
 11
1624.3882393669
 21
85.9621180714
 31
0.0
  0
LINE
  5
161
330
1F
100
AcDbEntity
  8
0
  6
CONTINUOUS
 62
     7
100
AcDbLine
 10
1952.3883080314
 20
85.9621180714
 30
0.0
 11
1952.3883080314
 21
623.9682151497
 31
0.0
  0
LINE
  5
162
330
1F
100
AcDbEntity
  8
0
  6
CONTINUOUS
 62
     7
100
AcDbLine
 10
1624.3882393669
 20
67.5144432605
 30
0.0
 11
1624.3882393669
 21
85.9621180714
 31
0.0
  0
LINE
  5
163
330
1F
100
AcDbEntity
  8
0
  6
CONTINUOUS
 62
     7
100
AcDbLine
 10
1952.3883080314
 20
85.9621180714
 30
0.0
 11
1952.3883080314
 21
67.5144432605
 31
0.0
  0
LINE
  5
164
330
1F
100
AcDbEntity
  8
0
  6
CONTINUOUS
 62
     7
100
AcDbLine
 10
1264.9083351921
 20
30.0712617606
 30
0.0
 11
1592.9082846473
 21
30.0712617606
 31
0.0
  0
LINE
  5
165
330
1F
100
AcDbEntity
  8
0
  6
CONTINUOUS
 62
     7
100
AcDbLine
 10
1264.9083351921
 20
508.0712749184
 30
0.0
 11
1264.9083351921
 21
30.0712617606
 31
0.0
  0
LINE
  5
166
330
1F
100
AcDbEntity
  8
0
  6
CONTINUOUS
 62
     7
100
AcDbLine
 10
1592.9082846473
 20
508.0712749184
 30
0.0
 11
1264.9083351921
 21
508.0712749184
 31
0.0
  0
LINE
  5
167
330
1F
100
AcDbEntity
  8
0
  6
CONTINUOUS
 62
     7
100
AcDbLine
 10
1592.9082846473
 20
30.0712617606
 30
0.0
 11
1592.9082846473
 21
508.0712749184
 31
0.0
  0
LINE
  5
168
330
1F
100
AcDbEntity
  8
0
  6
CONTINUOUS
 62
     7
100
AcDbLine
 10
2286.8663286995
 20
962.5412537277
 30
0.0
 11
2286.8663286995
 21
844.5912911117
 31
0.0
  0
ARC
  5
169
330
1F
100
AcDbEntity
  8
0
  6
CONTINUOUS
 62
     7
100
AcDbCircle
 10
2274.8662800697
 20
962.5412622726
 30
0.0
 40
12.0
100
AcDbArc
 50
0.0
 51
90.0
  0
LINE
  5
16A
330
1F
100
AcDbEntity
  8
0
  6
CONTINUOUS
 62
     7
100
AcDbLine
 10
2123.3395552467
 20
974.5412780464
 30
0.0
 11
2274.8662447761
 21
974.5412780464
 31
0.0
  0
ARC
  5
16B
330
1F
100
AcDbEntity
  8
0
  6
CONTINUOUS
 62
     7
100
AcDbCircle
 10
2123.3394701036
 20
993.5912622726
 30
0.0
 40
19.05000000000041
100
AcDbArc
 50
210.0
 51
270.0
  0
ARC
  5
16C
330
1F
100
AcDbEntity
  8
0
  6
CONTINUOUS
 62
     7
100
AcDbCircle
 10
2090.3439022194
 20
974.5412622726
 30
0.0
 40
19.05000000000007
100
AcDbArc
 50
30.0
 51
90.0
  0
LINE
  5
16D
330
1F
100
AcDbEntity
  8
0
  6
CONTINUOUS
 62
     7
100
AcDbLine
 10
1979.8062062095
 20
993.5912801445
 30
0.0
 11
2090.3438544105
 21
993.5912801445
 31
0.0
  0
ARC
  5
16E
330
1F
100
AcDbEntity
  8
0
  6
CONTINUOUS
 62
     7
100
AcDbCircle
 10
1979.8062280216
 20
974.5412622726
 30
0.0
 40
19.05000000000007
100
AcDbArc
 50
90.0
 51
150.0
  0
ARC
  5
16F
330
1F
100
AcDbEntity
  8
0
  6
CONTINUOUS
 62
     7
100
AcDbCircle
 10
1946.8106601375
 20
993.5912622726
 30
0.0
 40
19.05000000000007
100
AcDbArc
 50
270.0
 51
330.0
  0
LINE
  5
170
330
1F
100
AcDbEntity
  8
0
  6
CONTINUOUS
 62
     7
100
AcDbLine
 10
1795.2838158439
 20
974.5412780464
 30
0.0
 11
1946.8106245826
 21
974.5412780464
 31
0.0
  0
ARC
  5
171
330
1F
100
AcDbEntity
  8
0
  6
CONTINUOUS
 62
     7
100
AcDbCircle
 10
1795.2838501713
 20
962.5412622726
 30
0.0
 40
12.0
100
AcDbArc
 50
90.0
 51
180.0
  0
LINE
  5
172
330
1F
100
AcDbEntity
  8
0
  6
CONTINUOUS
 62
     7
100
AcDbLine
 10
1783.2838511299
 20
844.5912911117
 30
0.0
 11
1783.2838511299
 21
962.5412537277
 31
0.0
  0
LINE
  5
173
330
1F
100
AcDbEntity
  8
0
  6
CONTINUOUS
 62
     7
100
AcDbLine
 10
1765.5338263344
 20
838.5912491501
 30
0.0
 11
1777.2838091682
 21
838.5912491501
 31
0.0
  0
LINE
  5
174
330
1F
100
AcDbEntity
  8
0
  6
CONTINUOUS
 62
     7
100
AcDbLine
 10
1764.5338988136
 20
839.5912362755
 30
0.0
 11
1764.5338988136
 21
844.8512865723
 31
0.0
  0
LINE
  5
175
330
1F
100
AcDbEntity
  8
0
  6
CONTINUOUS
 62
     7
100
AcDbLine
 10
1764.5338988136
 20
844.8512865723
 30
0.0
 11
1769.8477721046
 21
845.1913310707
 31
0.0
  0
ARC
  5
176
330
1F
100
AcDbEntity
  8
0
  6
CONTINUOUS
 62
     7
100
AcDbCircle
 10
1769.7838501713
 20
846.1893081798
 30
0.0
 40
1.000000000000227
100
AcDbArc
 50
273.6619355755
 51
0.0
  0
LINE
  5
177
330
1F
100
AcDbEntity
  8
0
  6
CONTINUOUS
 62
     7
100
AcDbLine
 10
1770.7838034462
 20
846.1892916382
 30
0.0
 11
1770.7838034462
 21
860.1289703071
 31
0.0
  0
ARC
  5
178
330
1F
100
AcDbEntity
  8
0
  6
CONTINUOUS
 62
     7
100
AcDbCircle
 10
1771.7838501713
 20
860.1289838892
 30
0.0
 40
0.9999999999997726
100
AcDbArc
 50
155.1121079736
 51
180.0
  0
ARC
  5
179
330
1F
100
AcDbEntity
  8
0
  6
CONTINUOUS
 62
     7
100
AcDbCircle
 10
1766.1868397525
 20
862.725592133
 30
0.0
 40
5.170000000000144
100
AcDbArc
 50
335.1121079736
 51
162.3995332141
  0
ARC
  5
17A
330
1F
100
AcDbEntity
  8
0
  6
CONTINUOUS
 62
     7
100
AcDbCircle
 10
1760.3056685316
 20
864.5912622726
 30
0.0
 40
0.9999999999998863
100
AcDbArc
 50
270.0
 51
342.3995332141
  0
LINE
  5
17B
330
1F
100
AcDbEntity
  8
0
  6
CONTINUOUS
 62
     7
100
AcDbLine
 10
1758.2818484138
 20
863.5912849129
 30
0.0
 11
1760.3056645225
 21
863.5912849129
 31
0.0
  0
LINE
  5
17C
330
1F
100
AcDbEntity
  8
0
  6
CONTINUOUS
 62
     7
100
AcDbLine
 10
1758.2818484138
 20
981.5912558258
 30
0.0
 11
1758.2818484138
 21
863.5912849129
 31
0.0
  0
ARC
  5
17D
330
1F
100
AcDbEntity
  8
0
  6
CONTINUOUS
 62
     7
100
AcDbCircle
 10
1770.2818501713
 20
981.5912622726
 30
0.0
 40
12.0
100
AcDbArc
 50
90.0
 51
180.0
  0
LINE
  5
17E
330
1F
100
AcDbEntity
  8
0
  6
CONTINUOUS
 62
     7
100
AcDbLine
 10
1934.8106598686
 20
993.5912801445
 30
0.0
 11
1770.2818131279
 21
993.5912801445
 31
0.0
  0
ARC
  5
17F
330
1F
100
AcDbEntity
  8
0
  6
CONTINUOUS
 62
     7
100
AcDbCircle
 10
1934.8106601375
 20
1005.5912622726
 30
0.0
 40
12.0
100
AcDbArc
 50
270.0
 51
0.0
  0
LINE
  5
180
330
1F
100
AcDbEntity
  8
0
  6
CONTINUOUS
 62
     7
100
AcDbLine
 10
1946.8106245826
 20
1031.5912081421
 30
0.0
 11
1946.8106245826
 21
1005.5913044632
 31
0.0
  0
ARC
  5
181
330
1F
100
AcDbEntity
  8
0
  6
CONTINUOUS
 62
     7
100
AcDbCircle
 10
1934.8106601375
 20
1031.5912622726
 30
0.0
 40
12.00000000000023
100
AcDbArc
 50
0.0
 51
90.0
  0
LINE
  5
182
330
1F
100
AcDbEntity
  8
0
  6
CONTINUOUS
 62
     7
100
AcDbLine
 10
1770.2818131279
 20
1043.5912920654
 30
0.0
 11
1934.8106598686
 21
1043.5912920654
 31
0.0
  0
ARC
  5
183
330
1F
100
AcDbEntity
  8
0
  6
CONTINUOUS
 62
     7
100
AcDbCircle
 10
1770.2818501713
 20
1055.5912622726
 30
0.0
 40
12.0
100
AcDbArc
 50
180.0
 51
270.0
  0
LINE
  5
184
330
1F
100
AcDbEntity
  8
0
  6
CONTINUOUS
 62
     7
100
AcDbLine
 10
1758.2818484138
 20
1173.591287297
 30
0.0
 11
1758.2818484138
 21
1055.5912567795
 31
0.0
  0
LINE
  5
185
330
1F
100
AcDbEntity
  8
0
  6
CONTINUOUS
 62
     7
100
AcDbLine
 10
1760.3056645225
 20
1173.591287297
 30
0.0
 11
1758.2818484138
 21
1173.591287297
 31
0.0
  0
ARC
  5
186
330
1F
100
AcDbEntity
  8
0
  6
CONTINUOUS
 62
     7
100
AcDbCircle
 10
1760.3056685316
 20
1172.5912622726
 30
0.0
 40
1.0
100
AcDbArc
 50
17.6004667859
 51
90.0
  0
ARC
  5
187
330
1F
100
AcDbEntity
  8
0
  6
CONTINUOUS
 62
     7
100
AcDbCircle
 10
1766.1868397525
 20
1174.4569324122
 30
0.0
 40
5.170000000000124
100
AcDbArc
 50
197.6004667859
 51
24.8878920264
  0
ARC
  5
188
330
1F
100
AcDbEntity
  8
0
  6
CONTINUOUS
 62
     7
100
AcDbCircle
 10
1771.7838501713
 20
1177.053540656
 30
0.0
 40
0.9999999999997726
100
AcDbArc
 50
180.0
 51
204.8878920264
  0
LINE
  5
189
330
1F
100
AcDbEntity
  8
0
  6
CONTINUOUS
 62
     7
100
AcDbLine
 10
1770.7838034462
 20
1177.0534826935
 30
0.0
 11
1770.7838034462
 21
1190.9932209671
 31
0.0
  0
ARC
  5
18A
330
1F
100
AcDbEntity
  8
0
  6
CONTINUOUS
 62
     7
100
AcDbCircle
 10
1769.7838501713
 20
1190.9932163655
 30
0.0
 40
1.000000000000149
100
AcDbArc
 50
0.0
 51
86.3380644245
  0
LINE
  5
18B
330
1F
100
AcDbEntity
  8
0
  6
CONTINUOUS
 62
     7
100
AcDbLine
 10
1769.8477721046
 20
1191.9911219299
 30
0.0
 11
1764.5338988136
 21
1192.331226033
 31
0.0
  0
LINE
  5
18C
330
1F
100
AcDbEntity
  8
0
  6
CONTINUOUS
 62
     7
100
AcDbLine
 10
1764.5338988136
 20
1192.331226033
 30
0.0
 11
1764.5338988136
 21
1197.5912167251
 31
0.0
  0
ARC
  5
18D
330
1F
100
AcDbEntity
  8
0
  6
CONTINUOUS
 62
     7
100
AcDbCircle
 10
1765.5338501713
 20
1197.5912622726
 30
0.0
 40
1.000000000000227
100
AcDbArc
 50
90.0
 51
180.0
  0
LINE
  5
18E
330
1F
100
AcDbEntity
  8
0
  6
CONTINUOUS
 62
     7
100
AcDbLine
 10
1777.2838091682
 20
1198.5912634552
 30
0.0
 11
1765.5338263344
 21
1198.5912634552
 31
0.0
  0
ARC
  5
18F
330
1F
100
AcDbEntity
  8
0
  6
CONTINUOUS
 62
     7
100
AcDbCircle
 10
1777.2838501713
 20
1192.5912622726
 30
0.0
 40
6.000000000000227
100
AcDbArc
 50
0.0
 51
90.0
  0
LINE
  5
190
330
1F
100
AcDbEntity
  8
0
  6
CONTINUOUS
 62
     7
100
AcDbLine
 10
1783.2838511299
 20
1074.6412588776
 30
0.0
 11
1783.2838511299
 21
1192.5912214935
 31
0.0
  0
ARC
  5
191
330
1F
100
AcDbEntity
  8
0
  6
CONTINUOUS
 62
     7
100
AcDbCircle
 10
1795.2838501713
 20
1074.6412622726
 30
0.0
 40
12.00000000000045
100
AcDbArc
 50
180.0
 51
270.0
  0
LINE
  5
192
330
1F
100
AcDbEntity
  8
0
  6
CONTINUOUS
 62
     7
100
AcDbLine
 10
1946.8106245826
 20
1062.6412941635
 30
0.0
 11
1795.2838158439
 21
1062.6412941635
 31
0.0
  0
ARC
  5
193
330
1F
100
AcDbEntity
  8
0
  6
CONTINUOUS
 62
     7
100
AcDbCircle
 10
1946.8106601375
 20
1043.5912622726
 30
0.0
 40
19.04999999999995
100
AcDbArc
 50
30.0
 51
90.0
  0
ARC
  5
194
330
1F
100
AcDbEntity
  8
0
  6
CONTINUOUS
 62
     7
100
AcDbCircle
 10
1979.8062280216
 20
1062.6412622726
 30
0.0
 40
19.05000000000021
100
AcDbArc
 50
210.0
 51
270.0
  0
LINE
  5
195
330
1F
100
AcDbEntity
  8
0
  6
CONTINUOUS
 62
     7
100
AcDbLine
 10
2090.3438544105
 20
1043.5912920654
 30
0.0
 11
1979.8062062095
 21
1043.5912920654
 31
0.0
  0
ARC
  5
196
330
1F
100
AcDbEntity
  8
0
  6
CONTINUOUS
 62
     7
100
AcDbCircle
 10
2090.3439022194
 20
1062.6412622726
 30
0.0
 40
19.05000000000001
100
AcDbArc
 50
270.0
 51
330.0
  0
ARC
  5
197
330
1F
100
AcDbEntity
  8
0
  6
CONTINUOUS
 62
     7
100
AcDbCircle
 10
2123.3394701036
 20
1043.5912622726
 30
0.0
 40
19.0500000000003
100
AcDbArc
 50
90.0
 51
150.0
  0
LINE
  5
198
330
1F
100
AcDbEntity
  8
0
  6
CONTINUOUS
 62
     7
100
AcDbLine
 10
2274.8662447761
 20
1062.6412941635
 30
0.0
 11
2123.3395552467
 21
1062.6412941635
 31
0.0
  0
ARC
  5
199
330
1F
100
AcDbEntity
  8
0
  6
CONTINUOUS
 62
     7
100
AcDbCircle
 10
2274.8662800697
 20
1074.6412622726
 30
0.0
 40
12.00000000000045
100
AcDbArc
 50
270.0
 51
0.0
  0
LINE
  5
19A
330
1F
100
AcDbEntity
  8
0
  6
CONTINUOUS
 62
     7
100
AcDbLine
 10
2286.8663286995
 20
1192.5912214935
 30
0.0
 11
2286.8663286995
 21
1074.6412588776
 31
0.0
  0
ARC
  5
19B
330
1F
100
AcDbEntity
  8
0
  6
CONTINUOUS
 62
     7
100
AcDbCircle
 10
2292.8662800697
 20
1192.5912622726
 30
0.0
 40
6.000000000000455
100
AcDbArc
 50
90.0
 51
180.0
  0
LINE
  5
19C
330
1F
100
AcDbEntity
  8
0
  6
CONTINUOUS
 62
     7
100
AcDbLine
 10
2304.616353495
 20
1198.5912634552
 30
0.0
 11
2292.8663706611
 21
1198.5912634552
 31
0.0
  0
ARC
  5
19D
330
1F
100
AcDbEntity
  8
0
  6
CONTINUOUS
 62
     7
100
AcDbCircle
 10
2304.6162800697
 20
1197.5912622726
 30
0.0
 40
1.0
100
AcDbArc
 50
0.0
 51
90.0
  0
LINE
  5
19E
330
1F
100
AcDbEntity
  8
0
  6
CONTINUOUS
 62
     7
100
AcDbLine
 10
2305.6162810157
 20
1197.5912167251
 30
0.0
 11
2305.6162810157
 21
1192.331226033
 31
0.0
  0
LINE
  5
19F
330
1F
100
AcDbEntity
  8
0
  6
CONTINUOUS
 62
     7
100
AcDbLine
 10
2305.6162810157
 20
1192.331226033
 30
0.0
 11
2300.3024077247
 21
1191.9911219299
 31
0.0
  0
ARC
  5
1A0
330
1F
100
AcDbEntity
  8
0
  6
CONTINUOUS
 62
     7
100
AcDbCircle
 10
2300.3662800697
 20
1190.9932163655
 30
0.0
 40
1.000000000000178
100
AcDbArc
 50
93.6619355755
 51
180.0
  0
LINE
  5
1A1
330
1F
100
AcDbEntity
  8
0
  6
CONTINUOUS
 62
     7
100
AcDbLine
 10
2299.3663763832
 20
1190.9932209671
 30
0.0
 11
2299.3663763832
 21
1177.0534826935
 31
0.0
  0
ARC
  5
1A2
330
1F
100
AcDbEntity
  8
0
  6
CONTINUOUS
 62
     7
100
AcDbCircle
 10
2298.3662800697
 20
1177.053540656
 30
0.0
 40
0.9999999999995453
100
AcDbArc
 50
335.1121079736
 51
0.0
  0
ARC
  5
1A3
330
1F
100
AcDbEntity
  8
0
  6
CONTINUOUS
 62
     7
100
AcDbCircle
 10
2303.9632904885
 20
1174.4569324122
 30
0.0
 40
5.170000000000331
100
AcDbArc
 50
155.1121079736
 51
342.3995332141
  0
ARC
  5
1A4
330
1F
100
AcDbEntity
  8
0
  6
CONTINUOUS
 62
     7
100
AcDbCircle
 10
2309.8444617095
 20
1172.5912622726
 30
0.0
 40
0.9999999999997726
100
AcDbArc
 50
90.0
 51
162.3995332141
  0
LINE
  5
1A5
330
1F
100
AcDbEntity
  8
0
  6
CONTINUOUS
 62
     7
100
AcDbLine
 10
2311.8683314155
 20
1173.591287297
 30
0.0
 11
2309.8443960975
 21
1173.591287297
 31
0.0
  0
LINE
  5
1A6
330
1F
100
AcDbEntity
  8
0
  6
CONTINUOUS
 62
     7
100
AcDbLine
 10
2311.8683314155
 20
1055.5912567795
 30
0.0
 11
2311.8683314155
 21
1173.591287297
 31
0.0
  0
ARC
  5
1A7
330
1F
100
AcDbEntity
  8
0
  6
CONTINUOUS
 62
     7
100
AcDbCircle
 10
2299.8682800697
 20
1055.5912622726
 30
0.0
 40
12.00000000000045
100
AcDbArc
 50
270.0
 51
0.0
  0
LINE
  5
1A8
330
1F
100
AcDbEntity
  8
0
  6
CONTINUOUS
 62
     7
100
AcDbLine
 10
2135.3394007515
 20
1043.5912920654
 30
0.0
 11
2299.8682474922
 21
1043.5912920654
 31
0.0
  0
ARC
  5
1A9
330
1F
100
AcDbEntity
  8
0
  6
CONTINUOUS
 62
     7
100
AcDbCircle
 10
2135.3394701036
 20
1031.5912622726
 30
0.0
 40
12.00000000000023
100
AcDbArc
 50
90.0
 51
180.0
  0
LINE
  5
1AA
330
1F
100
AcDbEntity
  8
0
  6
CONTINUOUS
 62
     7
100
AcDbLine
 10
2123.3395552467
 20
1005.5913044632
 30
0.0
 11
2123.3395552467
 21
1031.5912081421
 31
0.0
  0
ARC
  5
1AB
330
1F
100
AcDbEntity
  8
0
  6
CONTINUOUS
 62
     7
100
AcDbCircle
 10
2135.3394701036
 20
1005.5912622726
 30
0.0
 40
12.0
100
AcDbArc
 50
180.0
 51
270.0
  0
LINE
  5
1AC
330
1F
100
AcDbEntity
  8
0
  6
CONTINUOUS
 62
     7
100
AcDbLine
 10
2299.8682474922
 20
993.5912801445
 30
0.0
 11
2135.3394007515
 21
993.5912801445
 31
0.0
  0
ARC
  5
1AD
330
1F
100
AcDbEntity
  8
0
  6
CONTINUOUS
 62
     7
100
AcDbCircle
 10
2299.8682800697
 20
981.5912622726
 30
0.0
 40
12.00000000000045
100
AcDbArc
 50
0.0
 51
90.0
  0
LINE
  5
1AE
330
1F
100
AcDbEntity
  8
0
  6
CONTINUOUS
 62
     7
100
AcDbLine
 10
2311.8683314155
 20
863.5912849129
 30
0.0
 11
2311.8683314155
 21
981.5912558258
 31
0.0
  0
LINE
  5
1AF
330
1F
100
AcDbEntity
  8
0
  6
CONTINUOUS
 62
     7
100
AcDbLine
 10
2309.8443960975
 20
863.5912849129
 30
0.0
 11
2311.8683314155
 21
863.5912849129
 31
0.0
  0
ARC
  5
1B0
330
1F
100
AcDbEntity
  8
0
  6
CONTINUOUS
 62
     7
100
AcDbCircle
 10
2309.8444617095
 20
864.5912622726
 30
0.0
 40
1.000000000000424
100
AcDbArc
 50
197.6004667859
 51
270.0
  0
ARC
  5
1B1
330
1F
100
AcDbEntity
  8
0
  6
CONTINUOUS
 62
     7
100
AcDbCircle
 10
2303.9632904885
 20
862.725592133
 30
0.0
 40
5.170000000000331
100
AcDbArc
 50
17.6004667859
 51
204.8878920264
  0
ARC
  5
1B2
330
1F
100
AcDbEntity
  8
0
  6
CONTINUOUS
 62
     7
100
AcDbCircle
 10
2298.3662800697
 20
860.1289838892
 30
0.0
 40
0.9999999999995453
100
AcDbArc
 50
0.0
 51
24.8878920264
  0
LINE
  5
1B3
330
1F
100
AcDbEntity
  8
0
  6
CONTINUOUS
 62
     7
100
AcDbLine
 10
2299.3663763832
 20
860.1289703071
 30
0.0
 11
2299.3663763832
 21
846.1892916382
 31
0.0
  0
ARC
  5
1B4
330
1F
100
AcDbEntity
  8
0
  6
CONTINUOUS
 62
     7
100
AcDbCircle
 10
2300.3662800697
 20
846.1893081798
 30
0.0
 40
1.000000000000065
100
AcDbArc
 50
180.0
 51
266.3380644245
  0
LINE
  5
1B5
330
1F
100
AcDbEntity
  8
0
  6
CONTINUOUS
 62
     7
100
AcDbLine
 10
2300.3024077247
 20
845.1913310707
 30
0.0
 11
2305.6162810157
 21
844.8512865723
 31
0.0
  0
LINE
  5
1B6
330
1F
100
AcDbEntity
  8
0
  6
CONTINUOUS
 62
     7
100
AcDbLine
 10
2305.6162810157
 20
844.8512865723
 30
0.0
 11
2305.6162810157
 21
839.5912362755
 31
0.0
  0
ARC
  5
1B7
330
1F
100
AcDbEntity
  8
0
  6
CONTINUOUS
 62
     7
100
AcDbCircle
 10
2304.6162800697
 20
839.5912622726
 30
0.0
 40
1.0
100
AcDbArc
 50
270.0
 51
0.0
  0
LINE
  5
1B8
330
1F
100
AcDbEntity
  8
0
  6
CONTINUOUS
 62
     7
100
AcDbLine
 10
2292.8663706611
 20
838.5912491501
 30
0.0
 11
2304.616353495
 21
838.5912491501
 31
0.0
  0
ARC
  5
1B9
330
1F
100
AcDbEntity
  8
0
  6
CONTINUOUS
 62
     7
100
AcDbCircle
 10
2292.8662800697
 20
844.5912622726
 30
0.0
 40
6.000000000000455
100
AcDbArc
 50
180.0
 51
270.0
  0
ARC
  5
1BA
330
1F
100
AcDbEntity
  8
0
  6
CONTINUOUS
 62
     7
100
AcDbCircle
 10
1765.5338501713
 20
839.5912622726
 30
0.0
 40
1.000000000000227
100
AcDbArc
 50
180.0
 51
270.0
  0
ARC
  5
1BB
330
1F
100
AcDbEntity
  8
0
  6
CONTINUOUS
 62
     7
100
AcDbCircle
 10
1777.2838501713
 20
844.5912622726
 30
0.0
 40
6.0
100
AcDbArc
 50
270.0
 51
0.0
  0
ARC
  5
1BC
330
1F
100
AcDbEntity
  8
0
  6
CONTINUOUS
 62
     7
100
AcDbCircle
 10
1192.221420273
 20
1192.5912622726
 30
0.0
 40
6.0
100
AcDbArc
 50
0.0
 51
90.0
  0
LINE
  5
1BD
330
1F
100
AcDbEntity
  8
0
  6
CONTINUOUS
 62
     7
100
AcDbLine
 10
1198.2214665245
 20
1074.6412588776
 30
0.0
 11
1198.2214665245
 21
1192.5912214935
 31
0.0
  0
ARC
  5
1BE
330
1F
100
AcDbEntity
  8
0
  6
CONTINUOUS
 62
     7
100
AcDbCircle
 10
1210.221420273
 20
1074.6412622726
 30
0.0
 40
12.0
100
AcDbArc
 50
180.0
 51
270.0
  0
LINE
  5
1BF
330
1F
100
AcDbEntity
  8
0
  6
CONTINUOUS
 62
     7
100
AcDbLine
 10
1361.7482399772
 20
1062.6412941635
 30
0.0
 11
1210.2214312385
 21
1062.6412941635
 31
0.0
  0
ARC
  5
1C0
330
1F
100
AcDbEntity
  8
0
  6
CONTINUOUS
 62
     7
100
AcDbCircle
 10
1361.7482302391
 20
1043.5912622726
 30
0.0
 40
19.04999999999995
100
AcDbArc
 50
30.0
 51
90.0
  0
ARC
  5
1C1
330
1F
100
AcDbEntity
  8
0
  6
CONTINUOUS
 62
     7
100
AcDbCircle
 10
1394.7437981233
 20
1062.6412622726
 30
0.0
 40
19.05000000000001
100
AcDbArc
 50
210.0
 51
270.0
  0
LINE
  5
1C2
330
1F
100
AcDbEntity
  8
0
  6
CONTINUOUS
 62
     7
100
AcDbLine
 10
1505.2814698051
 20
1043.5912920654
 30
0.0
 11
1394.7438216041
 21
1043.5912920654
 31
0.0
  0
ARC
  5
1C3
330
1F
100
AcDbEntity
  8
0
  6
CONTINUOUS
 62
     7
100
AcDbCircle
 10
1505.281472321
 20
1062.6412622726
 30
0.0
 40
19.05000000000001
100
AcDbArc
 50
270.0
 51
330.0
  0
ARC
  5
1C4
330
1F
100
AcDbEntity
  8
0
  6
CONTINUOUS
 62
     7
100
AcDbCircle
 10
1538.2770402052
 20
1043.5912622726
 30
0.0
 40
19.04999999999995
100
AcDbArc
 50
90.0
 51
150.0
  0
LINE
  5
1C5
330
1F
100
AcDbEntity
  8
0
  6
CONTINUOUS
 62
     7
100
AcDbLine
 10
1689.8038601707
 20
1062.6412941635
 30
0.0
 11
1538.277051432
 21
1062.6412941635
 31
0.0
  0
ARC
  5
1C6
330
1F
100
AcDbEntity
  8
0
  6
CONTINUOUS
 62
     7
100
AcDbCircle
 10
1689.8038501713
 20
1074.6412622726
 30
0.0
 40
12.0
100
AcDbArc
 50
270.0
 51
0.0
  0
LINE
  5
1C7
330
1F
100
AcDbEntity
  8
0
  6
CONTINUOUS
 62
     7
100
AcDbLine
 10
1701.8038248848
 20
1192.5912214935
 30
0.0
 11
1701.8038248848
 21
1074.6412588776
 31
0.0
  0
ARC
  5
1C8
330
1F
100
AcDbEntity
  8
0
  6
CONTINUOUS
 62
     7
100
AcDbCircle
 10
1707.8038501713
 20
1192.5912622726
 30
0.0
 40
5.999999999999773
100
AcDbArc
 50
90.0
 51
180.0
  0
LINE
  5
1C9
330
1F
100
AcDbEntity
  8
0
  6
CONTINUOUS
 62
     7
100
AcDbLine
 10
1719.5538496803
 20
1198.5912634552
 30
0.0
 11
1707.8038668464
 21
1198.5912634552
 31
0.0
  0
ARC
  5
1CA
330
1F
100
AcDbEntity
  8
0
  6
CONTINUOUS
 62
     7
100
AcDbCircle
 10
1719.5538501713
 20
1197.5912622726
 30
0.0
 40
1.000000000000227
100
AcDbArc
 50
0.0
 51
90.0
  0
LINE
  5
1CB
330
1F
100
AcDbEntity
  8
0
  6
CONTINUOUS
 62
     7
100
AcDbLine
 10
1720.5538964103
 20
1197.5912167251
 30
0.0
 11
1720.5538964103
 21
1192.331226033
 31
0.0
  0
LINE
  5
1CC
330
1F
100
AcDbEntity
  8
0
  6
CONTINUOUS
 62
     7
100
AcDbLine
 10
1720.5538964103
 20
1192.331226033
 30
0.0
 11
1715.2400231193
 21
1191.9911219299
 31
0.0
  0
ARC
  5
1CD
330
1F
100
AcDbEntity
  8
0
  6
CONTINUOUS
 62
     7
100
AcDbCircle
 10
1715.3038501713
 20
1190.9932163655
 30
0.0
 40
1.000000000000149
100
AcDbArc
 50
93.6619355755
 51
180.0
  0
LINE
  5
1CE
330
1F
100
AcDbEntity
  8
0
  6
CONTINUOUS
 62
     7
100
AcDbLine
 10
1714.3038725685
 20
1190.9932209671
 30
0.0
 11
1714.3038725685
 21
1177.0534826935
 31
0.0
  0
ARC
  5
1CF
330
1F
100
AcDbEntity
  8
0
  6
CONTINUOUS
 62
     7
100
AcDbCircle
 10
1713.3038501713
 20
1177.053540656
 30
0.0
 40
0.9999999999999415
100
AcDbArc
 50
335.1121079736
 51
0.0
  0
ARC
  5
1D0
330
1F
100
AcDbEntity
  8
0
  6
CONTINUOUS
 62
     7
100
AcDbCircle
 10
1718.9008605901
 20
1174.4569324122
 30
0.0
 40
5.170000000000124
100
AcDbArc
 50
155.1121079736
 51
342.3995332141
  0
ARC
  5
1D1
330
1F
100
AcDbEntity
  8
0
  6
CONTINUOUS
 62
     7
100
AcDbCircle
 10
1724.7820318111
 20
1172.5912622726
 30
0.0
 40
0.9999999999999909
100
AcDbArc
 50
90.0
 51
162.3995332141
  0
LINE
  5
1D2
330
1F
100
AcDbEntity
  8
0
  6
CONTINUOUS
 62
     7
100
AcDbLine
 10
1726.8058276008
 20
1173.591287297
 30
0.0
 11
1724.7820114921
 21
1173.591287297
 31
0.0
  0
LINE
  5
1D3
330
1F
100
AcDbEntity
  8
0
  6
CONTINUOUS
 62
     7
100
AcDbLine
 10
1726.8058276008
 20
1055.5912567795
 30
0.0
 11
1726.8058276008
 21
1173.591287297
 31
0.0
  0
ARC
  5
1D4
330
1F
100
AcDbEntity
  8
0
  6
CONTINUOUS
 62
     7
100
AcDbCircle
 10
1714.8058501713
 20
1055.5912622726
 30
0.0
 40
12.0
100
AcDbArc
 50
270.0
 51
0.0
  0
LINE
  5
1D5
330
1F
100
AcDbEntity
  8
0
  6
CONTINUOUS
 62
     7
100
AcDbLine
 10
1550.2770161461
 20
1043.5912920654
 30
0.0
 11
1714.8058628868
 21
1043.5912920654
 31
0.0
  0
ARC
  5
1D6
330
1F
100
AcDbEntity
  8
0
  6
CONTINUOUS
 62
     7
100
AcDbCircle
 10
1550.2770402052
 20
1031.5912622726
 30
0.0
 40
12.00000000000023
100
AcDbArc
 50
90.0
 51
180.0
  0
LINE
  5
1D7
330
1F
100
AcDbEntity
  8
0
  6
CONTINUOUS
 62
     7
100
AcDbLine
 10
1538.277051432
 20
1005.5913044632
 30
0.0
 11
1538.277051432
 21
1031.5912081421
 31
0.0
  0
ARC
  5
1D8
330
1F
100
AcDbEntity
  8
0
  6
CONTINUOUS
 62
     7
100
AcDbCircle
 10
1550.2770402052
 20
1005.5912622726
 30
0.0
 40
12.0
100
AcDbArc
 50
180.0
 51
270.0
  0
LINE
  5
1D9
330
1F
100
AcDbEntity
  8
0
  6
CONTINUOUS
 62
     7
100
AcDbLine
 10
1714.8058628868
 20
993.5912801445
 30
0.0
 11
1550.2770161461
 21
993.5912801445
 31
0.0
  0
ARC
  5
1DA
330
1F
100
AcDbEntity
  8
0
  6
CONTINUOUS
 62
     7
100
AcDbCircle
 10
1714.8058501713
 20
981.5912622726
 30
0.0
 40
12.0
100
AcDbArc
 50
0.0
 51
90.0
  0
LINE
  5
1DB
330
1F
100
AcDbEntity
  8
0
  6
CONTINUOUS
 62
     7
100
AcDbLine
 10
1726.8058276008
 20
863.5912849129
 30
0.0
 11
1726.8058276008
 21
981.5912558258
 31
0.0
  0
LINE
  5
1DC
330
1F
100
AcDbEntity
  8
0
  6
CONTINUOUS
 62
     7
100
AcDbLine
 10
1724.7820114921
 20
863.5912849129
 30
0.0
 11
1726.8058276008
 21
863.5912849129
 31
0.0
  0
ARC
  5
1DD
330
1F
100
AcDbEntity
  8
0
  6
CONTINUOUS
 62
     7
100
AcDbCircle
 10
1724.7820318111
 20
864.5912622726
 30
0.0
 40
1.0
100
AcDbArc
 50
197.6004667859
 51
270.0
  0
ARC
  5
1DE
330
1F
100
AcDbEntity
  8
0
  6
CONTINUOUS
 62
     7
100
AcDbCircle
 10
1718.9008605901
 20
862.725592133
 30
0.0
 40
5.170000000000124
100
AcDbArc
 50
17.6004667859
 51
204.8878920264
  0
ARC
  5
1DF
330
1F
100
AcDbEntity
  8
0
  6
CONTINUOUS
 62
     7
100
AcDbCircle
 10
1713.3038501713
 20
860.1289838892
 30
0.0
 40
0.9999999999999415
100
AcDbArc
 50
0.0
 51
24.8878920264
  0
LINE
  5
1E0
330
1F
100
AcDbEntity
  8
0
  6
CONTINUOUS
 62
     7
100
AcDbLine
 10
1714.3038725685
 20
860.1289703071
 30
0.0
 11
1714.3038725685
 21
846.1892916382
 31
0.0
  0
ARC
  5
1E1
330
1F
100
AcDbEntity
  8
0
  6
CONTINUOUS
 62
     7
100
AcDbCircle
 10
1715.3038501713
 20
846.1893081798
 30
0.0
 40
1.000000000000227
100
AcDbArc
 50
180.0
 51
266.3380644245
  0
LINE
  5
1E2
330
1F
100
AcDbEntity
  8
0
  6
CONTINUOUS
 62
     7
100
AcDbLine
 10
1720.5538964103
 20
844.8512865723
 30
0.0
 11
1720.5538964103
 21
839.5912362755
 31
0.0
  0
ARC
  5
1E3
330
1F
100
AcDbEntity
  8
0
  6
CONTINUOUS
 62
     7
100
AcDbCircle
 10
1707.8038501713
 20
844.5912622726
 30
0.0
 40
6.0
100
AcDbArc
 50
180.0
 51
270.0
  0
ARC
  5
1E4
330
1F
100
AcDbEntity
  8
0
  6
CONTINUOUS
 62
     7
100
AcDbCircle
 10
1689.8038501713
 20
962.5412622726
 30
0.0
 40
12.00000000000023
100
AcDbArc
 50
0.0
 51
90.0
  0
LINE
  5
1E5
330
1F
100
AcDbEntity
  8
0
  6
CONTINUOUS
 62
     7
100
AcDbLine
 10
1538.277051432
 20
974.5412780464
 30
0.0
 11
1689.8038601707
 21
974.5412780464
 31
0.0
  0
ARC
  5
1E6
330
1F
100
AcDbEntity
  8
0
  6
CONTINUOUS
 62
     7
100
AcDbCircle
 10
1538.2770402052
 20
993.5912622726
 30
0.0
 40
19.04999999999996
100
AcDbArc
 50
210.0
 51
270.0
  0
ARC
  5
1E7
330
1F
100
AcDbEntity
  8
0
  6
CONTINUOUS
 62
     7
100
AcDbCircle
 10
1505.281472321
 20
974.5412622726
 30
0.0
 40
19.04999999999996
100
AcDbArc
 50
30.0
 51
90.0
  0
LINE
  5
1E8
330
1F
100
AcDbEntity
  8
0
  6
CONTINUOUS
 62
     7
100
AcDbLine
 10
1394.7438216041
 20
993.5912801445
 30
0.0
 11
1505.2814698051
 21
993.5912801445
 31
0.0
  0
ARC
  5
1E9
330
1F
100
AcDbEntity
  8
0
  6
CONTINUOUS
 62
     7
100
AcDbCircle
 10
1394.7437981233
 20
974.5412622726
 30
0.0
 40
19.05000000000007
100
AcDbArc
 50
90.0
 51
150.0
  0
ARC
  5
1EA
330
1F
100
AcDbEntity
  8
0
  6
CONTINUOUS
 62
     7
100
AcDbCircle
 10
1361.7482302391
 20
993.5912622726
 30
0.0
 40
19.05000000000007
100
AcDbArc
 50
270.0
 51
330.0
  0
LINE
  5
1EB
330
1F
100
AcDbEntity
  8
0
  6
CONTINUOUS
 62
     7
100
AcDbLine
 10
1210.2214312385
 20
974.5412780464
 30
0.0
 11
1361.7482399772
 21
974.5412780464
 31
0.0
  0
ARC
  5
1EC
330
1F
100
AcDbEntity
  8
0
  6
CONTINUOUS
 62
     7
100
AcDbCircle
 10
1210.221420273
 20
962.5412622726
 30
0.0
 40
12.00000000000023
100
AcDbArc
 50
90.0
 51
180.0
  0
LINE
  5
1ED
330
1F
100
AcDbEntity
  8
0
  6
CONTINUOUS
 62
     7
100
AcDbLine
 10
1198.2214665245
 20
844.5912911117
 30
0.0
 11
1198.2214665245
 21
962.5412537277
 31
0.0
  0
ARC
  5
1EE
330
1F
100
AcDbEntity
  8
0
  6
CONTINUOUS
 62
     7
100
AcDbCircle
 10
1192.221420273
 20
844.5912622726
 30
0.0
 40
6.000000000000114
100
AcDbArc
 50
270.0
 51
0.0
  0
LINE
  5
1EF
330
1F
100
AcDbEntity
  8
0
  6
CONTINUOUS
 62
     7
100
AcDbLine
 10
1180.4714417289
 20
838.5912491501
 30
0.0
 11
1192.2214245628
 21
838.5912491501
 31
0.0
  0
ARC
  5
1F0
330
1F
100
AcDbEntity
  8
0
  6
CONTINUOUS
 62
     7
100
AcDbCircle
 10
1180.471420273
 20
839.5912622726
 30
0.0
 40
1.0
100
AcDbArc
 50
180.0
 51
270.0
  0
LINE
  5
1F1
330
1F
100
AcDbEntity
  8
0
  6
CONTINUOUS
 62
     7
100
AcDbLine
 10
1185.7214188408
 20
846.1892916382
 30
0.0
 11
1185.7214188408
 21
860.1289703071
 31
0.0
  0
ARC
  5
1F2
330
1F
100
AcDbEntity
  8
0
  6
CONTINUOUS
 62
     7
100
AcDbCircle
 10
1186.721420273
 20
860.1289838892
 30
0.0
 40
1.0
100
AcDbArc
 50
155.1121079736
 51
180.0
  0
ARC
  5
1F3
330
1F
100
AcDbEntity
  8
0
  6
CONTINUOUS
 62
     7
100
AcDbCircle
 10
1181.1244098542
 20
862.725592133
 30
0.0
 40
5.170000000000076
100
AcDbArc
 50
335.1121079736
 51
162.3995332141
  0
ARC
  5
1F4
330
1F
100
AcDbEntity
  8
0
  6
CONTINUOUS
 62
     7
100
AcDbCircle
 10
1175.2432386332
 20
864.5912622726
 30
0.0
 40
1.0
100
AcDbArc
 50
270.0
 51
342.3995332141
  0
LINE
  5
1F5
330
1F
100
AcDbEntity
  8
0
  6
CONTINUOUS
 62
     7
100
AcDbLine
 10
1173.2194638084
 20
863.5912849129
 30
0.0
 11
1175.2432799171
 21
863.5912849129
 31
0.0
  0
LINE
  5
1F6
330
1F
100
AcDbEntity
  8
0
  6
CONTINUOUS
 62
     7
100
AcDbLine
 10
1173.2194638084
 20
981.5912558258
 30
0.0
 11
1173.2194638084
 21
863.5912849129
 31
0.0
  0
ARC
  5
1F7
330
1F
100
AcDbEntity
  8
0
  6
CONTINUOUS
 62
     7
100
AcDbCircle
 10
1185.219420273
 20
981.5912622726
 30
0.0
 40
12.0
100
AcDbArc
 50
90.0
 51
180.0
  0
LINE
  5
1F8
330
1F
100
AcDbEntity
  8
0
  6
CONTINUOUS
 62
     7
100
AcDbLine
 10
1349.7482752632
 20
993.5912801445
 30
0.0
 11
1185.2194285225
 21
993.5912801445
 31
0.0
  0
ARC
  5
1F9
330
1F
100
AcDbEntity
  8
0
  6
CONTINUOUS
 62
     7
100
AcDbCircle
 10
1349.7482302391
 20
1005.5912622726
 30
0.0
 40
12.0
100
AcDbArc
 50
270.0
 51
0.0
  0
LINE
  5
1FA
330
1F
100
AcDbEntity
  8
0
  6
CONTINUOUS
 62
     7
100
AcDbLine
 10
1361.7482399772
 20
1031.5912081421
 30
0.0
 11
1361.7482399772
 21
1005.5913044632
 31
0.0
  0
ARC
  5
1FB
330
1F
100
AcDbEntity
  8
0
  6
CONTINUOUS
 62
     7
100
AcDbCircle
 10
1349.7482302391
 20
1031.5912622726
 30
0.0
 40
12.00000000000023
100
AcDbArc
 50
0.0
 51
90.0
  0
LINE
  5
1FC
330
1F
100
AcDbEntity
  8
0
  6
CONTINUOUS
 62
     7
100
AcDbLine
 10
1185.2194285225
 20
1043.5912920654
 30
0.0
 11
1349.7482752632
 21
1043.5912920654
 31
0.0
  0
ARC
  5
1FD
330
1F
100
AcDbEntity
  8
0
  6
CONTINUOUS
 62
     7
100
AcDbCircle
 10
1185.219420273
 20
1055.5912622726
 30
0.0
 40
12.0
100
AcDbArc
 50
180.0
 51
270.0
  0
LINE
  5
1FE
330
1F
100
AcDbEntity
  8
0
  6
CONTINUOUS
 62
     7
100
AcDbLine
 10
1173.2194638084
 20
1173.591287297
 30
0.0
 11
1173.2194638084
 21
1055.5912567795
 31
0.0
  0
LINE
  5
1FF
330
1F
100
AcDbEntity
  8
0
  6
CONTINUOUS
 62
     7
100
AcDbLine
 10
1175.2432799171
 20
1173.591287297
 30
0.0
 11
1173.2194638084
 21
1173.591287297
 31
0.0
  0
ARC
  5
200
330
1F
100
AcDbEntity
  8
0
  6
CONTINUOUS
 62
     7
100
AcDbCircle
 10
1175.2432386332
 20
1172.5912622726
 30
0.0
 40
0.9999999999997742
100
AcDbArc
 50
17.6004667859
 51
90.0
  0
ARC
  5
201
330
1F
100
AcDbEntity
  8
0
  6
CONTINUOUS
 62
     7
100
AcDbCircle
 10
1181.1244098542
 20
1174.4569324122
 30
0.0
 40
5.170000000000331
100
AcDbArc
 50
197.6004667859
 51
24.8878920264
  0
ARC
  5
202
330
1F
100
AcDbEntity
  8
0
  6
CONTINUOUS
 62
     7
100
AcDbCircle
 10
1186.721420273
 20
1177.053540656
 30
0.0
 40
0.9999999999995453
100
AcDbArc
 50
180.0
 51
204.8878920264
  0
LINE
  5
203
330
1F
100
AcDbEntity
  8
0
  6
CONTINUOUS
 62
     7
100
AcDbLine
 10
1185.7214188408
 20
1177.0534826935
 30
0.0
 11
1185.7214188408
 21
1190.9932209671
 31
0.0
  0
ARC
  5
204
330
1F
100
AcDbEntity
  8
0
  6
CONTINUOUS
 62
     7
100
AcDbCircle
 10
1184.721420273
 20
1190.9932163655
 30
0.0
 40
1.000000000000227
100
AcDbArc
 50
0.0
 51
86.3380644245
  0
LINE
  5
205
330
1F
100
AcDbEntity
  8
0
  6
CONTINUOUS
 62
     7
100
AcDbLine
 10
1184.7852682899
 20
1191.9911219299
 30
0.0
 11
1179.4713949989
 21
1192.331226033
 31
0.0
  0
LINE
  5
206
330
1F
100
AcDbEntity
  8
0
  6
CONTINUOUS
 62
     7
100
AcDbLine
 10
1179.4713949989
 20
1192.331226033
 30
0.0
 11
1179.4713949989
 21
1197.5912167251
 31
0.0
  0
ARC
  5
207
330
1F
100
AcDbEntity
  8
0
  6
CONTINUOUS
 62
     7
100
AcDbCircle
 10
1180.471420273
 20
1197.5912622726
 30
0.0
 40
1.0
100
AcDbArc
 50
90.0
 51
180.0
  0
LINE
  5
208
330
1F
100
AcDbEntity
  8
0
  6
CONTINUOUS
 62
     7
100
AcDbLine
 10
1192.2214245628
 20
1198.5912634552
 30
0.0
 11
1180.4714417289
 21
1198.5912634552
 31
0.0
  0
LINE
  5
209
330
1F
100
AcDbEntity
  8
0
  6
CONTINUOUS
 62
     7
100
AcDbLine
 10
1701.8038248848
 20
962.5412537277
 30
0.0
 11
1701.8038248848
 21
844.5912911117
 31
0.0
  0
LINE
  5
20A
330
1F
100
AcDbEntity
  8
0
  6
CONTINUOUS
 62
     7
100
AcDbLine
 10
1179.4713949989
 20
844.8512865723
 30
0.0
 11
1184.7852682899
 21
845.1913310707
 31
0.0
  0
ARC
  5
20B
330
1F
100
AcDbEntity
  8
0
  6
CONTINUOUS
 62
     7
100
AcDbCircle
 10
1184.721420273
 20
846.1893081798
 30
0.0
 40
1.000000000000227
100
AcDbArc
 50
273.6619355755
 51
0.0
  0
LINE
  5
20C
330
1F
100
AcDbEntity
  8
0
  6
CONTINUOUS
 62
     7
100
AcDbLine
 10
1179.4713949989
 20
839.5912362755
 30
0.0
 11
1179.4713949989
 21
844.8512865723
 31
0.0
  0
ARC
  5
20D
330
1F
100
AcDbEntity
  8
0
  6
CONTINUOUS
 62
     7
100
AcDbCircle
 10
1719.5538501713
 20
839.5912622726
 30
0.0
 40
1.0
100
AcDbArc
 50
270.0
 51
0.0
  0
LINE
  5
20E
330
1F
100
AcDbEntity
  8
0
  6
CONTINUOUS
 62
     7
100
AcDbLine
 10
1707.8038668464
 20
838.5912491501
 30
0.0
 11
1719.5538496803
 21
838.5912491501
 31
0.0
  0
LINE
  5
20F
330
1F
100
AcDbEntity
  8
0
  6
CONTINUOUS
 62
     7
100
AcDbLine
 10
1715.2400231193
 20
845.1913310707
 30
0.0
 11
1720.5538964103
 21
844.8512865723
 31
0.0
  0
LINE
  5
210
330
1F
100
AcDbEntity
  8
POCKETS
100
AcDbLine
 10
1962.3882800697
 20
85.9621201093
 30
0.0
 11
1614.3882800697
 21
85.9621201093
 31
0.0
  0
LINE
  5
211
330
1F
100
AcDbEntity
  8
POCKETS
100
AcDbLine
 10
1614.3882800697
 20
85.9621201093
 30
0.0
 11
1614.3882800697
 21
67.5144410953
 31
0.0
  0
LINE
  5
212
330
1F
100
AcDbEntity
  8
POCKETS
100
AcDbLine
 10
1614.3882800697
 20
67.5144410953
 30
0.0
 11
1962.3882800697
 21
67.5144410953
 31
0.0
  0
LINE
  5
213
330
1F
100
AcDbEntity
  8
PROFILES_OUTSIDE
100
AcDbLine
 10
613.9482800697
 20
604.9239109139
 30
0.0
 11
613.9482800697
 21
679.8893131268
 31
0.0
  0
LINE
  5
214
330
1F
100
AcDbEntity
  8
PROFILES_OUTSIDE
100
AcDbLine
 10
613.9482800697
 20
679.8893131268
 30
0.0
 11
25.9482800697
 21
783.5695777834
 31
0.0
  0
LINE
  5
215
330
1F
100
AcDbEntity
  8
PROFILES_OUTSIDE
100
AcDbLine
 10
25.9482800697
 20
783.5695777834
 30
0.0
 11
25.9482800697
 21
33.0894638201
 31
0.0
  0
LINE
  5
216
330
1F
100
AcDbEntity
  8
PROFILES_OUTSIDE
100
AcDbLine
 10
25.9482800697
 20
33.0894638201
 30
0.0
 11
613.9482800697
 21
136.7697284766
 31
0.0
  0
LINE
  5
217
330
1F
100
AcDbEntity
  8
POCKETS
100
AcDbLine
 10
1962.3882800697
 20
67.5144410953
 30
0.0
 11
1962.3882800697
 21
85.9621201093
 31
0.0
  0
LINE
  5
218
330
1F
100
AcDbEntity
  8
PROFILES_OUTSIDE
100
AcDbLine
 10
613.9482800697
 20
136.7697284766
 30
0.0
 11
613.9482800697
 21
211.7351306896
 31
0.0
  0
LINE
  5
219
330
1F
100
AcDbEntity
  8
PROFILES_OUTSIDE
100
AcDbLine
 10
608.9901691357
 20
217.6439772076
 30
0.0
 11
598.9063910037
 21
219.4220193598
 31
0.0
  0
LINE
  5
21A
330
1F
100
AcDbEntity
  8
PROFILES_OUTSIDE
100
AcDbLine
 10
593.9482800697
 20
225.3308658779
 30
0.0
 11
593.9482800697
 21
591.3281757256
 31
0.0
  0
LINE
  5
21B
330
1F
100
AcDbEntity
  8
PROFILES_OUTSIDE
100
AcDbLine
 10
598.9063910037
 20
597.2370222436
 30
0.0
 11
608.9901691357
 21
599.0150643958
 31
0.0
  0
LINE
  5
21C
330
1F
100
AcDbEntity
  8
PROFILES_INSIDE
100
AcDbLine
 10
587.2673937955
 20
654.4278652562
 30
0.0
 11
589.2496636437
 21
665.6698762083
 31
0.0
  0
LINE
  5
21D
330
1F
100
AcDbEntity
  8
PROFILES_INSIDE
100
AcDbLine
 10
572.3649753852
 20
653.5398695924
 30
0.0
 11
576.3471806503
 21
652.8377021236
 31
0.0
  0
LINE
  5
21E
330
1F
100
AcDbEntity
  8
PROFILES_INSIDE
100
AcDbLine
 10
564.6294698185
 20
670.0110868861
 30
0.0
 11
562.6471989037
 21
658.7690636498
 31
0.0
  0
LINE
  5
21F
330
1F
100
AcDbEntity
  8
PROFILES_INSIDE
100
AcDbLine
 10
579.5318882287
 20
670.8990763138
 30
0.0
 11
575.5496827843
 21
671.6012427659
 31
0.0
  0
LINE
  5
220
330
1F
100
AcDbEntity
  8
PROFILES_OUTSIDE
100
AcDbLine
 10
1592.9082800697
 20
30.0712622726
 30
0.0
 11
1592.9082800697
 21
508.0712622726
 31
0.0
  0
LINE
  5
221
330
1F
100
AcDbEntity
  8
PROFILES_OUTSIDE
100
AcDbLine
 10
1592.9082800697
 20
508.0712622726
 30
0.0
 11
1264.9082800697
 21
508.0712622726
 31
0.0
  0
LINE
  5
222
330
1F
100
AcDbEntity
  8
PROFILES_OUTSIDE
100
AcDbLine
 10
1264.9082800697
 20
508.0712622726
 30
0.0
 11
1264.9082800697
 21
30.0712622726
 31
0.0
  0
LINE
  5
223
330
1F
100
AcDbEntity
  8
PROFILES_OUTSIDE
100
AcDbLine
 10
1264.9082800697
 20
30.0712622726
 30
0.0
 11
1592.9082800697
 21
30.0712622726
 31
0.0
  0
LINE
  5
224
330
1F
100
AcDbEntity
  8
PROFILES_OUTSIDE
100
AcDbLine
 10
1952.3882800697
 20
623.9682244087
 30
0.0
 11
1624.3882800697
 21
623.9682244087
 31
0.0
  0
LINE
  5
225
330
1F
100
AcDbEntity
  8
PROFILES_OUTSIDE
100
AcDbLine
 10
1624.3882800697
 20
623.9682244087
 30
0.0
 11
1624.3882800697
 21
30.0712622726
 31
0.0
  0
LINE
  5
226
330
1F
100
AcDbEntity
  8
PROFILES_OUTSIDE
100
AcDbLine
 10
1624.3882800697
 20
30.0712622726
 30
0.0
 11
1952.3882800697
 21
30.0712622726
 31
0.0
  0
LINE
  5
227
330
1F
100
AcDbEntity
  8
PROFILES_OUTSIDE
100
AcDbLine
 10
1952.3882800697
 20
30.0712622726
 30
0.0
 11
1952.3882800697
 21
623.9682244087
 31
0.0
  0
LINE
  5
228
330
1F
100
AcDbEntity
  8
PROFILES_OUTSIDE
100
AcDbLine
 10
1983.8682800697
 20
623.9682244087
 30
0.0
 11
1983.8682800697
 21
30.0712622726
 31
0.0
  0
LINE
  5
229
330
1F
100
AcDbEntity
  8
PROFILES_OUTSIDE
100
AcDbLine
 10
1983.8682800697
 20
30.0712622726
 30
0.0
 11
2311.8682800697
 21
30.0712622726
 31
0.0
  0
LINE
  5
22A
330
1F
100
AcDbEntity
  8
BOX_STOCK
100
AcDbLine
 10
0.2082800697
 20
4.3312622726
 30
0.0
 11
2440.2082800697
 21
4.3312622726
 31
0.0
  0
LINE
  5
22B
330
1F
100
AcDbEntity
  8
BOX_STOCK
100
AcDbLine
 10
2440.2082800697
 20
4.3312622726
 30
0.0
 11
2440.2082800697
 21
1224.3312622726
 31
0.0
  0
LINE
  5
22C
330
1F
100
AcDbEntity
  8
BOX_STOCK
100
AcDbLine
 10
2440.2082800697
 20
1224.3312622726
 30
0.0
 11
0.2082800697
 21
1224.3312622726
 31
0.0
  0
LINE
  5
22D
330
1F
100
AcDbEntity
  8
BOX_STOCK
100
AcDbLine
 10
0.2082800697
 20
1224.3312622726
 30
0.0
 11
0.2082800697
 21
4.3312622726
 31
0.0
  0
LINE
  5
22E
330
1F
100
AcDbEntity
  8
POCKETS
100
AcDbLine
 10
2321.8682800697
 20
85.9621201093
 30
0.0
 11
1973.8682800697
 21
85.9621201093
 31
0.0
  0
LINE
  5
22F
330
1F
100
AcDbEntity
  8
PROFILES_OUTSIDE
100
AcDbLine
 10
2311.8682800697
 20
30.0712622726
 30
0.0
 11
2311.8682800697
 21
623.9682244087
 31
0.0
  0
LINE
  5
230
330
1F
100
AcDbEntity
  8
POCKETS
100
AcDbLine
 10
1973.8682800697
 20
85.9621201093
 30
0.0
 11
1973.8682800697
 21
67.5144410953
 31
0.0
  0
LINE
  5
231
330
1F
100
AcDbEntity
  8
POCKETS
100
AcDbLine
 10
1973.8682800697
 20
67.5144410953
 30
0.0
 11
2321.8682800697
 21
67.5144410953
 31
0.0
  0
LINE
  5
232
330
1F
100
AcDbEntity
  8
POCKETS
100
AcDbLine
 10
2321.8682800697
 20
67.5144410953
 30
0.0
 11
2321.8682800697
 21
85.9621201093
 31
0.0
  0
LINE
  5
233
330
1F
100
AcDbEntity
  8
PROFILES_OUTSIDE
100
AcDbLine
 10
2311.8682800697
 20
623.9682244087
 30
0.0
 11
1983.8682800697
 21
623.9682244087
 31
0.0
  0
LINE
  5
234
330
1F
100
AcDbEntity
  8
PROFILES_INSIDE
100
AcDbLine
 10
91.3355125508
 20
741.8740365132
 30
0.0
 11
93.3177823991
 21
753.1160474652
 31
0.0
  0
LINE
  5
235
330
1F
100
AcDbEntity
  8
PROFILES_INSIDE
100
AcDbLine
 10
83.6000069841
 20
758.3452475708
 30
0.0
 11
79.6178016538
 21
759.0474146698
 31
0.0
  0
LINE
  5
236
330
1F
100
AcDbEntity
  8
PROFILES_INSIDE
100
AcDbLine
 10
68.6975884814
 20
757.4572581593
 30
0.0
 11
66.7153176591
 21
746.2152349068
 31
0.0
  0
LINE
  5
237
330
1F
100
AcDbEntity
  8
PROFILES_INSIDE
100
AcDbLine
 10
76.4330941406
 20
740.9860408493
 30
0.0
 11
80.4152994056
 21
740.2838733805
 31
0.0
  0
LINE
  5
238
330
1F
100
AcDbEntity
  8
PROFILES_INSIDE
100
AcDbLine
 10
589.2496636437
 20
150.9891653951
 30
0.0
 11
587.2673937955
 21
162.2311763472
 31
0.0
  0
LINE
  5
239
330
1F
100
AcDbEntity
  8
PROFILES_INSIDE
100
AcDbLine
 10
576.3471801779
 20
163.8213421587
 30
0.0
 11
572.3649758739
 21
163.1191692398
 31
0.0
  0
LINE
  5
23A
330
1F
100
AcDbEntity
  8
PROFILES_INSIDE
100
AcDbLine
 10
562.6471976525
 20
157.889977733
 30
0.0
 11
564.6294708849
 21
146.6479549054
 31
0.0
  0
LINE
  5
23B
330
1F
100
AcDbEntity
  8
PROFILES_INSIDE
100
AcDbLine
 10
575.549683436
 20
145.057795142
 30
0.0
 11
579.5318877563
 21
145.7599679685
 31
0.0
  0
LINE
  5
23C
330
1F
100
AcDbEntity
  8
PROFILES_INSIDE
100
AcDbLine
 10
66.7153165927
 20
70.4438065086
 30
0.0
 11
68.6975896402
 21
59.2017836485
 31
0.0
  0
LINE
  5
23D
330
1F
100
AcDbEntity
  8
PROFILES_INSIDE
100
AcDbLine
 10
79.6178021914
 20
57.611623885
 30
0.0
 11
83.6000065117
 21
58.3137967115
 31
0.0
  0
LINE
  5
23E
330
1F
100
AcDbEntity
  8
PROFILES_INSIDE
100
AcDbLine
 10
93.3177823991
 20
63.5429941382
 30
0.0
 11
91.3355125508
 21
74.7850050903
 31
0.0
  0
LINE
  5
23F
330
1F
100
AcDbEntity
  8
PROFILES_INSIDE
100
AcDbLine
 10
80.4152989333
 20
76.3751709018
 30
0.0
 11
76.4330946129
 21
75.6729980753
 31
0.0
  0
LINE
  5
240
330
1F
100
AcDbEntity
  8
PROFILES_OUTSIDE
100
AcDbLine
 10
1720.5538501713
 20
1192.3312622726
 30
0.0
 11
1720.5538501713
 21
1197.5912622726
 31
0.0
  0
LINE
  5
241
330
1F
100
AcDbEntity
  8
PROFILES_OUTSIDE
100
AcDbLine
 10
1715.2399808421
 20
1191.9911746356
 30
0.0
 11
1720.5538501713
 21
1192.3312622726
 31
0.0
  0
LINE
  5
242
330
1F
100
AcDbEntity
  8
PROFILES_OUTSIDE
100
AcDbLine
 10
1714.3038501713
 20
1177.053540656
 30
0.0
 11
1714.3038501713
 21
1190.9932163655
 31
0.0
  0
LINE
  5
243
330
1F
100
AcDbEntity
  8
PROFILES_OUTSIDE
100
AcDbLine
 10
1726.8058501713
 20
1173.5912622726
 30
0.0
 11
1724.7820318111
 21
1173.5912622726
 31
0.0
  0
LINE
  5
244
330
1F
100
AcDbEntity
  8
PROFILES_OUTSIDE
100
AcDbLine
 10
1726.8058501713
 20
1055.5912622726
 30
0.0
 11
1726.8058501713
 21
1173.5912622726
 31
0.0
  0
LINE
  5
245
330
1F
100
AcDbEntity
  8
PROFILES_OUTSIDE
100
AcDbLine
 10
1550.2770402052
 20
1043.5912622726
 30
0.0
 11
1714.8058501713
 21
1043.5912622726
 31
0.0
  0
LINE
  5
246
330
1F
100
AcDbEntity
  8
PROFILES_OUTSIDE
100
AcDbLine
 10
1538.2770402052
 20
1005.5912622726
 30
0.0
 11
1538.2770402052
 21
1031.5912622726
 31
0.0
  0
LINE
  5
247
330
1F
100
AcDbEntity
  8
PROFILES_OUTSIDE
100
AcDbLine
 10
1714.8058501713
 20
993.5912622726
 30
0.0
 11
1550.2770402052
 21
993.5912622726
 31
0.0
  0
LINE
  5
248
330
1F
100
AcDbEntity
  8
PROFILES_INSIDE
100
AcDbLine
 10
1206.7473937955
 20
654.4278652562
 30
0.0
 11
1208.7296636437
 21
665.6698762083
 31
0.0
  0
LINE
  5
249
330
1F
100
AcDbEntity
  8
PROFILES_INSIDE
100
AcDbLine
 10
1191.8449753852
 20
653.5398695924
 30
0.0
 11
1195.8271806503
 21
652.8377021236
 31
0.0
  0
LINE
  5
24A
330
1F
100
AcDbEntity
  8
PROFILES_INSIDE
100
AcDbLine
 10
1184.1094698185
 20
670.0110868861
 30
0.0
 11
1182.1271989037
 21
658.7690636498
 31
0.0
  0
LINE
  5
24B
330
1F
100
AcDbEntity
  8
PROFILES_INSIDE
100
AcDbLine
 10
1199.0118882287
 20
670.8990763138
 30
0.0
 11
1195.0296827843
 21
671.6012427659
 31
0.0
  0
LINE
  5
24C
330
1F
100
AcDbEntity
  8
PROFILES_INSIDE
100
AcDbLine
 10
710.9579157519
 20
741.8489269867
 30
0.0
 11
712.9401856002
 21
753.0909379387
 31
0.0
  0
LINE
  5
24D
330
1F
100
AcDbEntity
  8
PROFILES_INSIDE
100
AcDbLine
 10
703.2224101851
 20
758.3201380443
 30
0.0
 11
699.2402048549
 21
759.0223051433
 31
0.0
  0
LINE
  5
24E
330
1F
100
AcDbEntity
  8
PROFILES_INSIDE
100
AcDbLine
 10
688.3199916825
 20
757.4321486328
 30
0.0
 11
686.3377208602
 21
746.1901253803
 31
0.0
  0
LINE
  5
24F
330
1F
100
AcDbEntity
  8
PROFILES_INSIDE
100
AcDbLine
 10
696.0554973417
 20
740.9609313228
 30
0.0
 11
700.0377026067
 21
740.258763854
 31
0.0
  0
LINE
  5
250
330
1F
100
AcDbEntity
  8
PROFILES_INSIDE
100
AcDbLine
 10
1208.7296636437
 20
150.9891653952
 30
0.0
 11
1206.7473937955
 21
162.2311763472
 31
0.0
  0
LINE
  5
251
330
1F
100
AcDbEntity
  8
PROFILES_INSIDE
100
AcDbLine
 10
1195.8271801779
 20
163.8213421587
 30
0.0
 11
1191.8449758739
 21
163.1191692398
 31
0.0
  0
LINE
  5
252
330
1F
100
AcDbEntity
  8
PROFILES_INSIDE
100
AcDbLine
 10
1182.1271976525
 20
157.889977733
 30
0.0
 11
1184.1094708849
 21
146.6479549054
 31
0.0
  0
LINE
  5
253
330
1F
100
AcDbEntity
  8
PROFILES_INSIDE
100
AcDbLine
 10
1195.029683436
 20
145.057795142
 30
0.0
 11
1199.0118877563
 21
145.7599679685
 31
0.0
  0
LINE
  5
254
330
1F
100
AcDbEntity
  8
PROFILES_OUTSIDE
100
AcDbLine
 10
1726.8058501713
 20
863.5912622726
 30
0.0
 11
1726.8058501713
 21
981.5912622726
 31
0.0
  0
LINE
  5
255
330
1F
100
AcDbEntity
  8
PROFILES_OUTSIDE
100
AcDbLine
 10
1724.7820318111
 20
863.5912622726
 30
0.0
 11
1726.8058501713
 21
863.5912622726
 31
0.0
  0
LINE
  5
256
330
1F
100
AcDbEntity
  8
PROFILES_OUTSIDE
100
AcDbLine
 10
1714.3038501713
 20
846.1893081798
 30
0.0
 11
1714.3038501713
 21
860.1289838892
 31
0.0
  0
LINE
  5
257
330
1F
100
AcDbEntity
  8
PROFILES_OUTSIDE
100
AcDbLine
 10
1720.5538501713
 20
844.8512622726
 30
0.0
 11
1715.2399808421
 21
845.1913499097
 31
0.0
  0
LINE
  5
258
330
1F
100
AcDbEntity
  8
PROFILES_OUTSIDE
100
AcDbLine
 10
1720.5538501713
 20
839.5912622726
 30
0.0
 11
1720.5538501713
 21
844.8512622726
 31
0.0
  0
LINE
  5
259
330
1F
100
AcDbEntity
  8
PROFILES_INSIDE
100
AcDbLine
 10
686.3377197938
 20
70.4689160351
 30
0.0
 11
688.3199928413
 21
59.226893175
 31
0.0
  0
LINE
  5
25A
330
1F
100
AcDbEntity
  8
PROFILES_INSIDE
100
AcDbLine
 10
699.2402053924
 20
57.6367334115
 30
0.0
 11
703.2224097128
 21
58.338906238
 31
0.0
  0
LINE
  5
25B
330
1F
100
AcDbEntity
  8
PROFILES_INSIDE
100
AcDbLine
 10
712.9401856002
 20
63.5681036647
 30
0.0
 11
710.9579157519
 21
74.8101146168
 31
0.0
  0
LINE
  5
25C
330
1F
100
AcDbEntity
  8
PROFILES_INSIDE
100
AcDbLine
 10
700.0377021344
 20
76.4002804283
 30
0.0
 11
696.055497814
 21
75.6981076018
 31
0.0
  0
LINE
  5
25D
330
1F
100
AcDbEntity
  8
PROFILES_OUTSIDE
100
AcDbLine
 10
645.4282800697
 20
776.4190562278
 30
0.0
 11
645.4282800697
 21
40.2399853756
 31
0.0
  0
LINE
  5
25E
330
1F
100
AcDbEntity
  8
PROFILES_OUTSIDE
100
AcDbLine
 10
1228.4701691357
 20
680.7635618578
 30
0.0
 11
652.4701691357
 21
782.3279027459
 31
0.0
  0
LINE
  5
25F
330
1F
100
AcDbEntity
  8
PROFILES_OUTSIDE
100
AcDbLine
 10
1233.4282800697
 20
604.9239109139
 30
0.0
 11
1233.4282800697
 21
674.8547153397
 31
0.0
  0
LINE
  5
260
330
1F
100
AcDbEntity
  8
PROFILES_OUTSIDE
100
AcDbLine
 10
1218.3863910037
 20
597.2370222436
 30
0.0
 11
1228.4701691357
 21
599.0150643958
 31
0.0
  0
LINE
  5
261
330
1F
100
AcDbEntity
  8
POCKETS
100
AcDbLine
 10
624.0721518554
 20
190.6868424759
 30
0.0
 11
614.2240743253
 21
188.9503606992
 31
0.0
  0
LINE
  5
262
330
1F
100
AcDbEntity
  8
PROFILES_OUTSIDE
100
AcDbLine
 10
1707.8038501713
 20
838.5912622726
 30
0.0
 11
1719.5538501713
 21
838.5912622726
 31
0.0
  0
LINE
  5
263
330
1F
100
AcDbEntity
  8
PROFILES_OUTSIDE
100
AcDbLine
 10
1701.8038501713
 20
962.5412622726
 30
0.0
 11
1701.8038501713
 21
844.5912622726
 31
0.0
  0
LINE
  5
264
330
1F
100
AcDbEntity
  8
PROFILES_OUTSIDE
100
AcDbLine
 10
1538.2770402052
 20
974.5412622726
 30
0.0
 11
1689.8038501713
 21
974.5412622726
 31
0.0
  0
LINE
  5
265
330
1F
100
AcDbEntity
  8
PROFILES_OUTSIDE
100
AcDbLine
 10
1394.7437981233
 20
993.5912622726
 30
0.0
 11
1505.281472321
 21
993.5912622726
 31
0.0
  0
LINE
  5
266
330
1F
100
AcDbEntity
  8
PROFILES_OUTSIDE
100
AcDbLine
 10
1210.221420273
 20
974.5412622726
 30
0.0
 11
1361.7482302391
 21
974.5412622726
 31
0.0
  0
LINE
  5
267
330
1F
100
AcDbEntity
  8
PROFILES_OUTSIDE
100
AcDbLine
 10
1198.221420273
 20
844.5912622726
 30
0.0
 11
1198.221420273
 21
962.5412622726
 31
0.0
  0
LINE
  5
268
330
1F
100
AcDbEntity
  8
PROFILES_OUTSIDE
100
AcDbLine
 10
1180.471420273
 20
838.5912622726
 30
0.0
 11
1192.221420273
 21
838.5912622726
 31
0.0
  0
LINE
  5
269
330
1F
100
AcDbEntity
  8
PROFILES_OUTSIDE
100
AcDbLine
 10
1179.471420273
 20
844.8512622726
 30
0.0
 11
1179.471420273
 21
839.5912622726
 31
0.0
  0
LINE
  5
26A
330
1F
100
AcDbEntity
  8
PROFILES_OUTSIDE
100
AcDbLine
 10
1184.7852896023
 20
845.1913499097
 30
0.0
 11
1179.471420273
 21
844.8512622726
 31
0.0
  0
LINE
  5
26B
330
1F
100
AcDbEntity
  8
PROFILES_OUTSIDE
100
AcDbLine
 10
1185.721420273
 20
860.1289838892
 30
0.0
 11
1185.721420273
 21
846.1893081798
 31
0.0
  0
LINE
  5
26C
330
1F
100
AcDbEntity
  8
PROFILES_OUTSIDE
100
AcDbLine
 10
1173.219420273
 20
863.5912622726
 30
0.0
 11
1175.2432386332
 21
863.5912622726
 31
0.0
  0
LINE
  5
26D
330
1F
100
AcDbEntity
  8
PROFILES_OUTSIDE
100
AcDbLine
 10
1173.219420273
 20
981.5912622726
 30
0.0
 11
1173.219420273
 21
863.5912622726
 31
0.0
  0
LINE
  5
26E
330
1F
100
AcDbEntity
  8
PROFILES_OUTSIDE
100
AcDbLine
 10
1349.7482302391
 20
993.5912622726
 30
0.0
 11
1185.219420273
 21
993.5912622726
 31
0.0
  0
LINE
  5
26F
330
1F
100
AcDbEntity
  8
PROFILES_OUTSIDE
100
AcDbLine
 10
1361.7482302391
 20
1031.5912622726
 30
0.0
 11
1361.7482302391
 21
1005.5912622726
 31
0.0
  0
LINE
  5
270
330
1F
100
AcDbEntity
  8
PROFILES_OUTSIDE
100
AcDbLine
 10
1185.219420273
 20
1043.5912622726
 30
0.0
 11
1349.7482302391
 21
1043.5912622726
 31
0.0
  0
LINE
  5
271
330
1F
100
AcDbEntity
  8
PROFILES_OUTSIDE
100
AcDbLine
 10
1173.219420273
 20
1173.5912622726
 30
0.0
 11
1173.219420273
 21
1055.5912622726
 31
0.0
  0
LINE
  5
272
330
1F
100
AcDbEntity
  8
PROFILES_OUTSIDE
100
AcDbLine
 10
1213.4282800697
 20
225.3308658779
 30
0.0
 11
1213.4282800697
 21
591.3281757256
 31
0.0
  0
LINE
  5
273
330
1F
100
AcDbEntity
  8
POCKETS
100
AcDbLine
 10
627.3158998143
 20
172.2906336496
 30
0.0
 11
624.0721518554
 21
190.6868424759
 31
0.0
  0
LINE
  5
274
330
1F
100
AcDbEntity
  8
PROFILES_OUTSIDE
100
AcDbLine
 10
1228.4701691357
 20
217.6439772076
 30
0.0
 11
1218.3863910037
 21
219.4220193598
 31
0.0
  0
LINE
  5
275
330
1F
100
AcDbEntity
  8
POCKETS
100
AcDbLine
 10
617.4678222841
 20
170.554151873
 30
0.0
 11
627.3158998143
 21
172.2906336496
 31
0.0
  0
LINE
  5
276
330
1F
100
AcDbEntity
  8
POCKETS
100
AcDbLine
 10
25.6724858141
 20
66.2046669959
 30
0.0
 11
617.4678222841
 21
170.554151873
 31
0.0
  0
LINE
  5
277
330
1F
100
AcDbEntity
  8
POCKETS
100
AcDbLine
 10
15.824408284
 20
64.4681852192
 30
0.0
 11
25.6724858141
 21
66.2046669959
 31
0.0
  0
LINE
  5
278
330
1F
100
AcDbEntity
  8
POCKETS
100
AcDbLine
 10
12.5806603251
 20
82.8643940455
 30
0.0
 11
15.824408284
 21
64.4681852192
 31
0.0
  0
LINE
  5
279
330
1F
100
AcDbEntity
  8
POCKETS
100
AcDbLine
 10
22.4287378553
 20
84.6008758221
 30
0.0
 11
12.5806603251
 21
82.8643940455
 31
0.0
  0
LINE
  5
27A
330
1F
100
AcDbEntity
  8
POCKETS
100
AcDbLine
 10
555.6082800697
 20
178.6148146763
 30
0.0
 11
22.4287378553
 21
84.6008758221
 31
0.0
  0
LINE
  5
27B
330
1F
100
AcDbEntity
  8
POCKETS
100
AcDbLine
 10
555.6082800697
 20
638.0442269271
 30
0.0
 11
555.6082800697
 21
178.6148146763
 31
0.0
  0
LINE
  5
27C
330
1F
100
AcDbEntity
  8
POCKETS
100
AcDbLine
 10
22.4287378553
 20
732.0581657813
 30
0.0
 11
555.6082800697
 21
638.0442269271
 31
0.0
  0
LINE
  5
27D
330
1F
100
AcDbEntity
  8
POCKETS
100
AcDbLine
 10
12.5806603251
 20
733.794647558
 30
0.0
 11
22.4287378553
 21
732.0581657813
 31
0.0
  0
LINE
  5
27E
330
1F
100
AcDbEntity
  8
POCKETS
100
AcDbLine
 10
15.824408284
 20
752.1908563842
 30
0.0
 11
12.5806603251
 21
733.794647558
 31
0.0
  0
LINE
  5
27F
330
1F
100
AcDbEntity
  8
POCKETS
100
AcDbLine
 10
25.6724858141
 20
750.4543746076
 30
0.0
 11
15.824408284
 21
752.1908563842
 31
0.0
  0
LINE
  5
280
330
1F
100
AcDbEntity
  8
POCKETS
100
AcDbLine
 10
617.4678222841
 20
646.1048897305
 30
0.0
 11
25.6724858141
 21
750.4543746076
 31
0.0
  0
LINE
  5
281
330
1F
100
AcDbEntity
  8
POCKETS
100
AcDbLine
 10
627.3158998143
 20
644.3684079538
 30
0.0
 11
617.4678222841
 21
646.1048897305
 31
0.0
  0
LINE
  5
282
330
1F
100
AcDbEntity
  8
POCKETS
100
AcDbLine
 10
624.0721518554
 20
625.9721991275
 30
0.0
 11
627.3158998143
 21
644.3684079538
 31
0.0
  0
LINE
  5
283
330
1F
100
AcDbEntity
  8
POCKETS
100
AcDbLine
 10
614.2240743253
 20
627.7086809042
 30
0.0
 11
624.0721518554
 21
625.9721991275
 31
0.0
  0
LINE
  5
284
330
1F
100
AcDbEntity
  8
POCKETS
100
AcDbLine
 10
573.9482800697
 20
634.8103901009
 30
0.0
 11
614.2240743253
 21
627.7086809042
 31
0.0
  0
LINE
  5
285
330
1F
100
AcDbEntity
  8
PROFILES_OUTSIDE
100
AcDbLine
 10
1175.2432386332
 20
1173.5912622726
 30
0.0
 11
1173.219420273
 21
1173.5912622726
 31
0.0
  0
LINE
  5
286
330
1F
100
AcDbEntity
  8
PROFILES_OUTSIDE
100
AcDbLine
 10
1185.721420273
 20
1190.9932163655
 30
0.0
 11
1185.721420273
 21
1177.053540656
 31
0.0
  0
LINE
  5
287
330
1F
100
AcDbEntity
  8
PROFILES_OUTSIDE
100
AcDbLine
 10
1179.471420273
 20
1192.3312622726
 30
0.0
 11
1184.7852896023
 21
1191.9911746356
 31
0.0
  0
LINE
  5
288
330
1F
100
AcDbEntity
  8
PROFILES_OUTSIDE
100
AcDbLine
 10
1179.471420273
 20
1197.5912622726
 30
0.0
 11
1179.471420273
 21
1192.3312622726
 31
0.0
  0
LINE
  5
289
330
1F
100
AcDbEntity
  8
PROFILES_OUTSIDE
100
AcDbLine
 10
1192.221420273
 20
1198.5912622726
 30
0.0
 11
1180.471420273
 21
1198.5912622726
 31
0.0
  0
LINE
  5
28A
330
1F
100
AcDbEntity
  8
PROFILES_OUTSIDE
100
AcDbLine
 10
1198.221420273
 20
1074.6412622726
 30
0.0
 11
1198.221420273
 21
1192.5912622726
 31
0.0
  0
LINE
  5
28B
330
1F
100
AcDbEntity
  8
PROFILES_OUTSIDE
100
AcDbLine
 10
1361.7482302391
 20
1062.6412622726
 30
0.0
 11
1210.221420273
 21
1062.6412622726
 31
0.0
  0
LINE
  5
28C
330
1F
100
AcDbEntity
  8
PROFILES_OUTSIDE
100
AcDbLine
 10
1505.281472321
 20
1043.5912622726
 30
0.0
 11
1394.7437981233
 21
1043.5912622726
 31
0.0
  0
LINE
  5
28D
330
1F
100
AcDbEntity
  8
PROFILES_OUTSIDE
100
AcDbLine
 10
1689.8038501713
 20
1062.6412622726
 30
0.0
 11
1538.2770402052
 21
1062.6412622726
 31
0.0
  0
LINE
  5
28E
330
1F
100
AcDbEntity
  8
PROFILES_OUTSIDE
100
AcDbLine
 10
1701.8038501713
 20
1192.5912622726
 30
0.0
 11
1701.8038501713
 21
1074.6412622726
 31
0.0
  0
LINE
  5
28F
330
1F
100
AcDbEntity
  8
PROFILES_OUTSIDE
100
AcDbLine
 10
1719.5538501713
 20
1198.5912622726
 30
0.0
 11
1707.8038501713
 21
1198.5912622726
 31
0.0
  0
LINE
  5
290
330
1F
100
AcDbEntity
  8
POCKETS
100
AcDbLine
 10
573.9482800697
 20
181.8486515025
 30
0.0
 11
573.9482800697
 21
634.8103901009
 31
0.0
  0
LINE
  5
291
330
1F
100
AcDbEntity
  8
PROFILES_OUTSIDE
100
AcDbLine
 10
1764.5338501713
 20
844.8512622726
 30
0.0
 11
1764.5338501713
 21
839.5912622726
 31
0.0
  0
LINE
  5
292
330
1F
100
AcDbEntity
  8
PROFILES_OUTSIDE
100
AcDbLine
 10
1769.8477195006
 20
845.1913499097
 30
0.0
 11
1764.5338501713
 21
844.8512622726
 31
0.0
  0
LINE
  5
293
330
1F
100
AcDbEntity
  8
PROFILES_OUTSIDE
100
AcDbLine
 10
1770.7838501713
 20
860.1289838892
 30
0.0
 11
1770.7838501713
 21
846.1893081798
 31
0.0
  0
LINE
  5
294
330
1F
100
AcDbEntity
  8
PROFILES_OUTSIDE
100
AcDbLine
 10
1758.2818501713
 20
863.5912622726
 30
0.0
 11
1760.3056685316
 21
863.5912622726
 31
0.0
  0
LINE
  5
295
330
1F
100
AcDbEntity
  8
PROFILES_OUTSIDE
100
AcDbLine
 10
1758.2818501713
 20
981.5912622726
 30
0.0
 11
1758.2818501713
 21
863.5912622726
 31
0.0
  0
LINE
  5
296
330
1F
100
AcDbEntity
  8
PROFILES_OUTSIDE
100
AcDbLine
 10
1934.8106601375
 20
993.5912622726
 30
0.0
 11
1770.2818501713
 21
993.5912622726
 31
0.0
  0
LINE
  5
297
330
1F
100
AcDbEntity
  8
PROFILES_OUTSIDE
100
AcDbLine
 10
1946.8106601375
 20
1031.5912622726
 30
0.0
 11
1946.8106601375
 21
1005.5912622726
 31
0.0
  0
LINE
  5
298
330
1F
100
AcDbEntity
  8
PROFILES_OUTSIDE
100
AcDbLine
 10
1770.2818501713
 20
1043.5912622726
 30
0.0
 11
1934.8106601375
 21
1043.5912622726
 31
0.0
  0
LINE
  5
299
330
1F
100
AcDbEntity
  8
PROFILES_OUTSIDE
100
AcDbLine
 10
1758.2818501713
 20
1173.5912622726
 30
0.0
 11
1758.2818501713
 21
1055.5912622726
 31
0.0
  0
LINE
  5
29A
330
1F
100
AcDbEntity
  8
PROFILES_OUTSIDE
100
AcDbLine
 10
1760.3056685316
 20
1173.5912622726
 30
0.0
 11
1758.2818501713
 21
1173.5912622726
 31
0.0
  0
LINE
  5
29B
330
1F
100
AcDbEntity
  8
PROFILES_OUTSIDE
100
AcDbLine
 10
1770.7838501713
 20
1190.9932163655
 30
0.0
 11
1770.7838501713
 21
1177.053540656
 31
0.0
  0
LINE
  5
29C
330
1F
100
AcDbEntity
  8
PROFILES_OUTSIDE
100
AcDbLine
 10
1764.5338501713
 20
1192.3312622726
 30
0.0
 11
1769.8477195006
 21
1191.9911746356
 31
0.0
  0
LINE
  5
29D
330
1F
100
AcDbEntity
  8
PROFILES_OUTSIDE
100
AcDbLine
 10
1764.5338501713
 20
1197.5912622726
 30
0.0
 11
1764.5338501713
 21
1192.3312622726
 31
0.0
  0
LINE
  5
29E
330
1F
100
AcDbEntity
  8
PROFILES_OUTSIDE
100
AcDbLine
 10
1777.2838501713
 20
1198.5912622726
 30
0.0
 11
1765.5338501713
 21
1198.5912622726
 31
0.0
  0
LINE
  5
29F
330
1F
100
AcDbEntity
  8
PROFILES_OUTSIDE
100
AcDbLine
 10
1783.2838501713
 20
1074.6412622726
 30
0.0
 11
1783.2838501713
 21
1192.5912622726
 31
0.0
  0
LINE
  5
2A0
330
1F
100
AcDbEntity
  8
PROFILES_OUTSIDE
100
AcDbLine
 10
1946.8106601375
 20
1062.6412622726
 30
0.0
 11
1795.2838501713
 21
1062.6412622726
 31
0.0
  0
LINE
  5
2A1
330
1F
100
AcDbEntity
  8
PROFILES_OUTSIDE
100
AcDbLine
 10
2090.3439022194
 20
1043.5912622726
 30
0.0
 11
1979.8062280216
 21
1043.5912622726
 31
0.0
  0
LINE
  5
2A2
330
1F
100
AcDbEntity
  8
PROFILES_OUTSIDE
100
AcDbLine
 10
2274.8662800697
 20
1062.6412622726
 30
0.0
 11
2123.3394701036
 21
1062.6412622726
 31
0.0
  0
LINE
  5
2A3
330
1F
100
AcDbEntity
  8
PROFILES_OUTSIDE
100
AcDbLine
 10
2286.8662800697
 20
1192.5912622726
 30
0.0
 11
2286.8662800697
 21
1074.6412622726
 31
0.0
  0
LINE
  5
2A4
330
1F
100
AcDbEntity
  8
PROFILES_OUTSIDE
100
AcDbLine
 10
2304.6162800697
 20
1198.5912622726
 30
0.0
 11
2292.8662800697
 21
1198.5912622726
 31
0.0
  0
LINE
  5
2A5
330
1F
100
AcDbEntity
  8
PROFILES_OUTSIDE
100
AcDbLine
 10
2305.6162800697
 20
1192.3312622726
 30
0.0
 11
2305.6162800697
 21
1197.5912622726
 31
0.0
  0
LINE
  5
2A6
330
1F
100
AcDbEntity
  8
PROFILES_OUTSIDE
100
AcDbLine
 10
2300.3024107404
 20
1191.9911746356
 30
0.0
 11
2305.6162800697
 21
1192.3312622726
 31
0.0
  0
LINE
  5
2A7
330
1F
100
AcDbEntity
  8
PROFILES_OUTSIDE
100
AcDbLine
 10
2299.3662800697
 20
1177.053540656
 30
0.0
 11
2299.3662800697
 21
1190.9932163655
 31
0.0
  0
LINE
  5
2A8
330
1F
100
AcDbEntity
  8
PROFILES_OUTSIDE
100
AcDbLine
 10
2311.8682800697
 20
1173.5912622726
 30
0.0
 11
2309.8444617095
 21
1173.5912622726
 31
0.0
  0
LINE
  5
2A9
330
1F
100
AcDbEntity
  8
PROFILES_OUTSIDE
100
AcDbLine
 10
2311.8682800697
 20
1055.5912622726
 30
0.0
 11
2311.8682800697
 21
1173.5912622726
 31
0.0
  0
LINE
  5
2AA
330
1F
100
AcDbEntity
  8
PROFILES_OUTSIDE
100
AcDbLine
 10
2135.3394701036
 20
1043.5912622726
 30
0.0
 11
2299.8682800697
 21
1043.5912622726
 31
0.0
  0
LINE
  5
2AB
330
1F
100
AcDbEntity
  8
PROFILES_OUTSIDE
100
AcDbLine
 10
2123.3394701036
 20
1005.5912622726
 30
0.0
 11
2123.3394701036
 21
1031.5912622726
 31
0.0
  0
LINE
  5
2AC
330
1F
100
AcDbEntity
  8
PROFILES_OUTSIDE
100
AcDbLine
 10
2299.8682800697
 20
993.5912622726
 30
0.0
 11
2135.3394701036
 21
993.5912622726
 31
0.0
  0
LINE
  5
2AD
330
1F
100
AcDbEntity
  8
PROFILES_OUTSIDE
100
AcDbLine
 10
2311.8682800697
 20
863.5912622726
 30
0.0
 11
2311.8682800697
 21
981.5912622726
 31
0.0
  0
LINE
  5
2AE
330
1F
100
AcDbEntity
  8
PROFILES_OUTSIDE
100
AcDbLine
 10
2309.8444617095
 20
863.5912622726
 30
0.0
 11
2311.8682800697
 21
863.5912622726
 31
0.0
  0
LINE
  5
2AF
330
1F
100
AcDbEntity
  8
PROFILES_OUTSIDE
100
AcDbLine
 10
2299.3662800697
 20
846.1893081798
 30
0.0
 11
2299.3662800697
 21
860.1289838892
 31
0.0
  0
LINE
  5
2B0
330
1F
100
AcDbEntity
  8
PROFILES_OUTSIDE
100
AcDbLine
 10
2305.6162800697
 20
844.8512622726
 30
0.0
 11
2300.3024107404
 21
845.1913499097
 31
0.0
  0
LINE
  5
2B1
330
1F
100
AcDbEntity
  8
PROFILES_OUTSIDE
100
AcDbLine
 10
2305.6162800697
 20
839.5912622726
 30
0.0
 11
2305.6162800697
 21
844.8512622726
 31
0.0
  0
LINE
  5
2B2
330
1F
100
AcDbEntity
  8
PROFILES_OUTSIDE
100
AcDbLine
 10
2292.8662800697
 20
838.5912622726
 30
0.0
 11
2304.6162800697
 21
838.5912622726
 31
0.0
  0
LINE
  5
2B3
330
1F
100
AcDbEntity
  8
PROFILES_OUTSIDE
100
AcDbLine
 10
2286.8662800697
 20
962.5412622726
 30
0.0
 11
2286.8662800697
 21
844.5912622726
 31
0.0
  0
LINE
  5
2B4
330
1F
100
AcDbEntity
  8
PROFILES_OUTSIDE
100
AcDbLine
 10
2123.3394701036
 20
974.5412622726
 30
0.0
 11
2274.8662800697
 21
974.5412622726
 31
0.0
  0
LINE
  5
2B5
330
1F
100
AcDbEntity
  8
PROFILES_OUTSIDE
100
AcDbLine
 10
1979.8062280216
 20
993.5912622726
 30
0.0
 11
2090.3439022194
 21
993.5912622726
 31
0.0
  0
LINE
  5
2B6
330
1F
100
AcDbEntity
  8
PROFILES_OUTSIDE
100
AcDbLine
 10
1795.2838501713
 20
974.5412622726
 30
0.0
 11
1946.8106601375
 21
974.5412622726
 31
0.0
  0
LINE
  5
2B7
330
1F
100
AcDbEntity
  8
PROFILES_OUTSIDE
100
AcDbLine
 10
1783.2838501713
 20
844.5912622726
 30
0.0
 11
1783.2838501713
 21
962.5412622726
 31
0.0
  0
LINE
  5
2B8
330
1F
100
AcDbEntity
  8
PROFILES_OUTSIDE
100
AcDbLine
 10
1765.5338501713
 20
838.5912622726
 30
0.0
 11
1777.2838501713
 21
838.5912622726
 31
0.0
  0
LINE
  5
2B9
330
1F
100
AcDbEntity
  8
POCKETS
100
AcDbLine
 10
614.2240743253
 20
188.9503606992
 30
0.0
 11
573.9482800697
 21
181.8486515025
 31
0.0
  0
LINE
  5
2BA
330
1F
100
AcDbEntity
  8
POCKETS
100
AcDbLine
 10
1193.4282800697
 20
634.8103901009
 30
0.0
 11
1233.7040743253
 21
627.7086809042
 31
0.0
  0
LINE
  5
2BB
330
1F
100
AcDbEntity
  8
POCKETS
100
AcDbLine
 10
1233.7040743253
 20
627.7086809042
 30
0.0
 11
1243.5521518554
 21
625.9721991275
 31
0.0
  0
LINE
  5
2BC
330
1F
100
AcDbEntity
  8
POCKETS
100
AcDbLine
 10
1243.5521518554
 20
625.9721991275
 30
0.0
 11
1246.7958998143
 21
644.3684079538
 31
0.0
  0
LINE
  5
2BD
330
1F
100
AcDbEntity
  8
POCKETS
100
AcDbLine
 10
1246.7958998143
 20
644.3684079538
 30
0.0
 11
1236.9478222841
 21
646.1048897305
 31
0.0
  0
LINE
  5
2BE
330
1F
100
AcDbEntity
  8
POCKETS
100
AcDbLine
 10
1236.9478222841
 20
646.1048897305
 30
0.0
 11
648.2781530121
 21
749.9032351479
 31
0.0
  0
LINE
  5
2BF
330
1F
100
AcDbEntity
  8
POCKETS
100
AcDbLine
 10
648.2781530121
 20
749.9032351479
 30
0.0
 11
638.430075482
 21
751.6397169245
 31
0.0
  0
LINE
  5
2C0
330
1F
100
AcDbEntity
  8
POCKETS
100
AcDbLine
 10
638.430075482
 20
751.6397169245
 30
0.0
 11
635.1863275231
 21
733.2435080983
 31
0.0
  0
LINE
  5
2C1
330
1F
100
AcDbEntity
  8
POCKETS
100
AcDbLine
 10
635.1863275231
 20
733.2435080983
 30
0.0
 11
645.0344050533
 21
731.5070263216
 31
0.0
  0
LINE
  5
2C2
330
1F
100
AcDbEntity
  8
POCKETS
100
AcDbLine
 10
645.0344050533
 20
731.5070263216
 30
0.0
 11
1175.0882800697
 21
638.0442269271
 31
0.0
  0
LINE
  5
2C3
330
1F
100
AcDbEntity
  8
POCKETS
100
AcDbLine
 10
1175.0882800697
 20
638.0442269271
 30
0.0
 11
1175.0882800697
 21
178.6148146763
 31
0.0
  0
LINE
  5
2C4
330
1F
100
AcDbEntity
  8
POCKETS
100
AcDbLine
 10
1175.0882800697
 20
178.6148146763
 30
0.0
 11
645.0344050533
 21
85.1520152819
 31
0.0
  0
LINE
  5
2C5
330
1F
100
AcDbEntity
  8
POCKETS
100
AcDbLine
 10
645.0344050533
 20
85.1520152819
 30
0.0
 11
635.1863275231
 21
83.4155335052
 31
0.0
  0
LINE
  5
2C6
330
1F
100
AcDbEntity
  8
POCKETS
100
AcDbLine
 10
635.1863275231
 20
83.4155335052
 30
0.0
 11
638.430075482
 21
65.0193246789
 31
0.0
  0
LINE
  5
2C7
330
1F
100
AcDbEntity
  8
POCKETS
100
AcDbLine
 10
638.430075482
 20
65.0193246789
 30
0.0
 11
648.2781530121
 21
66.7558064556
 31
0.0
  0
LINE
  5
2C8
330
1F
100
AcDbEntity
  8
POCKETS
100
AcDbLine
 10
648.2781530121
 20
66.7558064556
 30
0.0
 11
1236.9478222841
 21
170.554151873
 31
0.0
  0
LINE
  5
2C9
330
1F
100
AcDbEntity
  8
POCKETS
100
AcDbLine
 10
1236.9478222841
 20
170.554151873
 30
0.0
 11
1246.7958998143
 21
172.2906336496
 31
0.0
  0
LINE
  5
2CA
330
1F
100
AcDbEntity
  8
POCKETS
100
AcDbLine
 10
1246.7958998143
 20
172.2906336496
 30
0.0
 11
1243.5521518554
 21
190.6868424759
 31
0.0
  0
LINE
  5
2CB
330
1F
100
AcDbEntity
  8
POCKETS
100
AcDbLine
 10
1243.5521518554
 20
190.6868424759
 30
0.0
 11
1233.7040743253
 21
188.9503606992
 31
0.0
  0
LINE
  5
2CC
330
1F
100
AcDbEntity
  8
POCKETS
100
AcDbLine
 10
1233.7040743253
 20
188.9503606992
 30
0.0
 11
1193.4282800697
 21
181.8486515025
 31
0.0
  0
LINE
  5
2CD
330
1F
100
AcDbEntity
  8
POCKETS
100
AcDbLine
 10
1193.4282800697
 20
181.8486515025
 30
0.0
 11
1193.4282800697
 21
634.8103901009
 31
0.0
  0
LINE
  5
2CE
330
1F
100
AcDbEntity
  8
PROFILES_OUTSIDE
100
AcDbLine
 10
1233.4282800697
 20
141.8043262637
 30
0.0
 11
1233.4282800697
 21
211.7351306896
 31
0.0
  0
LINE
  5
2CF
330
1F
100
AcDbEntity
  8
PROFILES_OUTSIDE
100
AcDbLine
 10
652.4701691357
 20
34.3311388576
 30
0.0
 11
1228.4701691357
 21
135.8954797456
 31
0.0
  0
ARC
  5
2D0
330
1F
100
AcDbEntity
  8
PROFILES_OUTSIDE
100
AcDbCircle
 10
607.9482800697
 20
211.7351306896
 30
0.0
 40
6.000000000000054
100
AcDbArc
 50
0.0
 51
80.0
  0
ARC
  5
2D1
330
1F
100
AcDbEntity
  8
PROFILES_OUTSIDE
100
AcDbCircle
 10
599.9482800697
 20
225.3308658779
 30
0.0
 40
6.000000000000006
100
AcDbArc
 50
180.0
 51
260.0
  0
ARC
  5
2D2
330
1F
100
AcDbEntity
  8
PROFILES_OUTSIDE
100
AcDbCircle
 10
599.9482800697
 20
591.3281757256
 30
0.0
 40
6.0
100
AcDbArc
 50
100.0
 51
180.0
  0
ARC
  5
2D3
330
1F
100
AcDbEntity
  8
PROFILES_OUTSIDE
100
AcDbCircle
 10
607.9482800697
 20
604.9239109139
 30
0.0
 40
5.999999999999978
100
AcDbArc
 50
280.0
 51
0.0
  0
ARC
  5
2D4
330
1F
100
AcDbEntity
  8
PROFILES_INSIDE
100
AcDbCircle
 10
601.9482800697
 20
412.9314837221
 30
0.0
 40
6.000000000000034
100
AcDbArc
 50
280.0
 51
0.0
  0
ARC
  5
2D5
330
1F
100
AcDbEntity
  8
PROFILES_OUTSIDE
100
AcDbCircle
 10
1719.5538501713
 20
839.5912622726
 30
0.0
 40
1.000000000000227
100
AcDbArc
 50
270.0
 51
0.0
  0
ARC
  5
2D6
330
1F
100
AcDbEntity
  8
PROFILES_INSIDE
100
AcDbCircle
 10
579.7055357439
 20
671.8838841836
 30
0.0
 40
1.000000000000201
100
AcDbArc
 50
260.0000385431
 51
332.3995412421
  0
ARC
  5
2D7
330
1F
100
AcDbEntity
  8
PROFILES_INSIDE
100
AcDbCircle
 10
585.1733889397
 20
669.0253038667
 30
0.0
 40
5.170000000000135
100
AcDbArc
 50
325.1121740788
 51
152.3995412421
  0
ARC
  5
2D8
330
1F
100
AcDbEntity
  8
PROFILES_INSIDE
100
AcDbCircle
 10
590.2344988047
 20
665.4962231979
 30
0.0
 40
1.000027830745326
100
AcDbArc
 50
145.1121740788
 51
170.0
  0
ARC
  5
2D9
330
1F
100
AcDbEntity
  8
PROFILES_INSIDE
100
AcDbCircle
 10
588.2522015485
 20
654.2542170786
 30
0.0
 40
1.000000000000117
100
AcDbArc
 50
170.0
 51
194.8879011019
  0
ARC
  5
2DA
330
1F
100
AcDbEntity
  8
PROFILES_INSIDE
100
AcDbCircle
 10
582.2893262558
 20
652.6689668636
 30
0.0
 40
5.169999999999923
100
AcDbArc
 50
187.6004748139
 51
14.8879011019
  0
ARC
  5
2DB
330
1F
100
AcDbEntity
  8
PROFILES_INSIDE
100
AcDbCircle
 10
576.1735331351
 20
651.8528942537
 30
0.0
 40
0.9999999999999917
100
AcDbArc
 50
7.6004748139
 51
80.0000385431
  0
ARC
  5
2DC
330
1F
100
AcDbEntity
  8
PROFILES_INSIDE
100
AcDbCircle
 10
572.19132787
 20
652.5550617226
 30
0.0
 40
1.000000000000036
100
AcDbArc
 50
80.0000385431
 51
152.3995412421
  0
ARC
  5
2DD
330
1F
100
AcDbEntity
  8
PROFILES_INSIDE
100
AcDbCircle
 10
566.7234746742
 20
655.4136420395
 30
0.0
 40
5.17000000000003
100
AcDbArc
 50
145.1121170491
 51
332.3995412421
  0
ARC
  5
2DE
330
1F
100
AcDbEntity
  8
PROFILES_INSIDE
100
AcDbCircle
 10
561.6623911507
 20
658.9427118275
 30
0.0
 40
1.000000000000004
100
AcDbArc
 50
325.1121170491
 51
350.0
  0
ARC
  5
2DF
330
1F
100
AcDbEntity
  8
PROFILES_INSIDE
100
AcDbCircle
 10
563.6446631319
 20
670.1847348757
 30
0.0
 40
0.9999989171683942
100
AcDbArc
 50
350.0
 51
14.8878493683
  0
ARC
  5
2E0
330
1F
100
AcDbEntity
  8
PROFILES_INSIDE
100
AcDbCircle
 10
569.6075373581
 20
671.7699790426
 30
0.0
 40
5.169998967566426
100
AcDbArc
 50
7.6004748139
 51
194.8878493682
  0
ARC
  5
2E1
330
1F
100
AcDbEntity
  8
PROFILES_INSIDE
100
AcDbCircle
 10
575.7233304788
 20
672.5860516525
 30
0.0
 40
1.000001032433601
100
AcDbArc
 50
187.6004748139
 51
260.0000385431
  0
ARC
  5
2E2
330
1F
100
AcDbEntity
  8
PROFILES_INSIDE
100
AcDbCircle
 10
94.3026175601
 20
752.9423944548
 30
0.0
 40
1.000027830745303
100
AcDbArc
 50
145.1121740788
 51
170.0
  0
ARC
  5
2E3
330
1F
100
AcDbEntity
  8
PROFILES_INSIDE
100
AcDbCircle
 10
89.2415076951
 20
756.4714751236
 30
0.0
 40
5.17000000000007
100
AcDbArc
 50
325.1121740788
 51
152.3995412421
  0
ARC
  5
2E4
330
1F
100
AcDbEntity
  8
PROFILES_INSIDE
100
AcDbCircle
 10
83.7736544992
 20
759.3300554406
 30
0.0
 40
1.0
100
AcDbArc
 50
260.0000385431
 51
332.3995412421
  0
ARC
  5
2E5
330
1F
100
AcDbEntity
  8
PROFILES_INSIDE
100
AcDbCircle
 10
79.7914492342
 20
760.0322229094
 30
0.0
 40
1.000000563145547
100
AcDbArc
 50
187.6004748139
 51
260.0000385431
  0
ARC
  5
2E6
330
1F
100
AcDbEntity
  8
PROFILES_INSIDE
100
AcDbCircle
 10
73.6756561135
 20
759.2161502995
 30
0.0
 40
5.169999436854452
100
AcDbArc
 50
7.6004748139
 51
194.8878493682
  0
ARC
  5
2E7
330
1F
100
AcDbEntity
  8
PROFILES_INSIDE
100
AcDbCircle
 10
67.7127818872
 20
757.6309061326
 30
0.0
 40
0.999998823310783
100
AcDbArc
 50
350.0
 51
14.8878493682
  0
ARC
  5
2E8
330
1F
100
AcDbEntity
  8
PROFILES_INSIDE
100
AcDbCircle
 10
65.7305099061
 20
746.3888830844
 30
0.0
 40
0.9999999999999278
100
AcDbArc
 50
325.1121170491
 51
350.0
  0
ARC
  5
2E9
330
1F
100
AcDbEntity
  8
PROFILES_INSIDE
100
AcDbCircle
 10
70.7915934296
 20
742.8598132965
 30
0.0
 40
5.170000000000083
100
AcDbArc
 50
145.1121170491
 51
332.3995412421
  0
ARC
  5
2EA
330
1F
100
AcDbEntity
  8
PROFILES_INSIDE
100
AcDbCircle
 10
76.2594466254
 20
740.0012329795
 30
0.0
 40
0.9999999999998948
100
AcDbArc
 50
80.0000385431
 51
152.3995412421
  0
ARC
  5
2EB
330
1F
100
AcDbEntity
  8
PROFILES_INSIDE
100
AcDbCircle
 10
80.2416518905
 20
739.2990655107
 30
0.0
 40
1.000000000000075
100
AcDbArc
 50
7.6004748139
 51
80.0000385431
  0
ARC
  5
2EC
330
1F
100
AcDbEntity
  8
PROFILES_INSIDE
100
AcDbCircle
 10
86.3574450112
 20
740.1151381206
 30
0.0
 40
5.169999999999973
100
AcDbArc
 50
187.6004748139
 51
14.8879011019
  0
ARC
  5
2ED
330
1F
100
AcDbEntity
  8
PROFILES_INSIDE
100
AcDbCircle
 10
92.3203203039
 20
741.7003883355
 30
0.0
 40
1.000000000000105
100
AcDbArc
 50
170.0
 51
194.8879011019
  0
ARC
  5
2EE
330
1F
100
AcDbEntity
  8
PROFILES_INSIDE
100
AcDbCircle
 10
585.1733889913
 20
147.6337421815
 30
0.0
 40
5.170000000000115
100
AcDbArc
 50
207.6004748139
 51
34.8879011019
  0
ARC
  5
2EF
330
1F
100
AcDbEntity
  8
PROFILES_INSIDE
100
AcDbCircle
 10
590.2344713967
 20
151.1628135728
 30
0.0
 40
0.9999999999999931
100
AcDbArc
 50
190.0
 51
214.8879011019
  0
ARC
  5
2F0
330
1F
100
AcDbEntity
  8
PROFILES_INSIDE
100
AcDbCircle
 10
588.2522289564
 20
162.4048293576
 30
0.0
 40
1.000027830745316
100
AcDbArc
 50
165.1121740788
 51
190.0
  0
ARC
  5
2F1
330
1F
100
AcDbEntity
  8
PROFILES_INSIDE
100
AcDbCircle
 10
582.2893246872
 20
163.9900788989
 30
0.0
 40
5.170000000000052
100
AcDbArc
 50
345.1121740788
 51
172.3995412421
  0
ARC
  5
2F2
330
1F
100
AcDbEntity
  8
PROFILES_INSIDE
100
AcDbCircle
 10
576.1735313378
 20
164.8061497949
 30
0.0
 40
1.000000000000013
100
AcDbArc
 50
280.0000385431
 51
352.3995412421
  0
ARC
  5
2F3
330
1F
100
AcDbEntity
  8
PROFILES_INSIDE
100
AcDbCircle
 10
572.1913270174
 20
164.1039769684
 30
0.0
 40
1.000000469287925
100
AcDbArc
 50
207.6004748139
 51
280.0000385431
  0
ARC
  5
2F4
330
1F
100
AcDbEntity
  8
PROFILES_INSIDE
100
AcDbCircle
 10
566.7234746226
 20
161.2453951192
 30
0.0
 40
5.169999530712083
100
AcDbArc
 50
27.6004748139
 51
214.8878493682
  0
ARC
  5
2F5
330
1F
100
AcDbEntity
  8
PROFILES_INSIDE
100
AcDbCircle
 10
561.6623911507
 20
157.7163297759
 30
0.0
 40
0.9999987294532626
100
AcDbArc
 50
10.0
 51
34.8878493682
  0
ARC
  5
2F6
330
1F
100
AcDbEntity
  8
PROFILES_INSIDE
100
AcDbCircle
 10
563.6446631319
 20
146.4743067278
 30
0.0
 40
1.000000000000066
100
AcDbArc
 50
345.1121170491
 51
10.0
  0
ARC
  5
2F7
330
1F
100
AcDbEntity
  8
PROFILES_INSIDE
100
AcDbCircle
 10
569.6075389267
 20
144.8890584018
 30
0.0
 40
5.170000000000103
100
AcDbArc
 50
165.1121170491
 51
352.3995412421
  0
ARC
  5
2F8
330
1F
100
AcDbEntity
  8
PROFILES_INSIDE
100
AcDbCircle
 10
575.7233322761
 20
144.0729875058
 30
0.0
 40
1.000000000000013
100
AcDbArc
 50
100.0000385431
 51
172.3995412421
  0
ARC
  5
2F9
330
1F
100
AcDbEntity
  8
PROFILES_INSIDE
100
AcDbCircle
 10
579.7055365965
 20
144.7751603323
 30
0.0
 40
1.000000000000013
100
AcDbArc
 50
27.6004748139
 51
100.0000385431
  0
ARC
  5
2FA
330
1F
100
AcDbEntity
  8
PROFILES_INSIDE
100
AcDbCircle
 10
67.7127818872
 20
59.0281354708
 30
0.0
 40
0.9999999999999456
100
AcDbArc
 50
345.1121170491
 51
10.0
  0
ARC
  5
2FB
330
1F
100
AcDbEntity
  8
PROFILES_INSIDE
100
AcDbCircle
 10
73.6756576821
 20
57.4428871449
 30
0.0
 40
5.170000000000024
100
AcDbArc
 50
165.1121170491
 51
352.3995412421
  0
ARC
  5
2FC
330
1F
100
AcDbEntity
  8
PROFILES_INSIDE
100
AcDbCircle
 10
79.7914510315
 20
56.6268162488
 30
0.0
 40
1.000000000000048
100
AcDbArc
 50
100.0000385431
 51
172.3995412421
  0
ARC
  5
2FD
330
1F
100
AcDbEntity
  8
PROFILES_INSIDE
100
AcDbCircle
 10
83.7736553519
 20
57.3289890753
 30
0.0
 40
1.000000000000001
100
AcDbArc
 50
27.6004748139
 51
100.0000385431
  0
ARC
  5
2FE
330
1F
100
AcDbEntity
  8
PROFILES_INSIDE
100
AcDbCircle
 10
89.2415077466
 20
60.1875709246
 30
0.0
 40
5.170000000000017
100
AcDbArc
 50
207.6004748139
 51
34.8879011019
  0
ARC
  5
2FF
330
1F
100
AcDbEntity
  8
PROFILES_INSIDE
100
AcDbCircle
 10
94.3025901521
 20
63.7166423159
 30
0.0
 40
0.9999999999999928
100
AcDbArc
 50
190.0
 51
214.8879011019
  0
ARC
  5
300
330
1F
100
AcDbEntity
  8
PROFILES_INSIDE
100
AcDbCircle
 10
92.3203477118
 20
74.9586581007
 30
0.0
 40
1.000027830745301
100
AcDbArc
 50
165.1121740788
 51
190.0
  0
ARC
  5
301
330
1F
100
AcDbEntity
  8
PROFILES_INSIDE
100
AcDbCircle
 10
86.3574434425
 20
76.5439076419
 30
0.0
 40
5.17000000000001
100
AcDbArc
 50
345.1121740788
 51
172.3995412421
  0
ARC
  5
302
330
1F
100
AcDbEntity
  8
PROFILES_INSIDE
100
AcDbCircle
 10
80.2416500931
 20
77.359978538
 30
0.0
 40
1.000000000000077
100
AcDbArc
 50
280.0000385431
 51
352.3995412421
  0
ARC
  5
303
330
1F
100
AcDbEntity
  8
PROFILES_INSIDE
100
AcDbCircle
 10
76.2594457728
 20
76.6578057115
 30
0.0
 40
1.000000093857558
100
AcDbArc
 50
207.6004748139
 51
280.0000385431
  0
ARC
  5
304
330
1F
100
AcDbEntity
  8
PROFILES_INSIDE
100
AcDbCircle
 10
70.791593378
 20
73.7992238622
 30
0.0
 40
5.169999906142367
100
AcDbArc
 50
27.6004748139
 51
214.8878493682
  0
ARC
  5
305
330
1F
100
AcDbEntity
  8
PROFILES_INSIDE
100
AcDbCircle
 10
65.7305099061
 20
70.270158519
 30
0.0
 40
0.9999989171684945
100
AcDbArc
 50
10.0
 51
34.8878493682
  0
ARC
  5
306
330
1F
100
AcDbEntity
  8
PROFILES_INSIDE
100
AcDbCircle
 10
1199.1855357439
 20
671.8838841836
 30
0.0
 40
1.000000000000089
100
AcDbArc
 50
260.0000385431
 51
332.3995412421
  0
ARC
  5
307
330
1F
100
AcDbEntity
  8
PROFILES_INSIDE
100
AcDbCircle
 10
1204.6533889397
 20
669.0253038667
 30
0.0
 40
5.170000000000045
100
AcDbArc
 50
325.1121740788
 51
152.3995412421
  0
ARC
  5
308
330
1F
100
AcDbEntity
  8
PROFILES_INSIDE
100
AcDbCircle
 10
1209.7144988047
 20
665.4962231979
 30
0.0
 40
1.000027830745306
100
AcDbArc
 50
145.1121740788
 51
170.0
  0
ARC
  5
309
330
1F
100
AcDbEntity
  8
PROFILES_INSIDE
100
AcDbCircle
 10
1207.7322015485
 20
654.2542170786
 30
0.0
 40
1.000000000000349
100
AcDbArc
 50
170.0
 51
194.8879011019
  0
ARC
  5
30A
330
1F
100
AcDbEntity
  8
PROFILES_INSIDE
100
AcDbCircle
 10
1201.7693262558
 20
652.6689668636
 30
0.0
 40
5.170000000000132
100
AcDbArc
 50
187.6004748139
 51
14.8879011019
  0
ARC
  5
30B
330
1F
100
AcDbEntity
  8
PROFILES_INSIDE
100
AcDbCircle
 10
1195.6535331351
 20
651.8528942537
 30
0.0
 40
0.999999999999879
100
AcDbArc
 50
7.6004748139
 51
80.0000385431
  0
ARC
  5
30C
330
1F
100
AcDbEntity
  8
PROFILES_INSIDE
100
AcDbCircle
 10
1191.67132787
 20
652.5550617226
 30
0.0
 40
1.000000000000189
100
AcDbArc
 50
80.0000385431
 51
152.3995412421
  0
ARC
  5
30D
330
1F
100
AcDbEntity
  8
PROFILES_INSIDE
100
AcDbCircle
 10
1186.2034746742
 20
655.4136420395
 30
0.0
 40
5.170000000000059
100
AcDbArc
 50
145.1121170491
 51
332.3995412421
  0
ARC
  5
30E
330
1F
100
AcDbEntity
  8
PROFILES_INSIDE
100
AcDbCircle
 10
1181.1423911507
 20
658.9427118275
 30
0.0
 40
0.9999999999999009
100
AcDbArc
 50
325.1121170491
 51
350.0
  0
ARC
  5
30F
330
1F
100
AcDbEntity
  8
PROFILES_INSIDE
100
AcDbCircle
 10
1183.1246631318
 20
670.1847348757
 30
0.0
 40
0.9999989171685062
100
AcDbArc
 50
350.0
 51
14.8878493682
  0
ARC
  5
310
330
1F
100
AcDbEntity
  8
PROFILES_INSIDE
100
AcDbCircle
 10
1189.0875373581
 20
671.7699790426
 30
0.0
 40
5.169998967566426
100
AcDbArc
 50
7.6004748139
 51
194.8878493682
  0
ARC
  5
311
330
1F
100
AcDbEntity
  8
PROFILES_INSIDE
100
AcDbCircle
 10
1195.2033304788
 20
672.5860516525
 30
0.0
 40
1.000001032433601
100
AcDbArc
 50
187.6004748139
 51
260.0000385431
  0
ARC
  5
312
330
1F
100
AcDbEntity
  8
PROFILES_INSIDE
100
AcDbCircle
 10
713.9250207611
 20
752.9172849283
 30
0.0
 40
1.000027830745234
100
AcDbArc
 50
145.1121740788
 51
170.0
  0
ARC
  5
313
330
1F
100
AcDbEntity
  8
PROFILES_INSIDE
100
AcDbCircle
 10
708.8639108962
 20
756.4463655971
 30
0.0
 40
5.170000000000042
100
AcDbArc
 50
325.1121740788
 51
152.3995412421
  0
ARC
  5
314
330
1F
100
AcDbEntity
  8
PROFILES_INSIDE
100
AcDbCircle
 10
703.3960577003
 20
759.3049459141
 30
0.0
 40
1.000000000000136
100
AcDbArc
 50
260.0000385431
 51
332.3995412421
  0
ARC
  5
315
330
1F
100
AcDbEntity
  8
PROFILES_INSIDE
100
AcDbCircle
 10
699.4138524353
 20
760.0071133829
 30
0.0
 40
1.000000563145491
100
AcDbArc
 50
187.6004748139
 51
260.0000385431
  0
ARC
  5
316
330
1F
100
AcDbEntity
  8
PROFILES_INSIDE
100
AcDbCircle
 10
693.2980593146
 20
759.191040773
 30
0.0
 40
5.169999436854393
100
AcDbArc
 50
7.6004748139
 51
194.8878493682
  0
ARC
  5
317
330
1F
100
AcDbEntity
  8
PROFILES_INSIDE
100
AcDbCircle
 10
687.3351850883
 20
757.6057966061
 30
0.0
 40
0.9999988233108893
100
AcDbArc
 50
350.0
 51
14.8878493682
  0
ARC
  5
318
330
1F
100
AcDbEntity
  8
PROFILES_INSIDE
100
AcDbCircle
 10
685.3529131072
 20
746.363773558
 30
0.0
 40
0.9999999999999931
100
AcDbArc
 50
325.1121170491
 51
350.0
  0
ARC
  5
319
330
1F
100
AcDbEntity
  8
PROFILES_INSIDE
100
AcDbCircle
 10
690.4139966306
 20
742.83470377
 30
0.0
 40
5.170000000000094
100
AcDbArc
 50
145.1121170491
 51
332.3995412421
  0
ARC
  5
31A
330
1F
100
AcDbEntity
  8
PROFILES_INSIDE
100
AcDbCircle
 10
695.8818498265
 20
739.976123453
 30
0.0
 40
0.9999999999999776
100
AcDbArc
 50
80.0000385431
 51
152.3995412421
  0
ARC
  5
31B
330
1F
100
AcDbEntity
  8
PROFILES_INSIDE
100
AcDbCircle
 10
699.8640550915
 20
739.2739559842
 30
0.0
 40
0.9999999999999917
100
AcDbArc
 50
7.6004748139
 51
80.0000385431
  0
ARC
  5
31C
330
1F
100
AcDbEntity
  8
PROFILES_INSIDE
100
AcDbCircle
 10
705.9798482123
 20
740.0900285941
 30
0.0
 40
5.170000000000019
100
AcDbArc
 50
187.6004748139
 51
14.8879011019
  0
ARC
  5
31D
330
1F
100
AcDbEntity
  8
PROFILES_INSIDE
100
AcDbCircle
 10
711.9427235049
 20
741.675278809
 30
0.0
 40
0.9999999999999931
100
AcDbArc
 50
170.0
 51
194.8879011019
  0
ARC
  5
31E
330
1F
100
AcDbEntity
  8
PROFILES_INSIDE
100
AcDbCircle
 10
1204.6533889913
 20
147.6337421815
 30
0.0
 40
5.170000000000129
100
AcDbArc
 50
207.6004748139
 51
34.8879011019
  0
ARC
  5
31F
330
1F
100
AcDbEntity
  8
PROFILES_INSIDE
100
AcDbCircle
 10
1209.7144713967
 20
151.1628135728
 30
0.0
 40
0.9999999999999036
100
AcDbArc
 50
190.0
 51
214.8879011019
  0
ARC
  5
320
330
1F
100
AcDbEntity
  8
PROFILES_INSIDE
100
AcDbCircle
 10
1207.7322289564
 20
162.4048293576
 30
0.0
 40
1.000027830745321
100
AcDbArc
 50
165.1121740788
 51
190.0
  0
ARC
  5
321
330
1F
100
AcDbEntity
  8
PROFILES_INSIDE
100
AcDbCircle
 10
1201.7693246872
 20
163.9900788989
 30
0.0
 40
5.170000000000103
100
AcDbArc
 50
345.1121740788
 51
172.3995412421
  0
ARC
  5
322
330
1F
100
AcDbEntity
  8
PROFILES_INSIDE
100
AcDbCircle
 10
1195.6535313378
 20
164.8061497949
 30
0.0
 40
1.000000000000062
100
AcDbArc
 50
280.0000385431
 51
352.3995412421
  0
ARC
  5
323
330
1F
100
AcDbEntity
  8
PROFILES_INSIDE
100
AcDbCircle
 10
1191.6713270174
 20
164.1039769684
 30
0.0
 40
1.000000469288039
100
AcDbArc
 50
207.6004748139
 51
280.0000385431
  0
ARC
  5
324
330
1F
100
AcDbEntity
  8
PROFILES_INSIDE
100
AcDbCircle
 10
1186.2034746226
 20
161.2453951192
 30
0.0
 40
5.169999530711982
100
AcDbArc
 50
27.6004748139
 51
214.8878493682
  0
ARC
  5
325
330
1F
100
AcDbEntity
  8
PROFILES_INSIDE
100
AcDbCircle
 10
1181.1423911507
 20
157.7163297759
 30
0.0
 40
0.9999987294532626
100
AcDbArc
 50
10.0
 51
34.8878493682
  0
ARC
  5
326
330
1F
100
AcDbEntity
  8
PROFILES_INSIDE
100
AcDbCircle
 10
1183.1246631319
 20
146.4743067278
 30
0.0
 40
1.000000000000105
100
AcDbArc
 50
345.1121170491
 51
10.0
  0
ARC
  5
327
330
1F
100
AcDbEntity
  8
PROFILES_INSIDE
100
AcDbCircle
 10
1189.0875389267
 20
144.8890584018
 30
0.0
 40
5.170000000000107
100
AcDbArc
 50
165.1121170491
 51
352.3995412421
  0
ARC
  5
328
330
1F
100
AcDbEntity
  8
PROFILES_INSIDE
100
AcDbCircle
 10
1195.2033322761
 20
144.0729875058
 30
0.0
 40
1.000000000000013
100
AcDbArc
 50
100.0000385431
 51
172.3995412421
  0
ARC
  5
329
330
1F
100
AcDbEntity
  8
PROFILES_INSIDE
100
AcDbCircle
 10
1199.1855365965
 20
144.7751603323
 30
0.0
 40
1.00000000000012
100
AcDbArc
 50
27.6004748139
 51
100.0000385431
  0
ARC
  5
32A
330
1F
100
AcDbEntity
  8
PROFILES_INSIDE
100
AcDbCircle
 10
687.3351850883
 20
59.0532449973
 30
0.0
 40
1.000000000000116
100
AcDbArc
 50
345.1121170491
 51
10.0
  0
ARC
  5
32B
330
1F
100
AcDbEntity
  8
PROFILES_INSIDE
100
AcDbCircle
 10
693.2980608832
 20
57.4679966714
 30
0.0
 40
5.169999999999996
100
AcDbArc
 50
165.1121170491
 51
352.3995412421
  0
ARC
  5
32C
330
1F
100
AcDbEntity
  8
PROFILES_INSIDE
100
AcDbCircle
 10
699.4138542326
 20
56.6519257753
 30
0.0
 40
1.00000000000016
100
AcDbArc
 50
100.0000385431
 51
172.3995412421
  0
ARC
  5
32D
330
1F
100
AcDbEntity
  8
PROFILES_INSIDE
100
AcDbCircle
 10
703.3960585529
 20
57.3540986018
 30
0.0
 40
1.000000000000013
100
AcDbArc
 50
27.6004748139
 51
100.0000385431
  0
ARC
  5
32E
330
1F
100
AcDbEntity
  8
PROFILES_INSIDE
100
AcDbCircle
 10
708.8639109477
 20
60.2126804511
 30
0.0
 40
5.169999999999988
100
AcDbArc
 50
207.6004748139
 51
34.8879011019
  0
ARC
  5
32F
330
1F
100
AcDbEntity
  8
PROFILES_INSIDE
100
AcDbCircle
 10
713.9249933532
 20
63.7417518424
 30
0.0
 40
0.9999999999999928
100
AcDbArc
 50
190.0
 51
214.8879011019
  0
ARC
  5
330
330
1F
100
AcDbEntity
  8
PROFILES_INSIDE
100
AcDbCircle
 10
711.9427509129
 20
74.9837676272
 30
0.0
 40
1.000027830745209
100
AcDbArc
 50
165.1121740788
 51
190.0
  0
ARC
  5
331
330
1F
100
AcDbEntity
  8
PROFILES_INSIDE
100
AcDbCircle
 10
705.9798466436
 20
76.5690171684
 30
0.0
 40
5.16999999999999
100
AcDbArc
 50
345.1121740788
 51
172.3995412421
  0
ARC
  5
332
330
1F
100
AcDbEntity
  8
PROFILES_INSIDE
100
AcDbCircle
 10
699.8640532942
 20
77.3850880645
 30
0.0
 40
1.000000000000054
100
AcDbArc
 50
280.0000385431
 51
352.3995412421
  0
ARC
  5
333
330
1F
100
AcDbEntity
  8
PROFILES_INSIDE
100
AcDbCircle
 10
695.8818489739
 20
76.682915238
 30
0.0
 40
1.000000093857702
100
AcDbArc
 50
207.6004748139
 51
280.0000385431
  0
ARC
  5
334
330
1F
100
AcDbEntity
  8
PROFILES_INSIDE
100
AcDbCircle
 10
690.4139965791
 20
73.8243333887
 30
0.0
 40
5.16999990614242
100
AcDbArc
 50
27.6004748139
 51
214.8878493682
  0
ARC
  5
335
330
1F
100
AcDbEntity
  8
PROFILES_INSIDE
100
AcDbCircle
 10
685.3529131072
 20
70.2952680455
 30
0.0
 40
0.999998917168521
100
AcDbArc
 50
10.0
 51
34.8878493683
  0
ARC
  5
336
330
1F
100
AcDbEntity
  8
PROFILES_OUTSIDE
100
AcDbCircle
 10
651.4282800697
 20
776.4190562278
 30
0.0
 40
6.00000000000011
100
AcDbArc
 50
80.0
 51
180.0
  0
ARC
  5
337
330
1F
100
AcDbEntity
  8
PROFILES_OUTSIDE
100
AcDbCircle
 10
1227.4282800697
 20
674.8547153397
 30
0.0
 40
6.0
100
AcDbArc
 50
0.0
 51
80.0
  0
ARC
  5
338
330
1F
100
AcDbEntity
  8
PROFILES_OUTSIDE
100
AcDbCircle
 10
1227.4282800697
 20
604.9239109139
 30
0.0
 40
6.0
100
AcDbArc
 50
280.0
 51
0.0
  0
ARC
  5
339
330
1F
100
AcDbEntity
  8
PROFILES_OUTSIDE
100
AcDbCircle
 10
1219.4282800697
 20
591.3281757256
 30
0.0
 40
6.000000000000227
100
AcDbArc
 50
100.0
 51
180.0
  0
ARC
  5
33A
330
1F
100
AcDbEntity
  8
PROFILES_OUTSIDE
100
AcDbCircle
 10
1219.4282800697
 20
225.3308658779
 30
0.0
 40
6.0
100
AcDbArc
 50
180.0
 51
260.0
  0
ARC
  5
33B
330
1F
100
AcDbEntity
  8
PROFILES_OUTSIDE
100
AcDbCircle
 10
1227.4282800697
 20
211.7351306896
 30
0.0
 40
6.000000000000014
100
AcDbArc
 50
0.0
 51
80.0
  0
ARC
  5
33C
330
1F
100
AcDbEntity
  8
PROFILES_OUTSIDE
100
AcDbCircle
 10
1227.4282800697
 20
141.8043262637
 30
0.0
 40
6.0
100
AcDbArc
 50
280.0
 51
0.0
  0
ARC
  5
33D
330
1F
100
AcDbEntity
  8
PROFILES_OUTSIDE
100
AcDbCircle
 10
651.4282800697
 20
40.2399853756
 30
0.0
 40
6.00000000000009
100
AcDbArc
 50
180.0
 51
280.0
  0
ARC
  5
33E
330
1F
100
AcDbEntity
  8
PROFILES_OUTSIDE
100
AcDbCircle
 10
1689.8038501713
 20
962.5412622726
 30
0.0
 40
12.00000000000023
100
AcDbArc
 50
0.0
 51
90.0
  0
ARC
  5
33F
330
1F
100
AcDbEntity
  8
PROFILES_OUTSIDE
100
AcDbCircle
 10
1210.221420273
 20
962.5412622726
 30
0.0
 40
12.00000000000023
100
AcDbArc
 50
90.0
 51
180.0
  0
ARC
  5
340
330
1F
100
AcDbEntity
  8
PROFILES_OUTSIDE
100
AcDbCircle
 10
1180.471420273
 20
839.5912622726
 30
0.0
 40
1.0
100
AcDbArc
 50
180.0
 51
270.0
  0
ARC
  5
341
330
1F
100
AcDbEntity
  8
PROFILES_OUTSIDE
100
AcDbCircle
 10
1715.3038501713
 20
1190.9932163655
 30
0.0
 40
1.000000000000227
100
AcDbArc
 50
93.6619355755
 51
180.0
  0
ARC
  5
342
330
1F
100
AcDbEntity
  8
PROFILES_OUTSIDE
100
AcDbCircle
 10
1713.3038501713
 20
1177.053540656
 30
0.0
 40
0.9999999999999415
100
AcDbArc
 50
335.1121079736
 51
0.0
  0
ARC
  5
343
330
1F
100
AcDbEntity
  8
PROFILES_OUTSIDE
100
AcDbCircle
 10
1718.9008605901
 20
1174.4569324122
 30
0.0
 40
5.17000000000011
100
AcDbArc
 50
155.1121079736
 51
342.3995332141
  0
ARC
  5
344
330
1F
100
AcDbEntity
  8
PROFILES_OUTSIDE
100
AcDbCircle
 10
1724.7820318111
 20
1172.5912622726
 30
0.0
 40
0.9999999999997742
100
AcDbArc
 50
90.0
 51
162.3995332141
  0
ARC
  5
345
330
1F
100
AcDbEntity
  8
PROFILES_OUTSIDE
100
AcDbCircle
 10
1714.8058501713
 20
1055.5912622726
 30
0.0
 40
12.0
100
AcDbArc
 50
270.0
 51
0.0
  0
ARC
  5
346
330
1F
100
AcDbEntity
  8
PROFILES_OUTSIDE
100
AcDbCircle
 10
1550.2770402052
 20
1031.5912622726
 30
0.0
 40
12.00000000000023
100
AcDbArc
 50
90.0
 51
180.0
  0
ARC
  5
347
330
1F
100
AcDbEntity
  8
PROFILES_OUTSIDE
100
AcDbCircle
 10
1550.2770402052
 20
1005.5912622726
 30
0.0
 40
12.0
100
AcDbArc
 50
180.0
 51
270.0
  0
ARC
  5
348
330
1F
100
AcDbEntity
  8
PROFILES_OUTSIDE
100
AcDbCircle
 10
1714.8058501713
 20
981.5912622726
 30
0.0
 40
12.0
100
AcDbArc
 50
0.0
 51
90.0
  0
ARC
  5
349
330
1F
100
AcDbEntity
  8
PROFILES_OUTSIDE
100
AcDbCircle
 10
1724.7820318111
 20
864.5912622726
 30
0.0
 40
1.0
100
AcDbArc
 50
197.6004667859
 51
270.0
  0
ARC
  5
34A
330
1F
100
AcDbEntity
  8
PROFILES_OUTSIDE
100
AcDbCircle
 10
1718.9008605901
 20
862.725592133
 30
0.0
 40
5.170000000000178
100
AcDbArc
 50
17.6004667859
 51
204.8878920264
  0
ARC
  5
34B
330
1F
100
AcDbEntity
  8
PROFILES_OUTSIDE
100
AcDbCircle
 10
1713.3038501713
 20
860.1289838892
 30
0.0
 40
0.9999999999999415
100
AcDbArc
 50
0.0
 51
24.8878920264
  0
ARC
  5
34C
330
1F
100
AcDbEntity
  8
PROFILES_OUTSIDE
100
AcDbCircle
 10
1715.3038501713
 20
846.1893081798
 30
0.0
 40
1.0
100
AcDbArc
 50
180.0
 51
266.3380644245
  0
ARC
  5
34D
330
1F
100
AcDbEntity
  8
PROFILES_OUTSIDE
100
AcDbCircle
 10
1707.8038501713
 20
844.5912622726
 30
0.0
 40
6.000000000000227
100
AcDbArc
 50
180.0
 51
270.0
  0
ARC
  5
34E
330
1F
100
AcDbEntity
  8
PROFILES_OUTSIDE
100
AcDbCircle
 10
1180.471420273
 20
1197.5912622726
 30
0.0
 40
1.000000000000227
100
AcDbArc
 50
90.0
 51
180.0
  0
ARC
  5
34F
330
1F
100
AcDbEntity
  8
PROFILES_OUTSIDE
100
AcDbCircle
 10
1538.2770402052
 20
993.5912622726
 30
0.0
 40
19.04999999999995
100
AcDbArc
 50
210.0
 51
270.0
  0
ARC
  5
350
330
1F
100
AcDbEntity
  8
PROFILES_OUTSIDE
100
AcDbCircle
 10
1505.281472321
 20
974.5412622726
 30
0.0
 40
19.0500000000001
100
AcDbArc
 50
30.0
 51
90.0
  0
ARC
  5
351
330
1F
100
AcDbEntity
  8
PROFILES_OUTSIDE
100
AcDbCircle
 10
1394.7437981233
 20
974.5412622726
 30
0.0
 40
19.05000000000007
100
AcDbArc
 50
90.0
 51
150.0
  0
ARC
  5
352
330
1F
100
AcDbEntity
  8
PROFILES_OUTSIDE
100
AcDbCircle
 10
1361.7482302391
 20
993.5912622726
 30
0.0
 40
19.05000000000007
100
AcDbArc
 50
270.0
 51
330.0
  0
ARC
  5
353
330
1F
100
AcDbEntity
  8
PROFILES_OUTSIDE
100
AcDbCircle
 10
1192.221420273
 20
844.5912622726
 30
0.0
 40
6.0
100
AcDbArc
 50
270.0
 51
0.0
  0
ARC
  5
354
330
1F
100
AcDbEntity
  8
PROFILES_OUTSIDE
100
AcDbCircle
 10
1210.221420273
 20
1074.6412622726
 30
0.0
 40
12.0
100
AcDbArc
 50
180.0
 51
270.0
  0
ARC
  5
355
330
1F
100
AcDbEntity
  8
PROFILES_OUTSIDE
100
AcDbCircle
 10
1184.721420273
 20
846.1893081798
 30
0.0
 40
1.0
100
AcDbArc
 50
273.6619355755
 51
0.0
  0
ARC
  5
356
330
1F
100
AcDbEntity
  8
PROFILES_OUTSIDE
100
AcDbCircle
 10
1186.721420273
 20
860.1289838892
 30
0.0
 40
0.9999999999997831
100
AcDbArc
 50
155.1121079736
 51
180.0
  0
ARC
  5
357
330
1F
100
AcDbEntity
  8
PROFILES_OUTSIDE
100
AcDbCircle
 10
1181.1244098542
 20
862.725592133
 30
0.0
 40
5.170000000000076
100
AcDbArc
 50
335.1121079736
 51
162.3995332141
  0
ARC
  5
358
330
1F
100
AcDbEntity
  8
PROFILES_OUTSIDE
100
AcDbCircle
 10
1175.2432386332
 20
864.5912622726
 30
0.0
 40
1.0
100
AcDbArc
 50
270.0
 51
342.3995332141
  0
ARC
  5
359
330
1F
100
AcDbEntity
  8
PROFILES_OUTSIDE
100
AcDbCircle
 10
1185.219420273
 20
981.5912622726
 30
0.0
 40
12.0
100
AcDbArc
 50
90.0
 51
180.0
  0
ARC
  5
35A
330
1F
100
AcDbEntity
  8
PROFILES_OUTSIDE
100
AcDbCircle
 10
1349.7482302391
 20
1005.5912622726
 30
0.0
 40
12.0
100
AcDbArc
 50
270.0
 51
0.0
  0
ARC
  5
35B
330
1F
100
AcDbEntity
  8
PROFILES_OUTSIDE
100
AcDbCircle
 10
1349.7482302391
 20
1031.5912622726
 30
0.0
 40
12.00000000000023
100
AcDbArc
 50
0.0
 51
90.0
  0
ARC
  5
35C
330
1F
100
AcDbEntity
  8
PROFILES_OUTSIDE
100
AcDbCircle
 10
1185.219420273
 20
1055.5912622726
 30
0.0
 40
12.0
100
AcDbArc
 50
180.0
 51
270.0
  0
ARC
  5
35D
330
1F
100
AcDbEntity
  8
PROFILES_OUTSIDE
100
AcDbCircle
 10
1175.2432386332
 20
1172.5912622726
 30
0.0
 40
0.9999999999997742
100
AcDbArc
 50
17.6004667859
 51
90.0
  0
ARC
  5
35E
330
1F
100
AcDbEntity
  8
PROFILES_OUTSIDE
100
AcDbCircle
 10
1181.1244098542
 20
1174.4569324122
 30
0.0
 40
5.170000000000331
100
AcDbArc
 50
197.6004667859
 51
24.8878920264
  0
ARC
  5
35F
330
1F
100
AcDbEntity
  8
PROFILES_OUTSIDE
100
AcDbCircle
 10
1186.721420273
 20
1177.053540656
 30
0.0
 40
0.9999999999995453
100
AcDbArc
 50
180.0
 51
204.8878920264
  0
ARC
  5
360
330
1F
100
AcDbEntity
  8
PROFILES_OUTSIDE
100
AcDbCircle
 10
1184.721420273
 20
1190.9932163655
 30
0.0
 40
1.000000000000227
100
AcDbArc
 50
0.0
 51
86.3380644245
  0
ARC
  5
361
330
1F
100
AcDbEntity
  8
PROFILES_OUTSIDE
100
AcDbCircle
 10
1192.221420273
 20
1192.5912622726
 30
0.0
 40
6.000000000000227
100
AcDbArc
 50
0.0
 51
90.0
  0
ARC
  5
362
330
1F
100
AcDbEntity
  8
PROFILES_OUTSIDE
100
AcDbCircle
 10
1689.8038501713
 20
1074.6412622726
 30
0.0
 40
11.99999999999977
100
AcDbArc
 50
270.0
 51
0.0
  0
ARC
  5
363
330
1F
100
AcDbEntity
  8
PROFILES_OUTSIDE
100
AcDbCircle
 10
1361.7482302391
 20
1043.5912622726
 30
0.0
 40
19.04999999999995
100
AcDbArc
 50
30.0
 51
90.0
  0
ARC
  5
364
330
1F
100
AcDbEntity
  8
PROFILES_OUTSIDE
100
AcDbCircle
 10
1394.7437981233
 20
1062.6412622726
 30
0.0
 40
19.04999999999995
100
AcDbArc
 50
210.0
 51
270.0
  0
ARC
  5
365
330
1F
100
AcDbEntity
  8
PROFILES_OUTSIDE
100
AcDbCircle
 10
1505.281472321
 20
1062.6412622726
 30
0.0
 40
19.05000000000001
100
AcDbArc
 50
270.0
 51
330.0
  0
ARC
  5
366
330
1F
100
AcDbEntity
  8
PROFILES_OUTSIDE
100
AcDbCircle
 10
1538.2770402052
 20
1043.5912622726
 30
0.0
 40
19.04999999999995
100
AcDbArc
 50
90.0
 51
150.0
  0
ARC
  5
367
330
1F
100
AcDbEntity
  8
PROFILES_OUTSIDE
100
AcDbCircle
 10
1707.8038501713
 20
1192.5912622726
 30
0.0
 40
6.000000000000227
100
AcDbArc
 50
90.0
 51
180.0
  0
ARC
  5
368
330
1F
100
AcDbEntity
  8
PROFILES_OUTSIDE
100
AcDbCircle
 10
1719.5538501713
 20
1197.5912622726
 30
0.0
 40
1.000000000000227
100
AcDbArc
 50
0.0
 51
90.0
  0
ARC
  5
369
330
1F
100
AcDbEntity
  8
PROFILES_OUTSIDE
100
AcDbCircle
 10
1765.5338501713
 20
1197.5912622726
 30
0.0
 40
1.000000000000227
100
AcDbArc
 50
90.0
 51
180.0
  0
ARC
  5
36A
330
1F
100
AcDbEntity
  8
PROFILES_OUTSIDE
100
AcDbCircle
 10
1795.2838501713
 20
1074.6412622726
 30
0.0
 40
12.00000000000023
100
AcDbArc
 50
180.0
 51
270.0
  0
ARC
  5
36B
330
1F
100
AcDbEntity
  8
PROFILES_OUTSIDE
100
AcDbCircle
 10
2274.8662800697
 20
1074.6412622726
 30
0.0
 40
12.0
100
AcDbArc
 50
270.0
 51
0.0
  0
ARC
  5
36C
330
1F
100
AcDbEntity
  8
PROFILES_OUTSIDE
100
AcDbCircle
 10
2304.6162800697
 20
1197.5912622726
 30
0.0
 40
1.000000000000227
100
AcDbArc
 50
0.0
 51
90.0
  0
ARC
  5
36D
330
1F
100
AcDbEntity
  8
PROFILES_OUTSIDE
100
AcDbCircle
 10
1769.7838501713
 20
846.1893081798
 30
0.0
 40
1.000000000000036
100
AcDbArc
 50
273.6619355755
 51
0.0
  0
ARC
  5
36E
330
1F
100
AcDbEntity
  8
PROFILES_OUTSIDE
100
AcDbCircle
 10
1771.7838501713
 20
860.1289838892
 30
0.0
 40
0.9999999999999415
100
AcDbArc
 50
155.1121079736
 51
180.0
  0
ARC
  5
36F
330
1F
100
AcDbEntity
  8
PROFILES_OUTSIDE
100
AcDbCircle
 10
1766.1868397525
 20
862.725592133
 30
0.0
 40
5.170000000000124
100
AcDbArc
 50
335.1121079736
 51
162.3995332141
  0
ARC
  5
370
330
1F
100
AcDbEntity
  8
PROFILES_OUTSIDE
100
AcDbCircle
 10
1760.3056685316
 20
864.5912622726
 30
0.0
 40
0.9999999999999909
100
AcDbArc
 50
270.0
 51
342.3995332141
  0
ARC
  5
371
330
1F
100
AcDbEntity
  8
PROFILES_OUTSIDE
100
AcDbCircle
 10
1770.2818501713
 20
981.5912622726
 30
0.0
 40
12.0
100
AcDbArc
 50
90.0
 51
180.0
  0
ARC
  5
372
330
1F
100
AcDbEntity
  8
PROFILES_OUTSIDE
100
AcDbCircle
 10
1934.8106601375
 20
1005.5912622726
 30
0.0
 40
12.0
100
AcDbArc
 50
270.0
 51
0.0
  0
ARC
  5
373
330
1F
100
AcDbEntity
  8
PROFILES_OUTSIDE
100
AcDbCircle
 10
1934.8106601375
 20
1031.5912622726
 30
0.0
 40
12.00000000000023
100
AcDbArc
 50
0.0
 51
90.0
  0
ARC
  5
374
330
1F
100
AcDbEntity
  8
PROFILES_OUTSIDE
100
AcDbCircle
 10
1770.2818501713
 20
1055.5912622726
 30
0.0
 40
12.0
100
AcDbArc
 50
180.0
 51
270.0
  0
ARC
  5
375
330
1F
100
AcDbEntity
  8
PROFILES_OUTSIDE
100
AcDbCircle
 10
1760.3056685316
 20
1172.5912622726
 30
0.0
 40
1.0
100
AcDbArc
 50
17.6004667859
 51
90.0
  0
ARC
  5
376
330
1F
100
AcDbEntity
  8
PROFILES_OUTSIDE
100
AcDbCircle
 10
1766.1868397525
 20
1174.4569324122
 30
0.0
 40
5.170000000000124
100
AcDbArc
 50
197.6004667859
 51
24.8878920264
  0
ARC
  5
377
330
1F
100
AcDbEntity
  8
PROFILES_OUTSIDE
100
AcDbCircle
 10
1771.7838501713
 20
1177.053540656
 30
0.0
 40
0.9999999999999415
100
AcDbArc
 50
180.0
 51
204.8878920264
  0
ARC
  5
378
330
1F
100
AcDbEntity
  8
PROFILES_OUTSIDE
100
AcDbCircle
 10
1769.7838501713
 20
1190.9932163655
 30
0.0
 40
1.000000000000227
100
AcDbArc
 50
0.0
 51
86.3380644245
  0
ARC
  5
379
330
1F
100
AcDbEntity
  8
PROFILES_OUTSIDE
100
AcDbCircle
 10
1777.2838501713
 20
1192.5912622726
 30
0.0
 40
6.000000000000227
100
AcDbArc
 50
0.0
 51
90.0
  0
ARC
  5
37A
330
1F
100
AcDbEntity
  8
PROFILES_OUTSIDE
100
AcDbCircle
 10
2304.6162800697
 20
839.5912622726
 30
0.0
 40
1.0
100
AcDbArc
 50
270.0
 51
0.0
  0
ARC
  5
37B
330
1F
100
AcDbEntity
  8
PROFILES_OUTSIDE
100
AcDbCircle
 10
1946.8106601375
 20
1043.5912622726
 30
0.0
 40
19.0499999999999
100
AcDbArc
 50
30.0
 51
90.0
  0
ARC
  5
37C
330
1F
100
AcDbEntity
  8
PROFILES_OUTSIDE
100
AcDbCircle
 10
1979.8062280216
 20
1062.6412622726
 30
0.0
 40
19.0499999999999
100
AcDbArc
 50
210.0
 51
270.0
  0
ARC
  5
37D
330
1F
100
AcDbEntity
  8
PROFILES_OUTSIDE
100
AcDbCircle
 10
2090.3439022194
 20
1062.6412622726
 30
0.0
 40
19.05000000000001
100
AcDbArc
 50
270.0
 51
330.0
  0
ARC
  5
37E
330
1F
100
AcDbEntity
  8
PROFILES_OUTSIDE
100
AcDbCircle
 10
2123.3394701036
 20
1043.5912622726
 30
0.0
 40
19.0500000000003
100
AcDbArc
 50
90.0
 51
150.0
  0
ARC
  5
37F
330
1F
100
AcDbEntity
  8
PROFILES_OUTSIDE
100
AcDbCircle
 10
2292.8662800697
 20
1192.5912622726
 30
0.0
 40
6.000000000000455
100
AcDbArc
 50
90.0
 51
180.0
  0
ARC
  5
380
330
1F
100
AcDbEntity
  8
PROFILES_OUTSIDE
100
AcDbCircle
 10
2274.8662800697
 20
962.5412622726
 30
0.0
 40
12.0
100
AcDbArc
 50
0.0
 51
90.0
  0
ARC
  5
381
330
1F
100
AcDbEntity
  8
PROFILES_OUTSIDE
100
AcDbCircle
 10
2300.3662800697
 20
1190.9932163655
 30
0.0
 40
1.000000000000178
100
AcDbArc
 50
93.6619355755
 51
180.0
  0
ARC
  5
382
330
1F
100
AcDbEntity
  8
PROFILES_OUTSIDE
100
AcDbCircle
 10
2298.3662800697
 20
1177.053540656
 30
0.0
 40
0.9999999999995453
100
AcDbArc
 50
335.1121079736
 51
0.0
  0
ARC
  5
383
330
1F
100
AcDbEntity
  8
PROFILES_OUTSIDE
100
AcDbCircle
 10
2303.9632904885
 20
1174.4569324122
 30
0.0
 40
5.170000000000331
100
AcDbArc
 50
155.1121079736
 51
342.3995332141
  0
ARC
  5
384
330
1F
100
AcDbEntity
  8
PROFILES_OUTSIDE
100
AcDbCircle
 10
2309.8444617095
 20
1172.5912622726
 30
0.0
 40
1.0
100
AcDbArc
 50
90.0
 51
162.3995332141
  0
ARC
  5
385
330
1F
100
AcDbEntity
  8
PROFILES_OUTSIDE
100
AcDbCircle
 10
2299.8682800697
 20
1055.5912622726
 30
0.0
 40
12.0
100
AcDbArc
 50
270.0
 51
0.0
  0
ARC
  5
386
330
1F
100
AcDbEntity
  8
PROFILES_OUTSIDE
100
AcDbCircle
 10
2135.3394701036
 20
1031.5912622726
 30
0.0
 40
12.00000000000023
100
AcDbArc
 50
90.0
 51
180.0
  0
ARC
  5
387
330
1F
100
AcDbEntity
  8
PROFILES_OUTSIDE
100
AcDbCircle
 10
2135.3394701036
 20
1005.5912622726
 30
0.0
 40
12.0
100
AcDbArc
 50
180.0
 51
270.0
  0
ARC
  5
388
330
1F
100
AcDbEntity
  8
PROFILES_OUTSIDE
100
AcDbCircle
 10
2299.8682800697
 20
981.5912622726
 30
0.0
 40
12.0
100
AcDbArc
 50
0.0
 51
90.0
  0
ARC
  5
389
330
1F
100
AcDbEntity
  8
PROFILES_OUTSIDE
100
AcDbCircle
 10
2309.8444617095
 20
864.5912622726
 30
0.0
 40
0.9999999999999909
100
AcDbArc
 50
197.6004667859
 51
270.0
  0
ARC
  5
38A
330
1F
100
AcDbEntity
  8
PROFILES_OUTSIDE
100
AcDbCircle
 10
2303.9632904885
 20
862.725592133
 30
0.0
 40
5.170000000000331
100
AcDbArc
 50
17.6004667859
 51
204.8878920264
  0
ARC
  5
38B
330
1F
100
AcDbEntity
  8
PROFILES_OUTSIDE
100
AcDbCircle
 10
2298.3662800697
 20
860.1289838892
 30
0.0
 40
0.9999999999995453
100
AcDbArc
 50
0.0
 51
24.8878920264
  0
ARC
  5
38C
330
1F
100
AcDbEntity
  8
PROFILES_OUTSIDE
100
AcDbCircle
 10
2300.3662800697
 20
846.1893081798
 30
0.0
 40
1.000000000000065
100
AcDbArc
 50
180.0
 51
266.3380644245
  0
ARC
  5
38D
330
1F
100
AcDbEntity
  8
PROFILES_OUTSIDE
100
AcDbCircle
 10
2292.8662800697
 20
844.5912622726
 30
0.0
 40
6.000000000000455
100
AcDbArc
 50
180.0
 51
270.0
  0
ARC
  5
38E
330
1F
100
AcDbEntity
  8
PROFILES_OUTSIDE
100
AcDbCircle
 10
1795.2838501713
 20
962.5412622726
 30
0.0
 40
12.0
100
AcDbArc
 50
90.0
 51
180.0
  0
ARC
  5
38F
330
1F
100
AcDbEntity
  8
PROFILES_OUTSIDE
100
AcDbCircle
 10
2123.3394701036
 20
993.5912622726
 30
0.0
 40
19.05000000000041
100
AcDbArc
 50
210.0
 51
270.0
  0
ARC
  5
390
330
1F
100
AcDbEntity
  8
PROFILES_OUTSIDE
100
AcDbCircle
 10
2090.3439022194
 20
974.5412622726
 30
0.0
 40
19.05000000000007
100
AcDbArc
 50
30.0
 51
90.0
  0
ARC
  5
391
330
1F
100
AcDbEntity
  8
PROFILES_OUTSIDE
100
AcDbCircle
 10
1979.8062280216
 20
974.5412622726
 30
0.0
 40
19.04999999999996
100
AcDbArc
 50
90.0
 51
150.0
  0
ARC
  5
392
330
1F
100
AcDbEntity
  8
PROFILES_OUTSIDE
100
AcDbCircle
 10
1946.8106601375
 20
993.5912622726
 30
0.0
 40
19.05000000000007
100
AcDbArc
 50
270.0
 51
330.0
  0
ARC
  5
393
330
1F
100
AcDbEntity
  8
PROFILES_OUTSIDE
100
AcDbCircle
 10
1777.2838501713
 20
844.5912622726
 30
0.0
 40
6.0
100
AcDbArc
 50
270.0
 51
0.0
  0
ARC
  5
394
330
1F
100
AcDbEntity
  8
PROFILES_OUTSIDE
100
AcDbCircle
 10
1765.5338501713
 20
839.5912622726
 30
0.0
 40
1.000000000000114
100
AcDbArc
 50
180.0
 51
270.0
  0
ENDSEC
  0
SECTION
  2
OBJECTS
  0
DICTIONARY
  5
C
330
0
100
AcDbDictionary
  3
ACAD_GROUP
350
D
  3
ACAD_MLINESTYLE
350
17
  3
ACAD_SCALELIST
350
47
  0
DICTIONARY
  5
D
102
{ACAD_REACTORS
330
C
102
}
330
C
100
AcDbDictionary
  0
DICTIONARY
  5
17
102
{ACAD_REACTORS
330
C
102
}
330
C
100
AcDbDictionary
  3
STANDARD
350
18
  0
DICTIONARY
  5
47
102
{ACAD_REACTORS
330
C
102
}
330
C
100
AcDbDictionary
  0
MLINESTYLE
  5
18
102
{ACAD_REACTORS
330
17
102
}
330
17
100
AcDbMlineStyle
  2
Standard
 70
     0
  3

 62
   256
 51
90.0
 52
90.0
 71
     2
 49
0.5
 62
   256
  6
BYLAYER
 49
-0.5
 62
   256
  6
BYLAYER
  0
ENDSEC
  0
EOF
