  0
SECTION
  2
HEADER
  9
$ACADVER
  1
AC1014
  9
$ACADMAINTVER
 70
     9
  9
$DWGCODEPAGE
  3
ANSI_1252
  9
$INSBASE
 10
0.0
 20
0.0
 30
0.0
  9
$EXTMIN
 10
0.0
 20
0.0
 30
0.0
  9
$EXTMAX
 10
2440.0
 20
1220.0
 30
0.0
  9
$LIMMIN
 10
0.0
 20
0.0
  9
$LIMMAX
 10
2440.0
 20
1220.0
  9
$ORTHOMODE
 70
     0
  9
$REGENMODE
 70
     1
  9
$FILLMODE
 70
     1
  9
$QTEXTMODE
 70
     0
  9
$MIRRTEXT
 70
     1
  9
$DRAGMODE
 70
     2
  9
$LTSCALE
 40
1.0
  9
$OSMODE
 70
    37
  9
$ATTMODE
 70
     1
  9
$TEXTSIZE
 40
3.5
  9
$TRACEWID
 40
1.0
  9
$TEXTSTYLE
  7
STANDARD
  9
$CLAYER
  8
0
  9
$CELTYPE
  6
BYLAYER
  9
$CECOLOR
 62
   256
  9
$CELTSCALE
 40
1.0
  9
$DELOBJ
 70
     1
  9
$DISPSILH
 70
     0
  9
$DIMSCALE
 40
1.0
  9
$DIMASZ
 40
3.302
  9
$DIMEXO
 40
1.0
  9
$DIMDLI
 40
3.75
  9
$DIMRND
 40
0.0
  9
$DIMDLE
 40
0.0
  9
$DIMEXE
 40
1.0
  9
$DIMTP
 40
0.0
  9
$DIMTM
 40
0.0
  9
$DIMTXT
 40
4.5861111111
  9
$DIMCEN
 40
2.5
  9
$DIMTSZ
 40
0.0
  9
$DIMTOL
 70
     0
  9
$DIMLIM
 70
     0
  9
$DIMTIH
 70
     1
  9
$DIMTOH
 70
     1
  9
$DIMSE1
 70
     0
  9
$DIMSE2
 70
     0
  9
$DIMTAD
 70
     1
  9
$DIMZIN
 70
     0
  9
$DIMBLK
  1

  9
$DIMASO
 70
     1
  9
$DIMSHO
 70
     1
  9
$DIMPOST
  1

  9
$DIMAPOST
  1

  9
$DIMALT
 70
     0
  9
$DIMALTD
 70
     3
  9
$DIMALTF
 40
0.0393700787
  9
$DIMLFAC
 40
1.0
  9
$DIMTOFL
 70
     1
  9
$DIMTVP
 40
0.0
  9
$DIMTIX
 70
     0
  9
$DIMSOXD
 70
     0
  9
$DIMSAH
 70
     0
  9
$DIMBLK1
  1

  9
$DIMBLK2
  1

  9
$DIMSTYLE
  2
ISO-25
  9
$DIMCLRD
 70
     0
  9
$DIMCLRE
 70
     0
  9
$DIMCLRT
 70
     0
  9
$DIMTFAC
 40
1.0
  9
$DIMGAP
 40
1.524
  9
$DIMJUST
 70
     0
  9
$DIMSD1
 70
     0
  9
$DIMSD2
 70
     0
  9
$DIMTOLJ
 70
     0
  9
$DIMTZIN
 70
     0
  9
$DIMALTZ
 70
     0
  9
$DIMALTTZ
 70
     0
  9
$DIMFIT
 70
     3
  9
$DIMUPT
 70
     0
  9
$DIMUNIT
 70
     2
  9
$DIMDEC
 70
     2
  9
$DIMTDEC
 70
     2
  9
$DIMALTU
 70
     2
  9
$DIMALTTD
 70
     3
  9
$DIMTXSTY
  7
STANDARD
  9
$DIMAUNIT
 70
     0
  9
$LUNITS
 70
     2
  9
$LUPREC
 70
     2
  9
$SKETCHINC
 40
1.0
  9
$FILLETRAD
 40
10.0
  9
$AUNITS
 70
     0
  9
$AUPREC
 70
     2
  9
$MENU
  1
.
  9
$ELEVATION
 40
0.0
  9
$PELEVATION
 40
0.0
  9
$THICKNESS
 40
0.0
  9
$LIMCHECK
 70
     0
  9
$CHAMFERA
 40
0.0
  9
$CHAMFERB
 40
0.0
  9
$CHAMFERC
 40
0.0
  9
$CHAMFERD
 40
0.0
  9
$SKPOLY
 70
     0
  9
$TDCREATE
 40
2457718.749140278
  9
$TDUPDATE
 40
2457718.749140637
  9
$TDINDWG
 40
0.0000000116
  9
$TDUSRTIMER
 40
0.0000000116
  9
$USRTIMER
 70
     1
  9
$ANGBASE
 50
0.0
  9
$ANGDIR
 70
     0
  9
$PDMODE
 70
     0
  9
$PDSIZE
 40
-1.0
  9
$PLINEWID
 40
0.0
  9
$COORDS
 70
     1
  9
$SPLFRAME
 70
     0
  9
$SPLINETYPE
 70
     6
  9
$SPLINESEGS
 70
     8
  9
$ATTDIA
 70
     0
  9
$ATTREQ
 70
     1
  9
$HANDLING
 70
     1
  9
$HANDSEED
  5
395
  9
$SURFTAB1
 70
     6
  9
$SURFTAB2
 70
     6
  9
$SURFTYPE
 70
     6
  9
$SURFU
 70
     6
  9
$SURFV
 70
     6
  9
$UCSNAME
  2

  9
$UCSORG
 10
0.0
 20
0.0
 30
0.0
  9
$UCSXDIR
 10
1.0
 20
0.0
 30
0.0
  9
$UCSYDIR
 10
0.0
 20
1.0
 30
0.0
  9
$PUCSNAME
  2

  9
$PUCSORG
 10
0.0
 20
0.0
 30
0.0
  9
$PUCSXDIR
 10
1.0
 20
0.0
 30
0.0
  9
$PUCSYDIR
 10
0.0
 20
1.0
 30
0.0
  9
$USERI1
 70
     0
  9
$USERI2
 70
     0
  9
$USERI3
 70
     0
  9
$USERI4
 70
     0
  9
$USERI5
 70
     0
  9
$USERR1
 40
0.0
  9
$USERR2
 40
0.0
  9
$USERR3
 40
0.0
  9
$USERR4
 40
0.0
  9
$USERR5
 40
0.0
  9
$WORLDVIEW
 70
     1
  9
$SHADEDGE
 70
     3
  9
$SHADEDIF
 70
    70
  9
$TILEMODE
 70
     1
  9
$MAXACTVP
 70
    64
  9
$PINSBASE
 10
0.0
 20
0.0
 30
0.0
  9
$PLIMCHECK
 70
     0
  9
$PEXTMIN
 10
1.0000000000E+20
 20
1.0000000000E+20
 30
1.0000000000E+20
  9
$PEXTMAX
 10
-1.0000000000E+20
 20
-1.0000000000E+20
 30
-1.0000000000E+20
  9
$PLIMMIN
 10
0.0
 20
0.0
  9
$PLIMMAX
 10
420.0
 20
297.0
  9
$UNITMODE
 70
     0
  9
$VISRETAIN
 70
     1
  9
$PLINEGEN
 70
     0
  9
$PSLTSCALE
 70
     1
  9
$TREEDEPTH
 70
  3020
  9
$PICKSTYLE
 70
     1
  9
$CMLSTYLE
  2
STANDARD
  9
$CMLJUST
 70
     0
  9
$CMLSCALE
 40
20.0
  9
$PROXYGRAPHICS
 70
     1
  9
$MEASUREMENT
 70
     1
  0
ENDSEC
  0
SECTION
  2
CLASSES
  0
CLASS
  1
ACDBDICTIONARYWDFLT
  2
AcDbDictionaryWithDefault
  3
ObjectDBX Classes
 90
        0
280
     0
281
     0
  0
CLASS
  1
VISUALSTYLE
  2
AcDbVisualStyle
  3
ObjectDBX Classes
 90
     4095
280
     0
281
     0
  0
CLASS
  1
MATERIAL
  2
AcDbMaterial
  3
ObjectDBX Classes
 90
     1153
280
     0
281
     0
  0
CLASS
  1
SCALE
  2
AcDbScale
  3
ObjectDBX Classes
 90
     1153
280
     0
281
     0
  0
CLASS
  1
TABLESTYLE
  2
AcDbTableStyle
  3
ObjectDBX Classes
 90
     4095
280
     0
281
     0
  0
CLASS
  1
MLEADERSTYLE
  2
AcDbMLeaderStyle
  3
ACDB_MLEADERSTYLE_CLASS
 90
     4095
280
     0
281
     0
  0
CLASS
  1
SUN
  2
AcDbSun
  3
SCENEOE
 90
     1153
280
     0
281
     0
  0
CLASS
  1
XRECORD
  2
AcDbXrecord
  3
ObjectDBX Classes
 90
        0
280
     0
281
     0
  0
CLASS
  1
LWPOLYLINE
  2
AcDbPolyline
  3
ObjectDBX Classes
 90
        0
280
     0
281
     1
  0
CLASS
  1
HATCH
  2
AcDbHatch
  3
ObjectDBX Classes
 90
        0
280
     0
281
     1
  0
ENDSEC
  0
SECTION
  2
TABLES
  0
TABLE
  2
VPORT
  5
8
330
0
100
AcDbSymbolTable
 70
     1
  0
VPORT
  5
29
330
8
100
AcDbSymbolTableRecord
100
AcDbViewportTableRecord
  2
*ACTIVE
 70
     0
 10
0.0
 20
0.0
 11
1.0
 21
1.0
 12
1220.0
 22
610.0
 13
0.0
 23
0.0
 14
10.0
 24
10.0
 15
10.0
 25
10.0
 16
0.0
 26
0.0
 36
1.0
 17
0.0
 27
0.0
 37
0.0
 40
1220.0
 41
2.0
 42
50.0
 43
0.0
 44
0.0
 50
0.0
 51
0.0
 71
     0
 72
  2000
 73
     1
 74
     3
 75
     0
 76
     0
 77
     0
 78
     0
  0
ENDTAB
  0
TABLE
  2
LTYPE
  5
5
330
0
100
AcDbSymbolTable
 70
     6
  0
LTYPE
  5
14
330
5
100
AcDbSymbolTableRecord
100
AcDbLinetypeTableRecord
  2
BYBLOCK
 70
     0
  3

 72
    65
 73
     0
 40
0.0
  0
LTYPE
  5
15
330
5
100
AcDbSymbolTableRecord
100
AcDbLinetypeTableRecord
  2
BYLAYER
 70
     0
  3

 72
    65
 73
     0
 40
0.0
  0
LTYPE
  5
16
330
5
100
AcDbSymbolTableRecord
100
AcDbLinetypeTableRecord
  2
CONTINUOUS
 70
     0
  3
Solid line
 72
    65
 73
     0
 40
0.0
  0
LTYPE
  5
6E
330
5
100
AcDbSymbolTableRecord
100
AcDbLinetypeTableRecord
  2
HIDDEN
 70
     0
  3
Hidden __ __ __ __ __ __ __ __ __ __ __ __ __ __
 72
    65
 73
     2
 40
1.905
 49
1.27
 74
     0
 49
-0.635
 74
     0
  0
LTYPE
  5
6F
330
5
100
AcDbSymbolTableRecord
100
AcDbLinetypeTableRecord
  2
PHANTOM
 70
     0
  3
Phantom ______  __  __  ______  __  __  ______
 72
    65
 73
     6
 40
12.7
 49
6.35
 74
     0
 49
-1.27
 74
     0
 49
1.27
 74
     0
 49
-1.27
 74
     0
 49
1.27
 74
     0
 49
-1.27
 74
     0
  0
LTYPE
  5
70
330
5
100
AcDbSymbolTableRecord
100
AcDbLinetypeTableRecord
  2
CENTER
 70
     0
  3
Center ____ _ ____ _ ____ _ ____ _ ____ _ ____
 72
    65
 73
     4
 40
10.16
 49
6.35
 74
     0
 49
-1.27
 74
     0
 49
1.27
 74
     0
 49
-1.27
 74
     0
  0
LTYPE
  5
71
330
5
100
AcDbSymbolTableRecord
100
AcDbLinetypeTableRecord
  2
CENTERX2
 70
     0
  3
Center (2x) ________  __  ________  __  _____
 72
    65
 73
     4
 40
20.32
 49
12.7
 74
     0
 49
-2.54
 74
     0
 49
2.54
 74
     0
 49
-2.54
 74
     0
  0
LTYPE
  5
72
330
5
100
AcDbSymbolTableRecord
100
AcDbLinetypeTableRecord
  2
DOT2
 70
     0
  3
Dot (.5x) ........................................
 72
    65
 73
     2
 40
0.635
 49
0.0
 74
     0
 49
-0.635
 74
     0
  0
ENDTAB
  0
TABLE
  2
LAYER
  5
2
330
0
100
AcDbSymbolTable
 70
     6
  0
LAYER
  5
10
330
2
100
AcDbSymbolTableRecord
100
AcDbLayerTableRecord
  2
0
 70
     0
 62
     7
  6
CONTINUOUS
  0
LAYER
  5
73
330
2
100
AcDbSymbolTableRecord
100
AcDbLayerTableRecord
  2
BOX_STOCK
 70
     0
 62
     1
  6
CONTINUOUS
  0
LAYER
  5
74
330
2
100
AcDbSymbolTableRecord
100
AcDbLayerTableRecord
  2
HOLES
 70
     0
 62
    30
  6
CONTINUOUS
  0
LAYER
  5
75
330
2
100
AcDbSymbolTableRecord
100
AcDbLayerTableRecord
  2
POCKETS
 70
     0
 62
   171
  6
CONTINUOUS
  0
LAYER
  5
76
330
2
100
AcDbSymbolTableRecord
100
AcDbLayerTableRecord
  2
PROFILES_OUTSIDE
 70
     0
 62
     6
  6
CONTINUOUS
  0
LAYER
  5
77
330
2
100
AcDbSymbolTableRecord
100
AcDbLayerTableRecord
  2
PROFILES_INSIDE
 70
     0
 62
     4
  6
CONTINUOUS
  0
ENDTAB
  0
TABLE
  2
STYLE
  5
3
330
0
100
AcDbSymbolTable
 70
     1
  0
STYLE
  5
11
330
3
100
AcDbSymbolTableRecord
100
AcDbTextStyleTableRecord
  2
STANDARD
 70
     0
 40
0.0
 41
1.0
 50
0.0
 71
     0
 42
3.5
  3
txt
  4

  0
ENDTAB
  0
TABLE
  2
VIEW
  5
6
330
0
100
AcDbSymbolTable
 70
     0
  0
ENDTAB
  0
TABLE
  2
UCS
  5
7
330
0
100
AcDbSymbolTable
 70
     0
  0
ENDTAB
  0
TABLE
  2
APPID
  5
9
330
0
100
AcDbSymbolTable
 70
     1
  0
APPID
  5
12
330
9
100
AcDbSymbolTableRecord
100
AcDbRegAppTableRecord
  2
ACAD
 70
     0
  0
ENDTAB
  0
TABLE
  2
DIMSTYLE
  5
A
330
0
100
AcDbSymbolTable
 70
     1
  0
DIMSTYLE
105
27
330
A
100
AcDbSymbolTableRecord
100
AcDbDimStyleTableRecord
  2
ISO-25
 70
     0
  3

  4

  5

  6

  7

 40
1.0
 41
2.5
 42
0.625
 43
3.75
 44
1.25
 45
0.0
 46
0.0
 47
0.0
 48
0.0
140
2.5
141
2.5
142
0.0
143
0.0393700787
144
1.0
145
0.0
146
1.0
147
0.625
 71
     0
 72
     0
 73
     0
 74
     0
 75
     0
 76
     0
 77
     1
 78
     8
170
     0
171
     3
172
     1
173
     0
174
     0
175
     0
176
     0
177
     0
178
     0
270
     2
271
     2
272
     2
273
     2
274
     3
340
11
275
     0
280
     0
281
     0
282
     0
283
     0
284
     8
285
     0
286
     0
287
     3
288
     0
  0
ENDTAB
  0
TABLE
  2
BLOCK_RECORD
  5
1
330
0
100
AcDbSymbolTable
 70
     1
  0
BLOCK_RECORD
  5
1F
330
1
100
AcDbSymbolTableRecord
100
AcDbBlockTableRecord
  2
*MODEL_SPACE
  0
BLOCK_RECORD
  5
1B
330
1
100
AcDbSymbolTableRecord
100
AcDbBlockTableRecord
  2
*PAPER_SPACE
  0
BLOCK_RECORD
  5
23
330
1
100
AcDbSymbolTableRecord
100
AcDbBlockTableRecord
  2
*PAPER_SPACE0
  0
ENDTAB
  0
ENDSEC
  0
SECTION
  2
BLOCKS
  0
BLOCK
  5
20
330
1F
100
AcDbEntity
  8
0
100
AcDbBlockBegin
  2
*MODEL_SPACE
 70
     0
 10
0.0
 20
0.0
 30
0.0
  3
*MODEL_SPACE
  1

  0
ENDBLK
  5
21
330
1F
100
AcDbEntity
  8
0
100
AcDbBlockEnd
  0
BLOCK
  5
1C
330
1B
100
AcDbEntity
 67
     1
  8
0
100
AcDbBlockBegin
  2
*PAPER_SPACE
 70
     0
 10
0.0
 20
0.0
 30
0.0
  3
*PAPER_SPACE
  1

  0
ENDBLK
  5
1D
330
1B
100
AcDbEntity
 67
     1
  8
0
100
AcDbBlockEnd
  0
BLOCK
  5
24
330
23
100
AcDbEntity
  8
0
100
AcDbBlockBegin
  2
*PAPER_SPACE0
 70
     0
 10
0.0
 20
0.0
 30
0.0
  3
*PAPER_SPACE0
  1

  0
ENDBLK
  5
25
330
23
100
AcDbEntity
  8
0
100
AcDbBlockEnd
  0
ENDSEC
  0
SECTION
  2
ENTITIES
  0
ARC
  5
78
330
1F
100
AcDbEntity
  8
0
  6
CONTINUOUS
 62
     7
100
AcDbCircle
 10
31.9482800697
 20
752.0488175426
 30
0.0
 40
6.000000000000007
100
AcDbArc
 50
80.0
 51
180.0
  0
LINE
  5
79
330
1F
100
AcDbEntity
  8
0
  6
CONTINUOUS
 62
     7
100
AcDbLine
 10
32.9901678692
 20
757.9576684654
 30
0.0
 11
602.9901718925
 21
657.4513031662
 31
0.0
  0
ARC
  5
7A
330
1F
100
AcDbEntity
  8
0
  6
CONTINUOUS
 62
     7
100
AcDbCircle
 10
601.9482800697
 20
651.5424385387
 30
0.0
 40
6.0
100
AcDbArc
 50
0.0
 51
80.0
  0
LINE
  5
7B
330
1F
100
AcDbEntity
  8
0
  6
CONTINUOUS
 62
     7
100
AcDbLine
 10
581.3069557975
 20
634.2033459366
 30
0.0
 11
607.9482650589
 21
629.5057846725
 31
0.0
  0
ARC
  5
7C
330
1F
100
AcDbEntity
  8
0
  6
CONTINUOUS
 62
     7
100
AcDbCircle
 10
576.2893264602
 20
635.449250276
 30
0.0
 40
5.170000000000036
100
AcDbArc
 50
346.0551905845
 51
14.8879034673
  0
ARC
  5
7D
330
1F
100
AcDbEntity
  8
0
  6
CONTINUOUS
 62
     7
100
AcDbCircle
 10
582.2522016875
 20
637.0345007371
 30
0.0
 40
1.000000000000105
100
AcDbArc
 50
170.0
 51
194.8879034674
  0
LINE
  5
7E
330
1F
100
AcDbEntity
  8
0
  6
CONTINUOUS
 62
     7
100
AcDbLine
 10
582.207760794
 20
642.5413204849
 30
0.0
 11
581.2673783134
 21
637.208135289
 31
0.0
  0
ARC
  5
7F
330
1F
100
AcDbEntity
  8
0
  6
CONTINUOUS
 62
     7
100
AcDbCircle
 10
583.1926167434
 20
642.3676575023
 30
0.0
 40
1.000035084614259
100
AcDbArc
 50
145.1121913085
 51
170.0
  0
ARC
  5
80
330
1F
100
AcDbEntity
  8
0
  6
CONTINUOUS
 62
     7
100
AcDbCircle
 10
578.131499867
 20
645.8967407981
 30
0.0
 40
5.170000000000043
100
AcDbArc
 50
325.1121913085
 51
152.3995433346
  0
ARC
  5
81
330
1F
100
AcDbEntity
  8
0
  6
CONTINUOUS
 62
     7
100
AcDbCircle
 10
572.6636465667
 20
648.7553209154
 30
0.0
 40
0.9999999999999921
100
AcDbArc
 50
260.0000485891
 51
332.3995433346
  0
LINE
  5
82
330
1F
100
AcDbEntity
  8
0
  6
CONTINUOUS
 62
     7
100
AcDbLine
 10
568.5078120063
 20
648.4726978958
 30
0.0
 11
572.4899983238
 21
647.7704955757
 31
0.0
  0
ARC
  5
83
330
1F
100
AcDbEntity
  8
0
  6
CONTINUOUS
 62
     7
100
AcDbCircle
 10
568.6814411786
 20
649.457487686
 30
0.0
 40
1.000000946566156
100
AcDbArc
 50
187.6004769063
 51
260.0000485891
  0
ARC
  5
84
330
1F
100
AcDbEntity
  8
0
  6
CONTINUOUS
 62
     7
100
AcDbCircle
 10
562.5656480877
 20
648.6414148528
 30
0.0
 40
5.169999053433894
100
AcDbArc
 50
7.6004769063
 51
194.8878382498
  0
ARC
  5
85
330
1F
100
AcDbEntity
  8
0
  6
CONTINUOUS
 62
     7
100
AcDbCircle
 10
556.6027742048
 20
647.0561720161
 30
0.0
 40
0.9999986349375449
100
AcDbArc
 50
350.0
 51
14.8878382498
  0
LINE
  5
86
330
1F
100
AcDbEntity
  8
0
  6
CONTINUOUS
 62
     7
100
AcDbLine
 10
556.6472029518
 20
641.5493203819
 30
0.0
 11
557.5875854324
 21
646.8825055778
 31
0.0
  0
ARC
  5
87
330
1F
100
AcDbEntity
  8
0
  6
CONTINUOUS
 62
     7
100
AcDbCircle
 10
555.6623910117
 20
641.7229939096
 30
0.0
 40
1.00000000000004
100
AcDbArc
 50
325.1121194146
 51
350.0
  0
ARC
  5
88
330
1F
100
AcDbEntity
  8
0
  6
CONTINUOUS
 62
     7
100
AcDbCircle
 10
560.7234746809
 20
638.1939243306
 30
0.0
 40
5.169999999999951
100
AcDbArc
 50
145.1121194146
 51
173.9447482422
  0
LINE
  5
89
330
1F
100
AcDbEntity
  8
0
  6
CONTINUOUS
 62
     7
100
AcDbLine
 10
90.3331851791
 20
720.7752777756
 30
0.0
 11
555.5823063682
 21
638.7393190086
 31
0.0
  0
ARC
  5
8A
330
1F
100
AcDbEntity
  8
0
  6
CONTINUOUS
 62
     7
100
AcDbCircle
 10
85.3155561496
 20
722.0211728019
 30
0.0
 40
5.169999999999952
100
AcDbArc
 50
346.0551905845
 51
14.8879034673
  0
ARC
  5
8B
330
1F
100
AcDbEntity
  8
0
  6
CONTINUOUS
 62
     7
100
AcDbCircle
 10
91.2784313768
 20
723.606423263
 30
0.0
 40
0.9999999999999231
100
AcDbArc
 50
170.0
 51
194.8879034674
  0
LINE
  5
8C
330
1F
100
AcDbEntity
  8
0
  6
CONTINUOUS
 62
     7
100
AcDbLine
 10
91.2340050768
 20
729.1132523239
 30
0.0
 11
90.2936225961
 21
723.780067128
 31
0.0
  0
ARC
  5
8D
330
1F
100
AcDbEntity
  8
0
  6
CONTINUOUS
 62
     7
100
AcDbCircle
 10
92.2188464327
 20
728.9395800282
 30
0.0
 40
1.00003508461434
100
AcDbArc
 50
145.1121913085
 51
170.0
  0
ARC
  5
8E
330
1F
100
AcDbEntity
  8
0
  6
CONTINUOUS
 62
     7
100
AcDbCircle
 10
87.1577295564
 20
732.4686633241
 30
0.0
 40
5.170000000000051
100
AcDbArc
 50
325.1121913085
 51
152.3995433346
  0
ARC
  5
8F
330
1F
100
AcDbEntity
  8
0
  6
CONTINUOUS
 62
     7
100
AcDbCircle
 10
81.6898762561
 20
735.3272434414
 30
0.0
 40
1.000000000000107
100
AcDbArc
 50
260.0000485891
 51
332.3995433346
  0
LINE
  5
90
330
1F
100
AcDbEntity
  8
0
  6
CONTINUOUS
 62
     7
100
AcDbLine
 10
77.5340264867
 20
735.0446297348
 30
0.0
 11
81.5162277054
 21
734.3424274147
 31
0.0
  0
ARC
  5
91
330
1F
100
AcDbEntity
  8
0
  6
CONTINUOUS
 62
     7
100
AcDbCircle
 10
77.707670868
 20
736.0294102119
 30
0.0
 40
1.00000094656624
100
AcDbArc
 50
187.6004769063
 51
260.0000485891
  0
ARC
  5
92
330
1F
100
AcDbEntity
  8
0
  6
CONTINUOUS
 62
     7
100
AcDbCircle
 10
71.591877777
 20
735.2133373787
 30
0.0
 40
5.169999053433824
100
AcDbArc
 50
7.6004769063
 51
194.8878382498
  0
ARC
  5
93
330
1F
100
AcDbEntity
  8
0
  6
CONTINUOUS
 62
     7
100
AcDbCircle
 10
65.6290038942
 20
733.628094542
 30
0.0
 40
0.9999986349375498
100
AcDbArc
 50
350.0
 51
14.8878382498
  0
LINE
  5
94
330
1F
100
AcDbEntity
  8
0
  6
CONTINUOUS
 62
     7
100
AcDbLine
 10
65.6734248828
 20
728.1212522209
 30
0.0
 11
66.6138073634
 21
733.4544374168
 31
0.0
  0
ARC
  5
95
330
1F
100
AcDbEntity
  8
0
  6
CONTINUOUS
 62
     7
100
AcDbCircle
 10
64.6886207011
 20
728.2949164356
 30
0.0
 40
1.0
100
AcDbArc
 50
325.1121194146
 51
350.0
  0
ARC
  5
96
330
1F
100
AcDbEntity
  8
0
  6
CONTINUOUS
 62
     7
100
AcDbCircle
 10
69.7497043703
 20
724.7658468565
 30
0.0
 40
5.170000000000038
100
AcDbArc
 50
145.1121194146
 51
173.9447482422
  0
LINE
  5
97
330
1F
100
AcDbEntity
  8
0
  6
CONTINUOUS
 62
     7
100
AcDbLine
 10
25.9482795577
 20
732.1280552566
 30
0.0
 11
64.6085506509
 21
725.311191243
 31
0.0
  0
LINE
  5
98
330
1F
100
AcDbEntity
  8
0
  6
CONTINUOUS
 62
     7
100
AcDbLine
 10
25.9482795577
 20
732.1280552566
 30
0.0
 11
25.9482795577
 21
752.0488216102
 31
0.0
  0
LINE
  5
99
330
1F
100
AcDbEntity
  8
0
  6
CONTINUOUS
 62
     7
100
AcDbLine
 10
607.9482650589
 20
651.542456311
 30
0.0
 11
607.9482650589
 21
629.5057846725
 31
0.0
  0
ARC
  5
9A
330
1F
100
AcDbEntity
  8
0
  6
CONTINUOUS
 62
     7
100
AcDbCircle
 10
31.9482800697
 20
40.2399853756
 30
0.0
 40
6.000000000000227
100
AcDbArc
 50
180.0
 51
280.0
  0
LINE
  5
9B
330
1F
100
AcDbEntity
  8
0
  6
CONTINUOUS
 62
     7
100
AcDbLine
 10
25.9482795577
 20
40.23998366
 30
0.0
 11
25.9482795577
 21
60.1607388378
 31
0.0
  0
LINE
  5
9C
330
1F
100
AcDbEntity
  8
0
  6
CONTINUOUS
 62
     7
100
AcDbLine
 10
64.6085506509
 20
66.977584225
 30
0.0
 11
25.9482795577
 21
60.1607388378
 31
0.0
  0
ARC
  5
9D
330
1F
100
AcDbEntity
  8
0
  6
CONTINUOUS
 62
     7
100
AcDbCircle
 10
69.7497043053
 20
67.5229504584
 30
0.0
 40
5.169999053433787
100
AcDbArc
 50
186.0551898611
 51
214.8878382498
  0
ARC
  5
9E
330
1F
100
AcDbEntity
  8
0
  6
CONTINUOUS
 62
     7
100
AcDbCircle
 10
64.6886207011
 20
63.9938864826
 30
0.0
 40
0.9999986349375547
100
AcDbArc
 50
10.0
 51
34.8878382498
  0
LINE
  5
9F
330
1F
100
AcDbEntity
  8
0
  6
CONTINUOUS
 62
     7
100
AcDbLine
 10
66.613814814
 20
58.8343566776
 30
0.0
 11
65.6734248828
 21
64.1675344229
 31
0.0
  0
ARC
  5
A0
330
1F
100
AcDbEntity
  8
0
  6
CONTINUOUS
 62
     7
100
AcDbCircle
 10
65.6290038942
 20
58.6607083762
 30
0.0
 40
1.000000000000089
100
AcDbArc
 50
345.1121194146
 51
10.0
  0
ARC
  5
A1
330
1F
100
AcDbEntity
  8
0
  6
CONTINUOUS
 62
     7
100
AcDbCircle
 10
71.5918797545
 20
57.0754602964
 30
0.0
 40
5.169999999999951
100
AcDbArc
 50
165.1121194146
 51
352.3995433346
  0
ARC
  5
A2
330
1F
100
AcDbEntity
  8
0
  6
CONTINUOUS
 62
     7
100
AcDbCircle
 10
77.7076731337
 20
56.2593896237
 30
0.0
 40
1.000000000000167
100
AcDbArc
 50
100.0000485891
 51
172.3995433346
  0
LINE
  5
A3
330
1F
100
AcDbEntity
  8
0
  6
CONTINUOUS
 62
     7
100
AcDbLine
 10
81.5162277054
 20
57.946370405
 30
0.0
 11
77.5340264867
 21
57.2441978872
 31
0.0
  0
ARC
  5
A4
330
1F
100
AcDbEntity
  8
0
  6
CONTINUOUS
 62
     7
100
AcDbCircle
 10
81.689877331
 20
56.9615631484
 30
0.0
 40
1.000000000000039
100
AcDbArc
 50
27.6004769063
 51
100.0000485891
  0
ARC
  5
A5
330
1F
100
AcDbEntity
  8
0
  6
CONTINUOUS
 62
     7
100
AcDbCircle
 10
87.1577296214
 20
59.8201451973
 30
0.0
 40
5.170000000000037
100
AcDbArc
 50
207.6004769063
 51
34.8879034673
  0
ARC
  5
A6
330
1F
100
AcDbEntity
  8
0
  6
CONTINUOUS
 62
     7
100
AcDbCircle
 10
92.2188118811
 20
63.3492167976
 30
0.0
 40
1.000000000000045
100
AcDbArc
 50
190.0
 51
214.8879034674
  0
LINE
  5
A7
330
1F
100
AcDbEntity
  8
0
  6
CONTINUOUS
 62
     7
100
AcDbLine
 10
90.2936225961
 20
68.5087306917
 30
0.0
 11
91.2340050768
 21
63.1755678475
 31
0.0
  0
ARC
  5
A8
330
1F
100
AcDbEntity
  8
0
  6
CONTINUOUS
 62
     7
100
AcDbCircle
 10
91.2784659284
 20
68.6823857476
 30
0.0
 40
1.000035084614282
100
AcDbArc
 50
165.1121913085
 51
190.0
  0
ARC
  5
A9
330
1F
100
AcDbEntity
  8
0
  6
CONTINUOUS
 62
     7
100
AcDbCircle
 10
85.3155541721
 20
70.2676353594
 30
0.0
 40
5.170000000000115
100
AcDbArc
 50
345.1121913085
 51
13.9447482422
  0
LINE
  5
AA
330
1F
100
AcDbEntity
  8
0
  6
CONTINUOUS
 62
     7
100
AcDbLine
 10
555.5823063682
 20
153.5495086134
 30
0.0
 11
90.3331851791
 21
71.5135349453
 31
0.0
  0
ARC
  5
AB
330
1F
100
AcDbEntity
  8
0
  6
CONTINUOUS
 62
     7
100
AcDbCircle
 10
560.7234746159
 20
154.0948729844
 30
0.0
 40
5.169999053433777
100
AcDbArc
 50
186.0551898613
 51
214.8878382498
  0
ARC
  5
AC
330
1F
100
AcDbEntity
  8
0
  6
CONTINUOUS
 62
     7
100
AcDbCircle
 10
555.6623910117
 20
150.5658090086
 30
0.0
 40
0.9999986349375086
100
AcDbArc
 50
10.0
 51
34.8878382498
  0
LINE
  5
AD
330
1F
100
AcDbEntity
  8
0
  6
CONTINUOUS
 62
     7
100
AcDbLine
 10
557.5875854324
 20
145.4062773407
 30
0.0
 11
556.6472029518
 21
150.7394625366
 31
0.0
  0
ARC
  5
AE
330
1F
100
AcDbEntity
  8
0
  6
CONTINUOUS
 62
     7
100
AcDbCircle
 10
556.6027742048
 20
145.2326309021
 30
0.0
 40
1.000000000000105
100
AcDbArc
 50
345.1121194146
 51
10.0
  0
ARC
  5
AF
330
1F
100
AcDbEntity
  8
0
  6
CONTINUOUS
 62
     7
100
AcDbCircle
 10
562.5656500652
 20
143.6473828223
 30
0.0
 40
5.170000000000013
100
AcDbArc
 50
165.1121194146
 51
352.3995433346
  0
ARC
  5
B0
330
1F
100
AcDbEntity
  8
0
  6
CONTINUOUS
 62
     7
100
AcDbCircle
 10
568.6814434444
 20
142.8313121496
 30
0.0
 40
1.000000000000112
100
AcDbArc
 50
100.0000485891
 51
172.3995433346
  0
LINE
  5
B1
330
1F
100
AcDbEntity
  8
0
  6
CONTINUOUS
 62
     7
100
AcDbLine
 10
572.4899983238
 20
144.5182873428
 30
0.0
 11
568.5078120063
 21
143.816114825
 31
0.0
  0
ARC
  5
B2
330
1F
100
AcDbEntity
  8
0
  6
CONTINUOUS
 62
     7
100
AcDbCircle
 10
572.6636476416
 20
143.5334856743
 30
0.0
 40
1.000000000000158
100
AcDbArc
 50
27.6004769063
 51
100.0000485891
  0
ARC
  5
B3
330
1F
100
AcDbEntity
  8
0
  6
CONTINUOUS
 62
     7
100
AcDbCircle
 10
578.131499932
 20
146.3920677233
 30
0.0
 40
5.169999999999964
100
AcDbArc
 50
207.6004769063
 51
34.8879034673
  0
ARC
  5
B4
330
1F
100
AcDbEntity
  8
0
  6
CONTINUOUS
 62
     7
100
AcDbCircle
 10
583.1925821918
 20
149.9211393235
 30
0.0
 40
1.000000000000105
100
AcDbArc
 50
190.0
 51
214.8879034673
  0
LINE
  5
B5
330
1F
100
AcDbEntity
  8
0
  6
CONTINUOUS
 62
     7
100
AcDbLine
 10
581.2673783134
 20
155.0806476295
 30
0.0
 11
582.207760794
 21
149.7474922359
 31
0.0
  0
ARC
  5
B6
330
1F
100
AcDbEntity
  8
0
  6
CONTINUOUS
 62
     7
100
AcDbCircle
 10
582.2522362391
 20
155.2543082735
 30
0.0
 40
1.000035084614279
100
AcDbArc
 50
165.1121913085
 51
190.0
  0
ARC
  5
B7
330
1F
100
AcDbEntity
  8
0
  6
CONTINUOUS
 62
     7
100
AcDbCircle
 10
576.2893244827
 20
156.8395578853
 30
0.0
 40
5.170000000000011
100
AcDbArc
 50
345.1121913085
 51
13.9447482421
  0
LINE
  5
B8
330
1F
100
AcDbEntity
  8
0
  6
CONTINUOUS
 62
     7
100
AcDbLine
 10
602.9901718925
 20
134.8375244558
 30
0.0
 11
32.9901678692
 21
34.3311386675
 31
0.0
  0
LINE
  5
B9
330
1F
100
AcDbEntity
  8
0
  6
CONTINUOUS
 62
     7
100
AcDbLine
 10
607.9482650589
 20
162.7830429495
 30
0.0
 11
607.9482650589
 21
140.746371311
 31
0.0
  0
LINE
  5
BA
330
1F
100
AcDbEntity
  8
0
  6
CONTINUOUS
 62
     7
100
AcDbLine
 10
607.9482650589
 20
162.7830429495
 30
0.0
 11
581.3069557975
 21
158.0854518831
 31
0.0
  0
ARC
  5
BB
330
1F
100
AcDbEntity
  8
0
  6
CONTINUOUS
 62
     7
100
AcDbCircle
 10
601.9482800697
 20
140.7463643795
 30
0.0
 40
6.0
100
AcDbArc
 50
280.0
 51
0.0
  0
ARC
  5
BC
330
1F
100
AcDbEntity
  8
0
  6
CONTINUOUS
 62
     7
100
AcDbCircle
 10
593.9482800697
 20
568.0158989246
 30
0.0
 40
6.0
100
AcDbArc
 50
100.0
 51
180.0
  0
LINE
  5
BD
330
1F
100
AcDbEntity
  8
0
  6
CONTINUOUS
 62
     7
100
AcDbLine
 10
587.9482841324
 20
224.2729081333
 30
0.0
 11
587.9482841324
 21
568.0159045875
 31
0.0
  0
ARC
  5
BE
330
1F
100
AcDbEntity
  8
0
  6
CONTINUOUS
 62
     7
100
AcDbCircle
 10
593.9482800697
 20
224.2729039936
 30
0.0
 40
6.000000000000006
100
AcDbArc
 50
180.0
 51
260.0
  0
LINE
  5
BF
330
1F
100
AcDbEntity
  8
0
  6
CONTINUOUS
 62
     7
100
AcDbLine
 10
567.9483032058
 20
623.683245343
 30
0.0
 11
567.9483032058
 21
168.6055673778
 31
0.0
  0
LINE
  5
C0
330
1F
100
AcDbEntity
  8
0
  6
CONTINUOUS
 62
     7
100
AcDbLine
 10
567.9483032058
 20
168.6055673778
 30
0.0
 11
607.9482650589
 21
175.6586445988
 31
0.0
  0
ARC
  5
C1
330
1F
100
AcDbEntity
  8
0
  6
CONTINUOUS
 62
     7
100
AcDbCircle
 10
601.9482800697
 20
210.6771688053
 30
0.0
 40
6.000000000000034
100
AcDbArc
 50
0.0
 51
80.0
  0
LINE
  5
C2
330
1F
100
AcDbEntity
  8
0
  6
CONTINUOUS
 62
     7
100
AcDbLine
 10
607.9482650589
 20
210.6771631658
 30
0.0
 11
607.9482650589
 21
175.6586445988
 31
0.0
  0
LINE
  5
C3
330
1F
100
AcDbEntity
  8
0
  6
CONTINUOUS
 62
     7
100
AcDbLine
 10
607.9482650589
 20
616.6301681221
 30
0.0
 11
567.9483032058
 21
623.683245343
 31
0.0
  0
LINE
  5
C4
330
1F
100
AcDbEntity
  8
0
  6
CONTINUOUS
 62
     7
100
AcDbLine
 10
607.9482650589
 20
616.6301681221
 30
0.0
 11
607.9482650589
 21
581.6116048515
 31
0.0
  0
ARC
  5
C5
330
1F
100
AcDbEntity
  8
0
  6
CONTINUOUS
 62
     7
100
AcDbCircle
 10
601.9482800697
 20
581.6116341129
 30
0.0
 40
6.00000000000009
100
AcDbArc
 50
280.0
 51
0.0
  0
LINE
  5
C6
330
1F
100
AcDbEntity
  8
0
  6
CONTINUOUS
 62
     7
100
AcDbLine
 10
592.9063772987
 20
573.9247514427
 30
0.0
 11
602.9901718925
 21
575.7027579964
 31
0.0
  0
LINE
  5
C7
330
1F
100
AcDbEntity
  8
0
  6
CONTINUOUS
 62
     7
100
AcDbLine
 10
602.9901718925
 20
216.586010021
 30
0.0
 11
592.9063772987
 21
218.3640612781
 31
0.0
  0
LINE
  5
C8
330
1F
100
AcDbEntity
  8
0
  6
CONTINUOUS
 62
     7
100
AcDbLine
 10
25.9482795577
 20
73.0363442123
 30
0.0
 11
25.9482795577
 21
719.2524387062
 31
0.0
  0
LINE
  5
C9
330
1F
100
AcDbEntity
  8
0
  6
CONTINUOUS
 62
     7
100
AcDbLine
 10
555.6082939933
 20
625.8591129005
 30
0.0
 11
25.9482795577
 21
719.2524387062
 31
0.0
  0
LINE
  5
CA
330
1F
100
AcDbEntity
  8
0
  6
CONTINUOUS
 62
     7
100
AcDbLine
 10
555.6082939933
 20
166.4296998203
 30
0.0
 11
555.6082939933
 21
625.8591129005
 31
0.0
  0
LINE
  5
CB
330
1F
100
AcDbEntity
  8
0
  6
CONTINUOUS
 62
     7
100
AcDbLine
 10
25.9482795577
 20
73.0363442123
 30
0.0
 11
555.6082939933
 21
166.4296998203
 31
0.0
  0
ARC
  5
CC
330
1F
100
AcDbEntity
  8
0
  6
CONTINUOUS
 62
     7
100
AcDbCircle
 10
570.1735311035
 20
157.655628558
 30
0.0
 40
1.000000000000115
100
AcDbArc
 50
280.0000485891
 51
352.3995433346
  0
LINE
  5
CD
330
1F
100
AcDbEntity
  8
0
  6
CONTINUOUS
 62
     7
100
AcDbLine
 10
570.3471517395
 20
156.6708250463
 30
0.0
 11
566.364965422
 21
155.9686525286
 31
0.0
  0
ARC
  5
CE
330
1F
100
AcDbEntity
  8
0
  6
CONTINUOUS
 62
     7
100
AcDbCircle
 10
566.1913269063
 20
156.9534550333
 30
0.0
 40
1.000000000000083
100
AcDbArc
 50
207.6004769063
 51
280.0000485891
  0
ARC
  5
CF
330
1F
100
AcDbEntity
  8
0
  6
CONTINUOUS
 62
     7
100
AcDbCircle
 10
79.1997607929
 20
71.0837060321
 30
0.0
 40
0.999999999999927
100
AcDbArc
 50
280.0000485891
 51
352.3995433346
  0
LINE
  5
D0
330
1F
100
AcDbEntity
  8
0
  6
CONTINUOUS
 62
     7
100
AcDbLine
 10
79.3734109234
 20
70.0989006579
 30
0.0
 11
75.3912022542
 21
69.3967281402
 31
0.0
  0
ARC
  5
D1
330
1F
100
AcDbEntity
  8
0
  6
CONTINUOUS
 62
     7
100
AcDbCircle
 10
75.2175565957
 20
70.3815325074
 30
0.0
 40
0.999999999999927
100
AcDbArc
 50
207.6004769063
 51
280.0000485891
  0
ARC
  5
D2
330
1F
100
AcDbEntity
  8
0
  6
CONTINUOUS
 62
     7
100
AcDbCircle
 10
75.2175576705
 20
721.9072667392
 30
0.0
 40
0.9999999999999689
100
AcDbArc
 50
80.0000485891
 51
152.3995433346
  0
LINE
  5
D3
330
1F
100
AcDbEntity
  8
0
  6
CONTINUOUS
 62
     7
100
AcDbLine
 10
75.3912022542
 20
722.8920771301
 30
0.0
 11
79.3734109234
 21
722.1899344147
 31
0.0
  0
ARC
  5
D4
330
1F
100
AcDbEntity
  8
0
  6
CONTINUOUS
 62
     7
100
AcDbCircle
 10
79.1997630587
 20
721.2050999686
 30
0.0
 40
1.000000000000087
100
AcDbArc
 50
7.6004769063
 51
80.0000485891
  0
ARC
  5
D5
330
1F
100
AcDbEntity
  8
0
  6
CONTINUOUS
 62
     7
100
AcDbCircle
 10
566.1913279811
 20
635.3353442133
 30
0.0
 40
1.000000000000012
100
AcDbArc
 50
80.0000485891
 51
152.3995433346
  0
LINE
  5
D6
330
1F
100
AcDbEntity
  8
0
  6
CONTINUOUS
 62
     7
100
AcDbLine
 10
566.364965422
 20
636.3201452911
 30
0.0
 11
570.3471517395
 21
635.6180025757
 31
0.0
  0
ARC
  5
D7
330
1F
100
AcDbEntity
  8
0
  6
CONTINUOUS
 62
     7
100
AcDbCircle
 10
570.1735333693
 20
634.6331774427
 30
0.0
 40
1.000000000000081
100
AcDbArc
 50
7.6004769063
 51
80.0000485891
  0
LINE
  5
D8
330
1F
100
AcDbEntity
  8
0
  6
CONTINUOUS
 62
     7
100
AcDbLine
 10
25.9482795577
 20
73.0363442123
 30
0.0
 11
25.9482795577
 21
60.1607388378
 31
0.0
  0
LINE
  5
D9
330
1F
100
AcDbEntity
  8
0
  6
CONTINUOUS
 62
     7
100
AcDbLine
 10
25.9482795577
 20
732.1280552566
 30
0.0
 11
25.9482795577
 21
719.2524387062
 31
0.0
  0
ARC
  5
DA
330
1F
100
AcDbEntity
  8
0
  6
CONTINUOUS
 62
     7
100
AcDbCircle
 10
69.7497043053
 20
67.5229504584
 30
0.0
 40
5.169999999999989
100
AcDbArc
 50
27.6004769063
 51
186.0551898611
  0
ARC
  5
DB
330
1F
100
AcDbEntity
  8
0
  6
CONTINUOUS
 62
     7
100
AcDbCircle
 10
69.7497043703
 20
724.7658468565
 30
0.0
 40
5.170000000000099
100
AcDbArc
 50
173.9447482422
 51
332.3995433346
  0
ARC
  5
DC
330
1F
100
AcDbEntity
  8
0
  6
CONTINUOUS
 62
     7
100
AcDbCircle
 10
85.3155541721
 20
70.2676353594
 30
0.0
 40
5.170000000000032
100
AcDbArc
 50
13.9447482422
 51
172.3995433346
  0
ARC
  5
DD
330
1F
100
AcDbEntity
  8
0
  6
CONTINUOUS
 62
     7
100
AcDbCircle
 10
85.3155561496
 20
722.0211728019
 30
0.0
 40
5.170000000000083
100
AcDbArc
 50
187.6004769063
 51
346.0551905845
  0
ARC
  5
DE
330
1F
100
AcDbEntity
  8
0
  6
CONTINUOUS
 62
     7
100
AcDbCircle
 10
560.7234746809
 20
638.1939243306
 30
0.0
 40
5.170000000000063
100
AcDbArc
 50
173.9447482422
 51
332.3995433346
  0
ARC
  5
DF
330
1F
100
AcDbEntity
  8
0
  6
CONTINUOUS
 62
     7
100
AcDbCircle
 10
560.7234746159
 20
154.0948729844
 30
0.0
 40
5.169999999999987
100
AcDbArc
 50
27.6004769063
 51
186.0551898611
  0
ARC
  5
E0
330
1F
100
AcDbEntity
  8
0
  6
CONTINUOUS
 62
     7
100
AcDbCircle
 10
576.2893264602
 20
635.449250276
 30
0.0
 40
5.170000000000005
100
AcDbArc
 50
187.6004769063
 51
346.0551905845
  0
ARC
  5
E1
330
1F
100
AcDbEntity
  8
0
  6
CONTINUOUS
 62
     7
100
AcDbCircle
 10
576.2893244827
 20
156.8395578853
 30
0.0
 40
5.169999999999931
100
AcDbArc
 50
13.9447482422
 51
172.3995433346
  0
LINE
  5
E2
330
1F
100
AcDbEntity
  8
0
  6
CONTINUOUS
 62
     7
100
AcDbLine
 10
607.9482650589
 20
162.7830429495
 30
0.0
 11
607.9482650589
 21
175.6586445988
 31
0.0
  0
LINE
  5
E3
330
1F
100
AcDbEntity
  8
0
  6
CONTINUOUS
 62
     7
100
AcDbLine
 10
607.9482650589
 20
616.6301681221
 30
0.0
 11
607.9482650589
 21
629.5057846725
 31
0.0
  0
ARC
  5
E4
330
1F
100
AcDbEntity
  8
0
  6
CONTINUOUS
 62
     7
100
AcDbCircle
 10
2262.8662800697
 20
844.5912622726
 30
0.0
 40
6.0
100
AcDbArc
 50
180.0
 51
270.0
  0
LINE
  5
E5
330
1F
100
AcDbEntity
  8
0
  6
CONTINUOUS
 62
     7
100
AcDbLine
 10
2256.8663573097
 20
962.5412537277
 30
0.0
 11
2256.8663573097
 21
844.5912911117
 31
0.0
  0
ARC
  5
E6
330
1F
100
AcDbEntity
  8
0
  6
CONTINUOUS
 62
     7
100
AcDbCircle
 10
2244.8662800697
 20
962.5412622726
 30
0.0
 40
12.0
100
AcDbArc
 50
0.0
 51
90.0
  0
LINE
  5
E7
330
1F
100
AcDbEntity
  8
0
  6
CONTINUOUS
 62
     7
100
AcDbLine
 10
2095.0175738167
 20
974.5412780464
 30
0.0
 11
2244.8662733864
 21
974.5412780464
 31
0.0
  0
ARC
  5
E8
330
1F
100
AcDbEntity
  8
0
  6
CONTINUOUS
 62
     7
100
AcDbCircle
 10
2095.0176693659
 20
993.5912622726
 30
0.0
 40
19.05000000000007
100
AcDbArc
 50
210.0
 51
270.0
  0
ARC
  5
E9
330
1F
100
AcDbEntity
  8
0
  6
CONTINUOUS
 62
     7
100
AcDbCircle
 10
2062.0221014817
 20
974.5412622726
 30
0.0
 40
19.05000000000035
100
AcDbArc
 50
30.0
 51
90.0
  0
LINE
  5
EA
330
1F
100
AcDbEntity
  8
0
  6
CONTINUOUS
 62
     7
100
AcDbLine
 10
1953.1625723671
 20
993.5912801445
 30
0.0
 11
2062.022111399
 21
993.5912801445
 31
0.0
  0
ARC
  5
EB
330
1F
100
AcDbEntity
  8
0
  6
CONTINUOUS
 62
     7
100
AcDbCircle
 10
1953.1626265464
 20
974.5412622726
 30
0.0
 40
19.05000000000007
100
AcDbArc
 50
90.0
 51
150.0
  0
ARC
  5
EC
330
1F
100
AcDbEntity
  8
0
  6
CONTINUOUS
 62
     7
100
AcDbCircle
 10
1920.1670586622
 20
993.5912622726
 30
0.0
 40
19.05000000000021
100
AcDbArc
 50
270.0
 51
330.0
  0
LINE
  5
ED
330
1F
100
AcDbEntity
  8
0
  6
CONTINUOUS
 62
     7
100
AcDbLine
 10
1770.3184103798
 20
974.5412780464
 30
0.0
 11
1920.1671099495
 21
974.5412780464
 31
0.0
  0
ARC
  5
EE
330
1F
100
AcDbEntity
  8
0
  6
CONTINUOUS
 62
     7
100
AcDbCircle
 10
1770.3184479584
 20
962.5412622726
 30
0.0
 40
12.0
100
AcDbArc
 50
90.0
 51
180.0
  0
LINE
  5
EF
330
1F
100
AcDbEntity
  8
0
  6
CONTINUOUS
 62
     7
100
AcDbLine
 10
1758.3184456657
 20
844.5912911117
 30
0.0
 11
1758.3184456657
 21
962.5412537277
 31
0.0
  0
LINE
  5
F0
330
1F
100
AcDbEntity
  8
0
  6
CONTINUOUS
 62
     7
100
AcDbLine
 10
1740.5684208702
 20
838.5912491501
 30
0.0
 11
1752.318403704
 21
838.5912491501
 31
0.0
  0
ARC
  5
F1
330
1F
100
AcDbEntity
  8
0
  6
CONTINUOUS
 62
     7
100
AcDbCircle
 10
1740.5684479584
 20
839.5912622726
 30
0.0
 40
1.000000000000227
100
AcDbArc
 50
180.0
 51
270.0
  0
LINE
  5
F2
330
1F
100
AcDbEntity
  8
0
  6
CONTINUOUS
 62
     7
100
AcDbLine
 10
1739.5684933494
 20
839.5912362755
 30
0.0
 11
1739.5684933494
 21
850.8512689293
 31
0.0
  0
LINE
  5
F3
330
1F
100
AcDbEntity
  8
0
  6
CONTINUOUS
 62
     7
100
AcDbLine
 10
1739.5684933494
 20
850.8512689293
 30
0.0
 11
1744.8823666404
 21
851.1913730324
 31
0.0
  0
ARC
  5
F4
330
1F
100
AcDbEntity
  8
0
  6
CONTINUOUS
 62
     7
100
AcDbCircle
 10
1744.8184479584
 20
852.1893081798
 30
0.0
 40
1.0
100
AcDbArc
 50
273.6619355755
 51
0.0
  0
LINE
  5
F5
330
1F
100
AcDbEntity
  8
0
  6
CONTINUOUS
 62
     7
100
AcDbLine
 10
1745.818397982
 20
852.1893335998
 30
0.0
 11
1745.818397982
 21
860.1289703071
 31
0.0
  0
ARC
  5
F6
330
1F
100
AcDbEntity
  8
0
  6
CONTINUOUS
 62
     7
100
AcDbCircle
 10
1746.8184479584
 20
860.1289838892
 30
0.0
 40
1.000000000000227
100
AcDbArc
 50
155.1121079736
 51
180.0
  0
ARC
  5
F7
330
1F
100
AcDbEntity
  8
0
  6
CONTINUOUS
 62
     7
100
AcDbCircle
 10
1741.2214375396
 20
862.725592133
 30
0.0
 40
5.17000000000003
100
AcDbArc
 50
335.1121079736
 51
162.3995332141
  0
ARC
  5
F8
330
1F
100
AcDbEntity
  8
0
  6
CONTINUOUS
 62
     7
100
AcDbCircle
 10
1735.3402663186
 20
864.5912622726
 30
0.0
 40
1.0
100
AcDbArc
 50
270.0
 51
342.3995332141
  0
LINE
  5
F9
330
1F
100
AcDbEntity
  8
0
  6
CONTINUOUS
 62
     7
100
AcDbLine
 10
1733.3164429496
 20
863.5912849129
 30
0.0
 11
1735.3402590584
 21
863.5912849129
 31
0.0
  0
LINE
  5
FA
330
1F
100
AcDbEntity
  8
0
  6
CONTINUOUS
 62
     7
100
AcDbLine
 10
1733.3164429496
 20
981.5912558258
 30
0.0
 11
1733.3164429496
 21
863.5912849129
 31
0.0
  0
ARC
  5
FB
330
1F
100
AcDbEntity
  8
0
  6
CONTINUOUS
 62
     7
100
AcDbCircle
 10
1745.3164479584
 20
981.5912622726
 30
0.0
 40
12.0
100
AcDbArc
 50
90.0
 51
180.0
  0
LINE
  5
FC
330
1F
100
AcDbEntity
  8
0
  6
CONTINUOUS
 62
     7
100
AcDbLine
 10
1908.1670260261
 20
993.5912801445
 30
0.0
 11
1745.3164076637
 21
993.5912801445
 31
0.0
  0
ARC
  5
FD
330
1F
100
AcDbEntity
  8
0
  6
CONTINUOUS
 62
     7
100
AcDbCircle
 10
1908.1670586622
 20
1005.5912622726
 30
0.0
 40
12.0
100
AcDbArc
 50
270.0
 51
0.0
  0
LINE
  5
FE
330
1F
100
AcDbEntity
  8
0
  6
CONTINUOUS
 62
     7
100
AcDbLine
 10
1920.1671099495
 20
1031.5912081421
 30
0.0
 11
1920.1671099495
 21
1005.5913044632
 31
0.0
  0
ARC
  5
FF
330
1F
100
AcDbEntity
  8
0
  6
CONTINUOUS
 62
     7
100
AcDbCircle
 10
1908.1670586622
 20
1031.5912622726
 30
0.0
 40
12.00000000000023
100
AcDbArc
 50
0.0
 51
90.0
  0
LINE
  5
100
330
1F
100
AcDbEntity
  8
0
  6
CONTINUOUS
 62
     7
100
AcDbLine
 10
1745.3164076637
 20
1043.5912920654
 30
0.0
 11
1908.1670260261
 21
1043.5912920654
 31
0.0
  0
ARC
  5
101
330
1F
100
AcDbEntity
  8
0
  6
CONTINUOUS
 62
     7
100
AcDbCircle
 10
1745.3164479584
 20
1055.5912622726
 30
0.0
 40
12.0
100
AcDbArc
 50
180.0
 51
270.0
  0
LINE
  5
102
330
1F
100
AcDbEntity
  8
0
  6
CONTINUOUS
 62
     7
100
AcDbLine
 10
1733.3164429496
 20
1173.591287297
 30
0.0
 11
1733.3164429496
 21
1055.5912567795
 31
0.0
  0
LINE
  5
103
330
1F
100
AcDbEntity
  8
0
  6
CONTINUOUS
 62
     7
100
AcDbLine
 10
1735.3402590584
 20
1173.591287297
 30
0.0
 11
1733.3164429496
 21
1173.591287297
 31
0.0
  0
ARC
  5
104
330
1F
100
AcDbEntity
  8
0
  6
CONTINUOUS
 62
     7
100
AcDbCircle
 10
1735.3402663186
 20
1172.5912622726
 30
0.0
 40
1.00000000000006
100
AcDbArc
 50
17.6004667859
 51
90.0
  0
ARC
  5
105
330
1F
100
AcDbEntity
  8
0
  6
CONTINUOUS
 62
     7
100
AcDbCircle
 10
1741.2214375396
 20
1174.4569324122
 30
0.0
 40
5.17000000000011
100
AcDbArc
 50
197.6004667859
 51
24.8878920264
  0
ARC
  5
106
330
1F
100
AcDbEntity
  8
0
  6
CONTINUOUS
 62
     7
100
AcDbCircle
 10
1746.8184479584
 20
1177.053540656
 30
0.0
 40
1.000000000000133
100
AcDbArc
 50
180.0
 51
204.8878920264
  0
LINE
  5
107
330
1F
100
AcDbEntity
  8
0
  6
CONTINUOUS
 62
     7
100
AcDbLine
 10
1745.818397982
 20
1177.0534826935
 30
0.0
 11
1745.818397982
 21
1184.9931790054
 31
0.0
  0
ARC
  5
108
330
1F
100
AcDbEntity
  8
0
  6
CONTINUOUS
 62
     7
100
AcDbCircle
 10
1744.8184479584
 20
1184.9932163655
 30
0.0
 40
1.000000000000163
100
AcDbArc
 50
0.0
 51
86.3380644245
  0
LINE
  5
109
330
1F
100
AcDbEntity
  8
0
  6
CONTINUOUS
 62
     7
100
AcDbLine
 10
1744.8823666404
 20
1185.9911991775
 30
0.0
 11
1739.5684933494
 21
1186.3313032806
 31
0.0
  0
LINE
  5
10A
330
1F
100
AcDbEntity
  8
0
  6
CONTINUOUS
 62
     7
100
AcDbLine
 10
1739.5684933494
 20
1186.3313032806
 30
0.0
 11
1739.5684933494
 21
1197.5912167251
 31
0.0
  0
ARC
  5
10B
330
1F
100
AcDbEntity
  8
0
  6
CONTINUOUS
 62
     7
100
AcDbCircle
 10
1740.5684479584
 20
1197.5912622726
 30
0.0
 40
1.000000000000227
100
AcDbArc
 50
90.0
 51
180.0
  0
LINE
  5
10C
330
1F
100
AcDbEntity
  8
0
  6
CONTINUOUS
 62
     7
100
AcDbLine
 10
1752.318403704
 20
1198.5912634552
 30
0.0
 11
1740.5684208702
 21
1198.5912634552
 31
0.0
  0
ARC
  5
10D
330
1F
100
AcDbEntity
  8
0
  6
CONTINUOUS
 62
     7
100
AcDbCircle
 10
1752.3184479584
 20
1192.5912622726
 30
0.0
 40
6.000000000000227
100
AcDbArc
 50
0.0
 51
90.0
  0
LINE
  5
10E
330
1F
100
AcDbEntity
  8
0
  6
CONTINUOUS
 62
     7
100
AcDbLine
 10
1758.3184456657
 20
1074.6412588776
 30
0.0
 11
1758.3184456657
 21
1192.5912214935
 31
0.0
  0
ARC
  5
10F
330
1F
100
AcDbEntity
  8
0
  6
CONTINUOUS
 62
     7
100
AcDbCircle
 10
1770.3184479584
 20
1074.6412622726
 30
0.0
 40
12.00000000000023
100
AcDbArc
 50
180.0
 51
270.0
  0
LINE
  5
110
330
1F
100
AcDbEntity
  8
0
  6
CONTINUOUS
 62
     7
100
AcDbLine
 10
1920.1671099495
 20
1062.6412941635
 30
0.0
 11
1770.3184103798
 21
1062.6412941635
 31
0.0
  0
ARC
  5
111
330
1F
100
AcDbEntity
  8
0
  6
CONTINUOUS
 62
     7
100
AcDbCircle
 10
1920.1670586622
 20
1043.5912622726
 30
0.0
 40
19.0500000000001
100
AcDbArc
 50
30.0
 51
90.0
  0
ARC
  5
112
330
1F
100
AcDbEntity
  8
0
  6
CONTINUOUS
 62
     7
100
AcDbCircle
 10
1953.1626265464
 20
1062.6412622726
 30
0.0
 40
19.05000000000001
100
AcDbArc
 50
210.0
 51
270.0
  0
LINE
  5
113
330
1F
100
AcDbEntity
  8
0
  6
CONTINUOUS
 62
     7
100
AcDbLine
 10
2062.022111399
 20
1043.5912920654
 30
0.0
 11
1953.1625723671
 21
1043.5912920654
 31
0.0
  0
ARC
  5
114
330
1F
100
AcDbEntity
  8
0
  6
CONTINUOUS
 62
     7
100
AcDbCircle
 10
2062.0221014817
 20
1062.6412622726
 30
0.0
 40
19.05000000000041
100
AcDbArc
 50
270.0
 51
330.0
  0
ARC
  5
115
330
1F
100
AcDbEntity
  8
0
  6
CONTINUOUS
 62
     7
100
AcDbCircle
 10
2095.0176693659
 20
1043.5912622726
 30
0.0
 40
19.04999999999995
100
AcDbArc
 50
90.0
 51
150.0
  0
LINE
  5
116
330
1F
100
AcDbEntity
  8
0
  6
CONTINUOUS
 62
     7
100
AcDbLine
 10
2244.8662733864
 20
1062.6412941635
 30
0.0
 11
2095.0175738167
 21
1062.6412941635
 31
0.0
  0
ARC
  5
117
330
1F
100
AcDbEntity
  8
0
  6
CONTINUOUS
 62
     7
100
AcDbCircle
 10
2244.8662800697
 20
1074.6412622726
 30
0.0
 40
12.0
100
AcDbArc
 50
270.0
 51
0.0
  0
LINE
  5
118
330
1F
100
AcDbEntity
  8
0
  6
CONTINUOUS
 62
     7
100
AcDbLine
 10
2256.8663573097
 20
1192.5912214935
 30
0.0
 11
2256.8663573097
 21
1074.6412588776
 31
0.0
  0
ARC
  5
119
330
1F
100
AcDbEntity
  8
0
  6
CONTINUOUS
 62
     7
100
AcDbCircle
 10
2262.8662800697
 20
1192.5912622726
 30
0.0
 40
6.0
100
AcDbArc
 50
90.0
 51
180.0
  0
LINE
  5
11A
330
1F
100
AcDbEntity
  8
0
  6
CONTINUOUS
 62
     7
100
AcDbLine
 10
2274.6163821052
 20
1198.5912634552
 30
0.0
 11
2262.8663992714
 21
1198.5912634552
 31
0.0
  0
ARC
  5
11B
330
1F
100
AcDbEntity
  8
0
  6
CONTINUOUS
 62
     7
100
AcDbCircle
 10
2274.6162800697
 20
1197.5912622726
 30
0.0
 40
1.0
100
AcDbArc
 50
0.0
 51
90.0
  0
LINE
  5
11C
330
1F
100
AcDbEntity
  8
0
  6
CONTINUOUS
 62
     7
100
AcDbLine
 10
2275.616309626
 20
1197.5912167251
 30
0.0
 11
2275.616309626
 21
1186.3313032806
 31
0.0
  0
LINE
  5
11D
330
1F
100
AcDbEntity
  8
0
  6
CONTINUOUS
 62
     7
100
AcDbLine
 10
2275.616309626
 20
1186.3313032806
 30
0.0
 11
2270.302436335
 21
1185.9911991775
 31
0.0
  0
ARC
  5
11E
330
1F
100
AcDbEntity
  8
0
  6
CONTINUOUS
 62
     7
100
AcDbCircle
 10
2270.3662800697
 20
1184.9932163655
 30
0.0
 40
1.000000000000455
100
AcDbArc
 50
93.6619355755
 51
180.0
  0
LINE
  5
11F
330
1F
100
AcDbEntity
  8
0
  6
CONTINUOUS
 62
     7
100
AcDbLine
 10
2269.3661665748
 20
1184.9931790054
 30
0.0
 11
2269.3661665748
 21
1177.0534826935
 31
0.0
  0
ARC
  5
120
330
1F
100
AcDbEntity
  8
0
  6
CONTINUOUS
 62
     7
100
AcDbCircle
 10
2268.3662800697
 20
1177.053540656
 30
0.0
 40
1.000000000000656
100
AcDbArc
 50
335.1121079736
 51
0.0
  0
ARC
  5
121
330
1F
100
AcDbEntity
  8
0
  6
CONTINUOUS
 62
     7
100
AcDbCircle
 10
2273.9632904885
 20
1174.4569324122
 30
0.0
 40
5.170000000000235
100
AcDbArc
 50
155.1121079736
 51
342.3995332141
  0
ARC
  5
122
330
1F
100
AcDbEntity
  8
0
  6
CONTINUOUS
 62
     7
100
AcDbCircle
 10
2279.8444617095
 20
1172.5912622726
 30
0.0
 40
0.9999999999997726
100
AcDbArc
 50
90.0
 51
162.3995332141
  0
LINE
  5
123
330
1F
100
AcDbEntity
  8
0
  6
CONTINUOUS
 62
     7
100
AcDbLine
 10
2281.8683600258
 20
1173.591287297
 30
0.0
 11
2279.8444247078
 21
1173.591287297
 31
0.0
  0
LINE
  5
124
330
1F
100
AcDbEntity
  8
0
  6
CONTINUOUS
 62
     7
100
AcDbLine
 10
2281.8683600258
 20
1055.5912567795
 30
0.0
 11
2281.8683600258
 21
1173.591287297
 31
0.0
  0
ARC
  5
125
330
1F
100
AcDbEntity
  8
0
  6
CONTINUOUS
 62
     7
100
AcDbCircle
 10
2269.8682800697
 20
1055.5912622726
 30
0.0
 40
11.99999999999977
100
AcDbArc
 50
270.0
 51
0.0
  0
LINE
  5
126
330
1F
100
AcDbEntity
  8
0
  6
CONTINUOUS
 62
     7
100
AcDbLine
 10
2107.01765774
 20
1043.5912920654
 30
0.0
 11
2269.8682761024
 21
1043.5912920654
 31
0.0
  0
ARC
  5
127
330
1F
100
AcDbEntity
  8
0
  6
CONTINUOUS
 62
     7
100
AcDbCircle
 10
2107.0176693659
 20
1031.5912622726
 30
0.0
 40
12.00000000000045
100
AcDbArc
 50
90.0
 51
180.0
  0
LINE
  5
128
330
1F
100
AcDbEntity
  8
0
  6
CONTINUOUS
 62
     7
100
AcDbLine
 10
2095.0175738167
 20
1005.5913044632
 30
0.0
 11
2095.0175738167
 21
1031.5912081421
 31
0.0
  0
ARC
  5
129
330
1F
100
AcDbEntity
  8
0
  6
CONTINUOUS
 62
     7
100
AcDbCircle
 10
2107.0176693659
 20
1005.5912622726
 30
0.0
 40
12.00000000000045
100
AcDbArc
 50
180.0
 51
270.0
  0
LINE
  5
12A
330
1F
100
AcDbEntity
  8
0
  6
CONTINUOUS
 62
     7
100
AcDbLine
 10
2269.8682761024
 20
993.5912801445
 30
0.0
 11
2107.01765774
 21
993.5912801445
 31
0.0
  0
ARC
  5
12B
330
1F
100
AcDbEntity
  8
0
  6
CONTINUOUS
 62
     7
100
AcDbCircle
 10
2269.8682800697
 20
981.5912622726
 30
0.0
 40
12.0
100
AcDbArc
 50
0.0
 51
90.0
  0
LINE
  5
12C
330
1F
100
AcDbEntity
  8
0
  6
CONTINUOUS
 62
     7
100
AcDbLine
 10
2281.8683600258
 20
863.5912849129
 30
0.0
 11
2281.8683600258
 21
981.5912558258
 31
0.0
  0
LINE
  5
12D
330
1F
100
AcDbEntity
  8
0
  6
CONTINUOUS
 62
     7
100
AcDbLine
 10
2279.8444247078
 20
863.5912849129
 30
0.0
 11
2281.8683600258
 21
863.5912849129
 31
0.0
  0
ARC
  5
12E
330
1F
100
AcDbEntity
  8
0
  6
CONTINUOUS
 62
     7
100
AcDbCircle
 10
2279.8444617095
 20
864.5912622726
 30
0.0
 40
1.0
100
AcDbArc
 50
197.6004667859
 51
270.0
  0
ARC
  5
12F
330
1F
100
AcDbEntity
  8
0
  6
CONTINUOUS
 62
     7
100
AcDbCircle
 10
2273.9632904885
 20
862.725592133
 30
0.0
 40
5.170000000000235
100
AcDbArc
 50
17.6004667859
 51
204.8878920264
  0
ARC
  5
130
330
1F
100
AcDbEntity
  8
0
  6
CONTINUOUS
 62
     7
100
AcDbCircle
 10
2268.3662800697
 20
860.1289838892
 30
0.0
 40
1.000000000000608
100
AcDbArc
 50
0.0
 51
24.8878920264
  0
LINE
  5
131
330
1F
100
AcDbEntity
  8
0
  6
CONTINUOUS
 62
     7
100
AcDbLine
 10
2269.3661665748
 20
860.1289703071
 30
0.0
 11
2269.3661665748
 21
852.1893335998
 31
0.0
  0
ARC
  5
132
330
1F
100
AcDbEntity
  8
0
  6
CONTINUOUS
 62
     7
100
AcDbCircle
 10
2270.3662800697
 20
852.1893081798
 30
0.0
 40
1.000000000000455
100
AcDbArc
 50
180.0
 51
266.3380644245
  0
LINE
  5
133
330
1F
100
AcDbEntity
  8
0
  6
CONTINUOUS
 62
     7
100
AcDbLine
 10
2270.302436335
 20
851.1913730324
 30
0.0
 11
2275.616309626
 21
850.8512689293
 31
0.0
  0
LINE
  5
134
330
1F
100
AcDbEntity
  8
0
  6
CONTINUOUS
 62
     7
100
AcDbLine
 10
2275.616309626
 20
850.8512689293
 30
0.0
 11
2275.616309626
 21
839.5912362755
 31
0.0
  0
ARC
  5
135
330
1F
100
AcDbEntity
  8
0
  6
CONTINUOUS
 62
     7
100
AcDbCircle
 10
2274.6162800697
 20
839.5912622726
 30
0.0
 40
0.9999999999998863
100
AcDbArc
 50
270.0
 51
0.0
  0
LINE
  5
136
330
1F
100
AcDbEntity
  8
0
  6
CONTINUOUS
 62
     7
100
AcDbLine
 10
2262.8663992714
 20
838.5912491501
 30
0.0
 11
2274.6163821052
 21
838.5912491501
 31
0.0
  0
ARC
  5
137
330
1F
100
AcDbEntity
  8
0
  6
CONTINUOUS
 62
     7
100
AcDbCircle
 10
1752.3184479584
 20
844.5912622726
 30
0.0
 40
6.0
100
AcDbArc
 50
270.0
 51
0.0
  0
ARC
  5
138
330
1F
100
AcDbEntity
  8
0
  6
CONTINUOUS
 62
     7
100
AcDbCircle
 10
1172.2906158471
 20
1192.5912622726
 30
0.0
 40
6.0
100
AcDbArc
 50
0.0
 51
90.0
  0
LINE
  5
139
330
1F
100
AcDbEntity
  8
0
  6
CONTINUOUS
 62
     7
100
AcDbLine
 10
1178.2906269859
 20
1074.6412588776
 30
0.0
 11
1178.2906269859
 21
1192.5912214935
 31
0.0
  0
ARC
  5
13A
330
1F
100
AcDbEntity
  8
0
  6
CONTINUOUS
 62
     7
100
AcDbCircle
 10
1190.2906158471
 20
1074.6412622726
 30
0.0
 40
12.0
100
AcDbArc
 50
180.0
 51
270.0
  0
LINE
  5
13B
330
1F
100
AcDbEntity
  8
0
  6
CONTINUOUS
 62
     7
100
AcDbLine
 10
1340.1391720604
 20
1062.6412941635
 30
0.0
 11
1190.2905917
 21
1062.6412941635
 31
0.0
  0
ARC
  5
13C
330
1F
100
AcDbEntity
  8
0
  6
CONTINUOUS
 62
     7
100
AcDbCircle
 10
1340.1392265509
 20
1043.5912622726
 30
0.0
 40
19.04999999999995
100
AcDbArc
 50
30.0
 51
90.0
  0
ARC
  5
13D
330
1F
100
AcDbEntity
  8
0
  6
CONTINUOUS
 62
     7
100
AcDbCircle
 10
1373.1347944351
 20
1062.6412622726
 30
0.0
 40
19.05000000000001
100
AcDbArc
 50
210.0
 51
270.0
  0
LINE
  5
13E
330
1F
100
AcDbEntity
  8
0
  6
CONTINUOUS
 62
     7
100
AcDbLine
 10
1481.9942927192
 20
1043.5912920654
 30
0.0
 11
1373.1347536873
 21
1043.5912920654
 31
0.0
  0
ARC
  5
13F
330
1F
100
AcDbEntity
  8
0
  6
CONTINUOUS
 62
     7
100
AcDbCircle
 10
1481.9942693705
 20
1062.6412622726
 30
0.0
 40
19.05000000000001
100
AcDbArc
 50
270.0
 51
330.0
  0
ARC
  5
140
330
1F
100
AcDbEntity
  8
0
  6
CONTINUOUS
 62
     7
100
AcDbCircle
 10
1514.9898372546
 20
1043.5912622726
 30
0.0
 40
19.04999999999995
100
AcDbArc
 50
90.0
 51
150.0
  0
LINE
  5
141
330
1F
100
AcDbEntity
  8
0
  6
CONTINUOUS
 62
     7
100
AcDbLine
 10
1664.8384547065
 20
1062.6412941635
 30
0.0
 11
1514.9898743461
 21
1062.6412941635
 31
0.0
  0
ARC
  5
142
330
1F
100
AcDbEntity
  8
0
  6
CONTINUOUS
 62
     7
100
AcDbCircle
 10
1664.8384479584
 20
1074.6412622726
 30
0.0
 40
12.0
100
AcDbArc
 50
270.0
 51
0.0
  0
LINE
  5
143
330
1F
100
AcDbEntity
  8
0
  6
CONTINUOUS
 62
     7
100
AcDbLine
 10
1676.8384194206
 20
1192.5912214935
 30
0.0
 11
1676.8384194206
 21
1074.6412588776
 31
0.0
  0
ARC
  5
144
330
1F
100
AcDbEntity
  8
0
  6
CONTINUOUS
 62
     7
100
AcDbCircle
 10
1682.8384479584
 20
1192.5912622726
 30
0.0
 40
5.999999999999773
100
AcDbArc
 50
90.0
 51
180.0
  0
LINE
  5
145
330
1F
100
AcDbEntity
  8
0
  6
CONTINUOUS
 62
     7
100
AcDbLine
 10
1694.5884442161
 20
1198.5912634552
 30
0.0
 11
1682.8384613823
 21
1198.5912634552
 31
0.0
  0
ARC
  5
146
330
1F
100
AcDbEntity
  8
0
  6
CONTINUOUS
 62
     7
100
AcDbCircle
 10
1694.5884479584
 20
1197.5912622726
 30
0.0
 40
1.000000000000227
100
AcDbArc
 50
0.0
 51
90.0
  0
LINE
  5
147
330
1F
100
AcDbEntity
  8
0
  6
CONTINUOUS
 62
     7
100
AcDbLine
 10
1695.5884909462
 20
1197.5912167251
 30
0.0
 11
1695.5884909462
 21
1186.3313032806
 31
0.0
  0
LINE
  5
148
330
1F
100
AcDbEntity
  8
0
  6
CONTINUOUS
 62
     7
100
AcDbLine
 10
1695.5884909462
 20
1186.3313032806
 30
0.0
 11
1690.2746176552
 21
1185.9911991775
 31
0.0
  0
ARC
  5
149
330
1F
100
AcDbEntity
  8
0
  6
CONTINUOUS
 62
     7
100
AcDbCircle
 10
1690.3384479584
 20
1184.9932163655
 30
0.0
 40
1.0
100
AcDbArc
 50
93.6619355755
 51
180.0
  0
LINE
  5
14A
330
1F
100
AcDbEntity
  8
0
  6
CONTINUOUS
 62
     7
100
AcDbLine
 10
1689.3384671043
 20
1184.9931790054
 30
0.0
 11
1689.3384671043
 21
1177.0534826935
 31
0.0
  0
ARC
  5
14B
330
1F
100
AcDbEntity
  8
0
  6
CONTINUOUS
 62
     7
100
AcDbCircle
 10
1688.3384479584
 20
1177.053540656
 30
0.0
 40
0.9999999999999266
100
AcDbArc
 50
335.1121079736
 51
0.0
  0
ARC
  5
14C
330
1F
100
AcDbEntity
  8
0
  6
CONTINUOUS
 62
     7
100
AcDbCircle
 10
1693.9354583772
 20
1174.4569324122
 30
0.0
 40
5.170000000000043
100
AcDbArc
 50
155.1121079736
 51
342.3995332141
  0
ARC
  5
14D
330
1F
100
AcDbEntity
  8
0
  6
CONTINUOUS
 62
     7
100
AcDbCircle
 10
1699.8166295982
 20
1172.5912622726
 30
0.0
 40
0.9999999999999909
100
AcDbArc
 50
90.0
 51
162.3995332141
  0
LINE
  5
14E
330
1F
100
AcDbEntity
  8
0
  6
CONTINUOUS
 62
     7
100
AcDbLine
 10
1701.8404221367
 20
1173.591287297
 30
0.0
 11
1699.816606028
 21
1173.591287297
 31
0.0
  0
LINE
  5
14F
330
1F
100
AcDbEntity
  8
0
  6
CONTINUOUS
 62
     7
100
AcDbLine
 10
1701.8404221367
 20
1055.5912567795
 30
0.0
 11
1701.8404221367
 21
1173.591287297
 31
0.0
  0
ARC
  5
150
330
1F
100
AcDbEntity
  8
0
  6
CONTINUOUS
 62
     7
100
AcDbCircle
 10
1689.8404479584
 20
1055.5912622726
 30
0.0
 40
12.0
100
AcDbArc
 50
270.0
 51
0.0
  0
LINE
  5
151
330
1F
100
AcDbEntity
  8
0
  6
CONTINUOUS
 62
     7
100
AcDbLine
 10
1526.9898390602
 20
1043.5912920654
 30
0.0
 11
1689.8404574226
 21
1043.5912920654
 31
0.0
  0
ARC
  5
152
330
1F
100
AcDbEntity
  8
0
  6
CONTINUOUS
 62
     7
100
AcDbCircle
 10
1526.9898372546
 20
1031.5912622726
 30
0.0
 40
12.00000000000023
100
AcDbArc
 50
90.0
 51
180.0
  0
LINE
  5
153
330
1F
100
AcDbEntity
  8
0
  6
CONTINUOUS
 62
     7
100
AcDbLine
 10
1514.9898743461
 20
1005.5913044632
 30
0.0
 11
1514.9898743461
 21
1031.5912081421
 31
0.0
  0
ARC
  5
154
330
1F
100
AcDbEntity
  8
0
  6
CONTINUOUS
 62
     7
100
AcDbCircle
 10
1526.9898372546
 20
1005.5912622726
 30
0.0
 40
12.0
100
AcDbArc
 50
180.0
 51
270.0
  0
LINE
  5
155
330
1F
100
AcDbEntity
  8
0
  6
CONTINUOUS
 62
     7
100
AcDbLine
 10
1689.8404574226
 20
993.5912801445
 30
0.0
 11
1526.9898390602
 21
993.5912801445
 31
0.0
  0
ARC
  5
156
330
1F
100
AcDbEntity
  8
0
  6
CONTINUOUS
 62
     7
100
AcDbCircle
 10
1689.8404479584
 20
981.5912622726
 30
0.0
 40
12.0
100
AcDbArc
 50
0.0
 51
90.0
  0
LINE
  5
157
330
1F
100
AcDbEntity
  8
0
  6
CONTINUOUS
 62
     7
100
AcDbLine
 10
1701.8404221367
 20
863.5912849129
 30
0.0
 11
1701.8404221367
 21
981.5912558258
 31
0.0
  0
LINE
  5
158
330
1F
100
AcDbEntity
  8
0
  6
CONTINUOUS
 62
     7
100
AcDbLine
 10
1699.816606028
 20
863.5912849129
 30
0.0
 11
1701.8404221367
 21
863.5912849129
 31
0.0
  0
ARC
  5
159
330
1F
100
AcDbEntity
  8
0
  6
CONTINUOUS
 62
     7
100
AcDbCircle
 10
1699.8166295982
 20
864.5912622726
 30
0.0
 40
1.000000000000114
100
AcDbArc
 50
197.6004667859
 51
270.0
  0
ARC
  5
15A
330
1F
100
AcDbEntity
  8
0
  6
CONTINUOUS
 62
     7
100
AcDbCircle
 10
1693.9354583772
 20
862.725592133
 30
0.0
 40
5.170000000000297
100
AcDbArc
 50
17.6004667859
 51
204.8878920264
  0
ARC
  5
15B
330
1F
100
AcDbEntity
  8
0
  6
CONTINUOUS
 62
     7
100
AcDbCircle
 10
1688.3384479584
 20
860.1289838892
 30
0.0
 40
0.9999999999997831
100
AcDbArc
 50
0.0
 51
24.8878920264
  0
LINE
  5
15C
330
1F
100
AcDbEntity
  8
0
  6
CONTINUOUS
 62
     7
100
AcDbLine
 10
1689.3384671043
 20
860.1289703071
 30
0.0
 11
1689.3384671043
 21
852.1893335998
 31
0.0
  0
ARC
  5
15D
330
1F
100
AcDbEntity
  8
0
  6
CONTINUOUS
 62
     7
100
AcDbCircle
 10
1690.3384479584
 20
852.1893081798
 30
0.0
 40
1.00000000000005
100
AcDbArc
 50
180.0
 51
266.3380644245
  0
LINE
  5
15E
330
1F
100
AcDbEntity
  8
0
  6
CONTINUOUS
 62
     7
100
AcDbLine
 10
1690.2746176552
 20
851.1913730324
 30
0.0
 11
1695.5884909462
 21
850.8512689293
 31
0.0
  0
ARC
  5
15F
330
1F
100
AcDbEntity
  8
0
  6
CONTINUOUS
 62
     7
100
AcDbCircle
 10
1694.5884479584
 20
839.5912622726
 30
0.0
 40
1.0
100
AcDbArc
 50
270.0
 51
0.0
  0
LINE
  5
160
330
1F
100
AcDbEntity
  8
0
  6
CONTINUOUS
 62
     7
100
AcDbLine
 10
1676.8384194206
 20
962.5412537277
 30
0.0
 11
1676.8384194206
 21
844.5912911117
 31
0.0
  0
ARC
  5
161
330
1F
100
AcDbEntity
  8
0
  6
CONTINUOUS
 62
     7
100
AcDbCircle
 10
1664.8384479584
 20
962.5412622726
 30
0.0
 40
12.00000000000023
100
AcDbArc
 50
0.0
 51
90.0
  0
LINE
  5
162
330
1F
100
AcDbEntity
  8
0
  6
CONTINUOUS
 62
     7
100
AcDbLine
 10
1514.9898743461
 20
974.5412780464
 30
0.0
 11
1664.8384547065
 21
974.5412780464
 31
0.0
  0
ARC
  5
163
330
1F
100
AcDbEntity
  8
0
  6
CONTINUOUS
 62
     7
100
AcDbCircle
 10
1514.9898372546
 20
993.5912622726
 30
0.0
 40
19.04999999999995
100
AcDbArc
 50
210.0
 51
270.0
  0
ARC
  5
164
330
1F
100
AcDbEntity
  8
0
  6
CONTINUOUS
 62
     7
100
AcDbCircle
 10
1481.9942693705
 20
974.5412622726
 30
0.0
 40
19.0500000000001
100
AcDbArc
 50
30.0
 51
90.0
  0
LINE
  5
165
330
1F
100
AcDbEntity
  8
0
  6
CONTINUOUS
 62
     7
100
AcDbLine
 10
1373.1347536873
 20
993.5912801445
 30
0.0
 11
1481.9942927192
 21
993.5912801445
 31
0.0
  0
ARC
  5
166
330
1F
100
AcDbEntity
  8
0
  6
CONTINUOUS
 62
     7
100
AcDbCircle
 10
1373.1347944351
 20
974.5412622726
 30
0.0
 40
19.05000000000007
100
AcDbArc
 50
90.0
 51
150.0
  0
ARC
  5
167
330
1F
100
AcDbEntity
  8
0
  6
CONTINUOUS
 62
     7
100
AcDbCircle
 10
1340.1392265509
 20
993.5912622726
 30
0.0
 40
19.05000000000007
100
AcDbArc
 50
270.0
 51
330.0
  0
LINE
  5
168
330
1F
100
AcDbEntity
  8
0
  6
CONTINUOUS
 62
     7
100
AcDbLine
 10
1190.2905917
 20
974.5412780464
 30
0.0
 11
1340.1391720604
 21
974.5412780464
 31
0.0
  0
ARC
  5
169
330
1F
100
AcDbEntity
  8
0
  6
CONTINUOUS
 62
     7
100
AcDbCircle
 10
1190.2906158471
 20
962.5412622726
 30
0.0
 40
12.0
100
AcDbArc
 50
90.0
 51
180.0
  0
LINE
  5
16A
330
1F
100
AcDbEntity
  8
0
  6
CONTINUOUS
 62
     7
100
AcDbLine
 10
1178.2906269859
 20
844.5912911117
 30
0.0
 11
1178.2906269859
 21
962.5412537277
 31
0.0
  0
LINE
  5
16B
330
1F
100
AcDbEntity
  8
0
  6
CONTINUOUS
 62
     7
100
AcDbLine
 10
1160.5406021904
 20
838.5912491501
 30
0.0
 11
1172.2905850242
 21
838.5912491501
 31
0.0
  0
ARC
  5
16C
330
1F
100
AcDbEntity
  8
0
  6
CONTINUOUS
 62
     7
100
AcDbCircle
 10
1160.5406158471
 20
839.5912622726
 30
0.0
 40
1.0
100
AcDbArc
 50
180.0
 51
270.0
  0
LINE
  5
16D
330
1F
100
AcDbEntity
  8
0
  6
CONTINUOUS
 62
     7
100
AcDbLine
 10
1159.5406746696
 20
850.8512689293
 30
0.0
 11
1164.8544287513
 21
851.1913730324
 31
0.0
  0
ARC
  5
16E
330
1F
100
AcDbEntity
  8
0
  6
CONTINUOUS
 62
     7
100
AcDbCircle
 10
1164.7906158471
 20
852.1893081798
 30
0.0
 40
1.0
100
AcDbArc
 50
273.6619355755
 51
0.0
  0
LINE
  5
16F
330
1F
100
AcDbEntity
  8
0
  6
CONTINUOUS
 62
     7
100
AcDbLine
 10
1165.7905793022
 20
852.1893335998
 30
0.0
 11
1165.7905793022
 21
860.1289703071
 31
0.0
  0
ARC
  5
170
330
1F
100
AcDbEntity
  8
0
  6
CONTINUOUS
 62
     7
100
AcDbCircle
 10
1166.7906158471
 20
860.1289838892
 30
0.0
 40
0.9999999999997831
100
AcDbArc
 50
155.1121079736
 51
180.0
  0
ARC
  5
171
330
1F
100
AcDbEntity
  8
0
  6
CONTINUOUS
 62
     7
100
AcDbCircle
 10
1161.1936054283
 20
862.725592133
 30
0.0
 40
5.170000000000178
100
AcDbArc
 50
335.1121079736
 51
162.3995332141
  0
ARC
  5
172
330
1F
100
AcDbEntity
  8
0
  6
CONTINUOUS
 62
     7
100
AcDbCircle
 10
1155.3124342074
 20
864.5912622726
 30
0.0
 40
1.0
100
AcDbArc
 50
270.0
 51
342.3995332141
  0
LINE
  5
173
330
1F
100
AcDbEntity
  8
0
  6
CONTINUOUS
 62
     7
100
AcDbLine
 10
1153.2886242698
 20
863.5912849129
 30
0.0
 11
1155.3124403785
 21
863.5912849129
 31
0.0
  0
LINE
  5
174
330
1F
100
AcDbEntity
  8
0
  6
CONTINUOUS
 62
     7
100
AcDbLine
 10
1153.2886242698
 20
981.5912558258
 30
0.0
 11
1153.2886242698
 21
863.5912849129
 31
0.0
  0
ARC
  5
175
330
1F
100
AcDbEntity
  8
0
  6
CONTINUOUS
 62
     7
100
AcDbCircle
 10
1165.2886158471
 20
981.5912622726
 30
0.0
 40
12.00000000000011
100
AcDbArc
 50
90.0
 51
180.0
  0
LINE
  5
176
330
1F
100
AcDbEntity
  8
0
  6
CONTINUOUS
 62
     7
100
AcDbLine
 10
1328.1392073463
 20
993.5912801445
 30
0.0
 11
1165.2885889839
 21
993.5912801445
 31
0.0
  0
ARC
  5
177
330
1F
100
AcDbEntity
  8
0
  6
CONTINUOUS
 62
     7
100
AcDbCircle
 10
1328.1392265509
 20
1005.5912622726
 30
0.0
 40
12.0
100
AcDbArc
 50
270.0
 51
0.0
  0
LINE
  5
178
330
1F
100
AcDbEntity
  8
0
  6
CONTINUOUS
 62
     7
100
AcDbLine
 10
1340.1391720604
 20
1031.5912081421
 30
0.0
 11
1340.1391720604
 21
1005.5913044632
 31
0.0
  0
ARC
  5
179
330
1F
100
AcDbEntity
  8
0
  6
CONTINUOUS
 62
     7
100
AcDbCircle
 10
1328.1392265509
 20
1031.5912622726
 30
0.0
 40
12.00000000000023
100
AcDbArc
 50
0.0
 51
90.0
  0
LINE
  5
17A
330
1F
100
AcDbEntity
  8
0
  6
CONTINUOUS
 62
     7
100
AcDbLine
 10
1165.2885889839
 20
1043.5912920654
 30
0.0
 11
1328.1392073463
 21
1043.5912920654
 31
0.0
  0
ARC
  5
17B
330
1F
100
AcDbEntity
  8
0
  6
CONTINUOUS
 62
     7
100
AcDbCircle
 10
1165.2886158471
 20
1055.5912622726
 30
0.0
 40
12.00000000000023
100
AcDbArc
 50
180.0
 51
270.0
  0
LINE
  5
17C
330
1F
100
AcDbEntity
  8
0
  6
CONTINUOUS
 62
     7
100
AcDbLine
 10
1153.2886242698
 20
1173.591287297
 30
0.0
 11
1153.2886242698
 21
1055.5912567795
 31
0.0
  0
LINE
  5
17D
330
1F
100
AcDbEntity
  8
0
  6
CONTINUOUS
 62
     7
100
AcDbLine
 10
1155.3124403785
 20
1173.591287297
 30
0.0
 11
1153.2886242698
 21
1173.591287297
 31
0.0
  0
ARC
  5
17E
330
1F
100
AcDbEntity
  8
0
  6
CONTINUOUS
 62
     7
100
AcDbCircle
 10
1155.3124342074
 20
1172.5912622726
 30
0.0
 40
1.0
100
AcDbArc
 50
17.6004667859
 51
90.0
  0
ARC
  5
17F
330
1F
100
AcDbEntity
  8
0
  6
CONTINUOUS
 62
     7
100
AcDbCircle
 10
1161.1936054283
 20
1174.4569324122
 30
0.0
 40
5.170000000000235
100
AcDbArc
 50
197.6004667859
 51
24.8878920264
  0
ARC
  5
180
330
1F
100
AcDbEntity
  8
0
  6
CONTINUOUS
 62
     7
100
AcDbCircle
 10
1166.7906158471
 20
1177.053540656
 30
0.0
 40
0.9999999999998309
100
AcDbArc
 50
180.0
 51
204.8878920264
  0
LINE
  5
181
330
1F
100
AcDbEntity
  8
0
  6
CONTINUOUS
 62
     7
100
AcDbLine
 10
1165.7905793022
 20
1177.0534826935
 30
0.0
 11
1165.7905793022
 21
1184.9931790054
 31
0.0
  0
ARC
  5
182
330
1F
100
AcDbEntity
  8
0
  6
CONTINUOUS
 62
     7
100
AcDbCircle
 10
1164.7906158471
 20
1184.9932163655
 30
0.0
 40
1.000000000000163
100
AcDbArc
 50
0.0
 51
86.3380644245
  0
LINE
  5
183
330
1F
100
AcDbEntity
  8
0
  6
CONTINUOUS
 62
     7
100
AcDbLine
 10
1164.8544287513
 20
1185.9911991775
 30
0.0
 11
1159.5406746696
 21
1186.3313032806
 31
0.0
  0
LINE
  5
184
330
1F
100
AcDbEntity
  8
0
  6
CONTINUOUS
 62
     7
100
AcDbLine
 10
1159.5406746696
 20
1186.3313032806
 30
0.0
 11
1159.5406746696
 21
1197.5912167251
 31
0.0
  0
ARC
  5
185
330
1F
100
AcDbEntity
  8
0
  6
CONTINUOUS
 62
     7
100
AcDbCircle
 10
1160.5406158471
 20
1197.5912622726
 30
0.0
 40
1.0
100
AcDbArc
 50
90.0
 51
180.0
  0
LINE
  5
186
330
1F
100
AcDbEntity
  8
0
  6
CONTINUOUS
 62
     7
100
AcDbLine
 10
1172.2905850242
 20
1198.5912634552
 30
0.0
 11
1160.5406021904
 21
1198.5912634552
 31
0.0
  0
ARC
  5
187
330
1F
100
AcDbEntity
  8
0
  6
CONTINUOUS
 62
     7
100
AcDbCircle
 10
1172.2906158471
 20
844.5912622726
 30
0.0
 40
6.0
100
AcDbArc
 50
270.0
 51
0.0
  0
LINE
  5
188
330
1F
100
AcDbEntity
  8
0
  6
CONTINUOUS
 62
     7
100
AcDbLine
 10
1695.5884909462
 20
850.8512689293
 30
0.0
 11
1695.5884909462
 21
839.5912362755
 31
0.0
  0
LINE
  5
189
330
1F
100
AcDbEntity
  8
0
  6
CONTINUOUS
 62
     7
100
AcDbLine
 10
1682.8384613823
 20
838.5912491501
 30
0.0
 11
1694.5884442161
 21
838.5912491501
 31
0.0
  0
ARC
  5
18A
330
1F
100
AcDbEntity
  8
0
  6
CONTINUOUS
 62
     7
100
AcDbCircle
 10
1682.8384479584
 20
844.5912622726
 30
0.0
 40
6.0
100
AcDbArc
 50
180.0
 51
270.0
  0
LINE
  5
18B
330
1F
100
AcDbEntity
  8
0
  6
CONTINUOUS
 62
     7
100
AcDbLine
 10
1159.5406746696
 20
839.5912362755
 30
0.0
 11
1159.5406746696
 21
850.8512689293
 31
0.0
  0
ARC
  5
18C
330
1F
100
AcDbEntity
  8
0
  6
CONTINUOUS
 62
     7
100
AcDbCircle
 10
1189.7693264602
 20
635.4492502759
 30
0.0
 40
5.169999999999956
100
AcDbArc
 50
346.0551905846
 51
14.8879034674
  0
ARC
  5
18D
330
1F
100
AcDbEntity
  8
0
  6
CONTINUOUS
 62
     7
100
AcDbCircle
 10
1195.7322016875
 20
637.0345007371
 30
0.0
 40
1.000000000000098
100
AcDbArc
 50
170.0
 51
194.8879034673
  0
LINE
  5
18E
330
1F
100
AcDbEntity
  8
0
  6
CONTINUOUS
 62
     7
100
AcDbLine
 10
1195.6877922844
 20
642.5413204849
 30
0.0
 11
1194.7473501991
 21
637.208135289
 31
0.0
  0
ARC
  5
18F
330
1F
100
AcDbEntity
  8
0
  6
CONTINUOUS
 62
     7
100
AcDbCircle
 10
1196.6726167434
 20
642.3676575023
 30
0.0
 40
1.00003508461404
100
AcDbArc
 50
145.1121913085
 51
170.0
  0
ARC
  5
190
330
1F
100
AcDbEntity
  8
0
  6
CONTINUOUS
 62
     7
100
AcDbCircle
 10
1191.611499867
 20
645.8967407981
 30
0.0
 40
5.170000000000229
100
AcDbArc
 50
325.1121913085
 51
152.3995433346
  0
ARC
  5
191
330
1F
100
AcDbEntity
  8
0
  6
CONTINUOUS
 62
     7
100
AcDbCircle
 10
1186.1436465667
 20
648.7553209154
 30
0.0
 40
1.000000000000145
100
AcDbArc
 50
260.0000485891
 51
332.3995433346
  0
LINE
  5
192
330
1F
100
AcDbEntity
  8
0
  6
CONTINUOUS
 62
     7
100
AcDbLine
 10
1181.987783892
 20
648.4726978958
 30
0.0
 11
1185.9699702095
 21
647.7704955757
 31
0.0
  0
ARC
  5
193
330
1F
100
AcDbEntity
  8
0
  6
CONTINUOUS
 62
     7
100
AcDbCircle
 10
1182.1614411786
 20
649.457487686
 30
0.0
 40
1.000000946566397
100
AcDbArc
 50
187.6004769063
 51
260.0000485891
  0
ARC
  5
194
330
1F
100
AcDbEntity
  8
0
  6
CONTINUOUS
 62
     7
100
AcDbCircle
 10
1176.0456480877
 20
648.6414148528
 30
0.0
 40
5.169999053433654
100
AcDbArc
 50
7.6004769063
 51
194.8878382498
  0
ARC
  5
195
330
1F
100
AcDbEntity
  8
0
  6
CONTINUOUS
 62
     7
100
AcDbCircle
 10
1170.0827742048
 20
647.0561720161
 30
0.0
 40
0.9999986349376255
100
AcDbArc
 50
350.0
 51
14.8878382498
  0
LINE
  5
196
330
1F
100
AcDbEntity
  8
0
  6
CONTINUOUS
 62
     7
100
AcDbLine
 10
1170.1271748375
 20
641.5493203819
 30
0.0
 11
1171.0676169227
 21
646.8825055778
 31
0.0
  0
ARC
  5
197
330
1F
100
AcDbEntity
  8
0
  6
CONTINUOUS
 62
     7
100
AcDbCircle
 10
1169.1423910117
 20
641.7229939096
 30
0.0
 40
0.9999999999998811
100
AcDbArc
 50
325.1121194146
 51
350.0
  0
ARC
  5
198
330
1F
100
AcDbEntity
  8
0
  6
CONTINUOUS
 62
     7
100
AcDbCircle
 10
1174.2034746809
 20
638.1939243306
 30
0.0
 40
5.169999999999991
100
AcDbArc
 50
145.1121194146
 51
173.9447482422
  0
LINE
  5
199
330
1F
100
AcDbEntity
  8
0
  6
CONTINUOUS
 62
     7
100
AcDbLine
 10
1169.0622782539
 20
638.7393190086
 30
0.0
 11
703.9556121658
 21
720.7501842201
 31
0.0
  0
ARC
  5
19A
330
1F
100
AcDbEntity
  8
0
  6
CONTINUOUS
 62
     7
100
AcDbCircle
 10
698.9379593507
 20
721.9960632754
 30
0.0
 40
5.16999999999998
100
AcDbArc
 50
346.0551905845
 51
14.8879034674
  0
ARC
  5
19B
330
1F
100
AcDbEntity
  8
0
  6
CONTINUOUS
 62
     7
100
AcDbCircle
 10
704.9008345779
 20
723.5813137365
 30
0.0
 40
1.000000000000145
100
AcDbArc
 50
170.0
 51
194.8879034673
  0
LINE
  5
19C
330
1F
100
AcDbEntity
  8
0
  6
CONTINUOUS
 62
     7
100
AcDbLine
 10
704.8564171623
 20
729.0880991638
 30
0.0
 11
703.9160346817
 21
723.7549735725
 31
0.0
  0
ARC
  5
19D
330
1F
100
AcDbEntity
  8
0
  6
CONTINUOUS
 62
     7
100
AcDbCircle
 10
705.8412496338
 20
728.9144705017
 30
0.0
 40
1.000035084614132
100
AcDbArc
 50
145.1121913085
 51
170.0
  0
ARC
  5
19E
330
1F
100
AcDbEntity
  8
0
  6
CONTINUOUS
 62
     7
100
AcDbCircle
 10
700.7801327574
 20
732.4435537976
 30
0.0
 40
5.170000000000063
100
AcDbArc
 50
325.1121913085
 51
152.3995433346
  0
ARC
  5
19F
330
1F
100
AcDbEntity
  8
0
  6
CONTINUOUS
 62
     7
100
AcDbCircle
 10
695.3122794572
 20
735.3021339149
 30
0.0
 40
0.9999999999999725
100
AcDbArc
 50
260.0000485891
 51
332.3995433346
  0
LINE
  5
1A0
330
1F
100
AcDbEntity
  8
0
  6
CONTINUOUS
 62
     7
100
AcDbLine
 10
691.15640877
 20
735.0194765747
 30
0.0
 11
695.138654692
 21
734.3173338592
 31
0.0
  0
ARC
  5
1A1
330
1F
100
AcDbEntity
  8
0
  6
CONTINUOUS
 62
     7
100
AcDbCircle
 10
691.330074069
 20
736.0043006855
 30
0.0
 40
1.000000946566269
100
AcDbArc
 50
187.6004769063
 51
260.0000485891
  0
ARC
  5
1A2
330
1F
100
AcDbEntity
  8
0
  6
CONTINUOUS
 62
     7
100
AcDbCircle
 10
685.2142809781
 20
735.1882278522
 30
0.0
 40
5.169999053433767
100
AcDbArc
 50
7.6004769063
 51
194.8878382498
  0
ARC
  5
1A3
330
1F
100
AcDbEntity
  8
0
  6
CONTINUOUS
 62
     7
100
AcDbCircle
 10
679.2514070953
 20
733.6029850155
 30
0.0
 40
0.9999986349375136
100
AcDbArc
 50
350.0
 51
14.8878382498
  0
LINE
  5
1A4
330
1F
100
AcDbEntity
  8
0
  6
CONTINUOUS
 62
     7
100
AcDbLine
 10
679.29585932
 20
728.0961586655
 30
0.0
 11
680.2362418007
 21
733.4293438614
 31
0.0
  0
ARC
  5
1A5
330
1F
100
AcDbEntity
  8
0
  6
CONTINUOUS
 62
     7
100
AcDbCircle
 10
678.3110239022
 20
728.2698069091
 30
0.0
 40
0.9999999999999931
100
AcDbArc
 50
325.1121194146
 51
350.0
  0
ARC
  5
1A6
330
1F
100
AcDbEntity
  8
0
  6
CONTINUOUS
 62
     7
100
AcDbCircle
 10
683.3721075714
 20
724.74073733
 30
0.0
 40
5.170000000000055
100
AcDbArc
 50
145.1121194146
 51
173.9447482422
  0
LINE
  5
1A7
330
1F
100
AcDbEntity
  8
0
  6
CONTINUOUS
 62
     7
100
AcDbLine
 10
678.2309627365
 20
725.2860976875
 30
0.0
 11
639.4282793831
 21
732.1280552566
 31
0.0
  0
LINE
  5
1A8
330
1F
100
AcDbEntity
  8
0
  6
CONTINUOUS
 62
     7
100
AcDbLine
 10
639.4282793831
 20
752.0488216102
 30
0.0
 11
639.4282793831
 21
732.1280552566
 31
0.0
  0
ARC
  5
1A9
330
1F
100
AcDbEntity
  8
0
  6
CONTINUOUS
 62
     7
100
AcDbCircle
 10
645.4282800697
 20
752.0488175426
 30
0.0
 40
6.000000000000182
100
AcDbArc
 50
80.0
 51
180.0
  0
LINE
  5
1AA
330
1F
100
AcDbEntity
  8
0
  6
CONTINUOUS
 62
     7
100
AcDbLine
 10
1216.4701437782
 20
657.4513031662
 30
0.0
 11
646.4701509308
 21
757.9576684654
 31
0.0
  0
ARC
  5
1AB
330
1F
100
AcDbEntity
  8
0
  6
CONTINUOUS
 62
     7
100
AcDbCircle
 10
1215.4282800697
 20
651.5424385387
 30
0.0
 40
6.0
100
AcDbArc
 50
0.0
 51
80.0
  0
LINE
  5
1AC
330
1F
100
AcDbEntity
  8
0
  6
CONTINUOUS
 62
     7
100
AcDbLine
 10
1221.4282965492
 20
629.5057846725
 30
0.0
 11
1221.4282965492
 21
651.542456311
 31
0.0
  0
LINE
  5
1AD
330
1F
100
AcDbEntity
  8
0
  6
CONTINUOUS
 62
     7
100
AcDbLine
 10
1221.4282965492
 20
629.5057846725
 30
0.0
 11
1194.7869276832
 21
634.2033459366
 31
0.0
  0
ARC
  5
1AE
330
1F
100
AcDbEntity
  8
0
  6
CONTINUOUS
 62
     7
100
AcDbCircle
 10
683.3721075064
 20
67.5480599849
 30
0.0
 40
5.169999053433783
100
AcDbArc
 50
186.0551898611
 51
214.8878382498
  0
ARC
  5
1AF
330
1F
100
AcDbEntity
  8
0
  6
CONTINUOUS
 62
     7
100
AcDbCircle
 10
678.3110239022
 20
64.0189960091
 30
0.0
 40
0.9999986349374375
100
AcDbArc
 50
10.0
 51
34.8878382498
  0
LINE
  5
1B0
330
1F
100
AcDbEntity
  8
0
  6
CONTINUOUS
 62
     7
100
AcDbLine
 10
680.2362418007
 20
58.8594651342
 30
0.0
 11
679.29585932
 21
64.1926428795
 31
0.0
  0
ARC
  5
1B1
330
1F
100
AcDbEntity
  8
0
  6
CONTINUOUS
 62
     7
100
AcDbCircle
 10
679.2514070953
 20
58.6858179026
 30
0.0
 40
1.000000000000115
100
AcDbArc
 50
345.1121194146
 51
10.0
  0
ARC
  5
1B2
330
1F
100
AcDbEntity
  8
0
  6
CONTINUOUS
 62
     7
100
AcDbCircle
 10
685.2142829556
 20
57.1005698229
 30
0.0
 40
5.17000000000005
100
AcDbArc
 50
165.1121194146
 51
352.3995433346
  0
ARC
  5
1B3
330
1F
100
AcDbEntity
  8
0
  6
CONTINUOUS
 62
     7
100
AcDbCircle
 10
691.3300763348
 20
56.2844991502
 30
0.0
 40
1.000000000000015
100
AcDbArc
 50
100.0000485891
 51
172.3995433346
  0
LINE
  5
1B4
330
1F
100
AcDbEntity
  8
0
  6
CONTINUOUS
 62
     7
100
AcDbLine
 10
695.138654692
 20
57.9714788616
 30
0.0
 11
691.15640877
 21
57.2693063438
 31
0.0
  0
ARC
  5
1B5
330
1F
100
AcDbEntity
  8
0
  6
CONTINUOUS
 62
     7
100
AcDbCircle
 10
695.312280532
 20
56.9866726749
 30
0.0
 40
1.000000000000054
100
AcDbArc
 50
27.6004769063
 51
100.0000485891
  0
ARC
  5
1B6
330
1F
100
AcDbEntity
  8
0
  6
CONTINUOUS
 62
     7
100
AcDbCircle
 10
700.7801328224
 20
59.8452547238
 30
0.0
 40
5.170000000000029
100
AcDbArc
 50
207.6004769063
 51
34.8879034673
  0
ARC
  5
1B7
330
1F
100
AcDbEntity
  8
0
  6
CONTINUOUS
 62
     7
100
AcDbCircle
 10
705.8412150822
 20
63.3743263241
 30
0.0
 40
0.9999999999999357
100
AcDbArc
 50
190.0
 51
214.8879034673
  0
LINE
  5
1B8
330
1F
100
AcDbEntity
  8
0
  6
CONTINUOUS
 62
     7
100
AcDbLine
 10
703.9160346817
 20
68.5338391483
 30
0.0
 11
704.8564171623
 21
63.2006763041
 31
0.0
  0
ARC
  5
1B9
330
1F
100
AcDbEntity
  8
0
  6
CONTINUOUS
 62
     7
100
AcDbCircle
 10
704.9008691295
 20
68.7074952741
 30
0.0
 40
1.000035084614393
100
AcDbArc
 50
165.1121913085
 51
190.0
  0
ARC
  5
1BA
330
1F
100
AcDbEntity
  8
0
  6
CONTINUOUS
 62
     7
100
AcDbCircle
 10
698.9379573732
 20
70.2927448859
 30
0.0
 40
5.169999999999992
100
AcDbArc
 50
345.1121913085
 51
13.9447482422
  0
LINE
  5
1BB
330
1F
100
AcDbEntity
  8
0
  6
CONTINUOUS
 62
     7
100
AcDbLine
 10
703.9556121658
 20
71.5386434019
 30
0.0
 11
1169.0622782539
 21
153.5495086134
 31
0.0
  0
ARC
  5
1BC
330
1F
100
AcDbEntity
  8
0
  6
CONTINUOUS
 62
     7
100
AcDbCircle
 10
1174.2034746159
 20
154.0948729844
 30
0.0
 40
5.16999905343356
100
AcDbArc
 50
186.0551898611
 51
214.8878382498
  0
ARC
  5
1BD
330
1F
100
AcDbEntity
  8
0
  6
CONTINUOUS
 62
     7
100
AcDbCircle
 10
1169.1423910117
 20
150.5658090086
 30
0.0
 40
0.9999986349375307
100
AcDbArc
 50
10.0
 51
34.8878382498
  0
LINE
  5
1BE
330
1F
100
AcDbEntity
  8
0
  6
CONTINUOUS
 62
     7
100
AcDbLine
 10
1171.0676169227
 20
145.4062773407
 30
0.0
 11
1170.1271748375
 21
150.7394625366
 31
0.0
  0
ARC
  5
1BF
330
1F
100
AcDbEntity
  8
0
  6
CONTINUOUS
 62
     7
100
AcDbCircle
 10
1170.0827742048
 20
145.2326309021
 30
0.0
 40
1.000000000000095
100
AcDbArc
 50
345.1121194146
 51
10.0
  0
ARC
  5
1C0
330
1F
100
AcDbEntity
  8
0
  6
CONTINUOUS
 62
     7
100
AcDbCircle
 10
1176.0456500652
 20
143.6473828223
 30
0.0
 40
5.170000000000138
100
AcDbArc
 50
165.1121194146
 51
352.3995433346
  0
ARC
  5
1C1
330
1F
100
AcDbEntity
  8
0
  6
CONTINUOUS
 62
     7
100
AcDbCircle
 10
1182.1614434444
 20
142.8313121496
 30
0.0
 40
0.9999999999999855
100
AcDbArc
 50
100.0000485891
 51
172.3995433346
  0
LINE
  5
1C2
330
1F
100
AcDbEntity
  8
0
  6
CONTINUOUS
 62
     7
100
AcDbLine
 10
1185.9699702095
 20
144.5182873428
 30
0.0
 11
1181.987783892
 21
143.816114825
 31
0.0
  0
ARC
  5
1C3
330
1F
100
AcDbEntity
  8
0
  6
CONTINUOUS
 62
     7
100
AcDbCircle
 10
1186.1436476416
 20
143.5334856743
 30
0.0
 40
1.000000000000258
100
AcDbArc
 50
27.6004769063
 51
100.0000485891
  0
ARC
  5
1C4
330
1F
100
AcDbEntity
  8
0
  6
CONTINUOUS
 62
     7
100
AcDbCircle
 10
1191.611499932
 20
146.3920677233
 30
0.0
 40
5.170000000000058
100
AcDbArc
 50
207.6004769063
 51
34.8879034673
  0
ARC
  5
1C5
330
1F
100
AcDbEntity
  8
0
  6
CONTINUOUS
 62
     7
100
AcDbCircle
 10
1196.6725821918
 20
149.9211393235
 30
0.0
 40
0.9999999999999643
100
AcDbArc
 50
190.0
 51
214.8879034674
  0
LINE
  5
1C6
330
1F
100
AcDbEntity
  8
0
  6
CONTINUOUS
 62
     7
100
AcDbLine
 10
1194.7473501991
 20
155.0806476295
 30
0.0
 11
1195.6877922844
 21
149.7474922359
 31
0.0
  0
ARC
  5
1C7
330
1F
100
AcDbEntity
  8
0
  6
CONTINUOUS
 62
     7
100
AcDbCircle
 10
1195.7322362391
 20
155.2543082735
 30
0.0
 40
1.000035084614514
100
AcDbArc
 50
165.1121913085
 51
190.0
  0
ARC
  5
1C8
330
1F
100
AcDbEntity
  8
0
  6
CONTINUOUS
 62
     7
100
AcDbCircle
 10
1189.7693244827
 20
156.8395578853
 30
0.0
 40
5.169999999999975
100
AcDbArc
 50
345.1121913085
 51
13.9447482422
  0
LINE
  5
1C9
330
1F
100
AcDbEntity
  8
0
  6
CONTINUOUS
 62
     7
100
AcDbLine
 10
1194.7869276832
 20
158.0854518831
 30
0.0
 11
1221.4282965492
 21
162.7830429495
 31
0.0
  0
LINE
  5
1CA
330
1F
100
AcDbEntity
  8
0
  6
CONTINUOUS
 62
     7
100
AcDbLine
 10
1221.4282965492
 20
140.746371311
 30
0.0
 11
1221.4282965492
 21
162.7830429495
 31
0.0
  0
ARC
  5
1CB
330
1F
100
AcDbEntity
  8
0
  6
CONTINUOUS
 62
     7
100
AcDbCircle
 10
1215.4282800697
 20
140.7463643795
 30
0.0
 40
6.0
100
AcDbArc
 50
280.0
 51
0.0
  0
LINE
  5
1CC
330
1F
100
AcDbEntity
  8
0
  6
CONTINUOUS
 62
     7
100
AcDbLine
 10
646.4701509308
 20
34.3311386675
 30
0.0
 11
1216.4701437782
 21
134.8375244558
 31
0.0
  0
ARC
  5
1CD
330
1F
100
AcDbEntity
  8
0
  6
CONTINUOUS
 62
     7
100
AcDbCircle
 10
645.4282800697
 20
40.2399853756
 30
0.0
 40
6.0
100
AcDbArc
 50
180.0
 51
280.0
  0
LINE
  5
1CE
330
1F
100
AcDbEntity
  8
0
  6
CONTINUOUS
 62
     7
100
AcDbLine
 10
639.4282793831
 20
60.1607388378
 30
0.0
 11
639.4282793831
 21
40.23998366
 31
0.0
  0
LINE
  5
1CF
330
1F
100
AcDbEntity
  8
0
  6
CONTINUOUS
 62
     7
100
AcDbLine
 10
639.4282793831
 20
60.1607388378
 30
0.0
 11
678.2309627365
 21
67.0026926816
 31
0.0
  0
LINE
  5
1D0
330
1F
100
AcDbEntity
  8
0
  6
CONTINUOUS
 62
     7
100
AcDbLine
 10
1216.4701437782
 20
575.7027579964
 30
0.0
 11
1206.3863491844
 21
573.9247514427
 31
0.0
  0
ARC
  5
1D1
330
1F
100
AcDbEntity
  8
0
  6
CONTINUOUS
 62
     7
100
AcDbCircle
 10
1207.4282800697
 20
568.0158989246
 30
0.0
 40
6.00000000000007
100
AcDbArc
 50
100.0
 51
180.0
  0
LINE
  5
1D2
330
1F
100
AcDbEntity
  8
0
  6
CONTINUOUS
 62
     7
100
AcDbLine
 10
1201.4283156227
 20
568.0159045875
 30
0.0
 11
1201.4283156227
 21
224.2729081333
 31
0.0
  0
ARC
  5
1D3
330
1F
100
AcDbEntity
  8
0
  6
CONTINUOUS
 62
     7
100
AcDbCircle
 10
1207.4282800697
 20
224.2729039936
 30
0.0
 40
6.0
100
AcDbArc
 50
180.0
 51
260.0
  0
LINE
  5
1D4
330
1F
100
AcDbEntity
  8
0
  6
CONTINUOUS
 62
     7
100
AcDbLine
 10
1206.3863491844
 20
218.3640612781
 30
0.0
 11
1216.4701437782
 21
216.586010021
 31
0.0
  0
LINE
  5
1D5
330
1F
100
AcDbEntity
  8
0
  6
CONTINUOUS
 62
     7
100
AcDbLine
 10
1221.4282965492
 20
175.6586445988
 30
0.0
 11
1181.4283346962
 21
168.6055673778
 31
0.0
  0
LINE
  5
1D6
330
1F
100
AcDbEntity
  8
0
  6
CONTINUOUS
 62
     7
100
AcDbLine
 10
1181.4283346962
 20
168.6055673778
 30
0.0
 11
1181.4283346962
 21
623.683245343
 31
0.0
  0
ARC
  5
1D7
330
1F
100
AcDbEntity
  8
0
  6
CONTINUOUS
 62
     7
100
AcDbCircle
 10
1215.4282800697
 20
210.6771688053
 30
0.0
 40
6.0
100
AcDbArc
 50
0.0
 51
80.0
  0
LINE
  5
1D8
330
1F
100
AcDbEntity
  8
0
  6
CONTINUOUS
 62
     7
100
AcDbLine
 10
1221.4282965492
 20
581.6116048515
 30
0.0
 11
1221.4282965492
 21
616.6301681221
 31
0.0
  0
LINE
  5
1D9
330
1F
100
AcDbEntity
  8
0
  6
CONTINUOUS
 62
     7
100
AcDbLine
 10
1181.4283346962
 20
623.683245343
 30
0.0
 11
1221.4282965492
 21
616.6301681221
 31
0.0
  0
ARC
  5
1DA
330
1F
100
AcDbEntity
  8
0
  6
CONTINUOUS
 62
     7
100
AcDbCircle
 10
1215.4282800697
 20
581.6116341129
 30
0.0
 40
6.0
100
AcDbArc
 50
280.0
 51
0.0
  0
LINE
  5
1DB
330
1F
100
AcDbEntity
  8
0
  6
CONTINUOUS
 62
     7
100
AcDbLine
 10
1221.4282965492
 20
175.6586445988
 30
0.0
 11
1221.4282965492
 21
210.6771631658
 31
0.0
  0
LINE
  5
1DC
330
1F
100
AcDbEntity
  8
0
  6
CONTINUOUS
 62
     7
100
AcDbLine
 10
639.4282793831
 20
719.2524387062
 30
0.0
 11
639.4282793831
 21
73.0363442123
 31
0.0
  0
LINE
  5
1DD
330
1F
100
AcDbEntity
  8
0
  6
CONTINUOUS
 62
     7
100
AcDbLine
 10
639.4282793831
 20
719.2524387062
 30
0.0
 11
1169.088265879
 21
625.8591129005
 31
0.0
  0
LINE
  5
1DE
330
1F
100
AcDbEntity
  8
0
  6
CONTINUOUS
 62
     7
100
AcDbLine
 10
1169.088265879
 20
625.8591129005
 30
0.0
 11
1169.088265879
 21
166.4296998203
 31
0.0
  0
LINE
  5
1DF
330
1F
100
AcDbEntity
  8
0
  6
CONTINUOUS
 62
     7
100
AcDbLine
 10
1169.088265879
 20
166.4296998203
 30
0.0
 11
639.4282793831
 21
73.0363442123
 31
0.0
  0
ARC
  5
1E0
330
1F
100
AcDbEntity
  8
0
  6
CONTINUOUS
 62
     7
100
AcDbCircle
 10
1183.6535311035
 20
157.655628558
 30
0.0
 40
1.000000000000115
100
AcDbArc
 50
280.0000485891
 51
352.3995433346
  0
LINE
  5
1E1
330
1F
100
AcDbEntity
  8
0
  6
CONTINUOUS
 62
     7
100
AcDbLine
 10
1183.8271832298
 20
156.6708250463
 30
0.0
 11
1179.8449969124
 21
155.9686525286
 31
0.0
  0
ARC
  5
1E2
330
1F
100
AcDbEntity
  8
0
  6
CONTINUOUS
 62
     7
100
AcDbCircle
 10
1179.6713269063
 20
156.9534550333
 30
0.0
 40
0.9999999999999855
100
AcDbArc
 50
207.6004769063
 51
280.0000485891
  0
ARC
  5
1E3
330
1F
100
AcDbEntity
  8
0
  6
CONTINUOUS
 62
     7
100
AcDbCircle
 10
692.822163994
 20
71.1088155586
 30
0.0
 40
1.000000000000005
100
AcDbArc
 50
280.0000485891
 51
352.3995433346
  0
LINE
  5
1E4
330
1F
100
AcDbEntity
  8
0
  6
CONTINUOUS
 62
     7
100
AcDbLine
 10
692.9958081077
 20
70.1240091145
 30
0.0
 11
689.0136217903
 21
69.4218365968
 31
0.0
  0
ARC
  5
1E5
330
1F
100
AcDbEntity
  8
0
  6
CONTINUOUS
 62
     7
100
AcDbCircle
 10
688.8399597968
 20
70.4066420339
 30
0.0
 40
0.9999999999999855
100
AcDbArc
 50
207.6004769063
 51
280.0000485891
  0
ARC
  5
1E6
330
1F
100
AcDbEntity
  8
0
  6
CONTINUOUS
 62
     7
100
AcDbCircle
 10
688.8399608716
 20
721.8821572127
 30
0.0
 40
0.9999999999999921
100
AcDbArc
 50
80.0000485891
 51
152.3995433346
  0
LINE
  5
1E7
330
1F
100
AcDbEntity
  8
0
  6
CONTINUOUS
 62
     7
100
AcDbLine
 10
689.0136217903
 20
722.8669835747
 30
0.0
 11
692.9958081077
 21
722.1647812546
 31
0.0
  0
ARC
  5
1E8
330
1F
100
AcDbEntity
  8
0
  6
CONTINUOUS
 62
     7
100
AcDbCircle
 10
692.8221662598
 20
721.1799904421
 30
0.0
 40
1.000000000000066
100
AcDbArc
 50
7.6004769063
 51
80.0000485891
  0
ARC
  5
1E9
330
1F
100
AcDbEntity
  8
0
  6
CONTINUOUS
 62
     7
100
AcDbCircle
 10
1179.6713279811
 20
635.3353442133
 30
0.0
 40
1.000000000000145
100
AcDbArc
 50
80.0000485891
 51
152.3995433346
  0
LINE
  5
1EA
330
1F
100
AcDbEntity
  8
0
  6
CONTINUOUS
 62
     7
100
AcDbLine
 10
1179.8449969124
 20
636.3201452911
 30
0.0
 11
1183.8271832298
 21
635.6180025757
 31
0.0
  0
ARC
  5
1EB
330
1F
100
AcDbEntity
  8
0
  6
CONTINUOUS
 62
     7
100
AcDbCircle
 10
1183.6535333693
 20
634.6331774427
 30
0.0
 40
0.9999999999999527
100
AcDbArc
 50
7.6004769063
 51
80.0000485891
  0
LINE
  5
1EC
330
1F
100
AcDbEntity
  8
0
  6
CONTINUOUS
 62
     7
100
AcDbLine
 10
639.4282793831
 20
719.2524387062
 30
0.0
 11
639.4282793831
 21
732.1280552566
 31
0.0
  0
LINE
  5
1ED
330
1F
100
AcDbEntity
  8
0
  6
CONTINUOUS
 62
     7
100
AcDbLine
 10
639.4282793831
 20
60.1607388378
 30
0.0
 11
639.4282793831
 21
73.0363442123
 31
0.0
  0
ARC
  5
1EE
330
1F
100
AcDbEntity
  8
0
  6
CONTINUOUS
 62
     7
100
AcDbCircle
 10
1174.2034746159
 20
154.0948729844
 30
0.0
 40
5.170000000000188
100
AcDbArc
 50
27.6004769063
 51
186.0551898611
  0
ARC
  5
1EF
330
1F
100
AcDbEntity
  8
0
  6
CONTINUOUS
 62
     7
100
AcDbCircle
 10
1174.2034746809
 20
638.1939243306
 30
0.0
 40
5.170000000000063
100
AcDbArc
 50
173.9447482422
 51
332.3995433346
  0
ARC
  5
1F0
330
1F
100
AcDbEntity
  8
0
  6
CONTINUOUS
 62
     7
100
AcDbCircle
 10
1189.7693264602
 20
635.4492502759
 30
0.0
 40
5.16999999999997
100
AcDbArc
 50
187.6004769063
 51
346.0551905846
  0
ARC
  5
1F1
330
1F
100
AcDbEntity
  8
0
  6
CONTINUOUS
 62
     7
100
AcDbCircle
 10
1189.7693244827
 20
156.8395578853
 30
0.0
 40
5.169999999999975
100
AcDbArc
 50
13.9447482422
 51
172.3995433346
  0
LINE
  5
1F2
330
1F
100
AcDbEntity
  8
0
  6
CONTINUOUS
 62
     7
100
AcDbLine
 10
1221.4282965492
 20
629.5057846725
 30
0.0
 11
1221.4282965492
 21
616.6301681221
 31
0.0
  0
LINE
  5
1F3
330
1F
100
AcDbEntity
  8
0
  6
CONTINUOUS
 62
     7
100
AcDbLine
 10
1221.4282965492
 20
175.6586445988
 30
0.0
 11
1221.4282965492
 21
162.7830429495
 31
0.0
  0
ARC
  5
1F4
330
1F
100
AcDbEntity
  8
0
  6
CONTINUOUS
 62
     7
100
AcDbCircle
 10
698.9379573732
 20
70.2927448859
 30
0.0
 40
5.170000000000042
100
AcDbArc
 50
13.9447482422
 51
172.3995433346
  0
ARC
  5
1F5
330
1F
100
AcDbEntity
  8
0
  6
CONTINUOUS
 62
     7
100
AcDbCircle
 10
698.9379593507
 20
721.9960632754
 30
0.0
 40
5.169999999999955
100
AcDbArc
 50
187.6004769063
 51
346.0551905845
  0
ARC
  5
1F6
330
1F
100
AcDbEntity
  8
0
  6
CONTINUOUS
 62
     7
100
AcDbCircle
 10
683.3721075064
 20
67.5480599849
 30
0.0
 40
5.169999999999987
100
AcDbArc
 50
27.6004769063
 51
186.0551898611
  0
ARC
  5
1F7
330
1F
100
AcDbEntity
  8
0
  6
CONTINUOUS
 62
     7
100
AcDbCircle
 10
683.3721075714
 20
724.74073733
 30
0.0
 40
5.170000000000131
100
AcDbArc
 50
173.9447482422
 51
332.3995433346
  0
LINE
  5
1F8
330
1F
100
AcDbEntity
  8
0
  6
CONTINUOUS
 62
     7
100
AcDbLine
 10
1959.8683333229
 20
68.5724033535
 30
0.0
 11
1959.8683333229
 21
30.0712617606
 31
0.0
  0
LINE
  5
1F9
330
1F
100
AcDbEntity
  8
0
  6
CONTINUOUS
 62
     7
100
AcDbLine
 10
1959.8683333229
 20
68.5724033535
 30
0.0
 11
2281.8683600258
 21
68.5724033535
 31
0.0
  0
LINE
  5
1FA
330
1F
100
AcDbEntity
  8
0
  6
CONTINUOUS
 62
     7
100
AcDbLine
 10
2281.8683600258
 20
30.0712617606
 30
0.0
 11
2281.8683600258
 21
68.5724033535
 31
0.0
  0
LINE
  5
1FB
330
1F
100
AcDbEntity
  8
0
  6
CONTINUOUS
 62
     7
100
AcDbLine
 10
1959.8683333229
 20
30.0712617606
 30
0.0
 11
2281.8683600258
 21
30.0712617606
 31
0.0
  0
LINE
  5
1FC
330
1F
100
AcDbEntity
  8
0
  6
CONTINUOUS
 62
     7
100
AcDbLine
 10
2281.8683600258
 20
618.9336492241
 30
0.0
 11
1959.8683333229
 21
618.9336492241
 31
0.0
  0
LINE
  5
1FD
330
1F
100
AcDbEntity
  8
0
  6
CONTINUOUS
 62
     7
100
AcDbLine
 10
2281.8683600258
 20
80.9275223434
 30
0.0
 11
1959.8683333229
 21
80.9275223434
 31
0.0
  0
LINE
  5
1FE
330
1F
100
AcDbEntity
  8
0
  6
CONTINUOUS
 62
     7
100
AcDbLine
 10
1959.8683333229
 20
618.9336492241
 30
0.0
 11
1959.8683333229
 21
80.9275223434
 31
0.0
  0
LINE
  5
1FF
330
1F
100
AcDbEntity
  8
0
  6
CONTINUOUS
 62
     7
100
AcDbLine
 10
2281.8683600258
 20
80.9275223434
 30
0.0
 11
2281.8683600258
 21
618.9336492241
 31
0.0
  0
LINE
  5
200
330
1F
100
AcDbEntity
  8
0
  6
CONTINUOUS
 62
     7
100
AcDbLine
 10
1959.8683333229
 20
68.5724033535
 30
0.0
 11
1959.8683333229
 21
80.9275223434
 31
0.0
  0
LINE
  5
201
330
1F
100
AcDbEntity
  8
0
  6
CONTINUOUS
 62
     7
100
AcDbLine
 10
2281.8683600258
 20
80.9275223434
 30
0.0
 11
2281.8683600258
 21
68.5724033535
 31
0.0
  0
LINE
  5
202
330
1F
100
AcDbEntity
  8
0
  6
CONTINUOUS
 62
     7
100
AcDbLine
 10
1606.3882326912
 20
30.0712617606
 30
0.0
 11
1928.388259394
 21
30.0712617606
 31
0.0
  0
LINE
  5
203
330
1F
100
AcDbEntity
  8
0
  6
CONTINUOUS
 62
     7
100
AcDbLine
 10
1606.3882326912
 20
68.5724033535
 30
0.0
 11
1606.3882326912
 21
30.0712617606
 31
0.0
  0
LINE
  5
204
330
1F
100
AcDbEntity
  8
0
  6
CONTINUOUS
 62
     7
100
AcDbLine
 10
1928.388259394
 20
68.5724033535
 30
0.0
 11
1606.3882326912
 21
68.5724033535
 31
0.0
  0
LINE
  5
205
330
1F
100
AcDbEntity
  8
0
  6
CONTINUOUS
 62
     7
100
AcDbLine
 10
1928.388259394
 20
30.0712617606
 30
0.0
 11
1928.388259394
 21
68.5724033535
 31
0.0
  0
LINE
  5
206
330
1F
100
AcDbEntity
  8
0
  6
CONTINUOUS
 62
     7
100
AcDbLine
 10
1928.388259394
 20
618.9336492241
 30
0.0
 11
1606.3882326912
 21
618.9336492241
 31
0.0
  0
LINE
  5
207
330
1F
100
AcDbEntity
  8
0
  6
CONTINUOUS
 62
     7
100
AcDbLine
 10
1606.3882326912
 20
80.9275223434
 30
0.0
 11
1928.388259394
 21
80.9275223434
 31
0.0
  0
LINE
  5
208
330
1F
100
AcDbEntity
  8
0
  6
CONTINUOUS
 62
     7
100
AcDbLine
 10
1606.3882326912
 20
618.9336492241
 30
0.0
 11
1606.3882326912
 21
80.9275223434
 31
0.0
  0
LINE
  5
209
330
1F
100
AcDbEntity
  8
0
  6
CONTINUOUS
 62
     7
100
AcDbLine
 10
1928.388259394
 20
80.9275223434
 30
0.0
 11
1928.388259394
 21
618.9336492241
 31
0.0
  0
LINE
  5
20A
330
1F
100
AcDbEntity
  8
0
  6
CONTINUOUS
 62
     7
100
AcDbLine
 10
1606.3882326912
 20
68.5724033535
 30
0.0
 11
1606.3882326912
 21
80.9275223434
 31
0.0
  0
LINE
  5
20B
330
1F
100
AcDbEntity
  8
0
  6
CONTINUOUS
 62
     7
100
AcDbLine
 10
1928.388259394
 20
80.9275223434
 30
0.0
 11
1928.388259394
 21
68.5724033535
 31
0.0
  0
LINE
  5
20C
330
1F
100
AcDbEntity
  8
0
  6
CONTINUOUS
 62
     7
100
AcDbLine
 10
1252.9082512687
 20
30.0712617606
 30
0.0
 11
1574.9082779716
 21
30.0712617606
 31
0.0
  0
LINE
  5
20D
330
1F
100
AcDbEntity
  8
0
  6
CONTINUOUS
 62
     7
100
AcDbLine
 10
1252.9082512687
 20
502.071262759
 30
0.0
 11
1252.9082512687
 21
30.0712617606
 31
0.0
  0
LINE
  5
20E
330
1F
100
AcDbEntity
  8
0
  6
CONTINUOUS
 62
     7
100
AcDbLine
 10
1574.9082779716
 20
502.071262759
 30
0.0
 11
1252.9082512687
 21
502.071262759
 31
0.0
  0
LINE
  5
20F
330
1F
100
AcDbEntity
  8
0
  6
CONTINUOUS
 62
     7
100
AcDbLine
 10
1574.9082779716
 20
30.0712617606
 30
0.0
 11
1574.9082779716
 21
502.071262759
 31
0.0
  0
LINE
  5
210
330
1F
100
AcDbEntity
  8
POCKETS
100
AcDbLine
 10
1938.3882800697
 20
80.9275223222
 30
0.0
 11
1596.3882800697
 21
80.9275223222
 31
0.0
  0
LINE
  5
211
330
1F
100
AcDbEntity
  8
POCKETS
100
AcDbLine
 10
1596.3882800697
 20
80.9275223222
 30
0.0
 11
1596.3882800697
 21
68.5724029796
 31
0.0
  0
LINE
  5
212
330
1F
100
AcDbEntity
  8
POCKETS
100
AcDbLine
 10
1596.3882800697
 20
68.5724029796
 30
0.0
 11
1938.3882800697
 21
68.5724029796
 31
0.0
  0
LINE
  5
213
330
1F
100
AcDbEntity
  8
PROFILES_OUTSIDE
100
AcDbLine
 10
607.9482800697
 20
581.6116341129
 30
0.0
 11
607.9482800697
 21
656.5770363258
 31
0.0
  0
LINE
  5
214
330
1F
100
AcDbEntity
  8
PROFILES_OUTSIDE
100
AcDbLine
 10
607.9482800697
 20
656.5770363258
 30
0.0
 11
25.9482800697
 21
759.1993390981
 31
0.0
  0
LINE
  5
215
330
1F
100
AcDbEntity
  8
PROFILES_OUTSIDE
100
AcDbLine
 10
25.9482800697
 20
759.1993390981
 30
0.0
 11
25.9482800697
 21
33.0894638201
 31
0.0
  0
LINE
  5
216
330
1F
100
AcDbEntity
  8
PROFILES_OUTSIDE
100
AcDbLine
 10
25.9482800697
 20
33.0894638201
 30
0.0
 11
607.9482800697
 21
135.7117665924
 31
0.0
  0
LINE
  5
217
330
1F
100
AcDbEntity
  8
POCKETS
100
AcDbLine
 10
1938.3882800697
 20
68.5724029796
 30
0.0
 11
1938.3882800697
 21
80.9275223222
 31
0.0
  0
LINE
  5
218
330
1F
100
AcDbEntity
  8
PROFILES_OUTSIDE
100
AcDbLine
 10
607.9482800697
 20
135.7117665924
 30
0.0
 11
607.9482800697
 21
210.6771688053
 31
0.0
  0
LINE
  5
219
330
1F
100
AcDbEntity
  8
PROFILES_OUTSIDE
100
AcDbLine
 10
602.9901691357
 20
216.5860153234
 30
0.0
 11
592.9063910037
 21
218.3640574755
 31
0.0
  0
LINE
  5
21A
330
1F
100
AcDbEntity
  8
PROFILES_OUTSIDE
100
AcDbLine
 10
587.9482800697
 20
224.2729039936
 30
0.0
 11
587.9482800697
 21
568.0158989246
 31
0.0
  0
LINE
  5
21B
330
1F
100
AcDbEntity
  8
PROFILES_OUTSIDE
100
AcDbLine
 10
592.9063910037
 20
573.9247454426
 30
0.0
 11
602.9901691357
 21
575.7027875948
 31
0.0
  0
LINE
  5
21C
330
1F
100
AcDbEntity
  8
PROFILES_INSIDE
100
AcDbLine
 10
581.2673939344
 20
637.2081489147
 30
0.0
 11
582.2077744388
 21
642.5413117723
 31
0.0
  0
LINE
  5
21D
330
1F
100
AcDbEntity
  8
PROFILES_INSIDE
100
AcDbLine
 10
566.3649753237
 20
636.3201521136
 30
0.0
 11
570.3471807118
 21
635.617985343
 31
0.0
  0
LINE
  5
21E
330
1F
100
AcDbEntity
  8
PROFILES_INSIDE
100
AcDbLine
 10
557.5875806135
 20
646.8825240755
 30
0.0
 11
556.6471987647
 21
641.549345732
 31
0.0
  0
LINE
  5
21F
330
1F
100
AcDbEntity
  8
PROFILES_INSIDE
100
AcDbLine
 10
572.4899992242
 20
647.7705130152
 30
0.0
 11
568.5077936101
 21
648.472678504
 31
0.0
  0
LINE
  5
220
330
1F
100
AcDbEntity
  8
PROFILES_OUTSIDE
100
AcDbLine
 10
1574.9082800697
 20
30.0712622726
 30
0.0
 11
1574.9082800697
 21
502.0712622726
 31
0.0
  0
LINE
  5
221
330
1F
100
AcDbEntity
  8
PROFILES_OUTSIDE
100
AcDbLine
 10
1574.9082800697
 20
502.0712622726
 30
0.0
 11
1252.9082800697
 21
502.0712622726
 31
0.0
  0
LINE
  5
222
330
1F
100
AcDbEntity
  8
PROFILES_OUTSIDE
100
AcDbLine
 10
1252.9082800697
 20
502.0712622726
 30
0.0
 11
1252.9082800697
 21
30.0712622726
 31
0.0
  0
LINE
  5
223
330
1F
100
AcDbEntity
  8
PROFILES_OUTSIDE
100
AcDbLine
 10
1252.9082800697
 20
30.0712622726
 30
0.0
 11
1574.9082800697
 21
30.0712622726
 31
0.0
  0
LINE
  5
224
330
1F
100
AcDbEntity
  8
PROFILES_OUTSIDE
100
AcDbLine
 10
1928.3882800697
 20
618.9336266216
 30
0.0
 11
1606.3882800697
 21
618.9336266216
 31
0.0
  0
LINE
  5
225
330
1F
100
AcDbEntity
  8
PROFILES_OUTSIDE
100
AcDbLine
 10
1606.3882800697
 20
618.9336266216
 30
0.0
 11
1606.3882800697
 21
30.0712622726
 31
0.0
  0
LINE
  5
226
330
1F
100
AcDbEntity
  8
PROFILES_OUTSIDE
100
AcDbLine
 10
1606.3882800697
 20
30.0712622726
 30
0.0
 11
1928.3882800697
 21
30.0712622726
 31
0.0
  0
LINE
  5
227
330
1F
100
AcDbEntity
  8
PROFILES_OUTSIDE
100
AcDbLine
 10
1928.3882800697
 20
30.0712622726
 30
0.0
 11
1928.3882800697
 21
618.9336266216
 31
0.0
  0
LINE
  5
228
330
1F
100
AcDbEntity
  8
PROFILES_OUTSIDE
100
AcDbLine
 10
1959.8682800697
 20
618.9336266216
 30
0.0
 11
1959.8682800697
 21
30.0712622726
 31
0.0
  0
LINE
  5
229
330
1F
100
AcDbEntity
  8
PROFILES_OUTSIDE
100
AcDbLine
 10
1959.8682800697
 20
30.0712622726
 30
0.0
 11
2281.8682800697
 21
30.0712622726
 31
0.0
  0
LINE
  5
22A
330
1F
100
AcDbEntity
  8
BOX_STOCK
100
AcDbLine
 10
0.2082800697
 20
4.3312622726
 30
0.0
 11
2440.2082800697
 21
4.3312622726
 31
0.0
  0
LINE
  5
22B
330
1F
100
AcDbEntity
  8
BOX_STOCK
100
AcDbLine
 10
2440.2082800697
 20
4.3312622726
 30
0.0
 11
2440.2082800697
 21
1224.3312622726
 31
0.0
  0
LINE
  5
22C
330
1F
100
AcDbEntity
  8
BOX_STOCK
100
AcDbLine
 10
2440.2082800697
 20
1224.3312622726
 30
0.0
 11
0.2082800697
 21
1224.3312622726
 31
0.0
  0
LINE
  5
22D
330
1F
100
AcDbEntity
  8
BOX_STOCK
100
AcDbLine
 10
0.2082800697
 20
1224.3312622726
 30
0.0
 11
0.2082800697
 21
4.3312622726
 31
0.0
  0
LINE
  5
22E
330
1F
100
AcDbEntity
  8
POCKETS
100
AcDbLine
 10
2291.8682800697
 20
80.9275223222
 30
0.0
 11
1949.8682800697
 21
80.9275223222
 31
0.0
  0
LINE
  5
22F
330
1F
100
AcDbEntity
  8
PROFILES_OUTSIDE
100
AcDbLine
 10
2281.8682800697
 20
30.0712622726
 30
0.0
 11
2281.8682800697
 21
618.9336266216
 31
0.0
  0
LINE
  5
230
330
1F
100
AcDbEntity
  8
POCKETS
100
AcDbLine
 10
1949.8682800697
 20
80.9275223222
 30
0.0
 11
1949.8682800697
 21
68.5724029796
 31
0.0
  0
LINE
  5
231
330
1F
100
AcDbEntity
  8
POCKETS
100
AcDbLine
 10
1949.8682800697
 20
68.5724029796
 30
0.0
 11
2291.8682800697
 21
68.5724029796
 31
0.0
  0
LINE
  5
232
330
1F
100
AcDbEntity
  8
POCKETS
100
AcDbLine
 10
2291.8682800697
 20
68.5724029796
 30
0.0
 11
2291.8682800697
 21
80.9275223222
 31
0.0
  0
LINE
  5
233
330
1F
100
AcDbEntity
  8
PROFILES_OUTSIDE
100
AcDbLine
 10
2281.8682800697
 20
618.9336266216
 30
0.0
 11
1959.8682800697
 21
618.9336266216
 31
0.0
  0
LINE
  5
234
330
1F
100
AcDbEntity
  8
PROFILES_INSIDE
100
AcDbLine
 10
90.2936236238
 20
723.7800714407
 30
0.0
 11
91.2340041281
 21
729.1132342983
 31
0.0
  0
LINE
  5
235
330
1F
100
AcDbEntity
  8
PROFILES_INSIDE
100
AcDbLine
 10
81.5162289136
 20
734.3424355411
 30
0.0
 11
77.5340234433
 21
735.0446018456
 31
0.0
  0
LINE
  5
236
330
1F
100
AcDbEntity
  8
PROFILES_INSIDE
100
AcDbLine
 10
66.6138101864
 20
733.454446622
 30
0.0
 11
65.6734284541
 21
728.1212682579
 31
0.0
  0
LINE
  5
237
330
1F
100
AcDbEntity
  8
PROFILES_INSIDE
100
AcDbLine
 10
75.391205013
 20
722.8920746395
 30
0.0
 11
79.3734104012
 21
722.1899078689
 31
0.0
  0
LINE
  5
238
330
1F
100
AcDbEntity
  8
PROFILES_INSIDE
100
AcDbLine
 10
582.2077744388
 20
149.7474911458
 30
0.0
 11
581.2673939344
 21
155.0806540035
 31
0.0
  0
LINE
  5
239
330
1F
100
AcDbEntity
  8
PROFILES_INSIDE
100
AcDbLine
 10
570.3471801164
 20
156.6708209523
 30
0.0
 11
566.3649759397
 21
155.968647311
 31
0.0
  0
LINE
  5
23A
330
1F
100
AcDbEntity
  8
PROFILES_INSIDE
100
AcDbLine
 10
556.6471971874
 20
150.7394569081
 30
0.0
 11
557.5875819578
 21
145.4062790797
 31
0.0
  0
LINE
  5
23B
330
1F
100
AcDbEntity
  8
PROFILES_INSIDE
100
AcDbLine
 10
568.5077944315
 20
143.8161197554
 30
0.0
 11
572.4899986288
 21
144.5182932801
 31
0.0
  0
LINE
  5
23C
330
1F
100
AcDbEntity
  8
PROFILES_INSIDE
100
AcDbLine
 10
65.6734271098
 20
64.1675344233
 30
0.0
 11
66.6138116472
 21
58.8343565538
 31
0.0
  0
LINE
  5
23D
330
1F
100
AcDbEntity
  8
PROFILES_INSIDE
100
AcDbLine
 10
77.5340241209
 20
57.2441972294
 30
0.0
 11
81.5162283181
 21
57.9463707542
 31
0.0
  0
LINE
  5
23E
330
1F
100
AcDbEntity
  8
PROFILES_INSIDE
100
AcDbLine
 10
91.2340041281
 20
63.1755686199
 30
0.0
 11
90.2936236238
 21
68.5087314775
 31
0.0
  0
LINE
  5
23F
330
1F
100
AcDbEntity
  8
PROFILES_INSIDE
100
AcDbLine
 10
79.3734098057
 20
70.0988984263
 30
0.0
 11
75.3912056085
 21
69.3967249016
 31
0.0
  0
LINE
  5
240
330
1F
100
AcDbEntity
  8
PROFILES_OUTSIDE
100
AcDbLine
 10
1695.5884479584
 20
1186.3312622726
 30
0.0
 11
1695.5884479584
 21
1197.5912622726
 31
0.0
  0
LINE
  5
241
330
1F
100
AcDbEntity
  8
PROFILES_OUTSIDE
100
AcDbLine
 10
1690.2745786291
 20
1185.9911746356
 30
0.0
 11
1695.5884479584
 21
1186.3312622726
 31
0.0
  0
LINE
  5
242
330
1F
100
AcDbEntity
  8
PROFILES_OUTSIDE
100
AcDbLine
 10
1689.3384479584
 20
1177.053540656
 30
0.0
 11
1689.3384479584
 21
1184.9932163655
 31
0.0
  0
LINE
  5
243
330
1F
100
AcDbEntity
  8
PROFILES_OUTSIDE
100
AcDbLine
 10
1701.8404479584
 20
1173.5912622726
 30
0.0
 11
1699.8166295982
 21
1173.5912622726
 31
0.0
  0
LINE
  5
244
330
1F
100
AcDbEntity
  8
PROFILES_OUTSIDE
100
AcDbLine
 10
1701.8404479584
 20
1055.5912622726
 30
0.0
 11
1701.8404479584
 21
1173.5912622726
 31
0.0
  0
LINE
  5
245
330
1F
100
AcDbEntity
  8
PROFILES_OUTSIDE
100
AcDbLine
 10
1526.9898372546
 20
1043.5912622726
 30
0.0
 11
1689.8404479584
 21
1043.5912622726
 31
0.0
  0
LINE
  5
246
330
1F
100
AcDbEntity
  8
PROFILES_OUTSIDE
100
AcDbLine
 10
1514.9898372546
 20
1005.5912622726
 30
0.0
 11
1514.9898372546
 21
1031.5912622726
 31
0.0
  0
LINE
  5
247
330
1F
100
AcDbEntity
  8
PROFILES_OUTSIDE
100
AcDbLine
 10
1689.8404479584
 20
993.5912622726
 30
0.0
 11
1526.9898372546
 21
993.5912622726
 31
0.0
  0
LINE
  5
248
330
1F
100
AcDbEntity
  8
PROFILES_INSIDE
100
AcDbLine
 10
1194.7473939344
 20
637.2081489147
 30
0.0
 11
1195.6877744387
 21
642.5413117723
 31
0.0
  0
LINE
  5
249
330
1F
100
AcDbEntity
  8
PROFILES_INSIDE
100
AcDbLine
 10
1179.8449753237
 20
636.3201521136
 30
0.0
 11
1183.8271807118
 21
635.617985343
 31
0.0
  0
LINE
  5
24A
330
1F
100
AcDbEntity
  8
PROFILES_INSIDE
100
AcDbLine
 10
1171.0675806135
 20
646.8825240755
 30
0.0
 11
1170.1271987647
 21
641.549345732
 31
0.0
  0
LINE
  5
24B
330
1F
100
AcDbEntity
  8
PROFILES_INSIDE
100
AcDbLine
 10
1185.9699992242
 20
647.7705130152
 30
0.0
 11
1181.9877936101
 21
648.472678504
 31
0.0
  0
LINE
  5
24C
330
1F
100
AcDbEntity
  8
PROFILES_INSIDE
100
AcDbLine
 10
703.9160268249
 20
723.7549619142
 30
0.0
 11
704.8564073292
 21
729.0881247718
 31
0.0
  0
LINE
  5
24D
330
1F
100
AcDbEntity
  8
PROFILES_INSIDE
100
AcDbLine
 10
695.1386321147
 20
734.3173260146
 30
0.0
 11
691.1564266443
 21
735.0194923191
 31
0.0
  0
LINE
  5
24E
330
1F
100
AcDbEntity
  8
PROFILES_INSIDE
100
AcDbLine
 10
680.2362133875
 20
733.4293370955
 30
0.0
 11
679.2958316552
 21
728.0961587314
 31
0.0
  0
LINE
  5
24F
330
1F
100
AcDbEntity
  8
PROFILES_INSIDE
100
AcDbLine
 10
689.0136082141
 20
722.866965113
 30
0.0
 11
692.9958136023
 21
722.1647983424
 31
0.0
  0
LINE
  5
250
330
1F
100
AcDbEntity
  8
PROFILES_INSIDE
100
AcDbLine
 10
1195.6877744388
 20
149.7474911458
 30
0.0
 11
1194.7473939344
 21
155.0806540035
 31
0.0
  0
LINE
  5
251
330
1F
100
AcDbEntity
  8
PROFILES_INSIDE
100
AcDbLine
 10
1183.8271801164
 20
156.6708209523
 30
0.0
 11
1179.8449759397
 21
155.968647311
 31
0.0
  0
LINE
  5
252
330
1F
100
AcDbEntity
  8
PROFILES_INSIDE
100
AcDbLine
 10
1170.1271971874
 20
150.7394569081
 30
0.0
 11
1171.0675819578
 21
145.4062790797
 31
0.0
  0
LINE
  5
253
330
1F
100
AcDbEntity
  8
PROFILES_INSIDE
100
AcDbLine
 10
1181.9877944315
 20
143.8161197554
 30
0.0
 11
1185.9699986288
 21
144.5182932801
 31
0.0
  0
LINE
  5
254
330
1F
100
AcDbEntity
  8
PROFILES_OUTSIDE
100
AcDbLine
 10
1701.8404479584
 20
863.5912622726
 30
0.0
 11
1701.8404479584
 21
981.5912622726
 31
0.0
  0
LINE
  5
255
330
1F
100
AcDbEntity
  8
PROFILES_OUTSIDE
100
AcDbLine
 10
1699.8166295982
 20
863.5912622726
 30
0.0
 11
1701.8404479584
 21
863.5912622726
 31
0.0
  0
LINE
  5
256
330
1F
100
AcDbEntity
  8
PROFILES_OUTSIDE
100
AcDbLine
 10
1689.3384479584
 20
852.1893081798
 30
0.0
 11
1689.3384479584
 21
860.1289838892
 31
0.0
  0
LINE
  5
257
330
1F
100
AcDbEntity
  8
PROFILES_OUTSIDE
100
AcDbLine
 10
1695.5884479584
 20
850.8512622726
 30
0.0
 11
1690.2745786291
 21
851.1913499097
 31
0.0
  0
LINE
  5
258
330
1F
100
AcDbEntity
  8
PROFILES_OUTSIDE
100
AcDbLine
 10
1695.5884479584
 20
839.5912622726
 30
0.0
 11
1695.5884479584
 21
850.8512622726
 31
0.0
  0
LINE
  5
259
330
1F
100
AcDbEntity
  8
PROFILES_INSIDE
100
AcDbLine
 10
679.2958303109
 20
64.1926439497
 30
0.0
 11
680.2362148483
 21
58.8594660803
 31
0.0
  0
LINE
  5
25A
330
1F
100
AcDbEntity
  8
PROFILES_INSIDE
100
AcDbLine
 10
691.156427322
 20
57.2693067559
 30
0.0
 11
695.1386315192
 21
57.9714802807
 31
0.0
  0
LINE
  5
25B
330
1F
100
AcDbEntity
  8
PROFILES_INSIDE
100
AcDbLine
 10
704.8564073292
 20
63.2006781464
 30
0.0
 11
703.9160268249
 21
68.533841004
 31
0.0
  0
LINE
  5
25C
330
1F
100
AcDbEntity
  8
PROFILES_INSIDE
100
AcDbLine
 10
692.9958130068
 20
70.1240079528
 30
0.0
 11
689.0136088096
 21
69.4218344281
 31
0.0
  0
LINE
  5
25D
330
1F
100
AcDbEntity
  8
PROFILES_OUTSIDE
100
AcDbLine
 10
639.4282800697
 20
752.0488175426
 30
0.0
 11
639.4282800697
 21
40.2399853756
 31
0.0
  0
LINE
  5
25E
330
1F
100
AcDbEntity
  8
PROFILES_OUTSIDE
100
AcDbLine
 10
1216.4701691357
 20
657.4512850568
 30
0.0
 11
646.4701691357
 21
757.9576640606
 31
0.0
  0
LINE
  5
25F
330
1F
100
AcDbEntity
  8
PROFILES_OUTSIDE
100
AcDbLine
 10
1221.4282800697
 20
581.6116341129
 30
0.0
 11
1221.4282800697
 21
651.5424385387
 31
0.0
  0
LINE
  5
260
330
1F
100
AcDbEntity
  8
PROFILES_OUTSIDE
100
AcDbLine
 10
1206.3863910037
 20
573.9247454426
 30
0.0
 11
1216.4701691357
 21
575.7027875948
 31
0.0
  0
LINE
  5
261
330
1F
100
AcDbEntity
  8
POCKETS
100
AcDbLine
 10
618.0721518554
 20
177.443761249
 30
0.0
 11
608.2240743253
 21
175.7072794724
 31
0.0
  0
LINE
  5
262
330
1F
100
AcDbEntity
  8
PROFILES_OUTSIDE
100
AcDbLine
 10
1682.8384479584
 20
838.5912622726
 30
0.0
 11
1694.5884479584
 21
838.5912622726
 31
0.0
  0
LINE
  5
263
330
1F
100
AcDbEntity
  8
PROFILES_OUTSIDE
100
AcDbLine
 10
1676.8384479584
 20
962.5412622726
 30
0.0
 11
1676.8384479584
 21
844.5912622726
 31
0.0
  0
LINE
  5
264
330
1F
100
AcDbEntity
  8
PROFILES_OUTSIDE
100
AcDbLine
 10
1514.9898372546
 20
974.5412622726
 30
0.0
 11
1664.8384479584
 21
974.5412622726
 31
0.0
  0
LINE
  5
265
330
1F
100
AcDbEntity
  8
PROFILES_OUTSIDE
100
AcDbLine
 10
1373.1347944351
 20
993.5912622726
 30
0.0
 11
1481.9942693705
 21
993.5912622726
 31
0.0
  0
LINE
  5
266
330
1F
100
AcDbEntity
  8
PROFILES_OUTSIDE
100
AcDbLine
 10
1190.2906158471
 20
974.5412622726
 30
0.0
 11
1340.1392265509
 21
974.5412622726
 31
0.0
  0
LINE
  5
267
330
1F
100
AcDbEntity
  8
PROFILES_OUTSIDE
100
AcDbLine
 10
1178.2906158471
 20
844.5912622726
 30
0.0
 11
1178.2906158471
 21
962.5412622726
 31
0.0
  0
LINE
  5
268
330
1F
100
AcDbEntity
  8
PROFILES_OUTSIDE
100
AcDbLine
 10
1160.5406158471
 20
838.5912622726
 30
0.0
 11
1172.2906158471
 21
838.5912622726
 31
0.0
  0
LINE
  5
269
330
1F
100
AcDbEntity
  8
PROFILES_OUTSIDE
100
AcDbLine
 10
1159.5406158471
 20
850.8512622726
 30
0.0
 11
1159.5406158471
 21
839.5912622726
 31
0.0
  0
LINE
  5
26A
330
1F
100
AcDbEntity
  8
PROFILES_OUTSIDE
100
AcDbLine
 10
1164.8544851764
 20
851.1913499097
 30
0.0
 11
1159.5406158471
 21
850.8512622726
 31
0.0
  0
LINE
  5
26B
330
1F
100
AcDbEntity
  8
PROFILES_OUTSIDE
100
AcDbLine
 10
1165.7906158471
 20
860.1289838892
 30
0.0
 11
1165.7906158471
 21
852.1893081798
 31
0.0
  0
LINE
  5
26C
330
1F
100
AcDbEntity
  8
PROFILES_OUTSIDE
100
AcDbLine
 10
1153.2886158471
 20
863.5912622726
 30
0.0
 11
1155.3124342074
 21
863.5912622726
 31
0.0
  0
LINE
  5
26D
330
1F
100
AcDbEntity
  8
PROFILES_OUTSIDE
100
AcDbLine
 10
1153.2886158471
 20
981.5912622726
 30
0.0
 11
1153.2886158471
 21
863.5912622726
 31
0.0
  0
LINE
  5
26E
330
1F
100
AcDbEntity
  8
PROFILES_OUTSIDE
100
AcDbLine
 10
1328.1392265509
 20
993.5912622726
 30
0.0
 11
1165.2886158471
 21
993.5912622726
 31
0.0
  0
LINE
  5
26F
330
1F
100
AcDbEntity
  8
PROFILES_OUTSIDE
100
AcDbLine
 10
1340.1392265509
 20
1031.5912622726
 30
0.0
 11
1340.1392265509
 21
1005.5912622726
 31
0.0
  0
LINE
  5
270
330
1F
100
AcDbEntity
  8
PROFILES_OUTSIDE
100
AcDbLine
 10
1165.2886158471
 20
1043.5912622726
 30
0.0
 11
1328.1392265509
 21
1043.5912622726
 31
0.0
  0
LINE
  5
271
330
1F
100
AcDbEntity
  8
PROFILES_OUTSIDE
100
AcDbLine
 10
1153.2886158471
 20
1173.5912622726
 30
0.0
 11
1153.2886158471
 21
1055.5912622726
 31
0.0
  0
LINE
  5
272
330
1F
100
AcDbEntity
  8
PROFILES_OUTSIDE
100
AcDbLine
 10
1201.4282800697
 20
224.2729039936
 30
0.0
 11
1201.4282800697
 21
568.0158989246
 31
0.0
  0
LINE
  5
273
330
1F
100
AcDbEntity
  8
POCKETS
100
AcDbLine
 10
620.2740107483
 20
164.9563989408
 30
0.0
 11
618.0721518554
 21
177.443761249
 31
0.0
  0
LINE
  5
274
330
1F
100
AcDbEntity
  8
PROFILES_OUTSIDE
100
AcDbLine
 10
1216.4701691357
 20
216.5860153234
 30
0.0
 11
1206.3863910037
 21
218.3640574755
 31
0.0
  0
LINE
  5
275
330
1F
100
AcDbEntity
  8
POCKETS
100
AcDbLine
 10
610.4259332181
 20
163.2199171642
 30
0.0
 11
620.2740107483
 21
164.9563989408
 31
0.0
  0
LINE
  5
276
330
1F
100
AcDbEntity
  8
POCKETS
100
AcDbLine
 10
25.6724858141
 20
60.1121073245
 30
0.0
 11
610.4259332181
 21
163.2199171642
 31
0.0
  0
LINE
  5
277
330
1F
100
AcDbEntity
  8
POCKETS
100
AcDbLine
 10
15.824408284
 20
58.3756255479
 30
0.0
 11
25.6724858141
 21
60.1121073245
 31
0.0
  0
LINE
  5
278
330
1F
100
AcDbEntity
  8
POCKETS
100
AcDbLine
 10
13.6225493911
 20
70.8629878561
 30
0.0
 11
15.824408284
 21
58.3756255479
 31
0.0
  0
LINE
  5
279
330
1F
100
AcDbEntity
  8
POCKETS
100
AcDbLine
 10
23.4706269213
 20
72.5994696327
 30
0.0
 11
13.6225493911
 21
70.8629878561
 31
0.0
  0
LINE
  5
27A
330
1F
100
AcDbEntity
  8
POCKETS
100
AcDbLine
 10
555.6082800697
 20
166.4296953337
 30
0.0
 11
23.4706269213
 21
72.5994696327
 31
0.0
  0
LINE
  5
27B
330
1F
100
AcDbEntity
  8
POCKETS
100
AcDbLine
 10
555.6082800697
 20
625.8591075845
 30
0.0
 11
555.6082800697
 21
166.4296953337
 31
0.0
  0
LINE
  5
27C
330
1F
100
AcDbEntity
  8
POCKETS
100
AcDbLine
 10
23.4706269213
 20
719.6893332854
 30
0.0
 11
555.6082800697
 21
625.8591075845
 31
0.0
  0
LINE
  5
27D
330
1F
100
AcDbEntity
  8
POCKETS
100
AcDbLine
 10
13.6225493911
 20
721.4258150621
 30
0.0
 11
23.4706269213
 21
719.6893332854
 31
0.0
  0
LINE
  5
27E
330
1F
100
AcDbEntity
  8
POCKETS
100
AcDbLine
 10
15.824408284
 20
733.9131773703
 30
0.0
 11
13.6225493911
 21
721.4258150621
 31
0.0
  0
LINE
  5
27F
330
1F
100
AcDbEntity
  8
POCKETS
100
AcDbLine
 10
25.6724858141
 20
732.1766955936
 30
0.0
 11
15.824408284
 21
733.9131773703
 31
0.0
  0
LINE
  5
280
330
1F
100
AcDbEntity
  8
POCKETS
100
AcDbLine
 10
610.4259332181
 20
629.068885754
 30
0.0
 11
25.6724858141
 21
732.1766955936
 31
0.0
  0
LINE
  5
281
330
1F
100
AcDbEntity
  8
POCKETS
100
AcDbLine
 10
620.2740107483
 20
627.3324039773
 30
0.0
 11
610.4259332181
 21
629.068885754
 31
0.0
  0
LINE
  5
282
330
1F
100
AcDbEntity
  8
POCKETS
100
AcDbLine
 10
618.0721518554
 20
614.8450416692
 30
0.0
 11
620.2740107483
 21
627.3324039773
 31
0.0
  0
LINE
  5
283
330
1F
100
AcDbEntity
  8
POCKETS
100
AcDbLine
 10
608.2240743253
 20
616.5815234458
 30
0.0
 11
618.0721518554
 21
614.8450416692
 31
0.0
  0
LINE
  5
284
330
1F
100
AcDbEntity
  8
POCKETS
100
AcDbLine
 10
567.9482800697
 20
623.6832326426
 30
0.0
 11
608.2240743253
 21
616.5815234458
 31
0.0
  0
LINE
  5
285
330
1F
100
AcDbEntity
  8
PROFILES_OUTSIDE
100
AcDbLine
 10
1155.3124342074
 20
1173.5912622726
 30
0.0
 11
1153.2886158471
 21
1173.5912622726
 31
0.0
  0
LINE
  5
286
330
1F
100
AcDbEntity
  8
PROFILES_OUTSIDE
100
AcDbLine
 10
1165.7906158471
 20
1184.9932163655
 30
0.0
 11
1165.7906158471
 21
1177.053540656
 31
0.0
  0
LINE
  5
287
330
1F
100
AcDbEntity
  8
PROFILES_OUTSIDE
100
AcDbLine
 10
1159.5406158471
 20
1186.3312622726
 30
0.0
 11
1164.8544851764
 21
1185.9911746356
 31
0.0
  0
LINE
  5
288
330
1F
100
AcDbEntity
  8
PROFILES_OUTSIDE
100
AcDbLine
 10
1159.5406158471
 20
1197.5912622726
 30
0.0
 11
1159.5406158471
 21
1186.3312622726
 31
0.0
  0
LINE
  5
289
330
1F
100
AcDbEntity
  8
PROFILES_OUTSIDE
100
AcDbLine
 10
1172.2906158471
 20
1198.5912622726
 30
0.0
 11
1160.5406158471
 21
1198.5912622726
 31
0.0
  0
LINE
  5
28A
330
1F
100
AcDbEntity
  8
PROFILES_OUTSIDE
100
AcDbLine
 10
1178.2906158471
 20
1074.6412622726
 30
0.0
 11
1178.2906158471
 21
1192.5912622726
 31
0.0
  0
LINE
  5
28B
330
1F
100
AcDbEntity
  8
PROFILES_OUTSIDE
100
AcDbLine
 10
1340.1392265509
 20
1062.6412622726
 30
0.0
 11
1190.2906158471
 21
1062.6412622726
 31
0.0
  0
LINE
  5
28C
330
1F
100
AcDbEntity
  8
PROFILES_OUTSIDE
100
AcDbLine
 10
1481.9942693705
 20
1043.5912622726
 30
0.0
 11
1373.1347944351
 21
1043.5912622726
 31
0.0
  0
LINE
  5
28D
330
1F
100
AcDbEntity
  8
PROFILES_OUTSIDE
100
AcDbLine
 10
1664.8384479584
 20
1062.6412622726
 30
0.0
 11
1514.9898372546
 21
1062.6412622726
 31
0.0
  0
LINE
  5
28E
330
1F
100
AcDbEntity
  8
PROFILES_OUTSIDE
100
AcDbLine
 10
1676.8384479584
 20
1192.5912622726
 30
0.0
 11
1676.8384479584
 21
1074.6412622726
 31
0.0
  0
LINE
  5
28F
330
1F
100
AcDbEntity
  8
PROFILES_OUTSIDE
100
AcDbLine
 10
1694.5884479584
 20
1198.5912622726
 30
0.0
 11
1682.8384479584
 21
1198.5912622726
 31
0.0
  0
LINE
  5
290
330
1F
100
AcDbEntity
  8
POCKETS
100
AcDbLine
 10
567.9482800697
 20
168.6055702756
 30
0.0
 11
567.9482800697
 21
623.6832326426
 31
0.0
  0
LINE
  5
291
330
1F
100
AcDbEntity
  8
PROFILES_OUTSIDE
100
AcDbLine
 10
1739.5684479584
 20
850.8512622726
 30
0.0
 11
1739.5684479584
 21
839.5912622726
 31
0.0
  0
LINE
  5
292
330
1F
100
AcDbEntity
  8
PROFILES_OUTSIDE
100
AcDbLine
 10
1744.8823172877
 20
851.1913499097
 30
0.0
 11
1739.5684479584
 21
850.8512622726
 31
0.0
  0
LINE
  5
293
330
1F
100
AcDbEntity
  8
PROFILES_OUTSIDE
100
AcDbLine
 10
1745.8184479584
 20
860.1289838892
 30
0.0
 11
1745.8184479584
 21
852.1893081798
 31
0.0
  0
LINE
  5
294
330
1F
100
AcDbEntity
  8
PROFILES_OUTSIDE
100
AcDbLine
 10
1733.3164479584
 20
863.5912622726
 30
0.0
 11
1735.3402663186
 21
863.5912622726
 31
0.0
  0
LINE
  5
295
330
1F
100
AcDbEntity
  8
PROFILES_OUTSIDE
100
AcDbLine
 10
1733.3164479584
 20
981.5912622726
 30
0.0
 11
1733.3164479584
 21
863.5912622726
 31
0.0
  0
LINE
  5
296
330
1F
100
AcDbEntity
  8
PROFILES_OUTSIDE
100
AcDbLine
 10
1908.1670586622
 20
993.5912622726
 30
0.0
 11
1745.3164479584
 21
993.5912622726
 31
0.0
  0
LINE
  5
297
330
1F
100
AcDbEntity
  8
PROFILES_OUTSIDE
100
AcDbLine
 10
1920.1670586622
 20
1031.5912622726
 30
0.0
 11
1920.1670586622
 21
1005.5912622726
 31
0.0
  0
LINE
  5
298
330
1F
100
AcDbEntity
  8
PROFILES_OUTSIDE
100
AcDbLine
 10
1745.3164479584
 20
1043.5912622726
 30
0.0
 11
1908.1670586622
 21
1043.5912622726
 31
0.0
  0
LINE
  5
299
330
1F
100
AcDbEntity
  8
PROFILES_OUTSIDE
100
AcDbLine
 10
1733.3164479584
 20
1173.5912622726
 30
0.0
 11
1733.3164479584
 21
1055.5912622726
 31
0.0
  0
LINE
  5
29A
330
1F
100
AcDbEntity
  8
PROFILES_OUTSIDE
100
AcDbLine
 10
1735.3402663186
 20
1173.5912622726
 30
0.0
 11
1733.3164479584
 21
1173.5912622726
 31
0.0
  0
LINE
  5
29B
330
1F
100
AcDbEntity
  8
PROFILES_OUTSIDE
100
AcDbLine
 10
1745.8184479584
 20
1184.9932163655
 30
0.0
 11
1745.8184479584
 21
1177.053540656
 31
0.0
  0
LINE
  5
29C
330
1F
100
AcDbEntity
  8
PROFILES_OUTSIDE
100
AcDbLine
 10
1739.5684479584
 20
1186.3312622726
 30
0.0
 11
1744.8823172877
 21
1185.9911746356
 31
0.0
  0
LINE
  5
29D
330
1F
100
AcDbEntity
  8
PROFILES_OUTSIDE
100
AcDbLine
 10
1739.5684479584
 20
1197.5912622726
 30
0.0
 11
1739.5684479584
 21
1186.3312622726
 31
0.0
  0
LINE
  5
29E
330
1F
100
AcDbEntity
  8
PROFILES_OUTSIDE
100
AcDbLine
 10
1752.3184479584
 20
1198.5912622726
 30
0.0
 11
1740.5684479584
 21
1198.5912622726
 31
0.0
  0
LINE
  5
29F
330
1F
100
AcDbEntity
  8
PROFILES_OUTSIDE
100
AcDbLine
 10
1758.3184479584
 20
1074.6412622726
 30
0.0
 11
1758.3184479584
 21
1192.5912622726
 31
0.0
  0
LINE
  5
2A0
330
1F
100
AcDbEntity
  8
PROFILES_OUTSIDE
100
AcDbLine
 10
1920.1670586622
 20
1062.6412622726
 30
0.0
 11
1770.3184479584
 21
1062.6412622726
 31
0.0
  0
LINE
  5
2A1
330
1F
100
AcDbEntity
  8
PROFILES_OUTSIDE
100
AcDbLine
 10
2062.0221014817
 20
1043.5912622726
 30
0.0
 11
1953.1626265464
 21
1043.5912622726
 31
0.0
  0
LINE
  5
2A2
330
1F
100
AcDbEntity
  8
PROFILES_OUTSIDE
100
AcDbLine
 10
2244.8662800697
 20
1062.6412622726
 30
0.0
 11
2095.0176693659
 21
1062.6412622726
 31
0.0
  0
LINE
  5
2A3
330
1F
100
AcDbEntity
  8
PROFILES_OUTSIDE
100
AcDbLine
 10
2256.8662800697
 20
1192.5912622726
 30
0.0
 11
2256.8662800697
 21
1074.6412622726
 31
0.0
  0
LINE
  5
2A4
330
1F
100
AcDbEntity
  8
PROFILES_OUTSIDE
100
AcDbLine
 10
2274.6162800697
 20
1198.5912622726
 30
0.0
 11
2262.8662800697
 21
1198.5912622726
 31
0.0
  0
LINE
  5
2A5
330
1F
100
AcDbEntity
  8
PROFILES_OUTSIDE
100
AcDbLine
 10
2275.6162800697
 20
1186.3312622726
 30
0.0
 11
2275.6162800697
 21
1197.5912622726
 31
0.0
  0
LINE
  5
2A6
330
1F
100
AcDbEntity
  8
PROFILES_OUTSIDE
100
AcDbLine
 10
2270.3024107404
 20
1185.9911746356
 30
0.0
 11
2275.6162800697
 21
1186.3312622726
 31
0.0
  0
LINE
  5
2A7
330
1F
100
AcDbEntity
  8
PROFILES_OUTSIDE
100
AcDbLine
 10
2269.3662800697
 20
1177.053540656
 30
0.0
 11
2269.3662800697
 21
1184.9932163655
 31
0.0
  0
LINE
  5
2A8
330
1F
100
AcDbEntity
  8
PROFILES_OUTSIDE
100
AcDbLine
 10
2281.8682800697
 20
1173.5912622726
 30
0.0
 11
2279.8444617095
 21
1173.5912622726
 31
0.0
  0
LINE
  5
2A9
330
1F
100
AcDbEntity
  8
PROFILES_OUTSIDE
100
AcDbLine
 10
2281.8682800697
 20
1055.5912622726
 30
0.0
 11
2281.8682800697
 21
1173.5912622726
 31
0.0
  0
LINE
  5
2AA
330
1F
100
AcDbEntity
  8
PROFILES_OUTSIDE
100
AcDbLine
 10
2107.0176693659
 20
1043.5912622726
 30
0.0
 11
2269.8682800697
 21
1043.5912622726
 31
0.0
  0
LINE
  5
2AB
330
1F
100
AcDbEntity
  8
PROFILES_OUTSIDE
100
AcDbLine
 10
2095.0176693659
 20
1005.5912622726
 30
0.0
 11
2095.0176693659
 21
1031.5912622726
 31
0.0
  0
LINE
  5
2AC
330
1F
100
AcDbEntity
  8
PROFILES_OUTSIDE
100
AcDbLine
 10
2269.8682800697
 20
993.5912622726
 30
0.0
 11
2107.0176693659
 21
993.5912622726
 31
0.0
  0
LINE
  5
2AD
330
1F
100
AcDbEntity
  8
PROFILES_OUTSIDE
100
AcDbLine
 10
2281.8682800697
 20
863.5912622726
 30
0.0
 11
2281.8682800697
 21
981.5912622726
 31
0.0
  0
LINE
  5
2AE
330
1F
100
AcDbEntity
  8
PROFILES_OUTSIDE
100
AcDbLine
 10
2279.8444617095
 20
863.5912622726
 30
0.0
 11
2281.8682800697
 21
863.5912622726
 31
0.0
  0
LINE
  5
2AF
330
1F
100
AcDbEntity
  8
PROFILES_OUTSIDE
100
AcDbLine
 10
2269.3662800697
 20
852.1893081798
 30
0.0
 11
2269.3662800697
 21
860.1289838892
 31
0.0
  0
LINE
  5
2B0
330
1F
100
AcDbEntity
  8
PROFILES_OUTSIDE
100
AcDbLine
 10
2275.6162800697
 20
850.8512622726
 30
0.0
 11
2270.3024107404
 21
851.1913499097
 31
0.0
  0
LINE
  5
2B1
330
1F
100
AcDbEntity
  8
PROFILES_OUTSIDE
100
AcDbLine
 10
2275.6162800697
 20
839.5912622726
 30
0.0
 11
2275.6162800697
 21
850.8512622726
 31
0.0
  0
LINE
  5
2B2
330
1F
100
AcDbEntity
  8
PROFILES_OUTSIDE
100
AcDbLine
 10
2262.8662800697
 20
838.5912622726
 30
0.0
 11
2274.6162800697
 21
838.5912622726
 31
0.0
  0
LINE
  5
2B3
330
1F
100
AcDbEntity
  8
PROFILES_OUTSIDE
100
AcDbLine
 10
2256.8662800697
 20
962.5412622726
 30
0.0
 11
2256.8662800697
 21
844.5912622726
 31
0.0
  0
LINE
  5
2B4
330
1F
100
AcDbEntity
  8
PROFILES_OUTSIDE
100
AcDbLine
 10
2095.0176693659
 20
974.5412622726
 30
0.0
 11
2244.8662800697
 21
974.5412622726
 31
0.0
  0
LINE
  5
2B5
330
1F
100
AcDbEntity
  8
PROFILES_OUTSIDE
100
AcDbLine
 10
1953.1626265464
 20
993.5912622726
 30
0.0
 11
2062.0221014817
 21
993.5912622726
 31
0.0
  0
LINE
  5
2B6
330
1F
100
AcDbEntity
  8
PROFILES_OUTSIDE
100
AcDbLine
 10
1770.3184479584
 20
974.5412622726
 30
0.0
 11
1920.1670586622
 21
974.5412622726
 31
0.0
  0
LINE
  5
2B7
330
1F
100
AcDbEntity
  8
PROFILES_OUTSIDE
100
AcDbLine
 10
1758.3184479584
 20
844.5912622726
 30
0.0
 11
1758.3184479584
 21
962.5412622726
 31
0.0
  0
LINE
  5
2B8
330
1F
100
AcDbEntity
  8
PROFILES_OUTSIDE
100
AcDbLine
 10
1740.5684479584
 20
838.5912622726
 30
0.0
 11
1752.3184479584
 21
838.5912622726
 31
0.0
  0
LINE
  5
2B9
330
1F
100
AcDbEntity
  8
POCKETS
100
AcDbLine
 10
608.2240743253
 20
175.7072794724
 30
0.0
 11
567.9482800697
 21
168.6055702756
 31
0.0
  0
LINE
  5
2BA
330
1F
100
AcDbEntity
  8
POCKETS
100
AcDbLine
 10
1181.4282800697
 20
623.6832326426
 30
0.0
 11
1221.7040743253
 21
616.5815234458
 31
0.0
  0
LINE
  5
2BB
330
1F
100
AcDbEntity
  8
POCKETS
100
AcDbLine
 10
1221.7040743253
 20
616.5815234458
 30
0.0
 11
1231.5521518554
 21
614.8450416692
 31
0.0
  0
LINE
  5
2BC
330
1F
100
AcDbEntity
  8
POCKETS
100
AcDbLine
 10
1231.5521518554
 20
614.8450416692
 30
0.0
 11
1233.7540107483
 21
627.3324039773
 31
0.0
  0
LINE
  5
2BD
330
1F
100
AcDbEntity
  8
POCKETS
100
AcDbLine
 10
1233.7540107483
 20
627.3324039773
 30
0.0
 11
1223.9059332181
 21
629.068885754
 31
0.0
  0
LINE
  5
2BE
330
1F
100
AcDbEntity
  8
POCKETS
100
AcDbLine
 10
1223.9059332181
 20
629.068885754
 30
0.0
 11
641.2362639461
 21
731.8092692872
 31
0.0
  0
LINE
  5
2BF
330
1F
100
AcDbEntity
  8
POCKETS
100
AcDbLine
 10
641.2362639461
 20
731.8092692872
 30
0.0
 11
631.388186416
 21
733.5457510638
 31
0.0
  0
LINE
  5
2C0
330
1F
100
AcDbEntity
  8
POCKETS
100
AcDbLine
 10
631.388186416
 20
733.5457510638
 30
0.0
 11
629.1863275231
 21
721.0583887556
 31
0.0
  0
LINE
  5
2C1
330
1F
100
AcDbEntity
  8
POCKETS
100
AcDbLine
 10
629.1863275231
 20
721.0583887556
 30
0.0
 11
639.0344050533
 21
719.321906979
 31
0.0
  0
LINE
  5
2C2
330
1F
100
AcDbEntity
  8
POCKETS
100
AcDbLine
 10
639.0344050533
 20
719.321906979
 30
0.0
 11
1169.0882800697
 21
625.8591075845
 31
0.0
  0
LINE
  5
2C3
330
1F
100
AcDbEntity
  8
POCKETS
100
AcDbLine
 10
1169.0882800697
 20
625.8591075845
 30
0.0
 11
1169.0882800697
 21
166.4296953337
 31
0.0
  0
LINE
  5
2C4
330
1F
100
AcDbEntity
  8
POCKETS
100
AcDbLine
 10
1169.0882800697
 20
166.4296953337
 30
0.0
 11
639.0344050533
 21
72.9668959392
 31
0.0
  0
LINE
  5
2C5
330
1F
100
AcDbEntity
  8
POCKETS
100
AcDbLine
 10
639.0344050533
 20
72.9668959392
 30
0.0
 11
629.1863275231
 21
71.2304141626
 31
0.0
  0
LINE
  5
2C6
330
1F
100
AcDbEntity
  8
POCKETS
100
AcDbLine
 10
629.1863275231
 20
71.2304141626
 30
0.0
 11
631.388186416
 21
58.7430518544
 31
0.0
  0
LINE
  5
2C7
330
1F
100
AcDbEntity
  8
POCKETS
100
AcDbLine
 10
631.388186416
 20
58.7430518544
 30
0.0
 11
641.2362639461
 21
60.479533631
 31
0.0
  0
LINE
  5
2C8
330
1F
100
AcDbEntity
  8
POCKETS
100
AcDbLine
 10
641.2362639461
 20
60.479533631
 30
0.0
 11
1223.9059332181
 21
163.2199171642
 31
0.0
  0
LINE
  5
2C9
330
1F
100
AcDbEntity
  8
POCKETS
100
AcDbLine
 10
1223.9059332181
 20
163.2199171642
 30
0.0
 11
1233.7540107483
 21
164.9563989408
 31
0.0
  0
LINE
  5
2CA
330
1F
100
AcDbEntity
  8
POCKETS
100
AcDbLine
 10
1233.7540107483
 20
164.9563989408
 30
0.0
 11
1231.5521518554
 21
177.443761249
 31
0.0
  0
LINE
  5
2CB
330
1F
100
AcDbEntity
  8
POCKETS
100
AcDbLine
 10
1231.5521518554
 20
177.443761249
 30
0.0
 11
1221.7040743253
 21
175.7072794724
 31
0.0
  0
LINE
  5
2CC
330
1F
100
AcDbEntity
  8
POCKETS
100
AcDbLine
 10
1221.7040743253
 20
175.7072794724
 30
0.0
 11
1181.4282800697
 21
168.6055702756
 31
0.0
  0
LINE
  5
2CD
330
1F
100
AcDbEntity
  8
POCKETS
100
AcDbLine
 10
1181.4282800697
 20
168.6055702756
 30
0.0
 11
1181.4282800697
 21
623.6832326426
 31
0.0
  0
LINE
  5
2CE
330
1F
100
AcDbEntity
  8
PROFILES_OUTSIDE
100
AcDbLine
 10
1221.4282800697
 20
140.7463643795
 30
0.0
 11
1221.4282800697
 21
210.6771688053
 31
0.0
  0
LINE
  5
2CF
330
1F
100
AcDbEntity
  8
PROFILES_OUTSIDE
100
AcDbLine
 10
646.4701691357
 20
34.3311388576
 30
0.0
 11
1216.4701691357
 21
134.8375178614
 31
0.0
  0
ARC
  5
2D0
330
1F
100
AcDbEntity
  8
PROFILES_OUTSIDE
100
AcDbCircle
 10
601.9482800697
 20
210.6771688053
 30
0.0
 40
6.000000000000034
100
AcDbArc
 50
0.0
 51
80.0
  0
ARC
  5
2D1
330
1F
100
AcDbEntity
  8
PROFILES_OUTSIDE
100
AcDbCircle
 10
593.9482800697
 20
224.2729039936
 30
0.0
 40
6.000000000000006
100
AcDbArc
 50
180.0
 51
260.0
  0
ARC
  5
2D2
330
1F
100
AcDbEntity
  8
PROFILES_OUTSIDE
100
AcDbCircle
 10
593.9482800697
 20
568.0158989246
 30
0.0
 40
6.00000000000009
100
AcDbArc
 50
100.0
 51
180.0
  0
ARC
  5
2D3
330
1F
100
AcDbEntity
  8
PROFILES_OUTSIDE
100
AcDbCircle
 10
601.9482800697
 20
581.6116341129
 30
0.0
 40
6.00000000000011
100
AcDbArc
 50
280.0
 51
0.0
  0
ARC
  5
2D4
330
1F
100
AcDbEntity
  8
PROFILES_INSIDE
100
AcDbCircle
 10
601.9482800697
 20
400.7463643795
 30
0.0
 40
6.000000000000034
100
AcDbArc
 50
280.0
 51
0.0
  0
ARC
  5
2D5
330
1F
100
AcDbEntity
  8
PROFILES_OUTSIDE
100
AcDbCircle
 10
1694.5884479584
 20
839.5912622726
 30
0.0
 40
1.000000000000227
100
AcDbArc
 50
270.0
 51
0.0
  0
ARC
  5
2D6
330
1F
100
AcDbEntity
  8
PROFILES_INSIDE
100
AcDbCircle
 10
572.6636465667
 20
648.7553209154
 30
0.0
 40
0.9999999999999921
100
AcDbArc
 50
260.0000485891
 51
332.3995433346
  0
ARC
  5
2D7
330
1F
100
AcDbEntity
  8
PROFILES_INSIDE
100
AcDbCircle
 10
578.131499867
 20
645.8967407981
 30
0.0
 40
5.170000000000063
100
AcDbArc
 50
325.1121913085
 51
152.3995433346
  0
ARC
  5
2D8
330
1F
100
AcDbEntity
  8
PROFILES_INSIDE
100
AcDbCircle
 10
583.1926167434
 20
642.3676575023
 30
0.0
 40
1.000035084614283
100
AcDbArc
 50
145.1121913085
 51
170.0
  0
ARC
  5
2D9
330
1F
100
AcDbEntity
  8
PROFILES_INSIDE
100
AcDbCircle
 10
582.2522016875
 20
637.0345007371
 30
0.0
 40
1.000000000000105
100
AcDbArc
 50
170.0
 51
194.8879034674
  0
ARC
  5
2DA
330
1F
100
AcDbEntity
  8
PROFILES_INSIDE
100
AcDbCircle
 10
576.2893264602
 20
635.449250276
 30
0.0
 40
5.170000000000036
100
AcDbArc
 50
187.6004769063
 51
14.8879034673
  0
ARC
  5
2DB
330
1F
100
AcDbEntity
  8
PROFILES_INSIDE
100
AcDbCircle
 10
570.1735333693
 20
634.6331774427
 30
0.0
 40
1.000000000000081
100
AcDbArc
 50
7.6004769063
 51
80.0000485891
  0
ARC
  5
2DC
330
1F
100
AcDbEntity
  8
PROFILES_INSIDE
100
AcDbCircle
 10
566.1913279811
 20
635.3353442133
 30
0.0
 40
1.000000000000044
100
AcDbArc
 50
80.0000485891
 51
152.3995433346
  0
ARC
  5
2DD
330
1F
100
AcDbEntity
  8
PROFILES_INSIDE
100
AcDbCircle
 10
560.7234746809
 20
638.1939243306
 30
0.0
 40
5.170000000000083
100
AcDbArc
 50
145.1121194146
 51
332.3995433346
  0
ARC
  5
2DE
330
1F
100
AcDbEntity
  8
PROFILES_INSIDE
100
AcDbCircle
 10
555.6623910117
 20
641.7229939096
 30
0.0
 40
0.9999999999999931
100
AcDbArc
 50
325.1121194146
 51
350.0
  0
ARC
  5
2DF
330
1F
100
AcDbEntity
  8
PROFILES_INSIDE
100
AcDbCircle
 10
556.6027742048
 20
647.0561720161
 30
0.0
 40
0.9999986349375136
100
AcDbArc
 50
350.0
 51
14.8878382498
  0
ARC
  5
2E0
330
1F
100
AcDbEntity
  8
PROFILES_INSIDE
100
AcDbCircle
 10
562.5656480877
 20
648.6414148528
 30
0.0
 40
5.169998698471423
100
AcDbArc
 50
7.6004769063
 51
194.8878382498
  0
ARC
  5
2E1
330
1F
100
AcDbEntity
  8
PROFILES_INSIDE
100
AcDbCircle
 10
568.6814411786
 20
649.457487686
 30
0.0
 40
1.000001301528628
100
AcDbArc
 50
187.6004769063
 51
260.0000485891
  0
ARC
  5
2E2
330
1F
100
AcDbEntity
  8
PROFILES_INSIDE
100
AcDbCircle
 10
92.2188464327
 20
728.9395800282
 30
0.0
 40
1.00003508461434
100
AcDbArc
 50
145.1121913085
 51
170.0
  0
ARC
  5
2E3
330
1F
100
AcDbEntity
  8
PROFILES_INSIDE
100
AcDbCircle
 10
87.1577295564
 20
732.4686633241
 30
0.0
 40
5.170000000000051
100
AcDbArc
 50
325.1121913085
 51
152.3995433346
  0
ARC
  5
2E4
330
1F
100
AcDbEntity
  8
PROFILES_INSIDE
100
AcDbCircle
 10
81.6898762561
 20
735.3272434414
 30
0.0
 40
1.000000000000107
100
AcDbArc
 50
260.0000485891
 51
332.3995433346
  0
ARC
  5
2E5
330
1F
100
AcDbEntity
  8
PROFILES_INSIDE
100
AcDbCircle
 10
77.707670868
 20
736.0294102119
 30
0.0
 40
1.000000709924728
100
AcDbArc
 50
187.6004769063
 51
260.0000485891
  0
ARC
  5
2E6
330
1F
100
AcDbEntity
  8
PROFILES_INSIDE
100
AcDbCircle
 10
71.591877777
 20
735.2133373787
 30
0.0
 40
5.169999290075336
100
AcDbArc
 50
7.6004769063
 51
194.8878382498
  0
ARC
  5
2E7
330
1F
100
AcDbEntity
  8
PROFILES_INSIDE
100
AcDbCircle
 10
65.6290038942
 20
733.628094542
 30
0.0
 40
0.999998516616756
100
AcDbArc
 50
350.0
 51
14.8878382498
  0
ARC
  5
2E8
330
1F
100
AcDbEntity
  8
PROFILES_INSIDE
100
AcDbCircle
 10
64.6886207011
 20
728.2949164356
 30
0.0
 40
1.0
100
AcDbArc
 50
325.1121194146
 51
350.0
  0
ARC
  5
2E9
330
1F
100
AcDbEntity
  8
PROFILES_INSIDE
100
AcDbCircle
 10
69.7497043703
 20
724.7658468565
 30
0.0
 40
5.170000000000051
100
AcDbArc
 50
145.1121194146
 51
332.3995433346
  0
ARC
  5
2EA
330
1F
100
AcDbEntity
  8
PROFILES_INSIDE
100
AcDbCircle
 10
75.2175576705
 20
721.9072667392
 30
0.0
 40
0.9999999999999689
100
AcDbArc
 50
80.0000485891
 51
152.3995433346
  0
ARC
  5
2EB
330
1F
100
AcDbEntity
  8
PROFILES_INSIDE
100
AcDbCircle
 10
79.1997630587
 20
721.2050999686
 30
0.0
 40
1.000000000000087
100
AcDbArc
 50
7.6004769063
 51
80.0000485891
  0
ARC
  5
2EC
330
1F
100
AcDbEntity
  8
PROFILES_INSIDE
100
AcDbCircle
 10
85.3155561496
 20
722.0211728019
 30
0.0
 40
5.170000000000068
100
AcDbArc
 50
187.6004769063
 51
14.8879034673
  0
ARC
  5
2ED
330
1F
100
AcDbEntity
  8
PROFILES_INSIDE
100
AcDbCircle
 10
91.2784313768
 20
723.606423263
 30
0.0
 40
0.9999999999999231
100
AcDbArc
 50
170.0
 51
194.8879034674
  0
ARC
  5
2EE
330
1F
100
AcDbEntity
  8
PROFILES_INSIDE
100
AcDbCircle
 10
578.131499932
 20
146.3920677233
 30
0.0
 40
5.170000000000058
100
AcDbArc
 50
207.6004769063
 51
34.8879034673
  0
ARC
  5
2EF
330
1F
100
AcDbEntity
  8
PROFILES_INSIDE
100
AcDbCircle
 10
583.1925821918
 20
149.9211393235
 30
0.0
 40
1.000000000000105
100
AcDbArc
 50
190.0
 51
214.8879034674
  0
ARC
  5
2F0
330
1F
100
AcDbEntity
  8
PROFILES_INSIDE
100
AcDbCircle
 10
582.2522362391
 20
155.2543082735
 30
0.0
 40
1.00003508461439
100
AcDbArc
 50
165.1121913085
 51
190.0
  0
ARC
  5
2F1
330
1F
100
AcDbEntity
  8
PROFILES_INSIDE
100
AcDbCircle
 10
576.2893244827
 20
156.8395578853
 30
0.0
 40
5.169999999999958
100
AcDbArc
 50
345.1121913085
 51
172.3995433346
  0
ARC
  5
2F2
330
1F
100
AcDbEntity
  8
PROFILES_INSIDE
100
AcDbCircle
 10
570.1735311035
 20
157.655628558
 30
0.0
 40
1.000000000000115
100
AcDbArc
 50
280.0000485891
 51
352.3995433346
  0
ARC
  5
2F3
330
1F
100
AcDbEntity
  8
PROFILES_INSIDE
100
AcDbCircle
 10
566.1913269063
 20
156.9534550333
 30
0.0
 40
1.000000591603889
100
AcDbArc
 50
207.6004769063
 51
280.0000485891
  0
ARC
  5
2F4
330
1F
100
AcDbEntity
  8
PROFILES_INSIDE
100
AcDbCircle
 10
560.7234746159
 20
154.0948729844
 30
0.0
 40
5.169999408396079
100
AcDbArc
 50
27.6004769063
 51
214.8878382498
  0
ARC
  5
2F5
330
1F
100
AcDbEntity
  8
PROFILES_INSIDE
100
AcDbCircle
 10
555.6623910117
 20
150.5658090086
 30
0.0
 40
0.9999983982959721
100
AcDbArc
 50
10.0
 51
34.8878382498
  0
ARC
  5
2F6
330
1F
100
AcDbEntity
  8
PROFILES_INSIDE
100
AcDbCircle
 10
556.6027742048
 20
145.2326309021
 30
0.0
 40
1.000000000000105
100
AcDbArc
 50
345.1121194146
 51
10.0
  0
ARC
  5
2F7
330
1F
100
AcDbEntity
  8
PROFILES_INSIDE
100
AcDbCircle
 10
562.5656500652
 20
143.6473828223
 30
0.0
 40
5.170000000000013
100
AcDbArc
 50
165.1121194146
 51
352.3995433346
  0
ARC
  5
2F8
330
1F
100
AcDbEntity
  8
PROFILES_INSIDE
100
AcDbCircle
 10
568.6814434444
 20
142.8313121496
 30
0.0
 40
1.000000000000112
100
AcDbArc
 50
100.0000485891
 51
172.3995433346
  0
ARC
  5
2F9
330
1F
100
AcDbEntity
  8
PROFILES_INSIDE
100
AcDbCircle
 10
572.6636476416
 20
143.5334856743
 30
0.0
 40
1.000000000000057
100
AcDbArc
 50
27.6004769063
 51
100.0000485891
  0
ARC
  5
2FA
330
1F
100
AcDbEntity
  8
PROFILES_INSIDE
100
AcDbCircle
 10
65.6290038942
 20
58.6607083762
 30
0.0
 40
1.000000000000089
100
AcDbArc
 50
345.1121194146
 51
10.0
  0
ARC
  5
2FB
330
1F
100
AcDbEntity
  8
PROFILES_INSIDE
100
AcDbCircle
 10
71.5918797545
 20
57.0754602964
 30
0.0
 40
5.169999999999951
100
AcDbArc
 50
165.1121194146
 51
352.3995433346
  0
ARC
  5
2FC
330
1F
100
AcDbEntity
  8
PROFILES_INSIDE
100
AcDbCircle
 10
77.7076731337
 20
56.2593896237
 30
0.0
 40
1.000000000000167
100
AcDbArc
 50
100.0000485891
 51
172.3995433346
  0
ARC
  5
2FD
330
1F
100
AcDbEntity
  8
PROFILES_INSIDE
100
AcDbCircle
 10
81.689877331
 20
56.9615631484
 30
0.0
 40
1.000000000000039
100
AcDbArc
 50
27.6004769063
 51
100.0000485891
  0
ARC
  5
2FE
330
1F
100
AcDbEntity
  8
PROFILES_INSIDE
100
AcDbCircle
 10
87.1577296214
 20
59.8201451973
 30
0.0
 40
5.170000000000037
100
AcDbArc
 50
207.6004769063
 51
34.8879034673
  0
ARC
  5
2FF
330
1F
100
AcDbEntity
  8
PROFILES_INSIDE
100
AcDbCircle
 10
92.2188118811
 20
63.3492167976
 30
0.0
 40
1.000000000000045
100
AcDbArc
 50
190.0
 51
214.8879034674
  0
ARC
  5
300
330
1F
100
AcDbEntity
  8
PROFILES_INSIDE
100
AcDbCircle
 10
91.2784659284
 20
68.6823857476
 30
0.0
 40
1.000035084614282
100
AcDbArc
 50
165.1121913085
 51
190.0
  0
ARC
  5
301
330
1F
100
AcDbEntity
  8
PROFILES_INSIDE
100
AcDbCircle
 10
85.3155541721
 20
70.2676353594
 30
0.0
 40
5.170000000000048
100
AcDbArc
 50
345.1121913085
 51
172.3995433346
  0
ARC
  5
302
330
1F
100
AcDbEntity
  8
PROFILES_INSIDE
100
AcDbCircle
 10
79.1997607929
 20
71.0837060321
 30
0.0
 40
0.999999999999927
100
AcDbArc
 50
280.0000485891
 51
352.3995433346
  0
ARC
  5
303
330
1F
100
AcDbEntity
  8
PROFILES_INSIDE
100
AcDbCircle
 10
75.2175565957
 20
70.3815325074
 30
0.0
 40
1.000000118320709
100
AcDbArc
 50
207.6004769063
 51
280.0000485891
  0
ARC
  5
304
330
1F
100
AcDbEntity
  8
PROFILES_INSIDE
100
AcDbCircle
 10
69.7497043053
 20
67.5229504584
 30
0.0
 40
5.169999881679202
100
AcDbArc
 50
27.6004769063
 51
214.8878382498
  0
ARC
  5
305
330
1F
100
AcDbEntity
  8
PROFILES_INSIDE
100
AcDbCircle
 10
64.6886207011
 20
63.9938864826
 30
0.0
 40
0.9999986349375547
100
AcDbArc
 50
10.0
 51
34.8878382498
  0
ARC
  5
306
330
1F
100
AcDbEntity
  8
PROFILES_INSIDE
100
AcDbCircle
 10
1186.1436465667
 20
648.7553209154
 30
0.0
 40
1.000000000000145
100
AcDbArc
 50
260.0000485891
 51
332.3995433346
  0
ARC
  5
307
330
1F
100
AcDbEntity
  8
PROFILES_INSIDE
100
AcDbCircle
 10
1191.611499867
 20
645.8967407981
 30
0.0
 40
5.170000000000229
100
AcDbArc
 50
325.1121913085
 51
152.3995433346
  0
ARC
  5
308
330
1F
100
AcDbEntity
  8
PROFILES_INSIDE
100
AcDbCircle
 10
1196.6726167434
 20
642.3676575023
 30
0.0
 40
1.00003508461404
100
AcDbArc
 50
145.1121913085
 51
170.0
  0
ARC
  5
309
330
1F
100
AcDbEntity
  8
PROFILES_INSIDE
100
AcDbCircle
 10
1195.7322016875
 20
637.0345007371
 30
0.0
 40
1.000000000000098
100
AcDbArc
 50
170.0
 51
194.8879034673
  0
ARC
  5
30A
330
1F
100
AcDbEntity
  8
PROFILES_INSIDE
100
AcDbCircle
 10
1189.7693264602
 20
635.4492502759
 30
0.0
 40
5.16999999999997
100
AcDbArc
 50
187.6004769063
 51
14.8879034674
  0
ARC
  5
30B
330
1F
100
AcDbEntity
  8
PROFILES_INSIDE
100
AcDbCircle
 10
1183.6535333693
 20
634.6331774427
 30
0.0
 40
0.9999999999999527
100
AcDbArc
 50
7.6004769063
 51
80.0000485891
  0
ARC
  5
30C
330
1F
100
AcDbEntity
  8
PROFILES_INSIDE
100
AcDbCircle
 10
1179.6713279811
 20
635.3353442133
 30
0.0
 40
0.9999999999999963
100
AcDbArc
 50
80.0000485891
 51
152.3995433346
  0
ARC
  5
30D
330
1F
100
AcDbEntity
  8
PROFILES_INSIDE
100
AcDbCircle
 10
1174.2034746809
 20
638.1939243306
 30
0.0
 40
5.170000000000212
100
AcDbArc
 50
145.1121194146
 51
332.3995433346
  0
ARC
  5
30E
330
1F
100
AcDbEntity
  8
PROFILES_INSIDE
100
AcDbCircle
 10
1169.1423910117
 20
641.7229939096
 30
0.0
 40
0.9999999999998811
100
AcDbArc
 50
325.1121194146
 51
350.0
  0
ARC
  5
30F
330
1F
100
AcDbEntity
  8
PROFILES_INSIDE
100
AcDbCircle
 10
1170.0827742048
 20
647.0561720161
 30
0.0
 40
0.9999986349376255
100
AcDbArc
 50
350.0
 51
14.8878382498
  0
ARC
  5
310
330
1F
100
AcDbEntity
  8
PROFILES_INSIDE
100
AcDbCircle
 10
1176.0456480877
 20
648.6414148528
 30
0.0
 40
5.169998698471423
100
AcDbArc
 50
7.6004769063
 51
194.8878382498
  0
ARC
  5
311
330
1F
100
AcDbEntity
  8
PROFILES_INSIDE
100
AcDbCircle
 10
1182.1614411786
 20
649.457487686
 30
0.0
 40
1.000001301528628
100
AcDbArc
 50
187.6004769063
 51
260.0000485891
  0
ARC
  5
312
330
1F
100
AcDbEntity
  8
PROFILES_INSIDE
100
AcDbCircle
 10
705.8412496338
 20
728.9144705017
 30
0.0
 40
1.000035084614132
100
AcDbArc
 50
145.1121913085
 51
170.0
  0
ARC
  5
313
330
1F
100
AcDbEntity
  8
PROFILES_INSIDE
100
AcDbCircle
 10
700.7801327574
 20
732.4435537976
 30
0.0
 40
5.170000000000063
100
AcDbArc
 50
325.1121913085
 51
152.3995433346
  0
ARC
  5
314
330
1F
100
AcDbEntity
  8
PROFILES_INSIDE
100
AcDbCircle
 10
695.3122794572
 20
735.3021339149
 30
0.0
 40
0.9999999999999725
100
AcDbArc
 50
260.0000485891
 51
332.3995433346
  0
ARC
  5
315
330
1F
100
AcDbEntity
  8
PROFILES_INSIDE
100
AcDbCircle
 10
691.330074069
 20
736.0043006855
 30
0.0
 40
1.000000709924671
100
AcDbArc
 50
187.6004769063
 51
260.0000485891
  0
ARC
  5
316
330
1F
100
AcDbEntity
  8
PROFILES_INSIDE
100
AcDbCircle
 10
685.2142809781
 20
735.1882278522
 30
0.0
 40
5.169999290075364
100
AcDbArc
 50
7.6004769063
 51
194.8878382498
  0
ARC
  5
317
330
1F
100
AcDbEntity
  8
PROFILES_INSIDE
100
AcDbCircle
 10
679.2514070953
 20
733.6029850155
 30
0.0
 40
0.9999985166166161
100
AcDbArc
 50
350.0
 51
14.8878382498
  0
ARC
  5
318
330
1F
100
AcDbEntity
  8
PROFILES_INSIDE
100
AcDbCircle
 10
678.3110239022
 20
728.2698069091
 30
0.0
 40
0.9999999999999931
100
AcDbArc
 50
325.1121194146
 51
350.0
  0
ARC
  5
319
330
1F
100
AcDbEntity
  8
PROFILES_INSIDE
100
AcDbCircle
 10
683.3721075714
 20
724.74073733
 30
0.0
 40
5.170000000000055
100
AcDbArc
 50
145.1121194146
 51
332.3995433346
  0
ARC
  5
31A
330
1F
100
AcDbEntity
  8
PROFILES_INSIDE
100
AcDbCircle
 10
688.8399608716
 20
721.8821572127
 30
0.0
 40
1.000000000000044
100
AcDbArc
 50
80.0000485891
 51
152.3995433346
  0
ARC
  5
31B
330
1F
100
AcDbEntity
  8
PROFILES_INSIDE
100
AcDbCircle
 10
692.8221662598
 20
721.1799904421
 30
0.0
 40
0.9999999999999529
100
AcDbArc
 50
7.6004769063
 51
80.0000485891
  0
ARC
  5
31C
330
1F
100
AcDbEntity
  8
PROFILES_INSIDE
100
AcDbCircle
 10
698.9379593507
 20
721.9960632754
 30
0.0
 40
5.169999999999956
100
AcDbArc
 50
187.6004769063
 51
14.8879034674
  0
ARC
  5
31D
330
1F
100
AcDbEntity
  8
PROFILES_INSIDE
100
AcDbCircle
 10
704.9008345779
 20
723.5813137365
 30
0.0
 40
1.000000000000145
100
AcDbArc
 50
170.0
 51
194.8879034673
  0
ARC
  5
31E
330
1F
100
AcDbEntity
  8
PROFILES_INSIDE
100
AcDbCircle
 10
1191.611499932
 20
146.3920677233
 30
0.0
 40
5.170000000000058
100
AcDbArc
 50
207.6004769063
 51
34.8879034673
  0
ARC
  5
31F
330
1F
100
AcDbEntity
  8
PROFILES_INSIDE
100
AcDbCircle
 10
1196.6725821918
 20
149.9211393235
 30
0.0
 40
0.9999999999999643
100
AcDbArc
 50
190.0
 51
214.8879034674
  0
ARC
  5
320
330
1F
100
AcDbEntity
  8
PROFILES_INSIDE
100
AcDbCircle
 10
1195.7322362391
 20
155.2543082735
 30
0.0
 40
1.000035084614514
100
AcDbArc
 50
165.1121913085
 51
190.0
  0
ARC
  5
321
330
1F
100
AcDbEntity
  8
PROFILES_INSIDE
100
AcDbCircle
 10
1189.7693244827
 20
156.8395578853
 30
0.0
 40
5.169999999999958
100
AcDbArc
 50
345.1121913085
 51
172.3995433346
  0
ARC
  5
322
330
1F
100
AcDbEntity
  8
PROFILES_INSIDE
100
AcDbCircle
 10
1183.6535311035
 20
157.655628558
 30
0.0
 40
1.000000000000115
100
AcDbArc
 50
280.0000485891
 51
352.3995433346
  0
ARC
  5
323
330
1F
100
AcDbEntity
  8
PROFILES_INSIDE
100
AcDbCircle
 10
1179.6713269063
 20
156.9534550333
 30
0.0
 40
1.000000591603688
100
AcDbArc
 50
207.6004769063
 51
280.0000485891
  0
ARC
  5
324
330
1F
100
AcDbEntity
  8
PROFILES_INSIDE
100
AcDbCircle
 10
1174.2034746159
 20
154.0948729844
 30
0.0
 40
5.169999408396382
100
AcDbArc
 50
27.6004769063
 51
214.8878382498
  0
ARC
  5
325
330
1F
100
AcDbEntity
  8
PROFILES_INSIDE
100
AcDbCircle
 10
1169.1423910117
 20
150.5658090086
 30
0.0
 40
0.9999983982958601
100
AcDbArc
 50
10.0
 51
34.8878382498
  0
ARC
  5
326
330
1F
100
AcDbEntity
  8
PROFILES_INSIDE
100
AcDbCircle
 10
1170.0827742048
 20
145.2326309021
 30
0.0
 40
0.9999999999998951
100
AcDbArc
 50
345.1121194146
 51
10.0
  0
ARC
  5
327
330
1F
100
AcDbEntity
  8
PROFILES_INSIDE
100
AcDbCircle
 10
1176.0456500652
 20
143.6473828223
 30
0.0
 40
5.170000000000122
100
AcDbArc
 50
165.1121194146
 51
352.3995433346
  0
ARC
  5
328
330
1F
100
AcDbEntity
  8
PROFILES_INSIDE
100
AcDbCircle
 10
1182.1614434444
 20
142.8313121496
 30
0.0
 40
0.9999999999999855
100
AcDbArc
 50
100.0000485891
 51
172.3995433346
  0
ARC
  5
329
330
1F
100
AcDbEntity
  8
PROFILES_INSIDE
100
AcDbCircle
 10
1186.1436476416
 20
143.5334856743
 30
0.0
 40
1.000000000000258
100
AcDbArc
 50
27.6004769063
 51
100.0000485891
  0
ARC
  5
32A
330
1F
100
AcDbEntity
  8
PROFILES_INSIDE
100
AcDbCircle
 10
679.2514070953
 20
58.6858179026
 30
0.0
 40
1.000000000000117
100
AcDbArc
 50
345.1121194146
 51
10.0
  0
ARC
  5
32B
330
1F
100
AcDbEntity
  8
PROFILES_INSIDE
100
AcDbCircle
 10
685.2142829556
 20
57.1005698229
 30
0.0
 40
5.17000000000005
100
AcDbArc
 50
165.1121194146
 51
352.3995433346
  0
ARC
  5
32C
330
1F
100
AcDbEntity
  8
PROFILES_INSIDE
100
AcDbCircle
 10
691.3300763348
 20
56.2844991502
 30
0.0
 40
1.000000000000015
100
AcDbArc
 50
100.0000485891
 51
172.3995433346
  0
ARC
  5
32D
330
1F
100
AcDbEntity
  8
PROFILES_INSIDE
100
AcDbCircle
 10
695.312280532
 20
56.9866726749
 30
0.0
 40
0.9999999999999529
100
AcDbArc
 50
27.6004769063
 51
100.0000485891
  0
ARC
  5
32E
330
1F
100
AcDbEntity
  8
PROFILES_INSIDE
100
AcDbCircle
 10
700.7801328224
 20
59.8452547238
 30
0.0
 40
5.170000000000122
100
AcDbArc
 50
207.6004769063
 51
34.8879034673
  0
ARC
  5
32F
330
1F
100
AcDbEntity
  8
PROFILES_INSIDE
100
AcDbCircle
 10
705.8412150822
 20
63.3743263241
 30
0.0
 40
0.999999999999891
100
AcDbArc
 50
190.0
 51
214.8879034674
  0
ARC
  5
330
330
1F
100
AcDbEntity
  8
PROFILES_INSIDE
100
AcDbCircle
 10
704.9008691295
 20
68.7074952741
 30
0.0
 40
1.000035084614393
100
AcDbArc
 50
165.1121913085
 51
190.0
  0
ARC
  5
331
330
1F
100
AcDbEntity
  8
PROFILES_INSIDE
100
AcDbCircle
 10
698.9379573732
 20
70.2927448859
 30
0.0
 40
5.169999999999969
100
AcDbArc
 50
345.1121913085
 51
172.3995433346
  0
ARC
  5
332
330
1F
100
AcDbEntity
  8
PROFILES_INSIDE
100
AcDbCircle
 10
692.822163994
 20
71.1088155586
 30
0.0
 40
1.000000000000027
100
AcDbArc
 50
280.0000485891
 51
352.3995433346
  0
ARC
  5
333
330
1F
100
AcDbEntity
  8
PROFILES_INSIDE
100
AcDbCircle
 10
688.8399597968
 20
70.4066420339
 30
0.0
 40
1.000000118320584
100
AcDbArc
 50
207.6004769063
 51
280.0000485891
  0
ARC
  5
334
330
1F
100
AcDbEntity
  8
PROFILES_INSIDE
100
AcDbCircle
 10
683.3721075064
 20
67.5480599849
 30
0.0
 40
5.169999881679378
100
AcDbArc
 50
27.6004769063
 51
214.8878382498
  0
ARC
  5
335
330
1F
100
AcDbEntity
  8
PROFILES_INSIDE
100
AcDbCircle
 10
678.3110239022
 20
64.0189960091
 30
0.0
 40
0.9999986349373967
100
AcDbArc
 50
10.0
 51
34.8878382498
  0
ARC
  5
336
330
1F
100
AcDbEntity
  8
PROFILES_OUTSIDE
100
AcDbCircle
 10
645.4282800697
 20
752.0488175426
 30
0.0
 40
6.000000000000182
100
AcDbArc
 50
80.0
 51
180.0
  0
ARC
  5
337
330
1F
100
AcDbEntity
  8
PROFILES_OUTSIDE
100
AcDbCircle
 10
1215.4282800697
 20
651.5424385387
 30
0.0
 40
6.0
100
AcDbArc
 50
0.0
 51
80.0
  0
ARC
  5
338
330
1F
100
AcDbEntity
  8
PROFILES_OUTSIDE
100
AcDbCircle
 10
1215.4282800697
 20
581.6116341129
 30
0.0
 40
6.0
100
AcDbArc
 50
280.0
 51
0.0
  0
ARC
  5
339
330
1F
100
AcDbEntity
  8
PROFILES_OUTSIDE
100
AcDbCircle
 10
1207.4282800697
 20
568.0158989246
 30
0.0
 40
6.00000000000011
100
AcDbArc
 50
100.0
 51
180.0
  0
ARC
  5
33A
330
1F
100
AcDbEntity
  8
PROFILES_OUTSIDE
100
AcDbCircle
 10
1207.4282800697
 20
224.2729039936
 30
0.0
 40
6.0
100
AcDbArc
 50
180.0
 51
260.0
  0
ARC
  5
33B
330
1F
100
AcDbEntity
  8
PROFILES_OUTSIDE
100
AcDbCircle
 10
1215.4282800697
 20
210.6771688053
 30
0.0
 40
6.0
100
AcDbArc
 50
0.0
 51
80.0
  0
ARC
  5
33C
330
1F
100
AcDbEntity
  8
PROFILES_OUTSIDE
100
AcDbCircle
 10
1215.4282800697
 20
140.7463643795
 30
0.0
 40
6.0
100
AcDbArc
 50
280.0
 51
0.0
  0
ARC
  5
33D
330
1F
100
AcDbEntity
  8
PROFILES_OUTSIDE
100
AcDbCircle
 10
645.4282800697
 20
40.2399853756
 30
0.0
 40
6.0
100
AcDbArc
 50
180.0
 51
280.0
  0
ARC
  5
33E
330
1F
100
AcDbEntity
  8
PROFILES_OUTSIDE
100
AcDbCircle
 10
1664.8384479584
 20
962.5412622726
 30
0.0
 40
12.00000000000023
100
AcDbArc
 50
0.0
 51
90.0
  0
ARC
  5
33F
330
1F
100
AcDbEntity
  8
PROFILES_OUTSIDE
100
AcDbCircle
 10
1190.2906158471
 20
962.5412622726
 30
0.0
 40
12.0
100
AcDbArc
 50
90.0
 51
180.0
  0
ARC
  5
340
330
1F
100
AcDbEntity
  8
PROFILES_OUTSIDE
100
AcDbCircle
 10
1160.5406158471
 20
839.5912622726
 30
0.0
 40
1.0
100
AcDbArc
 50
180.0
 51
270.0
  0
ARC
  5
341
330
1F
100
AcDbEntity
  8
PROFILES_OUTSIDE
100
AcDbCircle
 10
1690.3384479584
 20
1184.9932163655
 30
0.0
 40
1.000000000000227
100
AcDbArc
 50
93.6619355755
 51
180.0
  0
ARC
  5
342
330
1F
100
AcDbEntity
  8
PROFILES_OUTSIDE
100
AcDbCircle
 10
1688.3384479584
 20
1177.053540656
 30
0.0
 40
1.000000000000227
100
AcDbArc
 50
335.1121079736
 51
0.0
  0
ARC
  5
343
330
1F
100
AcDbEntity
  8
PROFILES_OUTSIDE
100
AcDbCircle
 10
1693.9354583772
 20
1174.4569324122
 30
0.0
 40
5.170000000000043
100
AcDbArc
 50
155.1121079736
 51
342.3995332141
  0
ARC
  5
344
330
1F
100
AcDbEntity
  8
PROFILES_OUTSIDE
100
AcDbCircle
 10
1699.8166295982
 20
1172.5912622726
 30
0.0
 40
1.0
100
AcDbArc
 50
90.0
 51
162.3995332141
  0
ARC
  5
345
330
1F
100
AcDbEntity
  8
PROFILES_OUTSIDE
100
AcDbCircle
 10
1689.8404479584
 20
1055.5912622726
 30
0.0
 40
12.0
100
AcDbArc
 50
270.0
 51
0.0
  0
ARC
  5
346
330
1F
100
AcDbEntity
  8
PROFILES_OUTSIDE
100
AcDbCircle
 10
1526.9898372546
 20
1031.5912622726
 30
0.0
 40
12.00000000000023
100
AcDbArc
 50
90.0
 51
180.0
  0
ARC
  5
347
330
1F
100
AcDbEntity
  8
PROFILES_OUTSIDE
100
AcDbCircle
 10
1526.9898372546
 20
1005.5912622726
 30
0.0
 40
12.0
100
AcDbArc
 50
180.0
 51
270.0
  0
ARC
  5
348
330
1F
100
AcDbEntity
  8
PROFILES_OUTSIDE
100
AcDbCircle
 10
1689.8404479584
 20
981.5912622726
 30
0.0
 40
12.0
100
AcDbArc
 50
0.0
 51
90.0
  0
ARC
  5
349
330
1F
100
AcDbEntity
  8
PROFILES_OUTSIDE
100
AcDbCircle
 10
1699.8166295982
 20
864.5912622726
 30
0.0
 40
1.0
100
AcDbArc
 50
197.6004667859
 51
270.0
  0
ARC
  5
34A
330
1F
100
AcDbEntity
  8
PROFILES_OUTSIDE
100
AcDbCircle
 10
1693.9354583772
 20
862.725592133
 30
0.0
 40
5.170000000000178
100
AcDbArc
 50
17.6004667859
 51
204.8878920264
  0
ARC
  5
34B
330
1F
100
AcDbEntity
  8
PROFILES_OUTSIDE
100
AcDbCircle
 10
1688.3384479584
 20
860.1289838892
 30
0.0
 40
1.0
100
AcDbArc
 50
0.0
 51
24.8878920264
  0
ARC
  5
34C
330
1F
100
AcDbEntity
  8
PROFILES_OUTSIDE
100
AcDbCircle
 10
1690.3384479584
 20
852.1893081798
 30
0.0
 40
1.000000000000227
100
AcDbArc
 50
180.0
 51
266.3380644245
  0
ARC
  5
34D
330
1F
100
AcDbEntity
  8
PROFILES_OUTSIDE
100
AcDbCircle
 10
1682.8384479584
 20
844.5912622726
 30
0.0
 40
6.000000000000227
100
AcDbArc
 50
180.0
 51
270.0
  0
ARC
  5
34E
330
1F
100
AcDbEntity
  8
PROFILES_OUTSIDE
100
AcDbCircle
 10
1160.5406158471
 20
1197.5912622726
 30
0.0
 40
1.0
100
AcDbArc
 50
90.0
 51
180.0
  0
ARC
  5
34F
330
1F
100
AcDbEntity
  8
PROFILES_OUTSIDE
100
AcDbCircle
 10
1514.9898372546
 20
993.5912622726
 30
0.0
 40
19.05000000000001
100
AcDbArc
 50
210.0
 51
270.0
  0
ARC
  5
350
330
1F
100
AcDbEntity
  8
PROFILES_OUTSIDE
100
AcDbCircle
 10
1481.9942693705
 20
974.5412622726
 30
0.0
 40
19.04999999999995
100
AcDbArc
 50
30.0
 51
90.0
  0
ARC
  5
351
330
1F
100
AcDbEntity
  8
PROFILES_OUTSIDE
100
AcDbCircle
 10
1373.1347944351
 20
974.5412622726
 30
0.0
 40
19.05000000000007
100
AcDbArc
 50
90.0
 51
150.0
  0
ARC
  5
352
330
1F
100
AcDbEntity
  8
PROFILES_OUTSIDE
100
AcDbCircle
 10
1340.1392265509
 20
993.5912622726
 30
0.0
 40
19.05000000000007
100
AcDbArc
 50
270.0
 51
330.0
  0
ARC
  5
353
330
1F
100
AcDbEntity
  8
PROFILES_OUTSIDE
100
AcDbCircle
 10
1172.2906158471
 20
844.5912622726
 30
0.0
 40
6.0
100
AcDbArc
 50
270.0
 51
0.0
  0
ARC
  5
354
330
1F
100
AcDbEntity
  8
PROFILES_OUTSIDE
100
AcDbCircle
 10
1190.2906158471
 20
1074.6412622726
 30
0.0
 40
12.0
100
AcDbArc
 50
180.0
 51
270.0
  0
ARC
  5
355
330
1F
100
AcDbEntity
  8
PROFILES_OUTSIDE
100
AcDbCircle
 10
1164.7906158471
 20
852.1893081798
 30
0.0
 40
1.0
100
AcDbArc
 50
273.6619355755
 51
0.0
  0
ARC
  5
356
330
1F
100
AcDbEntity
  8
PROFILES_OUTSIDE
100
AcDbCircle
 10
1166.7906158471
 20
860.1289838892
 30
0.0
 40
1.0
100
AcDbArc
 50
155.1121079736
 51
180.0
  0
ARC
  5
357
330
1F
100
AcDbEntity
  8
PROFILES_OUTSIDE
100
AcDbCircle
 10
1161.1936054283
 20
862.725592133
 30
0.0
 40
5.170000000000235
100
AcDbArc
 50
335.1121079736
 51
162.3995332141
  0
ARC
  5
358
330
1F
100
AcDbEntity
  8
PROFILES_OUTSIDE
100
AcDbCircle
 10
1155.3124342074
 20
864.5912622726
 30
0.0
 40
1.0
100
AcDbArc
 50
270.0
 51
342.3995332141
  0
ARC
  5
359
330
1F
100
AcDbEntity
  8
PROFILES_OUTSIDE
100
AcDbCircle
 10
1165.2886158471
 20
981.5912622726
 30
0.0
 40
12.00000000000011
100
AcDbArc
 50
90.0
 51
180.0
  0
ARC
  5
35A
330
1F
100
AcDbEntity
  8
PROFILES_OUTSIDE
100
AcDbCircle
 10
1328.1392265509
 20
1005.5912622726
 30
0.0
 40
12.00000000000023
100
AcDbArc
 50
270.0
 51
0.0
  0
ARC
  5
35B
330
1F
100
AcDbEntity
  8
PROFILES_OUTSIDE
100
AcDbCircle
 10
1328.1392265509
 20
1031.5912622726
 30
0.0
 40
12.00000000000023
100
AcDbArc
 50
0.0
 51
90.0
  0
ARC
  5
35C
330
1F
100
AcDbEntity
  8
PROFILES_OUTSIDE
100
AcDbCircle
 10
1165.2886158471
 20
1055.5912622726
 30
0.0
 40
12.00000000000023
100
AcDbArc
 50
180.0
 51
270.0
  0
ARC
  5
35D
330
1F
100
AcDbEntity
  8
PROFILES_OUTSIDE
100
AcDbCircle
 10
1155.3124342074
 20
1172.5912622726
 30
0.0
 40
1.0
100
AcDbArc
 50
17.6004667859
 51
90.0
  0
ARC
  5
35E
330
1F
100
AcDbEntity
  8
PROFILES_OUTSIDE
100
AcDbCircle
 10
1161.1936054283
 20
1174.4569324122
 30
0.0
 40
5.170000000000235
100
AcDbArc
 50
197.6004667859
 51
24.8878920264
  0
ARC
  5
35F
330
1F
100
AcDbEntity
  8
PROFILES_OUTSIDE
100
AcDbCircle
 10
1166.7906158471
 20
1177.053540656
 30
0.0
 40
0.9999999999997726
100
AcDbArc
 50
180.0
 51
204.8878920264
  0
ARC
  5
360
330
1F
100
AcDbEntity
  8
PROFILES_OUTSIDE
100
AcDbCircle
 10
1164.7906158471
 20
1184.9932163655
 30
0.0
 40
1.000000000000227
100
AcDbArc
 50
0.0
 51
86.3380644245
  0
ARC
  5
361
330
1F
100
AcDbEntity
  8
PROFILES_OUTSIDE
100
AcDbCircle
 10
1172.2906158471
 20
1192.5912622726
 30
0.0
 40
6.0
100
AcDbArc
 50
0.0
 51
90.0
  0
ARC
  5
362
330
1F
100
AcDbEntity
  8
PROFILES_OUTSIDE
100
AcDbCircle
 10
1664.8384479584
 20
1074.6412622726
 30
0.0
 40
11.99999999999977
100
AcDbArc
 50
270.0
 51
0.0
  0
ARC
  5
363
330
1F
100
AcDbEntity
  8
PROFILES_OUTSIDE
100
AcDbCircle
 10
1340.1392265509
 20
1043.5912622726
 30
0.0
 40
19.04999999999995
100
AcDbArc
 50
30.0
 51
90.0
  0
ARC
  5
364
330
1F
100
AcDbEntity
  8
PROFILES_OUTSIDE
100
AcDbCircle
 10
1373.1347944351
 20
1062.6412622726
 30
0.0
 40
19.05000000000001
100
AcDbArc
 50
210.0
 51
270.0
  0
ARC
  5
365
330
1F
100
AcDbEntity
  8
PROFILES_OUTSIDE
100
AcDbCircle
 10
1481.9942693705
 20
1062.6412622726
 30
0.0
 40
19.05000000000001
100
AcDbArc
 50
270.0
 51
330.0
  0
ARC
  5
366
330
1F
100
AcDbEntity
  8
PROFILES_OUTSIDE
100
AcDbCircle
 10
1514.9898372546
 20
1043.5912622726
 30
0.0
 40
19.04999999999995
100
AcDbArc
 50
90.0
 51
150.0
  0
ARC
  5
367
330
1F
100
AcDbEntity
  8
PROFILES_OUTSIDE
100
AcDbCircle
 10
1682.8384479584
 20
1192.5912622726
 30
0.0
 40
6.000000000000227
100
AcDbArc
 50
90.0
 51
180.0
  0
ARC
  5
368
330
1F
100
AcDbEntity
  8
PROFILES_OUTSIDE
100
AcDbCircle
 10
1694.5884479584
 20
1197.5912622726
 30
0.0
 40
1.000000000000227
100
AcDbArc
 50
0.0
 51
90.0
  0
ARC
  5
369
330
1F
100
AcDbEntity
  8
PROFILES_OUTSIDE
100
AcDbCircle
 10
1740.5684479584
 20
1197.5912622726
 30
0.0
 40
1.000000000000227
100
AcDbArc
 50
90.0
 51
180.0
  0
ARC
  5
36A
330
1F
100
AcDbEntity
  8
PROFILES_OUTSIDE
100
AcDbCircle
 10
1770.3184479584
 20
1074.6412622726
 30
0.0
 40
12.0
100
AcDbArc
 50
180.0
 51
270.0
  0
ARC
  5
36B
330
1F
100
AcDbEntity
  8
PROFILES_OUTSIDE
100
AcDbCircle
 10
2244.8662800697
 20
1074.6412622726
 30
0.0
 40
12.0
100
AcDbArc
 50
270.0
 51
0.0
  0
ARC
  5
36C
330
1F
100
AcDbEntity
  8
PROFILES_OUTSIDE
100
AcDbCircle
 10
2274.6162800697
 20
1197.5912622726
 30
0.0
 40
1.0
100
AcDbArc
 50
0.0
 51
90.0
  0
ARC
  5
36D
330
1F
100
AcDbEntity
  8
PROFILES_OUTSIDE
100
AcDbCircle
 10
1744.8184479584
 20
852.1893081798
 30
0.0
 40
1.0
100
AcDbArc
 50
273.6619355755
 51
0.0
  0
ARC
  5
36E
330
1F
100
AcDbEntity
  8
PROFILES_OUTSIDE
100
AcDbCircle
 10
1746.8184479584
 20
860.1289838892
 30
0.0
 40
0.9999999999999893
100
AcDbArc
 50
155.1121079736
 51
180.0
  0
ARC
  5
36F
330
1F
100
AcDbEntity
  8
PROFILES_OUTSIDE
100
AcDbCircle
 10
1741.2214375396
 20
862.725592133
 30
0.0
 40
5.17000000000003
100
AcDbArc
 50
335.1121079736
 51
162.3995332141
  0
ARC
  5
370
330
1F
100
AcDbEntity
  8
PROFILES_OUTSIDE
100
AcDbCircle
 10
1735.3402663186
 20
864.5912622726
 30
0.0
 40
1.0
100
AcDbArc
 50
270.0
 51
342.3995332141
  0
ARC
  5
371
330
1F
100
AcDbEntity
  8
PROFILES_OUTSIDE
100
AcDbCircle
 10
1745.3164479584
 20
981.5912622726
 30
0.0
 40
12.0
100
AcDbArc
 50
90.0
 51
180.0
  0
ARC
  5
372
330
1F
100
AcDbEntity
  8
PROFILES_OUTSIDE
100
AcDbCircle
 10
1908.1670586622
 20
1005.5912622726
 30
0.0
 40
12.0
100
AcDbArc
 50
270.0
 51
0.0
  0
ARC
  5
373
330
1F
100
AcDbEntity
  8
PROFILES_OUTSIDE
100
AcDbCircle
 10
1908.1670586622
 20
1031.5912622726
 30
0.0
 40
12.00000000000023
100
AcDbArc
 50
0.0
 51
90.0
  0
ARC
  5
374
330
1F
100
AcDbEntity
  8
PROFILES_OUTSIDE
100
AcDbCircle
 10
1745.3164479584
 20
1055.5912622726
 30
0.0
 40
12.0
100
AcDbArc
 50
180.0
 51
270.0
  0
ARC
  5
375
330
1F
100
AcDbEntity
  8
PROFILES_OUTSIDE
100
AcDbCircle
 10
1735.3402663186
 20
1172.5912622726
 30
0.0
 40
1.000000000000227
100
AcDbArc
 50
17.6004667859
 51
90.0
  0
ARC
  5
376
330
1F
100
AcDbEntity
  8
PROFILES_OUTSIDE
100
AcDbCircle
 10
1741.2214375396
 20
1174.4569324122
 30
0.0
 40
5.170000000000139
100
AcDbArc
 50
197.6004667859
 51
24.8878920264
  0
ARC
  5
377
330
1F
100
AcDbEntity
  8
PROFILES_OUTSIDE
100
AcDbCircle
 10
1746.8184479584
 20
1177.053540656
 30
0.0
 40
1.000000000000037
100
AcDbArc
 50
180.0
 51
204.8878920264
  0
ARC
  5
378
330
1F
100
AcDbEntity
  8
PROFILES_OUTSIDE
100
AcDbCircle
 10
1744.8184479584
 20
1184.9932163655
 30
0.0
 40
1.0
100
AcDbArc
 50
0.0
 51
86.3380644245
  0
ARC
  5
379
330
1F
100
AcDbEntity
  8
PROFILES_OUTSIDE
100
AcDbCircle
 10
1752.3184479584
 20
1192.5912622726
 30
0.0
 40
6.000000000000227
100
AcDbArc
 50
0.0
 51
90.0
  0
ARC
  5
37A
330
1F
100
AcDbEntity
  8
PROFILES_OUTSIDE
100
AcDbCircle
 10
2274.6162800697
 20
839.5912622726
 30
0.0
 40
0.9999999999998863
100
AcDbArc
 50
270.0
 51
0.0
  0
ARC
  5
37B
330
1F
100
AcDbEntity
  8
PROFILES_OUTSIDE
100
AcDbCircle
 10
1920.1670586622
 20
1043.5912622726
 30
0.0
 40
19.0499999999999
100
AcDbArc
 50
30.0
 51
90.0
  0
ARC
  5
37C
330
1F
100
AcDbEntity
  8
PROFILES_OUTSIDE
100
AcDbCircle
 10
1953.1626265464
 20
1062.6412622726
 30
0.0
 40
19.0500000000001
100
AcDbArc
 50
210.0
 51
270.0
  0
ARC
  5
37D
330
1F
100
AcDbEntity
  8
PROFILES_OUTSIDE
100
AcDbCircle
 10
2062.0221014817
 20
1062.6412622726
 30
0.0
 40
19.05000000000001
100
AcDbArc
 50
270.0
 51
330.0
  0
ARC
  5
37E
330
1F
100
AcDbEntity
  8
PROFILES_OUTSIDE
100
AcDbCircle
 10
2095.0176693659
 20
1043.5912622726
 30
0.0
 40
19.04999999999995
100
AcDbArc
 50
90.0
 51
150.0
  0
ARC
  5
37F
330
1F
100
AcDbEntity
  8
PROFILES_OUTSIDE
100
AcDbCircle
 10
2262.8662800697
 20
1192.5912622726
 30
0.0
 40
6.000000000000227
100
AcDbArc
 50
90.0
 51
180.0
  0
ARC
  5
380
330
1F
100
AcDbEntity
  8
PROFILES_OUTSIDE
100
AcDbCircle
 10
2244.8662800697
 20
962.5412622726
 30
0.0
 40
12.0
100
AcDbArc
 50
0.0
 51
90.0
  0
ARC
  5
381
330
1F
100
AcDbEntity
  8
PROFILES_OUTSIDE
100
AcDbCircle
 10
2270.3662800697
 20
1184.9932163655
 30
0.0
 40
1.0
100
AcDbArc
 50
93.6619355755
 51
180.0
  0
ARC
  5
382
330
1F
100
AcDbEntity
  8
PROFILES_OUTSIDE
100
AcDbCircle
 10
2268.3662800697
 20
1177.053540656
 30
0.0
 40
1.000000000000752
100
AcDbArc
 50
335.1121079736
 51
0.0
  0
ARC
  5
383
330
1F
100
AcDbEntity
  8
PROFILES_OUTSIDE
100
AcDbCircle
 10
2273.9632904885
 20
1174.4569324122
 30
0.0
 40
5.170000000000139
100
AcDbArc
 50
155.1121079736
 51
342.3995332141
  0
ARC
  5
384
330
1F
100
AcDbEntity
  8
PROFILES_OUTSIDE
100
AcDbCircle
 10
2279.8444617095
 20
1172.5912622726
 30
0.0
 40
1.0
100
AcDbArc
 50
90.0
 51
162.3995332141
  0
ARC
  5
385
330
1F
100
AcDbEntity
  8
PROFILES_OUTSIDE
100
AcDbCircle
 10
2269.8682800697
 20
1055.5912622726
 30
0.0
 40
12.0
100
AcDbArc
 50
270.0
 51
0.0
  0
ARC
  5
386
330
1F
100
AcDbEntity
  8
PROFILES_OUTSIDE
100
AcDbCircle
 10
2107.0176693659
 20
1031.5912622726
 30
0.0
 40
12.00000000000045
100
AcDbArc
 50
90.0
 51
180.0
  0
ARC
  5
387
330
1F
100
AcDbEntity
  8
PROFILES_OUTSIDE
100
AcDbCircle
 10
2107.0176693659
 20
1005.5912622726
 30
0.0
 40
12.00000000000045
100
AcDbArc
 50
180.0
 51
270.0
  0
ARC
  5
388
330
1F
100
AcDbEntity
  8
PROFILES_OUTSIDE
100
AcDbCircle
 10
2269.8682800697
 20
981.5912622726
 30
0.0
 40
12.0
100
AcDbArc
 50
0.0
 51
90.0
  0
ARC
  5
389
330
1F
100
AcDbEntity
  8
PROFILES_OUTSIDE
100
AcDbCircle
 10
2279.8444617095
 20
864.5912622726
 30
0.0
 40
1.0
100
AcDbArc
 50
197.6004667859
 51
270.0
  0
ARC
  5
38A
330
1F
100
AcDbEntity
  8
PROFILES_OUTSIDE
100
AcDbCircle
 10
2273.9632904885
 20
862.725592133
 30
0.0
 40
5.170000000000235
100
AcDbArc
 50
17.6004667859
 51
204.8878920264
  0
ARC
  5
38B
330
1F
100
AcDbEntity
  8
PROFILES_OUTSIDE
100
AcDbCircle
 10
2268.3662800697
 20
860.1289838892
 30
0.0
 40
1.000000000000196
100
AcDbArc
 50
0.0
 51
24.8878920264
  0
ARC
  5
38C
330
1F
100
AcDbEntity
  8
PROFILES_OUTSIDE
100
AcDbCircle
 10
2270.3662800697
 20
852.1893081798
 30
0.0
 40
1.000000000000036
100
AcDbArc
 50
180.0
 51
266.3380644245
  0
ARC
  5
38D
330
1F
100
AcDbEntity
  8
PROFILES_OUTSIDE
100
AcDbCircle
 10
2262.8662800697
 20
844.5912622726
 30
0.0
 40
6.0
100
AcDbArc
 50
180.0
 51
270.0
  0
ARC
  5
38E
330
1F
100
AcDbEntity
  8
PROFILES_OUTSIDE
100
AcDbCircle
 10
1770.3184479584
 20
962.5412622726
 30
0.0
 40
11.99999999999977
100
AcDbArc
 50
90.0
 51
180.0
  0
ARC
  5
38F
330
1F
100
AcDbEntity
  8
PROFILES_OUTSIDE
100
AcDbCircle
 10
2095.0176693659
 20
993.5912622726
 30
0.0
 40
19.05000000000007
100
AcDbArc
 50
210.0
 51
270.0
  0
ARC
  5
390
330
1F
100
AcDbEntity
  8
PROFILES_OUTSIDE
100
AcDbCircle
 10
2062.0221014817
 20
974.5412622726
 30
0.0
 40
19.05000000000007
100
AcDbArc
 50
30.0
 51
90.0
  0
ARC
  5
391
330
1F
100
AcDbEntity
  8
PROFILES_OUTSIDE
100
AcDbCircle
 10
1953.1626265464
 20
974.5412622726
 30
0.0
 40
19.04999999999996
100
AcDbArc
 50
90.0
 51
150.0
  0
ARC
  5
392
330
1F
100
AcDbEntity
  8
PROFILES_OUTSIDE
100
AcDbCircle
 10
1920.1670586622
 20
993.5912622726
 30
0.0
 40
19.05000000000021
100
AcDbArc
 50
270.0
 51
330.0
  0
ARC
  5
393
330
1F
100
AcDbEntity
  8
PROFILES_OUTSIDE
100
AcDbCircle
 10
1752.3184479584
 20
844.5912622726
 30
0.0
 40
6.0
100
AcDbArc
 50
270.0
 51
0.0
  0
ARC
  5
394
330
1F
100
AcDbEntity
  8
PROFILES_OUTSIDE
100
AcDbCircle
 10
1740.5684479584
 20
839.5912622726
 30
0.0
 40
1.000000000000114
100
AcDbArc
 50
180.0
 51
270.0
  0
ENDSEC
  0
SECTION
  2
OBJECTS
  0
DICTIONARY
  5
C
330
0
100
AcDbDictionary
  3
ACAD_GROUP
350
D
  3
ACAD_MLINESTYLE
350
17
  3
ACAD_SCALELIST
350
47
  0
DICTIONARY
  5
D
102
{ACAD_REACTORS
330
C
102
}
330
C
100
AcDbDictionary
  0
DICTIONARY
  5
17
102
{ACAD_REACTORS
330
C
102
}
330
C
100
AcDbDictionary
  3
STANDARD
350
18
  0
DICTIONARY
  5
47
102
{ACAD_REACTORS
330
C
102
}
330
C
100
AcDbDictionary
  0
MLINESTYLE
  5
18
102
{ACAD_REACTORS
330
17
102
}
330
17
100
AcDbMlineStyle
  2
Standard
 70
     0
  3

 62
   256
 51
90.0
 52
90.0
 71
     2
 49
0.5
 62
   256
  6
BYLAYER
 49
-0.5
 62
   256
  6
BYLAYER
  0
ENDSEC
  0
EOF
