  0
SECTION
  2
HEADER
  9
$ACADVER
  1
AC1014
  9
$ACADMAINTVER
 70
     9
  9
$DWGCODEPAGE
  3
ANSI_1252
  9
$INSBASE
 10
0.0
 20
0.0
 30
0.0
  9
$EXTMIN
 10
0.0
 20
0.0
 30
0.0
  9
$EXTMAX
 10
96.062992126
 20
48.031496063
 30
0.0
  9
$LIMMIN
 10
0.0
 20
0.0
  9
$LIMMAX
 10
96.062992126
 20
48.031496063
  9
$ORTHOMODE
 70
     0
  9
$REGENMODE
 70
     1
  9
$FILLMODE
 70
     1
  9
$QTEXTMODE
 70
     0
  9
$MIRRTEXT
 70
     1
  9
$DRAGMODE
 70
     2
  9
$LTSCALE
 40
1.0
  9
$OSMODE
 70
    37
  9
$ATTMODE
 70
     1
  9
$TEXTSIZE
 40
0.1377952756
  9
$TRACEWID
 40
0.05
  9
$TEXTSTYLE
  7
STANDARD
  9
$CLAYER
  8
0
  9
$CELTYPE
  6
BYLAYER
  9
$CECOLOR
 62
   256
  9
$CELTSCALE
 40
1.0
  9
$DELOBJ
 70
     1
  9
$DISPSILH
 70
     0
  9
$DIMSCALE
 40
1.0
  9
$DIMASZ
 40
0.13
  9
$DIMEXO
 40
0.0393700787
  9
$DIMDLI
 40
0.38
  9
$DIMRND
 40
0.0
  9
$DIMDLE
 40
0.0
  9
$DIMEXE
 40
0.0393700787
  9
$DIMTP
 40
0.0
  9
$DIMTM
 40
0.0
  9
$DIMTXT
 40
0.1805555556
  9
$DIMCEN
 40
0.09
  9
$DIMTSZ
 40
0.0
  9
$DIMTOL
 70
     0
  9
$DIMLIM
 70
     0
  9
$DIMTIH
 70
     1
  9
$DIMTOH
 70
     1
  9
$DIMSE1
 70
     0
  9
$DIMSE2
 70
     0
  9
$DIMTAD
 70
     1
  9
$DIMZIN
 70
     0
  9
$DIMBLK
  1

  9
$DIMASO
 70
     1
  9
$DIMSHO
 70
     1
  9
$DIMPOST
  1

  9
$DIMAPOST
  1

  9
$DIMALT
 70
     0
  9
$DIMALTD
 70
     2
  9
$DIMALTF
 40
25.4
  9
$DIMLFAC
 40
1.0
  9
$DIMTOFL
 70
     0
  9
$DIMTVP
 40
0.0
  9
$DIMTIX
 70
     0
  9
$DIMSOXD
 70
     0
  9
$DIMSAH
 70
     0
  9
$DIMBLK1
  1

  9
$DIMBLK2
  1

  9
$DIMSTYLE
  2
STANDARD
  9
$DIMCLRD
 70
     0
  9
$DIMCLRE
 70
     0
  9
$DIMCLRT
 70
     0
  9
$DIMTFAC
 40
1.0
  9
$DIMGAP
 40
0.06
  9
$DIMJUST
 70
     0
  9
$DIMSD1
 70
     0
  9
$DIMSD2
 70
     0
  9
$DIMTOLJ
 70
     1
  9
$DIMTZIN
 70
     0
  9
$DIMALTZ
 70
     0
  9
$DIMALTTZ
 70
     0
  9
$DIMFIT
 70
     3
  9
$DIMUPT
 70
     0
  9
$DIMUNIT
 70
     2
  9
$DIMDEC
 70
     2
  9
$DIMTDEC
 70
     2
  9
$DIMALTU
 70
     2
  9
$DIMALTTD
 70
     2
  9
$DIMTXSTY
  7
STANDARD
  9
$DIMAUNIT
 70
     0
  9
$LUNITS
 70
     2
  9
$LUPREC
 70
     2
  9
$SKETCHINC
 40
0.1
  9
$FILLETRAD
 40
0.5
  9
$AUNITS
 70
     0
  9
$AUPREC
 70
     2
  9
$MENU
  1
.
  9
$ELEVATION
 40
0.0
  9
$PELEVATION
 40
0.0
  9
$THICKNESS
 40
0.0
  9
$LIMCHECK
 70
     0
  9
$CHAMFERA
 40
0.0
  9
$CHAMFERB
 40
0.0
  9
$CHAMFERC
 40
0.0
  9
$CHAMFERD
 40
0.0
  9
$SKPOLY
 70
     0
  9
$TDCREATE
 40
2457718.746304387
  9
$TDUPDATE
 40
2457718.746304745
  9
$TDINDWG
 40
0.0000000116
  9
$TDUSRTIMER
 40
0.0000000116
  9
$USRTIMER
 70
     1
  9
$ANGBASE
 50
0.0
  9
$ANGDIR
 70
     0
  9
$PDMODE
 70
     0
  9
$PDSIZE
 40
-1.0
  9
$PLINEWID
 40
0.0
  9
$COORDS
 70
     1
  9
$SPLFRAME
 70
     0
  9
$SPLINETYPE
 70
     6
  9
$SPLINESEGS
 70
     8
  9
$ATTDIA
 70
     0
  9
$ATTREQ
 70
     1
  9
$HANDLING
 70
     1
  9
$HANDSEED
  5
395
  9
$SURFTAB1
 70
     6
  9
$SURFTAB2
 70
     6
  9
$SURFTYPE
 70
     6
  9
$SURFU
 70
     6
  9
$SURFV
 70
     6
  9
$UCSNAME
  2

  9
$UCSORG
 10
0.0
 20
0.0
 30
0.0
  9
$UCSXDIR
 10
1.0
 20
0.0
 30
0.0
  9
$UCSYDIR
 10
0.0
 20
1.0
 30
0.0
  9
$PUCSNAME
  2

  9
$PUCSORG
 10
0.0
 20
0.0
 30
0.0
  9
$PUCSXDIR
 10
1.0
 20
0.0
 30
0.0
  9
$PUCSYDIR
 10
0.0
 20
1.0
 30
0.0
  9
$USERI1
 70
     0
  9
$USERI2
 70
     0
  9
$USERI3
 70
     0
  9
$USERI4
 70
     0
  9
$USERI5
 70
     0
  9
$USERR1
 40
0.0
  9
$USERR2
 40
0.0
  9
$USERR3
 40
0.0
  9
$USERR4
 40
0.0
  9
$USERR5
 40
0.0
  9
$WORLDVIEW
 70
     1
  9
$SHADEDGE
 70
     3
  9
$SHADEDIF
 70
    70
  9
$TILEMODE
 70
     1
  9
$MAXACTVP
 70
    64
  9
$PINSBASE
 10
0.0
 20
0.0
 30
0.0
  9
$PLIMCHECK
 70
     0
  9
$PEXTMIN
 10
1.0000000000E+20
 20
1.0000000000E+20
 30
1.0000000000E+20
  9
$PEXTMAX
 10
-1.0000000000E+20
 20
-1.0000000000E+20
 30
-1.0000000000E+20
  9
$PLIMMIN
 10
0.0
 20
0.0
  9
$PLIMMAX
 10
12.0
 20
9.0
  9
$UNITMODE
 70
     0
  9
$VISRETAIN
 70
     1
  9
$PLINEGEN
 70
     0
  9
$PSLTSCALE
 70
     1
  9
$TREEDEPTH
 70
  3020
  9
$PICKSTYLE
 70
     1
  9
$CMLSTYLE
  2
STANDARD
  9
$CMLJUST
 70
     0
  9
$CMLSCALE
 40
1.0
  9
$PROXYGRAPHICS
 70
     1
  9
$MEASUREMENT
 70
     0
  0
ENDSEC
  0
SECTION
  2
CLASSES
  0
CLASS
  1
ACDBDICTIONARYWDFLT
  2
AcDbDictionaryWithDefault
  3
ObjectDBX Classes
 90
        0
280
     0
281
     0
  0
CLASS
  1
VISUALSTYLE
  2
AcDbVisualStyle
  3
ObjectDBX Classes
 90
     4095
280
     0
281
     0
  0
CLASS
  1
MATERIAL
  2
AcDbMaterial
  3
ObjectDBX Classes
 90
     1153
280
     0
281
     0
  0
CLASS
  1
SCALE
  2
AcDbScale
  3
ObjectDBX Classes
 90
     1153
280
     0
281
     0
  0
CLASS
  1
TABLESTYLE
  2
AcDbTableStyle
  3
ObjectDBX Classes
 90
     4095
280
     0
281
     0
  0
CLASS
  1
MLEADERSTYLE
  2
AcDbMLeaderStyle
  3
ACDB_MLEADERSTYLE_CLASS
 90
     4095
280
     0
281
     0
  0
CLASS
  1
SUN
  2
AcDbSun
  3
SCENEOE
 90
     1153
280
     0
281
     0
  0
CLASS
  1
XRECORD
  2
AcDbXrecord
  3
ObjectDBX Classes
 90
        0
280
     0
281
     0
  0
CLASS
  1
LWPOLYLINE
  2
AcDbPolyline
  3
ObjectDBX Classes
 90
        0
280
     0
281
     1
  0
CLASS
  1
HATCH
  2
AcDbHatch
  3
ObjectDBX Classes
 90
        0
280
     0
281
     1
  0
ENDSEC
  0
SECTION
  2
TABLES
  0
TABLE
  2
VPORT
  5
8
330
0
100
AcDbSymbolTable
 70
     1
  0
VPORT
  5
29
330
8
100
AcDbSymbolTableRecord
100
AcDbViewportTableRecord
  2
*ACTIVE
 70
     0
 10
0.0
 20
0.0
 11
1.0
 21
1.0
 12
48.031496063
 22
24.0157480315
 13
0.0
 23
0.0
 14
0.5
 24
0.5
 15
0.5
 25
0.5
 16
0.0
 26
0.0
 36
1.0
 17
0.0
 27
0.0
 37
0.0
 40
48.031496063
 41
2.0
 42
50.0
 43
0.0
 44
0.0
 50
0.0
 51
0.0
 71
     0
 72
  2000
 73
     1
 74
     3
 75
     0
 76
     0
 77
     0
 78
     0
  0
ENDTAB
  0
TABLE
  2
LTYPE
  5
5
330
0
100
AcDbSymbolTable
 70
     6
  0
LTYPE
  5
14
330
5
100
AcDbSymbolTableRecord
100
AcDbLinetypeTableRecord
  2
BYBLOCK
 70
     0
  3

 72
    65
 73
     0
 40
0.0
  0
LTYPE
  5
15
330
5
100
AcDbSymbolTableRecord
100
AcDbLinetypeTableRecord
  2
BYLAYER
 70
     0
  3

 72
    65
 73
     0
 40
0.0
  0
LTYPE
  5
16
330
5
100
AcDbSymbolTableRecord
100
AcDbLinetypeTableRecord
  2
CONTINUOUS
 70
     0
  3
Solid line
 72
    65
 73
     0
 40
0.0
  0
LTYPE
  5
6E
330
5
100
AcDbSymbolTableRecord
100
AcDbLinetypeTableRecord
  2
HIDDEN
 70
     0
  3
Hidden __ __ __ __ __ __ __ __ __ __ __ __ __ __
 72
    65
 73
     2
 40
0.075
 49
0.05
 74
     0
 49
-0.025
 74
     0
  0
LTYPE
  5
6F
330
5
100
AcDbSymbolTableRecord
100
AcDbLinetypeTableRecord
  2
PHANTOM
 70
     0
  3
Phantom ______  __  __  ______  __  __  ______
 72
    65
 73
     6
 40
0.5
 49
0.25
 74
     0
 49
-0.05
 74
     0
 49
0.05
 74
     0
 49
-0.05
 74
     0
 49
0.05
 74
     0
 49
-0.05
 74
     0
  0
LTYPE
  5
70
330
5
100
AcDbSymbolTableRecord
100
AcDbLinetypeTableRecord
  2
CENTER
 70
     0
  3
Center ____ _ ____ _ ____ _ ____ _ ____ _ ____
 72
    65
 73
     4
 40
0.4
 49
0.25
 74
     0
 49
-0.05
 74
     0
 49
0.05
 74
     0
 49
-0.05
 74
     0
  0
LTYPE
  5
71
330
5
100
AcDbSymbolTableRecord
100
AcDbLinetypeTableRecord
  2
CENTERX2
 70
     0
  3
Center (2x) ________  __  ________  __  _____
 72
    65
 73
     4
 40
0.8
 49
0.5
 74
     0
 49
-0.1
 74
     0
 49
0.1
 74
     0
 49
-0.1
 74
     0
  0
LTYPE
  5
72
330
5
100
AcDbSymbolTableRecord
100
AcDbLinetypeTableRecord
  2
DOT2
 70
     0
  3
Dot (.5x) ........................................
 72
    65
 73
     2
 40
0.025
 49
0.0
 74
     0
 49
-0.025
 74
     0
  0
ENDTAB
  0
TABLE
  2
LAYER
  5
2
330
0
100
AcDbSymbolTable
 70
     6
  0
LAYER
  5
10
330
2
100
AcDbSymbolTableRecord
100
AcDbLayerTableRecord
  2
0
 70
     0
 62
     7
  6
CONTINUOUS
  0
LAYER
  5
73
330
2
100
AcDbSymbolTableRecord
100
AcDbLayerTableRecord
  2
BOX_STOCK
 70
     0
 62
     1
  6
CONTINUOUS
  0
LAYER
  5
74
330
2
100
AcDbSymbolTableRecord
100
AcDbLayerTableRecord
  2
HOLES
 70
     0
 62
    30
  6
CONTINUOUS
  0
LAYER
  5
75
330
2
100
AcDbSymbolTableRecord
100
AcDbLayerTableRecord
  2
POCKETS
 70
     0
 62
   171
  6
CONTINUOUS
  0
LAYER
  5
76
330
2
100
AcDbSymbolTableRecord
100
AcDbLayerTableRecord
  2
PROFILES_OUTSIDE
 70
     0
 62
     6
  6
CONTINUOUS
  0
LAYER
  5
77
330
2
100
AcDbSymbolTableRecord
100
AcDbLayerTableRecord
  2
PROFILES_INSIDE
 70
     0
 62
     4
  6
CONTINUOUS
  0
ENDTAB
  0
TABLE
  2
STYLE
  5
3
330
0
100
AcDbSymbolTable
 70
     1
  0
STYLE
  5
11
330
3
100
AcDbSymbolTableRecord
100
AcDbTextStyleTableRecord
  2
STANDARD
 70
     0
 40
0.0
 41
1.0
 50
0.0
 71
     0
 42
0.1377952756
  3
txt
  4

  0
ENDTAB
  0
TABLE
  2
VIEW
  5
6
330
0
100
AcDbSymbolTable
 70
     0
  0
ENDTAB
  0
TABLE
  2
UCS
  5
7
330
0
100
AcDbSymbolTable
 70
     0
  0
ENDTAB
  0
TABLE
  2
APPID
  5
9
330
0
100
AcDbSymbolTable
 70
     1
  0
APPID
  5
12
330
9
100
AcDbSymbolTableRecord
100
AcDbRegAppTableRecord
  2
ACAD
 70
     0
  0
ENDTAB
  0
TABLE
  2
DIMSTYLE
  5
A
330
0
100
AcDbSymbolTable
 70
     1
  0
DIMSTYLE
105
27
330
A
100
AcDbSymbolTableRecord
100
AcDbDimStyleTableRecord
  2
STANDARD
 70
     0
  3

  4

  5

  6

  7

 40
1.0
 41
0.18
 42
0.0625
 43
0.38
 44
0.18
 45
0.0
 46
0.0
 47
0.0
 48
0.0
140
0.18
141
0.09
142
0.0
143
25.4
144
1.0
145
0.0
146
1.0
147
0.09
 71
     0
 72
     0
 73
     1
 74
     1
 75
     0
 76
     0
 77
     0
 78
     0
170
     0
171
     2
172
     0
173
     0
174
     0
175
     0
176
     0
177
     0
178
     0
270
     2
271
     4
272
     4
273
     2
274
     2
340
11
275
     0
280
     0
281
     0
282
     0
283
     1
284
     0
285
     0
286
     0
287
     3
288
     0
  0
ENDTAB
  0
TABLE
  2
BLOCK_RECORD
  5
1
330
0
100
AcDbSymbolTable
 70
     1
  0
BLOCK_RECORD
  5
1F
330
1
100
AcDbSymbolTableRecord
100
AcDbBlockTableRecord
  2
*MODEL_SPACE
  0
BLOCK_RECORD
  5
1B
330
1
100
AcDbSymbolTableRecord
100
AcDbBlockTableRecord
  2
*PAPER_SPACE
  0
BLOCK_RECORD
  5
23
330
1
100
AcDbSymbolTableRecord
100
AcDbBlockTableRecord
  2
*PAPER_SPACE0
  0
ENDTAB
  0
ENDSEC
  0
SECTION
  2
BLOCKS
  0
BLOCK
  5
20
330
1F
100
AcDbEntity
  8
0
100
AcDbBlockBegin
  2
*MODEL_SPACE
 70
     0
 10
0.0
 20
0.0
 30
0.0
  3
*MODEL_SPACE
  1

  0
ENDBLK
  5
21
330
1F
100
AcDbEntity
  8
0
100
AcDbBlockEnd
  0
BLOCK
  5
1C
330
1B
100
AcDbEntity
 67
     1
  8
0
100
AcDbBlockBegin
  2
*PAPER_SPACE
 70
     0
 10
0.0
 20
0.0
 30
0.0
  3
*PAPER_SPACE
  1

  0
ENDBLK
  5
1D
330
1B
100
AcDbEntity
 67
     1
  8
0
100
AcDbBlockEnd
  0
BLOCK
  5
24
330
23
100
AcDbEntity
  8
0
100
AcDbBlockBegin
  2
*PAPER_SPACE0
 70
     0
 10
0.0
 20
0.0
 30
0.0
  3
*PAPER_SPACE0
  1

  0
ENDBLK
  5
25
330
23
100
AcDbEntity
  8
0
100
AcDbBlockEnd
  0
ENDSEC
  0
SECTION
  2
ENTITIES
  0
ARC
  5
78
330
1F
100
AcDbEntity
  8
0
  6
CONTINUOUS
 62
     7
100
AcDbCircle
 10
1.257806302
 20
1.5842513927
 30
0.0
 40
0.2362204724409538
100
AcDbArc
 50
180.0
 51
280.0
  0
LINE
  5
79
330
1F
100
AcDbEntity
  8
0
  6
CONTINUOUS
 62
     7
100
AcDbLine
 10
1.0215858094
 20
1.5842513252
 30
0.0
 11
1.0215858094
 21
2.6503736759
 31
0.0
  0
LINE
  5
7A
330
1F
100
AcDbEntity
  8
0
  6
CONTINUOUS
 62
     7
100
AcDbLine
 10
2.5918413563
 20
2.9272522107
 30
0.0
 11
1.0215858094
 21
2.6503736759
 31
0.0
  0
ARC
  5
7B
330
1F
100
AcDbEntity
  8
0
  6
CONTINUOUS
 62
     7
100
AcDbCircle
 10
2.794248975
 20
2.9487232948
 30
0.0
 40
0.2035432785934333
100
AcDbArc
 50
186.0551972321
 51
214.8878509098
  0
ARC
  5
7C
330
1F
100
AcDbEntity
  8
0
  6
CONTINUOUS
 62
     7
100
AcDbCircle
 10
2.5949937209
 20
2.8097837069
 30
0.0
 40
0.039370037649564
100
AcDbArc
 50
10.0
 51
34.8878509098
  0
LINE
  5
7D
330
1F
100
AcDbEntity
  8
0
  6
CONTINUOUS
 62
     7
100
AcDbLine
 10
2.7189863942
 20
2.3333104053
 30
0.0
 11
2.6337655387
 21
2.8166201821
 31
0.0
  0
ARC
  5
7E
330
1F
100
AcDbEntity
  8
0
  6
CONTINUOUS
 62
     7
100
AcDbCircle
 10
2.680214293
 20
2.3264738261
 30
0.0
 40
0.0393700787401584
100
AcDbArc
 50
345.1121167212
 51
10.0
  0
ARC
  5
7F
330
1F
100
AcDbEntity
  8
0
  6
CONTINUOUS
 62
     7
100
AcDbCircle
 10
2.9149731822
 20
2.2640624734
 30
0.0
 40
0.2035433070866169
100
AcDbArc
 50
165.1121167212
 51
352.399540952
  0
ARC
  5
80
330
1F
100
AcDbEntity
  8
0
  6
CONTINUOUS
 62
     7
100
AcDbCircle
 10
3.1557524477
 20
2.2319336967
 30
0.0
 40
0.0393700787401574
100
AcDbArc
 50
100.0000371503
 51
172.399540952
  0
LINE
  5
81
330
1F
100
AcDbEntity
  8
0
  6
CONTINUOUS
 62
     7
100
AcDbLine
 10
3.3056955631
 20
2.2983503159
 30
0.0
 11
3.1489159876
 21
2.2707055819
 31
0.0
  0
ARC
  5
82
330
1F
100
AcDbEntity
  8
0
  6
CONTINUOUS
 62
     7
100
AcDbCircle
 10
3.312532146
 20
2.2595782924
 30
0.0
 40
0.039370078740162
100
AcDbArc
 50
27.6004745238
 51
100.0000371503
  0
ARC
  5
83
330
1F
100
AcDbEntity
  8
0
  6
CONTINUOUS
 62
     7
100
AcDbCircle
 10
3.5278019259
 20
2.3721208838
 30
0.0
 40
0.2035433070866158
100
AcDbArc
 50
207.6004745238
 51
34.8879007739
  0
ARC
  5
84
330
1F
100
AcDbEntity
  8
0
  6
CONTINUOUS
 62
     7
100
AcDbCircle
 10
3.7270571395
 20
2.5110607012
 30
0.0
 40
0.0393700787401559
100
AcDbArc
 50
190.0
 51
214.8879007739
  0
LINE
  5
85
330
1F
100
AcDbEntity
  8
0
  6
CONTINUOUS
 62
     7
100
AcDbLine
 10
3.6030646612
 20
2.9875335677
 30
0.0
 11
3.6882852234
 21
2.5042242309
 31
0.0
  0
ARC
  5
86
330
1F
100
AcDbEntity
  8
0
  6
CONTINUOUS
 62
     7
100
AcDbCircle
 10
3.6418376885
 20
2.9943703063
 30
0.0
 40
0.0393711348432816
100
AcDbArc
 50
165.11217169
 51
190.0
  0
ARC
  5
87
330
1F
100
AcDbEntity
  8
0
  6
CONTINUOUS
 62
     7
100
AcDbCircle
 10
3.4070777188
 20
3.0567817052
 30
0.0
 40
0.2035433070866127
100
AcDbArc
 50
345.11217169
 51
13.9447554429
  0
LINE
  5
88
330
1F
100
AcDbEntity
  8
0
  6
CONTINUOUS
 62
     7
100
AcDbLine
 10
22.1508796753
 20
6.3760379701
 30
0.0
 11
3.6046222432
 21
3.1058329478
 31
0.0
  0
ARC
  5
89
330
1F
100
AcDbEntity
  8
0
  6
CONTINUOUS
 62
     7
100
AcDbCircle
 10
22.3532864025
 20
6.3975093099
 30
0.0
 40
0.2035432785934378
100
AcDbArc
 50
186.0551972321
 51
214.8878509098
  0
ARC
  5
8A
330
1F
100
AcDbEntity
  8
0
  6
CONTINUOUS
 62
     7
100
AcDbCircle
 10
22.1540311484
 20
6.258569722
 30
0.0
 40
0.0393700376495656
100
AcDbArc
 50
10.0
 51
34.8878509098
  0
LINE
  5
8B
330
1F
100
AcDbEntity
  8
0
  6
CONTINUOUS
 62
     7
100
AcDbLine
 10
22.2780229532
 20
5.782096458
 30
0.0
 11
22.192802391
 21
6.2654062348
 31
0.0
  0
ARC
  5
8C
330
1F
100
AcDbEntity
  8
0
  6
CONTINUOUS
 62
     7
100
AcDbCircle
 10
22.2392517204
 20
5.7752598413
 30
0.0
 40
0.0393700787401566
100
AcDbArc
 50
345.1121167212
 51
10.0
  0
ARC
  5
8D
330
1F
100
AcDbEntity
  8
0
  6
CONTINUOUS
 62
     7
100
AcDbCircle
 10
22.4740106096
 20
5.7128484885
 30
0.0
 40
0.2035433070866145
100
AcDbArc
 50
165.1121167212
 51
352.399540952
  0
ARC
  5
8E
330
1F
100
AcDbEntity
  8
0
  6
CONTINUOUS
 62
     7
100
AcDbCircle
 10
22.7147898752
 20
5.6807197119
 30
0.0
 40
0.0393700787401566
100
AcDbArc
 50
100.0000371503
 51
172.399540952
  0
LINE
  5
8F
330
1F
100
AcDbEntity
  8
0
  6
CONTINUOUS
 62
     7
100
AcDbLine
 10
22.8647321221
 20
5.7471362219
 30
0.0
 11
22.7079531333
 21
5.7194916345
 31
0.0
  0
ARC
  5
90
330
1F
100
AcDbEntity
  8
0
  6
CONTINUOUS
 62
     7
100
AcDbCircle
 10
22.8715695735
 20
5.7083643075
 30
0.0
 40
0.0393700787401587
100
AcDbArc
 50
27.6004745237
 51
100.0000371503
  0
ARC
  5
91
330
1F
100
AcDbEntity
  8
0
  6
CONTINUOUS
 62
     7
100
AcDbCircle
 10
23.0868393534
 20
5.8209068989
 30
0.0
 40
0.2035433070866141
100
AcDbArc
 50
207.6004745238
 51
34.8879007739
  0
ARC
  5
92
330
1F
100
AcDbEntity
  8
0
  6
CONTINUOUS
 62
     7
100
AcDbCircle
 10
23.286094567
 20
5.9598467163
 30
0.0
 40
0.0393700787401601
100
AcDbArc
 50
190.0
 51
214.8879007739
  0
LINE
  5
93
330
1F
100
AcDbEntity
  8
0
  6
CONTINUOUS
 62
     7
100
AcDbLine
 10
24.0173287272
 20
5.3575048829
 30
0.0
 11
1.2988255067
 21
1.3516196326
 31
0.0
  0
LINE
  5
94
330
1F
100
AcDbEntity
  8
0
  6
CONTINUOUS
 62
     7
100
AcDbLine
 10
24.2125315922
 20
6.7395629439
 30
0.0
 11
23.1636588022
 21
6.5546190004
 31
0.0
  0
ARC
  5
95
330
1F
100
AcDbEntity
  8
0
  6
CONTINUOUS
 62
     7
100
AcDbCircle
 10
23.200875116
 20
6.4431563214
 30
0.0
 40
0.039371134843282
100
AcDbArc
 50
165.11217169
 51
190.0
  0
LINE
  5
96
330
1F
100
AcDbEntity
  8
0
  6
CONTINUOUS
 62
     7
100
AcDbLine
 10
24.2125315922
 20
6.7395629439
 30
0.0
 11
24.2125315922
 21
5.5901366489
 31
0.0
  0
LINE
  5
97
330
1F
100
AcDbEntity
  8
0
  6
CONTINUOUS
 62
     7
100
AcDbLine
 10
23.1621029802
 20
6.4363196204
 30
0.0
 11
23.2473235424
 21
5.9530104303
 31
0.0
  0
ARC
  5
98
330
1F
100
AcDbEntity
  8
0
  6
CONTINUOUS
 62
     7
100
AcDbCircle
 10
23.976310239
 20
5.5901365982
 30
0.0
 40
0.2362204724409445
100
AcDbArc
 50
280.0
 51
0.0
  0
ARC
  5
99
330
1F
100
AcDbEntity
  8
0
  6
CONTINUOUS
 62
     7
100
AcDbCircle
 10
22.9661151463
 20
6.5055677203
 30
0.0
 40
0.2035433070866112
100
AcDbArc
 50
345.11217169
 51
13.9447554428
  0
ARC
  5
9A
330
1F
100
AcDbEntity
  8
0
  6
CONTINUOUS
 62
     7
100
AcDbCircle
 10
1.257806302
 20
30.7355845668
 30
0.0
 40
0.2362204724409451
100
AcDbArc
 50
80.0
 51
180.0
  0
ARC
  5
9B
330
1F
100
AcDbEntity
  8
0
  6
CONTINUOUS
 62
     7
100
AcDbCircle
 10
22.9661152058
 20
25.8142683971
 30
0.0
 40
0.2035433070866156
100
AcDbArc
 50
346.0551977852
 51
14.8879007739
  0
ARC
  5
9C
330
1F
100
AcDbEntity
  8
0
  6
CONTINUOUS
 62
     7
100
AcDbCircle
 10
23.200874076
 20
25.8766798215
 30
0.0
 40
0.0393700787401599
100
AcDbArc
 50
170.0
 51
194.8879007739
  0
ARC
  5
9D
330
1F
100
AcDbEntity
  8
0
  6
CONTINUOUS
 62
     7
100
AcDbCircle
 10
22.8715695412
 20
26.6114717626
 30
0.0
 40
0.039370078740155
100
AcDbArc
 50
260.0000371503
 51
332.399540952
  0
LINE
  5
9E
330
1F
100
AcDbEntity
  8
0
  6
CONTINUOUS
 62
     7
100
AcDbLine
 10
22.7079531333
 20
26.6003433238
 30
0.0
 11
22.8647321221
 21
26.5726999098
 31
0.0
  0
ARC
  5
9F
330
1F
100
AcDbEntity
  8
0
  6
CONTINUOUS
 62
     7
100
AcDbCircle
 10
22.714789807
 20
26.6391161549
 30
0.0
 40
0.0393701072333398
100
AcDbArc
 50
187.6004745238
 51
260.0000371503
  0
ARC
  5
A0
330
1F
100
AcDbEntity
  8
0
  6
CONTINUOUS
 62
     7
100
AcDbCircle
 10
22.4740105501
 20
26.6069873132
 30
0.0
 40
0.2035432785934299
100
AcDbArc
 50
7.6004745238
 51
194.8878509098
  0
ARC
  5
A1
330
1F
100
AcDbEntity
  8
0
  6
CONTINUOUS
 62
     7
100
AcDbCircle
 10
22.2392517204
 20
26.5445761183
 30
0.0
 40
0.0393700376495618
100
AcDbArc
 50
350.0
 51
14.8878509098
  0
LINE
  5
A2
330
1F
100
AcDbEntity
  8
0
  6
CONTINUOUS
 62
     7
100
AcDbLine
 10
22.192802391
 20
26.0544304836
 30
0.0
 11
22.2780229532
 21
26.5377396737
 31
0.0
  0
ARC
  5
A3
330
1F
100
AcDbEntity
  8
0
  6
CONTINUOUS
 62
     7
100
AcDbCircle
 10
22.1540311484
 20
26.0612662376
 30
0.0
 40
0.0393700787401592
100
AcDbArc
 50
325.1121167212
 51
350.0
  0
ARC
  5
A4
330
1F
100
AcDbEntity
  8
0
  6
CONTINUOUS
 62
     7
100
AcDbCircle
 10
22.3532864045
 20
25.922326481
 30
0.0
 40
0.2035433070866171
100
AcDbArc
 50
145.1121167212
 51
173.9447554429
  0
LINE
  5
A5
330
1F
100
AcDbEntity
  8
0
  6
CONTINUOUS
 62
     7
100
AcDbLine
 10
3.6046222432
 20
29.214002304
 30
0.0
 11
22.1508796753
 21
25.9437981616
 31
0.0
  0
ARC
  5
A6
330
1F
100
AcDbEntity
  8
0
  6
CONTINUOUS
 62
     7
100
AcDbCircle
 10
3.4070777783
 20
29.2630544122
 30
0.0
 40
0.2035433070866186
100
AcDbArc
 50
346.0551977852
 51
14.8879007739
  0
ARC
  5
A7
330
1F
100
AcDbEntity
  8
0
  6
CONTINUOUS
 62
     7
100
AcDbCircle
 10
3.6418366485
 20
29.3254658367
 30
0.0
 40
0.0393700787401583
100
AcDbArc
 50
170.0
 51
194.8879007739
  0
LINE
  5
A8
330
1F
100
AcDbEntity
  8
0
  6
CONTINUOUS
 62
     7
100
AcDbLine
 10
3.6882852234
 20
29.8156126341
 30
0.0
 11
3.6030646612
 21
29.332303444
 31
0.0
  0
ARC
  5
A9
330
1F
100
AcDbEntity
  8
0
  6
CONTINUOUS
 62
     7
100
AcDbCircle
 10
3.7270581796
 20
29.808775075
 30
0.0
 40
0.0393711348432808
100
AcDbArc
 50
145.11217169
 51
170.0
  0
ARC
  5
AA
330
1F
100
AcDbEntity
  8
0
  6
CONTINUOUS
 62
     7
100
AcDbCircle
 10
3.527801924
 20
29.9477152445
 30
0.0
 40
0.2035433070866149
100
AcDbArc
 50
325.11217169
 51
152.399540952
  0
ARC
  5
AB
330
1F
100
AcDbEntity
  8
0
  6
CONTINUOUS
 62
     7
100
AcDbCircle
 10
3.3125321137
 20
30.0602577777
 30
0.0
 40
0.0393700787401597
100
AcDbArc
 50
260.0000371503
 51
332.399540952
  0
LINE
  5
AC
330
1F
100
AcDbEntity
  8
0
  6
CONTINUOUS
 62
     7
100
AcDbLine
 10
3.1489159876
 20
30.0491290832
 30
0.0
 11
3.3056955631
 21
30.0214856692
 31
0.0
  0
ARC
  5
AD
330
1F
100
AcDbEntity
  8
0
  6
CONTINUOUS
 62
     7
100
AcDbCircle
 10
3.1557523795
 20
30.0879021701
 30
0.0
 40
0.0393701072333336
100
AcDbArc
 50
187.6004745238
 51
260.0000371503
  0
ARC
  5
AE
330
1F
100
AcDbEntity
  8
0
  6
CONTINUOUS
 62
     7
100
AcDbCircle
 10
2.9149731226
 20
30.0557733284
 30
0.0
 40
0.2035432785934401
100
AcDbArc
 50
7.6004745238
 51
194.8878509098
  0
ARC
  5
AF
330
1F
100
AcDbEntity
  8
0
  6
CONTINUOUS
 62
     7
100
AcDbCircle
 10
2.680214293
 20
29.9933621334
 30
0.0
 40
0.0393700376495649
100
AcDbArc
 50
350.0
 51
14.8878509098
  0
LINE
  5
B0
330
1F
100
AcDbEntity
  8
0
  6
CONTINUOUS
 62
     7
100
AcDbLine
 10
2.6337655387
 20
29.5032162429
 30
0.0
 11
2.7189861008
 21
29.986525433
 31
0.0
  0
ARC
  5
B1
330
1F
100
AcDbEntity
  8
0
  6
CONTINUOUS
 62
     7
100
AcDbCircle
 10
2.5949937209
 20
29.5100522527
 30
0.0
 40
0.0393700787401581
100
AcDbArc
 50
325.1121167212
 51
350.0
  0
ARC
  5
B2
330
1F
100
AcDbEntity
  8
0
  6
CONTINUOUS
 62
     7
100
AcDbCircle
 10
2.794248977
 20
29.3711124962
 30
0.0
 40
0.2035433070866158
100
AcDbArc
 50
145.1121167212
 51
173.9447554429
  0
LINE
  5
B3
330
1F
100
AcDbEntity
  8
0
  6
CONTINUOUS
 62
     7
100
AcDbLine
 10
1.0215858094
 20
29.6694615758
 30
0.0
 11
2.5918413563
 21
29.392583921
 31
0.0
  0
LINE
  5
B4
330
1F
100
AcDbEntity
  8
0
  6
CONTINUOUS
 62
     7
100
AcDbLine
 10
1.0215858094
 20
29.6694615758
 30
0.0
 11
1.0215858094
 21
30.7355845132
 31
0.0
  0
ARC
  5
B5
330
1F
100
AcDbEntity
  8
0
  6
CONTINUOUS
 62
     7
100
AcDbCircle
 10
23.976310239
 20
26.7296993614
 30
0.0
 40
0.2362204724409449
100
AcDbArc
 50
0.0
 51
80.0
  0
ARC
  5
B6
330
1F
100
AcDbEntity
  8
0
  6
CONTINUOUS
 62
     7
100
AcDbCircle
 10
23.2860956071
 20
26.3599890598
 30
0.0
 40
0.0393711348432817
100
AcDbArc
 50
145.11217169
 51
170.0
  0
LINE
  5
B7
330
1F
100
AcDbEntity
  8
0
  6
CONTINUOUS
 62
     7
100
AcDbLine
 10
23.1636588022
 20
25.7652165446
 30
0.0
 11
24.2125315922
 21
25.5802731878
 31
0.0
  0
LINE
  5
B8
330
1F
100
AcDbEntity
  8
0
  6
CONTINUOUS
 62
     7
100
AcDbLine
 10
23.2473235424
 20
26.3668268748
 30
0.0
 11
23.1621029802
 21
25.883515338
 31
0.0
  0
LINE
  5
B9
330
1F
100
AcDbEntity
  8
0
  6
CONTINUOUS
 62
     7
100
AcDbLine
 10
1.2988255067
 20
30.9682162791
 30
0.0
 11
24.0173287272
 21
26.9623312488
 31
0.0
  0
ARC
  5
BA
330
1F
100
AcDbEntity
  8
0
  6
CONTINUOUS
 62
     7
100
AcDbCircle
 10
23.0868393515
 20
26.4989292293
 30
0.0
 40
0.203543307086616
100
AcDbArc
 50
325.11217169
 51
152.399540952
  0
LINE
  5
BB
330
1F
100
AcDbEntity
  8
0
  6
CONTINUOUS
 62
     7
100
AcDbLine
 10
24.2125315922
 20
26.7296994828
 30
0.0
 11
24.2125315922
 21
25.5802731878
 31
0.0
  0
LINE
  5
BC
330
1F
100
AcDbEntity
  8
0
  6
CONTINUOUS
 62
     7
100
AcDbLine
 10
22.6377275978
 20
25.0691985584
 30
0.0
 11
22.6377275978
 21
7.2506375733
 31
0.0
  0
LINE
  5
BD
330
1F
100
AcDbEntity
  8
0
  6
CONTINUOUS
 62
     7
100
AcDbLine
 10
24.0173287272
 20
8.5759497832
 30
0.0
 11
23.6203312867
 21
8.6459512145
 31
0.0
  0
ARC
  5
BE
330
1F
100
AcDbEntity
  8
0
  6
CONTINUOUS
 62
     7
100
AcDbCircle
 10
23.661349609
 20
8.8785830397
 30
0.0
 40
0.236220472440948
100
AcDbArc
 50
180.0
 51
260.0
  0
LINE
  5
BF
330
1F
100
AcDbEntity
  8
0
  6
CONTINUOUS
 62
     7
100
AcDbLine
 10
23.6203312867
 20
23.6738843305
 30
0.0
 11
24.0173287272
 21
23.7438869352
 31
0.0
  0
LINE
  5
C0
330
1F
100
AcDbEntity
  8
0
  6
CONTINUOUS
 62
     7
100
AcDbLine
 10
22.6377275978
 20
7.2506375733
 30
0.0
 11
24.2125315922
 21
7.5283177788
 31
0.0
  0
LINE
  5
C1
330
1F
100
AcDbEntity
  8
0
  6
CONTINUOUS
 62
     7
100
AcDbLine
 10
24.2125315922
 20
8.3433180172
 30
0.0
 11
24.2125315922
 21
7.5283177788
 31
0.0
  0
ARC
  5
C2
330
1F
100
AcDbEntity
  8
0
  6
CONTINUOUS
 62
     7
100
AcDbCircle
 10
23.976310239
 20
23.9765180848
 30
0.0
 40
0.236220472440949
100
AcDbArc
 50
280.0
 51
0.0
  0
ARC
  5
C3
330
1F
100
AcDbEntity
  8
0
  6
CONTINUOUS
 62
     7
100
AcDbCircle
 10
23.976310239
 20
8.3433178748
 30
0.0
 40
0.2362204724409467
100
AcDbArc
 50
0.0
 51
80.0
  0
LINE
  5
C4
330
1F
100
AcDbEntity
  8
0
  6
CONTINUOUS
 62
     7
100
AcDbLine
 10
23.4251284217
 20
8.8785829805
 30
0.0
 11
23.4251284217
 21
23.4412525646
 31
0.0
  0
ARC
  5
C5
330
1F
100
AcDbEntity
  8
0
  6
CONTINUOUS
 62
     7
100
AcDbCircle
 10
23.661349609
 20
23.4412529199
 30
0.0
 40
0.236220472440948
100
AcDbArc
 50
100.0
 51
180.0
  0
LINE
  5
C6
330
1F
100
AcDbEntity
  8
0
  6
CONTINUOUS
 62
     7
100
AcDbLine
 10
24.2125315922
 20
24.7915183529
 30
0.0
 11
22.6377275978
 21
25.0691985584
 31
0.0
  0
LINE
  5
C7
330
1F
100
AcDbEntity
  8
0
  6
CONTINUOUS
 62
     7
100
AcDbLine
 10
24.2125315922
 20
24.7915183529
 30
0.0
 11
24.2125315922
 21
23.9765187011
 31
0.0
  0
LINE
  5
C8
330
1F
100
AcDbEntity
  8
0
  6
CONTINUOUS
 62
     7
100
AcDbLine
 10
1.0215858094
 20
3.4391285108
 30
0.0
 11
1.0215858094
 21
28.8807067409
 31
0.0
  0
LINE
  5
C9
330
1F
100
AcDbEntity
  8
0
  6
CONTINUOUS
 62
     7
100
AcDbLine
 10
21.8743422832
 20
25.2038041501
 30
0.0
 11
1.0215858094
 21
28.8807067409
 31
0.0
  0
LINE
  5
CA
330
1F
100
AcDbEntity
  8
0
  6
CONTINUOUS
 62
     7
100
AcDbLine
 10
21.8743422832
 20
7.1160319816
 30
0.0
 11
21.8743422832
 21
25.2038041501
 31
0.0
  0
LINE
  5
CB
330
1F
100
AcDbEntity
  8
0
  6
CONTINUOUS
 62
     7
100
AcDbLine
 10
1.0215858094
 20
3.4391285108
 30
0.0
 11
21.8743422832
 21
7.1160319816
 31
0.0
  0
ARC
  5
CC
330
1F
100
AcDbEntity
  8
0
  6
CONTINUOUS
 62
     7
100
AcDbCircle
 10
22.7253358807
 20
6.537696497
 30
0.0
 40
0.0393700787401589
100
AcDbArc
 50
280.0000371503
 51
352.399540952
  0
LINE
  5
CD
330
1F
100
AcDbEntity
  8
0
  6
CONTINUOUS
 62
     7
100
AcDbLine
 10
22.7321728001
 20
6.4989244438
 30
0.0
 11
22.5753938113
 21
6.4712798565
 31
0.0
  0
ARC
  5
CE
330
1F
100
AcDbEntity
  8
0
  6
CONTINUOUS
 62
     7
100
AcDbCircle
 10
22.5685561824
 20
6.5100519013
 30
0.0
 40
0.0393700787401581
100
AcDbArc
 50
207.6004745238
 51
280.0000371503
  0
ARC
  5
CF
330
1F
100
AcDbEntity
  8
0
  6
CONTINUOUS
 62
     7
100
AcDbCircle
 10
3.1662984532
 20
3.0889104818
 30
0.0
 40
0.0393700787401586
100
AcDbArc
 50
280.0000371503
 51
352.399540952
  0
LINE
  5
D0
330
1F
100
AcDbEntity
  8
0
  6
CONTINUOUS
 62
     7
100
AcDbLine
 10
3.1731350678
 20
3.0501383911
 30
0.0
 11
3.0163551989
 21
3.0224938038
 31
0.0
  0
ARC
  5
D1
330
1F
100
AcDbEntity
  8
0
  6
CONTINUOUS
 62
     7
100
AcDbCircle
 10
3.0095187549
 20
3.0612658862
 30
0.0
 40
0.0393700787401581
100
AcDbArc
 50
207.6004745238
 51
280.0000371503
  0
ARC
  5
D2
330
1F
100
AcDbEntity
  8
0
  6
CONTINUOUS
 62
     7
100
AcDbCircle
 10
3.0095187873
 20
29.2585699629
 30
0.0
 40
0.0393700787401558
100
AcDbArc
 50
80.0000371503
 51
152.399540952
  0
LINE
  5
D3
330
1F
100
AcDbEntity
  8
0
  6
CONTINUOUS
 62
     7
100
AcDbLine
 10
3.0163551989
 20
29.2973408612
 30
0.0
 11
3.1731350678
 21
29.2696974472
 31
0.0
  0
ARC
  5
D4
330
1F
100
AcDbEntity
  8
0
  6
CONTINUOUS
 62
     7
100
AcDbCircle
 10
3.1662985214
 20
29.2309255706
 30
0.0
 40
0.0393700787401596
100
AcDbArc
 50
7.6004745238
 51
80.0000371503
  0
ARC
  5
D5
330
1F
100
AcDbEntity
  8
0
  6
CONTINUOUS
 62
     7
100
AcDbCircle
 10
22.5685562147
 20
25.8097839478
 30
0.0
 40
0.0393700787401605
100
AcDbArc
 50
80.0000371503
 51
152.399540952
  0
LINE
  5
D6
330
1F
100
AcDbEntity
  8
0
  6
CONTINUOUS
 62
     7
100
AcDbLine
 10
22.5753938113
 20
25.8485551019
 30
0.0
 11
22.7321728001
 21
25.8209116879
 31
0.0
  0
ARC
  5
D7
330
1F
100
AcDbEntity
  8
0
  6
CONTINUOUS
 62
     7
100
AcDbCircle
 10
22.7253359489
 20
25.7821395554
 30
0.0
 40
0.0393700787401591
100
AcDbArc
 50
7.6004745237
 51
80.0000371503
  0
LINE
  5
D8
330
1F
100
AcDbEntity
  8
0
  6
CONTINUOUS
 62
     7
100
AcDbLine
 10
1.0215858094
 20
3.4391285108
 30
0.0
 11
1.0215858094
 21
2.6503736759
 31
0.0
  0
LINE
  5
D9
330
1F
100
AcDbEntity
  8
0
  6
CONTINUOUS
 62
     7
100
AcDbLine
 10
1.0215858094
 20
29.6694615758
 30
0.0
 11
1.0215858094
 21
28.8807067409
 31
0.0
  0
ARC
  5
DA
330
1F
100
AcDbEntity
  8
0
  6
CONTINUOUS
 62
     7
100
AcDbCircle
 10
2.794248975
 20
2.9487232948
 30
0.0
 40
0.2035433070866158
100
AcDbArc
 50
27.6004745238
 51
186.0551972321
  0
ARC
  5
DB
330
1F
100
AcDbEntity
  8
0
  6
CONTINUOUS
 62
     7
100
AcDbCircle
 10
2.794248977
 20
29.3711124962
 30
0.0
 40
0.2035433070866143
100
AcDbArc
 50
173.9447554427
 51
332.399540952
  0
ARC
  5
DC
330
1F
100
AcDbEntity
  8
0
  6
CONTINUOUS
 62
     7
100
AcDbCircle
 10
3.4070777188
 20
3.0567817052
 30
0.0
 40
0.2035433070866157
100
AcDbArc
 50
13.9447554429
 51
172.399540952
  0
ARC
  5
DD
330
1F
100
AcDbEntity
  8
0
  6
CONTINUOUS
 62
     7
100
AcDbCircle
 10
3.4070777783
 20
29.2630544122
 30
0.0
 40
0.2035433070866158
100
AcDbArc
 50
187.6004745238
 51
346.0551977854
  0
ARC
  5
DE
330
1F
100
AcDbEntity
  8
0
  6
CONTINUOUS
 62
     7
100
AcDbCircle
 10
22.3532864045
 20
25.922326481
 30
0.0
 40
0.2035433070866157
100
AcDbArc
 50
173.9447554408
 51
332.399540952
  0
ARC
  5
DF
330
1F
100
AcDbEntity
  8
0
  6
CONTINUOUS
 62
     7
100
AcDbCircle
 10
22.3532864025
 20
6.3975093099
 30
0.0
 40
0.2035433070866101
100
AcDbArc
 50
27.6004745238
 51
186.0551972321
  0
ARC
  5
E0
330
1F
100
AcDbEntity
  8
0
  6
CONTINUOUS
 62
     7
100
AcDbCircle
 10
22.9661152058
 20
25.8142683971
 30
0.0
 40
0.203543307086615
100
AcDbArc
 50
187.6004745238
 51
346.0551977873
  0
LINE
  5
E1
330
1F
100
AcDbEntity
  8
0
  6
CONTINUOUS
 62
     7
100
AcDbLine
 10
24.2125315922
 20
6.7395629439
 30
0.0
 11
24.2125315922
 21
7.5283177788
 31
0.0
  0
LINE
  5
E2
330
1F
100
AcDbEntity
  8
0
  6
CONTINUOUS
 62
     7
100
AcDbLine
 10
24.2125315922
 20
24.7915183529
 30
0.0
 11
24.2125315922
 21
25.5802731878
 31
0.0
  0
ARC
  5
E3
330
1F
100
AcDbEntity
  8
0
  6
CONTINUOUS
 62
     7
100
AcDbCircle
 10
22.9661151463
 20
6.5055677203
 30
0.0
 40
0.2035433070866181
100
AcDbArc
 50
13.9447554429
 51
172.399540952
  0
LINE
  5
E4
330
1F
100
AcDbEntity
  8
0
  6
CONTINUOUS
 62
     7
100
AcDbLine
 10
90.2407994414
 20
37.8953249499
 30
0.0
 11
90.2407994414
 21
33.2516256343
 31
0.0
  0
ARC
  5
E5
330
1F
100
AcDbEntity
  8
0
  6
CONTINUOUS
 62
     7
100
AcDbCircle
 10
89.7683574831
 20
37.8953252863
 30
0.0
 40
0.4724409448819102
100
AcDbArc
 50
0.0
 51
90.0
  0
LINE
  5
E6
330
1F
100
AcDbEntity
  8
0
  6
CONTINUOUS
 62
     7
100
AcDbLine
 10
83.7911732547
 20
38.3677668522
 30
0.0
 11
89.7683551924
 21
38.3677668522
 31
0.0
  0
ARC
  5
E7
330
1F
100
AcDbEntity
  8
0
  6
CONTINUOUS
 62
     7
100
AcDbCircle
 10
83.791172647
 20
39.1177662312
 30
0.0
 40
0.75
100
AcDbArc
 50
210.0
 51
270.0
  0
ARC
  5
E8
330
1F
100
AcDbEntity
  8
0
  6
CONTINUOUS
 62
     7
100
AcDbCircle
 10
82.4921345413
 20
38.3677662312
 30
0.0
 40
0.7500000000000123
100
AcDbArc
 50
30.0
 51
90.0
  0
LINE
  5
E9
330
1F
100
AcDbEntity
  8
0
  6
CONTINUOUS
 62
     7
100
AcDbLine
 10
78.1286944548
 20
39.1177669348
 30
0.0
 11
82.4921299147
 21
39.1177669348
 31
0.0
  0
ARC
  5
EA
330
1F
100
AcDbEntity
  8
0
  6
CONTINUOUS
 62
     7
100
AcDbCircle
 10
78.1286952079
 20
38.3677662312
 30
0.0
 40
0.7500000000000123
100
AcDbArc
 50
90.0
 51
150.0
  0
ARC
  5
EB
330
1F
100
AcDbEntity
  8
0
  6
CONTINUOUS
 62
     7
100
AcDbCircle
 10
76.8296571022
 20
39.1177662312
 30
0.0
 40
0.75
100
AcDbArc
 50
270.0
 51
330.0
  0
LINE
  5
EC
330
1F
100
AcDbEntity
  8
0
  6
CONTINUOUS
 62
     7
100
AcDbLine
 10
70.8524738703
 20
38.3677668522
 30
0.0
 11
76.8296558081
 21
38.3677668522
 31
0.0
  0
ARC
  5
ED
330
1F
100
AcDbEntity
  8
0
  6
CONTINUOUS
 62
     7
100
AcDbCircle
 10
70.8524722661
 20
37.8953252863
 30
0.0
 40
0.4724409448818889
100
AcDbArc
 50
90.0
 51
180.0
  0
LINE
  5
EE
330
1F
100
AcDbEntity
  8
0
  6
CONTINUOUS
 62
     7
100
AcDbLine
 10
70.3800296214
 20
33.2516256343
 30
0.0
 11
70.3800296214
 21
37.8953249499
 31
0.0
  0
LINE
  5
EF
330
1F
100
AcDbEntity
  8
0
  6
CONTINUOUS
 62
     7
100
AcDbLine
 10
69.6418425223
 20
33.0547730817
 30
0.0
 11
69.6418425223
 21
33.2205232736
 31
0.0
  0
LINE
  5
F0
330
1F
100
AcDbEntity
  8
0
  6
CONTINUOUS
 62
     7
100
AcDbLine
 10
69.6418425223
 20
33.2205232736
 30
0.0
 11
69.8510501322
 21
33.2339108523
 31
0.0
  0
ARC
  5
F1
330
1F
100
AcDbEntity
  8
0
  6
CONTINUOUS
 62
     7
100
AcDbCircle
 10
69.8485352582
 20
33.2732011094
 30
0.0
 40
0.039370078740159
100
AcDbArc
 50
273.6619355755
 51
0.0
  0
LINE
  5
F2
330
1F
100
AcDbEntity
  8
0
  6
CONTINUOUS
 62
     7
100
AcDbLine
 10
69.8879064531
 20
33.2732006384
 30
0.0
 11
69.8879064531
 21
33.8633452877
 31
0.0
  0
ARC
  5
F3
330
1F
100
AcDbEntity
  8
0
  6
CONTINUOUS
 62
     7
100
AcDbCircle
 10
69.9272754157
 20
33.8633458224
 30
0.0
 40
0.0393700787401627
100
AcDbArc
 50
155.1121079736
 51
180.0
  0
ARC
  5
F4
330
1F
100
AcDbEntity
  8
0
  6
CONTINUOUS
 62
     7
100
AcDbCircle
 10
69.7069206748
 20
33.9655744934
 30
0.0
 40
0.2035433070866209
100
AcDbArc
 50
335.1121079736
 51
162.3995332141
  0
ARC
  5
F5
330
1F
100
AcDbEntity
  8
0
  6
CONTINUOUS
 62
     7
100
AcDbCircle
 10
69.4753785007
 20
34.0390260737
 30
0.0
 40
0.039370078740159
100
AcDbArc
 50
270.0
 51
342.3995332141
  0
LINE
  5
F6
330
1F
100
AcDbEntity
  8
0
  6
CONTINUOUS
 62
     7
100
AcDbLine
 10
69.3956988058
 20
33.9996568863
 30
0.0
 11
69.4753766053
 21
33.9996568863
 31
0.0
  0
LINE
  5
F7
330
1F
100
AcDbEntity
  8
0
  6
CONTINUOUS
 62
     7
100
AcDbLine
 10
69.3956988058
 20
38.6453250325
 30
0.0
 11
69.3956988058
 21
33.9996568863
 31
0.0
  0
ARC
  5
F8
330
1F
100
AcDbEntity
  8
0
  6
CONTINUOUS
 62
     7
100
AcDbCircle
 10
69.8681415574
 20
38.6453252863
 30
0.0
 40
0.472440944881896
100
AcDbArc
 50
90.0
 51
180.0
  0
LINE
  5
F9
330
1F
100
AcDbEntity
  8
0
  6
CONTINUOUS
 62
     7
100
AcDbLine
 10
76.3572162524
 20
39.1177669348
 30
0.0
 11
69.8681430547
 21
39.1177669348
 31
0.0
  0
ARC
  5
FA
330
1F
100
AcDbEntity
  8
0
  6
CONTINUOUS
 62
     7
100
AcDbCircle
 10
76.3572161573
 20
39.5902071761
 30
0.0
 40
0.472440944881896
100
AcDbArc
 50
270.0
 51
0.0
  0
LINE
  5
FB
330
1F
100
AcDbEntity
  8
0
  6
CONTINUOUS
 62
     7
100
AcDbLine
 10
76.8296558081
 20
40.6138270922
 30
0.0
 11
76.8296558081
 21
39.5902088371
 31
0.0
  0
ARC
  5
FC
330
1F
100
AcDbEntity
  8
0
  6
CONTINUOUS
 62
     7
100
AcDbCircle
 10
76.3572161573
 20
40.6138292233
 30
0.0
 40
0.472440944881896
100
AcDbArc
 50
0.0
 51
90.0
  0
LINE
  5
FD
330
1F
100
AcDbEntity
  8
0
  6
CONTINUOUS
 62
     7
100
AcDbLine
 10
69.8681430547
 20
41.0862713412
 30
0.0
 11
76.3572162524
 21
41.0862713412
 31
0.0
  0
ARC
  5
FE
330
1F
100
AcDbEntity
  8
0
  6
CONTINUOUS
 62
     7
100
AcDbCircle
 10
69.8681415574
 20
41.5587111131
 30
0.0
 40
0.472440944881896
100
AcDbArc
 50
180.0
 51
270.0
  0
LINE
  5
FF
330
1F
100
AcDbEntity
  8
0
  6
CONTINUOUS
 62
     7
100
AcDbLine
 10
69.3956988058
 20
46.2043813896
 30
0.0
 11
69.3956988058
 21
41.5587108968
 31
0.0
  0
LINE
  5
100
330
1F
100
AcDbEntity
  8
0
  6
CONTINUOUS
 62
     7
100
AcDbLine
 10
69.4753766053
 20
46.2043813896
 30
0.0
 11
69.3956988058
 21
46.2043813896
 31
0.0
  0
ARC
  5
101
330
1F
100
AcDbEntity
  8
0
  6
CONTINUOUS
 62
     7
100
AcDbCircle
 10
69.4753785007
 20
46.1650103257
 30
0.0
 40
0.0393700787401627
100
AcDbArc
 50
17.6004667859
 51
90.0
  0
ARC
  5
102
330
1F
100
AcDbEntity
  8
0
  6
CONTINUOUS
 62
     7
100
AcDbCircle
 10
69.7069206748
 20
46.238461906
 30
0.0
 40
0.2035433070866209
100
AcDbArc
 50
197.6004667859
 51
24.8878920264
  0
ARC
  5
103
330
1F
100
AcDbEntity
  8
0
  6
CONTINUOUS
 62
     7
100
AcDbCircle
 10
69.9272754157
 20
46.340690577
 30
0.0
 40
0.0393700787401611
100
AcDbArc
 50
180.0
 51
204.8878920264
  0
LINE
  5
104
330
1F
100
AcDbEntity
  8
0
  6
CONTINUOUS
 62
     7
100
AcDbLine
 10
69.8879064531
 20
46.340688295
 30
0.0
 11
69.8879064531
 21
46.9308352909
 31
0.0
  0
ARC
  5
105
330
1F
100
AcDbEntity
  8
0
  6
CONTINUOUS
 62
     7
100
AcDbCircle
 10
69.8485352582
 20
46.93083529
 30
0.0
 40
0.039370078740159
100
AcDbArc
 50
0.0
 51
86.3380644245
  0
LINE
  5
106
330
1F
100
AcDbEntity
  8
0
  6
CONTINUOUS
 62
     7
100
AcDbLine
 10
69.8510501322
 20
46.9701227304
 30
0.0
 11
69.6418425223
 21
46.9835126557
 31
0.0
  0
LINE
  5
107
330
1F
100
AcDbEntity
  8
0
  6
CONTINUOUS
 62
     7
100
AcDbLine
 10
69.6418425223
 20
46.9835126557
 30
0.0
 11
69.6418425223
 21
47.149260501
 31
0.0
  0
ARC
  5
108
330
1F
100
AcDbEntity
  8
0
  6
CONTINUOUS
 62
     7
100
AcDbCircle
 10
69.6812124236
 20
47.1492622942
 30
0.0
 40
0.0393700787401627
100
AcDbArc
 50
90.0
 51
180.0
  0
LINE
  5
109
330
1F
100
AcDbEntity
  8
0
  6
CONTINUOUS
 62
     7
100
AcDbLine
 10
70.1438121902
 20
47.1886324195
 30
0.0
 11
69.6812144408
 21
47.1886324195
 31
0.0
  0
ARC
  5
10A
330
1F
100
AcDbEntity
  8
0
  6
CONTINUOUS
 62
     7
100
AcDbCircle
 10
70.1438108488
 20
46.9524119005
 30
0.0
 40
0.2362204724409622
100
AcDbArc
 50
0.0
 51
90.0
  0
LINE
  5
10B
330
1F
100
AcDbEntity
  8
0
  6
CONTINUOUS
 62
     7
100
AcDbLine
 10
70.3800296214
 20
42.3087109794
 30
0.0
 11
70.3800296214
 21
46.952410295
 31
0.0
  0
ARC
  5
10C
330
1F
100
AcDbEntity
  8
0
  6
CONTINUOUS
 62
     7
100
AcDbCircle
 10
70.8524722661
 20
42.3087111131
 30
0.0
 40
0.472440944881896
100
AcDbArc
 50
180.0
 51
270.0
  0
LINE
  5
10D
330
1F
100
AcDbEntity
  8
0
  6
CONTINUOUS
 62
     7
100
AcDbLine
 10
76.8296558081
 20
41.8362714238
 30
0.0
 11
70.8524738703
 21
41.8362714238
 31
0.0
  0
ARC
  5
10E
330
1F
100
AcDbEntity
  8
0
  6
CONTINUOUS
 62
     7
100
AcDbCircle
 10
76.8296571022
 20
41.0862701682
 30
0.0
 40
0.75
100
AcDbArc
 50
30.0
 51
90.0
  0
ARC
  5
10F
330
1F
100
AcDbEntity
  8
0
  6
CONTINUOUS
 62
     7
100
AcDbCircle
 10
78.1286952079
 20
41.8362701682
 30
0.0
 40
0.7500000000000123
100
AcDbArc
 50
210.0
 51
270.0
  0
LINE
  5
110
330
1F
100
AcDbEntity
  8
0
  6
CONTINUOUS
 62
     7
100
AcDbLine
 10
82.4921299147
 20
41.0862713412
 30
0.0
 11
78.1286944548
 21
41.0862713412
 31
0.0
  0
ARC
  5
111
330
1F
100
AcDbEntity
  8
0
  6
CONTINUOUS
 62
     7
100
AcDbCircle
 10
82.4921345413
 20
41.8362701682
 30
0.0
 40
0.7500000000000123
100
AcDbArc
 50
270.0
 51
330.0
  0
ARC
  5
112
330
1F
100
AcDbEntity
  8
0
  6
CONTINUOUS
 62
     7
100
AcDbCircle
 10
83.791172647
 20
41.0862701682
 30
0.0
 40
0.75
100
AcDbArc
 50
90.0
 51
150.0
  0
LINE
  5
113
330
1F
100
AcDbEntity
  8
0
  6
CONTINUOUS
 62
     7
100
AcDbLine
 10
89.7683551924
 20
41.8362714238
 30
0.0
 11
83.7911732547
 21
41.8362714238
 31
0.0
  0
ARC
  5
114
330
1F
100
AcDbEntity
  8
0
  6
CONTINUOUS
 62
     7
100
AcDbCircle
 10
89.7683574831
 20
42.3087111131
 30
0.0
 40
0.4724409448819102
100
AcDbArc
 50
270.0
 51
0.0
  0
LINE
  5
115
330
1F
100
AcDbEntity
  8
0
  6
CONTINUOUS
 62
     7
100
AcDbLine
 10
90.2407994414
 20
46.952410295
 30
0.0
 11
90.2407994414
 21
42.3087109794
 31
0.0
  0
ARC
  5
116
330
1F
100
AcDbEntity
  8
0
  6
CONTINUOUS
 62
     7
100
AcDbCircle
 10
90.4770189004
 20
46.9524119005
 30
0.0
 40
0.236220472440948
100
AcDbArc
 50
90.0
 51
180.0
  0
LINE
  5
117
330
1F
100
AcDbEntity
  8
0
  6
CONTINUOUS
 62
     7
100
AcDbLine
 10
90.9396193152
 20
47.1886324195
 30
0.0
 11
90.4770215659
 21
47.1886324195
 31
0.0
  0
ARC
  5
118
330
1F
100
AcDbEntity
  8
0
  6
CONTINUOUS
 62
     7
100
AcDbCircle
 10
90.9396173256
 20
47.1492622942
 30
0.0
 40
0.039370078740177
100
AcDbArc
 50
0.0
 51
90.0
  0
LINE
  5
119
330
1F
100
AcDbEntity
  8
0
  6
CONTINUOUS
 62
     7
100
AcDbLine
 10
90.9789865405
 20
47.149260501
 30
0.0
 11
90.9789865405
 21
46.9835126557
 31
0.0
  0
LINE
  5
11A
330
1F
100
AcDbEntity
  8
0
  6
CONTINUOUS
 62
     7
100
AcDbLine
 10
90.9789865405
 20
46.9835126557
 30
0.0
 11
90.7697789306
 21
46.9701227304
 31
0.0
  0
ARC
  5
11B
330
1F
100
AcDbEntity
  8
0
  6
CONTINUOUS
 62
     7
100
AcDbCircle
 10
90.7722944909
 20
46.93083529
 30
0.0
 40
0.0393700787401627
100
AcDbArc
 50
93.6619355755
 51
180.0
  0
LINE
  5
11C
330
1F
100
AcDbEntity
  8
0
  6
CONTINUOUS
 62
     7
100
AcDbLine
 10
90.732927303
 20
46.9308352909
 30
0.0
 11
90.732927303
 21
46.340688295
 31
0.0
  0
ARC
  5
11D
330
1F
100
AcDbEntity
  8
0
  6
CONTINUOUS
 62
     7
100
AcDbCircle
 10
90.6935543335
 20
46.340690577
 30
0.0
 40
0.0393700787401485
100
AcDbArc
 50
335.1121079736
 51
0.0
  0
ARC
  5
11E
330
1F
100
AcDbEntity
  8
0
  6
CONTINUOUS
 62
     7
100
AcDbCircle
 10
90.9139090744
 20
46.238461906
 30
0.0
 40
0.2035433070866333
100
AcDbArc
 50
155.1121079736
 51
342.3995332141
  0
ARC
  5
11F
330
1F
100
AcDbEntity
  8
0
  6
CONTINUOUS
 62
     7
100
AcDbCircle
 10
91.1454512484
 20
46.1650103257
 30
0.0
 40
0.0393700787401556
100
AcDbArc
 50
90.0
 51
162.3995332141
  0
LINE
  5
120
330
1F
100
AcDbEntity
  8
0
  6
CONTINUOUS
 62
     7
100
AcDbLine
 10
91.225130257
 20
46.2043813896
 30
0.0
 11
91.1454477641
 21
46.2043813896
 31
0.0
  0
LINE
  5
121
330
1F
100
AcDbEntity
  8
0
  6
CONTINUOUS
 62
     7
100
AcDbLine
 10
91.225130257
 20
41.5587108968
 30
0.0
 11
91.225130257
 21
46.2043813896
 31
0.0
  0
ARC
  5
122
330
1F
100
AcDbEntity
  8
0
  6
CONTINUOUS
 62
     7
100
AcDbCircle
 10
90.7526881917
 20
41.5587111131
 30
0.0
 40
0.4724409448819102
100
AcDbArc
 50
270.0
 51
0.0
  0
LINE
  5
123
330
1F
100
AcDbEntity
  8
0
  6
CONTINUOUS
 62
     7
100
AcDbLine
 10
84.2636175036
 20
41.0862713412
 30
0.0
 11
90.752686008
 21
41.0862713412
 31
0.0
  0
ARC
  5
124
330
1F
100
AcDbEntity
  8
0
  6
CONTINUOUS
 62
     7
100
AcDbCircle
 10
84.2636135918
 20
40.6138292233
 30
0.0
 40
0.4724409448819102
100
AcDbArc
 50
90.0
 51
180.0
  0
LINE
  5
125
330
1F
100
AcDbEntity
  8
0
  6
CONTINUOUS
 62
     7
100
AcDbLine
 10
83.7911732547
 20
39.5902088371
 30
0.0
 11
83.7911732547
 21
40.6138270922
 31
0.0
  0
ARC
  5
126
330
1F
100
AcDbEntity
  8
0
  6
CONTINUOUS
 62
     7
100
AcDbCircle
 10
84.2636135918
 20
39.5902071761
 30
0.0
 40
0.4724409448819102
100
AcDbArc
 50
180.0
 51
270.0
  0
LINE
  5
127
330
1F
100
AcDbEntity
  8
0
  6
CONTINUOUS
 62
     7
100
AcDbLine
 10
90.752686008
 20
39.1177669348
 30
0.0
 11
84.2636175036
 21
39.1177669348
 31
0.0
  0
ARC
  5
128
330
1F
100
AcDbEntity
  8
0
  6
CONTINUOUS
 62
     7
100
AcDbCircle
 10
90.7526881917
 20
38.6453252863
 30
0.0
 40
0.4724409448819102
100
AcDbArc
 50
0.0
 51
90.0
  0
LINE
  5
129
330
1F
100
AcDbEntity
  8
0
  6
CONTINUOUS
 62
     7
100
AcDbLine
 10
91.225130257
 20
33.9996568863
 30
0.0
 11
91.225130257
 21
38.6453250325
 31
0.0
  0
LINE
  5
12A
330
1F
100
AcDbEntity
  8
0
  6
CONTINUOUS
 62
     7
100
AcDbLine
 10
91.1454477641
 20
33.9996568863
 30
0.0
 11
91.225130257
 21
33.9996568863
 31
0.0
  0
ARC
  5
12B
330
1F
100
AcDbEntity
  8
0
  6
CONTINUOUS
 62
     7
100
AcDbCircle
 10
91.1454512484
 20
34.0390260737
 30
0.0
 40
0.039370078740184
100
AcDbArc
 50
197.6004667858
 51
270.0
  0
ARC
  5
12C
330
1F
100
AcDbEntity
  8
0
  6
CONTINUOUS
 62
     7
100
AcDbCircle
 10
90.9139090744
 20
33.9655744934
 30
0.0
 40
0.2035433070866179
100
AcDbArc
 50
17.6004667859
 51
204.8878920264
  0
ARC
  5
12D
330
1F
100
AcDbEntity
  8
0
  6
CONTINUOUS
 62
     7
100
AcDbCircle
 10
90.6935543335
 20
33.8633458224
 30
0.0
 40
0.0393700787401485
100
AcDbArc
 50
0.0
 51
24.8878920264
  0
LINE
  5
12E
330
1F
100
AcDbEntity
  8
0
  6
CONTINUOUS
 62
     7
100
AcDbLine
 10
90.732927303
 20
33.8633452877
 30
0.0
 11
90.732927303
 21
33.2732006384
 31
0.0
  0
ARC
  5
12F
330
1F
100
AcDbEntity
  8
0
  6
CONTINUOUS
 62
     7
100
AcDbCircle
 10
90.7722944909
 20
33.2732011094
 30
0.0
 40
0.0393700787401627
100
AcDbArc
 50
180.0
 51
266.3380644245
  0
LINE
  5
130
330
1F
100
AcDbEntity
  8
0
  6
CONTINUOUS
 62
     7
100
AcDbLine
 10
90.7697789306
 20
33.2339108523
 30
0.0
 11
90.9789865405
 21
33.2205232736
 31
0.0
  0
ARC
  5
131
330
1F
100
AcDbEntity
  8
0
  6
CONTINUOUS
 62
     7
100
AcDbCircle
 10
90.9396173256
 20
33.0547741052
 30
0.0
 40
0.039370078740177
100
AcDbArc
 50
270.0
 51
0.0
  0
ARC
  5
132
330
1F
100
AcDbEntity
  8
0
  6
CONTINUOUS
 62
     7
100
AcDbCircle
 10
70.1438108488
 20
33.2516244989
 30
0.0
 40
0.236220472440948
100
AcDbArc
 50
270.0
 51
0.0
  0
LINE
  5
133
330
1F
100
AcDbEntity
  8
0
  6
CONTINUOUS
 62
     7
100
AcDbLine
 10
69.6812144408
 20
33.0154035098
 30
0.0
 11
70.1438121902
 21
33.0154035098
 31
0.0
  0
LINE
  5
134
330
1F
100
AcDbEntity
  8
0
  6
CONTINUOUS
 62
     7
100
AcDbLine
 10
90.4770215659
 20
33.0154035098
 30
0.0
 11
90.9396193152
 21
33.0154035098
 31
0.0
  0
ARC
  5
135
330
1F
100
AcDbEntity
  8
0
  6
CONTINUOUS
 62
     7
100
AcDbCircle
 10
69.6812124236
 20
33.0547741052
 30
0.0
 40
0.0393700787401627
100
AcDbArc
 50
180.0
 51
270.0
  0
LINE
  5
136
330
1F
100
AcDbEntity
  8
0
  6
CONTINUOUS
 62
     7
100
AcDbLine
 10
90.9789865405
 20
33.2205232736
 30
0.0
 11
90.9789865405
 21
33.0547730817
 31
0.0
  0
ARC
  5
137
330
1F
100
AcDbEntity
  8
0
  6
CONTINUOUS
 62
     7
100
AcDbCircle
 10
90.4770189004
 20
33.2516244989
 30
0.0
 40
0.236220472440948
100
AcDbArc
 50
180.0
 51
270.0
  0
ARC
  5
138
330
1F
100
AcDbEntity
  8
0
  6
CONTINUOUS
 62
     7
100
AcDbCircle
 10
47.0751697263
 20
46.9524119005
 30
0.0
 40
0.236220472440948
100
AcDbArc
 50
0.0
 51
90.0
  0
LINE
  5
139
330
1F
100
AcDbEntity
  8
0
  6
CONTINUOUS
 62
     7
100
AcDbLine
 10
47.3113894456
 20
42.3087109794
 30
0.0
 11
47.3113894456
 21
46.952410295
 31
0.0
  0
ARC
  5
13A
330
1F
100
AcDbEntity
  8
0
  6
CONTINUOUS
 62
     7
100
AcDbCircle
 10
47.7838311436
 20
42.3087111131
 30
0.0
 40
0.4724409448818889
100
AcDbArc
 50
180.0
 51
270.0
  0
LINE
  5
13B
330
1F
100
AcDbEntity
  8
0
  6
CONTINUOUS
 62
     7
100
AcDbLine
 10
53.7610156323
 20
41.8362714238
 30
0.0
 11
47.7838290013
 21
41.8362714238
 31
0.0
  0
ARC
  5
13C
330
1F
100
AcDbEntity
  8
0
  6
CONTINUOUS
 62
     7
100
AcDbCircle
 10
53.7610159797
 20
41.0862701682
 30
0.0
 40
0.7500000000000062
100
AcDbArc
 50
30.0
 51
90.0
  0
ARC
  5
13D
330
1F
100
AcDbEntity
  8
0
  6
CONTINUOUS
 62
     7
100
AcDbCircle
 10
55.0600540854
 20
41.8362701682
 30
0.0
 40
0.75
100
AcDbArc
 50
210.0
 51
270.0
  0
LINE
  5
13E
330
1F
100
AcDbEntity
  8
0
  6
CONTINUOUS
 62
     7
100
AcDbLine
 10
59.4234944322
 20
41.0862713412
 30
0.0
 11
55.060054279
 21
41.0862713412
 31
0.0
  0
ARC
  5
13F
330
1F
100
AcDbEntity
  8
0
  6
CONTINUOUS
 62
     7
100
AcDbCircle
 10
59.4234934188
 20
41.8362701682
 30
0.0
 40
0.75
100
AcDbArc
 50
270.0
 51
330.0
  0
ARC
  5
140
330
1F
100
AcDbEntity
  8
0
  6
CONTINUOUS
 62
     7
100
AcDbCircle
 10
60.7225315245
 20
41.0862701682
 30
0.0
 40
0.7500000000000062
100
AcDbArc
 50
90.0
 51
150.0
  0
LINE
  5
141
330
1F
100
AcDbEntity
  8
0
  6
CONTINUOUS
 62
     7
100
AcDbLine
 10
66.6997150167
 20
41.8362714238
 30
0.0
 11
60.7225330789
 21
41.8362714238
 31
0.0
  0
ARC
  5
142
330
1F
100
AcDbEntity
  8
0
  6
CONTINUOUS
 62
     7
100
AcDbCircle
 10
66.6997163606
 20
42.3087111131
 30
0.0
 40
0.4724409448818889
100
AcDbArc
 50
270.0
 51
0.0
  0
LINE
  5
143
330
1F
100
AcDbEntity
  8
0
  6
CONTINUOUS
 62
     7
100
AcDbLine
 10
67.1721592656
 20
46.952410295
 30
0.0
 11
67.1721592656
 21
42.3087109794
 31
0.0
  0
ARC
  5
144
330
1F
100
AcDbEntity
  8
0
  6
CONTINUOUS
 62
     7
100
AcDbCircle
 10
67.4083777779
 20
46.9524119005
 30
0.0
 40
0.2362204724409338
100
AcDbArc
 50
90.0
 51
180.0
  0
LINE
  5
145
330
1F
100
AcDbEntity
  8
0
  6
CONTINUOUS
 62
     7
100
AcDbLine
 10
67.8709744462
 20
47.1886324195
 30
0.0
 11
67.4083766968
 21
47.1886324195
 31
0.0
  0
ARC
  5
146
330
1F
100
AcDbEntity
  8
0
  6
CONTINUOUS
 62
     7
100
AcDbCircle
 10
67.8709762031
 20
47.1492622942
 30
0.0
 40
0.0393700787401627
100
AcDbArc
 50
0.0
 51
90.0
  0
LINE
  5
147
330
1F
100
AcDbEntity
  8
0
  6
CONTINUOUS
 62
     7
100
AcDbLine
 10
67.9103463647
 20
47.149260501
 30
0.0
 11
67.9103463647
 21
46.9835126557
 31
0.0
  0
LINE
  5
148
330
1F
100
AcDbEntity
  8
0
  6
CONTINUOUS
 62
     7
100
AcDbLine
 10
67.9103463647
 20
46.9835126557
 30
0.0
 11
67.7011387548
 21
46.9701227304
 31
0.0
  0
ARC
  5
149
330
1F
100
AcDbEntity
  8
0
  6
CONTINUOUS
 62
     7
100
AcDbCircle
 10
67.7036533684
 20
46.93083529
 30
0.0
 40
0.0393700787401627
100
AcDbArc
 50
93.6619355755
 51
180.0
  0
LINE
  5
14A
330
1F
100
AcDbEntity
  8
0
  6
CONTINUOUS
 62
     7
100
AcDbLine
 10
67.6642824339
 20
46.9308352909
 30
0.0
 11
67.6642824339
 21
46.340688295
 31
0.0
  0
ARC
  5
14B
330
1F
100
AcDbEntity
  8
0
  6
CONTINUOUS
 62
     7
100
AcDbCircle
 10
67.624913211
 20
46.340690577
 30
0.0
 40
0.0393700787401627
100
AcDbArc
 50
335.1121079736
 51
0.0
  0
ARC
  5
14C
330
1F
100
AcDbEntity
  8
0
  6
CONTINUOUS
 62
     7
100
AcDbCircle
 10
67.8452679519
 20
46.238461906
 30
0.0
 40
0.2035433070866198
100
AcDbArc
 50
155.1121079736
 51
342.3995332141
  0
ARC
  5
14D
330
1F
100
AcDbEntity
  8
0
  6
CONTINUOUS
 62
     7
100
AcDbCircle
 10
68.0768101259
 20
46.1650103257
 30
0.0
 40
0.039370078740159
100
AcDbArc
 50
90.0
 51
162.3995332141
  0
LINE
  5
14E
330
1F
100
AcDbEntity
  8
0
  6
CONTINUOUS
 62
     7
100
AcDbLine
 10
68.1564900812
 20
46.2043813896
 30
0.0
 11
68.0768122817
 21
46.2043813896
 31
0.0
  0
LINE
  5
14F
330
1F
100
AcDbEntity
  8
0
  6
CONTINUOUS
 62
     7
100
AcDbLine
 10
68.1564900812
 20
41.5587108968
 30
0.0
 11
68.1564900812
 21
46.2043813896
 31
0.0
  0
ARC
  5
150
330
1F
100
AcDbEntity
  8
0
  6
CONTINUOUS
 62
     7
100
AcDbCircle
 10
67.6840470692
 20
41.5587111131
 30
0.0
 40
0.4724409448818889
100
AcDbArc
 50
270.0
 51
0.0
  0
LINE
  5
151
330
1F
100
AcDbEntity
  8
0
  6
CONTINUOUS
 62
     7
100
AcDbLine
 10
61.1949726346
 20
41.0862713412
 30
0.0
 11
67.6840458323
 21
41.0862713412
 31
0.0
  0
ARC
  5
152
330
1F
100
AcDbEntity
  8
0
  6
CONTINUOUS
 62
     7
100
AcDbCircle
 10
61.1949724694
 20
40.6138292233
 30
0.0
 40
0.472440944881896
100
AcDbArc
 50
90.0
 51
180.0
  0
LINE
  5
153
330
1F
100
AcDbEntity
  8
0
  6
CONTINUOUS
 62
     7
100
AcDbLine
 10
60.7225330789
 20
39.5902088371
 30
0.0
 11
60.7225330789
 21
40.6138270922
 31
0.0
  0
ARC
  5
154
330
1F
100
AcDbEntity
  8
0
  6
CONTINUOUS
 62
     7
100
AcDbCircle
 10
61.1949724694
 20
39.5902071761
 30
0.0
 40
0.472440944881896
100
AcDbArc
 50
180.0
 51
270.0
  0
LINE
  5
155
330
1F
100
AcDbEntity
  8
0
  6
CONTINUOUS
 62
     7
100
AcDbLine
 10
67.6840458323
 20
39.1177669348
 30
0.0
 11
61.1949726346
 21
39.1177669348
 31
0.0
  0
ARC
  5
156
330
1F
100
AcDbEntity
  8
0
  6
CONTINUOUS
 62
     7
100
AcDbCircle
 10
67.6840470692
 20
38.6453252863
 30
0.0
 40
0.4724409448818818
100
AcDbArc
 50
0.0
 51
90.0
  0
LINE
  5
157
330
1F
100
AcDbEntity
  8
0
  6
CONTINUOUS
 62
     7
100
AcDbLine
 10
68.1564900812
 20
33.9996568863
 30
0.0
 11
68.1564900812
 21
38.6453250325
 31
0.0
  0
LINE
  5
158
330
1F
100
AcDbEntity
  8
0
  6
CONTINUOUS
 62
     7
100
AcDbLine
 10
68.0768122817
 20
33.9996568863
 30
0.0
 11
68.1564900812
 21
33.9996568863
 31
0.0
  0
ARC
  5
159
330
1F
100
AcDbEntity
  8
0
  6
CONTINUOUS
 62
     7
100
AcDbCircle
 10
68.0768101259
 20
34.0390260737
 30
0.0
 40
0.0393700787401627
100
AcDbArc
 50
197.6004667859
 51
270.0
  0
ARC
  5
15A
330
1F
100
AcDbEntity
  8
0
  6
CONTINUOUS
 62
     7
100
AcDbCircle
 10
67.8452679519
 20
33.9655744934
 30
0.0
 40
0.2035433070866198
100
AcDbArc
 50
17.6004667859
 51
204.8878920264
  0
ARC
  5
15B
330
1F
100
AcDbEntity
  8
0
  6
CONTINUOUS
 62
     7
100
AcDbCircle
 10
67.624913211
 20
33.8633458224
 30
0.0
 40
0.0393700787401641
100
AcDbArc
 50
0.0
 51
24.8878920264
  0
LINE
  5
15C
330
1F
100
AcDbEntity
  8
0
  6
CONTINUOUS
 62
     7
100
AcDbLine
 10
67.6642824339
 20
33.8633452877
 30
0.0
 11
67.6642824339
 21
33.2732006384
 31
0.0
  0
ARC
  5
15D
330
1F
100
AcDbEntity
  8
0
  6
CONTINUOUS
 62
     7
100
AcDbCircle
 10
67.7036533684
 20
33.2732011094
 30
0.0
 40
0.0393700787401627
100
AcDbArc
 50
180.0
 51
266.3380644245
  0
LINE
  5
15E
330
1F
100
AcDbEntity
  8
0
  6
CONTINUOUS
 62
     7
100
AcDbLine
 10
67.7011387548
 20
33.2339108523
 30
0.0
 11
67.9103463647
 21
33.2205232736
 31
0.0
  0
LINE
  5
15F
330
1F
100
AcDbEntity
  8
0
  6
CONTINUOUS
 62
     7
100
AcDbLine
 10
67.9103463647
 20
33.2205232736
 30
0.0
 11
67.9103463647
 21
33.0547730817
 31
0.0
  0
ARC
  5
160
330
1F
100
AcDbEntity
  8
0
  6
CONTINUOUS
 62
     7
100
AcDbCircle
 10
67.8709762031
 20
33.0547741052
 30
0.0
 40
0.0393700787401627
100
AcDbArc
 50
270.0
 51
0.0
  0
ARC
  5
161
330
1F
100
AcDbEntity
  8
0
  6
CONTINUOUS
 62
     7
100
AcDbCircle
 10
67.4083777779
 20
33.2516244989
 30
0.0
 40
0.236220472440948
100
AcDbArc
 50
180.0
 51
270.0
  0
LINE
  5
162
330
1F
100
AcDbEntity
  8
0
  6
CONTINUOUS
 62
     7
100
AcDbLine
 10
67.1721592656
 20
37.8953249499
 30
0.0
 11
67.1721592656
 21
33.2516256343
 31
0.0
  0
ARC
  5
163
330
1F
100
AcDbEntity
  8
0
  6
CONTINUOUS
 62
     7
100
AcDbCircle
 10
66.6997163606
 20
37.8953252863
 30
0.0
 40
0.472440944881896
100
AcDbArc
 50
0.0
 51
90.0
  0
LINE
  5
164
330
1F
100
AcDbEntity
  8
0
  6
CONTINUOUS
 62
     7
100
AcDbLine
 10
60.7225330789
 20
38.3677668522
 30
0.0
 11
66.6997150167
 21
38.3677668522
 31
0.0
  0
ARC
  5
165
330
1F
100
AcDbEntity
  8
0
  6
CONTINUOUS
 62
     7
100
AcDbCircle
 10
60.7225315245
 20
39.1177662312
 30
0.0
 40
0.7500000000000027
100
AcDbArc
 50
210.0
 51
270.0
  0
ARC
  5
166
330
1F
100
AcDbEntity
  8
0
  6
CONTINUOUS
 62
     7
100
AcDbCircle
 10
59.4234934188
 20
38.3677662312
 30
0.0
 40
0.7499999999999939
100
AcDbArc
 50
30.0
 51
90.0
  0
LINE
  5
167
330
1F
100
AcDbEntity
  8
0
  6
CONTINUOUS
 62
     7
100
AcDbLine
 10
55.060054279
 20
39.1177669348
 30
0.0
 11
59.4234944322
 21
39.1177669348
 31
0.0
  0
ARC
  5
168
330
1F
100
AcDbEntity
  8
0
  6
CONTINUOUS
 62
     7
100
AcDbCircle
 10
55.0600540854
 20
38.3677662312
 30
0.0
 40
0.7500000000000062
100
AcDbArc
 50
90.0
 51
150.0
  0
ARC
  5
169
330
1F
100
AcDbEntity
  8
0
  6
CONTINUOUS
 62
     7
100
AcDbCircle
 10
53.7610159797
 20
39.1177662312
 30
0.0
 40
0.75
100
AcDbArc
 50
270.0
 51
330.0
  0
LINE
  5
16A
330
1F
100
AcDbEntity
  8
0
  6
CONTINUOUS
 62
     7
100
AcDbLine
 10
47.7838290013
 20
38.3677668522
 30
0.0
 11
53.7610156323
 21
38.3677668522
 31
0.0
  0
ARC
  5
16B
330
1F
100
AcDbEntity
  8
0
  6
CONTINUOUS
 62
     7
100
AcDbCircle
 10
47.7838311436
 20
37.8953252863
 30
0.0
 40
0.472440944881896
100
AcDbArc
 50
90.0
 51
180.0
  0
LINE
  5
16C
330
1F
100
AcDbEntity
  8
0
  6
CONTINUOUS
 62
     7
100
AcDbLine
 10
47.3113894456
 20
33.2516256343
 30
0.0
 11
47.3113894456
 21
37.8953249499
 31
0.0
  0
ARC
  5
16D
330
1F
100
AcDbEntity
  8
0
  6
CONTINUOUS
 62
     7
100
AcDbCircle
 10
47.0751697263
 20
33.2516244989
 30
0.0
 40
0.236220472440948
100
AcDbArc
 50
270.0
 51
0.0
  0
LINE
  5
16E
330
1F
100
AcDbEntity
  8
0
  6
CONTINUOUS
 62
     7
100
AcDbLine
 10
46.6125695718
 20
33.0154035098
 30
0.0
 11
47.0751720144
 21
33.0154035098
 31
0.0
  0
LINE
  5
16F
330
1F
100
AcDbEntity
  8
0
  6
CONTINUOUS
 62
     7
100
AcDbLine
 10
46.5732023465
 20
33.0547730817
 30
0.0
 11
46.5732023465
 21
33.2205232736
 31
0.0
  0
LINE
  5
170
330
1F
100
AcDbEntity
  8
0
  6
CONTINUOUS
 62
     7
100
AcDbLine
 10
46.5732023465
 20
33.2205232736
 30
0.0
 11
46.7824099564
 21
33.2339108523
 31
0.0
  0
LINE
  5
171
330
1F
100
AcDbEntity
  8
0
  6
CONTINUOUS
 62
     7
100
AcDbLine
 10
46.8192662773
 20
33.2732006384
 30
0.0
 11
46.8192662773
 21
33.8633452877
 31
0.0
  0
ARC
  5
172
330
1F
100
AcDbEntity
  8
0
  6
CONTINUOUS
 62
     7
100
AcDbCircle
 10
46.8586342932
 20
33.8633458224
 30
0.0
 40
0.0393700787401576
100
AcDbArc
 50
155.1121079736
 51
180.0
  0
ARC
  5
173
330
1F
100
AcDbEntity
  8
0
  6
CONTINUOUS
 62
     7
100
AcDbCircle
 10
46.6382795523
 20
33.9655744934
 30
0.0
 40
0.2035433070866152
100
AcDbArc
 50
335.1121079736
 51
162.3995332141
  0
ARC
  5
174
330
1F
100
AcDbEntity
  8
0
  6
CONTINUOUS
 62
     7
100
AcDbCircle
 10
46.4067373783
 20
34.0390260737
 30
0.0
 40
0.0393700787401636
100
AcDbArc
 50
270.0
 51
342.3995332141
  0
LINE
  5
175
330
1F
100
AcDbEntity
  8
0
  6
CONTINUOUS
 62
     7
100
AcDbLine
 10
46.32705863
 20
33.9996568863
 30
0.0
 11
46.4067364296
 21
33.9996568863
 31
0.0
  0
LINE
  5
176
330
1F
100
AcDbEntity
  8
0
  6
CONTINUOUS
 62
     7
100
AcDbLine
 10
46.32705863
 20
38.6453250325
 30
0.0
 11
46.32705863
 21
33.9996568863
 31
0.0
  0
ARC
  5
177
330
1F
100
AcDbEntity
  8
0
  6
CONTINUOUS
 62
     7
100
AcDbCircle
 10
46.7995004349
 20
38.6453252863
 30
0.0
 40
0.4724409448818889
100
AcDbArc
 50
90.0
 51
180.0
  0
LINE
  5
178
330
1F
100
AcDbEntity
  8
0
  6
CONTINUOUS
 62
     7
100
AcDbLine
 10
53.2885760766
 20
39.1177669348
 30
0.0
 11
46.7994981857
 21
39.1177669348
 31
0.0
  0
ARC
  5
179
330
1F
100
AcDbEntity
  8
0
  6
CONTINUOUS
 62
     7
100
AcDbCircle
 10
53.2885750348
 20
39.5902071761
 30
0.0
 40
0.472440944881896
100
AcDbArc
 50
270.0
 51
0.0
  0
LINE
  5
17A
330
1F
100
AcDbEntity
  8
0
  6
CONTINUOUS
 62
     7
100
AcDbLine
 10
53.7610156323
 20
40.6138270922
 30
0.0
 11
53.7610156323
 21
39.5902088371
 31
0.0
  0
ARC
  5
17B
330
1F
100
AcDbEntity
  8
0
  6
CONTINUOUS
 62
     7
100
AcDbCircle
 10
53.2885750348
 20
40.6138292233
 30
0.0
 40
0.472440944881896
100
AcDbArc
 50
0.0
 51
90.0
  0
LINE
  5
17C
330
1F
100
AcDbEntity
  8
0
  6
CONTINUOUS
 62
     7
100
AcDbLine
 10
46.7994981857
 20
41.0862713412
 30
0.0
 11
53.2885760766
 21
41.0862713412
 31
0.0
  0
ARC
  5
17D
330
1F
100
AcDbEntity
  8
0
  6
CONTINUOUS
 62
     7
100
AcDbCircle
 10
46.7995004349
 20
41.5587111131
 30
0.0
 40
0.4724409448818889
100
AcDbArc
 50
180.0
 51
270.0
  0
LINE
  5
17E
330
1F
100
AcDbEntity
  8
0
  6
CONTINUOUS
 62
     7
100
AcDbLine
 10
46.32705863
 20
46.2043813896
 30
0.0
 11
46.32705863
 21
41.5587108968
 31
0.0
  0
LINE
  5
17F
330
1F
100
AcDbEntity
  8
0
  6
CONTINUOUS
 62
     7
100
AcDbLine
 10
46.4067364296
 20
46.2043813896
 30
0.0
 11
46.32705863
 21
46.2043813896
 31
0.0
  0
ARC
  5
180
330
1F
100
AcDbEntity
  8
0
  6
CONTINUOUS
 62
     7
100
AcDbCircle
 10
46.4067373783
 20
46.1650103257
 30
0.0
 40
0.0393700787401658
100
AcDbArc
 50
17.6004667859
 51
90.0
  0
ARC
  5
181
330
1F
100
AcDbEntity
  8
0
  6
CONTINUOUS
 62
     7
100
AcDbCircle
 10
46.6382795523
 20
46.238461906
 30
0.0
 40
0.2035433070866114
100
AcDbArc
 50
197.6004667859
 51
24.8878920264
  0
ARC
  5
182
330
1F
100
AcDbEntity
  8
0
  6
CONTINUOUS
 62
     7
100
AcDbCircle
 10
46.8586342932
 20
46.340690577
 30
0.0
 40
0.0393700787401627
100
AcDbArc
 50
180.0
 51
204.8878920264
  0
LINE
  5
183
330
1F
100
AcDbEntity
  8
0
  6
CONTINUOUS
 62
     7
100
AcDbLine
 10
46.8192662773
 20
46.340688295
 30
0.0
 11
46.8192662773
 21
46.9308352909
 31
0.0
  0
ARC
  5
184
330
1F
100
AcDbEntity
  8
0
  6
CONTINUOUS
 62
     7
100
AcDbCircle
 10
46.7798941357
 20
46.93083529
 30
0.0
 40
0.0393700787401585
100
AcDbArc
 50
0.0
 51
86.3380644245
  0
LINE
  5
185
330
1F
100
AcDbEntity
  8
0
  6
CONTINUOUS
 62
     7
100
AcDbLine
 10
46.7824099564
 20
46.9701227304
 30
0.0
 11
46.5732023465
 21
46.9835126557
 31
0.0
  0
LINE
  5
186
330
1F
100
AcDbEntity
  8
0
  6
CONTINUOUS
 62
     7
100
AcDbLine
 10
46.5732023465
 20
46.9835126557
 30
0.0
 11
46.5732023465
 21
47.149260501
 31
0.0
  0
ARC
  5
187
330
1F
100
AcDbEntity
  8
0
  6
CONTINUOUS
 62
     7
100
AcDbCircle
 10
46.6125713011
 20
47.1492622942
 30
0.0
 40
0.0393700787401627
100
AcDbArc
 50
90.0
 51
180.0
  0
LINE
  5
188
330
1F
100
AcDbEntity
  8
0
  6
CONTINUOUS
 62
     7
100
AcDbLine
 10
47.0751720144
 20
47.1886324195
 30
0.0
 11
46.6125695718
 21
47.1886324195
 31
0.0
  0
ARC
  5
189
330
1F
100
AcDbEntity
  8
0
  6
CONTINUOUS
 62
     7
100
AcDbCircle
 10
46.6125713011
 20
33.0547741052
 30
0.0
 40
0.0393700787401627
100
AcDbArc
 50
180.0
 51
270.0
  0
LINE
  5
18A
330
1F
100
AcDbEntity
  8
0
  6
CONTINUOUS
 62
     7
100
AcDbLine
 10
67.4083766968
 20
33.0154035098
 30
0.0
 11
67.8709744462
 21
33.0154035098
 31
0.0
  0
ARC
  5
18B
330
1F
100
AcDbEntity
  8
0
  6
CONTINUOUS
 62
     7
100
AcDbCircle
 10
46.7798941357
 20
33.2732011094
 30
0.0
 40
0.0393700787401585
100
AcDbArc
 50
273.6619355755
 51
0.0
  0
ARC
  5
18C
330
1F
100
AcDbEntity
  8
0
  6
CONTINUOUS
 62
     7
100
AcDbCircle
 10
47.3964301664
 20
25.8142683971
 30
0.0
 40
0.2035433070866129
100
AcDbArc
 50
346.0551977852
 51
14.8879007739
  0
ARC
  5
18D
330
1F
100
AcDbEntity
  8
0
  6
CONTINUOUS
 62
     7
100
AcDbCircle
 10
47.6311890366
 20
25.8766798215
 30
0.0
 40
0.0393700787401556
100
AcDbArc
 50
170.0
 51
194.8879007739
  0
LINE
  5
18E
330
1F
100
AcDbEntity
  8
0
  6
CONTINUOUS
 62
     7
100
AcDbLine
 10
47.677638868
 20
26.3668268748
 30
0.0
 11
47.5924183058
 21
25.883515338
 31
0.0
  0
ARC
  5
18F
330
1F
100
AcDbEntity
  8
0
  6
CONTINUOUS
 62
     7
100
AcDbCircle
 10
47.7164105677
 20
26.3599890598
 30
0.0
 40
0.0393711348432868
100
AcDbArc
 50
145.11217169
 51
170.0
  0
ARC
  5
190
330
1F
100
AcDbEntity
  8
0
  6
CONTINUOUS
 62
     7
100
AcDbCircle
 10
47.5171543121
 20
26.4989292293
 30
0.0
 40
0.2035433070866151
100
AcDbArc
 50
325.11217169
 51
152.399540952
  0
ARC
  5
191
330
1F
100
AcDbEntity
  8
0
  6
CONTINUOUS
 62
     7
100
AcDbCircle
 10
47.3018845018
 20
26.6114717626
 30
0.0
 40
0.0393700787401562
100
AcDbArc
 50
260.0000371503
 51
332.399540952
  0
LINE
  5
192
330
1F
100
AcDbEntity
  8
0
  6
CONTINUOUS
 62
     7
100
AcDbLine
 10
47.1382684588
 20
26.6003433238
 30
0.0
 11
47.2950474477
 21
26.5726999098
 31
0.0
  0
ARC
  5
193
330
1F
100
AcDbEntity
  8
0
  6
CONTINUOUS
 62
     7
100
AcDbCircle
 10
47.1451047676
 20
26.6391161549
 30
0.0
 40
0.0393701072333429
100
AcDbArc
 50
187.6004745237
 51
260.0000371503
  0
ARC
  5
194
330
1F
100
AcDbEntity
  8
0
  6
CONTINUOUS
 62
     7
100
AcDbCircle
 10
46.9043255107
 20
26.6069873132
 30
0.0
 40
0.2035432785934299
100
AcDbArc
 50
7.6004745238
 51
194.8878509098
  0
ARC
  5
195
330
1F
100
AcDbEntity
  8
0
  6
CONTINUOUS
 62
     7
100
AcDbCircle
 10
46.6695666811
 20
26.5445761183
 30
0.0
 40
0.0393700376495664
100
AcDbArc
 50
350.0
 51
14.8878509098
  0
LINE
  5
196
330
1F
100
AcDbEntity
  8
0
  6
CONTINUOUS
 62
     7
100
AcDbLine
 10
46.6231200632
 20
26.0544304836
 30
0.0
 11
46.7083406254
 21
26.5377396737
 31
0.0
  0
ARC
  5
197
330
1F
100
AcDbEntity
  8
0
  6
CONTINUOUS
 62
     7
100
AcDbCircle
 10
46.5843461091
 20
26.0612662376
 30
0.0
 40
0.0393700787401543
100
AcDbArc
 50
325.1121167212
 51
350.0
  0
ARC
  5
198
330
1F
100
AcDbEntity
  8
0
  6
CONTINUOUS
 62
     7
100
AcDbCircle
 10
46.7836013651
 20
25.922326481
 30
0.0
 40
0.203543307086611
100
AcDbArc
 50
145.1121167212
 51
173.9447554429
  0
LINE
  5
199
330
1F
100
AcDbEntity
  8
0
  6
CONTINUOUS
 62
     7
100
AcDbLine
 10
46.5811950009
 20
25.9437981616
 30
0.0
 11
28.0405436907
 21
29.2130143687
 31
0.0
  0
ARC
  5
19A
330
1F
100
AcDbEntity
  8
0
  6
CONTINUOUS
 62
     7
100
AcDbCircle
 10
27.8429991642
 20
29.2620658482
 30
0.0
 40
0.2035433070866131
100
AcDbArc
 50
346.0551977852
 51
14.8879007739
  0
ARC
  5
19B
330
1F
100
AcDbEntity
  8
0
  6
CONTINUOUS
 62
     7
100
AcDbCircle
 10
28.0777580343
 20
29.3244772727
 30
0.0
 40
0.0393700787401599
100
AcDbArc
 50
170.0
 51
194.8879007739
  0
LINE
  5
19C
330
1F
100
AcDbEntity
  8
0
  6
CONTINUOUS
 62
     7
100
AcDbLine
 10
28.1242060842
 20
29.8146223522
 30
0.0
 11
28.0389855221
 21
29.3313131621
 31
0.0
  0
ARC
  5
19D
330
1F
100
AcDbEntity
  8
0
  6
CONTINUOUS
 62
     7
100
AcDbCircle
 10
28.1629795655
 20
29.807786511
 30
0.0
 40
0.0393711348432817
100
AcDbArc
 50
145.11217169
 51
170.0
  0
ARC
  5
19E
330
1F
100
AcDbEntity
  8
0
  6
CONTINUOUS
 62
     7
100
AcDbCircle
 10
27.9637233099
 20
29.9467266804
 30
0.0
 40
0.2035433070866154
100
AcDbArc
 50
325.11217169
 51
152.399540952
  0
ARC
  5
19F
330
1F
100
AcDbEntity
  8
0
  6
CONTINUOUS
 62
     7
100
AcDbCircle
 10
27.7484534996
 20
30.0592692137
 30
0.0
 40
0.0393700787401591
100
AcDbArc
 50
260.0000371503
 51
332.399540952
  0
LINE
  5
1A0
330
1F
100
AcDbEntity
  8
0
  6
CONTINUOUS
 62
     7
100
AcDbLine
 10
27.5848380217
 20
30.0481411479
 30
0.0
 11
27.7416170106
 21
30.0204977339
 31
0.0
  0
ARC
  5
1A1
330
1F
100
AcDbEntity
  8
0
  6
CONTINUOUS
 62
     7
100
AcDbCircle
 10
27.5916737654
 20
30.086913606
 30
0.0
 40
0.0393701072333429
100
AcDbArc
 50
187.6004745237
 51
260.0000371503
  0
ARC
  5
1A2
330
1F
100
AcDbEntity
  8
0
  6
CONTINUOUS
 62
     7
100
AcDbCircle
 10
27.3508945085
 20
30.0547847643
 30
0.0
 40
0.2035432785934335
100
AcDbArc
 50
7.6004745238
 51
194.8878509098
  0
ARC
  5
1A3
330
1F
100
AcDbEntity
  8
0
  6
CONTINUOUS
 62
     7
100
AcDbCircle
 10
27.1161356788
 20
29.9923735694
 30
0.0
 40
0.0393700376495653
100
AcDbArc
 50
350.0
 51
14.8878509098
  0
LINE
  5
1A4
330
1F
100
AcDbEntity
  8
0
  6
CONTINUOUS
 62
     7
100
AcDbLine
 10
27.0696872795
 20
29.5022283077
 30
0.0
 11
27.1549078417
 21
29.9855374978
 31
0.0
  0
ARC
  5
1A5
330
1F
100
AcDbEntity
  8
0
  6
CONTINUOUS
 62
     7
100
AcDbCircle
 10
27.0309151068
 20
29.5090636887
 30
0.0
 40
0.0393700787401602
100
AcDbArc
 50
325.1121167212
 51
350.0
  0
ARC
  5
1A6
330
1F
100
AcDbEntity
  8
0
  6
CONTINUOUS
 62
     7
100
AcDbCircle
 10
27.2301703628
 20
29.3701239321
 30
0.0
 40
0.2035433070866198
100
AcDbArc
 50
145.1121167212
 51
173.9447554429
  0
LINE
  5
1A7
330
1F
100
AcDbEntity
  8
0
  6
CONTINUOUS
 62
     7
100
AcDbLine
 10
27.0277622171
 20
29.3915959857
 30
0.0
 11
25.4518998883
 21
29.6694615758
 31
0.0
  0
LINE
  5
1A8
330
1F
100
AcDbEntity
  8
0
  6
CONTINUOUS
 62
     7
100
AcDbLine
 10
25.4518998883
 20
30.7355845132
 30
0.0
 11
25.4518998883
 21
29.6694615758
 31
0.0
  0
ARC
  5
1A9
330
1F
100
AcDbEntity
  8
0
  6
CONTINUOUS
 62
     7
100
AcDbCircle
 10
25.6881212626
 20
30.7355845668
 30
0.0
 40
0.236220472440948
100
AcDbArc
 50
80.0
 51
180.0
  0
LINE
  5
1AA
330
1F
100
AcDbEntity
  8
0
  6
CONTINUOUS
 62
     7
100
AcDbLine
 10
48.4476463995
 20
26.9623312488
 30
0.0
 11
25.7291412722
 21
30.9682162791
 31
0.0
  0
ARC
  5
1AB
330
1F
100
AcDbEntity
  8
0
  6
CONTINUOUS
 62
     7
100
AcDbCircle
 10
48.4066251996
 20
26.7296993614
 30
0.0
 40
0.2362204724409484
100
AcDbArc
 50
0.0
 51
80.0
  0
LINE
  5
1AC
330
1F
100
AcDbEntity
  8
0
  6
CONTINUOUS
 62
     7
100
AcDbLine
 10
48.6428445712
 20
25.5802731878
 30
0.0
 11
48.6428445712
 21
26.7296994828
 31
0.0
  0
LINE
  5
1AD
330
1F
100
AcDbEntity
  8
0
  6
CONTINUOUS
 62
     7
100
AcDbLine
 10
48.6428445712
 20
25.5802731878
 30
0.0
 11
47.5939764745
 21
25.7652165446
 31
0.0
  0
ARC
  5
1AE
330
1F
100
AcDbEntity
  8
0
  6
CONTINUOUS
 62
     7
100
AcDbCircle
 10
27.2301703609
 20
2.9497118588
 30
0.0
 40
0.2035432785934393
100
AcDbArc
 50
186.0551972321
 51
214.8878509098
  0
ARC
  5
1AF
330
1F
100
AcDbEntity
  8
0
  6
CONTINUOUS
 62
     7
100
AcDbCircle
 10
27.0309151068
 20
2.8107722709
 30
0.0
 40
0.0393700376495651
100
AcDbArc
 50
10.0
 51
34.8878509098
  0
LINE
  5
1B0
330
1F
100
AcDbEntity
  8
0
  6
CONTINUOUS
 62
     7
100
AcDbLine
 10
27.1549078417
 20
2.3342989273
 30
0.0
 11
27.0696872795
 21
2.817608704
 31
0.0
  0
ARC
  5
1B1
330
1F
100
AcDbEntity
  8
0
  6
CONTINUOUS
 62
     7
100
AcDbCircle
 10
27.1161356788
 20
2.3274623902
 30
0.0
 40
0.0393700787401562
100
AcDbArc
 50
345.1121167212
 51
10.0
  0
ARC
  5
1B2
330
1F
100
AcDbEntity
  8
0
  6
CONTINUOUS
 62
     7
100
AcDbCircle
 10
27.350894568
 20
2.2650510374
 30
0.0
 40
0.2035433070866148
100
AcDbArc
 50
165.1121167212
 51
352.399540952
  0
ARC
  5
1B3
330
1F
100
AcDbEntity
  8
0
  6
CONTINUOUS
 62
     7
100
AcDbCircle
 10
27.5916738336
 20
2.2329222608
 30
0.0
 40
0.039370078740155
100
AcDbArc
 50
100.0000371503
 51
172.399540952
  0
LINE
  5
1B4
330
1F
100
AcDbEntity
  8
0
  6
CONTINUOUS
 62
     7
100
AcDbLine
 10
27.7416170106
 20
2.2993388378
 30
0.0
 11
27.5848380217
 21
2.2716942505
 31
0.0
  0
ARC
  5
1B5
330
1F
100
AcDbEntity
  8
0
  6
CONTINUOUS
 62
     7
100
AcDbCircle
 10
27.7484535319
 20
2.2605668564
 30
0.0
 40
0.0393700787401587
100
AcDbArc
 50
27.6004745237
 51
100.0000371503
  0
ARC
  5
1B6
330
1F
100
AcDbEntity
  8
0
  6
CONTINUOUS
 62
     7
100
AcDbCircle
 10
27.9637233118
 20
2.3731094478
 30
0.0
 40
0.2035433070866144
100
AcDbArc
 50
207.6004745238
 51
34.8879007739
  0
ARC
  5
1B7
330
1F
100
AcDbEntity
  8
0
  6
CONTINUOUS
 62
     7
100
AcDbCircle
 10
28.1629785254
 20
2.5120492652
 30
0.0
 40
0.0393700787401601
100
AcDbArc
 50
190.0
 51
214.8879007739
  0
LINE
  5
1B8
330
1F
100
AcDbEntity
  8
0
  6
CONTINUOUS
 62
     7
100
AcDbLine
 10
28.0389855221
 20
2.9885220896
 30
0.0
 11
28.1242060842
 21
2.5052127528
 31
0.0
  0
ARC
  5
1B9
330
1F
100
AcDbEntity
  8
0
  6
CONTINUOUS
 62
     7
100
AcDbCircle
 10
28.0777590744
 20
2.9953588703
 30
0.0
 40
0.0393711348432816
100
AcDbArc
 50
165.11217169
 51
190.0
  0
ARC
  5
1BA
330
1F
100
AcDbEntity
  8
0
  6
CONTINUOUS
 62
     7
100
AcDbCircle
 10
27.8429991047
 20
3.0577702692
 30
0.0
 40
0.2035433070866131
100
AcDbArc
 50
345.11217169
 51
13.9447554429
  0
LINE
  5
1BB
330
1F
100
AcDbEntity
  8
0
  6
CONTINUOUS
 62
     7
100
AcDbLine
 10
28.0405436907
 20
3.1068214697
 30
0.0
 11
46.5811950009
 21
6.3760379701
 31
0.0
  0
ARC
  5
1BC
330
1F
100
AcDbEntity
  8
0
  6
CONTINUOUS
 62
     7
100
AcDbCircle
 10
46.7836013631
 20
6.3975093099
 30
0.0
 40
0.2035432785934402
100
AcDbArc
 50
186.0551972321
 51
214.8878509098
  0
ARC
  5
1BD
330
1F
100
AcDbEntity
  8
0
  6
CONTINUOUS
 62
     7
100
AcDbCircle
 10
46.5843461091
 20
6.258569722
 30
0.0
 40
0.0393700376495619
100
AcDbArc
 50
10.0
 51
34.8878509098
  0
LINE
  5
1BE
330
1F
100
AcDbEntity
  8
0
  6
CONTINUOUS
 62
     7
100
AcDbLine
 10
46.7083406254
 20
5.782096458
 30
0.0
 11
46.6231200632
 21
6.2654062348
 31
0.0
  0
ARC
  5
1BF
330
1F
100
AcDbEntity
  8
0
  6
CONTINUOUS
 62
     7
100
AcDbCircle
 10
46.6695666811
 20
5.7752598413
 30
0.0
 40
0.0393700787401595
100
AcDbArc
 50
345.1121167212
 51
10.0
  0
ARC
  5
1C0
330
1F
100
AcDbEntity
  8
0
  6
CONTINUOUS
 62
     7
100
AcDbCircle
 10
46.9043255703
 20
5.7128484885
 30
0.0
 40
0.2035433070866146
100
AcDbArc
 50
165.1121167212
 51
352.399540952
  0
ARC
  5
1C1
330
1F
100
AcDbEntity
  8
0
  6
CONTINUOUS
 62
     7
100
AcDbCircle
 10
47.1451048358
 20
5.6807197119
 30
0.0
 40
0.0393700787401584
100
AcDbArc
 50
100.0000371503
 51
172.399540952
  0
LINE
  5
1C2
330
1F
100
AcDbEntity
  8
0
  6
CONTINUOUS
 62
     7
100
AcDbLine
 10
47.2950474477
 20
5.7471362219
 30
0.0
 11
47.1382684588
 21
5.7194916345
 31
0.0
  0
ARC
  5
1C3
330
1F
100
AcDbEntity
  8
0
  6
CONTINUOUS
 62
     7
100
AcDbCircle
 10
47.3018845342
 20
5.7083643075
 30
0.0
 40
0.0393700787401591
100
AcDbArc
 50
27.6004745237
 51
100.0000371503
  0
ARC
  5
1C4
330
1F
100
AcDbEntity
  8
0
  6
CONTINUOUS
 62
     7
100
AcDbCircle
 10
47.5171543141
 20
5.8209068989
 30
0.0
 40
0.2035433070866203
100
AcDbArc
 50
207.6004745238
 51
34.8879007739
  0
ARC
  5
1C5
330
1F
100
AcDbEntity
  8
0
  6
CONTINUOUS
 62
     7
100
AcDbCircle
 10
47.7164095277
 20
5.9598467163
 30
0.0
 40
0.0393700787401596
100
AcDbArc
 50
190.0
 51
214.8879007739
  0
LINE
  5
1C6
330
1F
100
AcDbEntity
  8
0
  6
CONTINUOUS
 62
     7
100
AcDbLine
 10
47.5924183058
 20
6.4363196204
 30
0.0
 11
47.677638868
 21
5.9530104303
 31
0.0
  0
ARC
  5
1C7
330
1F
100
AcDbEntity
  8
0
  6
CONTINUOUS
 62
     7
100
AcDbCircle
 10
47.6311900766
 20
6.4431563214
 30
0.0
 40
0.0393711348432817
100
AcDbArc
 50
165.11217169
 51
190.0
  0
ARC
  5
1C8
330
1F
100
AcDbEntity
  8
0
  6
CONTINUOUS
 62
     7
100
AcDbCircle
 10
47.3964301069
 20
6.5055677203
 30
0.0
 40
0.2035433070866144
100
AcDbArc
 50
345.11217169
 51
13.9447554429
  0
LINE
  5
1C9
330
1F
100
AcDbEntity
  8
0
  6
CONTINUOUS
 62
     7
100
AcDbLine
 10
47.5939764745
 20
6.5546190004
 30
0.0
 11
48.6428445712
 21
6.7395629439
 31
0.0
  0
LINE
  5
1CA
330
1F
100
AcDbEntity
  8
0
  6
CONTINUOUS
 62
     7
100
AcDbLine
 10
48.6428445712
 20
5.5901366489
 30
0.0
 11
48.6428445712
 21
6.7395629439
 31
0.0
  0
ARC
  5
1CB
330
1F
100
AcDbEntity
  8
0
  6
CONTINUOUS
 62
     7
100
AcDbCircle
 10
48.4066251996
 20
5.5901365982
 30
0.0
 40
0.236220472440948
100
AcDbArc
 50
280.0
 51
0.0
  0
LINE
  5
1CC
330
1F
100
AcDbEntity
  8
0
  6
CONTINUOUS
 62
     7
100
AcDbLine
 10
25.7291412722
 20
1.3516196326
 30
0.0
 11
48.4476463995
 21
5.3575048829
 31
0.0
  0
ARC
  5
1CD
330
1F
100
AcDbEntity
  8
0
  6
CONTINUOUS
 62
     7
100
AcDbCircle
 10
25.6881212626
 20
1.5842513927
 30
0.0
 40
0.236220472440948
100
AcDbArc
 50
180.0
 51
280.0
  0
LINE
  5
1CE
330
1F
100
AcDbEntity
  8
0
  6
CONTINUOUS
 62
     7
100
AcDbLine
 10
25.4518998883
 20
2.6503736759
 30
0.0
 11
25.4518998883
 21
1.5842513252
 31
0.0
  0
LINE
  5
1CF
330
1F
100
AcDbEntity
  8
0
  6
CONTINUOUS
 62
     7
100
AcDbLine
 10
25.4518998883
 20
2.6503736759
 30
0.0
 11
27.0277622171
 21
2.9282407327
 31
0.0
  0
LINE
  5
1D0
330
1F
100
AcDbEntity
  8
0
  6
CONTINUOUS
 62
     7
100
AcDbLine
 10
48.4476463995
 20
23.7438869352
 30
0.0
 11
48.0506466123
 21
23.6738843305
 31
0.0
  0
ARC
  5
1D1
330
1F
100
AcDbEntity
  8
0
  6
CONTINUOUS
 62
     7
100
AcDbCircle
 10
48.0916645697
 20
23.4412529199
 30
0.0
 40
0.236220472440948
100
AcDbArc
 50
100.0
 51
180.0
  0
LINE
  5
1D2
330
1F
100
AcDbEntity
  8
0
  6
CONTINUOUS
 62
     7
100
AcDbLine
 10
47.8554437473
 20
23.4412525646
 30
0.0
 11
47.8554437473
 21
8.8785829805
 31
0.0
  0
ARC
  5
1D3
330
1F
100
AcDbEntity
  8
0
  6
CONTINUOUS
 62
     7
100
AcDbCircle
 10
48.0916645697
 20
8.8785830397
 30
0.0
 40
0.2362204724409449
100
AcDbArc
 50
180.0
 51
260.0
  0
LINE
  5
1D4
330
1F
100
AcDbEntity
  8
0
  6
CONTINUOUS
 62
     7
100
AcDbLine
 10
48.0506466123
 20
8.6459512145
 30
0.0
 11
48.4476463995
 21
8.5759497832
 31
0.0
  0
ARC
  5
1D5
330
1F
100
AcDbEntity
  8
0
  6
CONTINUOUS
 62
     7
100
AcDbCircle
 10
48.4066251996
 20
8.3433178748
 30
0.0
 40
0.236220472440948
100
AcDbArc
 50
0.0
 51
80.0
  0
LINE
  5
1D6
330
1F
100
AcDbEntity
  8
0
  6
CONTINUOUS
 62
     7
100
AcDbLine
 10
48.6428445712
 20
7.5283177788
 30
0.0
 11
48.6428445712
 21
8.3433180172
 31
0.0
  0
LINE
  5
1D7
330
1F
100
AcDbEntity
  8
0
  6
CONTINUOUS
 62
     7
100
AcDbLine
 10
48.6428445712
 20
7.5283177788
 30
0.0
 11
47.0680429234
 21
7.2506375733
 31
0.0
  0
LINE
  5
1D8
330
1F
100
AcDbEntity
  8
0
  6
CONTINUOUS
 62
     7
100
AcDbLine
 10
47.0680429234
 20
7.2506375733
 30
0.0
 11
47.0680429234
 21
25.0691985584
 31
0.0
  0
LINE
  5
1D9
330
1F
100
AcDbEntity
  8
0
  6
CONTINUOUS
 62
     7
100
AcDbLine
 10
47.0680429234
 20
25.0691985584
 30
0.0
 11
48.6428445712
 21
24.7915183529
 31
0.0
  0
LINE
  5
1DA
330
1F
100
AcDbEntity
  8
0
  6
CONTINUOUS
 62
     7
100
AcDbLine
 10
48.6428445712
 20
23.9765187011
 30
0.0
 11
48.6428445712
 21
24.7915183529
 31
0.0
  0
ARC
  5
1DB
330
1F
100
AcDbEntity
  8
0
  6
CONTINUOUS
 62
     7
100
AcDbCircle
 10
48.4066251996
 20
23.9765180848
 30
0.0
 40
0.236220472440948
100
AcDbArc
 50
280.0
 51
0.0
  0
LINE
  5
1DC
330
1F
100
AcDbEntity
  8
0
  6
CONTINUOUS
 62
     7
100
AcDbLine
 10
25.4518998883
 20
28.8807067409
 30
0.0
 11
25.4518998883
 21
3.4391285108
 31
0.0
  0
LINE
  5
1DD
330
1F
100
AcDbEntity
  8
0
  6
CONTINUOUS
 62
     7
100
AcDbLine
 10
25.4518998883
 20
28.8807067409
 30
0.0
 11
46.3046576088
 21
25.2038041501
 31
0.0
  0
LINE
  5
1DE
330
1F
100
AcDbEntity
  8
0
  6
CONTINUOUS
 62
     7
100
AcDbLine
 10
46.3046576088
 20
25.2038041501
 30
0.0
 11
46.3046576088
 21
7.1160319816
 31
0.0
  0
LINE
  5
1DF
330
1F
100
AcDbEntity
  8
0
  6
CONTINUOUS
 62
     7
100
AcDbLine
 10
46.3046576088
 20
7.1160319816
 30
0.0
 11
25.4518998883
 21
3.4391285108
 31
0.0
  0
ARC
  5
1E0
330
1F
100
AcDbEntity
  8
0
  6
CONTINUOUS
 62
     7
100
AcDbCircle
 10
47.1556508413
 20
6.537696497
 30
0.0
 40
0.0393700787401626
100
AcDbArc
 50
280.0000371503
 51
352.399540952
  0
LINE
  5
1E1
330
1F
100
AcDbEntity
  8
0
  6
CONTINUOUS
 62
     7
100
AcDbLine
 10
47.1624857791
 20
6.4989244438
 30
0.0
 11
47.0057067902
 21
6.4712798565
 31
0.0
  0
ARC
  5
1E2
330
1F
100
AcDbEntity
  8
0
  6
CONTINUOUS
 62
     7
100
AcDbCircle
 10
46.998871143
 20
6.5100519013
 30
0.0
 40
0.0393700787401595
100
AcDbArc
 50
207.6004745238
 51
280.0000371503
  0
ARC
  5
1E3
330
1F
100
AcDbEntity
  8
0
  6
CONTINUOUS
 62
     7
100
AcDbCircle
 10
27.6022198391
 20
3.0898990459
 30
0.0
 40
0.0393700787401626
100
AcDbArc
 50
280.0000371503
 51
352.399540952
  0
LINE
  5
1E4
330
1F
100
AcDbEntity
  8
0
  6
CONTINUOUS
 62
     7
100
AcDbLine
 10
27.609055342
 20
3.0511272064
 30
0.0
 11
27.4522763531
 21
3.0234826191
 31
0.0
  0
ARC
  5
1E5
330
1F
100
AcDbEntity
  8
0
  6
CONTINUOUS
 62
     7
100
AcDbCircle
 10
27.4454401408
 20
3.0622544502
 30
0.0
 40
0.0393700787401558
100
AcDbArc
 50
207.6004745238
 51
280.0000371503
  0
ARC
  5
1E6
330
1F
100
AcDbEntity
  8
0
  6
CONTINUOUS
 62
     7
100
AcDbCircle
 10
27.4454401731
 20
29.2575813989
 30
0.0
 40
0.039370078740155
100
AcDbArc
 50
80.0000371503
 51
152.399540952
  0
LINE
  5
1E7
330
1F
100
AcDbEntity
  8
0
  6
CONTINUOUS
 62
     7
100
AcDbLine
 10
27.4522763531
 20
29.296352926
 30
0.0
 11
27.609055342
 21
29.268709512
 31
0.0
  0
ARC
  5
1E8
330
1F
100
AcDbEntity
  8
0
  6
CONTINUOUS
 62
     7
100
AcDbCircle
 10
27.6022199073
 20
29.2299370065
 30
0.0
 40
0.0393700787401585
100
AcDbArc
 50
7.6004745238
 51
80.0000371503
  0
ARC
  5
1E9
330
1F
100
AcDbEntity
  8
0
  6
CONTINUOUS
 62
     7
100
AcDbCircle
 10
46.9988711754
 20
25.8097839478
 30
0.0
 40
0.0393700787401589
100
AcDbArc
 50
80.0000371503
 51
152.399540952
  0
LINE
  5
1EA
330
1F
100
AcDbEntity
  8
0
  6
CONTINUOUS
 62
     7
100
AcDbLine
 10
47.0057067902
 20
25.8485551019
 30
0.0
 11
47.1624857791
 21
25.8209116879
 31
0.0
  0
ARC
  5
1EB
330
1F
100
AcDbEntity
  8
0
  6
CONTINUOUS
 62
     7
100
AcDbCircle
 10
47.1556509096
 20
25.7821395554
 30
0.0
 40
0.0393700787401585
100
AcDbArc
 50
7.6004745238
 51
80.0000371503
  0
LINE
  5
1EC
330
1F
100
AcDbEntity
  8
0
  6
CONTINUOUS
 62
     7
100
AcDbLine
 10
25.4518998883
 20
28.8807067409
 30
0.0
 11
25.4518998883
 21
29.6694615758
 31
0.0
  0
LINE
  5
1ED
330
1F
100
AcDbEntity
  8
0
  6
CONTINUOUS
 62
     7
100
AcDbLine
 10
25.4518998883
 20
2.6503736759
 30
0.0
 11
25.4518998883
 21
3.4391285108
 31
0.0
  0
ARC
  5
1EE
330
1F
100
AcDbEntity
  8
0
  6
CONTINUOUS
 62
     7
100
AcDbCircle
 10
46.7836013631
 20
6.3975093099
 30
0.0
 40
0.2035433070866081
100
AcDbArc
 50
27.6004745238
 51
186.0551972321
  0
ARC
  5
1EF
330
1F
100
AcDbEntity
  8
0
  6
CONTINUOUS
 62
     7
100
AcDbCircle
 10
46.7836013651
 20
25.922326481
 30
0.0
 40
0.2035433070866138
100
AcDbArc
 50
173.9447554429
 51
332.399540952
  0
ARC
  5
1F0
330
1F
100
AcDbEntity
  8
0
  6
CONTINUOUS
 62
     7
100
AcDbCircle
 10
47.3964301069
 20
6.5055677203
 30
0.0
 40
0.2035433070866148
100
AcDbArc
 50
13.9447554429
 51
172.399540952
  0
ARC
  5
1F1
330
1F
100
AcDbEntity
  8
0
  6
CONTINUOUS
 62
     7
100
AcDbCircle
 10
47.3964301664
 20
25.8142683971
 30
0.0
 40
0.2035433070866182
100
AcDbArc
 50
187.6004745238
 51
346.0551977852
  0
LINE
  5
1F2
330
1F
100
AcDbEntity
  8
0
  6
CONTINUOUS
 62
     7
100
AcDbLine
 10
48.6428445712
 20
7.5283177788
 30
0.0
 11
48.6428445712
 21
6.7395629439
 31
0.0
  0
LINE
  5
1F3
330
1F
100
AcDbEntity
  8
0
  6
CONTINUOUS
 62
     7
100
AcDbLine
 10
48.6428445712
 20
25.5802731878
 30
0.0
 11
48.6428445712
 21
24.7915183529
 31
0.0
  0
ARC
  5
1F4
330
1F
100
AcDbEntity
  8
0
  6
CONTINUOUS
 62
     7
100
AcDbCircle
 10
27.8429991047
 20
3.0577702692
 30
0.0
 40
0.2035433070866146
100
AcDbArc
 50
13.9447554429
 51
172.399540952
  0
ARC
  5
1F5
330
1F
100
AcDbEntity
  8
0
  6
CONTINUOUS
 62
     7
100
AcDbCircle
 10
27.8429991642
 20
29.2620658482
 30
0.0
 40
0.2035433070866131
100
AcDbArc
 50
187.6004745238
 51
346.0551977852
  0
ARC
  5
1F6
330
1F
100
AcDbEntity
  8
0
  6
CONTINUOUS
 62
     7
100
AcDbCircle
 10
27.2301703609
 20
2.9497118588
 30
0.0
 40
0.2035433070866111
100
AcDbArc
 50
27.6004745238
 51
186.0551972321
  0
ARC
  5
1F7
330
1F
100
AcDbEntity
  8
0
  6
CONTINUOUS
 62
     7
100
AcDbCircle
 10
27.2301703628
 20
29.3701239321
 30
0.0
 40
0.2035433070866198
100
AcDbArc
 50
173.9447554429
 51
332.399540952
  0
LINE
  5
1F8
330
1F
100
AcDbEntity
  8
0
  6
CONTINUOUS
 62
     7
100
AcDbLine
 10
78.2704033244
 20
2.6507596981
 30
0.0
 11
78.2704033244
 21
1.1839079433
 31
0.0
  0
LINE
  5
1F9
330
1F
100
AcDbEntity
  8
0
  6
CONTINUOUS
 62
     7
100
AcDbLine
 10
78.2704033244
 20
2.6507596981
 30
0.0
 11
91.225130257
 21
2.6507596981
 31
0.0
  0
LINE
  5
1FA
330
1F
100
AcDbEntity
  8
0
  6
CONTINUOUS
 62
     7
100
AcDbLine
 10
91.225130257
 20
1.1839079433
 30
0.0
 11
91.225130257
 21
2.6507596981
 31
0.0
  0
LINE
  5
1FB
330
1F
100
AcDbEntity
  8
0
  6
CONTINUOUS
 62
     7
100
AcDbLine
 10
78.2704033244
 20
1.1839079433
 30
0.0
 11
91.225130257
 21
1.1839079433
 31
0.0
  0
LINE
  5
1FC
330
1F
100
AcDbEntity
  8
0
  6
CONTINUOUS
 62
     7
100
AcDbLine
 10
91.225130257
 20
24.6003657877
 30
0.0
 11
78.2704033244
 21
24.6003657877
 31
0.0
  0
LINE
  5
1FD
330
1F
100
AcDbEntity
  8
0
  6
CONTINUOUS
 62
     7
100
AcDbLine
 10
91.225130257
 20
3.4190225031
 30
0.0
 11
78.2704033244
 21
3.4190225031
 31
0.0
  0
LINE
  5
1FE
330
1F
100
AcDbEntity
  8
0
  6
CONTINUOUS
 62
     7
100
AcDbLine
 10
78.2704033244
 20
24.6003657877
 30
0.0
 11
78.2704033244
 21
3.4190225031
 31
0.0
  0
LINE
  5
1FF
330
1F
100
AcDbEntity
  8
0
  6
CONTINUOUS
 62
     7
100
AcDbLine
 10
91.225130257
 20
3.4190225031
 30
0.0
 11
91.225130257
 21
24.6003657877
 31
0.0
  0
LINE
  5
200
330
1F
100
AcDbEntity
  8
0
  6
CONTINUOUS
 62
     7
100
AcDbLine
 10
78.2704033244
 20
2.6507596981
 30
0.0
 11
78.2704033244
 21
3.4190225031
 31
0.0
  0
LINE
  5
201
330
1F
100
AcDbEntity
  8
0
  6
CONTINUOUS
 62
     7
100
AcDbLine
 10
91.225130257
 20
3.4190225031
 30
0.0
 11
91.225130257
 21
2.6507596981
 31
0.0
  0
LINE
  5
202
330
1F
100
AcDbEntity
  8
0
  6
CONTINUOUS
 62
     7
100
AcDbLine
 10
64.0763080958
 20
1.1839079433
 30
0.0
 11
77.0310350284
 21
1.1839079433
 31
0.0
  0
LINE
  5
203
330
1F
100
AcDbEntity
  8
0
  6
CONTINUOUS
 62
     7
100
AcDbLine
 10
64.0763080958
 20
2.6507596981
 30
0.0
 11
64.0763080958
 21
1.1839079433
 31
0.0
  0
LINE
  5
204
330
1F
100
AcDbEntity
  8
0
  6
CONTINUOUS
 62
     7
100
AcDbLine
 10
77.0310350284
 20
2.6507596981
 30
0.0
 11
64.0763080958
 21
2.6507596981
 31
0.0
  0
LINE
  5
205
330
1F
100
AcDbEntity
  8
0
  6
CONTINUOUS
 62
     7
100
AcDbLine
 10
77.0310350284
 20
1.1839079433
 30
0.0
 11
77.0310350284
 21
2.6507596981
 31
0.0
  0
LINE
  5
206
330
1F
100
AcDbEntity
  8
0
  6
CONTINUOUS
 62
     7
100
AcDbLine
 10
77.0310350284
 20
24.6003657877
 30
0.0
 11
64.0763080958
 21
24.6003657877
 31
0.0
  0
LINE
  5
207
330
1F
100
AcDbEntity
  8
0
  6
CONTINUOUS
 62
     7
100
AcDbLine
 10
64.0763080958
 20
3.4190225031
 30
0.0
 11
77.0310350284
 21
3.4190225031
 31
0.0
  0
LINE
  5
208
330
1F
100
AcDbEntity
  8
0
  6
CONTINUOUS
 62
     7
100
AcDbLine
 10
64.0763080958
 20
24.6003657877
 30
0.0
 11
64.0763080958
 21
3.4190225031
 31
0.0
  0
LINE
  5
209
330
1F
100
AcDbEntity
  8
0
  6
CONTINUOUS
 62
     7
100
AcDbLine
 10
77.0310350284
 20
3.4190225031
 30
0.0
 11
77.0310350284
 21
24.6003657877
 31
0.0
  0
LINE
  5
20A
330
1F
100
AcDbEntity
  8
0
  6
CONTINUOUS
 62
     7
100
AcDbLine
 10
64.0763080958
 20
2.6507596981
 30
0.0
 11
64.0763080958
 21
3.4190225031
 31
0.0
  0
LINE
  5
20B
330
1F
100
AcDbEntity
  8
0
  6
CONTINUOUS
 62
     7
100
AcDbLine
 10
77.0310350284
 20
3.4190225031
 30
0.0
 11
77.0310350284
 21
2.6507596981
 31
0.0
  0
LINE
  5
20C
330
1F
100
AcDbEntity
  8
0
  6
CONTINUOUS
 62
     7
100
AcDbLine
 10
49.8822175605
 20
1.1839079433
 30
0.0
 11
62.8369397998
 21
1.1839079433
 31
0.0
  0
LINE
  5
20D
330
1F
100
AcDbEntity
  8
0
  6
CONTINUOUS
 62
     7
100
AcDbLine
 10
49.8822175605
 20
20.0441445016
 30
0.0
 11
49.8822175605
 21
1.1839079433
 31
0.0
  0
LINE
  5
20E
330
1F
100
AcDbEntity
  8
0
  6
CONTINUOUS
 62
     7
100
AcDbLine
 10
62.8369397998
 20
20.0441445016
 30
0.0
 11
49.8822175605
 21
20.0441445016
 31
0.0
  0
LINE
  5
20F
330
1F
100
AcDbEntity
  8
0
  6
CONTINUOUS
 62
     7
100
AcDbLine
 10
62.8369397998
 20
1.1839079433
 30
0.0
 11
62.8369397998
 21
20.0441445016
 31
0.0
  0
LINE
  5
210
330
1F
100
AcDbEntity
  8
POCKETS
100
AcDbLine
 10
77.4247354358
 20
3.4190226268
 30
0.0
 11
63.6826094516
 21
3.4190226268
 31
0.0
  0
LINE
  5
211
330
1F
100
AcDbEntity
  8
POCKETS
100
AcDbLine
 10
63.6826094516
 20
3.4190226268
 30
0.0
 11
63.6826094516
 21
2.6507597545
 31
0.0
  0
LINE
  5
212
330
1F
100
AcDbEntity
  8
POCKETS
100
AcDbLine
 10
63.6826094516
 20
2.6507597545
 30
0.0
 11
77.4247354358
 21
2.6507597545
 31
0.0
  0
LINE
  5
213
330
1F
100
AcDbEntity
  8
PROFILES_OUTSIDE
100
AcDbLine
 10
24.2125307114
 20
23.9765180848
 30
0.0
 11
24.2125307114
 21
26.9279118727
 31
0.0
  0
LINE
  5
214
330
1F
100
AcDbEntity
  8
PROFILES_OUTSIDE
100
AcDbLine
 10
24.2125307114
 20
26.9279118727
 30
0.0
 11
1.0215858295
 21
31.0171011635
 31
0.0
  0
LINE
  5
215
330
1F
100
AcDbEntity
  8
PROFILES_OUTSIDE
100
AcDbLine
 10
1.0215858295
 20
31.0171011635
 30
0.0
 11
1.0215858295
 21
1.3027347961
 31
0.0
  0
LINE
  5
216
330
1F
100
AcDbEntity
  8
PROFILES_OUTSIDE
100
AcDbLine
 10
1.0215858295
 20
1.3027347961
 30
0.0
 11
24.2125307114
 21
5.3919240869
 31
0.0
  0
LINE
  5
217
330
1F
100
AcDbEntity
  8
POCKETS
100
AcDbLine
 10
77.4247354358
 20
2.6507597545
 30
0.0
 11
77.4247354358
 21
3.4190226268
 31
0.0
  0
LINE
  5
218
330
1F
100
AcDbEntity
  8
PROFILES_OUTSIDE
100
AcDbLine
 10
24.2125307114
 20
5.3919240869
 30
0.0
 11
24.2125307114
 21
8.3433178748
 31
0.0
  0
LINE
  5
219
330
1F
100
AcDbEntity
  8
PROFILES_OUTSIDE
100
AcDbLine
 10
24.0173294935
 20
8.5759496275
 30
0.0
 11
23.6203303545
 21
8.645951287
 31
0.0
  0
LINE
  5
21A
330
1F
100
AcDbEntity
  8
PROFILES_OUTSIDE
100
AcDbLine
 10
23.4251291366
 20
8.8785830397
 30
0.0
 11
23.4251291366
 21
23.4412529199
 31
0.0
  0
LINE
  5
21B
330
1F
100
AcDbEntity
  8
PROFILES_OUTSIDE
100
AcDbLine
 10
23.6203303545
 20
23.6738846726
 30
0.0
 11
24.0173294935
 21
23.7438863321
 31
0.0
  0
LINE
  5
21C
330
1F
100
AcDbEntity
  8
PROFILES_INSIDE
100
AcDbLine
 10
23.1621021172
 20
25.883516364
 30
0.0
 11
23.2473226083
 21
26.3668257857
 31
0.0
  0
LINE
  5
21D
330
1F
100
AcDbEntity
  8
PROFILES_INSIDE
100
AcDbLine
 10
22.575392732
 20
25.848555911
 30
0.0
 11
22.7321724662
 21
25.8209115186
 31
0.0
  0
LINE
  5
21E
330
1F
100
AcDbEntity
  8
PROFILES_INSIDE
100
AcDbLine
 10
22.2780236388
 20
26.537739583
 30
0.0
 11
22.1928031072
 21
26.0544296952
 31
0.0
  0
LINE
  5
21F
330
1F
100
AcDbEntity
  8
PROFILES_INSIDE
100
AcDbLine
 10
22.8647330239
 20
26.5726997994
 30
0.0
 11
22.7079532829
 21
26.6003441531
 31
0.0
  0
LINE
  5
220
330
1F
100
AcDbEntity
  8
PROFILES_OUTSIDE
100
AcDbLine
 10
62.8369401602
 20
1.1839079635
 30
0.0
 11
62.8369401602
 21
20.044144184
 31
0.0
  0
LINE
  5
221
330
1F
100
AcDbEntity
  8
PROFILES_OUTSIDE
100
AcDbLine
 10
62.8369401602
 20
20.044144184
 30
0.0
 11
49.8822157508
 21
20.044144184
 31
0.0
  0
LINE
  5
222
330
1F
100
AcDbEntity
  8
PROFILES_OUTSIDE
100
AcDbLine
 10
49.8822157508
 20
20.044144184
 30
0.0
 11
49.8822157508
 21
1.1839079635
 31
0.0
  0
LINE
  5
223
330
1F
100
AcDbEntity
  8
PROFILES_OUTSIDE
100
AcDbLine
 10
49.8822157508
 20
1.1839079635
 30
0.0
 11
62.8369401602
 21
1.1839079635
 31
0.0
  0
LINE
  5
224
330
1F
100
AcDbEntity
  8
PROFILES_OUTSIDE
100
AcDbLine
 10
77.0310346484
 20
24.6003653158
 30
0.0
 11
64.076310239
 21
24.6003653158
 31
0.0
  0
LINE
  5
225
330
1F
100
AcDbEntity
  8
PROFILES_OUTSIDE
100
AcDbLine
 10
64.076310239
 20
24.6003653158
 30
0.0
 11
64.076310239
 21
1.1839079635
 31
0.0
  0
LINE
  5
226
330
1F
100
AcDbEntity
  8
PROFILES_OUTSIDE
100
AcDbLine
 10
64.076310239
 20
1.1839079635
 30
0.0
 11
77.0310346484
 21
1.1839079635
 31
0.0
  0
LINE
  5
227
330
1F
100
AcDbEntity
  8
PROFILES_OUTSIDE
100
AcDbLine
 10
77.0310346484
 20
1.1839079635
 30
0.0
 11
77.0310346484
 21
24.6003653158
 31
0.0
  0
LINE
  5
228
330
1F
100
AcDbEntity
  8
PROFILES_OUTSIDE
100
AcDbLine
 10
78.2704047272
 20
24.6003653158
 30
0.0
 11
78.2704047272
 21
1.1839079635
 31
0.0
  0
LINE
  5
229
330
1F
100
AcDbEntity
  8
PROFILES_OUTSIDE
100
AcDbLine
 10
78.2704047272
 20
1.1839079635
 30
0.0
 11
91.2251291366
 21
1.1839079635
 31
0.0
  0
LINE
  5
22A
330
1F
100
AcDbEntity
  8
BOX_STOCK
100
AcDbLine
 10
0.0082000027
 20
0.1705221367
 30
0.0
 11
96.0711921287
 21
0.1705221367
 31
0.0
  0
LINE
  5
22B
330
1F
100
AcDbEntity
  8
BOX_STOCK
100
AcDbLine
 10
96.0711921287
 20
0.1705221367
 30
0.0
 11
96.0711921287
 21
48.2020181997
 31
0.0
  0
LINE
  5
22C
330
1F
100
AcDbEntity
  8
BOX_STOCK
100
AcDbLine
 10
96.0711921287
 20
48.2020181997
 30
0.0
 11
0.0082000027
 21
48.2020181997
 31
0.0
  0
LINE
  5
22D
330
1F
100
AcDbEntity
  8
BOX_STOCK
100
AcDbLine
 10
0.0082000027
 20
48.2020181997
 30
0.0
 11
0.0082000027
 21
0.1705221367
 31
0.0
  0
LINE
  5
22E
330
1F
100
AcDbEntity
  8
POCKETS
100
AcDbLine
 10
91.618829924
 20
3.4190226268
 30
0.0
 11
77.8767039398
 21
3.4190226268
 31
0.0
  0
LINE
  5
22F
330
1F
100
AcDbEntity
  8
PROFILES_OUTSIDE
100
AcDbLine
 10
91.2251291366
 20
1.1839079635
 30
0.0
 11
91.2251291366
 21
24.6003653158
 31
0.0
  0
LINE
  5
230
330
1F
100
AcDbEntity
  8
POCKETS
100
AcDbLine
 10
77.8767039398
 20
3.4190226268
 30
0.0
 11
77.8767039398
 21
2.6507597545
 31
0.0
  0
LINE
  5
231
330
1F
100
AcDbEntity
  8
POCKETS
100
AcDbLine
 10
77.8767039398
 20
2.6507597545
 30
0.0
 11
91.618829924
 21
2.6507597545
 31
0.0
  0
LINE
  5
232
330
1F
100
AcDbEntity
  8
POCKETS
100
AcDbLine
 10
91.618829924
 20
2.6507597545
 30
0.0
 11
91.618829924
 21
3.4190226268
 31
0.0
  0
LINE
  5
233
330
1F
100
AcDbEntity
  8
PROFILES_OUTSIDE
100
AcDbLine
 10
91.2251291366
 20
24.6003653158
 30
0.0
 11
78.2704047272
 21
24.6003653158
 31
0.0
  0
LINE
  5
234
330
1F
100
AcDbEntity
  8
PROFILES_INSIDE
100
AcDbLine
 10
3.6030646897
 20
29.3323023791
 30
0.0
 11
3.6882851808
 21
29.8156118008
 31
0.0
  0
LINE
  5
235
330
1F
100
AcDbEntity
  8
PROFILES_INSIDE
100
AcDbLine
 10
3.3056955964
 20
30.0214858145
 30
0.0
 11
3.1489158598
 21
30.0491301928
 31
0.0
  0
LINE
  5
236
330
1F
100
AcDbEntity
  8
PROFILES_INSIDE
100
AcDbLine
 10
2.7189862078
 20
29.9865255988
 30
0.0
 11
2.6337656797
 21
29.5032157103
 31
0.0
  0
LINE
  5
237
330
1F
100
AcDbEntity
  8
PROFILES_INSIDE
100
AcDbLine
 10
3.0163553046
 20
29.2973419261
 30
0.0
 11
3.1731350387
 21
29.2696975338
 31
0.0
  0
LINE
  5
238
330
1F
100
AcDbEntity
  8
PROFILES_INSIDE
100
AcDbLine
 10
23.2473226083
 20
5.9530101739
 30
0.0
 11
23.1621021172
 21
6.4363195956
 31
0.0
  0
LINE
  5
239
330
1F
100
AcDbEntity
  8
PROFILES_INSIDE
100
AcDbLine
 10
22.7321724483
 20
6.4989245426
 30
0.0
 11
22.5753927506
 21
6.4712799435
 31
0.0
  0
LINE
  5
23A
330
1F
100
AcDbEntity
  8
PROFILES_INSIDE
100
AcDbLine
 10
22.1928030597
 20
6.2654062561
 30
0.0
 11
22.2780236792
 21
5.7820963837
 31
0.0
  0
LINE
  5
23B
330
1F
100
AcDbEntity
  8
PROFILES_INSIDE
100
AcDbLine
 10
22.7079533076
 20
5.7194916662
 30
0.0
 11
22.864733006
 21
5.7471362619
 31
0.0
  0
LINE
  5
23C
330
1F
100
AcDbEntity
  8
PROFILES_INSIDE
100
AcDbLine
 10
2.6337656393
 20
2.8166202421
 30
0.0
 11
2.7189862517
 21
2.3333103686
 31
0.0
  0
LINE
  5
23D
330
1F
100
AcDbEntity
  8
PROFILES_INSIDE
100
AcDbLine
 10
3.1489158802
 20
2.2707056511
 30
0.0
 11
3.3056955785
 21
2.2983502467
 31
0.0
  0
LINE
  5
23E
330
1F
100
AcDbEntity
  8
PROFILES_INSIDE
100
AcDbLine
 10
3.6882851808
 20
2.5042241588
 30
0.0
 11
3.6030646897
 21
2.9875335805
 31
0.0
  0
LINE
  5
23F
330
1F
100
AcDbEntity
  8
PROFILES_INSIDE
100
AcDbLine
 10
3.1731350208
 20
3.0501385275
 30
0.0
 11
3.0163553225
 21
3.0224939318
 31
0.0
  0
LINE
  5
240
330
1F
100
AcDbEntity
  8
PROFILES_OUTSIDE
100
AcDbLine
 10
67.9103462818
 20
46.9835142627
 30
0.0
 11
67.9103462818
 21
47.1492622942
 31
0.0
  0
LINE
  5
241
330
1F
100
AcDbEntity
  8
PROFILES_OUTSIDE
100
AcDbLine
 10
67.7011388279
 20
46.9701249857
 30
0.0
 11
67.9103462818
 21
46.9835142627
 31
0.0
  0
LINE
  5
242
330
1F
100
AcDbEntity
  8
PROFILES_OUTSIDE
100
AcDbLine
 10
67.6642832897
 20
46.340690577
 30
0.0
 11
67.6642832897
 21
46.93083529
 31
0.0
  0
LINE
  5
243
330
1F
100
AcDbEntity
  8
PROFILES_OUTSIDE
100
AcDbLine
 10
68.1564880141
 20
46.2043804044
 30
0.0
 11
68.0768101259
 21
46.2043804044
 31
0.0
  0
LINE
  5
244
330
1F
100
AcDbEntity
  8
PROFILES_OUTSIDE
100
AcDbLine
 10
68.1564880141
 20
41.5587111131
 30
0.0
 11
68.1564880141
 21
46.2043804044
 31
0.0
  0
LINE
  5
245
330
1F
100
AcDbEntity
  8
PROFILES_OUTSIDE
100
AcDbLine
 10
61.1949724694
 20
41.0862701682
 30
0.0
 11
67.6840470692
 21
41.0862701682
 31
0.0
  0
LINE
  5
246
330
1F
100
AcDbEntity
  8
PROFILES_OUTSIDE
100
AcDbLine
 10
60.7225315245
 20
39.5902071761
 30
0.0
 11
60.7225315245
 21
40.6138292233
 31
0.0
  0
LINE
  5
247
330
1F
100
AcDbEntity
  8
PROFILES_OUTSIDE
100
AcDbLine
 10
67.6840470692
 20
39.1177662312
 30
0.0
 11
61.1949724694
 21
39.1177662312
 31
0.0
  0
LINE
  5
248
330
1F
100
AcDbEntity
  8
PROFILES_INSIDE
100
AcDbLine
 10
47.5924170778
 20
25.883516364
 30
0.0
 11
47.6776375689
 21
26.3668257857
 31
0.0
  0
LINE
  5
249
330
1F
100
AcDbEntity
  8
PROFILES_INSIDE
100
AcDbLine
 10
47.0057076927
 20
25.848555911
 30
0.0
 11
47.1624874268
 21
25.8209115186
 31
0.0
  0
LINE
  5
24A
330
1F
100
AcDbEntity
  8
PROFILES_INSIDE
100
AcDbLine
 10
46.7083385994
 20
26.537739583
 30
0.0
 11
46.6231180678
 21
26.0544296952
 31
0.0
  0
LINE
  5
24B
330
1F
100
AcDbEntity
  8
PROFILES_INSIDE
100
AcDbLine
 10
47.2950479845
 20
26.5726997994
 30
0.0
 11
47.1382682435
 21
26.6003441531
 31
0.0
  0
LINE
  5
24C
330
1F
100
AcDbEntity
  8
PROFILES_INSIDE
100
AcDbLine
 10
28.0389860756
 20
29.3313138151
 30
0.0
 11
28.1242065666
 21
29.8146232368
 31
0.0
  0
LINE
  5
24D
330
1F
100
AcDbEntity
  8
PROFILES_INSIDE
100
AcDbLine
 10
27.7416169823
 20
30.0204972505
 30
0.0
 11
27.5848372456
 21
30.0481416288
 31
0.0
  0
LINE
  5
24E
330
1F
100
AcDbEntity
  8
PROFILES_INSIDE
100
AcDbLine
 10
27.1549075936
 20
29.9855370347
 30
0.0
 11
27.0696870656
 21
29.5022271463
 31
0.0
  0
LINE
  5
24F
330
1F
100
AcDbEntity
  8
PROFILES_INSIDE
100
AcDbLine
 10
27.4522766904
 20
29.2963533621
 30
0.0
 11
27.6090564246
 21
29.2687089697
 31
0.0
  0
LINE
  5
250
330
1F
100
AcDbEntity
  8
PROFILES_INSIDE
100
AcDbLine
 10
47.6776375689
 20
5.9530101739
 30
0.0
 11
47.5924170778
 21
6.4363195956
 31
0.0
  0
LINE
  5
251
330
1F
100
AcDbEntity
  8
PROFILES_INSIDE
100
AcDbLine
 10
47.1624874089
 20
6.4989245426
 30
0.0
 11
47.0057077112
 21
6.4712799435
 31
0.0
  0
LINE
  5
252
330
1F
100
AcDbEntity
  8
PROFILES_INSIDE
100
AcDbLine
 10
46.6231180204
 20
6.2654062561
 30
0.0
 11
46.7083386398
 21
5.7820963837
 31
0.0
  0
LINE
  5
253
330
1F
100
AcDbEntity
  8
PROFILES_INSIDE
100
AcDbLine
 10
47.1382682683
 20
5.7194916662
 30
0.0
 11
47.2950479666
 21
5.7471362619
 31
0.0
  0
LINE
  5
254
330
1F
100
AcDbEntity
  8
PROFILES_OUTSIDE
100
AcDbLine
 10
68.1564880141
 20
33.999655995
 30
0.0
 11
68.1564880141
 21
38.6453252863
 31
0.0
  0
LINE
  5
255
330
1F
100
AcDbEntity
  8
PROFILES_OUTSIDE
100
AcDbLine
 10
68.0768101259
 20
33.999655995
 30
0.0
 11
68.1564880141
 21
33.999655995
 31
0.0
  0
LINE
  5
256
330
1F
100
AcDbEntity
  8
PROFILES_OUTSIDE
100
AcDbLine
 10
67.6642832897
 20
33.2732011094
 30
0.0
 11
67.6642832897
 21
33.8633458224
 31
0.0
  0
LINE
  5
257
330
1F
100
AcDbEntity
  8
PROFILES_OUTSIDE
100
AcDbLine
 10
67.9103462818
 20
33.2205221367
 30
0.0
 11
67.7011388279
 21
33.2339114138
 31
0.0
  0
LINE
  5
258
330
1F
100
AcDbEntity
  8
PROFILES_OUTSIDE
100
AcDbLine
 10
67.9103462818
 20
33.0547741052
 30
0.0
 11
67.9103462818
 21
33.2205221367
 31
0.0
  0
LINE
  5
259
330
1F
100
AcDbEntity
  8
PROFILES_INSIDE
100
AcDbLine
 10
27.0696870251
 20
2.8176088062
 30
0.0
 11
27.1549076376
 21
2.3342989326
 31
0.0
  0
LINE
  5
25A
330
1F
100
AcDbEntity
  8
PROFILES_INSIDE
100
AcDbLine
 10
27.584837266
 20
2.2716942151
 30
0.0
 11
27.7416169643
 21
2.2993388108
 31
0.0
  0
LINE
  5
25B
330
1F
100
AcDbEntity
  8
PROFILES_INSIDE
100
AcDbLine
 10
28.1242065666
 20
2.5052127228
 30
0.0
 11
28.0389860756
 21
2.9885221445
 31
0.0
  0
LINE
  5
25C
330
1F
100
AcDbEntity
  8
PROFILES_INSIDE
100
AcDbLine
 10
27.6090564067
 20
3.0511270915
 30
0.0
 11
27.4522767083
 21
3.0234824958
 31
0.0
  0
LINE
  5
25D
330
1F
100
AcDbEntity
  8
PROFILES_OUTSIDE
100
AcDbLine
 10
25.4519007901
 20
30.7355845668
 30
0.0
 11
25.4519007901
 21
1.5842513927
 31
0.0
  0
LINE
  5
25E
330
1F
100
AcDbEntity
  8
PROFILES_OUTSIDE
100
AcDbLine
 10
48.4476444542
 20
26.9623311141
 30
0.0
 11
25.7291405172
 21
30.9682163195
 31
0.0
  0
LINE
  5
25F
330
1F
100
AcDbEntity
  8
PROFILES_OUTSIDE
100
AcDbLine
 10
48.642845672
 20
23.9765180848
 30
0.0
 11
48.642845672
 21
26.7296993614
 31
0.0
  0
LINE
  5
260
330
1F
100
AcDbEntity
  8
PROFILES_OUTSIDE
100
AcDbLine
 10
48.0506453151
 20
23.6738846726
 30
0.0
 11
48.4476444542
 21
23.7438863321
 31
0.0
  0
LINE
  5
261
330
1F
100
AcDbEntity
  8
POCKETS
100
AcDbLine
 10
24.6111083408
 20
7.5985977044
 30
0.0
 11
24.223388753
 21
7.5302322801
 31
0.0
  0
LINE
  5
262
330
1F
100
AcDbEntity
  8
PROFILES_OUTSIDE
100
AcDbLine
 10
67.4083777779
 20
33.0154040265
 30
0.0
 11
67.8709762031
 21
33.0154040265
 31
0.0
  0
LINE
  5
263
330
1F
100
AcDbEntity
  8
PROFILES_OUTSIDE
100
AcDbLine
 10
67.1721573055
 20
37.8953252863
 30
0.0
 11
67.1721573055
 21
33.2516244989
 31
0.0
  0
LINE
  5
264
330
1F
100
AcDbEntity
  8
PROFILES_OUTSIDE
100
AcDbLine
 10
60.7225315245
 20
38.3677662312
 30
0.0
 11
66.6997163606
 21
38.3677662312
 31
0.0
  0
LINE
  5
265
330
1F
100
AcDbEntity
  8
PROFILES_OUTSIDE
100
AcDbLine
 10
55.0600540854
 20
39.1177662312
 30
0.0
 11
59.4234934188
 21
39.1177662312
 31
0.0
  0
LINE
  5
266
330
1F
100
AcDbEntity
  8
PROFILES_OUTSIDE
100
AcDbLine
 10
47.7838311436
 20
38.3677662312
 30
0.0
 11
53.7610159797
 21
38.3677662312
 31
0.0
  0
LINE
  5
267
330
1F
100
AcDbEntity
  8
PROFILES_OUTSIDE
100
AcDbLine
 10
47.3113901987
 20
33.2516244989
 30
0.0
 11
47.3113901987
 21
37.8953252863
 31
0.0
  0
LINE
  5
268
330
1F
100
AcDbEntity
  8
PROFILES_OUTSIDE
100
AcDbLine
 10
46.6125713011
 20
33.0154040265
 30
0.0
 11
47.0751697263
 21
33.0154040265
 31
0.0
  0
LINE
  5
269
330
1F
100
AcDbEntity
  8
PROFILES_OUTSIDE
100
AcDbLine
 10
46.5732012223
 20
33.2205221367
 30
0.0
 11
46.5732012223
 21
33.0547741052
 31
0.0
  0
LINE
  5
26A
330
1F
100
AcDbEntity
  8
PROFILES_OUTSIDE
100
AcDbLine
 10
46.7824086763
 20
33.2339114138
 30
0.0
 11
46.5732012223
 21
33.2205221367
 31
0.0
  0
LINE
  5
26B
330
1F
100
AcDbEntity
  8
PROFILES_OUTSIDE
100
AcDbLine
 10
46.8192642145
 20
33.8633458224
 30
0.0
 11
46.8192642145
 21
33.2732011094
 31
0.0
  0
LINE
  5
26C
330
1F
100
AcDbEntity
  8
PROFILES_OUTSIDE
100
AcDbLine
 10
46.3270594901
 20
33.999655995
 30
0.0
 11
46.4067373783
 21
33.999655995
 31
0.0
  0
LINE
  5
26D
330
1F
100
AcDbEntity
  8
PROFILES_OUTSIDE
100
AcDbLine
 10
46.3270594901
 20
38.6453252863
 30
0.0
 11
46.3270594901
 21
33.999655995
 31
0.0
  0
LINE
  5
26E
330
1F
100
AcDbEntity
  8
PROFILES_OUTSIDE
100
AcDbLine
 10
53.2885750348
 20
39.1177662312
 30
0.0
 11
46.7995004349
 21
39.1177662312
 31
0.0
  0
LINE
  5
26F
330
1F
100
AcDbEntity
  8
PROFILES_OUTSIDE
100
AcDbLine
 10
53.7610159797
 20
40.6138292233
 30
0.0
 11
53.7610159797
 21
39.5902071761
 31
0.0
  0
LINE
  5
270
330
1F
100
AcDbEntity
  8
PROFILES_OUTSIDE
100
AcDbLine
 10
46.7995004349
 20
41.0862701682
 30
0.0
 11
53.2885750348
 21
41.0862701682
 31
0.0
  0
LINE
  5
271
330
1F
100
AcDbEntity
  8
PROFILES_OUTSIDE
100
AcDbLine
 10
46.3270594901
 20
46.2043804044
 30
0.0
 11
46.3270594901
 21
41.5587111131
 31
0.0
  0
LINE
  5
272
330
1F
100
AcDbEntity
  8
PROFILES_OUTSIDE
100
AcDbLine
 10
47.8554440972
 20
8.8785830397
 30
0.0
 11
47.8554440972
 21
23.4412529199
 31
0.0
  0
LINE
  5
273
330
1F
100
AcDbEntity
  8
POCKETS
100
AcDbLine
 10
24.7459933229
 20
6.8336269576
 30
0.0
 11
24.6111083408
 21
7.5985977044
 31
0.0
  0
LINE
  5
274
330
1F
100
AcDbEntity
  8
PROFILES_OUTSIDE
100
AcDbLine
 10
48.4476444542
 20
8.5759496275
 30
0.0
 11
48.0506453151
 21
8.645951287
 31
0.0
  0
LINE
  5
275
330
1F
100
AcDbEntity
  8
POCKETS
100
AcDbLine
 10
24.3582737351
 20
6.7652615333
 30
0.0
 11
24.7459933229
 21
6.8336269576
 31
0.0
  0
LINE
  5
276
330
1F
100
AcDbEntity
  8
POCKETS
100
AcDbLine
 10
1.010727788
 20
2.6484592495
 30
0.0
 11
24.3582737351
 21
6.7652615333
 31
0.0
  0
LINE
  5
277
330
1F
100
AcDbEntity
  8
POCKETS
100
AcDbLine
 10
0.6230082002
 20
2.5800938253
 30
0.0
 11
1.010727788
 21
2.6484592495
 31
0.0
  0
LINE
  5
278
330
1F
100
AcDbEntity
  8
POCKETS
100
AcDbLine
 10
0.4881232181
 20
3.345064572
 30
0.0
 11
0.6230082002
 21
2.5800938253
 31
0.0
  0
LINE
  5
279
330
1F
100
AcDbEntity
  8
POCKETS
100
AcDbLine
 10
0.8758428059
 20
3.4134299963
 30
0.0
 11
0.4881232181
 21
3.345064572
 31
0.0
  0
LINE
  5
27A
330
1F
100
AcDbEntity
  8
POCKETS
100
AcDbLine
 10
21.874341735
 20
7.1160319119
 30
0.0
 11
0.8758428059
 21
3.4134299963
 31
0.0
  0
LINE
  5
27B
330
1F
100
AcDbEntity
  8
POCKETS
100
AcDbLine
 10
21.874341735
 20
25.2038040477
 30
0.0
 11
21.874341735
 21
7.1160319119
 31
0.0
  0
LINE
  5
27C
330
1F
100
AcDbEntity
  8
POCKETS
100
AcDbLine
 10
0.8758428059
 20
28.9064059633
 30
0.0
 11
21.874341735
 21
25.2038040477
 31
0.0
  0
LINE
  5
27D
330
1F
100
AcDbEntity
  8
POCKETS
100
AcDbLine
 10
0.4881232181
 20
28.9747713876
 30
0.0
 11
0.8758428059
 21
28.9064059633
 31
0.0
  0
LINE
  5
27E
330
1F
100
AcDbEntity
  8
POCKETS
100
AcDbLine
 10
0.6230082002
 20
29.7397421343
 30
0.0
 11
0.4881232181
 21
28.9747713876
 31
0.0
  0
LINE
  5
27F
330
1F
100
AcDbEntity
  8
POCKETS
100
AcDbLine
 10
1.010727788
 20
29.67137671
 30
0.0
 11
0.6230082002
 21
29.7397421343
 31
0.0
  0
LINE
  5
280
330
1F
100
AcDbEntity
  8
POCKETS
100
AcDbLine
 10
24.3582737351
 20
25.5545744262
 30
0.0
 11
1.010727788
 21
29.67137671
 31
0.0
  0
LINE
  5
281
330
1F
100
AcDbEntity
  8
POCKETS
100
AcDbLine
 10
24.7459933229
 20
25.486209002
 30
0.0
 11
24.3582737351
 21
25.5545744262
 31
0.0
  0
LINE
  5
282
330
1F
100
AcDbEntity
  8
POCKETS
100
AcDbLine
 10
24.6111083408
 20
24.7212382552
 30
0.0
 11
24.7459933229
 21
25.486209002
 31
0.0
  0
LINE
  5
283
330
1F
100
AcDbEntity
  8
POCKETS
100
AcDbLine
 10
24.223388753
 20
24.7896036795
 30
0.0
 11
24.6111083408
 21
24.7212382552
 31
0.0
  0
LINE
  5
284
330
1F
100
AcDbEntity
  8
POCKETS
100
AcDbLine
 10
22.6377275618
 20
25.0691985298
 30
0.0
 11
24.223388753
 21
24.7896036795
 31
0.0
  0
LINE
  5
285
330
1F
100
AcDbEntity
  8
PROFILES_OUTSIDE
100
AcDbLine
 10
46.4067373783
 20
46.2043804044
 30
0.0
 11
46.3270594901
 21
46.2043804044
 31
0.0
  0
LINE
  5
286
330
1F
100
AcDbEntity
  8
PROFILES_OUTSIDE
100
AcDbLine
 10
46.8192642145
 20
46.93083529
 30
0.0
 11
46.8192642145
 21
46.340690577
 31
0.0
  0
LINE
  5
287
330
1F
100
AcDbEntity
  8
PROFILES_OUTSIDE
100
AcDbLine
 10
46.5732012223
 20
46.9835142627
 30
0.0
 11
46.7824086763
 21
46.9701249857
 31
0.0
  0
LINE
  5
288
330
1F
100
AcDbEntity
  8
PROFILES_OUTSIDE
100
AcDbLine
 10
46.5732012223
 20
47.1492622942
 30
0.0
 11
46.5732012223
 21
46.9835142627
 31
0.0
  0
LINE
  5
289
330
1F
100
AcDbEntity
  8
PROFILES_OUTSIDE
100
AcDbLine
 10
47.0751697263
 20
47.1886323729
 30
0.0
 11
46.6125713011
 21
47.1886323729
 31
0.0
  0
LINE
  5
28A
330
1F
100
AcDbEntity
  8
PROFILES_OUTSIDE
100
AcDbLine
 10
47.3113901987
 20
42.3087111131
 30
0.0
 11
47.3113901987
 21
46.9524119005
 31
0.0
  0
LINE
  5
28B
330
1F
100
AcDbEntity
  8
PROFILES_OUTSIDE
100
AcDbLine
 10
53.7610159797
 20
41.8362701682
 30
0.0
 11
47.7838311436
 21
41.8362701682
 31
0.0
  0
LINE
  5
28C
330
1F
100
AcDbEntity
  8
PROFILES_OUTSIDE
100
AcDbLine
 10
59.4234934188
 20
41.0862701682
 30
0.0
 11
55.0600540854
 21
41.0862701682
 31
0.0
  0
LINE
  5
28D
330
1F
100
AcDbEntity
  8
PROFILES_OUTSIDE
100
AcDbLine
 10
66.6997163606
 20
41.8362701682
 30
0.0
 11
60.7225315245
 21
41.8362701682
 31
0.0
  0
LINE
  5
28E
330
1F
100
AcDbEntity
  8
PROFILES_OUTSIDE
100
AcDbLine
 10
67.1721573055
 20
46.9524119005
 30
0.0
 11
67.1721573055
 21
42.3087111131
 31
0.0
  0
LINE
  5
28F
330
1F
100
AcDbEntity
  8
PROFILES_OUTSIDE
100
AcDbLine
 10
67.8709762031
 20
47.1886323729
 30
0.0
 11
67.4083777779
 21
47.1886323729
 31
0.0
  0
LINE
  5
290
330
1F
100
AcDbEntity
  8
POCKETS
100
AcDbLine
 10
22.6377275618
 20
7.2506374298
 30
0.0
 11
22.6377275618
 21
25.0691985298
 31
0.0
  0
LINE
  5
291
330
1F
100
AcDbEntity
  8
PROFILES_OUTSIDE
100
AcDbLine
 10
69.6418423448
 20
33.2205221367
 30
0.0
 11
69.6418423448
 21
33.0547741052
 31
0.0
  0
LINE
  5
292
330
1F
100
AcDbEntity
  8
PROFILES_OUTSIDE
100
AcDbLine
 10
69.8510497987
 20
33.2339114138
 30
0.0
 11
69.6418423448
 21
33.2205221367
 31
0.0
  0
LINE
  5
293
330
1F
100
AcDbEntity
  8
PROFILES_OUTSIDE
100
AcDbLine
 10
69.887905337
 20
33.8633458224
 30
0.0
 11
69.887905337
 21
33.2732011094
 31
0.0
  0
LINE
  5
294
330
1F
100
AcDbEntity
  8
PROFILES_OUTSIDE
100
AcDbLine
 10
69.3957006125
 20
33.999655995
 30
0.0
 11
69.4753785007
 21
33.999655995
 31
0.0
  0
LINE
  5
295
330
1F
100
AcDbEntity
  8
PROFILES_OUTSIDE
100
AcDbLine
 10
69.3957006125
 20
38.6453252863
 30
0.0
 11
69.3957006125
 21
33.999655995
 31
0.0
  0
LINE
  5
296
330
1F
100
AcDbEntity
  8
PROFILES_OUTSIDE
100
AcDbLine
 10
76.3572161573
 20
39.1177662312
 30
0.0
 11
69.8681415574
 21
39.1177662312
 31
0.0
  0
LINE
  5
297
330
1F
100
AcDbEntity
  8
PROFILES_OUTSIDE
100
AcDbLine
 10
76.8296571022
 20
40.6138292233
 30
0.0
 11
76.8296571022
 21
39.5902071761
 31
0.0
  0
LINE
  5
298
330
1F
100
AcDbEntity
  8
PROFILES_OUTSIDE
100
AcDbLine
 10
69.8681415574
 20
41.0862701682
 30
0.0
 11
76.3572161573
 21
41.0862701682
 31
0.0
  0
LINE
  5
299
330
1F
100
AcDbEntity
  8
PROFILES_OUTSIDE
100
AcDbLine
 10
69.3957006125
 20
46.2043804044
 30
0.0
 11
69.3957006125
 21
41.5587111131
 31
0.0
  0
LINE
  5
29A
330
1F
100
AcDbEntity
  8
PROFILES_OUTSIDE
100
AcDbLine
 10
69.4753785007
 20
46.2043804044
 30
0.0
 11
69.3957006125
 21
46.2043804044
 31
0.0
  0
LINE
  5
29B
330
1F
100
AcDbEntity
  8
PROFILES_OUTSIDE
100
AcDbLine
 10
69.887905337
 20
46.93083529
 30
0.0
 11
69.887905337
 21
46.340690577
 31
0.0
  0
LINE
  5
29C
330
1F
100
AcDbEntity
  8
PROFILES_OUTSIDE
100
AcDbLine
 10
69.6418423448
 20
46.9835142627
 30
0.0
 11
69.8510497987
 21
46.9701249857
 31
0.0
  0
LINE
  5
29D
330
1F
100
AcDbEntity
  8
PROFILES_OUTSIDE
100
AcDbLine
 10
69.6418423448
 20
47.1492622942
 30
0.0
 11
69.6418423448
 21
46.9835142627
 31
0.0
  0
LINE
  5
29E
330
1F
100
AcDbEntity
  8
PROFILES_OUTSIDE
100
AcDbLine
 10
70.1438108488
 20
47.1886323729
 30
0.0
 11
69.6812124236
 21
47.1886323729
 31
0.0
  0
LINE
  5
29F
330
1F
100
AcDbEntity
  8
PROFILES_OUTSIDE
100
AcDbLine
 10
70.3800313212
 20
42.3087111131
 30
0.0
 11
70.3800313212
 21
46.9524119005
 31
0.0
  0
LINE
  5
2A0
330
1F
100
AcDbEntity
  8
PROFILES_OUTSIDE
100
AcDbLine
 10
76.8296571022
 20
41.8362701682
 30
0.0
 11
70.8524722661
 21
41.8362701682
 31
0.0
  0
LINE
  5
2A1
330
1F
100
AcDbEntity
  8
PROFILES_OUTSIDE
100
AcDbLine
 10
82.4921345413
 20
41.0862701682
 30
0.0
 11
78.1286952079
 21
41.0862701682
 31
0.0
  0
LINE
  5
2A2
330
1F
100
AcDbEntity
  8
PROFILES_OUTSIDE
100
AcDbLine
 10
89.7683574831
 20
41.8362701682
 30
0.0
 11
83.791172647
 21
41.8362701682
 31
0.0
  0
LINE
  5
2A3
330
1F
100
AcDbEntity
  8
PROFILES_OUTSIDE
100
AcDbLine
 10
90.2407984279
 20
46.9524119005
 30
0.0
 11
90.2407984279
 21
42.3087111131
 31
0.0
  0
LINE
  5
2A4
330
1F
100
AcDbEntity
  8
PROFILES_OUTSIDE
100
AcDbLine
 10
90.9396173256
 20
47.1886323729
 30
0.0
 11
90.4770189004
 21
47.1886323729
 31
0.0
  0
LINE
  5
2A5
330
1F
100
AcDbEntity
  8
PROFILES_OUTSIDE
100
AcDbLine
 10
90.9789874043
 20
46.9835142627
 30
0.0
 11
90.9789874043
 21
47.1492622942
 31
0.0
  0
LINE
  5
2A6
330
1F
100
AcDbEntity
  8
PROFILES_OUTSIDE
100
AcDbLine
 10
90.7697799504
 20
46.9701249857
 30
0.0
 11
90.9789874043
 21
46.9835142627
 31
0.0
  0
LINE
  5
2A7
330
1F
100
AcDbEntity
  8
PROFILES_OUTSIDE
100
AcDbLine
 10
90.7329244122
 20
46.340690577
 30
0.0
 11
90.7329244122
 21
46.93083529
 31
0.0
  0
LINE
  5
2A8
330
1F
100
AcDbEntity
  8
PROFILES_OUTSIDE
100
AcDbLine
 10
91.2251291366
 20
46.2043804044
 30
0.0
 11
91.1454512484
 21
46.2043804044
 31
0.0
  0
LINE
  5
2A9
330
1F
100
AcDbEntity
  8
PROFILES_OUTSIDE
100
AcDbLine
 10
91.2251291366
 20
41.5587111131
 30
0.0
 11
91.2251291366
 21
46.2043804044
 31
0.0
  0
LINE
  5
2AA
330
1F
100
AcDbEntity
  8
PROFILES_OUTSIDE
100
AcDbLine
 10
84.2636135918
 20
41.0862701682
 30
0.0
 11
90.7526881917
 21
41.0862701682
 31
0.0
  0
LINE
  5
2AB
330
1F
100
AcDbEntity
  8
PROFILES_OUTSIDE
100
AcDbLine
 10
83.791172647
 20
39.5902071761
 30
0.0
 11
83.791172647
 21
40.6138292233
 31
0.0
  0
LINE
  5
2AC
330
1F
100
AcDbEntity
  8
PROFILES_OUTSIDE
100
AcDbLine
 10
90.7526881917
 20
39.1177662312
 30
0.0
 11
84.2636135918
 21
39.1177662312
 31
0.0
  0
LINE
  5
2AD
330
1F
100
AcDbEntity
  8
PROFILES_OUTSIDE
100
AcDbLine
 10
91.2251291366
 20
33.999655995
 30
0.0
 11
91.2251291366
 21
38.6453252863
 31
0.0
  0
LINE
  5
2AE
330
1F
100
AcDbEntity
  8
PROFILES_OUTSIDE
100
AcDbLine
 10
91.1454512484
 20
33.999655995
 30
0.0
 11
91.2251291366
 21
33.999655995
 31
0.0
  0
LINE
  5
2AF
330
1F
100
AcDbEntity
  8
PROFILES_OUTSIDE
100
AcDbLine
 10
90.7329244122
 20
33.2732011094
 30
0.0
 11
90.7329244122
 21
33.8633458224
 31
0.0
  0
LINE
  5
2B0
330
1F
100
AcDbEntity
  8
PROFILES_OUTSIDE
100
AcDbLine
 10
90.9789874043
 20
33.2205221367
 30
0.0
 11
90.7697799504
 21
33.2339114138
 31
0.0
  0
LINE
  5
2B1
330
1F
100
AcDbEntity
  8
PROFILES_OUTSIDE
100
AcDbLine
 10
90.9789874043
 20
33.0547741052
 30
0.0
 11
90.9789874043
 21
33.2205221367
 31
0.0
  0
LINE
  5
2B2
330
1F
100
AcDbEntity
  8
PROFILES_OUTSIDE
100
AcDbLine
 10
90.4770189004
 20
33.0154040265
 30
0.0
 11
90.9396173256
 21
33.0154040265
 31
0.0
  0
LINE
  5
2B3
330
1F
100
AcDbEntity
  8
PROFILES_OUTSIDE
100
AcDbLine
 10
90.2407984279
 20
37.8953252863
 30
0.0
 11
90.2407984279
 21
33.2516244989
 31
0.0
  0
LINE
  5
2B4
330
1F
100
AcDbEntity
  8
PROFILES_OUTSIDE
100
AcDbLine
 10
83.791172647
 20
38.3677662312
 30
0.0
 11
89.7683574831
 21
38.3677662312
 31
0.0
  0
LINE
  5
2B5
330
1F
100
AcDbEntity
  8
PROFILES_OUTSIDE
100
AcDbLine
 10
78.1286952079
 20
39.1177662312
 30
0.0
 11
82.4921345413
 21
39.1177662312
 31
0.0
  0
LINE
  5
2B6
330
1F
100
AcDbEntity
  8
PROFILES_OUTSIDE
100
AcDbLine
 10
70.8524722661
 20
38.3677662312
 30
0.0
 11
76.8296571022
 21
38.3677662312
 31
0.0
  0
LINE
  5
2B7
330
1F
100
AcDbEntity
  8
PROFILES_OUTSIDE
100
AcDbLine
 10
70.3800313212
 20
33.2516244989
 30
0.0
 11
70.3800313212
 21
37.8953252863
 31
0.0
  0
LINE
  5
2B8
330
1F
100
AcDbEntity
  8
PROFILES_OUTSIDE
100
AcDbLine
 10
69.6812124236
 20
33.0154040265
 30
0.0
 11
70.1438108488
 21
33.0154040265
 31
0.0
  0
LINE
  5
2B9
330
1F
100
AcDbEntity
  8
POCKETS
100
AcDbLine
 10
24.223388753
 20
7.5302322801
 30
0.0
 11
22.6377275618
 21
7.2506374298
 31
0.0
  0
LINE
  5
2BA
330
1F
100
AcDbEntity
  8
POCKETS
100
AcDbLine
 10
47.0680425224
 20
25.0691985298
 30
0.0
 11
48.6537037136
 21
24.7896036795
 31
0.0
  0
LINE
  5
2BB
330
1F
100
AcDbEntity
  8
POCKETS
100
AcDbLine
 10
48.6537037136
 20
24.7896036795
 30
0.0
 11
49.0414233014
 21
24.7212382552
 31
0.0
  0
LINE
  5
2BC
330
1F
100
AcDbEntity
  8
POCKETS
100
AcDbLine
 10
49.0414233014
 20
24.7212382552
 30
0.0
 11
49.1763082835
 21
25.486209002
 31
0.0
  0
LINE
  5
2BD
330
1F
100
AcDbEntity
  8
POCKETS
100
AcDbLine
 10
49.1763082835
 20
25.486209002
 30
0.0
 11
48.7885886957
 21
25.5545744262
 31
0.0
  0
LINE
  5
2BE
330
1F
100
AcDbEntity
  8
POCKETS
100
AcDbLine
 10
48.7885886957
 20
25.5545744262
 30
0.0
 11
25.5712788818
 21
29.6484125659
 31
0.0
  0
LINE
  5
2BF
330
1F
100
AcDbEntity
  8
POCKETS
100
AcDbLine
 10
25.5712788818
 20
29.6484125659
 30
0.0
 11
25.183559294
 21
29.7167779902
 31
0.0
  0
LINE
  5
2C0
330
1F
100
AcDbEntity
  8
POCKETS
100
AcDbLine
 10
25.183559294
 20
29.7167779902
 30
0.0
 11
25.0486743119
 21
28.9518072434
 31
0.0
  0
LINE
  5
2C1
330
1F
100
AcDbEntity
  8
POCKETS
100
AcDbLine
 10
25.0486743119
 20
28.9518072434
 30
0.0
 11
25.4363938997
 21
28.8834418192
 31
0.0
  0
LINE
  5
2C2
330
1F
100
AcDbEntity
  8
POCKETS
100
AcDbLine
 10
25.4363938997
 20
28.8834418192
 30
0.0
 11
46.3046566957
 21
25.2038040477
 31
0.0
  0
LINE
  5
2C3
330
1F
100
AcDbEntity
  8
POCKETS
100
AcDbLine
 10
46.3046566957
 20
25.2038040477
 30
0.0
 11
46.3046566957
 21
7.1160319119
 31
0.0
  0
LINE
  5
2C4
330
1F
100
AcDbEntity
  8
POCKETS
100
AcDbLine
 10
46.3046566957
 20
7.1160319119
 30
0.0
 11
25.4363938997
 21
3.4363941404
 31
0.0
  0
LINE
  5
2C5
330
1F
100
AcDbEntity
  8
POCKETS
100
AcDbLine
 10
25.4363938997
 20
3.4363941404
 30
0.0
 11
25.0486743119
 21
3.3680287161
 31
0.0
  0
LINE
  5
2C6
330
1F
100
AcDbEntity
  8
POCKETS
100
AcDbLine
 10
25.0486743119
 20
3.3680287161
 30
0.0
 11
25.183559294
 21
2.6030579694
 31
0.0
  0
LINE
  5
2C7
330
1F
100
AcDbEntity
  8
POCKETS
100
AcDbLine
 10
25.183559294
 20
2.6030579694
 30
0.0
 11
25.5712788818
 21
2.6714233937
 31
0.0
  0
LINE
  5
2C8
330
1F
100
AcDbEntity
  8
POCKETS
100
AcDbLine
 10
25.5712788818
 20
2.6714233937
 30
0.0
 11
48.7885886957
 21
6.7652615333
 31
0.0
  0
LINE
  5
2C9
330
1F
100
AcDbEntity
  8
POCKETS
100
AcDbLine
 10
48.7885886957
 20
6.7652615333
 30
0.0
 11
49.1763082835
 21
6.8336269576
 31
0.0
  0
LINE
  5
2CA
330
1F
100
AcDbEntity
  8
POCKETS
100
AcDbLine
 10
49.1763082835
 20
6.8336269576
 30
0.0
 11
49.0414233014
 21
7.5985977044
 31
0.0
  0
LINE
  5
2CB
330
1F
100
AcDbEntity
  8
POCKETS
100
AcDbLine
 10
49.0414233014
 20
7.5985977044
 30
0.0
 11
48.6537037136
 21
7.5302322801
 31
0.0
  0
LINE
  5
2CC
330
1F
100
AcDbEntity
  8
POCKETS
100
AcDbLine
 10
48.6537037136
 20
7.5302322801
 30
0.0
 11
47.0680425224
 21
7.2506374298
 31
0.0
  0
LINE
  5
2CD
330
1F
100
AcDbEntity
  8
POCKETS
100
AcDbLine
 10
47.0680425224
 20
7.2506374298
 30
0.0
 11
47.0680425224
 21
25.0691985298
 31
0.0
  0
LINE
  5
2CE
330
1F
100
AcDbEntity
  8
PROFILES_OUTSIDE
100
AcDbLine
 10
48.642845672
 20
5.5901365982
 30
0.0
 11
48.642845672
 21
8.3433178748
 31
0.0
  0
LINE
  5
2CF
330
1F
100
AcDbEntity
  8
PROFILES_OUTSIDE
100
AcDbLine
 10
25.7291405172
 20
1.3516196401
 30
0.0
 11
48.4476444542
 21
5.3575048455
 31
0.0
  0
ARC
  5
2D0
330
1F
100
AcDbEntity
  8
PROFILES_OUTSIDE
100
AcDbCircle
 10
23.976310239
 20
8.3433178748
 30
0.0
 40
0.236220472440948
100
AcDbArc
 50
0.0
 51
80.0
  0
ARC
  5
2D1
330
1F
100
AcDbEntity
  8
PROFILES_OUTSIDE
100
AcDbCircle
 10
23.661349609
 20
8.8785830397
 30
0.0
 40
0.2362204724409449
100
AcDbArc
 50
180.0
 51
260.0
  0
ARC
  5
2D2
330
1F
100
AcDbEntity
  8
PROFILES_OUTSIDE
100
AcDbCircle
 10
23.661349609
 20
23.4412529199
 30
0.0
 40
0.236220472440948
100
AcDbArc
 50
100.0
 51
180.0
  0
ARC
  5
2D3
330
1F
100
AcDbEntity
  8
PROFILES_OUTSIDE
100
AcDbCircle
 10
23.976310239
 20
23.9765180848
 30
0.0
 40
0.2362204724409449
100
AcDbArc
 50
280.0
 51
0.0
  0
ARC
  5
2D4
330
1F
100
AcDbEntity
  8
PROFILES_INSIDE
100
AcDbCircle
 10
23.6987511838
 20
16.3410976223
 30
0.0
 40
0.2362204724409449
100
AcDbArc
 50
280.0
 51
0.0
  0
ARC
  5
2D5
330
1F
100
AcDbEntity
  8
PROFILES_OUTSIDE
100
AcDbCircle
 10
67.8709762031
 20
33.0547741052
 30
0.0
 40
0.0393700787401627
100
AcDbArc
 50
270.0
 51
0.0
  0
ARC
  5
2D6
330
1F
100
AcDbEntity
  8
PROFILES_INSIDE
100
AcDbCircle
 10
22.8715695412
 20
26.6114717626
 30
0.0
 40
0.0393700787401541
100
AcDbArc
 50
260.0000371503
 51
332.399540952
  0
ARC
  5
2D7
330
1F
100
AcDbEntity
  8
PROFILES_INSIDE
100
AcDbCircle
 10
23.0868393515
 20
26.4989292293
 30
0.0
 40
0.203543307086616
100
AcDbArc
 50
325.11217169
 51
152.399540952
  0
ARC
  5
2D8
330
1F
100
AcDbEntity
  8
PROFILES_INSIDE
100
AcDbCircle
 10
23.2860956071
 20
26.3599890598
 30
0.0
 40
0.0393711348432817
100
AcDbArc
 50
145.11217169
 51
170.0
  0
ARC
  5
2D9
330
1F
100
AcDbEntity
  8
PROFILES_INSIDE
100
AcDbCircle
 10
23.200874076
 20
25.8766798215
 30
0.0
 40
0.0393700787401599
100
AcDbArc
 50
170.0
 51
194.8879007739
  0
ARC
  5
2DA
330
1F
100
AcDbEntity
  8
PROFILES_INSIDE
100
AcDbCircle
 10
22.9661152058
 20
25.8142683971
 30
0.0
 40
0.2035433070866154
100
AcDbArc
 50
187.6004745238
 51
14.8879007739
  0
ARC
  5
2DB
330
1F
100
AcDbEntity
  8
PROFILES_INSIDE
100
AcDbCircle
 10
22.7253359489
 20
25.7821395554
 30
0.0
 40
0.0393700787401591
100
AcDbArc
 50
7.6004745237
 51
80.0000371503
  0
ARC
  5
2DC
330
1F
100
AcDbEntity
  8
PROFILES_INSIDE
100
AcDbCircle
 10
22.5685562147
 20
25.8097839478
 30
0.0
 40
0.0393700787401605
100
AcDbArc
 50
80.0000371503
 51
152.399540952
  0
ARC
  5
2DD
330
1F
100
AcDbEntity
  8
PROFILES_INSIDE
100
AcDbCircle
 10
22.3532864045
 20
25.922326481
 30
0.0
 40
0.2035433070866148
100
AcDbArc
 50
145.1121167212
 51
332.399540952
  0
ARC
  5
2DE
330
1F
100
AcDbEntity
  8
PROFILES_INSIDE
100
AcDbCircle
 10
22.1540311484
 20
26.0612662376
 30
0.0
 40
0.0393700787401592
100
AcDbArc
 50
325.1121167212
 51
350.0
  0
ARC
  5
2DF
330
1F
100
AcDbEntity
  8
PROFILES_INSIDE
100
AcDbCircle
 10
22.2392517204
 20
26.5445761183
 30
0.0
 40
0.0393700376495612
100
AcDbArc
 50
350.0
 51
14.8878509098
  0
ARC
  5
2E0
330
1F
100
AcDbEntity
  8
PROFILES_INSIDE
100
AcDbCircle
 10
22.4740105501
 20
26.6069873132
 30
0.0
 40
0.2035432679084948
100
AcDbArc
 50
7.6004745238
 51
194.8878509098
  0
ARC
  5
2E1
330
1F
100
AcDbEntity
  8
PROFILES_INSIDE
100
AcDbCircle
 10
22.714789807
 20
26.6391161549
 30
0.0
 40
0.0393701179182835
100
AcDbArc
 50
187.6004745238
 51
260.0000371503
  0
ARC
  5
2E2
330
1F
100
AcDbEntity
  8
PROFILES_INSIDE
100
AcDbCircle
 10
3.7270581796
 20
29.808775075
 30
0.0
 40
0.0393711348432808
100
AcDbArc
 50
145.11217169
 51
170.0
  0
ARC
  5
2E3
330
1F
100
AcDbEntity
  8
PROFILES_INSIDE
100
AcDbCircle
 10
3.527801924
 20
29.9477152445
 30
0.0
 40
0.2035433070866146
100
AcDbArc
 50
325.11217169
 51
152.399540952
  0
ARC
  5
2E4
330
1F
100
AcDbEntity
  8
PROFILES_INSIDE
100
AcDbCircle
 10
3.3125321137
 20
30.0602577777
 30
0.0
 40
0.0393700787401597
100
AcDbArc
 50
260.0000371503
 51
332.399540952
  0
ARC
  5
2E5
330
1F
100
AcDbEntity
  8
PROFILES_INSIDE
100
AcDbCircle
 10
3.1557523795
 20
30.0879021701
 30
0.0
 40
0.0393701001100383
100
AcDbArc
 50
187.6004745237
 51
260.0000371503
  0
ARC
  5
2E6
330
1F
100
AcDbEntity
  8
PROFILES_INSIDE
100
AcDbCircle
 10
2.9149731226
 20
30.0557733284
 30
0.0
 40
0.2035432857167354
100
AcDbArc
 50
7.6004745238
 51
194.8878509098
  0
ARC
  5
2E7
330
1F
100
AcDbEntity
  8
PROFILES_INSIDE
100
AcDbCircle
 10
2.680214293
 20
29.9933621334
 30
0.0
 40
0.0393700340879164
100
AcDbArc
 50
350.0
 51
14.8878509098
  0
ARC
  5
2E8
330
1F
100
AcDbEntity
  8
PROFILES_INSIDE
100
AcDbCircle
 10
2.5949937209
 20
29.5100522527
 30
0.0
 40
0.0393700787401581
100
AcDbArc
 50
325.1121167212
 51
350.0
  0
ARC
  5
2E9
330
1F
100
AcDbEntity
  8
PROFILES_INSIDE
100
AcDbCircle
 10
2.794248977
 20
29.3711124962
 30
0.0
 40
0.2035433070866158
100
AcDbArc
 50
145.1121167212
 51
332.399540952
  0
ARC
  5
2EA
330
1F
100
AcDbEntity
  8
PROFILES_INSIDE
100
AcDbCircle
 10
3.0095187873
 20
29.2585699629
 30
0.0
 40
0.0393700787401555
100
AcDbArc
 50
80.0000371503
 51
152.399540952
  0
ARC
  5
2EB
330
1F
100
AcDbEntity
  8
PROFILES_INSIDE
100
AcDbCircle
 10
3.1662985214
 20
29.2309255706
 30
0.0
 40
0.0393700787401596
100
AcDbArc
 50
7.6004745238
 51
80.0000371503
  0
ARC
  5
2EC
330
1F
100
AcDbEntity
  8
PROFILES_INSIDE
100
AcDbCircle
 10
3.4070777783
 20
29.2630544122
 30
0.0
 40
0.2035433070866129
100
AcDbArc
 50
187.6004745238
 51
14.8879007739
  0
ARC
  5
2ED
330
1F
100
AcDbEntity
  8
PROFILES_INSIDE
100
AcDbCircle
 10
3.6418366485
 20
29.3254658367
 30
0.0
 40
0.039370078740162
100
AcDbArc
 50
170.0
 51
194.8879007739
  0
ARC
  5
2EE
330
1F
100
AcDbEntity
  8
PROFILES_INSIDE
100
AcDbCircle
 10
23.0868393534
 20
5.8209068989
 30
0.0
 40
0.2035433070866141
100
AcDbArc
 50
207.6004745238
 51
34.8879007739
  0
ARC
  5
2EF
330
1F
100
AcDbEntity
  8
PROFILES_INSIDE
100
AcDbCircle
 10
23.286094567
 20
5.9598467163
 30
0.0
 40
0.0393700787401601
100
AcDbArc
 50
190.0
 51
214.8879007739
  0
ARC
  5
2F0
330
1F
100
AcDbEntity
  8
PROFILES_INSIDE
100
AcDbCircle
 10
23.200875116
 20
6.4431563214
 30
0.0
 40
0.039371134843282
100
AcDbArc
 50
165.11217169
 51
190.0
  0
ARC
  5
2F1
330
1F
100
AcDbEntity
  8
PROFILES_INSIDE
100
AcDbCircle
 10
22.9661151463
 20
6.5055677203
 30
0.0
 40
0.2035433070866181
100
AcDbArc
 50
345.11217169
 51
172.399540952
  0
ARC
  5
2F2
330
1F
100
AcDbEntity
  8
PROFILES_INSIDE
100
AcDbCircle
 10
22.7253358807
 20
6.537696497
 30
0.0
 40
0.0393700787401596
100
AcDbArc
 50
280.0000371503
 51
352.399540952
  0
ARC
  5
2F3
330
1F
100
AcDbEntity
  8
PROFILES_INSIDE
100
AcDbCircle
 10
22.5685561824
 20
6.5100519013
 30
0.0
 40
0.0393700965483953
100
AcDbArc
 50
207.6004745237
 51
280.0000371503
  0
ARC
  5
2F4
330
1F
100
AcDbEntity
  8
PROFILES_INSIDE
100
AcDbCircle
 10
22.3532864025
 20
6.3975093099
 30
0.0
 40
0.2035432892783711
100
AcDbArc
 50
27.6004745238
 51
214.8878509098
  0
ARC
  5
2F5
330
1F
100
AcDbEntity
  8
PROFILES_INSIDE
100
AcDbCircle
 10
22.1540311484
 20
6.258569722
 30
0.0
 40
0.0393700305262613
100
AcDbArc
 50
10.0
 51
34.8878509098
  0
ARC
  5
2F6
330
1F
100
AcDbEntity
  8
PROFILES_INSIDE
100
AcDbCircle
 10
22.2392517204
 20
5.7752598413
 30
0.0
 40
0.0393700787401562
100
AcDbArc
 50
345.1121167212
 51
10.0
  0
ARC
  5
2F7
330
1F
100
AcDbEntity
  8
PROFILES_INSIDE
100
AcDbCircle
 10
22.4740106096
 20
5.7128484885
 30
0.0
 40
0.2035433070866145
100
AcDbArc
 50
165.1121167212
 51
352.399540952
  0
ARC
  5
2F8
330
1F
100
AcDbEntity
  8
PROFILES_INSIDE
100
AcDbCircle
 10
22.7147898752
 20
5.6807197119
 30
0.0
 40
0.0393700787401583
100
AcDbArc
 50
100.0000371503
 51
172.399540952
  0
ARC
  5
2F9
330
1F
100
AcDbEntity
  8
PROFILES_INSIDE
100
AcDbCircle
 10
22.8715695735
 20
5.7083643075
 30
0.0
 40
0.0393700787401587
100
AcDbArc
 50
27.6004745237
 51
100.0000371503
  0
ARC
  5
2FA
330
1F
100
AcDbEntity
  8
PROFILES_INSIDE
100
AcDbCircle
 10
2.680214293
 20
2.3264738261
 30
0.0
 40
0.0393700787401584
100
AcDbArc
 50
345.1121167212
 51
10.0
  0
ARC
  5
2FB
330
1F
100
AcDbEntity
  8
PROFILES_INSIDE
100
AcDbCircle
 10
2.9149731822
 20
2.2640624734
 30
0.0
 40
0.2035433070866169
100
AcDbArc
 50
165.1121167212
 51
352.399540952
  0
ARC
  5
2FC
330
1F
100
AcDbEntity
  8
PROFILES_INSIDE
100
AcDbCircle
 10
3.1557524477
 20
2.2319336967
 30
0.0
 40
0.039370078740153
100
AcDbArc
 50
100.0000371503
 51
172.399540952
  0
ARC
  5
2FD
330
1F
100
AcDbEntity
  8
PROFILES_INSIDE
100
AcDbCircle
 10
3.312532146
 20
2.2595782924
 30
0.0
 40
0.039370078740162
100
AcDbArc
 50
27.6004745238
 51
100.0000371503
  0
ARC
  5
2FE
330
1F
100
AcDbEntity
  8
PROFILES_INSIDE
100
AcDbCircle
 10
3.5278019259
 20
2.3721208838
 30
0.0
 40
0.2035433070866158
100
AcDbArc
 50
207.6004745238
 51
34.8879007739
  0
ARC
  5
2FF
330
1F
100
AcDbEntity
  8
PROFILES_INSIDE
100
AcDbCircle
 10
3.7270571395
 20
2.5110607012
 30
0.0
 40
0.0393700787401559
100
AcDbArc
 50
190.0
 51
214.8879007739
  0
ARC
  5
300
330
1F
100
AcDbEntity
  8
PROFILES_INSIDE
100
AcDbCircle
 10
3.6418376885
 20
2.9943703063
 30
0.0
 40
0.0393711348432816
100
AcDbArc
 50
165.11217169
 51
190.0
  0
ARC
  5
301
330
1F
100
AcDbEntity
  8
PROFILES_INSIDE
100
AcDbCircle
 10
3.4070777188
 20
3.0567817052
 30
0.0
 40
0.2035433070866157
100
AcDbArc
 50
345.11217169
 51
172.399540952
  0
ARC
  5
302
330
1F
100
AcDbEntity
  8
PROFILES_INSIDE
100
AcDbCircle
 10
3.1662984532
 20
3.0889104818
 30
0.0
 40
0.0393700787401586
100
AcDbArc
 50
280.0000371503
 51
352.399540952
  0
ARC
  5
303
330
1F
100
AcDbEntity
  8
PROFILES_INSIDE
100
AcDbCircle
 10
3.0095187549
 20
3.0612658862
 30
0.0
 40
0.0393700823018077
100
AcDbArc
 50
207.6004745238
 51
280.0000371503
  0
ARC
  5
304
330
1F
100
AcDbEntity
  8
PROFILES_INSIDE
100
AcDbCircle
 10
2.794248975
 20
2.9487232948
 30
0.0
 40
0.2035433035249661
100
AcDbArc
 50
27.6004745238
 51
214.8878509098
  0
ARC
  5
305
330
1F
100
AcDbEntity
  8
PROFILES_INSIDE
100
AcDbCircle
 10
2.5949937209
 20
2.8097837069
 30
0.0
 40
0.0393700376495607
100
AcDbArc
 50
10.0
 51
34.8878509098
  0
ARC
  5
306
330
1F
100
AcDbEntity
  8
PROFILES_INSIDE
100
AcDbCircle
 10
47.3018845018
 20
26.6114717626
 30
0.0
 40
0.0393700787401562
100
AcDbArc
 50
260.0000371503
 51
332.399540952
  0
ARC
  5
307
330
1F
100
AcDbEntity
  8
PROFILES_INSIDE
100
AcDbCircle
 10
47.5171543121
 20
26.4989292293
 30
0.0
 40
0.2035433070866151
100
AcDbArc
 50
325.11217169
 51
152.399540952
  0
ARC
  5
308
330
1F
100
AcDbEntity
  8
PROFILES_INSIDE
100
AcDbCircle
 10
47.7164105677
 20
26.3599890598
 30
0.0
 40
0.0393711348432868
100
AcDbArc
 50
145.11217169
 51
170.0
  0
ARC
  5
309
330
1F
100
AcDbEntity
  8
PROFILES_INSIDE
100
AcDbCircle
 10
47.6311890366
 20
25.8766798215
 30
0.0
 40
0.0393700787401556
100
AcDbArc
 50
170.0
 51
194.8879007739
  0
ARC
  5
30A
330
1F
100
AcDbEntity
  8
PROFILES_INSIDE
100
AcDbCircle
 10
47.3964301664
 20
25.8142683971
 30
0.0
 40
0.2035433070866167
100
AcDbArc
 50
187.6004745238
 51
14.8879007739
  0
ARC
  5
30B
330
1F
100
AcDbEntity
  8
PROFILES_INSIDE
100
AcDbCircle
 10
47.1556509096
 20
25.7821395554
 30
0.0
 40
0.0393700787401585
100
AcDbArc
 50
7.6004745238
 51
80.0000371503
  0
ARC
  5
30C
330
1F
100
AcDbEntity
  8
PROFILES_INSIDE
100
AcDbCircle
 10
46.9988711754
 20
25.8097839478
 30
0.0
 40
0.0393700787401589
100
AcDbArc
 50
80.0000371503
 51
152.399540952
  0
ARC
  5
30D
330
1F
100
AcDbEntity
  8
PROFILES_INSIDE
100
AcDbCircle
 10
46.7836013651
 20
25.922326481
 30
0.0
 40
0.2035433070866138
100
AcDbArc
 50
145.1121167212
 51
332.399540952
  0
ARC
  5
30E
330
1F
100
AcDbEntity
  8
PROFILES_INSIDE
100
AcDbCircle
 10
46.5843461091
 20
26.0612662376
 30
0.0
 40
0.0393700787401543
100
AcDbArc
 50
325.1121167212
 51
350.0
  0
ARC
  5
30F
330
1F
100
AcDbEntity
  8
PROFILES_INSIDE
100
AcDbCircle
 10
46.6695666811
 20
26.5445761183
 30
0.0
 40
0.0393700376495624
100
AcDbArc
 50
350.0
 51
14.8878509098
  0
ARC
  5
310
330
1F
100
AcDbEntity
  8
PROFILES_INSIDE
100
AcDbCircle
 10
46.9043255107
 20
26.6069873132
 30
0.0
 40
0.2035432679084903
100
AcDbArc
 50
7.6004745237
 51
194.8878509098
  0
ARC
  5
311
330
1F
100
AcDbEntity
  8
PROFILES_INSIDE
100
AcDbCircle
 10
47.1451047676
 20
26.6391161549
 30
0.0
 40
0.0393701179182825
100
AcDbArc
 50
187.6004745238
 51
260.0000371503
  0
ARC
  5
312
330
1F
100
AcDbEntity
  8
PROFILES_INSIDE
100
AcDbCircle
 10
28.1629795655
 20
29.807786511
 30
0.0
 40
0.0393711348432817
100
AcDbArc
 50
145.11217169
 51
170.0
  0
ARC
  5
313
330
1F
100
AcDbEntity
  8
PROFILES_INSIDE
100
AcDbCircle
 10
27.9637233099
 20
29.9467266804
 30
0.0
 40
0.2035433070866154
100
AcDbArc
 50
325.11217169
 51
152.399540952
  0
ARC
  5
314
330
1F
100
AcDbEntity
  8
PROFILES_INSIDE
100
AcDbCircle
 10
27.7484534996
 20
30.0592692137
 30
0.0
 40
0.0393700787401591
100
AcDbArc
 50
260.0000371503
 51
332.399540952
  0
ARC
  5
315
330
1F
100
AcDbEntity
  8
PROFILES_INSIDE
100
AcDbCircle
 10
27.5916737654
 20
30.086913606
 30
0.0
 40
0.0393701001100476
100
AcDbArc
 50
187.6004745237
 51
260.0000371503
  0
ARC
  5
316
330
1F
100
AcDbEntity
  8
PROFILES_INSIDE
100
AcDbCircle
 10
27.3508945085
 20
30.0547847643
 30
0.0
 40
0.2035432857167288
100
AcDbArc
 50
7.6004745238
 51
194.8878509098
  0
ARC
  5
317
330
1F
100
AcDbEntity
  8
PROFILES_INSIDE
100
AcDbCircle
 10
27.1161356788
 20
29.9923735694
 30
0.0
 40
0.0393700340879155
100
AcDbArc
 50
350.0
 51
14.8878509098
  0
ARC
  5
318
330
1F
100
AcDbEntity
  8
PROFILES_INSIDE
100
AcDbCircle
 10
27.0309151068
 20
29.5090636887
 30
0.0
 40
0.0393700787401602
100
AcDbArc
 50
325.1121167212
 51
350.0
  0
ARC
  5
319
330
1F
100
AcDbEntity
  8
PROFILES_INSIDE
100
AcDbCircle
 10
27.2301703628
 20
29.3701239321
 30
0.0
 40
0.2035433070866177
100
AcDbArc
 50
145.1121167212
 51
332.399540952
  0
ARC
  5
31A
330
1F
100
AcDbEntity
  8
PROFILES_INSIDE
100
AcDbCircle
 10
27.4454401731
 20
29.2575813989
 30
0.0
 40
0.0393700787401556
100
AcDbArc
 50
80.0000371503
 51
152.399540952
  0
ARC
  5
31B
330
1F
100
AcDbEntity
  8
PROFILES_INSIDE
100
AcDbCircle
 10
27.6022199073
 20
29.2299370065
 30
0.0
 40
0.0393700787401585
100
AcDbArc
 50
7.6004745238
 51
80.0000371503
  0
ARC
  5
31C
330
1F
100
AcDbEntity
  8
PROFILES_INSIDE
100
AcDbCircle
 10
27.8429991642
 20
29.2620658482
 30
0.0
 40
0.2035433070866129
100
AcDbArc
 50
187.6004745238
 51
14.8879007739
  0
ARC
  5
31D
330
1F
100
AcDbEntity
  8
PROFILES_INSIDE
100
AcDbCircle
 10
28.0777580343
 20
29.3244772727
 30
0.0
 40
0.0393700787401599
100
AcDbArc
 50
170.0
 51
194.8879007739
  0
ARC
  5
31E
330
1F
100
AcDbEntity
  8
PROFILES_INSIDE
100
AcDbCircle
 10
47.5171543141
 20
5.8209068989
 30
0.0
 40
0.2035433070866203
100
AcDbArc
 50
207.6004745238
 51
34.8879007739
  0
ARC
  5
31F
330
1F
100
AcDbEntity
  8
PROFILES_INSIDE
100
AcDbCircle
 10
47.7164095277
 20
5.9598467163
 30
0.0
 40
0.0393700787401564
100
AcDbArc
 50
190.0
 51
214.8879007739
  0
ARC
  5
320
330
1F
100
AcDbEntity
  8
PROFILES_INSIDE
100
AcDbCircle
 10
47.6311900766
 20
6.4431563214
 30
0.0
 40
0.0393711348432822
100
AcDbArc
 50
165.11217169
 51
190.0
  0
ARC
  5
321
330
1F
100
AcDbEntity
  8
PROFILES_INSIDE
100
AcDbCircle
 10
47.3964301069
 20
6.5055677203
 30
0.0
 40
0.2035433070866149
100
AcDbArc
 50
345.11217169
 51
172.399540952
  0
ARC
  5
322
330
1F
100
AcDbEntity
  8
PROFILES_INSIDE
100
AcDbCircle
 10
47.1556508413
 20
6.537696497
 30
0.0
 40
0.0393700787401626
100
AcDbArc
 50
280.0000371503
 51
352.399540952
  0
ARC
  5
323
330
1F
100
AcDbEntity
  8
PROFILES_INSIDE
100
AcDbCircle
 10
46.998871143
 20
6.5100519013
 30
0.0
 40
0.0393700965483997
100
AcDbArc
 50
207.6004745237
 51
280.0000371503
  0
ARC
  5
324
330
1F
100
AcDbEntity
  8
PROFILES_INSIDE
100
AcDbCircle
 10
46.7836013631
 20
6.3975093099
 30
0.0
 40
0.203543289278368
100
AcDbArc
 50
27.6004745238
 51
214.8878509098
  0
ARC
  5
325
330
1F
100
AcDbEntity
  8
PROFILES_INSIDE
100
AcDbCircle
 10
46.5843461091
 20
6.258569722
 30
0.0
 40
0.0393700305262613
100
AcDbArc
 50
10.0
 51
34.8878509098
  0
ARC
  5
326
330
1F
100
AcDbEntity
  8
PROFILES_INSIDE
100
AcDbCircle
 10
46.6695666811
 20
5.7752598413
 30
0.0
 40
0.0393700787401595
100
AcDbArc
 50
345.1121167212
 51
10.0
  0
ARC
  5
327
330
1F
100
AcDbEntity
  8
PROFILES_INSIDE
100
AcDbCircle
 10
46.9043255703
 20
5.7128484885
 30
0.0
 40
0.2035433070866146
100
AcDbArc
 50
165.1121167212
 51
352.399540952
  0
ARC
  5
328
330
1F
100
AcDbEntity
  8
PROFILES_INSIDE
100
AcDbCircle
 10
47.1451048358
 20
5.6807197119
 30
0.0
 40
0.039370078740156
100
AcDbArc
 50
100.0000371503
 51
172.399540952
  0
ARC
  5
329
330
1F
100
AcDbEntity
  8
PROFILES_INSIDE
100
AcDbCircle
 10
47.3018845342
 20
5.7083643075
 30
0.0
 40
0.0393700787401591
100
AcDbArc
 50
27.6004745237
 51
100.0000371503
  0
ARC
  5
32A
330
1F
100
AcDbEntity
  8
PROFILES_INSIDE
100
AcDbCircle
 10
27.1161356788
 20
2.3274623902
 30
0.0
 40
0.0393700787401562
100
AcDbArc
 50
345.1121167212
 51
10.0
  0
ARC
  5
32B
330
1F
100
AcDbEntity
  8
PROFILES_INSIDE
100
AcDbCircle
 10
27.350894568
 20
2.2650510374
 30
0.0
 40
0.2035433070866148
100
AcDbArc
 50
165.1121167212
 51
352.399540952
  0
ARC
  5
32C
330
1F
100
AcDbEntity
  8
PROFILES_INSIDE
100
AcDbCircle
 10
27.5916738336
 20
2.2329222608
 30
0.0
 40
0.039370078740155
100
AcDbArc
 50
100.0000371503
 51
172.399540952
  0
ARC
  5
32D
330
1F
100
AcDbEntity
  8
PROFILES_INSIDE
100
AcDbCircle
 10
27.7484535319
 20
2.2605668564
 30
0.0
 40
0.0393700787401587
100
AcDbArc
 50
27.6004745237
 51
100.0000371503
  0
ARC
  5
32E
330
1F
100
AcDbEntity
  8
PROFILES_INSIDE
100
AcDbCircle
 10
27.9637233118
 20
2.3731094478
 30
0.0
 40
0.2035433070866144
100
AcDbArc
 50
207.6004745238
 51
34.8879007739
  0
ARC
  5
32F
330
1F
100
AcDbEntity
  8
PROFILES_INSIDE
100
AcDbCircle
 10
28.1629785254
 20
2.5120492652
 30
0.0
 40
0.0393700787401601
100
AcDbArc
 50
190.0
 51
214.8879007739
  0
ARC
  5
330
330
1F
100
AcDbEntity
  8
PROFILES_INSIDE
100
AcDbCircle
 10
28.0777590744
 20
2.9953588703
 30
0.0
 40
0.0393711348432816
100
AcDbArc
 50
165.11217169
 51
190.0
  0
ARC
  5
331
330
1F
100
AcDbEntity
  8
PROFILES_INSIDE
100
AcDbCircle
 10
27.8429991047
 20
3.0577702692
 30
0.0
 40
0.2035433070866148
100
AcDbArc
 50
345.11217169
 51
172.399540952
  0
ARC
  5
332
330
1F
100
AcDbEntity
  8
PROFILES_INSIDE
100
AcDbCircle
 10
27.6022198391
 20
3.0898990459
 30
0.0
 40
0.0393700787401623
100
AcDbArc
 50
280.0000371503
 51
352.399540952
  0
ARC
  5
333
330
1F
100
AcDbEntity
  8
PROFILES_INSIDE
100
AcDbCircle
 10
27.4454401408
 20
3.0622544502
 30
0.0
 40
0.0393700823018048
100
AcDbArc
 50
207.6004745237
 51
280.0000371503
  0
ARC
  5
334
330
1F
100
AcDbEntity
  8
PROFILES_INSIDE
100
AcDbCircle
 10
27.2301703609
 20
2.9497118588
 30
0.0
 40
0.203543303524962
100
AcDbArc
 50
27.6004745238
 51
214.8878509098
  0
ARC
  5
335
330
1F
100
AcDbEntity
  8
PROFILES_INSIDE
100
AcDbCircle
 10
27.0309151068
 20
2.8107722709
 30
0.0
 40
0.0393700376495651
100
AcDbArc
 50
10.0
 51
34.8878509098
  0
ARC
  5
336
330
1F
100
AcDbEntity
  8
PROFILES_OUTSIDE
100
AcDbCircle
 10
25.6881212626
 20
30.7355845668
 30
0.0
 40
0.236220472440948
100
AcDbArc
 50
80.0
 51
180.0
  0
ARC
  5
337
330
1F
100
AcDbEntity
  8
PROFILES_OUTSIDE
100
AcDbCircle
 10
48.4066251996
 20
26.7296993614
 30
0.0
 40
0.2362204724409484
100
AcDbArc
 50
0.0
 51
80.0
  0
ARC
  5
338
330
1F
100
AcDbEntity
  8
PROFILES_OUTSIDE
100
AcDbCircle
 10
48.4066251996
 20
23.9765180848
 30
0.0
 40
0.236220472440948
100
AcDbArc
 50
280.0
 51
0.0
  0
ARC
  5
339
330
1F
100
AcDbEntity
  8
PROFILES_OUTSIDE
100
AcDbCircle
 10
48.0916645697
 20
23.4412529199
 30
0.0
 40
0.236220472440948
100
AcDbArc
 50
100.0
 51
180.0
  0
ARC
  5
33A
330
1F
100
AcDbEntity
  8
PROFILES_OUTSIDE
100
AcDbCircle
 10
48.0916645697
 20
8.8785830397
 30
0.0
 40
0.2362204724409449
100
AcDbArc
 50
180.0
 51
260.0
  0
ARC
  5
33B
330
1F
100
AcDbEntity
  8
PROFILES_OUTSIDE
100
AcDbCircle
 10
48.4066251996
 20
8.3433178748
 30
0.0
 40
0.236220472440948
100
AcDbArc
 50
0.0
 51
80.0
  0
ARC
  5
33C
330
1F
100
AcDbEntity
  8
PROFILES_OUTSIDE
100
AcDbCircle
 10
48.4066251996
 20
5.5901365982
 30
0.0
 40
0.236220472440948
100
AcDbArc
 50
280.0
 51
0.0
  0
ARC
  5
33D
330
1F
100
AcDbEntity
  8
PROFILES_OUTSIDE
100
AcDbCircle
 10
25.6881212626
 20
1.5842513927
 30
0.0
 40
0.236220472440948
100
AcDbArc
 50
180.0
 51
280.0
  0
ARC
  5
33E
330
1F
100
AcDbEntity
  8
PROFILES_OUTSIDE
100
AcDbCircle
 10
66.6997163606
 20
37.8953252863
 30
0.0
 40
0.472440944881896
100
AcDbArc
 50
0.0
 51
90.0
  0
ARC
  5
33F
330
1F
100
AcDbEntity
  8
PROFILES_OUTSIDE
100
AcDbCircle
 10
47.7838311436
 20
37.8953252863
 30
0.0
 40
0.472440944881896
100
AcDbArc
 50
90.0
 51
180.0
  0
ARC
  5
340
330
1F
100
AcDbEntity
  8
PROFILES_OUTSIDE
100
AcDbCircle
 10
46.6125713011
 20
33.0547741052
 30
0.0
 40
0.0393700787401556
100
AcDbArc
 50
180.0
 51
270.0
  0
ARC
  5
341
330
1F
100
AcDbEntity
  8
PROFILES_OUTSIDE
100
AcDbCircle
 10
67.7036533684
 20
46.93083529
 30
0.0
 40
0.039370078740159
100
AcDbArc
 50
93.6619355755
 51
180.0
  0
ARC
  5
342
330
1F
100
AcDbEntity
  8
PROFILES_OUTSIDE
100
AcDbCircle
 10
67.624913211
 20
46.340690577
 30
0.0
 40
0.0393700787401611
100
AcDbArc
 50
335.1121079736
 51
0.0
  0
ARC
  5
343
330
1F
100
AcDbEntity
  8
PROFILES_OUTSIDE
100
AcDbCircle
 10
67.8452679519
 20
46.238461906
 30
0.0
 40
0.2035433070866209
100
AcDbArc
 50
155.1121079736
 51
342.3995332141
  0
ARC
  5
344
330
1F
100
AcDbEntity
  8
PROFILES_OUTSIDE
100
AcDbCircle
 10
68.0768101259
 20
46.1650103257
 30
0.0
 40
0.039370078740159
100
AcDbArc
 50
90.0
 51
162.3995332141
  0
ARC
  5
345
330
1F
100
AcDbEntity
  8
PROFILES_OUTSIDE
100
AcDbCircle
 10
67.6840470692
 20
41.5587111131
 30
0.0
 40
0.4724409448818889
100
AcDbArc
 50
270.0
 51
0.0
  0
ARC
  5
346
330
1F
100
AcDbEntity
  8
PROFILES_OUTSIDE
100
AcDbCircle
 10
61.1949724694
 20
40.6138292233
 30
0.0
 40
0.472440944881896
100
AcDbArc
 50
90.0
 51
180.0
  0
ARC
  5
347
330
1F
100
AcDbEntity
  8
PROFILES_OUTSIDE
100
AcDbCircle
 10
61.1949724694
 20
39.5902071761
 30
0.0
 40
0.472440944881896
100
AcDbArc
 50
180.0
 51
270.0
  0
ARC
  5
348
330
1F
100
AcDbEntity
  8
PROFILES_OUTSIDE
100
AcDbCircle
 10
67.6840470692
 20
38.6453252863
 30
0.0
 40
0.4724409448818889
100
AcDbArc
 50
0.0
 51
90.0
  0
ARC
  5
349
330
1F
100
AcDbEntity
  8
PROFILES_OUTSIDE
100
AcDbCircle
 10
68.0768101259
 20
34.0390260737
 30
0.0
 40
0.0393700787401627
100
AcDbArc
 50
197.6004667859
 51
270.0
  0
ARC
  5
34A
330
1F
100
AcDbEntity
  8
PROFILES_OUTSIDE
100
AcDbCircle
 10
67.8452679519
 20
33.9655744934
 30
0.0
 40
0.2035433070866209
100
AcDbArc
 50
17.6004667859
 51
204.8878920264
  0
ARC
  5
34B
330
1F
100
AcDbEntity
  8
PROFILES_OUTSIDE
100
AcDbCircle
 10
67.624913211
 20
33.8633458224
 30
0.0
 40
0.0393700787401611
100
AcDbArc
 50
0.0
 51
24.8878920264
  0
ARC
  5
34C
330
1F
100
AcDbEntity
  8
PROFILES_OUTSIDE
100
AcDbCircle
 10
67.7036533684
 20
33.2732011094
 30
0.0
 40
0.039370078740159
100
AcDbArc
 50
180.0
 51
266.3380644245
  0
ARC
  5
34D
330
1F
100
AcDbEntity
  8
PROFILES_OUTSIDE
100
AcDbCircle
 10
67.4083777779
 20
33.2516244989
 30
0.0
 40
0.2362204724409551
100
AcDbArc
 50
180.0
 51
270.0
  0
ARC
  5
34E
330
1F
100
AcDbEntity
  8
PROFILES_OUTSIDE
100
AcDbCircle
 10
46.6125713011
 20
47.1492622942
 30
0.0
 40
0.0393700787401627
100
AcDbArc
 50
90.0
 51
180.0
  0
ARC
  5
34F
330
1F
100
AcDbEntity
  8
PROFILES_OUTSIDE
100
AcDbCircle
 10
60.7225315245
 20
39.1177662312
 30
0.0
 40
0.75
100
AcDbArc
 50
210.0
 51
270.0
  0
ARC
  5
350
330
1F
100
AcDbEntity
  8
PROFILES_OUTSIDE
100
AcDbCircle
 10
59.4234934188
 20
38.3677662312
 30
0.0
 40
0.75
100
AcDbArc
 50
30.0
 51
90.0
  0
ARC
  5
351
330
1F
100
AcDbEntity
  8
PROFILES_OUTSIDE
100
AcDbCircle
 10
55.0600540854
 20
38.3677662312
 30
0.0
 40
0.75
100
AcDbArc
 50
90.0
 51
150.0
  0
ARC
  5
352
330
1F
100
AcDbEntity
  8
PROFILES_OUTSIDE
100
AcDbCircle
 10
53.7610159797
 20
39.1177662312
 30
0.0
 40
0.7500000000000062
100
AcDbArc
 50
270.0
 51
330.0
  0
ARC
  5
353
330
1F
100
AcDbEntity
  8
PROFILES_OUTSIDE
100
AcDbCircle
 10
47.0751697263
 20
33.2516244989
 30
0.0
 40
0.236220472440948
100
AcDbArc
 50
270.0
 51
0.0
  0
ARC
  5
354
330
1F
100
AcDbEntity
  8
PROFILES_OUTSIDE
100
AcDbCircle
 10
47.7838311436
 20
42.3087111131
 30
0.0
 40
0.4724409448818889
100
AcDbArc
 50
180.0
 51
270.0
  0
ARC
  5
355
330
1F
100
AcDbEntity
  8
PROFILES_OUTSIDE
100
AcDbCircle
 10
46.7798941357
 20
33.2732011094
 30
0.0
 40
0.0393700787401627
100
AcDbArc
 50
273.6619355755
 51
0.0
  0
ARC
  5
356
330
1F
100
AcDbEntity
  8
PROFILES_OUTSIDE
100
AcDbCircle
 10
46.8586342932
 20
33.8633458224
 30
0.0
 40
0.0393700787401546
100
AcDbArc
 50
155.1121079736
 51
180.0
  0
ARC
  5
357
330
1F
100
AcDbEntity
  8
PROFILES_OUTSIDE
100
AcDbCircle
 10
46.6382795523
 20
33.9655744934
 30
0.0
 40
0.2035433070866209
100
AcDbArc
 50
335.1121079736
 51
162.3995332141
  0
ARC
  5
358
330
1F
100
AcDbEntity
  8
PROFILES_OUTSIDE
100
AcDbCircle
 10
46.4067373783
 20
34.0390260737
 30
0.0
 40
0.0393700787401658
100
AcDbArc
 50
270.0
 51
342.3995332141
  0
ARC
  5
359
330
1F
100
AcDbEntity
  8
PROFILES_OUTSIDE
100
AcDbCircle
 10
46.7995004349
 20
38.6453252863
 30
0.0
 40
0.4724409448818889
100
AcDbArc
 50
90.0
 51
180.0
  0
ARC
  5
35A
330
1F
100
AcDbEntity
  8
PROFILES_OUTSIDE
100
AcDbCircle
 10
53.2885750348
 20
39.5902071761
 30
0.0
 40
0.472440944881896
100
AcDbArc
 50
270.0
 51
0.0
  0
ARC
  5
35B
330
1F
100
AcDbEntity
  8
PROFILES_OUTSIDE
100
AcDbCircle
 10
53.2885750348
 20
40.6138292233
 30
0.0
 40
0.472440944881896
100
AcDbArc
 50
0.0
 51
90.0
  0
ARC
  5
35C
330
1F
100
AcDbEntity
  8
PROFILES_OUTSIDE
100
AcDbCircle
 10
46.7995004349
 20
41.5587111131
 30
0.0
 40
0.4724409448818889
100
AcDbArc
 50
180.0
 51
270.0
  0
ARC
  5
35D
330
1F
100
AcDbEntity
  8
PROFILES_OUTSIDE
100
AcDbCircle
 10
46.4067373783
 20
46.1650103257
 30
0.0
 40
0.0393700787401636
100
AcDbArc
 50
17.6004667859
 51
90.0
  0
ARC
  5
35E
330
1F
100
AcDbEntity
  8
PROFILES_OUTSIDE
100
AcDbCircle
 10
46.6382795523
 20
46.238461906
 30
0.0
 40
0.2035433070866127
100
AcDbArc
 50
197.6004667859
 51
24.8878920264
  0
ARC
  5
35F
330
1F
100
AcDbEntity
  8
PROFILES_OUTSIDE
100
AcDbCircle
 10
46.8586342932
 20
46.340690577
 30
0.0
 40
0.0393700787401627
100
AcDbArc
 50
180.0
 51
204.8878920264
  0
ARC
  5
360
330
1F
100
AcDbEntity
  8
PROFILES_OUTSIDE
100
AcDbCircle
 10
46.7798941357
 20
46.93083529
 30
0.0
 40
0.0393700787401585
100
AcDbArc
 50
0.0
 51
86.3380644245
  0
ARC
  5
361
330
1F
100
AcDbEntity
  8
PROFILES_OUTSIDE
100
AcDbCircle
 10
47.0751697263
 20
46.9524119005
 30
0.0
 40
0.2362204724409551
100
AcDbArc
 50
0.0
 51
90.0
  0
ARC
  5
362
330
1F
100
AcDbEntity
  8
PROFILES_OUTSIDE
100
AcDbCircle
 10
66.6997163606
 20
42.3087111131
 30
0.0
 40
0.4724409448818818
100
AcDbArc
 50
270.0
 51
0.0
  0
ARC
  5
363
330
1F
100
AcDbEntity
  8
PROFILES_OUTSIDE
100
AcDbCircle
 10
53.7610159797
 20
41.0862701682
 30
0.0
 40
0.7500000000000062
100
AcDbArc
 50
30.0
 51
90.0
  0
ARC
  5
364
330
1F
100
AcDbEntity
  8
PROFILES_OUTSIDE
100
AcDbCircle
 10
55.0600540854
 20
41.8362701682
 30
0.0
 40
0.75
100
AcDbArc
 50
210.0
 51
270.0
  0
ARC
  5
365
330
1F
100
AcDbEntity
  8
PROFILES_OUTSIDE
100
AcDbCircle
 10
59.4234934188
 20
41.8362701682
 30
0.0
 40
0.75
100
AcDbArc
 50
270.0
 51
330.0
  0
ARC
  5
366
330
1F
100
AcDbEntity
  8
PROFILES_OUTSIDE
100
AcDbCircle
 10
60.7225315245
 20
41.0862701682
 30
0.0
 40
0.75
100
AcDbArc
 50
90.0
 51
150.0
  0
ARC
  5
367
330
1F
100
AcDbEntity
  8
PROFILES_OUTSIDE
100
AcDbCircle
 10
67.4083777779
 20
46.9524119005
 30
0.0
 40
0.2362204724409551
100
AcDbArc
 50
90.0
 51
180.0
  0
ARC
  5
368
330
1F
100
AcDbEntity
  8
PROFILES_OUTSIDE
100
AcDbCircle
 10
67.8709762031
 20
47.1492622942
 30
0.0
 40
0.0393700787401627
100
AcDbArc
 50
0.0
 51
90.0
  0
ARC
  5
369
330
1F
100
AcDbEntity
  8
PROFILES_OUTSIDE
100
AcDbCircle
 10
69.6812124236
 20
47.1492622942
 30
0.0
 40
0.0393700787401627
100
AcDbArc
 50
90.0
 51
180.0
  0
ARC
  5
36A
330
1F
100
AcDbEntity
  8
PROFILES_OUTSIDE
100
AcDbCircle
 10
70.8524722661
 20
42.3087111131
 30
0.0
 40
0.4724409448819102
100
AcDbArc
 50
180.0
 51
270.0
  0
ARC
  5
36B
330
1F
100
AcDbEntity
  8
PROFILES_OUTSIDE
100
AcDbCircle
 10
89.7683574831
 20
42.3087111131
 30
0.0
 40
0.4724409448819102
100
AcDbArc
 50
270.0
 51
0.0
  0
ARC
  5
36C
330
1F
100
AcDbEntity
  8
PROFILES_OUTSIDE
100
AcDbCircle
 10
90.9396173256
 20
47.1492622942
 30
0.0
 40
0.039370078740177
100
AcDbArc
 50
0.0
 51
90.0
  0
ARC
  5
36D
330
1F
100
AcDbEntity
  8
PROFILES_OUTSIDE
100
AcDbCircle
 10
69.8485352582
 20
33.2732011094
 30
0.0
 40
0.0393700787401627
100
AcDbArc
 50
273.6619355755
 51
0.0
  0
ARC
  5
36E
330
1F
100
AcDbEntity
  8
PROFILES_OUTSIDE
100
AcDbCircle
 10
69.9272754157
 20
33.8633458224
 30
0.0
 40
0.0393700787401627
100
AcDbArc
 50
155.1121079736
 51
180.0
  0
ARC
  5
36F
330
1F
100
AcDbEntity
  8
PROFILES_OUTSIDE
100
AcDbCircle
 10
69.7069206748
 20
33.9655744934
 30
0.0
 40
0.2035433070866198
100
AcDbArc
 50
335.1121079736
 51
162.3995332141
  0
ARC
  5
370
330
1F
100
AcDbEntity
  8
PROFILES_OUTSIDE
100
AcDbCircle
 10
69.4753785007
 20
34.0390260737
 30
0.0
 40
0.039370078740159
100
AcDbArc
 50
270.0
 51
342.3995332141
  0
ARC
  5
371
330
1F
100
AcDbEntity
  8
PROFILES_OUTSIDE
100
AcDbCircle
 10
69.8681415574
 20
38.6453252863
 30
0.0
 40
0.4724409448818889
100
AcDbArc
 50
90.0
 51
180.0
  0
ARC
  5
372
330
1F
100
AcDbEntity
  8
PROFILES_OUTSIDE
100
AcDbCircle
 10
76.3572161573
 20
39.5902071761
 30
0.0
 40
0.472440944881896
100
AcDbArc
 50
270.0
 51
0.0
  0
ARC
  5
373
330
1F
100
AcDbEntity
  8
PROFILES_OUTSIDE
100
AcDbCircle
 10
76.3572161573
 20
40.6138292233
 30
0.0
 40
0.472440944881896
100
AcDbArc
 50
0.0
 51
90.0
  0
ARC
  5
374
330
1F
100
AcDbEntity
  8
PROFILES_OUTSIDE
100
AcDbCircle
 10
69.8681415574
 20
41.5587111131
 30
0.0
 40
0.4724409448818889
100
AcDbArc
 50
180.0
 51
270.0
  0
ARC
  5
375
330
1F
100
AcDbEntity
  8
PROFILES_OUTSIDE
100
AcDbCircle
 10
69.4753785007
 20
46.1650103257
 30
0.0
 40
0.0393700787401698
100
AcDbArc
 50
17.6004667859
 51
90.0
  0
ARC
  5
376
330
1F
100
AcDbEntity
  8
PROFILES_OUTSIDE
100
AcDbCircle
 10
69.7069206748
 20
46.238461906
 30
0.0
 40
0.2035433070866198
100
AcDbArc
 50
197.6004667859
 51
24.8878920264
  0
ARC
  5
377
330
1F
100
AcDbEntity
  8
PROFILES_OUTSIDE
100
AcDbCircle
 10
69.9272754157
 20
46.340690577
 30
0.0
 40
0.0393700787401627
100
AcDbArc
 50
180.0
 51
204.8878920264
  0
ARC
  5
378
330
1F
100
AcDbEntity
  8
PROFILES_OUTSIDE
100
AcDbCircle
 10
69.8485352582
 20
46.93083529
 30
0.0
 40
0.0393700787401627
100
AcDbArc
 50
0.0
 51
86.3380644245
  0
ARC
  5
379
330
1F
100
AcDbEntity
  8
PROFILES_OUTSIDE
100
AcDbCircle
 10
70.1438108488
 20
46.9524119005
 30
0.0
 40
0.2362204724409551
100
AcDbArc
 50
0.0
 51
90.0
  0
ARC
  5
37A
330
1F
100
AcDbEntity
  8
PROFILES_OUTSIDE
100
AcDbCircle
 10
90.9396173256
 20
33.0547741052
 30
0.0
 40
0.039370078740177
100
AcDbArc
 50
270.0
 51
0.0
  0
ARC
  5
37B
330
1F
100
AcDbEntity
  8
PROFILES_OUTSIDE
100
AcDbCircle
 10
76.8296571022
 20
41.0862701682
 30
0.0
 40
0.75
100
AcDbArc
 50
30.0
 51
90.0
  0
ARC
  5
37C
330
1F
100
AcDbEntity
  8
PROFILES_OUTSIDE
100
AcDbCircle
 10
78.1286952079
 20
41.8362701682
 30
0.0
 40
0.75
100
AcDbArc
 50
210.0
 51
270.0
  0
ARC
  5
37D
330
1F
100
AcDbEntity
  8
PROFILES_OUTSIDE
100
AcDbCircle
 10
82.4921345413
 20
41.8362701682
 30
0.0
 40
0.75
100
AcDbArc
 50
270.0
 51
330.0
  0
ARC
  5
37E
330
1F
100
AcDbEntity
  8
PROFILES_OUTSIDE
100
AcDbCircle
 10
83.791172647
 20
41.0862701682
 30
0.0
 40
0.75
100
AcDbArc
 50
90.0
 51
150.0
  0
ARC
  5
37F
330
1F
100
AcDbEntity
  8
PROFILES_OUTSIDE
100
AcDbCircle
 10
90.4770189004
 20
46.9524119005
 30
0.0
 40
0.2362204724409551
100
AcDbArc
 50
90.0
 51
180.0
  0
ARC
  5
380
330
1F
100
AcDbEntity
  8
PROFILES_OUTSIDE
100
AcDbCircle
 10
89.7683574831
 20
37.8953252863
 30
0.0
 40
0.472440944881896
100
AcDbArc
 50
0.0
 51
90.0
  0
ARC
  5
381
330
1F
100
AcDbEntity
  8
PROFILES_OUTSIDE
100
AcDbCircle
 10
90.7722944909
 20
46.93083529
 30
0.0
 40
0.0393700787401519
100
AcDbArc
 50
93.6619355755
 51
180.0
  0
ARC
  5
382
330
1F
100
AcDbEntity
  8
PROFILES_OUTSIDE
100
AcDbCircle
 10
90.6935543335
 20
46.340690577
 30
0.0
 40
0.0393700787401485
100
AcDbArc
 50
335.1121079736
 51
0.0
  0
ARC
  5
383
330
1F
100
AcDbEntity
  8
PROFILES_OUTSIDE
100
AcDbCircle
 10
90.9139090744
 20
46.238461906
 30
0.0
 40
0.2035433070866241
100
AcDbArc
 50
155.1121079736
 51
342.3995332141
  0
ARC
  5
384
330
1F
100
AcDbEntity
  8
PROFILES_OUTSIDE
100
AcDbCircle
 10
91.1454512484
 20
46.1650103257
 30
0.0
 40
0.0393700787401627
100
AcDbArc
 50
90.0
 51
162.3995332141
  0
ARC
  5
385
330
1F
100
AcDbEntity
  8
PROFILES_OUTSIDE
100
AcDbCircle
 10
90.7526881917
 20
41.5587111131
 30
0.0
 40
0.472440944881896
100
AcDbArc
 50
270.0
 51
0.0
  0
ARC
  5
386
330
1F
100
AcDbEntity
  8
PROFILES_OUTSIDE
100
AcDbCircle
 10
84.2636135918
 20
40.6138292233
 30
0.0
 40
0.4724409448819102
100
AcDbArc
 50
90.0
 51
180.0
  0
ARC
  5
387
330
1F
100
AcDbEntity
  8
PROFILES_OUTSIDE
100
AcDbCircle
 10
84.2636135918
 20
39.5902071761
 30
0.0
 40
0.4724409448819102
100
AcDbArc
 50
180.0
 51
270.0
  0
ARC
  5
388
330
1F
100
AcDbEntity
  8
PROFILES_OUTSIDE
100
AcDbCircle
 10
90.7526881917
 20
38.6453252863
 30
0.0
 40
0.472440944881896
100
AcDbArc
 50
0.0
 51
90.0
  0
ARC
  5
389
330
1F
100
AcDbEntity
  8
PROFILES_OUTSIDE
100
AcDbCircle
 10
91.1454512484
 20
34.0390260737
 30
0.0
 40
0.039370078740184
100
AcDbArc
 50
197.6004667858
 51
270.0
  0
ARC
  5
38A
330
1F
100
AcDbEntity
  8
PROFILES_OUTSIDE
100
AcDbCircle
 10
90.9139090744
 20
33.9655744934
 30
0.0
 40
0.2035433070866179
100
AcDbArc
 50
17.6004667859
 51
204.8878920264
  0
ARC
  5
38B
330
1F
100
AcDbEntity
  8
PROFILES_OUTSIDE
100
AcDbCircle
 10
90.6935543335
 20
33.8633458224
 30
0.0
 40
0.0393700787401627
100
AcDbArc
 50
0.0
 51
24.8878920264
  0
ARC
  5
38C
330
1F
100
AcDbEntity
  8
PROFILES_OUTSIDE
100
AcDbCircle
 10
90.7722944909
 20
33.2732011094
 30
0.0
 40
0.039370078740159
100
AcDbArc
 50
180.0
 51
266.3380644245
  0
ARC
  5
38D
330
1F
100
AcDbEntity
  8
PROFILES_OUTSIDE
100
AcDbCircle
 10
90.4770189004
 20
33.2516244989
 30
0.0
 40
0.236220472440948
100
AcDbArc
 50
180.0
 51
270.0
  0
ARC
  5
38E
330
1F
100
AcDbEntity
  8
PROFILES_OUTSIDE
100
AcDbCircle
 10
70.8524722661
 20
37.8953252863
 30
0.0
 40
0.4724409448818818
100
AcDbArc
 50
90.0
 51
180.0
  0
ARC
  5
38F
330
1F
100
AcDbEntity
  8
PROFILES_OUTSIDE
100
AcDbCircle
 10
83.791172647
 20
39.1177662312
 30
0.0
 40
0.75
100
AcDbArc
 50
210.0
 51
270.0
  0
ARC
  5
390
330
1F
100
AcDbEntity
  8
PROFILES_OUTSIDE
100
AcDbCircle
 10
82.4921345413
 20
38.3677662312
 30
0.0
 40
0.75
100
AcDbArc
 50
30.0
 51
90.0
  0
ARC
  5
391
330
1F
100
AcDbEntity
  8
PROFILES_OUTSIDE
100
AcDbCircle
 10
78.1286952079
 20
38.3677662312
 30
0.0
 40
0.75
100
AcDbArc
 50
90.0
 51
150.0
  0
ARC
  5
392
330
1F
100
AcDbEntity
  8
PROFILES_OUTSIDE
100
AcDbCircle
 10
76.8296571022
 20
39.1177662312
 30
0.0
 40
0.75
100
AcDbArc
 50
270.0
 51
330.0
  0
ARC
  5
393
330
1F
100
AcDbEntity
  8
PROFILES_OUTSIDE
100
AcDbCircle
 10
70.1438108488
 20
33.2516244989
 30
0.0
 40
0.236220472440948
100
AcDbArc
 50
270.0
 51
0.0
  0
ARC
  5
394
330
1F
100
AcDbEntity
  8
PROFILES_OUTSIDE
100
AcDbCircle
 10
69.6812124236
 20
33.0547741052
 30
0.0
 40
0.0393700787401627
100
AcDbArc
 50
180.0
 51
270.0
  0
ENDSEC
  0
SECTION
  2
OBJECTS
  0
DICTIONARY
  5
C
330
0
100
AcDbDictionary
  3
ACAD_GROUP
350
D
  3
ACAD_MLINESTYLE
350
17
  3
ACAD_SCALELIST
350
47
  0
DICTIONARY
  5
D
102
{ACAD_REACTORS
330
C
102
}
330
C
100
AcDbDictionary
  0
DICTIONARY
  5
17
102
{ACAD_REACTORS
330
C
102
}
330
C
100
AcDbDictionary
  3
STANDARD
350
18
  0
DICTIONARY
  5
47
102
{ACAD_REACTORS
330
C
102
}
330
C
100
AcDbDictionary
  0
MLINESTYLE
  5
18
102
{ACAD_REACTORS
330
17
102
}
330
17
100
AcDbMlineStyle
  2
Standard
 70
     0
  3

 62
   256
 51
90.0
 52
90.0
 71
     2
 49
0.5
 62
   256
  6
BYLAYER
 49
-0.5
 62
   256
  6
BYLAYER
  0
ENDSEC
  0
EOF
