  0
SECTION
  2
HEADER
  9
$ACADVER
  1
AC1014
  9
$ACADMAINTVER
 70
     9
  9
$DWGCODEPAGE
  3
ANSI_1252
  9
$INSBASE
 10
0.0
 20
0.0
 30
0.0
  9
$EXTMIN
 10
0.0
 20
0.0
 30
0.0
  9
$EXTMAX
 10
96.062992126
 20
48.031496063
 30
0.0
  9
$LIMMIN
 10
0.0
 20
0.0
  9
$LIMMAX
 10
96.062992126
 20
48.031496063
  9
$ORTHOMODE
 70
     0
  9
$REGENMODE
 70
     1
  9
$FILLMODE
 70
     1
  9
$QTEXTMODE
 70
     0
  9
$MIRRTEXT
 70
     1
  9
$DRAGMODE
 70
     2
  9
$LTSCALE
 40
1.0
  9
$OSMODE
 70
    37
  9
$ATTMODE
 70
     1
  9
$TEXTSIZE
 40
0.1377952756
  9
$TRACEWID
 40
0.05
  9
$TEXTSTYLE
  7
STANDARD
  9
$CLAYER
  8
0
  9
$CELTYPE
  6
BYLAYER
  9
$CECOLOR
 62
   256
  9
$CELTSCALE
 40
1.0
  9
$DELOBJ
 70
     1
  9
$DISPSILH
 70
     0
  9
$DIMSCALE
 40
1.0
  9
$DIMASZ
 40
0.13
  9
$DIMEXO
 40
0.0393700787
  9
$DIMDLI
 40
0.38
  9
$DIMRND
 40
0.0
  9
$DIMDLE
 40
0.0
  9
$DIMEXE
 40
0.0393700787
  9
$DIMTP
 40
0.0
  9
$DIMTM
 40
0.0
  9
$DIMTXT
 40
0.1805555556
  9
$DIMCEN
 40
0.09
  9
$DIMTSZ
 40
0.0
  9
$DIMTOL
 70
     0
  9
$DIMLIM
 70
     0
  9
$DIMTIH
 70
     1
  9
$DIMTOH
 70
     1
  9
$DIMSE1
 70
     0
  9
$DIMSE2
 70
     0
  9
$DIMTAD
 70
     1
  9
$DIMZIN
 70
     0
  9
$DIMBLK
  1

  9
$DIMASO
 70
     1
  9
$DIMSHO
 70
     1
  9
$DIMPOST
  1

  9
$DIMAPOST
  1

  9
$DIMALT
 70
     0
  9
$DIMALTD
 70
     2
  9
$DIMALTF
 40
25.4
  9
$DIMLFAC
 40
1.0
  9
$DIMTOFL
 70
     0
  9
$DIMTVP
 40
0.0
  9
$DIMTIX
 70
     0
  9
$DIMSOXD
 70
     0
  9
$DIMSAH
 70
     0
  9
$DIMBLK1
  1

  9
$DIMBLK2
  1

  9
$DIMSTYLE
  2
STANDARD
  9
$DIMCLRD
 70
     0
  9
$DIMCLRE
 70
     0
  9
$DIMCLRT
 70
     0
  9
$DIMTFAC
 40
1.0
  9
$DIMGAP
 40
0.06
  9
$DIMJUST
 70
     0
  9
$DIMSD1
 70
     0
  9
$DIMSD2
 70
     0
  9
$DIMTOLJ
 70
     1
  9
$DIMTZIN
 70
     0
  9
$DIMALTZ
 70
     0
  9
$DIMALTTZ
 70
     0
  9
$DIMFIT
 70
     3
  9
$DIMUPT
 70
     0
  9
$DIMUNIT
 70
     2
  9
$DIMDEC
 70
     2
  9
$DIMTDEC
 70
     2
  9
$DIMALTU
 70
     2
  9
$DIMALTTD
 70
     2
  9
$DIMTXSTY
  7
STANDARD
  9
$DIMAUNIT
 70
     0
  9
$LUNITS
 70
     2
  9
$LUPREC
 70
     2
  9
$SKETCHINC
 40
0.1
  9
$FILLETRAD
 40
0.5
  9
$AUNITS
 70
     0
  9
$AUPREC
 70
     2
  9
$MENU
  1
.
  9
$ELEVATION
 40
0.0
  9
$PELEVATION
 40
0.0
  9
$THICKNESS
 40
0.0
  9
$LIMCHECK
 70
     0
  9
$CHAMFERA
 40
0.0
  9
$CHAMFERB
 40
0.0
  9
$CHAMFERC
 40
0.0
  9
$CHAMFERD
 40
0.0
  9
$SKPOLY
 70
     0
  9
$TDCREATE
 40
2457718.746303136
  9
$TDUPDATE
 40
2457718.746303472
  9
$TDINDWG
 40
0.0000000116
  9
$TDUSRTIMER
 40
0.0000000116
  9
$USRTIMER
 70
     1
  9
$ANGBASE
 50
0.0
  9
$ANGDIR
 70
     0
  9
$PDMODE
 70
     0
  9
$PDSIZE
 40
-1.0
  9
$PLINEWID
 40
0.0
  9
$COORDS
 70
     1
  9
$SPLFRAME
 70
     0
  9
$SPLINETYPE
 70
     6
  9
$SPLINESEGS
 70
     8
  9
$ATTDIA
 70
     0
  9
$ATTREQ
 70
     1
  9
$HANDLING
 70
     1
  9
$HANDSEED
  5
395
  9
$SURFTAB1
 70
     6
  9
$SURFTAB2
 70
     6
  9
$SURFTYPE
 70
     6
  9
$SURFU
 70
     6
  9
$SURFV
 70
     6
  9
$UCSNAME
  2

  9
$UCSORG
 10
0.0
 20
0.0
 30
0.0
  9
$UCSXDIR
 10
1.0
 20
0.0
 30
0.0
  9
$UCSYDIR
 10
0.0
 20
1.0
 30
0.0
  9
$PUCSNAME
  2

  9
$PUCSORG
 10
0.0
 20
0.0
 30
0.0
  9
$PUCSXDIR
 10
1.0
 20
0.0
 30
0.0
  9
$PUCSYDIR
 10
0.0
 20
1.0
 30
0.0
  9
$USERI1
 70
     0
  9
$USERI2
 70
     0
  9
$USERI3
 70
     0
  9
$USERI4
 70
     0
  9
$USERI5
 70
     0
  9
$USERR1
 40
0.0
  9
$USERR2
 40
0.0
  9
$USERR3
 40
0.0
  9
$USERR4
 40
0.0
  9
$USERR5
 40
0.0
  9
$WORLDVIEW
 70
     1
  9
$SHADEDGE
 70
     3
  9
$SHADEDIF
 70
    70
  9
$TILEMODE
 70
     1
  9
$MAXACTVP
 70
    64
  9
$PINSBASE
 10
0.0
 20
0.0
 30
0.0
  9
$PLIMCHECK
 70
     0
  9
$PEXTMIN
 10
1.0000000000E+20
 20
1.0000000000E+20
 30
1.0000000000E+20
  9
$PEXTMAX
 10
-1.0000000000E+20
 20
-1.0000000000E+20
 30
-1.0000000000E+20
  9
$PLIMMIN
 10
0.0
 20
0.0
  9
$PLIMMAX
 10
12.0
 20
9.0
  9
$UNITMODE
 70
     0
  9
$VISRETAIN
 70
     1
  9
$PLINEGEN
 70
     0
  9
$PSLTSCALE
 70
     1
  9
$TREEDEPTH
 70
  3020
  9
$PICKSTYLE
 70
     1
  9
$CMLSTYLE
  2
STANDARD
  9
$CMLJUST
 70
     0
  9
$CMLSCALE
 40
1.0
  9
$PROXYGRAPHICS
 70
     1
  9
$MEASUREMENT
 70
     0
  0
ENDSEC
  0
SECTION
  2
CLASSES
  0
CLASS
  1
ACDBDICTIONARYWDFLT
  2
AcDbDictionaryWithDefault
  3
ObjectDBX Classes
 90
        0
280
     0
281
     0
  0
CLASS
  1
VISUALSTYLE
  2
AcDbVisualStyle
  3
ObjectDBX Classes
 90
     4095
280
     0
281
     0
  0
CLASS
  1
MATERIAL
  2
AcDbMaterial
  3
ObjectDBX Classes
 90
     1153
280
     0
281
     0
  0
CLASS
  1
SCALE
  2
AcDbScale
  3
ObjectDBX Classes
 90
     1153
280
     0
281
     0
  0
CLASS
  1
TABLESTYLE
  2
AcDbTableStyle
  3
ObjectDBX Classes
 90
     4095
280
     0
281
     0
  0
CLASS
  1
MLEADERSTYLE
  2
AcDbMLeaderStyle
  3
ACDB_MLEADERSTYLE_CLASS
 90
     4095
280
     0
281
     0
  0
CLASS
  1
SUN
  2
AcDbSun
  3
SCENEOE
 90
     1153
280
     0
281
     0
  0
CLASS
  1
XRECORD
  2
AcDbXrecord
  3
ObjectDBX Classes
 90
        0
280
     0
281
     0
  0
CLASS
  1
LWPOLYLINE
  2
AcDbPolyline
  3
ObjectDBX Classes
 90
        0
280
     0
281
     1
  0
CLASS
  1
HATCH
  2
AcDbHatch
  3
ObjectDBX Classes
 90
        0
280
     0
281
     1
  0
ENDSEC
  0
SECTION
  2
TABLES
  0
TABLE
  2
VPORT
  5
8
330
0
100
AcDbSymbolTable
 70
     1
  0
VPORT
  5
29
330
8
100
AcDbSymbolTableRecord
100
AcDbViewportTableRecord
  2
*ACTIVE
 70
     0
 10
0.0
 20
0.0
 11
1.0
 21
1.0
 12
48.031496063
 22
24.0157480315
 13
0.0
 23
0.0
 14
0.5
 24
0.5
 15
0.5
 25
0.5
 16
0.0
 26
0.0
 36
1.0
 17
0.0
 27
0.0
 37
0.0
 40
48.031496063
 41
2.0
 42
50.0
 43
0.0
 44
0.0
 50
0.0
 51
0.0
 71
     0
 72
  2000
 73
     1
 74
     3
 75
     0
 76
     0
 77
     0
 78
     0
  0
ENDTAB
  0
TABLE
  2
LTYPE
  5
5
330
0
100
AcDbSymbolTable
 70
     6
  0
LTYPE
  5
14
330
5
100
AcDbSymbolTableRecord
100
AcDbLinetypeTableRecord
  2
BYBLOCK
 70
     0
  3

 72
    65
 73
     0
 40
0.0
  0
LTYPE
  5
15
330
5
100
AcDbSymbolTableRecord
100
AcDbLinetypeTableRecord
  2
BYLAYER
 70
     0
  3

 72
    65
 73
     0
 40
0.0
  0
LTYPE
  5
16
330
5
100
AcDbSymbolTableRecord
100
AcDbLinetypeTableRecord
  2
CONTINUOUS
 70
     0
  3
Solid line
 72
    65
 73
     0
 40
0.0
  0
LTYPE
  5
6E
330
5
100
AcDbSymbolTableRecord
100
AcDbLinetypeTableRecord
  2
HIDDEN
 70
     0
  3
Hidden __ __ __ __ __ __ __ __ __ __ __ __ __ __
 72
    65
 73
     2
 40
0.075
 49
0.05
 74
     0
 49
-0.025
 74
     0
  0
LTYPE
  5
6F
330
5
100
AcDbSymbolTableRecord
100
AcDbLinetypeTableRecord
  2
PHANTOM
 70
     0
  3
Phantom ______  __  __  ______  __  __  ______
 72
    65
 73
     6
 40
0.5
 49
0.25
 74
     0
 49
-0.05
 74
     0
 49
0.05
 74
     0
 49
-0.05
 74
     0
 49
0.05
 74
     0
 49
-0.05
 74
     0
  0
LTYPE
  5
70
330
5
100
AcDbSymbolTableRecord
100
AcDbLinetypeTableRecord
  2
CENTER
 70
     0
  3
Center ____ _ ____ _ ____ _ ____ _ ____ _ ____
 72
    65
 73
     4
 40
0.4
 49
0.25
 74
     0
 49
-0.05
 74
     0
 49
0.05
 74
     0
 49
-0.05
 74
     0
  0
LTYPE
  5
71
330
5
100
AcDbSymbolTableRecord
100
AcDbLinetypeTableRecord
  2
CENTERX2
 70
     0
  3
Center (2x) ________  __  ________  __  _____
 72
    65
 73
     4
 40
0.8
 49
0.5
 74
     0
 49
-0.1
 74
     0
 49
0.1
 74
     0
 49
-0.1
 74
     0
  0
LTYPE
  5
72
330
5
100
AcDbSymbolTableRecord
100
AcDbLinetypeTableRecord
  2
DOT2
 70
     0
  3
Dot (.5x) ........................................
 72
    65
 73
     2
 40
0.025
 49
0.0
 74
     0
 49
-0.025
 74
     0
  0
ENDTAB
  0
TABLE
  2
LAYER
  5
2
330
0
100
AcDbSymbolTable
 70
     6
  0
LAYER
  5
10
330
2
100
AcDbSymbolTableRecord
100
AcDbLayerTableRecord
  2
0
 70
     0
 62
     7
  6
CONTINUOUS
  0
LAYER
  5
73
330
2
100
AcDbSymbolTableRecord
100
AcDbLayerTableRecord
  2
BOX_STOCK
 70
     0
 62
     1
  6
CONTINUOUS
  0
LAYER
  5
74
330
2
100
AcDbSymbolTableRecord
100
AcDbLayerTableRecord
  2
HOLES
 70
     0
 62
    30
  6
CONTINUOUS
  0
LAYER
  5
75
330
2
100
AcDbSymbolTableRecord
100
AcDbLayerTableRecord
  2
POCKETS
 70
     0
 62
   171
  6
CONTINUOUS
  0
LAYER
  5
76
330
2
100
AcDbSymbolTableRecord
100
AcDbLayerTableRecord
  2
PROFILES_OUTSIDE
 70
     0
 62
     6
  6
CONTINUOUS
  0
LAYER
  5
77
330
2
100
AcDbSymbolTableRecord
100
AcDbLayerTableRecord
  2
PROFILES_INSIDE
 70
     0
 62
     4
  6
CONTINUOUS
  0
ENDTAB
  0
TABLE
  2
STYLE
  5
3
330
0
100
AcDbSymbolTable
 70
     1
  0
STYLE
  5
11
330
3
100
AcDbSymbolTableRecord
100
AcDbTextStyleTableRecord
  2
STANDARD
 70
     0
 40
0.0
 41
1.0
 50
0.0
 71
     0
 42
0.1377952756
  3
txt
  4

  0
ENDTAB
  0
TABLE
  2
VIEW
  5
6
330
0
100
AcDbSymbolTable
 70
     0
  0
ENDTAB
  0
TABLE
  2
UCS
  5
7
330
0
100
AcDbSymbolTable
 70
     0
  0
ENDTAB
  0
TABLE
  2
APPID
  5
9
330
0
100
AcDbSymbolTable
 70
     1
  0
APPID
  5
12
330
9
100
AcDbSymbolTableRecord
100
AcDbRegAppTableRecord
  2
ACAD
 70
     0
  0
ENDTAB
  0
TABLE
  2
DIMSTYLE
  5
A
330
0
100
AcDbSymbolTable
 70
     1
  0
DIMSTYLE
105
27
330
A
100
AcDbSymbolTableRecord
100
AcDbDimStyleTableRecord
  2
STANDARD
 70
     0
  3

  4

  5

  6

  7

 40
1.0
 41
0.18
 42
0.0625
 43
0.38
 44
0.18
 45
0.0
 46
0.0
 47
0.0
 48
0.0
140
0.18
141
0.09
142
0.0
143
25.4
144
1.0
145
0.0
146
1.0
147
0.09
 71
     0
 72
     0
 73
     1
 74
     1
 75
     0
 76
     0
 77
     0
 78
     0
170
     0
171
     2
172
     0
173
     0
174
     0
175
     0
176
     0
177
     0
178
     0
270
     2
271
     4
272
     4
273
     2
274
     2
340
11
275
     0
280
     0
281
     0
282
     0
283
     1
284
     0
285
     0
286
     0
287
     3
288
     0
  0
ENDTAB
  0
TABLE
  2
BLOCK_RECORD
  5
1
330
0
100
AcDbSymbolTable
 70
     1
  0
BLOCK_RECORD
  5
1F
330
1
100
AcDbSymbolTableRecord
100
AcDbBlockTableRecord
  2
*MODEL_SPACE
  0
BLOCK_RECORD
  5
1B
330
1
100
AcDbSymbolTableRecord
100
AcDbBlockTableRecord
  2
*PAPER_SPACE
  0
BLOCK_RECORD
  5
23
330
1
100
AcDbSymbolTableRecord
100
AcDbBlockTableRecord
  2
*PAPER_SPACE0
  0
ENDTAB
  0
ENDSEC
  0
SECTION
  2
BLOCKS
  0
BLOCK
  5
20
330
1F
100
AcDbEntity
  8
0
100
AcDbBlockBegin
  2
*MODEL_SPACE
 70
     0
 10
0.0
 20
0.0
 30
0.0
  3
*MODEL_SPACE
  1

  0
ENDBLK
  5
21
330
1F
100
AcDbEntity
  8
0
100
AcDbBlockEnd
  0
BLOCK
  5
1C
330
1B
100
AcDbEntity
 67
     1
  8
0
100
AcDbBlockBegin
  2
*PAPER_SPACE
 70
     0
 10
0.0
 20
0.0
 30
0.0
  3
*PAPER_SPACE
  1

  0
ENDBLK
  5
1D
330
1B
100
AcDbEntity
 67
     1
  8
0
100
AcDbBlockEnd
  0
BLOCK
  5
24
330
23
100
AcDbEntity
  8
0
100
AcDbBlockBegin
  2
*PAPER_SPACE0
 70
     0
 10
0.0
 20
0.0
 30
0.0
  3
*PAPER_SPACE0
  1

  0
ENDBLK
  5
25
330
23
100
AcDbEntity
  8
0
100
AcDbBlockEnd
  0
ENDSEC
  0
SECTION
  2
ENTITIES
  0
ARC
  5
78
330
1F
100
AcDbEntity
  8
0
  6
CONTINUOUS
 62
     7
100
AcDbCircle
 10
1.257806302
 20
29.720157955
 30
0.0
 40
0.2362204724409538
100
AcDbArc
 50
80.0
 51
180.0
  0
LINE
  5
79
330
1F
100
AcDbEntity
  8
0
  6
CONTINUOUS
 62
     7
100
AcDbLine
 10
1.2988255067
 20
29.9527901427
 30
0.0
 11
23.7673294819
 21
25.9909867365
 31
0.0
  0
ARC
  5
7A
330
1F
100
AcDbEntity
  8
0
  6
CONTINUOUS
 62
     7
100
AcDbCircle
 10
23.726310239
 20
25.7583544947
 30
0.0
 40
0.2362204724409445
100
AcDbArc
 50
0.0
 51
80.0
  0
ARC
  5
7B
330
1F
100
AcDbEntity
  8
0
  6
CONTINUOUS
 62
     7
100
AcDbCircle
 10
22.7161152139
 20
25.0967802048
 30
0.0
 40
0.2035433070866152
100
AcDbArc
 50
346.055191437
 51
14.8879031485
  0
ARC
  5
7C
330
1F
100
AcDbEntity
  8
0
  6
CONTINUOUS
 62
     7
100
AcDbCircle
 10
22.9508740814
 20
25.1591916389
 30
0.0
 40
0.0393700787401554
100
AcDbArc
 50
170.0
 51
194.8879031485
  0
LINE
  5
7D
330
1F
100
AcDbEntity
  8
0
  6
CONTINUOUS
 62
     7
100
AcDbLine
 10
22.9539114653
 20
25.4031347541
 30
0.0
 11
22.9121013883
 21
25.1660279465
 31
0.0
  0
ARC
  5
7E
330
1F
100
AcDbEntity
  8
0
  6
CONTINUOUS
 62
     7
100
AcDbCircle
 10
22.9926838395
 20
25.3962988269
 30
0.0
 40
0.0393714215238455
100
AcDbArc
 50
145.1121889858
 51
170.0
  0
ARC
  5
7F
330
1F
100
AcDbEntity
  8
0
  6
CONTINUOUS
 62
     7
100
AcDbCircle
 10
22.7934273068
 20
25.5352391002
 30
0.0
 40
0.2035433070866188
100
AcDbArc
 50
325.1121889858
 51
152.3995430525
  0
ARC
  5
80
330
1F
100
AcDbEntity
  8
0
  6
CONTINUOUS
 62
     7
100
AcDbCircle
 10
22.5781574924
 20
25.6477816256
 30
0.0
 40
0.0393700787401585
100
AcDbArc
 50
260.0000472348
 51
332.3995430525
  0
LINE
  5
81
330
1F
100
AcDbEntity
  8
0
  6
CONTINUOUS
 62
     7
100
AcDbLine
 10
22.4145410561
 20
25.6366535498
 30
0.0
 11
22.571320045
 21
25.6090101358
 31
0.0
  0
ARC
  5
82
330
1F
100
AcDbEntity
  8
0
  6
CONTINUOUS
 62
     7
100
AcDbCircle
 10
22.4213777533
 20
25.6754259903
 30
0.0
 40
0.0393701149678273
100
AcDbArc
 50
187.6004766242
 51
260.0000472348
  0
ARC
  5
83
330
1F
100
AcDbEntity
  8
0
  6
CONTINUOUS
 62
     7
100
AcDbCircle
 10
22.1805984976
 20
25.6432971398
 30
0.0
 40
0.2035432708589422
100
AcDbArc
 50
7.6004766242
 51
194.8878397487
  0
ARC
  5
84
330
1F
100
AcDbEntity
  8
0
  6
CONTINUOUS
 62
     7
100
AcDbCircle
 10
21.9458396815
 20
25.5808859975
 30
0.0
 40
0.0393700264954949
100
AcDbArc
 50
350.0
 51
14.8878397487
  0
LINE
  5
85
330
1F
100
AcDbEntity
  8
0
  6
CONTINUOUS
 62
     7
100
AcDbLine
 10
21.9428031457
 20
25.3369407454
 30
0.0
 11
21.984610876
 21
25.5740498997
 31
0.0
  0
ARC
  5
86
330
1F
100
AcDbEntity
  8
0
  6
CONTINUOUS
 62
     7
100
AcDbCircle
 10
21.9040311429
 20
25.3437779927
 30
0.0
 40
0.0393700787401561
100
AcDbArc
 50
325.1121190957
 51
350.0
  0
ARC
  5
87
330
1F
100
AcDbEntity
  8
0
  6
CONTINUOUS
 62
     7
100
AcDbCircle
 10
22.1032864047
 20
25.2048382444
 30
0.0
 40
0.2035433070866166
100
AcDbArc
 50
145.1121190957
 51
173.9447490948
  0
LINE
  5
88
330
1F
100
AcDbEntity
  8
0
  6
CONTINUOUS
 62
     7
100
AcDbLine
 10
3.5612102914
 20
28.4600880266
 30
0.0
 11
21.9008780833
 21
25.2263084235
 31
0.0
  0
ARC
  5
89
330
1F
100
AcDbEntity
  8
0
  6
CONTINUOUS
 62
     7
100
AcDbCircle
 10
3.363665742
 20
28.5091391895
 30
0.0
 40
0.2035433070866164
100
AcDbArc
 50
346.055191437
 51
14.8879031485
  0
ARC
  5
8A
330
1F
100
AcDbEntity
  8
0
  6
CONTINUOUS
 62
     7
100
AcDbCircle
 10
3.5984246095
 20
28.5715506236
 30
0.0
 40
0.0393700787401537
100
AcDbArc
 50
170.0
 51
194.8879031485
  0
LINE
  5
8B
330
1F
100
AcDbEntity
  8
0
  6
CONTINUOUS
 62
     7
100
AcDbLine
 10
3.6014610264
 20
28.8154936276
 30
0.0
 11
3.5596527094
 21
28.57838682
 31
0.0
  0
ARC
  5
8C
330
1F
100
AcDbEntity
  8
0
  6
CONTINUOUS
 62
     7
100
AcDbCircle
 10
3.6402343676
 20
28.8086578116
 30
0.0
 40
0.0393714215238461
100
AcDbArc
 50
145.1121889858
 51
170.0
  0
ARC
  5
8D
330
1F
100
AcDbEntity
  8
0
  6
CONTINUOUS
 62
     7
100
AcDbCircle
 10
3.4409778349
 20
28.9475980849
 30
0.0
 40
0.2035433070866177
100
AcDbArc
 50
325.1121889858
 51
152.3995430525
  0
ARC
  5
8E
330
1F
100
AcDbEntity
  8
0
  6
CONTINUOUS
 62
     7
100
AcDbCircle
 10
3.2257080205
 20
29.0601406103
 30
0.0
 40
0.0393700787401579
100
AcDbArc
 50
260.0000472348
 51
332.3995430525
  0
LINE
  5
8F
330
1F
100
AcDbEntity
  8
0
  6
CONTINUOUS
 62
     7
100
AcDbLine
 10
3.0620917906
 20
29.0490124233
 30
0.0
 11
3.2188713661
 21
29.0213690093
 31
0.0
  0
ARC
  5
90
330
1F
100
AcDbEntity
  8
0
  6
CONTINUOUS
 62
     7
100
AcDbCircle
 10
3.0689282814
 20
29.087784975
 30
0.0
 40
0.0393701149678264
100
AcDbArc
 50
187.6004766242
 51
260.0000472348
  0
ARC
  5
91
330
1F
100
AcDbEntity
  8
0
  6
CONTINUOUS
 62
     7
100
AcDbCircle
 10
2.8281490257
 20
29.0556561245
 30
0.0
 40
0.203543270858944
100
AcDbArc
 50
7.6004766242
 51
194.8878397487
  0
ARC
  5
92
330
1F
100
AcDbEntity
  8
0
  6
CONTINUOUS
 62
     7
100
AcDbCircle
 10
2.5933902096
 20
28.9932449822
 30
0.0
 40
0.0393700264954974
100
AcDbArc
 50
350.0
 51
14.8878397487
  0
LINE
  5
93
330
1F
100
AcDbEntity
  8
0
  6
CONTINUOUS
 62
     7
100
AcDbLine
 10
2.5903535868
 20
28.7492996189
 30
0.0
 11
2.6321621972
 21
28.9864087731
 31
0.0
  0
ARC
  5
94
330
1F
100
AcDbEntity
  8
0
  6
CONTINUOUS
 62
     7
100
AcDbCircle
 10
2.551581671
 20
28.7561369774
 30
0.0
 40
0.039370078740155
100
AcDbArc
 50
325.1121190957
 51
350.0
  0
ARC
  5
95
330
1F
100
AcDbEntity
  8
0
  6
CONTINUOUS
 62
     7
100
AcDbCircle
 10
2.7508369328
 20
28.6171972291
 30
0.0
 40
0.2035433070866171
100
AcDbArc
 50
145.1121190957
 51
173.9447490947
  0
LINE
  5
96
330
1F
100
AcDbEntity
  8
0
  6
CONTINUOUS
 62
     7
100
AcDbLine
 10
1.0215858094
 20
28.9078925602
 30
0.0
 11
2.5484294045
 21
28.6386696436
 31
0.0
  0
LINE
  5
97
330
1F
100
AcDbEntity
  8
0
  6
CONTINUOUS
 62
     7
100
AcDbLine
 10
1.0215858094
 20
28.9078925602
 30
0.0
 11
1.0215858094
 21
29.7201583768
 31
0.0
  0
LINE
  5
98
330
1F
100
AcDbEntity
  8
0
  6
CONTINUOUS
 62
     7
100
AcDbLine
 10
22.9136595569
 20
25.0477291531
 30
0.0
 11
23.9625300003
 21
24.8627857962
 31
0.0
  0
LINE
  5
99
330
1F
100
AcDbEntity
  8
0
  6
CONTINUOUS
 62
     7
100
AcDbLine
 10
23.9625300003
 20
25.7583549706
 30
0.0
 11
23.9625300003
 21
24.8627857962
 31
0.0
  0
ARC
  5
9A
330
1F
100
AcDbEntity
  8
0
  6
CONTINUOUS
 62
     7
100
AcDbCircle
 10
23.411349609
 20
22.4699080532
 30
0.0
 40
0.236220472440949
100
AcDbArc
 50
100.0
 51
180.0
  0
LINE
  5
9B
330
1F
100
AcDbEntity
  8
0
  6
CONTINUOUS
 62
     7
100
AcDbLine
 10
23.1751291764
 20
8.8345013564
 30
0.0
 11
23.1751291764
 21
22.4699080523
 31
0.0
  0
ARC
  5
9C
330
1F
100
AcDbEntity
  8
0
  6
CONTINUOUS
 62
     7
100
AcDbCircle
 10
23.411349609
 20
8.8345012945
 30
0.0
 40
0.2362204724409467
100
AcDbArc
 50
180.0
 51
260.0
  0
LINE
  5
9D
330
1F
100
AcDbEntity
  8
0
  6
CONTINUOUS
 62
     7
100
AcDbLine
 10
22.3877283525
 20
6.6988422943
 30
0.0
 11
23.9625300003
 21
6.9765224999
 31
0.0
  0
LINE
  5
9E
330
1F
100
AcDbEntity
  8
0
  6
CONTINUOUS
 62
     7
100
AcDbLine
 10
22.3877283525
 20
24.605565941
 30
0.0
 11
22.3877283525
 21
6.6988422943
 31
0.0
  0
ARC
  5
9F
330
1F
100
AcDbEntity
  8
0
  6
CONTINUOUS
 62
     7
100
AcDbCircle
 10
23.726310239
 20
8.2992361296
 30
0.0
 40
0.2362204724409449
100
AcDbArc
 50
0.0
 51
80.0
  0
LINE
  5
A0
330
1F
100
AcDbEntity
  8
0
  6
CONTINUOUS
 62
     7
100
AcDbLine
 10
23.9625300003
 20
8.2992363931
 30
0.0
 11
23.9625300003
 21
6.9765224999
 31
0.0
  0
LINE
  5
A1
330
1F
100
AcDbEntity
  8
0
  6
CONTINUOUS
 62
     7
100
AcDbLine
 10
23.3703296948
 20
22.7025398183
 30
0.0
 11
23.7673294819
 21
22.7725424229
 31
0.0
  0
ARC
  5
A2
330
1F
100
AcDbEntity
  8
0
  6
CONTINUOUS
 62
     7
100
AcDbCircle
 10
23.726310239
 20
23.0051732181
 30
0.0
 40
0.2362204724409449
100
AcDbArc
 50
280.0
 51
0.0
  0
LINE
  5
A3
330
1F
100
AcDbEntity
  8
0
  6
CONTINUOUS
 62
     7
100
AcDbLine
 10
23.7673294819
 20
8.5318681591
 30
0.0
 11
23.3703296948
 21
8.6018695904
 31
0.0
  0
LINE
  5
A4
330
1F
100
AcDbEntity
  8
0
  6
CONTINUOUS
 62
     7
100
AcDbLine
 10
23.9625300003
 20
24.3278857355
 30
0.0
 11
22.3877283525
 21
24.605565941
 31
0.0
  0
LINE
  5
A5
330
1F
100
AcDbEntity
  8
0
  6
CONTINUOUS
 62
     7
100
AcDbLine
 10
23.9625300003
 20
24.3278857355
 30
0.0
 11
23.9625300003
 21
23.0051741889
 31
0.0
  0
ARC
  5
A6
330
1F
100
AcDbEntity
  8
0
  6
CONTINUOUS
 62
     7
100
AcDbCircle
 10
1.257806302
 20
1.5842513927
 30
0.0
 40
0.2362204724409538
100
AcDbArc
 50
180.0
 51
280.0
  0
LINE
  5
A7
330
1F
100
AcDbEntity
  8
0
  6
CONTINUOUS
 62
     7
100
AcDbLine
 10
1.0215858094
 20
1.5842513252
 30
0.0
 11
1.0215858094
 21
2.3965171418
 31
0.0
  0
LINE
  5
A8
330
1F
100
AcDbEntity
  8
0
  6
CONTINUOUS
 62
     7
100
AcDbLine
 10
2.5484294045
 20
2.6657409384
 30
0.0
 11
1.0215858094
 21
2.3965171418
 31
0.0
  0
ARC
  5
A9
330
1F
100
AcDbEntity
  8
0
  6
CONTINUOUS
 62
     7
100
AcDbCircle
 10
2.7508369303
 20
2.6872119042
 30
0.0
 40
0.2035432708589479
100
AcDbArc
 50
186.0551907338
 51
214.8878397487
  0
ARC
  5
AA
330
1F
100
AcDbEntity
  8
0
  6
CONTINUOUS
 62
     7
100
AcDbCircle
 10
2.551581671
 20
2.5482723703
 30
0.0
 40
0.0393700264954977
100
AcDbArc
 50
10.0
 51
34.8878397487
  0
LINE
  5
AB
330
1F
100
AcDbEntity
  8
0
  6
CONTINUOUS
 62
     7
100
AcDbLine
 10
2.6321621972
 20
2.3180009289
 30
0.0
 11
2.5903535868
 21
2.5551089098
 31
0.0
  0
ARC
  5
AC
330
1F
100
AcDbEntity
  8
0
  6
CONTINUOUS
 62
     7
100
AcDbCircle
 10
2.5933902096
 20
2.3111643655
 30
0.0
 40
0.0393700787401569
100
AcDbArc
 50
345.1121190957
 51
10.0
  0
ARC
  5
AD
330
1F
100
AcDbEntity
  8
0
  6
CONTINUOUS
 62
     7
100
AcDbCircle
 10
2.8281491014
 20
2.2487530225
 30
0.0
 40
0.2035433070866151
100
AcDbArc
 50
165.1121190957
 51
352.3995430525
  0
ARC
  5
AE
330
1F
100
AcDbEntity
  8
0
  6
CONTINUOUS
 62
     7
100
AcDbCircle
 10
3.0689283681
 20
2.2166242547
 30
0.0
 40
0.0393700787401632
100
AcDbArc
 50
100.0000472348
 51
172.3995430525
  0
LINE
  5
AF
330
1F
100
AcDbEntity
  8
0
  6
CONTINUOUS
 62
     7
100
AcDbLine
 10
3.2188713661
 20
2.2830408394
 30
0.0
 11
3.0620917906
 21
2.2553962521
 31
0.0
  0
ARC
  5
B0
330
1F
100
AcDbEntity
  8
0
  6
CONTINUOUS
 62
     7
100
AcDbCircle
 10
3.2257080616
 20
2.2442688779
 30
0.0
 40
0.0393700787401608
100
AcDbArc
 50
27.6004766242
 51
100.0000472348
  0
ARC
  5
B1
330
1F
100
AcDbEntity
  8
0
  6
CONTINUOUS
 62
     7
100
AcDbCircle
 10
3.4409778374
 20
2.3568114772
 30
0.0
 40
0.2035433070866157
100
AcDbArc
 50
207.6004766242
 51
34.8879031485
  0
ARC
  5
B2
330
1F
100
AcDbEntity
  8
0
  6
CONTINUOUS
 62
     7
100
AcDbCircle
 10
3.6402330452
 20
2.4957513029
 30
0.0
 40
0.0393700787401624
100
AcDbArc
 50
190.0
 51
214.8879031485
  0
LINE
  5
B3
330
1F
100
AcDbEntity
  8
0
  6
CONTINUOUS
 62
     7
100
AcDbLine
 10
3.5596527094
 20
2.7260222954
 30
0.0
 11
3.6014610264
 21
2.4889147544
 31
0.0
  0
ARC
  5
B4
330
1F
100
AcDbEntity
  8
0
  6
CONTINUOUS
 62
     7
100
AcDbCircle
 10
3.5984259319
 20
2.7328589572
 30
0.0
 40
0.0393714215238418
100
AcDbArc
 50
165.1121889858
 51
190.0
  0
ARC
  5
B5
330
1F
100
AcDbEntity
  8
0
  6
CONTINUOUS
 62
     7
100
AcDbCircle
 10
3.3636656663
 20
2.7952703589
 30
0.0
 40
0.2035433070866184
100
AcDbArc
 50
345.1121889858
 51
13.9447490948
  0
LINE
  5
B6
330
1F
100
AcDbEntity
  8
0
  6
CONTINUOUS
 62
     7
100
AcDbLine
 10
21.9008780833
 20
6.0780998119
 30
0.0
 11
3.5612102914
 21
2.8443213821
 31
0.0
  0
ARC
  5
B7
330
1F
100
AcDbEntity
  8
0
  6
CONTINUOUS
 62
     7
100
AcDbCircle
 10
22.1032864022
 20
6.0995708889
 30
0.0
 40
0.203543270858948
100
AcDbArc
 50
186.0551907338
 51
214.8878397487
  0
ARC
  5
B8
330
1F
100
AcDbEntity
  8
0
  6
CONTINUOUS
 62
     7
100
AcDbCircle
 10
21.9040311429
 20
5.960631355
 30
0.0
 40
0.0393700264954961
100
AcDbArc
 50
10.0
 51
34.8878397487
  0
LINE
  5
B9
330
1F
100
AcDbEntity
  8
0
  6
CONTINUOUS
 62
     7
100
AcDbLine
 10
21.984610876
 20
5.7303600957
 30
0.0
 11
21.9428031457
 21
5.9674680766
 31
0.0
  0
ARC
  5
BA
330
1F
100
AcDbEntity
  8
0
  6
CONTINUOUS
 62
     7
100
AcDbCircle
 10
21.9458396815
 20
5.7235233502
 30
0.0
 40
0.0393700787401601
100
AcDbArc
 50
345.1121190957
 51
10.0
  0
ARC
  5
BB
330
1F
100
AcDbEntity
  8
0
  6
CONTINUOUS
 62
     7
100
AcDbCircle
 10
22.1805985733
 20
5.6611120072
 30
0.0
 40
0.2035433070866188
100
AcDbArc
 50
165.1121190957
 51
352.3995430525
  0
ARC
  5
BC
330
1F
100
AcDbEntity
  8
0
  6
CONTINUOUS
 62
     7
100
AcDbCircle
 10
22.42137784
 20
5.6289832394
 30
0.0
 40
0.0393700787401561
100
AcDbArc
 50
100.0000472348
 51
172.3995430525
  0
LINE
  5
BD
330
1F
100
AcDbEntity
  8
0
  6
CONTINUOUS
 62
     7
100
AcDbLine
 10
22.571320045
 20
5.6953998595
 30
0.0
 11
22.4145410561
 21
5.6677552722
 31
0.0
  0
ARC
  5
BE
330
1F
100
AcDbEntity
  8
0
  6
CONTINUOUS
 62
     7
100
AcDbCircle
 10
22.5781575335
 20
5.6566278626
 30
0.0
 40
0.0393700787401595
100
AcDbArc
 50
27.6004766242
 51
100.0000472348
  0
ARC
  5
BF
330
1F
100
AcDbEntity
  8
0
  6
CONTINUOUS
 62
     7
100
AcDbCircle
 10
22.7934273093
 20
5.7691704619
 30
0.0
 40
0.2035433070866139
100
AcDbArc
 50
207.6004766242
 51
34.8879031485
  0
ARC
  5
C0
330
1F
100
AcDbEntity
  8
0
  6
CONTINUOUS
 62
     7
100
AcDbCircle
 10
22.9926825171
 20
5.9081102876
 30
0.0
 40
0.0393700787401568
100
AcDbArc
 50
190.0
 51
214.8879031485
  0
LINE
  5
C1
330
1F
100
AcDbEntity
  8
0
  6
CONTINUOUS
 62
     7
100
AcDbLine
 10
22.9121013883
 20
6.1383808755
 30
0.0
 11
22.9539114653
 21
5.9012734813
 31
0.0
  0
ARC
  5
C2
330
1F
100
AcDbEntity
  8
0
  6
CONTINUOUS
 62
     7
100
AcDbCircle
 10
22.9508754038
 20
6.1452179419
 30
0.0
 40
0.0393714215238468
100
AcDbArc
 50
165.1121889858
 51
190.0
  0
ARC
  5
C3
330
1F
100
AcDbEntity
  8
0
  6
CONTINUOUS
 62
     7
100
AcDbCircle
 10
22.7161151382
 20
6.2076293436
 30
0.0
 40
0.2035433070866149
100
AcDbArc
 50
345.1121889858
 51
13.9447490948
  0
LINE
  5
C4
330
1F
100
AcDbEntity
  8
0
  6
CONTINUOUS
 62
     7
100
AcDbLine
 10
23.9625300003
 20
6.4416247857
 30
0.0
 11
22.9136595569
 21
6.2566802556
 31
0.0
  0
LINE
  5
C5
330
1F
100
AcDbEntity
  8
0
  6
CONTINUOUS
 62
     7
100
AcDbLine
 10
23.9625300003
 20
6.4416247857
 30
0.0
 11
23.9625300003
 21
5.5460550248
 31
0.0
  0
LINE
  5
C6
330
1F
100
AcDbEntity
  8
0
  6
CONTINUOUS
 62
     7
100
AcDbLine
 10
23.7673294819
 20
5.3134232588
 30
0.0
 11
1.2988255067
 21
1.3516196326
 31
0.0
  0
ARC
  5
C7
330
1F
100
AcDbEntity
  8
0
  6
CONTINUOUS
 62
     7
100
AcDbCircle
 10
23.726310239
 20
5.546054853
 30
0.0
 40
0.236220472440948
100
AcDbArc
 50
280.0
 51
0.0
  0
LINE
  5
C8
330
1F
100
AcDbEntity
  8
0
  6
CONTINUOUS
 62
     7
100
AcDbLine
 10
1.0215858094
 20
2.9314151493
 30
0.0
 11
1.0215858094
 21
28.372994846
 31
0.0
  0
LINE
  5
C9
330
1F
100
AcDbEntity
  8
0
  6
CONTINUOUS
 62
     7
100
AcDbLine
 10
21.8743422832
 20
24.6960899086
 30
0.0
 11
1.0215858094
 21
28.372994846
 31
0.0
  0
LINE
  5
CA
330
1F
100
AcDbEntity
  8
0
  6
CONTINUOUS
 62
     7
100
AcDbLine
 10
21.8743422832
 20
6.6083183267
 30
0.0
 11
21.8743422832
 21
24.6960899086
 31
0.0
  0
LINE
  5
CB
330
1F
100
AcDbEntity
  8
0
  6
CONTINUOUS
 62
     7
100
AcDbLine
 10
1.0215858094
 20
2.9314151493
 30
0.0
 11
21.8743422832
 21
6.6083183267
 31
0.0
  0
ARC
  5
CC
330
1F
100
AcDbEntity
  8
0
  6
CONTINUOUS
 62
     7
100
AcDbCircle
 10
22.4753358715
 20
6.2397581114
 30
0.0
 40
0.0393700787401596
100
AcDbArc
 50
280.0000472348
 51
352.3995430525
  0
LINE
  5
CD
330
1F
100
AcDbEntity
  8
0
  6
CONTINUOUS
 62
     7
100
AcDbLine
 10
22.4821735548
 20
6.2009862856
 30
0.0
 11
22.3253922193
 21
6.1733416983
 31
0.0
  0
ARC
  5
CE
330
1F
100
AcDbEntity
  8
0
  6
CONTINUOUS
 62
     7
100
AcDbCircle
 10
22.318556178
 20
6.2121134882
 30
0.0
 40
0.0393700787401584
100
AcDbArc
 50
207.6004766242
 51
280.0000472348
  0
ARC
  5
CF
330
1F
100
AcDbEntity
  8
0
  6
CONTINUOUS
 62
     7
100
AcDbCircle
 10
3.1228863996
 20
2.8273991267
 30
0.0
 40
0.0393700787401605
100
AcDbArc
 50
280.0000472348
 51
352.3995430525
  0
LINE
  5
D0
330
1F
100
AcDbEntity
  8
0
  6
CONTINUOUS
 62
     7
100
AcDbLine
 10
3.129723116
 20
2.7886271188
 30
0.0
 11
2.9729432471
 21
2.7609825315
 31
0.0
  0
ARC
  5
D1
330
1F
100
AcDbEntity
  8
0
  6
CONTINUOUS
 62
     7
100
AcDbCircle
 10
2.9661067061
 20
2.7997545035
 30
0.0
 40
0.0393700787401556
100
AcDbArc
 50
207.6004766242
 51
280.0000472348
  0
ARC
  5
D2
330
1F
100
AcDbEntity
  8
0
  6
CONTINUOUS
 62
     7
100
AcDbCircle
 10
2.9661067472
 20
28.5046547037
 30
0.0
 40
0.0393700787401594
100
AcDbArc
 50
80.0000472348
 51
152.3995430525
  0
LINE
  5
D3
330
1F
100
AcDbEntity
  8
0
  6
CONTINUOUS
 62
     7
100
AcDbLine
 10
2.9729432471
 20
28.5434265838
 30
0.0
 11
3.129723116
 21
28.5157831698
 31
0.0
  0
ARC
  5
D4
330
1F
100
AcDbEntity
  8
0
  6
CONTINUOUS
 62
     7
100
AcDbCircle
 10
3.1228864863
 20
28.477010339
 30
0.0
 40
0.0393700787401579
100
AcDbArc
 50
7.6004766242
 51
80.0000472348
  0
ARC
  5
D5
330
1F
100
AcDbEntity
  8
0
  6
CONTINUOUS
 62
     7
100
AcDbCircle
 10
22.3185562191
 20
25.092295719
 30
0.0
 40
0.0393700787401586
100
AcDbArc
 50
80.0000472348
 51
152.3995430525
  0
LINE
  5
D6
330
1F
100
AcDbEntity
  8
0
  6
CONTINUOUS
 62
     7
100
AcDbLine
 10
22.3253922193
 20
25.1310677104
 30
0.0
 11
22.4821735548
 21
25.1034242964
 31
0.0
  0
ARC
  5
D7
330
1F
100
AcDbEntity
  8
0
  6
CONTINUOUS
 62
     7
100
AcDbCircle
 10
22.4753359582
 20
25.0646513543
 30
0.0
 40
0.0393700787401579
100
AcDbArc
 50
7.6004766242
 51
80.0000472348
  0
LINE
  5
D8
330
1F
100
AcDbEntity
  8
0
  6
CONTINUOUS
 62
     7
100
AcDbLine
 10
1.0215858094
 20
2.9314151493
 30
0.0
 11
1.0215858094
 21
2.3965171418
 31
0.0
  0
LINE
  5
D9
330
1F
100
AcDbEntity
  8
0
  6
CONTINUOUS
 62
     7
100
AcDbLine
 10
1.0215858094
 20
28.9078925602
 30
0.0
 11
1.0215858094
 21
28.372994846
 31
0.0
  0
ARC
  5
DA
330
1F
100
AcDbEntity
  8
0
  6
CONTINUOUS
 62
     7
100
AcDbCircle
 10
2.7508369328
 20
28.6171972291
 30
0.0
 40
0.2035433070866142
100
AcDbArc
 50
173.9447490946
 51
332.3995430525
  0
ARC
  5
DB
330
1F
100
AcDbEntity
  8
0
  6
CONTINUOUS
 62
     7
100
AcDbCircle
 10
2.7508369303
 20
2.6872119042
 30
0.0
 40
0.2035433070866134
100
AcDbArc
 50
27.6004766242
 51
186.0551907338
  0
ARC
  5
DC
330
1F
100
AcDbEntity
  8
0
  6
CONTINUOUS
 62
     7
100
AcDbCircle
 10
3.3636656663
 20
2.7952703589
 30
0.0
 40
0.2035433070866183
100
AcDbArc
 50
13.9447490947
 51
172.3995430525
  0
ARC
  5
DD
330
1F
100
AcDbEntity
  8
0
  6
CONTINUOUS
 62
     7
100
AcDbCircle
 10
3.363665742
 20
28.5091391895
 30
0.0
 40
0.2035433070866155
100
AcDbArc
 50
187.6004766242
 51
346.0551914374
  0
ARC
  5
DE
330
1F
100
AcDbEntity
  8
0
  6
CONTINUOUS
 62
     7
100
AcDbCircle
 10
22.1032864022
 20
6.0995708889
 30
0.0
 40
0.2035433070866138
100
AcDbArc
 50
27.6004766242
 51
186.0551907338
  0
ARC
  5
DF
330
1F
100
AcDbEntity
  8
0
  6
CONTINUOUS
 62
     7
100
AcDbCircle
 10
22.1032864047
 20
25.2048382444
 30
0.0
 40
0.2035433070866174
100
AcDbArc
 50
173.9447490921
 51
332.3995430525
  0
ARC
  5
E0
330
1F
100
AcDbEntity
  8
0
  6
CONTINUOUS
 62
     7
100
AcDbCircle
 10
22.7161152139
 20
25.0967802048
 30
0.0
 40
0.2035433070866161
100
AcDbArc
 50
187.6004766242
 51
346.0551914398
  0
ARC
  5
E1
330
1F
100
AcDbEntity
  8
0
  6
CONTINUOUS
 62
     7
100
AcDbCircle
 10
22.7161151382
 20
6.2076293436
 30
0.0
 40
0.2035433070866184
100
AcDbArc
 50
13.9447490947
 51
172.3995430525
  0
LINE
  5
E2
330
1F
100
AcDbEntity
  8
0
  6
CONTINUOUS
 62
     7
100
AcDbLine
 10
23.9625300003
 20
6.4416247857
 30
0.0
 11
23.9625300003
 21
6.9765224999
 31
0.0
  0
LINE
  5
E3
330
1F
100
AcDbEntity
  8
0
  6
CONTINUOUS
 62
     7
100
AcDbLine
 10
23.9625300003
 20
24.3278857355
 30
0.0
 11
23.9625300003
 21
24.8627857962
 31
0.0
  0
LINE
  5
E4
330
1F
100
AcDbEntity
  8
0
  6
CONTINUOUS
 62
     7
100
AcDbLine
 10
88.9908008681
 20
37.8953249499
 30
0.0
 11
88.9908008681
 21
33.2516256343
 31
0.0
  0
ARC
  5
E5
330
1F
100
AcDbEntity
  8
0
  6
CONTINUOUS
 62
     7
100
AcDbCircle
 10
88.5183574831
 20
37.8953252863
 30
0.0
 40
0.4724409448818889
100
AcDbArc
 50
0.0
 51
90.0
  0
LINE
  5
E6
330
1F
100
AcDbEntity
  8
0
  6
CONTINUOUS
 62
     7
100
AcDbLine
 10
82.6110951537
 20
38.3677668522
 30
0.0
 11
88.5183566192
 21
38.3677668522
 31
0.0
  0
ARC
  5
E7
330
1F
100
AcDbEntity
  8
0
  6
CONTINUOUS
 62
     7
100
AcDbCircle
 10
82.6110976162
 20
39.1177662312
 30
0.0
 40
0.75
100
AcDbArc
 50
210.0
 51
270.0
  0
ARC
  5
E8
330
1F
100
AcDbEntity
  8
0
  6
CONTINUOUS
 62
     7
100
AcDbCircle
 10
81.3120595105
 20
38.3677662312
 30
0.0
 40
0.75
100
AcDbArc
 50
30.0
 51
90.0
  0
LINE
  5
E9
330
1F
100
AcDbEntity
  8
0
  6
CONTINUOUS
 62
     7
100
AcDbLine
 10
77.0185462127
 20
39.1177669348
 30
0.0
 11
81.3120612003
 21
39.1177669348
 31
0.0
  0
ARC
  5
EA
330
1F
100
AcDbEntity
  8
0
  6
CONTINUOUS
 62
     7
100
AcDbCircle
 10
77.0185451464
 20
38.3677662312
 30
0.0
 40
0.75
100
AcDbArc
 50
90.0
 51
150.0
  0
ARC
  5
EB
330
1F
100
AcDbEntity
  8
0
  6
CONTINUOUS
 62
     7
100
AcDbCircle
 10
75.7195070407
 20
39.1177662312
 30
0.0
 40
0.75
100
AcDbArc
 50
270.0
 51
330.0
  0
LINE
  5
EC
330
1F
100
AcDbEntity
  8
0
  6
CONTINUOUS
 62
     7
100
AcDbLine
 10
69.8122461004
 20
38.3677668522
 30
0.0
 11
75.7195075659
 21
38.3677668522
 31
0.0
  0
ARC
  5
ED
330
1F
100
AcDbEntity
  8
0
  6
CONTINUOUS
 62
     7
100
AcDbCircle
 10
69.8122471739
 20
37.8953252863
 30
0.0
 40
0.4724409448818889
100
AcDbArc
 50
90.0
 51
180.0
  0
LINE
  5
EE
330
1F
100
AcDbEntity
  8
0
  6
CONTINUOUS
 62
     7
100
AcDbLine
 10
69.3398065448
 20
33.2516256343
 30
0.0
 11
69.3398065448
 21
37.8953249499
 31
0.0
  0
LINE
  5
EF
330
1F
100
AcDbEntity
  8
0
  6
CONTINUOUS
 62
     7
100
AcDbLine
 10
68.6016194457
 20
33.4705225189
 30
0.0
 11
68.8108223623
 21
33.4839124443
 31
0.0
  0
ARC
  5
F0
330
1F
100
AcDbEntity
  8
0
  6
CONTINUOUS
 62
     7
100
AcDbCircle
 10
68.808310166
 20
33.5232011094
 30
0.0
 40
0.0393700787401627
100
AcDbArc
 50
273.6619355755
 51
0.0
  0
LINE
  5
F1
330
1F
100
AcDbEntity
  8
0
  6
CONTINUOUS
 62
     7
100
AcDbLine
 10
68.8476786832
 20
33.5232022304
 30
0.0
 11
68.8476786832
 21
33.8633452877
 31
0.0
  0
ARC
  5
F2
330
1F
100
AcDbEntity
  8
0
  6
CONTINUOUS
 62
     7
100
AcDbCircle
 10
68.8870503235
 20
33.8633458224
 30
0.0
 40
0.0393700787401627
100
AcDbArc
 50
155.1121079736
 51
180.0
  0
ARC
  5
F3
330
1F
100
AcDbEntity
  8
0
  6
CONTINUOUS
 62
     7
100
AcDbCircle
 10
68.6666955826
 20
33.9655744934
 30
0.0
 40
0.2035433070866209
100
AcDbArc
 50
335.1121079736
 51
162.3995332141
  0
ARC
  5
F4
330
1F
100
AcDbEntity
  8
0
  6
CONTINUOUS
 62
     7
100
AcDbCircle
 10
68.4351534085
 20
34.0390260737
 30
0.0
 40
0.039370078740159
100
AcDbArc
 50
270.0
 51
342.3995332141
  0
LINE
  5
F5
330
1F
100
AcDbEntity
  8
0
  6
CONTINUOUS
 62
     7
100
AcDbLine
 10
68.3554757292
 20
33.9996568863
 30
0.0
 11
68.4351535287
 21
33.9996568863
 31
0.0
  0
LINE
  5
F6
330
1F
100
AcDbEntity
  8
0
  6
CONTINUOUS
 62
     7
100
AcDbLine
 10
68.3554757292
 20
38.6453250325
 30
0.0
 11
68.3554757292
 21
33.9996568863
 31
0.0
  0
ARC
  5
F7
330
1F
100
AcDbEntity
  8
0
  6
CONTINUOUS
 62
     7
100
AcDbCircle
 10
68.8279164652
 20
38.6453252863
 30
0.0
 40
0.472440944881896
100
AcDbArc
 50
90.0
 51
180.0
  0
LINE
  5
F8
330
1F
100
AcDbEntity
  8
0
  6
CONTINUOUS
 62
     7
100
AcDbLine
 10
75.2470680103
 20
39.1177669348
 30
0.0
 11
68.8279152849
 21
39.1177669348
 31
0.0
  0
ARC
  5
F9
330
1F
100
AcDbEntity
  8
0
  6
CONTINUOUS
 62
     7
100
AcDbCircle
 10
75.2470660958
 20
39.5902071761
 30
0.0
 40
0.472440944881896
100
AcDbArc
 50
270.0
 51
0.0
  0
LINE
  5
FA
330
1F
100
AcDbEntity
  8
0
  6
CONTINUOUS
 62
     7
100
AcDbLine
 10
75.7195075659
 20
40.6138270922
 30
0.0
 11
75.7195075659
 21
39.5902088371
 31
0.0
  0
ARC
  5
FB
330
1F
100
AcDbEntity
  8
0
  6
CONTINUOUS
 62
     7
100
AcDbCircle
 10
75.2470660958
 20
40.6138292233
 30
0.0
 40
0.472440944881896
100
AcDbArc
 50
0.0
 51
90.0
  0
LINE
  5
FC
330
1F
100
AcDbEntity
  8
0
  6
CONTINUOUS
 62
     7
100
AcDbLine
 10
68.8279152849
 20
41.0862713412
 30
0.0
 11
75.2470680103
 21
41.0862713412
 31
0.0
  0
ARC
  5
FD
330
1F
100
AcDbEntity
  8
0
  6
CONTINUOUS
 62
     7
100
AcDbCircle
 10
68.8279164652
 20
41.5587111131
 30
0.0
 40
0.472440944881896
100
AcDbArc
 50
180.0
 51
270.0
  0
LINE
  5
FE
330
1F
100
AcDbEntity
  8
0
  6
CONTINUOUS
 62
     7
100
AcDbLine
 10
68.3554757292
 20
46.2043813896
 30
0.0
 11
68.3554757292
 21
41.5587108968
 31
0.0
  0
LINE
  5
FF
330
1F
100
AcDbEntity
  8
0
  6
CONTINUOUS
 62
     7
100
AcDbLine
 10
68.4351535287
 20
46.2043813896
 30
0.0
 11
68.3554757292
 21
46.2043813896
 31
0.0
  0
ARC
  5
100
330
1F
100
AcDbEntity
  8
0
  6
CONTINUOUS
 62
     7
100
AcDbCircle
 10
68.4351534085
 20
46.1650103257
 30
0.0
 40
0.0393700787401627
100
AcDbArc
 50
17.6004667859
 51
90.0
  0
ARC
  5
101
330
1F
100
AcDbEntity
  8
0
  6
CONTINUOUS
 62
     7
100
AcDbCircle
 10
68.6666955826
 20
46.238461906
 30
0.0
 40
0.2035433070866209
100
AcDbArc
 50
197.6004667859
 51
24.8878920264
  0
ARC
  5
102
330
1F
100
AcDbEntity
  8
0
  6
CONTINUOUS
 62
     7
100
AcDbCircle
 10
68.8870503235
 20
46.340690577
 30
0.0
 40
0.0393700787401611
100
AcDbArc
 50
180.0
 51
204.8878920264
  0
LINE
  5
103
330
1F
100
AcDbEntity
  8
0
  6
CONTINUOUS
 62
     7
100
AcDbLine
 10
68.8476786832
 20
46.340688295
 30
0.0
 11
68.8476786832
 21
46.680833699
 31
0.0
  0
ARC
  5
104
330
1F
100
AcDbEntity
  8
0
  6
CONTINUOUS
 62
     7
100
AcDbCircle
 10
68.808310166
 20
46.68083529
 30
0.0
 40
0.0393700787401627
100
AcDbArc
 50
0.0
 51
86.3380644245
  0
LINE
  5
105
330
1F
100
AcDbEntity
  8
0
  6
CONTINUOUS
 62
     7
100
AcDbLine
 10
68.8108223623
 20
46.7201258317
 30
0.0
 11
68.6016194457
 21
46.733515757
 31
0.0
  0
LINE
  5
106
330
1F
100
AcDbEntity
  8
0
  6
CONTINUOUS
 62
     7
100
AcDbLine
 10
68.6016194457
 20
46.733515757
 30
0.0
 11
68.6016194457
 21
47.149260501
 31
0.0
  0
ARC
  5
107
330
1F
100
AcDbEntity
  8
0
  6
CONTINUOUS
 62
     7
100
AcDbCircle
 10
68.6409873314
 20
47.1492622942
 30
0.0
 40
0.0393700787401627
100
AcDbArc
 50
90.0
 51
180.0
  0
LINE
  5
108
330
1F
100
AcDbEntity
  8
0
  6
CONTINUOUS
 62
     7
100
AcDbLine
 10
69.1035844203
 20
47.1886324195
 30
0.0
 11
68.6409866709
 21
47.1886324195
 31
0.0
  0
ARC
  5
109
330
1F
100
AcDbEntity
  8
0
  6
CONTINUOUS
 62
     7
100
AcDbCircle
 10
69.1035857566
 20
46.9524119005
 30
0.0
 40
0.2362204724409622
100
AcDbArc
 50
0.0
 51
90.0
  0
LINE
  5
10A
330
1F
100
AcDbEntity
  8
0
  6
CONTINUOUS
 62
     7
100
AcDbLine
 10
69.3398065448
 20
42.3087109794
 30
0.0
 11
69.3398065448
 21
46.952410295
 31
0.0
  0
ARC
  5
10B
330
1F
100
AcDbEntity
  8
0
  6
CONTINUOUS
 62
     7
100
AcDbCircle
 10
69.8122471739
 20
42.3087111131
 30
0.0
 40
0.472440944881896
100
AcDbArc
 50
180.0
 51
270.0
  0
LINE
  5
10C
330
1F
100
AcDbEntity
  8
0
  6
CONTINUOUS
 62
     7
100
AcDbLine
 10
75.7195075659
 20
41.8362714238
 30
0.0
 11
69.8122461004
 21
41.8362714238
 31
0.0
  0
ARC
  5
10D
330
1F
100
AcDbEntity
  8
0
  6
CONTINUOUS
 62
     7
100
AcDbCircle
 10
75.7195070407
 20
41.0862701682
 30
0.0
 40
0.75
100
AcDbArc
 50
30.0
 51
90.0
  0
ARC
  5
10E
330
1F
100
AcDbEntity
  8
0
  6
CONTINUOUS
 62
     7
100
AcDbCircle
 10
77.0185451464
 20
41.8362701682
 30
0.0
 40
0.75
100
AcDbArc
 50
210.0
 51
270.0
  0
LINE
  5
10F
330
1F
100
AcDbEntity
  8
0
  6
CONTINUOUS
 62
     7
100
AcDbLine
 10
81.3120612003
 20
41.0862713412
 30
0.0
 11
77.0185462127
 21
41.0862713412
 31
0.0
  0
ARC
  5
110
330
1F
100
AcDbEntity
  8
0
  6
CONTINUOUS
 62
     7
100
AcDbCircle
 10
81.3120595105
 20
41.8362701682
 30
0.0
 40
0.75
100
AcDbArc
 50
270.0
 51
330.0
  0
ARC
  5
111
330
1F
100
AcDbEntity
  8
0
  6
CONTINUOUS
 62
     7
100
AcDbCircle
 10
82.6110976162
 20
41.0862701682
 30
0.0
 40
0.75
100
AcDbArc
 50
90.0
 51
150.0
  0
LINE
  5
112
330
1F
100
AcDbEntity
  8
0
  6
CONTINUOUS
 62
     7
100
AcDbLine
 10
88.5183566192
 20
41.8362714238
 30
0.0
 11
82.6110951537
 21
41.8362714238
 31
0.0
  0
ARC
  5
113
330
1F
100
AcDbEntity
  8
0
  6
CONTINUOUS
 62
     7
100
AcDbCircle
 10
88.5183574831
 20
42.3087111131
 30
0.0
 40
0.4724409448818818
100
AcDbArc
 50
270.0
 51
0.0
  0
LINE
  5
114
330
1F
100
AcDbEntity
  8
0
  6
CONTINUOUS
 62
     7
100
AcDbLine
 10
88.9908008681
 20
46.952410295
 30
0.0
 11
88.9908008681
 21
42.3087109794
 31
0.0
  0
ARC
  5
115
330
1F
100
AcDbEntity
  8
0
  6
CONTINUOUS
 62
     7
100
AcDbCircle
 10
89.2270189004
 20
46.9524119005
 30
0.0
 40
0.236220472440948
100
AcDbArc
 50
90.0
 51
180.0
  0
LINE
  5
116
330
1F
100
AcDbEntity
  8
0
  6
CONTINUOUS
 62
     7
100
AcDbLine
 10
89.689620742
 20
47.1886324195
 30
0.0
 11
89.2270229926
 21
47.1886324195
 31
0.0
  0
ARC
  5
117
330
1F
100
AcDbEntity
  8
0
  6
CONTINUOUS
 62
     7
100
AcDbCircle
 10
89.6896173256
 20
47.1492622942
 30
0.0
 40
0.0393700787401556
100
AcDbArc
 50
0.0
 51
90.0
  0
LINE
  5
118
330
1F
100
AcDbEntity
  8
0
  6
CONTINUOUS
 62
     7
100
AcDbLine
 10
89.7289879672
 20
47.149260501
 30
0.0
 11
89.7289879672
 21
46.733515757
 31
0.0
  0
LINE
  5
119
330
1F
100
AcDbEntity
  8
0
  6
CONTINUOUS
 62
     7
100
AcDbLine
 10
89.7289879672
 20
46.733515757
 30
0.0
 11
89.5197803573
 21
46.7201258317
 31
0.0
  0
ARC
  5
11A
330
1F
100
AcDbEntity
  8
0
  6
CONTINUOUS
 62
     7
100
AcDbCircle
 10
89.5222944909
 20
46.68083529
 30
0.0
 40
0.0393700787401572
100
AcDbArc
 50
93.6619355755
 51
180.0
  0
LINE
  5
11B
330
1F
100
AcDbEntity
  8
0
  6
CONTINUOUS
 62
     7
100
AcDbLine
 10
89.4829287297
 20
46.680833699
 30
0.0
 11
89.4829287297
 21
46.340688295
 31
0.0
  0
ARC
  5
11C
330
1F
100
AcDbEntity
  8
0
  6
CONTINUOUS
 62
     7
100
AcDbCircle
 10
89.4435543335
 20
46.340690577
 30
0.0
 40
0.0393700787401627
100
AcDbArc
 50
335.1121079736
 51
0.0
  0
ARC
  5
11D
330
1F
100
AcDbEntity
  8
0
  6
CONTINUOUS
 62
     7
100
AcDbCircle
 10
89.6639090744
 20
46.238461906
 30
0.0
 40
0.2035433070866333
100
AcDbArc
 50
155.1121079736
 51
342.3995332141
  0
ARC
  5
11E
330
1F
100
AcDbEntity
  8
0
  6
CONTINUOUS
 62
     7
100
AcDbCircle
 10
89.8954512484
 20
46.1650103257
 30
0.0
 40
0.0393700787401556
100
AcDbArc
 50
90.0
 51
162.3995332141
  0
LINE
  5
11F
330
1F
100
AcDbEntity
  8
0
  6
CONTINUOUS
 62
     7
100
AcDbLine
 10
89.9751316837
 20
46.2043813896
 30
0.0
 11
89.8954491909
 21
46.2043813896
 31
0.0
  0
LINE
  5
120
330
1F
100
AcDbEntity
  8
0
  6
CONTINUOUS
 62
     7
100
AcDbLine
 10
89.9751316837
 20
41.5587108968
 30
0.0
 11
89.9751316837
 21
46.2043813896
 31
0.0
  0
ARC
  5
121
330
1F
100
AcDbEntity
  8
0
  6
CONTINUOUS
 62
     7
100
AcDbCircle
 10
89.5026881917
 20
41.5587111131
 30
0.0
 40
0.4724409448818889
100
AcDbArc
 50
270.0
 51
0.0
  0
LINE
  5
122
330
1F
100
AcDbEntity
  8
0
  6
CONTINUOUS
 62
     7
100
AcDbLine
 10
83.0835394027
 20
41.0862713412
 30
0.0
 11
89.5026874348
 21
41.0862713412
 31
0.0
  0
ARC
  5
123
330
1F
100
AcDbEntity
  8
0
  6
CONTINUOUS
 62
     7
100
AcDbCircle
 10
83.0835385611
 20
40.6138292233
 30
0.0
 40
0.472440944881896
100
AcDbArc
 50
90.0
 51
180.0
  0
LINE
  5
124
330
1F
100
AcDbEntity
  8
0
  6
CONTINUOUS
 62
     7
100
AcDbLine
 10
82.6110951537
 20
39.5902088371
 30
0.0
 11
82.6110951537
 21
40.6138270922
 31
0.0
  0
ARC
  5
125
330
1F
100
AcDbEntity
  8
0
  6
CONTINUOUS
 62
     7
100
AcDbCircle
 10
83.0835385611
 20
39.5902071761
 30
0.0
 40
0.472440944881896
100
AcDbArc
 50
180.0
 51
270.0
  0
LINE
  5
126
330
1F
100
AcDbEntity
  8
0
  6
CONTINUOUS
 62
     7
100
AcDbLine
 10
89.5026874348
 20
39.1177669348
 30
0.0
 11
83.0835394027
 21
39.1177669348
 31
0.0
  0
ARC
  5
127
330
1F
100
AcDbEntity
  8
0
  6
CONTINUOUS
 62
     7
100
AcDbCircle
 10
89.5026881917
 20
38.6453252863
 30
0.0
 40
0.4724409448818889
100
AcDbArc
 50
0.0
 51
90.0
  0
LINE
  5
128
330
1F
100
AcDbEntity
  8
0
  6
CONTINUOUS
 62
     7
100
AcDbLine
 10
89.9751316837
 20
33.9996568863
 30
0.0
 11
89.9751316837
 21
38.6453250325
 31
0.0
  0
LINE
  5
129
330
1F
100
AcDbEntity
  8
0
  6
CONTINUOUS
 62
     7
100
AcDbLine
 10
89.8954491909
 20
33.9996568863
 30
0.0
 11
89.9751316837
 21
33.9996568863
 31
0.0
  0
ARC
  5
12A
330
1F
100
AcDbEntity
  8
0
  6
CONTINUOUS
 62
     7
100
AcDbCircle
 10
89.8954512484
 20
34.0390260737
 30
0.0
 40
0.0393700787401556
100
AcDbArc
 50
197.6004667859
 51
270.0
  0
ARC
  5
12B
330
1F
100
AcDbEntity
  8
0
  6
CONTINUOUS
 62
     7
100
AcDbCircle
 10
89.6639090744
 20
33.9655744934
 30
0.0
 40
0.2035433070866337
100
AcDbArc
 50
17.6004667859
 51
204.8878920264
  0
ARC
  5
12C
330
1F
100
AcDbEntity
  8
0
  6
CONTINUOUS
 62
     7
100
AcDbCircle
 10
89.4435543335
 20
33.8633458224
 30
0.0
 40
0.0393700787401627
100
AcDbArc
 50
0.0
 51
24.8878920264
  0
LINE
  5
12D
330
1F
100
AcDbEntity
  8
0
  6
CONTINUOUS
 62
     7
100
AcDbLine
 10
89.4829287297
 20
33.8633452877
 30
0.0
 11
89.4829287297
 21
33.5232022304
 31
0.0
  0
ARC
  5
12E
330
1F
100
AcDbEntity
  8
0
  6
CONTINUOUS
 62
     7
100
AcDbCircle
 10
89.5222944909
 20
33.5232011094
 30
0.0
 40
0.0393700787401572
100
AcDbArc
 50
180.0
 51
266.3380644245
  0
LINE
  5
12F
330
1F
100
AcDbEntity
  8
0
  6
CONTINUOUS
 62
     7
100
AcDbLine
 10
89.5197803573
 20
33.4839124443
 30
0.0
 11
89.7289879672
 21
33.4705225189
 31
0.0
  0
ARC
  5
130
330
1F
100
AcDbEntity
  8
0
  6
CONTINUOUS
 62
     7
100
AcDbCircle
 10
89.6896173256
 20
33.0547741052
 30
0.0
 40
0.0393700787401627
100
AcDbArc
 50
270.0
 51
0.0
  0
ARC
  5
131
330
1F
100
AcDbEntity
  8
0
  6
CONTINUOUS
 62
     7
100
AcDbCircle
 10
69.1035857566
 20
33.2516244989
 30
0.0
 40
0.236220472440948
100
AcDbArc
 50
270.0
 51
0.0
  0
LINE
  5
132
330
1F
100
AcDbEntity
  8
0
  6
CONTINUOUS
 62
     7
100
AcDbLine
 10
68.6409866709
 20
33.0154035098
 30
0.0
 11
69.1035844203
 21
33.0154035098
 31
0.0
  0
LINE
  5
133
330
1F
100
AcDbEntity
  8
0
  6
CONTINUOUS
 62
     7
100
AcDbLine
 10
68.6016194457
 20
33.0547730817
 30
0.0
 11
68.6016194457
 21
33.4705225189
 31
0.0
  0
LINE
  5
134
330
1F
100
AcDbEntity
  8
0
  6
CONTINUOUS
 62
     7
100
AcDbLine
 10
89.2270229926
 20
33.0154035098
 30
0.0
 11
89.689620742
 21
33.0154035098
 31
0.0
  0
ARC
  5
135
330
1F
100
AcDbEntity
  8
0
  6
CONTINUOUS
 62
     7
100
AcDbCircle
 10
68.6409873314
 20
33.0547741052
 30
0.0
 40
0.0393700787401627
100
AcDbArc
 50
180.0
 51
270.0
  0
LINE
  5
136
330
1F
100
AcDbEntity
  8
0
  6
CONTINUOUS
 62
     7
100
AcDbLine
 10
89.7289879672
 20
33.4705225189
 30
0.0
 11
89.7289879672
 21
33.0547730817
 31
0.0
  0
ARC
  5
137
330
1F
100
AcDbEntity
  8
0
  6
CONTINUOUS
 62
     7
100
AcDbCircle
 10
89.2270189004
 20
33.2516244989
 30
0.0
 40
0.236220472440948
100
AcDbArc
 50
180.0
 51
270.0
  0
ARC
  5
138
330
1F
100
AcDbEntity
  8
0
  6
CONTINUOUS
 62
     7
100
AcDbCircle
 10
46.2447195419
 20
46.9524119005
 30
0.0
 40
0.2362204724409409
100
AcDbArc
 50
0.0
 51
90.0
  0
LINE
  5
139
330
1F
100
AcDbEntity
  8
0
  6
CONTINUOUS
 62
     7
100
AcDbLine
 10
46.4809418657
 20
42.3087109794
 30
0.0
 11
46.4809418657
 21
46.952410295
 31
0.0
  0
ARC
  5
13A
330
1F
100
AcDbEntity
  8
0
  6
CONTINUOUS
 62
     7
100
AcDbCircle
 10
46.9533809592
 20
42.3087111131
 30
0.0
 40
0.4724409448818889
100
AcDbArc
 50
180.0
 51
270.0
  0
LINE
  5
13B
330
1F
100
AcDbEntity
  8
0
  6
CONTINUOUS
 62
     7
100
AcDbLine
 10
52.8606428868
 20
41.8362714238
 30
0.0
 11
46.9533814213
 21
41.8362714238
 31
0.0
  0
ARC
  5
13C
330
1F
100
AcDbEntity
  8
0
  6
CONTINUOUS
 62
     7
100
AcDbCircle
 10
52.860640826
 20
41.0862701682
 30
0.0
 40
0.7500000000000062
100
AcDbArc
 50
30.0
 51
90.0
  0
ARC
  5
13D
330
1F
100
AcDbEntity
  8
0
  6
CONTINUOUS
 62
     7
100
AcDbCircle
 10
54.1596789317
 20
41.8362701682
 30
0.0
 40
0.75
100
AcDbArc
 50
210.0
 51
270.0
  0
LINE
  5
13E
330
1F
100
AcDbEntity
  8
0
  6
CONTINUOUS
 62
     7
100
AcDbLine
 10
58.4531918279
 20
41.0862713412
 30
0.0
 11
54.1596768403
 21
41.0862713412
 31
0.0
  0
ARC
  5
13F
330
1F
100
AcDbEntity
  8
0
  6
CONTINUOUS
 62
     7
100
AcDbCircle
 10
58.4531932959
 20
41.8362701682
 30
0.0
 40
0.75
100
AcDbArc
 50
270.0
 51
330.0
  0
ARC
  5
140
330
1F
100
AcDbEntity
  8
0
  6
CONTINUOUS
 62
     7
100
AcDbCircle
 10
59.7522314015
 20
41.0862701682
 30
0.0
 40
0.75
100
AcDbArc
 50
90.0
 51
150.0
  0
LINE
  5
141
330
1F
100
AcDbEntity
  8
0
  6
CONTINUOUS
 62
     7
100
AcDbLine
 10
65.6594919401
 20
41.8362714238
 30
0.0
 11
59.7522304746
 21
41.8362714238
 31
0.0
  0
ARC
  5
142
330
1F
100
AcDbEntity
  8
0
  6
CONTINUOUS
 62
     7
100
AcDbCircle
 10
65.6594912684
 20
42.3087111131
 30
0.0
 40
0.4724409448818889
100
AcDbArc
 50
270.0
 51
0.0
  0
LINE
  5
143
330
1F
100
AcDbEntity
  8
0
  6
CONTINUOUS
 62
     7
100
AcDbLine
 10
66.1319314958
 20
46.952410295
 30
0.0
 11
66.1319314958
 21
42.3087109794
 31
0.0
  0
ARC
  5
144
330
1F
100
AcDbEntity
  8
0
  6
CONTINUOUS
 62
     7
100
AcDbCircle
 10
66.3681526857
 20
46.9524119005
 30
0.0
 40
0.236220472440948
100
AcDbArc
 50
90.0
 51
180.0
  0
LINE
  5
145
330
1F
100
AcDbEntity
  8
0
  6
CONTINUOUS
 62
     7
100
AcDbLine
 10
66.8307513696
 20
47.1886324195
 30
0.0
 11
66.3681536202
 21
47.1886324195
 31
0.0
  0
ARC
  5
146
330
1F
100
AcDbEntity
  8
0
  6
CONTINUOUS
 62
     7
100
AcDbCircle
 10
66.8307511109
 20
47.1492622942
 30
0.0
 40
0.0393700787401627
100
AcDbArc
 50
0.0
 51
90.0
  0
LINE
  5
147
330
1F
100
AcDbEntity
  8
0
  6
CONTINUOUS
 62
     7
100
AcDbLine
 10
66.8701232881
 20
47.149260501
 30
0.0
 11
66.8701232881
 21
46.733515757
 31
0.0
  0
LINE
  5
148
330
1F
100
AcDbEntity
  8
0
  6
CONTINUOUS
 62
     7
100
AcDbLine
 10
66.8701232881
 20
46.733515757
 30
0.0
 11
66.6609156782
 21
46.7201258317
 31
0.0
  0
ARC
  5
149
330
1F
100
AcDbEntity
  8
0
  6
CONTINUOUS
 62
     7
100
AcDbCircle
 10
66.6634282762
 20
46.68083529
 30
0.0
 40
0.0393700787401627
100
AcDbArc
 50
93.6619355755
 51
180.0
  0
LINE
  5
14A
330
1F
100
AcDbEntity
  8
0
  6
CONTINUOUS
 62
     7
100
AcDbLine
 10
66.6240593573
 20
46.680833699
 30
0.0
 11
66.6240593573
 21
46.340688295
 31
0.0
  0
ARC
  5
14B
330
1F
100
AcDbEntity
  8
0
  6
CONTINUOUS
 62
     7
100
AcDbCircle
 10
66.5846881188
 20
46.340690577
 30
0.0
 40
0.0393700787401627
100
AcDbArc
 50
335.1121079736
 51
0.0
  0
ARC
  5
14C
330
1F
100
AcDbEntity
  8
0
  6
CONTINUOUS
 62
     7
100
AcDbCircle
 10
66.8050428597
 20
46.238461906
 30
0.0
 40
0.2035433070866209
100
AcDbArc
 50
155.1121079736
 51
342.3995332141
  0
ARC
  5
14D
330
1F
100
AcDbEntity
  8
0
  6
CONTINUOUS
 62
     7
100
AcDbCircle
 10
67.0365850337
 20
46.1650103257
 30
0.0
 40
0.039370078740159
100
AcDbArc
 50
90.0
 51
162.3995332141
  0
LINE
  5
14E
330
1F
100
AcDbEntity
  8
0
  6
CONTINUOUS
 62
     7
100
AcDbLine
 10
67.1162623113
 20
46.2043813896
 30
0.0
 11
67.0365845118
 21
46.2043813896
 31
0.0
  0
LINE
  5
14F
330
1F
100
AcDbEntity
  8
0
  6
CONTINUOUS
 62
     7
100
AcDbLine
 10
67.1162623113
 20
41.5587108968
 30
0.0
 11
67.1162623113
 21
46.2043813896
 31
0.0
  0
ARC
  5
150
330
1F
100
AcDbEntity
  8
0
  6
CONTINUOUS
 62
     7
100
AcDbCircle
 10
66.643821977
 20
41.5587111131
 30
0.0
 40
0.4724409448818889
100
AcDbArc
 50
270.0
 51
0.0
  0
LINE
  5
151
330
1F
100
AcDbEntity
  8
0
  6
CONTINUOUS
 62
     7
100
AcDbLine
 10
60.2246700303
 20
41.0862713412
 30
0.0
 11
66.6438227557
 21
41.0862713412
 31
0.0
  0
ARC
  5
152
330
1F
100
AcDbEntity
  8
0
  6
CONTINUOUS
 62
     7
100
AcDbCircle
 10
60.2246723464
 20
40.6138292233
 30
0.0
 40
0.472440944881896
100
AcDbArc
 50
90.0
 51
180.0
  0
LINE
  5
153
330
1F
100
AcDbEntity
  8
0
  6
CONTINUOUS
 62
     7
100
AcDbLine
 10
59.7522304746
 20
39.5902088371
 30
0.0
 11
59.7522304746
 21
40.6138270922
 31
0.0
  0
ARC
  5
154
330
1F
100
AcDbEntity
  8
0
  6
CONTINUOUS
 62
     7
100
AcDbCircle
 10
60.2246723464
 20
39.5902071761
 30
0.0
 40
0.472440944881896
100
AcDbArc
 50
180.0
 51
270.0
  0
LINE
  5
155
330
1F
100
AcDbEntity
  8
0
  6
CONTINUOUS
 62
     7
100
AcDbLine
 10
66.6438227557
 20
39.1177669348
 30
0.0
 11
60.2246700303
 21
39.1177669348
 31
0.0
  0
ARC
  5
156
330
1F
100
AcDbEntity
  8
0
  6
CONTINUOUS
 62
     7
100
AcDbCircle
 10
66.643821977
 20
38.6453252863
 30
0.0
 40
0.4724409448818889
100
AcDbArc
 50
0.0
 51
90.0
  0
LINE
  5
157
330
1F
100
AcDbEntity
  8
0
  6
CONTINUOUS
 62
     7
100
AcDbLine
 10
67.1162623113
 20
33.9996568863
 30
0.0
 11
67.1162623113
 21
38.6453250325
 31
0.0
  0
LINE
  5
158
330
1F
100
AcDbEntity
  8
0
  6
CONTINUOUS
 62
     7
100
AcDbLine
 10
67.0365845118
 20
33.9996568863
 30
0.0
 11
67.1162623113
 21
33.9996568863
 31
0.0
  0
ARC
  5
159
330
1F
100
AcDbEntity
  8
0
  6
CONTINUOUS
 62
     7
100
AcDbCircle
 10
67.0365850337
 20
34.0390260737
 30
0.0
 40
0.0393700787401726
100
AcDbArc
 50
197.6004667859
 51
270.0
  0
ARC
  5
15A
330
1F
100
AcDbEntity
  8
0
  6
CONTINUOUS
 62
     7
100
AcDbCircle
 10
66.8050428597
 20
33.9655744934
 30
0.0
 40
0.2035433070866179
100
AcDbArc
 50
17.6004667859
 51
204.8878920264
  0
ARC
  5
15B
330
1F
100
AcDbEntity
  8
0
  6
CONTINUOUS
 62
     7
100
AcDbCircle
 10
66.5846881188
 20
33.8633458224
 30
0.0
 40
0.0393700787401512
100
AcDbArc
 50
0.0
 51
24.8878920264
  0
LINE
  5
15C
330
1F
100
AcDbEntity
  8
0
  6
CONTINUOUS
 62
     7
100
AcDbLine
 10
66.6240593573
 20
33.8633452877
 30
0.0
 11
66.6240593573
 21
33.5232022304
 31
0.0
  0
ARC
  5
15D
330
1F
100
AcDbEntity
  8
0
  6
CONTINUOUS
 62
     7
100
AcDbCircle
 10
66.6634282762
 20
33.5232011094
 30
0.0
 40
0.0393700787401627
100
AcDbArc
 50
180.0
 51
266.3380644245
  0
LINE
  5
15E
330
1F
100
AcDbEntity
  8
0
  6
CONTINUOUS
 62
     7
100
AcDbLine
 10
66.6609156782
 20
33.4839124443
 30
0.0
 11
66.8701232881
 21
33.4705225189
 31
0.0
  0
LINE
  5
15F
330
1F
100
AcDbEntity
  8
0
  6
CONTINUOUS
 62
     7
100
AcDbLine
 10
66.8701232881
 20
33.4705225189
 30
0.0
 11
66.8701232881
 21
33.0547730817
 31
0.0
  0
ARC
  5
160
330
1F
100
AcDbEntity
  8
0
  6
CONTINUOUS
 62
     7
100
AcDbCircle
 10
66.8307511109
 20
33.0547741052
 30
0.0
 40
0.0393700787401627
100
AcDbArc
 50
270.0
 51
0.0
  0
LINE
  5
161
330
1F
100
AcDbEntity
  8
0
  6
CONTINUOUS
 62
     7
100
AcDbLine
 10
66.3681536202
 20
33.0154035098
 30
0.0
 11
66.8307513696
 21
33.0154035098
 31
0.0
  0
ARC
  5
162
330
1F
100
AcDbEntity
  8
0
  6
CONTINUOUS
 62
     7
100
AcDbCircle
 10
66.3681526857
 20
33.2516244989
 30
0.0
 40
0.236220472440948
100
AcDbArc
 50
180.0
 51
270.0
  0
LINE
  5
163
330
1F
100
AcDbEntity
  8
0
  6
CONTINUOUS
 62
     7
100
AcDbLine
 10
66.1319314958
 20
37.8953249499
 30
0.0
 11
66.1319314958
 21
33.2516256343
 31
0.0
  0
ARC
  5
164
330
1F
100
AcDbEntity
  8
0
  6
CONTINUOUS
 62
     7
100
AcDbCircle
 10
65.6594912684
 20
37.8953252863
 30
0.0
 40
0.472440944881896
100
AcDbArc
 50
0.0
 51
90.0
  0
LINE
  5
165
330
1F
100
AcDbEntity
  8
0
  6
CONTINUOUS
 62
     7
100
AcDbLine
 10
59.7522304746
 20
38.3677668522
 30
0.0
 11
65.6594919401
 21
38.3677668522
 31
0.0
  0
ARC
  5
166
330
1F
100
AcDbEntity
  8
0
  6
CONTINUOUS
 62
     7
100
AcDbCircle
 10
59.7522314015
 20
39.1177662312
 30
0.0
 40
0.75
100
AcDbArc
 50
210.0
 51
270.0
  0
ARC
  5
167
330
1F
100
AcDbEntity
  8
0
  6
CONTINUOUS
 62
     7
100
AcDbCircle
 10
58.4531932959
 20
38.3677662312
 30
0.0
 40
0.7500000000000027
100
AcDbArc
 50
30.0
 51
90.0
  0
LINE
  5
168
330
1F
100
AcDbEntity
  8
0
  6
CONTINUOUS
 62
     7
100
AcDbLine
 10
54.1596768403
 20
39.1177669348
 30
0.0
 11
58.4531918279
 21
39.1177669348
 31
0.0
  0
ARC
  5
169
330
1F
100
AcDbEntity
  8
0
  6
CONTINUOUS
 62
     7
100
AcDbCircle
 10
54.1596789317
 20
38.3677662312
 30
0.0
 40
0.75
100
AcDbArc
 50
90.0
 51
150.0
  0
ARC
  5
16A
330
1F
100
AcDbEntity
  8
0
  6
CONTINUOUS
 62
     7
100
AcDbCircle
 10
52.860640826
 20
39.1177662312
 30
0.0
 40
0.7500000000000062
100
AcDbArc
 50
270.0
 51
330.0
  0
LINE
  5
16B
330
1F
100
AcDbEntity
  8
0
  6
CONTINUOUS
 62
     7
100
AcDbLine
 10
46.9533814213
 20
38.3677668522
 30
0.0
 11
52.8606428868
 21
38.3677668522
 31
0.0
  0
ARC
  5
16C
330
1F
100
AcDbEntity
  8
0
  6
CONTINUOUS
 62
     7
100
AcDbCircle
 10
46.9533809592
 20
37.8953252863
 30
0.0
 40
0.472440944881896
100
AcDbArc
 50
90.0
 51
180.0
  0
LINE
  5
16D
330
1F
100
AcDbEntity
  8
0
  6
CONTINUOUS
 62
     7
100
AcDbLine
 10
46.4809418657
 20
33.2516256343
 30
0.0
 11
46.4809418657
 21
37.8953249499
 31
0.0
  0
ARC
  5
16E
330
1F
100
AcDbEntity
  8
0
  6
CONTINUOUS
 62
     7
100
AcDbCircle
 10
46.2447195419
 20
33.2516244989
 30
0.0
 40
0.2362204724409551
100
AcDbArc
 50
270.0
 51
0.0
  0
LINE
  5
16F
330
1F
100
AcDbEntity
  8
0
  6
CONTINUOUS
 62
     7
100
AcDbLine
 10
45.7821219918
 20
33.0154035098
 30
0.0
 11
46.2447197412
 21
33.0154035098
 31
0.0
  0
LINE
  5
170
330
1F
100
AcDbEntity
  8
0
  6
CONTINUOUS
 62
     7
100
AcDbLine
 10
45.7427500733
 20
33.0547730817
 30
0.0
 11
45.7427500733
 21
33.4705225189
 31
0.0
  0
LINE
  5
171
330
1F
100
AcDbEntity
  8
0
  6
CONTINUOUS
 62
     7
100
AcDbLine
 10
45.7427500733
 20
33.4705225189
 30
0.0
 11
45.9519576832
 21
33.4839124443
 31
0.0
  0
ARC
  5
172
330
1F
100
AcDbEntity
  8
0
  6
CONTINUOUS
 62
     7
100
AcDbCircle
 10
45.9494439513
 20
33.5232011094
 30
0.0
 40
0.039370078740159
100
AcDbArc
 50
273.6619355755
 51
0.0
  0
LINE
  5
173
330
1F
100
AcDbEntity
  8
0
  6
CONTINUOUS
 62
     7
100
AcDbLine
 10
45.9888140041
 20
33.5232022304
 30
0.0
 11
45.9888140041
 21
33.8633452877
 31
0.0
  0
ARC
  5
174
330
1F
100
AcDbEntity
  8
0
  6
CONTINUOUS
 62
     7
100
AcDbCircle
 10
46.0281841088
 20
33.8633458224
 30
0.0
 40
0.0393700787401485
100
AcDbArc
 50
155.1121079736
 51
180.0
  0
ARC
  5
175
330
1F
100
AcDbEntity
  8
0
  6
CONTINUOUS
 62
     7
100
AcDbCircle
 10
45.8078293679
 20
33.9655744934
 30
0.0
 40
0.2035433070866219
100
AcDbArc
 50
335.1121079736
 51
162.3995332141
  0
ARC
  5
176
330
1F
100
AcDbEntity
  8
0
  6
CONTINUOUS
 62
     7
100
AcDbCircle
 10
45.5762871938
 20
34.0390260737
 30
0.0
 40
0.0393700787401569
100
AcDbArc
 50
270.0
 51
342.3995332141
  0
LINE
  5
177
330
1F
100
AcDbEntity
  8
0
  6
CONTINUOUS
 62
     7
100
AcDbLine
 10
45.4966110501
 20
33.9996568863
 30
0.0
 11
45.5762888496
 21
33.9996568863
 31
0.0
  0
LINE
  5
178
330
1F
100
AcDbEntity
  8
0
  6
CONTINUOUS
 62
     7
100
AcDbLine
 10
45.4966110501
 20
38.6453250325
 30
0.0
 11
45.4966110501
 21
33.9996568863
 31
0.0
  0
ARC
  5
179
330
1F
100
AcDbEntity
  8
0
  6
CONTINUOUS
 62
     7
100
AcDbCircle
 10
45.9690502505
 20
38.6453252863
 30
0.0
 40
0.4724409448818889
100
AcDbArc
 50
90.0
 51
180.0
  0
LINE
  5
17A
330
1F
100
AcDbEntity
  8
0
  6
CONTINUOUS
 62
     7
100
AcDbLine
 10
52.3881986379
 20
39.1177669348
 30
0.0
 11
45.9690506057
 21
39.1177669348
 31
0.0
  0
ARC
  5
17B
330
1F
100
AcDbEntity
  8
0
  6
CONTINUOUS
 62
     7
100
AcDbCircle
 10
52.3881998811
 20
39.5902071761
 30
0.0
 40
0.472440944881896
100
AcDbArc
 50
270.0
 51
0.0
  0
LINE
  5
17C
330
1F
100
AcDbEntity
  8
0
  6
CONTINUOUS
 62
     7
100
AcDbLine
 10
52.8606428868
 20
40.6138270922
 30
0.0
 11
52.8606428868
 21
39.5902088371
 31
0.0
  0
ARC
  5
17D
330
1F
100
AcDbEntity
  8
0
  6
CONTINUOUS
 62
     7
100
AcDbCircle
 10
52.3881998811
 20
40.6138292233
 30
0.0
 40
0.472440944881896
100
AcDbArc
 50
0.0
 51
90.0
  0
LINE
  5
17E
330
1F
100
AcDbEntity
  8
0
  6
CONTINUOUS
 62
     7
100
AcDbLine
 10
45.9690506057
 20
41.0862713412
 30
0.0
 11
52.3881986379
 21
41.0862713412
 31
0.0
  0
ARC
  5
17F
330
1F
100
AcDbEntity
  8
0
  6
CONTINUOUS
 62
     7
100
AcDbCircle
 10
45.9690502505
 20
41.5587111131
 30
0.0
 40
0.4724409448818889
100
AcDbArc
 50
180.0
 51
270.0
  0
LINE
  5
180
330
1F
100
AcDbEntity
  8
0
  6
CONTINUOUS
 62
     7
100
AcDbLine
 10
45.4966110501
 20
46.2043813896
 30
0.0
 11
45.4966110501
 21
41.5587108968
 31
0.0
  0
LINE
  5
181
330
1F
100
AcDbEntity
  8
0
  6
CONTINUOUS
 62
     7
100
AcDbLine
 10
45.5762888496
 20
46.2043813896
 30
0.0
 11
45.4966110501
 21
46.2043813896
 31
0.0
  0
ARC
  5
182
330
1F
100
AcDbEntity
  8
0
  6
CONTINUOUS
 62
     7
100
AcDbCircle
 10
45.5762871938
 20
46.1650103257
 30
0.0
 40
0.0393700787401658
100
AcDbArc
 50
17.6004667859
 51
90.0
  0
ARC
  5
183
330
1F
100
AcDbEntity
  8
0
  6
CONTINUOUS
 62
     7
100
AcDbCircle
 10
45.8078293679
 20
46.238461906
 30
0.0
 40
0.2035433070866144
100
AcDbArc
 50
197.6004667859
 51
24.8878920264
  0
ARC
  5
184
330
1F
100
AcDbEntity
  8
0
  6
CONTINUOUS
 62
     7
100
AcDbCircle
 10
46.0281841088
 20
46.340690577
 30
0.0
 40
0.0393700787401485
100
AcDbArc
 50
180.0
 51
204.8878920264
  0
LINE
  5
185
330
1F
100
AcDbEntity
  8
0
  6
CONTINUOUS
 62
     7
100
AcDbLine
 10
45.9888140041
 20
46.340688295
 30
0.0
 11
45.9888140041
 21
46.680833699
 31
0.0
  0
ARC
  5
186
330
1F
100
AcDbEntity
  8
0
  6
CONTINUOUS
 62
     7
100
AcDbCircle
 10
45.9494439513
 20
46.68083529
 30
0.0
 40
0.0393700787401627
100
AcDbArc
 50
360.0
 51
86.3380644245
  0
LINE
  5
187
330
1F
100
AcDbEntity
  8
0
  6
CONTINUOUS
 62
     7
100
AcDbLine
 10
45.9519576832
 20
46.7201258317
 30
0.0
 11
45.7427500733
 21
46.733515757
 31
0.0
  0
LINE
  5
188
330
1F
100
AcDbEntity
  8
0
  6
CONTINUOUS
 62
     7
100
AcDbLine
 10
45.7427500733
 20
46.733515757
 30
0.0
 11
45.7427500733
 21
47.149260501
 31
0.0
  0
ARC
  5
189
330
1F
100
AcDbEntity
  8
0
  6
CONTINUOUS
 62
     7
100
AcDbCircle
 10
45.7821211167
 20
47.1492622942
 30
0.0
 40
0.0393700787401627
100
AcDbArc
 50
90.0
 51
180.0
  0
LINE
  5
18A
330
1F
100
AcDbEntity
  8
0
  6
CONTINUOUS
 62
     7
100
AcDbLine
 10
46.2447197412
 20
47.1886324195
 30
0.0
 11
45.7821219918
 21
47.1886324195
 31
0.0
  0
ARC
  5
18B
330
1F
100
AcDbEntity
  8
0
  6
CONTINUOUS
 62
     7
100
AcDbCircle
 10
45.7821211167
 20
33.0547741052
 30
0.0
 40
0.0393700787401627
100
AcDbArc
 50
180.0
 51
270.0
  0
ARC
  5
18C
330
1F
100
AcDbEntity
  8
0
  6
CONTINUOUS
 62
     7
100
AcDbCircle
 10
26.9367583162
 20
2.6882004682
 30
0.0
 40
0.2035432708589427
100
AcDbArc
 50
186.0551907338
 51
214.8878397487
  0
ARC
  5
18D
330
1F
100
AcDbEntity
  8
0
  6
CONTINUOUS
 62
     7
100
AcDbCircle
 10
26.7375030569
 20
2.5492609343
 30
0.0
 40
0.0393700264954929
100
AcDbArc
 50
10.0
 51
34.8878397487
  0
LINE
  5
18E
330
1F
100
AcDbEntity
  8
0
  6
CONTINUOUS
 62
     7
100
AcDbLine
 10
26.8180829327
 20
2.3189894508
 30
0.0
 11
26.7762752023
 21
2.5560974317
 31
0.0
  0
ARC
  5
18F
330
1F
100
AcDbEntity
  8
0
  6
CONTINUOUS
 62
     7
100
AcDbCircle
 10
26.7793115955
 20
2.3121529296
 30
0.0
 40
0.0393700787401566
100
AcDbArc
 50
345.1121190957
 51
10.0
  0
ARC
  5
190
330
1F
100
AcDbEntity
  8
0
  6
CONTINUOUS
 62
     7
100
AcDbCircle
 10
27.0140704873
 20
2.2497415866
 30
0.0
 40
0.2035433070866159
100
AcDbArc
 50
165.1121190957
 51
352.3995430525
  0
ARC
  5
191
330
1F
100
AcDbEntity
  8
0
  6
CONTINUOUS
 62
     7
100
AcDbCircle
 10
27.254849754
 20
2.2176128187
 30
0.0
 40
0.039370078740159
100
AcDbArc
 50
100.0000472348
 51
172.3995430525
  0
LINE
  5
192
330
1F
100
AcDbEntity
  8
0
  6
CONTINUOUS
 62
     7
100
AcDbLine
 10
27.4047921016
 20
2.2840293613
 30
0.0
 11
27.2480131128
 21
2.256384774
 31
0.0
  0
ARC
  5
193
330
1F
100
AcDbEntity
  8
0
  6
CONTINUOUS
 62
     7
100
AcDbCircle
 10
27.4116294475
 20
2.245257442
 30
0.0
 40
0.0393700787401595
100
AcDbArc
 50
27.6004766242
 51
100.0000472348
  0
ARC
  5
194
330
1F
100
AcDbEntity
  8
0
  6
CONTINUOUS
 62
     7
100
AcDbCircle
 10
27.6268992232
 20
2.3578000413
 30
0.0
 40
0.2035433070866181
100
AcDbArc
 50
207.6004766242
 51
34.8879031485
  0
ARC
  5
195
330
1F
100
AcDbEntity
  8
0
  6
CONTINUOUS
 62
     7
100
AcDbCircle
 10
27.8261544311
 20
2.4967398669
 30
0.0
 40
0.0393700787401593
100
AcDbArc
 50
190.0
 51
214.8879031485
  0
LINE
  5
196
330
1F
100
AcDbEntity
  8
0
  6
CONTINUOUS
 62
     7
100
AcDbLine
 10
27.7455734449
 20
2.7270108173
 30
0.0
 11
27.7873835219
 21
2.4899032764
 31
0.0
  0
ARC
  5
197
330
1F
100
AcDbEntity
  8
0
  6
CONTINUOUS
 62
     7
100
AcDbCircle
 10
27.7843473178
 20
2.7338475213
 30
0.0
 40
0.0393714215238474
100
AcDbArc
 50
165.1121889858
 51
190.0
  0
ARC
  5
198
330
1F
100
AcDbEntity
  8
0
  6
CONTINUOUS
 62
     7
100
AcDbCircle
 10
27.5495870522
 20
2.7962589229
 30
0.0
 40
0.2035433070866129
100
AcDbArc
 50
345.1121889858
 51
13.9447490948
  0
LINE
  5
199
330
1F
100
AcDbEntity
  8
0
  6
CONTINUOUS
 62
     7
100
AcDbLine
 10
27.7471316136
 20
2.845309904
 30
0.0
 11
46.0811918169
 21
6.0780998119
 31
0.0
  0
ARC
  5
19A
330
1F
100
AcDbEntity
  8
0
  6
CONTINUOUS
 62
     7
100
AcDbCircle
 10
46.2836013629
 20
6.0995708889
 30
0.0
 40
0.2035432708589411
100
AcDbArc
 50
186.0551907338
 51
214.8878397487
  0
ARC
  5
19B
330
1F
100
AcDbEntity
  8
0
  6
CONTINUOUS
 62
     7
100
AcDbCircle
 10
46.0843461036
 20
5.960631355
 30
0.0
 40
0.0393700264954925
100
AcDbArc
 50
10.0
 51
34.8878397487
  0
LINE
  5
19C
330
1F
100
AcDbEntity
  8
0
  6
CONTINUOUS
 62
     7
100
AcDbLine
 10
46.1649246097
 20
5.7303600957
 30
0.0
 11
46.1231168793
 21
5.9674680766
 31
0.0
  0
ARC
  5
19D
330
1F
100
AcDbEntity
  8
0
  6
CONTINUOUS
 62
     7
100
AcDbCircle
 10
46.1261546421
 20
5.7235233502
 30
0.0
 40
0.0393700787401559
100
AcDbArc
 50
345.1121190957
 51
10.0
  0
ARC
  5
19E
330
1F
100
AcDbEntity
  8
0
  6
CONTINUOUS
 62
     7
100
AcDbCircle
 10
46.3609135339
 20
5.6611120072
 30
0.0
 40
0.2035433070866183
100
AcDbArc
 50
165.1121190957
 51
352.3995430525
  0
ARC
  5
19F
330
1F
100
AcDbEntity
  8
0
  6
CONTINUOUS
 62
     7
100
AcDbCircle
 10
46.6016928007
 20
5.6289832394
 30
0.0
 40
0.0393700787401578
100
AcDbArc
 50
100.0000472348
 51
172.3995430525
  0
LINE
  5
1A0
330
1F
100
AcDbEntity
  8
0
  6
CONTINUOUS
 62
     7
100
AcDbLine
 10
46.7516361252
 20
5.6953998595
 30
0.0
 11
46.5948571364
 21
5.6677552722
 31
0.0
  0
ARC
  5
1A1
330
1F
100
AcDbEntity
  8
0
  6
CONTINUOUS
 62
     7
100
AcDbCircle
 10
46.7584724941
 20
5.6566278626
 30
0.0
 40
0.0393700787401607
100
AcDbArc
 50
27.6004766242
 51
100.0000472348
  0
ARC
  5
1A2
330
1F
100
AcDbEntity
  8
0
  6
CONTINUOUS
 62
     7
100
AcDbCircle
 10
46.9737422699
 20
5.7691704619
 30
0.0
 40
0.2035433070866134
100
AcDbArc
 50
207.6004766242
 51
34.8879031485
  0
ARC
  5
1A3
330
1F
100
AcDbEntity
  8
0
  6
CONTINUOUS
 62
     7
100
AcDbCircle
 10
47.1729974778
 20
5.9081102876
 30
0.0
 40
0.0393700787401568
100
AcDbArc
 50
190.0
 51
214.8879031485
  0
LINE
  5
1A4
330
1F
100
AcDbEntity
  8
0
  6
CONTINUOUS
 62
     7
100
AcDbLine
 10
47.0924151219
 20
6.1383808755
 30
0.0
 11
47.1342275455
 21
5.9012734813
 31
0.0
  0
ARC
  5
1A5
330
1F
100
AcDbEntity
  8
0
  6
CONTINUOUS
 62
     7
100
AcDbCircle
 10
47.1311903645
 20
6.1452179419
 30
0.0
 40
0.0393714215238493
100
AcDbArc
 50
165.1121889858
 51
190.0
  0
ARC
  5
1A6
330
1F
100
AcDbEntity
  8
0
  6
CONTINUOUS
 62
     7
100
AcDbCircle
 10
46.8964300988
 20
6.2076293436
 30
0.0
 40
0.2035433070866133
100
AcDbArc
 50
345.1121889858
 51
13.9447490948
  0
LINE
  5
1A7
330
1F
100
AcDbEntity
  8
0
  6
CONTINUOUS
 62
     7
100
AcDbLine
 10
47.0939732905
 20
6.2566802556
 30
0.0
 11
48.1428460805
 21
6.4416247857
 31
0.0
  0
LINE
  5
1A8
330
1F
100
AcDbEntity
  8
0
  6
CONTINUOUS
 62
     7
100
AcDbLine
 10
48.1428460805
 20
5.5460550248
 30
0.0
 11
48.1428460805
 21
6.4416247857
 31
0.0
  0
ARC
  5
1A9
330
1F
100
AcDbEntity
  8
0
  6
CONTINUOUS
 62
     7
100
AcDbCircle
 10
47.9066251996
 20
5.546054853
 30
0.0
 40
0.236220472440944
100
AcDbArc
 50
280.0
 51
0.0
  0
LINE
  5
1AA
330
1F
100
AcDbEntity
  8
0
  6
CONTINUOUS
 62
     7
100
AcDbLine
 10
25.4791396803
 20
1.3516196326
 30
0.0
 11
47.9476432155
 21
5.3134232588
 31
0.0
  0
ARC
  5
1AB
330
1F
100
AcDbEntity
  8
0
  6
CONTINUOUS
 62
     7
100
AcDbCircle
 10
25.4381212626
 20
1.5842513927
 30
0.0
 40
0.2362204724409478
100
AcDbArc
 50
180.0
 51
280.0
  0
LINE
  5
1AC
330
1F
100
AcDbEntity
  8
0
  6
CONTINUOUS
 62
     7
100
AcDbLine
 10
25.201900643
 20
2.3965171418
 30
0.0
 11
25.201900643
 21
1.5842513252
 31
0.0
  0
LINE
  5
1AD
330
1F
100
AcDbEntity
  8
0
  6
CONTINUOUS
 62
     7
100
AcDbLine
 10
25.201900643
 20
2.3965171418
 30
0.0
 11
26.73435014
 21
2.6667294603
 31
0.0
  0
ARC
  5
1AE
330
1F
100
AcDbEntity
  8
0
  6
CONTINUOUS
 62
     7
100
AcDbCircle
 10
46.8964301745
 20
25.0967802048
 30
0.0
 40
0.2035433070866109
100
AcDbArc
 50
346.055191437
 51
14.8879031485
  0
ARC
  5
1AF
330
1F
100
AcDbEntity
  8
0
  6
CONTINUOUS
 62
     7
100
AcDbCircle
 10
47.1311890421
 20
25.1591916389
 30
0.0
 40
0.0393700787401602
100
AcDbArc
 50
170.0
 51
194.8879031485
  0
LINE
  5
1B0
330
1F
100
AcDbEntity
  8
0
  6
CONTINUOUS
 62
     7
100
AcDbLine
 10
47.1342275455
 20
25.4031347541
 30
0.0
 11
47.0924151219
 21
25.1660279465
 31
0.0
  0
ARC
  5
1B1
330
1F
100
AcDbEntity
  8
0
  6
CONTINUOUS
 62
     7
100
AcDbCircle
 10
47.1729988001
 20
25.3962988269
 30
0.0
 40
0.0393714215238469
100
AcDbArc
 50
145.1121889858
 51
170.0
  0
ARC
  5
1B2
330
1F
100
AcDbEntity
  8
0
  6
CONTINUOUS
 62
     7
100
AcDbCircle
 10
46.9737422674
 20
25.5352391002
 30
0.0
 40
0.2035433070866142
100
AcDbArc
 50
325.1121889858
 51
152.3995430525
  0
ARC
  5
1B3
330
1F
100
AcDbEntity
  8
0
  6
CONTINUOUS
 62
     7
100
AcDbCircle
 10
46.758472453
 20
25.6477816256
 30
0.0
 40
0.0393700787401585
100
AcDbArc
 50
260.0000472348
 51
332.3995430525
  0
LINE
  5
1B4
330
1F
100
AcDbEntity
  8
0
  6
CONTINUOUS
 62
     7
100
AcDbLine
 10
46.5948571364
 20
25.6366535498
 30
0.0
 11
46.7516361252
 21
25.6090101358
 31
0.0
  0
ARC
  5
1B5
330
1F
100
AcDbEntity
  8
0
  6
CONTINUOUS
 62
     7
100
AcDbCircle
 10
46.601692714
 20
25.6754259903
 30
0.0
 40
0.0393701149678273
100
AcDbArc
 50
187.6004766242
 51
260.0000472348
  0
ARC
  5
1B6
330
1F
100
AcDbEntity
  8
0
  6
CONTINUOUS
 62
     7
100
AcDbCircle
 10
46.3609134583
 20
25.6432971398
 30
0.0
 40
0.2035432708589457
100
AcDbArc
 50
7.6004766242
 51
194.8878397487
  0
ARC
  5
1B7
330
1F
100
AcDbEntity
  8
0
  6
CONTINUOUS
 62
     7
100
AcDbCircle
 10
46.1261546421
 20
25.5808859975
 30
0.0
 40
0.0393700264954939
100
AcDbArc
 50
350.0
 51
14.8878397487
  0
LINE
  5
1B8
330
1F
100
AcDbEntity
  8
0
  6
CONTINUOUS
 62
     7
100
AcDbLine
 10
46.1231168793
 20
25.3369407454
 30
0.0
 11
46.1649246097
 21
25.5740498997
 31
0.0
  0
ARC
  5
1B9
330
1F
100
AcDbEntity
  8
0
  6
CONTINUOUS
 62
     7
100
AcDbCircle
 10
46.0843461036
 20
25.3437779927
 30
0.0
 40
0.0393700787401602
100
AcDbArc
 50
325.1121190957
 51
350.0
  0
ARC
  5
1BA
330
1F
100
AcDbEntity
  8
0
  6
CONTINUOUS
 62
     7
100
AcDbCircle
 10
46.2836013654
 20
25.2048382444
 30
0.0
 40
0.2035433070866113
100
AcDbArc
 50
145.1121190957
 51
173.9447490948
  0
LINE
  5
1BB
330
1F
100
AcDbEntity
  8
0
  6
CONTINUOUS
 62
     7
100
AcDbLine
 10
46.0811918169
 20
25.2263084235
 30
0.0
 11
27.7471316136
 21
28.4591000913
 31
0.0
  0
ARC
  5
1BC
330
1F
100
AcDbEntity
  8
0
  6
CONTINUOUS
 62
     7
100
AcDbCircle
 10
27.5495871279
 20
28.5081506254
 30
0.0
 40
0.2035433070866144
100
AcDbArc
 50
346.055191437
 51
14.8879031485
  0
ARC
  5
1BD
330
1F
100
AcDbEntity
  8
0
  6
CONTINUOUS
 62
     7
100
AcDbCircle
 10
27.7843459954
 20
28.5705620596
 30
0.0
 40
0.0393700787401632
100
AcDbArc
 50
170.0
 51
194.8879031485
  0
LINE
  5
1BE
330
1F
100
AcDbEntity
  8
0
  6
CONTINUOUS
 62
     7
100
AcDbLine
 10
27.7873835219
 20
28.8145056923
 30
0.0
 11
27.7455734449
 21
28.5773988847
 31
0.0
  0
ARC
  5
1BF
330
1F
100
AcDbEntity
  8
0
  6
CONTINUOUS
 62
     7
100
AcDbCircle
 10
27.8261557535
 20
28.8076692476
 30
0.0
 40
0.039371421523844
100
AcDbArc
 50
145.1121889858
 51
170.0
  0
ARC
  5
1C0
330
1F
100
AcDbEntity
  8
0
  6
CONTINUOUS
 62
     7
100
AcDbCircle
 10
27.6268992208
 20
28.9466095209
 30
0.0
 40
0.2035433070866159
100
AcDbArc
 50
325.1121889858
 51
152.3995430525
  0
ARC
  5
1C1
330
1F
100
AcDbEntity
  8
0
  6
CONTINUOUS
 62
     7
100
AcDbCircle
 10
27.4116294063
 20
29.0591520462
 30
0.0
 40
0.0393700787401569
100
AcDbArc
 50
260.0000472348
 51
332.3995430525
  0
LINE
  5
1C2
330
1F
100
AcDbEntity
  8
0
  6
CONTINUOUS
 62
     7
100
AcDbLine
 10
27.2480131128
 20
29.048024488
 30
0.0
 11
27.4047921016
 21
29.020381074
 31
0.0
  0
ARC
  5
1C3
330
1F
100
AcDbEntity
  8
0
  6
CONTINUOUS
 62
     7
100
AcDbCircle
 10
27.2548496673
 20
29.086796411
 30
0.0
 40
0.0393701149678304
100
AcDbArc
 50
187.6004766242
 51
260.0000472348
  0
ARC
  5
1C4
330
1F
100
AcDbEntity
  8
0
  6
CONTINUOUS
 62
     7
100
AcDbCircle
 10
27.0140704116
 20
29.0546675605
 30
0.0
 40
0.2035432708589462
100
AcDbArc
 50
7.6004766242
 51
194.8878397487
  0
ARC
  5
1C5
330
1F
100
AcDbEntity
  8
0
  6
CONTINUOUS
 62
     7
100
AcDbCircle
 10
26.7793115955
 20
28.9922564181
 30
0.0
 40
0.0393700264954965
100
AcDbArc
 50
350.0
 51
14.8878397487
  0
LINE
  5
1C6
330
1F
100
AcDbEntity
  8
0
  6
CONTINUOUS
 62
     7
100
AcDbLine
 10
26.7762752023
 20
28.7483116837
 30
0.0
 11
26.8180829327
 21
28.9854208379
 31
0.0
  0
ARC
  5
1C7
330
1F
100
AcDbEntity
  8
0
  6
CONTINUOUS
 62
     7
100
AcDbCircle
 10
26.7375030569
 20
28.7551484133
 30
0.0
 40
0.0393700787401596
100
AcDbArc
 50
325.1121190957
 51
350.0
  0
ARC
  5
1C8
330
1F
100
AcDbEntity
  8
0
  6
CONTINUOUS
 62
     7
100
AcDbCircle
 10
26.9367583187
 20
28.616208665
 30
0.0
 40
0.2035433070866174
100
AcDbArc
 50
145.1121190957
 51
173.9447490948
  0
LINE
  5
1C9
330
1F
100
AcDbEntity
  8
0
  6
CONTINUOUS
 62
     7
100
AcDbLine
 10
26.73435014
 20
28.6376793617
 30
0.0
 11
25.201900643
 21
28.9078925602
 31
0.0
  0
LINE
  5
1CA
330
1F
100
AcDbEntity
  8
0
  6
CONTINUOUS
 62
     7
100
AcDbLine
 10
25.201900643
 20
29.7201583768
 30
0.0
 11
25.201900643
 21
28.9078925602
 31
0.0
  0
ARC
  5
1CB
330
1F
100
AcDbEntity
  8
0
  6
CONTINUOUS
 62
     7
100
AcDbCircle
 10
25.4381212626
 20
29.720157955
 30
0.0
 40
0.236220472440948
100
AcDbArc
 50
80.0
 51
180.0
  0
LINE
  5
1CC
330
1F
100
AcDbEntity
  8
0
  6
CONTINUOUS
 62
     7
100
AcDbLine
 10
47.9476432155
 20
25.9909867365
 30
0.0
 11
25.4791396803
 21
29.9527901427
 31
0.0
  0
ARC
  5
1CD
330
1F
100
AcDbEntity
  8
0
  6
CONTINUOUS
 62
     7
100
AcDbCircle
 10
47.9066251996
 20
25.7583544947
 30
0.0
 40
0.2362204724409484
100
AcDbArc
 50
0.0
 51
80.0
  0
LINE
  5
1CE
330
1F
100
AcDbEntity
  8
0
  6
CONTINUOUS
 62
     7
100
AcDbLine
 10
48.1428460805
 20
24.8627857962
 30
0.0
 11
48.1428460805
 21
25.7583549706
 31
0.0
  0
LINE
  5
1CF
330
1F
100
AcDbEntity
  8
0
  6
CONTINUOUS
 62
     7
100
AcDbLine
 10
48.1428460805
 20
24.8627857962
 30
0.0
 11
47.0939732905
 21
25.0477291531
 31
0.0
  0
ARC
  5
1D0
330
1F
100
AcDbEntity
  8
0
  6
CONTINUOUS
 62
     7
100
AcDbCircle
 10
47.9066251996
 20
23.0051732181
 30
0.0
 40
0.236220472440948
100
AcDbArc
 50
280.0
 51
0.0
  0
LINE
  5
1D1
330
1F
100
AcDbEntity
  8
0
  6
CONTINUOUS
 62
     7
100
AcDbLine
 10
47.9476432155
 20
22.7725424229
 30
0.0
 11
47.5506434284
 21
22.7025398183
 31
0.0
  0
ARC
  5
1D2
330
1F
100
AcDbEntity
  8
0
  6
CONTINUOUS
 62
     7
100
AcDbCircle
 10
47.5916645697
 20
22.4699080532
 30
0.0
 40
0.236220472440948
100
AcDbArc
 50
100.0
 51
180.0
  0
LINE
  5
1D3
330
1F
100
AcDbEntity
  8
0
  6
CONTINUOUS
 62
     7
100
AcDbLine
 10
47.3554452567
 20
22.4699080523
 30
0.0
 11
47.3554452567
 21
8.8345013564
 31
0.0
  0
ARC
  5
1D4
330
1F
100
AcDbEntity
  8
0
  6
CONTINUOUS
 62
     7
100
AcDbCircle
 10
47.5916645697
 20
8.8345012945
 30
0.0
 40
0.236220472440948
100
AcDbArc
 50
180.0
 51
260.0
  0
LINE
  5
1D5
330
1F
100
AcDbEntity
  8
0
  6
CONTINUOUS
 62
     7
100
AcDbLine
 10
47.5506434284
 20
8.6018695904
 30
0.0
 11
47.9476432155
 21
8.5318681591
 31
0.0
  0
ARC
  5
1D6
330
1F
100
AcDbEntity
  8
0
  6
CONTINUOUS
 62
     7
100
AcDbCircle
 10
47.9066251996
 20
8.2992361296
 30
0.0
 40
0.236220472440948
100
AcDbArc
 50
0.0
 51
80.0
  0
LINE
  5
1D7
330
1F
100
AcDbEntity
  8
0
  6
CONTINUOUS
 62
     7
100
AcDbLine
 10
48.1428460805
 20
6.9765224999
 30
0.0
 11
48.1428460805
 21
8.2992363931
 31
0.0
  0
LINE
  5
1D8
330
1F
100
AcDbEntity
  8
0
  6
CONTINUOUS
 62
     7
100
AcDbLine
 10
48.1428460805
 20
6.9765224999
 30
0.0
 11
46.5680444328
 21
6.6988422943
 31
0.0
  0
LINE
  5
1D9
330
1F
100
AcDbEntity
  8
0
  6
CONTINUOUS
 62
     7
100
AcDbLine
 10
46.5680444328
 20
6.6988422943
 30
0.0
 11
46.5680444328
 21
24.605565941
 31
0.0
  0
LINE
  5
1DA
330
1F
100
AcDbEntity
  8
0
  6
CONTINUOUS
 62
     7
100
AcDbLine
 10
46.5680444328
 20
24.605565941
 30
0.0
 11
48.1428460805
 21
24.3278857355
 31
0.0
  0
LINE
  5
1DB
330
1F
100
AcDbEntity
  8
0
  6
CONTINUOUS
 62
     7
100
AcDbLine
 10
48.1428460805
 20
23.0051741889
 30
0.0
 11
48.1428460805
 21
24.3278857355
 31
0.0
  0
LINE
  5
1DC
330
1F
100
AcDbEntity
  8
0
  6
CONTINUOUS
 62
     7
100
AcDbLine
 10
25.201900643
 20
28.372994846
 30
0.0
 11
25.201900643
 21
2.9314151493
 31
0.0
  0
LINE
  5
1DD
330
1F
100
AcDbEntity
  8
0
  6
CONTINUOUS
 62
     7
100
AcDbLine
 10
25.201900643
 20
28.372994846
 30
0.0
 11
46.0546560168
 21
24.6960899086
 31
0.0
  0
LINE
  5
1DE
330
1F
100
AcDbEntity
  8
0
  6
CONTINUOUS
 62
     7
100
AcDbLine
 10
46.0546560168
 20
24.6960899086
 30
0.0
 11
46.0546560168
 21
6.6083183267
 31
0.0
  0
LINE
  5
1DF
330
1F
100
AcDbEntity
  8
0
  6
CONTINUOUS
 62
     7
100
AcDbLine
 10
46.0546560168
 20
6.6083183267
 30
0.0
 11
25.201900643
 21
2.9314151493
 31
0.0
  0
ARC
  5
1E0
330
1F
100
AcDbEntity
  8
0
  6
CONTINUOUS
 62
     7
100
AcDbCircle
 10
46.6556508321
 20
6.2397581114
 30
0.0
 40
0.0393700787401569
100
AcDbArc
 50
280.0000472348
 51
352.3995430525
  0
LINE
  5
1E1
330
1F
100
AcDbEntity
  8
0
  6
CONTINUOUS
 62
     7
100
AcDbLine
 10
46.6624872884
 20
6.2009862856
 30
0.0
 11
46.5057082996
 21
6.1733416983
 31
0.0
  0
ARC
  5
1E2
330
1F
100
AcDbEntity
  8
0
  6
CONTINUOUS
 62
     7
100
AcDbCircle
 10
46.4988711386
 20
6.2121134882
 30
0.0
 40
0.0393700787401603
100
AcDbArc
 50
207.6004766242
 51
280.0000472348
  0
ARC
  5
1E3
330
1F
100
AcDbEntity
  8
0
  6
CONTINUOUS
 62
     7
100
AcDbCircle
 10
27.3088077854
 20
2.8283876908
 30
0.0
 40
0.0393700787401584
100
AcDbArc
 50
280.0000472348
 51
352.3995430525
  0
LINE
  5
1E4
330
1F
100
AcDbEntity
  8
0
  6
CONTINUOUS
 62
     7
100
AcDbLine
 10
27.3156432648
 20
2.7896156407
 30
0.0
 11
27.158864276
 21
2.7619710534
 31
0.0
  0
ARC
  5
1E5
330
1F
100
AcDbEntity
  8
0
  6
CONTINUOUS
 62
     7
100
AcDbCircle
 10
27.152028092
 20
2.8007430675
 30
0.0
 40
0.0393700787401579
100
AcDbArc
 50
207.6004766242
 51
280.0000472348
  0
ARC
  5
1E6
330
1F
100
AcDbEntity
  8
0
  6
CONTINUOUS
 62
     7
100
AcDbCircle
 10
27.1520281331
 20
28.5036661397
 30
0.0
 40
0.0393700787401579
100
AcDbArc
 50
80.0000472348
 51
152.3995430525
  0
LINE
  5
1E7
330
1F
100
AcDbEntity
  8
0
  6
CONTINUOUS
 62
     7
100
AcDbLine
 10
27.158864276
 20
28.5424386486
 30
0.0
 11
27.3156432648
 21
28.514792888
 31
0.0
  0
ARC
  5
1E8
330
1F
100
AcDbEntity
  8
0
  6
CONTINUOUS
 62
     7
100
AcDbCircle
 10
27.3088078721
 20
28.4760217749
 30
0.0
 40
0.0393700787401593
100
AcDbArc
 50
7.6004766242
 51
80.0000472348
  0
ARC
  5
1E9
330
1F
100
AcDbEntity
  8
0
  6
CONTINUOUS
 62
     7
100
AcDbCircle
 10
46.4988711798
 20
25.092295719
 30
0.0
 40
0.0393700787401569
100
AcDbArc
 50
80.0000472348
 51
152.3995430525
  0
LINE
  5
1EA
330
1F
100
AcDbEntity
  8
0
  6
CONTINUOUS
 62
     7
100
AcDbLine
 10
46.5057082996
 20
25.1310677104
 30
0.0
 11
46.6624872884
 21
25.1034242964
 31
0.0
  0
ARC
  5
1EB
330
1F
100
AcDbEntity
  8
0
  6
CONTINUOUS
 62
     7
100
AcDbCircle
 10
46.6556509188
 20
25.0646513543
 30
0.0
 40
0.0393700787401664
100
AcDbArc
 50
7.6004766242
 51
80.0000472348
  0
LINE
  5
1EC
330
1F
100
AcDbEntity
  8
0
  6
CONTINUOUS
 62
     7
100
AcDbLine
 10
25.201900643
 20
28.372994846
 30
0.0
 11
25.201900643
 21
28.9078925602
 31
0.0
  0
LINE
  5
1ED
330
1F
100
AcDbEntity
  8
0
  6
CONTINUOUS
 62
     7
100
AcDbLine
 10
25.201900643
 20
2.3965171418
 30
0.0
 11
25.201900643
 21
2.9314151493
 31
0.0
  0
ARC
  5
1EE
330
1F
100
AcDbEntity
  8
0
  6
CONTINUOUS
 62
     7
100
AcDbCircle
 10
46.2836013629
 20
6.0995708889
 30
0.0
 40
0.2035433070866118
100
AcDbArc
 50
27.6004766242
 51
186.0551907338
  0
ARC
  5
1EF
330
1F
100
AcDbEntity
  8
0
  6
CONTINUOUS
 62
     7
100
AcDbCircle
 10
46.2836013654
 20
25.2048382444
 30
0.0
 40
0.2035433070866142
100
AcDbArc
 50
173.9447490948
 51
332.3995430525
  0
ARC
  5
1F0
330
1F
100
AcDbEntity
  8
0
  6
CONTINUOUS
 62
     7
100
AcDbCircle
 10
46.8964300988
 20
6.2076293436
 30
0.0
 40
0.2035433070866186
100
AcDbArc
 50
13.9447490948
 51
172.3995430525
  0
ARC
  5
1F1
330
1F
100
AcDbEntity
  8
0
  6
CONTINUOUS
 62
     7
100
AcDbCircle
 10
46.8964301745
 20
25.0967802048
 30
0.0
 40
0.2035433070866169
100
AcDbArc
 50
187.6004766242
 51
346.055191437
  0
LINE
  5
1F2
330
1F
100
AcDbEntity
  8
0
  6
CONTINUOUS
 62
     7
100
AcDbLine
 10
48.1428460805
 20
6.9765224999
 30
0.0
 11
48.1428460805
 21
6.4416247857
 31
0.0
  0
LINE
  5
1F3
330
1F
100
AcDbEntity
  8
0
  6
CONTINUOUS
 62
     7
100
AcDbLine
 10
48.1428460805
 20
24.8627857962
 30
0.0
 11
48.1428460805
 21
24.3278857355
 31
0.0
  0
ARC
  5
1F4
330
1F
100
AcDbEntity
  8
0
  6
CONTINUOUS
 62
     7
100
AcDbCircle
 10
27.5495870522
 20
2.7962589229
 30
0.0
 40
0.2035433070866186
100
AcDbArc
 50
13.9447490948
 51
172.3995430525
  0
ARC
  5
1F5
330
1F
100
AcDbEntity
  8
0
  6
CONTINUOUS
 62
     7
100
AcDbCircle
 10
27.5495871279
 20
28.5081506254
 30
0.0
 40
0.2035433070866144
100
AcDbArc
 50
187.6004766242
 51
346.055191437
  0
ARC
  5
1F6
330
1F
100
AcDbEntity
  8
0
  6
CONTINUOUS
 62
     7
100
AcDbCircle
 10
26.9367583162
 20
2.6882004682
 30
0.0
 40
0.2035433070866147
100
AcDbArc
 50
27.6004766242
 51
186.0551907338
  0
ARC
  5
1F7
330
1F
100
AcDbEntity
  8
0
  6
CONTINUOUS
 62
     7
100
AcDbCircle
 10
26.9367583187
 20
28.616208665
 30
0.0
 40
0.2035433070866158
100
AcDbArc
 50
173.9447490948
 51
332.3995430525
  0
LINE
  5
1F8
330
1F
100
AcDbEntity
  8
0
  6
CONTINUOUS
 62
     7
100
AcDbLine
 10
77.2704063431
 20
2.6948416156
 30
0.0
 11
77.2704063431
 21
1.1839079433
 31
0.0
  0
LINE
  5
1F9
330
1F
100
AcDbEntity
  8
0
  6
CONTINUOUS
 62
     7
100
AcDbLine
 10
77.2704063431
 20
2.6948416156
 30
0.0
 11
89.9751316837
 21
2.6948416156
 31
0.0
  0
LINE
  5
1FA
330
1F
100
AcDbEntity
  8
0
  6
CONTINUOUS
 62
     7
100
AcDbLine
 10
89.9751316837
 20
1.1839079433
 30
0.0
 11
89.9751316837
 21
2.6948416156
 31
0.0
  0
LINE
  5
1FB
330
1F
100
AcDbEntity
  8
0
  6
CONTINUOUS
 62
     7
100
AcDbLine
 10
77.2704063431
 20
1.1839079433
 30
0.0
 11
89.9751316837
 21
1.1839079433
 31
0.0
  0
LINE
  5
1FC
330
1F
100
AcDbEntity
  8
0
  6
CONTINUOUS
 62
     7
100
AcDbLine
 10
89.9751316837
 20
24.3905902911
 30
0.0
 11
77.2704063431
 21
24.3905902911
 31
0.0
  0
LINE
  5
1FD
330
1F
100
AcDbEntity
  8
0
  6
CONTINUOUS
 62
     7
100
AcDbLine
 10
89.9751316837
 20
3.2092475931
 30
0.0
 11
77.2704063431
 21
3.2092475931
 31
0.0
  0
LINE
  5
1FE
330
1F
100
AcDbEntity
  8
0
  6
CONTINUOUS
 62
     7
100
AcDbLine
 10
77.2704063431
 20
24.3905902911
 30
0.0
 11
77.2704063431
 21
3.2092475931
 31
0.0
  0
LINE
  5
1FF
330
1F
100
AcDbEntity
  8
0
  6
CONTINUOUS
 62
     7
100
AcDbLine
 10
89.9751316837
 20
3.2092475931
 30
0.0
 11
89.9751316837
 21
24.3905902911
 31
0.0
  0
LINE
  5
200
330
1F
100
AcDbEntity
  8
0
  6
CONTINUOUS
 62
     7
100
AcDbLine
 10
77.2704063431
 20
2.6948416156
 30
0.0
 11
77.2704063431
 21
3.2092475931
 31
0.0
  0
LINE
  5
201
330
1F
100
AcDbEntity
  8
0
  6
CONTINUOUS
 62
     7
100
AcDbLine
 10
89.9751316837
 20
3.2092475931
 30
0.0
 11
89.9751316837
 21
2.6948416156
 31
0.0
  0
LINE
  5
202
330
1F
100
AcDbEntity
  8
0
  6
CONTINUOUS
 62
     7
100
AcDbLine
 10
63.3263080132
 20
1.1839079433
 30
0.0
 11
76.0310333538
 21
1.1839079433
 31
0.0
  0
LINE
  5
203
330
1F
100
AcDbEntity
  8
0
  6
CONTINUOUS
 62
     7
100
AcDbLine
 10
63.3263080132
 20
2.6948416156
 30
0.0
 11
63.3263080132
 21
1.1839079433
 31
0.0
  0
LINE
  5
204
330
1F
100
AcDbEntity
  8
0
  6
CONTINUOUS
 62
     7
100
AcDbLine
 10
76.0310333538
 20
2.6948416156
 30
0.0
 11
63.3263080132
 21
2.6948416156
 31
0.0
  0
LINE
  5
205
330
1F
100
AcDbEntity
  8
0
  6
CONTINUOUS
 62
     7
100
AcDbLine
 10
76.0310333538
 20
1.1839079433
 30
0.0
 11
76.0310333538
 21
2.6948416156
 31
0.0
  0
LINE
  5
206
330
1F
100
AcDbEntity
  8
0
  6
CONTINUOUS
 62
     7
100
AcDbLine
 10
76.0310333538
 20
24.3905902911
 30
0.0
 11
63.3263080132
 21
24.3905902911
 31
0.0
  0
LINE
  5
207
330
1F
100
AcDbEntity
  8
0
  6
CONTINUOUS
 62
     7
100
AcDbLine
 10
63.3263080132
 20
3.2092475931
 30
0.0
 11
76.0310333538
 21
3.2092475931
 31
0.0
  0
LINE
  5
208
330
1F
100
AcDbEntity
  8
0
  6
CONTINUOUS
 62
     7
100
AcDbLine
 10
63.3263080132
 20
24.3905902911
 30
0.0
 11
63.3263080132
 21
3.2092475931
 31
0.0
  0
LINE
  5
209
330
1F
100
AcDbEntity
  8
0
  6
CONTINUOUS
 62
     7
100
AcDbLine
 10
76.0310333538
 20
3.2092475931
 30
0.0
 11
76.0310333538
 21
24.3905902911
 31
0.0
  0
LINE
  5
20A
330
1F
100
AcDbEntity
  8
0
  6
CONTINUOUS
 62
     7
100
AcDbLine
 10
63.3263080132
 20
2.6948416156
 30
0.0
 11
63.3263080132
 21
3.2092475931
 31
0.0
  0
LINE
  5
20B
330
1F
100
AcDbEntity
  8
0
  6
CONTINUOUS
 62
     7
100
AcDbLine
 10
76.0310333538
 20
3.2092475931
 30
0.0
 11
76.0310333538
 21
2.6948416156
 31
0.0
  0
LINE
  5
20C
330
1F
100
AcDbEntity
  8
0
  6
CONTINUOUS
 62
     7
100
AcDbLine
 10
49.3822143766
 20
1.1839079433
 30
0.0
 11
62.0869397172
 21
1.1839079433
 31
0.0
  0
LINE
  5
20D
330
1F
100
AcDbEntity
  8
0
  6
CONTINUOUS
 62
     7
100
AcDbLine
 10
49.3822143766
 20
19.794144083
 30
0.0
 11
49.3822143766
 21
1.1839079433
 31
0.0
  0
LINE
  5
20E
330
1F
100
AcDbEntity
  8
0
  6
CONTINUOUS
 62
     7
100
AcDbLine
 10
62.0869397172
 20
19.794144083
 30
0.0
 11
49.3822143766
 21
19.794144083
 31
0.0
  0
LINE
  5
20F
330
1F
100
AcDbEntity
  8
0
  6
CONTINUOUS
 62
     7
100
AcDbLine
 10
62.0869397172
 20
1.1839079433
 30
0.0
 11
62.0869397172
 21
19.794144083
 31
0.0
  0
LINE
  5
210
330
1F
100
AcDbEntity
  8
POCKETS
100
AcDbLine
 10
76.4247354358
 20
3.2092477191
 30
0.0
 11
62.9326094516
 21
3.2092477191
 31
0.0
  0
LINE
  5
211
330
1F
100
AcDbEntity
  8
POCKETS
100
AcDbLine
 10
62.9326094516
 20
3.2092477191
 30
0.0
 11
62.9326094516
 21
2.6948414997
 31
0.0
  0
LINE
  5
212
330
1F
100
AcDbEntity
  8
POCKETS
100
AcDbLine
 10
62.9326094516
 20
2.6948414997
 30
0.0
 11
76.4247354358
 21
2.6948414997
 31
0.0
  0
LINE
  5
213
330
1F
100
AcDbEntity
  8
PROFILES_OUTSIDE
100
AcDbLine
 10
23.9625307114
 20
23.0051732181
 30
0.0
 11
23.9625307114
 21
25.956567006
 31
0.0
  0
LINE
  5
214
330
1F
100
AcDbEntity
  8
PROFILES_OUTSIDE
100
AcDbLine
 10
23.9625307114
 20
25.956567006
 30
0.0
 11
1.0215858295
 21
30.0016745516
 31
0.0
  0
LINE
  5
215
330
1F
100
AcDbEntity
  8
PROFILES_OUTSIDE
100
AcDbLine
 10
1.0215858295
 20
30.0016745516
 30
0.0
 11
1.0215858295
 21
1.3027347961
 31
0.0
  0
LINE
  5
216
330
1F
100
AcDbEntity
  8
PROFILES_OUTSIDE
100
AcDbLine
 10
1.0215858295
 20
1.3027347961
 30
0.0
 11
23.9625307114
 21
5.3478423417
 31
0.0
  0
LINE
  5
217
330
1F
100
AcDbEntity
  8
POCKETS
100
AcDbLine
 10
76.4247354358
 20
2.6948414997
 30
0.0
 11
76.4247354358
 21
3.2092477191
 31
0.0
  0
LINE
  5
218
330
1F
100
AcDbEntity
  8
PROFILES_OUTSIDE
100
AcDbLine
 10
23.9625307114
 20
5.3478423417
 30
0.0
 11
23.9625307114
 21
8.2992361296
 31
0.0
  0
LINE
  5
219
330
1F
100
AcDbEntity
  8
PROFILES_OUTSIDE
100
AcDbLine
 10
23.7673294935
 20
8.5318678823
 30
0.0
 11
23.3703303545
 21
8.6018695418
 31
0.0
  0
LINE
  5
21A
330
1F
100
AcDbEntity
  8
PROFILES_OUTSIDE
100
AcDbLine
 10
23.1751291366
 20
8.8345012945
 30
0.0
 11
23.1751291366
 21
22.4699080532
 31
0.0
  0
LINE
  5
21B
330
1F
100
AcDbEntity
  8
PROFILES_OUTSIDE
100
AcDbLine
 10
23.3703303545
 20
22.7025398059
 30
0.0
 11
23.7673294935
 21
22.7725414654
 31
0.0
  0
LINE
  5
21C
330
1F
100
AcDbEntity
  8
PROFILES_INSIDE
100
AcDbLine
 10
22.9121021227
 20
25.1660281814
 30
0.0
 11
22.9539105583
 21
25.4031356025
 31
0.0
  0
LINE
  5
21D
330
1F
100
AcDbEntity
  8
PROFILES_INSIDE
100
AcDbLine
 10
22.3253927296
 20
25.1310676834
 30
0.0
 11
22.4821724686
 21
25.1034233187
 31
0.0
  0
LINE
  5
21E
330
1F
100
AcDbEntity
  8
PROFILES_INSIDE
100
AcDbLine
 10
21.9846115888
 20
25.5740494641
 30
0.0
 11
21.9428031017
 21
25.3369414503
 31
0.0
  0
LINE
  5
21F
330
1F
100
AcDbEntity
  8
PROFILES_INSIDE
100
AcDbLine
 10
22.5713209819
 20
25.6090096612
 30
0.0
 11
22.4145412342
 21
25.6366539769
 31
0.0
  0
LINE
  5
220
330
1F
100
AcDbEntity
  8
PROFILES_OUTSIDE
100
AcDbLine
 10
62.0869401602
 20
1.1839079635
 30
0.0
 11
62.0869401602
 21
19.794144184
 31
0.0
  0
LINE
  5
221
330
1F
100
AcDbEntity
  8
PROFILES_OUTSIDE
100
AcDbLine
 10
62.0869401602
 20
19.794144184
 30
0.0
 11
49.3822157508
 21
19.794144184
 31
0.0
  0
LINE
  5
222
330
1F
100
AcDbEntity
  8
PROFILES_OUTSIDE
100
AcDbLine
 10
49.3822157508
 20
19.794144184
 30
0.0
 11
49.3822157508
 21
1.1839079635
 31
0.0
  0
LINE
  5
223
330
1F
100
AcDbEntity
  8
PROFILES_OUTSIDE
100
AcDbLine
 10
49.3822157508
 20
1.1839079635
 30
0.0
 11
62.0869401602
 21
1.1839079635
 31
0.0
  0
LINE
  5
224
330
1F
100
AcDbEntity
  8
PROFILES_OUTSIDE
100
AcDbLine
 10
76.0310346484
 20
24.390590408
 30
0.0
 11
63.326310239
 21
24.390590408
 31
0.0
  0
LINE
  5
225
330
1F
100
AcDbEntity
  8
PROFILES_OUTSIDE
100
AcDbLine
 10
63.326310239
 20
24.390590408
 30
0.0
 11
63.326310239
 21
1.1839079635
 31
0.0
  0
LINE
  5
226
330
1F
100
AcDbEntity
  8
PROFILES_OUTSIDE
100
AcDbLine
 10
63.326310239
 20
1.1839079635
 30
0.0
 11
76.0310346484
 21
1.1839079635
 31
0.0
  0
LINE
  5
227
330
1F
100
AcDbEntity
  8
PROFILES_OUTSIDE
100
AcDbLine
 10
76.0310346484
 20
1.1839079635
 30
0.0
 11
76.0310346484
 21
24.390590408
 31
0.0
  0
LINE
  5
228
330
1F
100
AcDbEntity
  8
PROFILES_OUTSIDE
100
AcDbLine
 10
77.2704047272
 20
24.390590408
 30
0.0
 11
77.2704047272
 21
1.1839079635
 31
0.0
  0
LINE
  5
229
330
1F
100
AcDbEntity
  8
PROFILES_OUTSIDE
100
AcDbLine
 10
77.2704047272
 20
1.1839079635
 30
0.0
 11
89.9751291366
 21
1.1839079635
 31
0.0
  0
LINE
  5
22A
330
1F
100
AcDbEntity
  8
BOX_STOCK
100
AcDbLine
 10
0.0082000027
 20
0.1705221367
 30
0.0
 11
96.0711921287
 21
0.1705221367
 31
0.0
  0
LINE
  5
22B
330
1F
100
AcDbEntity
  8
BOX_STOCK
100
AcDbLine
 10
96.0711921287
 20
0.1705221367
 30
0.0
 11
96.0711921287
 21
48.2020181997
 31
0.0
  0
LINE
  5
22C
330
1F
100
AcDbEntity
  8
BOX_STOCK
100
AcDbLine
 10
96.0711921287
 20
48.2020181997
 30
0.0
 11
0.0082000027
 21
48.2020181997
 31
0.0
  0
LINE
  5
22D
330
1F
100
AcDbEntity
  8
BOX_STOCK
100
AcDbLine
 10
0.0082000027
 20
48.2020181997
 30
0.0
 11
0.0082000027
 21
0.1705221367
 31
0.0
  0
LINE
  5
22E
330
1F
100
AcDbEntity
  8
POCKETS
100
AcDbLine
 10
90.368829924
 20
3.2092477191
 30
0.0
 11
76.8767039398
 21
3.2092477191
 31
0.0
  0
LINE
  5
22F
330
1F
100
AcDbEntity
  8
PROFILES_OUTSIDE
100
AcDbLine
 10
89.9751291366
 20
1.1839079635
 30
0.0
 11
89.9751291366
 21
24.390590408
 31
0.0
  0
LINE
  5
230
330
1F
100
AcDbEntity
  8
POCKETS
100
AcDbLine
 10
76.8767039398
 20
3.2092477191
 30
0.0
 11
76.8767039398
 21
2.6948414997
 31
0.0
  0
LINE
  5
231
330
1F
100
AcDbEntity
  8
POCKETS
100
AcDbLine
 10
76.8767039398
 20
2.6948414997
 30
0.0
 11
90.368829924
 21
2.6948414997
 31
0.0
  0
LINE
  5
232
330
1F
100
AcDbEntity
  8
POCKETS
100
AcDbLine
 10
90.368829924
 20
2.6948414997
 30
0.0
 11
90.368829924
 21
3.2092477191
 31
0.0
  0
LINE
  5
233
330
1F
100
AcDbEntity
  8
PROFILES_OUTSIDE
100
AcDbLine
 10
89.9751291366
 20
24.390590408
 30
0.0
 11
77.2704047272
 21
24.390590408
 31
0.0
  0
LINE
  5
234
330
1F
100
AcDbEntity
  8
PROFILES_INSIDE
100
AcDbLine
 10
3.5596526508
 20
28.5783871661
 30
0.0
 11
3.6014610864
 21
28.8154945872
 31
0.0
  0
LINE
  5
235
330
1F
100
AcDbEntity
  8
PROFILES_INSIDE
100
AcDbLine
 10
3.21887151
 20
29.0213686459
 30
0.0
 11
3.0620917678
 21
29.0490129928
 31
0.0
  0
LINE
  5
236
330
1F
100
AcDbEntity
  8
PROFILES_INSIDE
100
AcDbLine
 10
2.6321621125
 20
28.9864084496
 30
0.0
 11
2.5903536298
 21
28.749300435
 31
0.0
  0
LINE
  5
237
330
1F
100
AcDbEntity
  8
PROFILES_INSIDE
100
AcDbLine
 10
2.9729432577
 20
28.5434266681
 30
0.0
 11
3.1297229967
 21
28.5157823034
 31
0.0
  0
LINE
  5
238
330
1F
100
AcDbEntity
  8
PROFILES_INSIDE
100
AcDbLine
 10
22.9539105583
 20
5.9012737452
 30
0.0
 11
22.9121021227
 21
6.1383811663
 31
0.0
  0
LINE
  5
239
330
1F
100
AcDbEntity
  8
PROFILES_INSIDE
100
AcDbLine
 10
22.4821724459
 20
6.2009861583
 30
0.0
 11
22.3253927532
 21
6.1733415306
 31
0.0
  0
LINE
  5
23A
330
1F
100
AcDbEntity
  8
PROFILES_INSIDE
100
AcDbLine
 10
21.9428030413
 20
5.9674678868
 30
0.0
 11
21.9846116403
 21
5.7303598927
 31
0.0
  0
LINE
  5
23B
330
1F
100
AcDbEntity
  8
PROFILES_INSIDE
100
AcDbLine
 10
22.4145412657
 20
5.6677551925
 30
0.0
 11
22.5713209591
 21
5.6953998158
 31
0.0
  0
LINE
  5
23C
330
1F
100
AcDbEntity
  8
PROFILES_INSIDE
100
AcDbLine
 10
2.5903535784
 20
2.5551089037
 30
0.0
 11
2.6321621684
 21
2.318000908
 31
0.0
  0
LINE
  5
23D
330
1F
100
AcDbEntity
  8
PROFILES_INSIDE
100
AcDbLine
 10
3.0620917938
 20
2.2553962078
 30
0.0
 11
3.2188714872
 21
2.2830408311
 31
0.0
  0
LINE
  5
23E
330
1F
100
AcDbEntity
  8
PROFILES_INSIDE
100
AcDbLine
 10
3.6014610864
 20
2.4889147605
 30
0.0
 11
3.5596526508
 21
2.7260221816
 31
0.0
  0
LINE
  5
23F
330
1F
100
AcDbEntity
  8
PROFILES_INSIDE
100
AcDbLine
 10
3.129722974
 20
2.7886271736
 30
0.0
 11
2.9729432805
 21
2.7609825503
 31
0.0
  0
LINE
  5
240
330
1F
100
AcDbEntity
  8
PROFILES_OUTSIDE
100
AcDbLine
 10
66.8701211896
 20
46.7335142627
 30
0.0
 11
66.8701211896
 21
47.1492622942
 31
0.0
  0
LINE
  5
241
330
1F
100
AcDbEntity
  8
PROFILES_OUTSIDE
100
AcDbLine
 10
66.6609137357
 20
46.7201249857
 30
0.0
 11
66.8701211896
 21
46.7335142627
 31
0.0
  0
LINE
  5
242
330
1F
100
AcDbEntity
  8
PROFILES_OUTSIDE
100
AcDbLine
 10
66.6240581975
 20
46.340690577
 30
0.0
 11
66.6240581975
 21
46.68083529
 31
0.0
  0
LINE
  5
243
330
1F
100
AcDbEntity
  8
PROFILES_OUTSIDE
100
AcDbLine
 10
67.1162629219
 20
46.2043804044
 30
0.0
 11
67.0365850337
 21
46.2043804044
 31
0.0
  0
LINE
  5
244
330
1F
100
AcDbEntity
  8
PROFILES_OUTSIDE
100
AcDbLine
 10
67.1162629219
 20
41.5587111131
 30
0.0
 11
67.1162629219
 21
46.2043804044
 31
0.0
  0
LINE
  5
245
330
1F
100
AcDbEntity
  8
PROFILES_OUTSIDE
100
AcDbLine
 10
60.2246723464
 20
41.0862701682
 30
0.0
 11
66.643821977
 21
41.0862701682
 31
0.0
  0
LINE
  5
246
330
1F
100
AcDbEntity
  8
PROFILES_OUTSIDE
100
AcDbLine
 10
59.7522314015
 20
39.5902071761
 30
0.0
 11
59.7522314015
 21
40.6138292233
 31
0.0
  0
LINE
  5
247
330
1F
100
AcDbEntity
  8
PROFILES_OUTSIDE
100
AcDbLine
 10
66.643821977
 20
39.1177662312
 30
0.0
 11
60.2246723464
 21
39.1177662312
 31
0.0
  0
LINE
  5
248
330
1F
100
AcDbEntity
  8
PROFILES_INSIDE
100
AcDbLine
 10
47.0924170833
 20
25.1660281814
 30
0.0
 11
47.134225519
 21
25.4031356025
 31
0.0
  0
LINE
  5
249
330
1F
100
AcDbEntity
  8
PROFILES_INSIDE
100
AcDbLine
 10
46.5057076902
 20
25.1310676834
 30
0.0
 11
46.6624874293
 21
25.1034233187
 31
0.0
  0
LINE
  5
24A
330
1F
100
AcDbEntity
  8
PROFILES_INSIDE
100
AcDbLine
 10
46.1649265495
 20
25.5740494641
 30
0.0
 11
46.1231180623
 21
25.3369414503
 31
0.0
  0
LINE
  5
24B
330
1F
100
AcDbEntity
  8
PROFILES_INSIDE
100
AcDbLine
 10
46.7516359425
 20
25.6090096612
 30
0.0
 11
46.5948561948
 21
25.6366539769
 31
0.0
  0
LINE
  5
24C
330
1F
100
AcDbEntity
  8
PROFILES_INSIDE
100
AcDbLine
 10
27.7455740366
 20
28.577398602
 30
0.0
 11
27.7873824723
 21
28.8145060232
 31
0.0
  0
LINE
  5
24D
330
1F
100
AcDbEntity
  8
PROFILES_INSIDE
100
AcDbLine
 10
27.4047928959
 20
29.0203800818
 30
0.0
 11
27.2480131537
 21
29.0480244287
 31
0.0
  0
LINE
  5
24E
330
1F
100
AcDbEntity
  8
PROFILES_INSIDE
100
AcDbLine
 10
26.8180834984
 20
28.9854198855
 30
0.0
 11
26.7762750157
 21
28.7483118709
 31
0.0
  0
LINE
  5
24F
330
1F
100
AcDbEntity
  8
PROFILES_INSIDE
100
AcDbLine
 10
27.1588646436
 20
28.5424381041
 30
0.0
 11
27.3156443826
 21
28.5147937393
 31
0.0
  0
LINE
  5
250
330
1F
100
AcDbEntity
  8
PROFILES_INSIDE
100
AcDbLine
 10
47.134225519
 20
5.9012737452
 30
0.0
 11
47.0924170833
 21
6.1383811663
 31
0.0
  0
LINE
  5
251
330
1F
100
AcDbEntity
  8
PROFILES_INSIDE
100
AcDbLine
 10
46.6624874065
 20
6.2009861583
 30
0.0
 11
46.5057077138
 21
6.1733415306
 31
0.0
  0
LINE
  5
252
330
1F
100
AcDbEntity
  8
PROFILES_INSIDE
100
AcDbLine
 10
46.123118002
 20
5.9674678868
 30
0.0
 11
46.1649266009
 21
5.7303598927
 31
0.0
  0
LINE
  5
253
330
1F
100
AcDbEntity
  8
PROFILES_INSIDE
100
AcDbLine
 10
46.5948562263
 20
5.6677551925
 30
0.0
 11
46.7516359197
 21
5.6953998158
 31
0.0
  0
LINE
  5
254
330
1F
100
AcDbEntity
  8
PROFILES_OUTSIDE
100
AcDbLine
 10
67.1162629219
 20
33.999655995
 30
0.0
 11
67.1162629219
 21
38.6453252863
 31
0.0
  0
LINE
  5
255
330
1F
100
AcDbEntity
  8
PROFILES_OUTSIDE
100
AcDbLine
 10
67.0365850337
 20
33.999655995
 30
0.0
 11
67.1162629219
 21
33.999655995
 31
0.0
  0
LINE
  5
256
330
1F
100
AcDbEntity
  8
PROFILES_OUTSIDE
100
AcDbLine
 10
66.6240581975
 20
33.5232011094
 30
0.0
 11
66.6240581975
 21
33.8633458224
 31
0.0
  0
LINE
  5
257
330
1F
100
AcDbEntity
  8
PROFILES_OUTSIDE
100
AcDbLine
 10
66.8701211896
 20
33.4705221367
 30
0.0
 11
66.6609137357
 21
33.4839114138
 31
0.0
  0
LINE
  5
258
330
1F
100
AcDbEntity
  8
PROFILES_OUTSIDE
100
AcDbLine
 10
66.8701211896
 20
33.0547741052
 30
0.0
 11
66.8701211896
 21
33.4705221367
 31
0.0
  0
LINE
  5
259
330
1F
100
AcDbEntity
  8
PROFILES_INSIDE
100
AcDbLine
 10
26.7762749642
 20
2.5560974677
 30
0.0
 11
26.8180835543
 21
2.318989472
 31
0.0
  0
LINE
  5
25A
330
1F
100
AcDbEntity
  8
PROFILES_INSIDE
100
AcDbLine
 10
27.2480131796
 20
2.2563847719
 30
0.0
 11
27.4047928731
 21
2.2840293951
 31
0.0
  0
LINE
  5
25B
330
1F
100
AcDbEntity
  8
PROFILES_INSIDE
100
AcDbLine
 10
27.7873824723
 20
2.4899033245
 30
0.0
 11
27.7455740366
 21
2.7270107457
 31
0.0
  0
LINE
  5
25C
330
1F
100
AcDbEntity
  8
PROFILES_INSIDE
100
AcDbLine
 10
27.3156443598
 20
2.7896157376
 30
0.0
 11
27.1588646664
 21
2.7619711144
 31
0.0
  0
LINE
  5
25D
330
1F
100
AcDbEntity
  8
PROFILES_OUTSIDE
100
AcDbLine
 10
25.2019007901
 20
29.720157955
 30
0.0
 11
25.2019007901
 21
1.5842513927
 31
0.0
  0
LINE
  5
25E
330
1F
100
AcDbEntity
  8
PROFILES_OUTSIDE
100
AcDbLine
 10
47.9476444542
 20
25.9909862474
 30
0.0
 11
25.4791405172
 21
29.9527897076
 31
0.0
  0
LINE
  5
25F
330
1F
100
AcDbEntity
  8
PROFILES_OUTSIDE
100
AcDbLine
 10
48.142845672
 20
23.0051732181
 30
0.0
 11
48.142845672
 21
25.7583544947
 31
0.0
  0
LINE
  5
260
330
1F
100
AcDbEntity
  8
PROFILES_OUTSIDE
100
AcDbLine
 10
47.5506453151
 20
22.7025398059
 30
0.0
 11
47.9476444542
 21
22.7725414654
 31
0.0
  0
LINE
  5
261
330
1F
100
AcDbEntity
  8
POCKETS
100
AcDbLine
 10
24.3611083408
 20
7.0468026532
 30
0.0
 11
23.973388753
 21
6.978437229
 31
0.0
  0
LINE
  5
262
330
1F
100
AcDbEntity
  8
PROFILES_OUTSIDE
100
AcDbLine
 10
66.3681526857
 20
33.0154040265
 30
0.0
 11
66.8307511109
 21
33.0154040265
 31
0.0
  0
LINE
  5
263
330
1F
100
AcDbEntity
  8
PROFILES_OUTSIDE
100
AcDbLine
 10
66.1319322133
 20
37.8953252863
 30
0.0
 11
66.1319322133
 21
33.2516244989
 31
0.0
  0
LINE
  5
264
330
1F
100
AcDbEntity
  8
PROFILES_OUTSIDE
100
AcDbLine
 10
59.7522314015
 20
38.3677662312
 30
0.0
 11
65.6594912684
 21
38.3677662312
 31
0.0
  0
LINE
  5
265
330
1F
100
AcDbEntity
  8
PROFILES_OUTSIDE
100
AcDbLine
 10
54.1596789317
 20
39.1177662312
 30
0.0
 11
58.4531932959
 21
39.1177662312
 31
0.0
  0
LINE
  5
266
330
1F
100
AcDbEntity
  8
PROFILES_OUTSIDE
100
AcDbLine
 10
46.9533809592
 20
38.3677662312
 30
0.0
 11
52.860640826
 21
38.3677662312
 31
0.0
  0
LINE
  5
267
330
1F
100
AcDbEntity
  8
PROFILES_OUTSIDE
100
AcDbLine
 10
46.4809400143
 20
33.2516244989
 30
0.0
 11
46.4809400143
 21
37.8953252863
 31
0.0
  0
LINE
  5
268
330
1F
100
AcDbEntity
  8
PROFILES_OUTSIDE
100
AcDbLine
 10
45.7821211167
 20
33.0154040265
 30
0.0
 11
46.2447195419
 21
33.0154040265
 31
0.0
  0
LINE
  5
269
330
1F
100
AcDbEntity
  8
PROFILES_OUTSIDE
100
AcDbLine
 10
45.7427510379
 20
33.4705221367
 30
0.0
 11
45.7427510379
 21
33.0547741052
 31
0.0
  0
LINE
  5
26A
330
1F
100
AcDbEntity
  8
PROFILES_OUTSIDE
100
AcDbLine
 10
45.9519584918
 20
33.4839114138
 30
0.0
 11
45.7427510379
 21
33.4705221367
 31
0.0
  0
LINE
  5
26B
330
1F
100
AcDbEntity
  8
PROFILES_OUTSIDE
100
AcDbLine
 10
45.9888140301
 20
33.8633458224
 30
0.0
 11
45.9888140301
 21
33.5232011094
 31
0.0
  0
LINE
  5
26C
330
1F
100
AcDbEntity
  8
PROFILES_OUTSIDE
100
AcDbLine
 10
45.4966093056
 20
33.999655995
 30
0.0
 11
45.5762871938
 21
33.999655995
 31
0.0
  0
LINE
  5
26D
330
1F
100
AcDbEntity
  8
PROFILES_OUTSIDE
100
AcDbLine
 10
45.4966093056
 20
38.6453252863
 30
0.0
 11
45.4966093056
 21
33.999655995
 31
0.0
  0
LINE
  5
26E
330
1F
100
AcDbEntity
  8
PROFILES_OUTSIDE
100
AcDbLine
 10
52.3881998811
 20
39.1177662312
 30
0.0
 11
45.9690502505
 21
39.1177662312
 31
0.0
  0
LINE
  5
26F
330
1F
100
AcDbEntity
  8
PROFILES_OUTSIDE
100
AcDbLine
 10
52.860640826
 20
40.6138292233
 30
0.0
 11
52.860640826
 21
39.5902071761
 31
0.0
  0
LINE
  5
270
330
1F
100
AcDbEntity
  8
PROFILES_OUTSIDE
100
AcDbLine
 10
45.9690502505
 20
41.0862701682
 30
0.0
 11
52.3881998811
 21
41.0862701682
 31
0.0
  0
LINE
  5
271
330
1F
100
AcDbEntity
  8
PROFILES_OUTSIDE
100
AcDbLine
 10
45.4966093056
 20
46.2043804044
 30
0.0
 11
45.4966093056
 21
41.5587111131
 31
0.0
  0
LINE
  5
272
330
1F
100
AcDbEntity
  8
PROFILES_OUTSIDE
100
AcDbLine
 10
47.3554440972
 20
8.8345012945
 30
0.0
 11
47.3554440972
 21
22.4699080532
 31
0.0
  0
LINE
  5
273
330
1F
100
AcDbEntity
  8
POCKETS
100
AcDbLine
 10
24.4525812784
 20
6.5280338448
 30
0.0
 11
24.3611083408
 21
7.0468026532
 31
0.0
  0
LINE
  5
274
330
1F
100
AcDbEntity
  8
PROFILES_OUTSIDE
100
AcDbLine
 10
47.9476444542
 20
8.5318678823
 30
0.0
 11
47.5506453151
 21
8.6018695418
 31
0.0
  0
LINE
  5
275
330
1F
100
AcDbEntity
  8
POCKETS
100
AcDbLine
 10
24.0648616906
 20
6.4596684205
 30
0.0
 11
24.4525812784
 21
6.5280338448
 31
0.0
  0
LINE
  5
276
330
1F
100
AcDbEntity
  8
POCKETS
100
AcDbLine
 10
1.010727788
 20
2.3946025966
 30
0.0
 11
24.0648616906
 21
6.4596684205
 31
0.0
  0
LINE
  5
277
330
1F
100
AcDbEntity
  8
POCKETS
100
AcDbLine
 10
0.6230082002
 20
2.3262371723
 30
0.0
 11
1.010727788
 21
2.3946025966
 31
0.0
  0
LINE
  5
278
330
1F
100
AcDbEntity
  8
POCKETS
100
AcDbLine
 10
0.5315352625
 20
2.8450059808
 30
0.0
 11
0.6230082002
 21
2.3262371723
 31
0.0
  0
LINE
  5
279
330
1F
100
AcDbEntity
  8
POCKETS
100
AcDbLine
 10
0.9192548503
 20
2.913371405
 30
0.0
 11
0.5315352625
 21
2.8450059808
 31
0.0
  0
LINE
  5
27A
330
1F
100
AcDbEntity
  8
POCKETS
100
AcDbLine
 10
21.874341735
 20
6.6083186059
 30
0.0
 11
0.9192548503
 21
2.913371405
 31
0.0
  0
LINE
  5
27B
330
1F
100
AcDbEntity
  8
POCKETS
100
AcDbLine
 10
21.874341735
 20
24.6960907418
 30
0.0
 11
21.874341735
 21
6.6083186059
 31
0.0
  0
LINE
  5
27C
330
1F
100
AcDbEntity
  8
POCKETS
100
AcDbLine
 10
0.9192548503
 20
28.3910379426
 30
0.0
 11
21.874341735
 21
24.6960907418
 31
0.0
  0
LINE
  5
27D
330
1F
100
AcDbEntity
  8
POCKETS
100
AcDbLine
 10
0.5315352625
 20
28.4594033669
 30
0.0
 11
0.9192548503
 21
28.3910379426
 31
0.0
  0
LINE
  5
27E
330
1F
100
AcDbEntity
  8
POCKETS
100
AcDbLine
 10
0.6230082002
 20
28.9781721754
 30
0.0
 11
0.5315352625
 21
28.4594033669
 31
0.0
  0
LINE
  5
27F
330
1F
100
AcDbEntity
  8
POCKETS
100
AcDbLine
 10
1.010727788
 20
28.9098067511
 30
0.0
 11
0.6230082002
 21
28.9781721754
 31
0.0
  0
LINE
  5
280
330
1F
100
AcDbEntity
  8
POCKETS
100
AcDbLine
 10
24.0648616906
 20
24.8447409272
 30
0.0
 11
1.010727788
 21
28.9098067511
 31
0.0
  0
LINE
  5
281
330
1F
100
AcDbEntity
  8
POCKETS
100
AcDbLine
 10
24.4525812784
 20
24.7763755029
 30
0.0
 11
24.0648616906
 21
24.8447409272
 31
0.0
  0
LINE
  5
282
330
1F
100
AcDbEntity
  8
POCKETS
100
AcDbLine
 10
24.3611083408
 20
24.2576066945
 30
0.0
 11
24.4525812784
 21
24.7763755029
 31
0.0
  0
LINE
  5
283
330
1F
100
AcDbEntity
  8
POCKETS
100
AcDbLine
 10
23.973388753
 20
24.3259721187
 30
0.0
 11
24.3611083408
 21
24.2576066945
 31
0.0
  0
LINE
  5
284
330
1F
100
AcDbEntity
  8
POCKETS
100
AcDbLine
 10
22.3877275618
 20
24.605566969
 30
0.0
 11
23.973388753
 21
24.3259721187
 31
0.0
  0
LINE
  5
285
330
1F
100
AcDbEntity
  8
PROFILES_OUTSIDE
100
AcDbLine
 10
45.5762871938
 20
46.2043804044
 30
0.0
 11
45.4966093056
 21
46.2043804044
 31
0.0
  0
LINE
  5
286
330
1F
100
AcDbEntity
  8
PROFILES_OUTSIDE
100
AcDbLine
 10
45.9888140301
 20
46.68083529
 30
0.0
 11
45.9888140301
 21
46.340690577
 31
0.0
  0
LINE
  5
287
330
1F
100
AcDbEntity
  8
PROFILES_OUTSIDE
100
AcDbLine
 10
45.7427510379
 20
46.7335142627
 30
0.0
 11
45.9519584918
 21
46.7201249857
 31
0.0
  0
LINE
  5
288
330
1F
100
AcDbEntity
  8
PROFILES_OUTSIDE
100
AcDbLine
 10
45.7427510379
 20
47.1492622942
 30
0.0
 11
45.7427510379
 21
46.7335142627
 31
0.0
  0
LINE
  5
289
330
1F
100
AcDbEntity
  8
PROFILES_OUTSIDE
100
AcDbLine
 10
46.2447195419
 20
47.1886323729
 30
0.0
 11
45.7821211167
 21
47.1886323729
 31
0.0
  0
LINE
  5
28A
330
1F
100
AcDbEntity
  8
PROFILES_OUTSIDE
100
AcDbLine
 10
46.4809400143
 20
42.3087111131
 30
0.0
 11
46.4809400143
 21
46.9524119005
 31
0.0
  0
LINE
  5
28B
330
1F
100
AcDbEntity
  8
PROFILES_OUTSIDE
100
AcDbLine
 10
52.860640826
 20
41.8362701682
 30
0.0
 11
46.9533809592
 21
41.8362701682
 31
0.0
  0
LINE
  5
28C
330
1F
100
AcDbEntity
  8
PROFILES_OUTSIDE
100
AcDbLine
 10
58.4531932959
 20
41.0862701682
 30
0.0
 11
54.1596789317
 21
41.0862701682
 31
0.0
  0
LINE
  5
28D
330
1F
100
AcDbEntity
  8
PROFILES_OUTSIDE
100
AcDbLine
 10
65.6594912684
 20
41.8362701682
 30
0.0
 11
59.7522314015
 21
41.8362701682
 31
0.0
  0
LINE
  5
28E
330
1F
100
AcDbEntity
  8
PROFILES_OUTSIDE
100
AcDbLine
 10
66.1319322133
 20
46.9524119005
 30
0.0
 11
66.1319322133
 21
42.3087111131
 31
0.0
  0
LINE
  5
28F
330
1F
100
AcDbEntity
  8
PROFILES_OUTSIDE
100
AcDbLine
 10
66.8307511109
 20
47.1886323729
 30
0.0
 11
66.3681526857
 21
47.1886323729
 31
0.0
  0
LINE
  5
290
330
1F
100
AcDbEntity
  8
POCKETS
100
AcDbLine
 10
22.3877275618
 20
6.6988423787
 30
0.0
 11
22.3877275618
 21
24.605566969
 31
0.0
  0
LINE
  5
291
330
1F
100
AcDbEntity
  8
PROFILES_OUTSIDE
100
AcDbLine
 10
68.6016172526
 20
33.4705221367
 30
0.0
 11
68.6016172526
 21
33.0547741052
 31
0.0
  0
LINE
  5
292
330
1F
100
AcDbEntity
  8
PROFILES_OUTSIDE
100
AcDbLine
 10
68.8108247065
 20
33.4839114138
 30
0.0
 11
68.6016172526
 21
33.4705221367
 31
0.0
  0
LINE
  5
293
330
1F
100
AcDbEntity
  8
PROFILES_OUTSIDE
100
AcDbLine
 10
68.8476802447
 20
33.8633458224
 30
0.0
 11
68.8476802447
 21
33.5232011094
 31
0.0
  0
LINE
  5
294
330
1F
100
AcDbEntity
  8
PROFILES_OUTSIDE
100
AcDbLine
 10
68.3554755203
 20
33.999655995
 30
0.0
 11
68.4351534085
 21
33.999655995
 31
0.0
  0
LINE
  5
295
330
1F
100
AcDbEntity
  8
PROFILES_OUTSIDE
100
AcDbLine
 10
68.3554755203
 20
38.6453252863
 30
0.0
 11
68.3554755203
 21
33.999655995
 31
0.0
  0
LINE
  5
296
330
1F
100
AcDbEntity
  8
PROFILES_OUTSIDE
100
AcDbLine
 10
75.2470660958
 20
39.1177662312
 30
0.0
 11
68.8279164652
 21
39.1177662312
 31
0.0
  0
LINE
  5
297
330
1F
100
AcDbEntity
  8
PROFILES_OUTSIDE
100
AcDbLine
 10
75.7195070407
 20
40.6138292233
 30
0.0
 11
75.7195070407
 21
39.5902071761
 31
0.0
  0
LINE
  5
298
330
1F
100
AcDbEntity
  8
PROFILES_OUTSIDE
100
AcDbLine
 10
68.8279164652
 20
41.0862701682
 30
0.0
 11
75.2470660958
 21
41.0862701682
 31
0.0
  0
LINE
  5
299
330
1F
100
AcDbEntity
  8
PROFILES_OUTSIDE
100
AcDbLine
 10
68.3554755203
 20
46.2043804044
 30
0.0
 11
68.3554755203
 21
41.5587111131
 31
0.0
  0
LINE
  5
29A
330
1F
100
AcDbEntity
  8
PROFILES_OUTSIDE
100
AcDbLine
 10
68.4351534085
 20
46.2043804044
 30
0.0
 11
68.3554755203
 21
46.2043804044
 31
0.0
  0
LINE
  5
29B
330
1F
100
AcDbEntity
  8
PROFILES_OUTSIDE
100
AcDbLine
 10
68.8476802447
 20
46.68083529
 30
0.0
 11
68.8476802447
 21
46.340690577
 31
0.0
  0
LINE
  5
29C
330
1F
100
AcDbEntity
  8
PROFILES_OUTSIDE
100
AcDbLine
 10
68.6016172526
 20
46.7335142627
 30
0.0
 11
68.8108247065
 21
46.7201249857
 31
0.0
  0
LINE
  5
29D
330
1F
100
AcDbEntity
  8
PROFILES_OUTSIDE
100
AcDbLine
 10
68.6016172526
 20
47.1492622942
 30
0.0
 11
68.6016172526
 21
46.7335142627
 31
0.0
  0
LINE
  5
29E
330
1F
100
AcDbEntity
  8
PROFILES_OUTSIDE
100
AcDbLine
 10
69.1035857566
 20
47.1886323729
 30
0.0
 11
68.6409873314
 21
47.1886323729
 31
0.0
  0
LINE
  5
29F
330
1F
100
AcDbEntity
  8
PROFILES_OUTSIDE
100
AcDbLine
 10
69.339806229
 20
42.3087111131
 30
0.0
 11
69.339806229
 21
46.9524119005
 31
0.0
  0
LINE
  5
2A0
330
1F
100
AcDbEntity
  8
PROFILES_OUTSIDE
100
AcDbLine
 10
75.7195070407
 20
41.8362701682
 30
0.0
 11
69.8122471739
 21
41.8362701682
 31
0.0
  0
LINE
  5
2A1
330
1F
100
AcDbEntity
  8
PROFILES_OUTSIDE
100
AcDbLine
 10
81.3120595105
 20
41.0862701682
 30
0.0
 11
77.0185451464
 21
41.0862701682
 31
0.0
  0
LINE
  5
2A2
330
1F
100
AcDbEntity
  8
PROFILES_OUTSIDE
100
AcDbLine
 10
88.5183574831
 20
41.8362701682
 30
0.0
 11
82.6110976162
 21
41.8362701682
 31
0.0
  0
LINE
  5
2A3
330
1F
100
AcDbEntity
  8
PROFILES_OUTSIDE
100
AcDbLine
 10
88.9907984279
 20
46.9524119005
 30
0.0
 11
88.9907984279
 21
42.3087111131
 31
0.0
  0
LINE
  5
2A4
330
1F
100
AcDbEntity
  8
PROFILES_OUTSIDE
100
AcDbLine
 10
89.6896173256
 20
47.1886323729
 30
0.0
 11
89.2270189004
 21
47.1886323729
 31
0.0
  0
LINE
  5
2A5
330
1F
100
AcDbEntity
  8
PROFILES_OUTSIDE
100
AcDbLine
 10
89.7289874043
 20
46.7335142627
 30
0.0
 11
89.7289874043
 21
47.1492622942
 31
0.0
  0
LINE
  5
2A6
330
1F
100
AcDbEntity
  8
PROFILES_OUTSIDE
100
AcDbLine
 10
89.5197799504
 20
46.7201249857
 30
0.0
 11
89.7289874043
 21
46.7335142627
 31
0.0
  0
LINE
  5
2A7
330
1F
100
AcDbEntity
  8
PROFILES_OUTSIDE
100
AcDbLine
 10
89.4829244122
 20
46.340690577
 30
0.0
 11
89.4829244122
 21
46.68083529
 31
0.0
  0
LINE
  5
2A8
330
1F
100
AcDbEntity
  8
PROFILES_OUTSIDE
100
AcDbLine
 10
89.9751291366
 20
46.2043804044
 30
0.0
 11
89.8954512484
 21
46.2043804044
 31
0.0
  0
LINE
  5
2A9
330
1F
100
AcDbEntity
  8
PROFILES_OUTSIDE
100
AcDbLine
 10
89.9751291366
 20
41.5587111131
 30
0.0
 11
89.9751291366
 21
46.2043804044
 31
0.0
  0
LINE
  5
2AA
330
1F
100
AcDbEntity
  8
PROFILES_OUTSIDE
100
AcDbLine
 10
83.0835385611
 20
41.0862701682
 30
0.0
 11
89.5026881917
 21
41.0862701682
 31
0.0
  0
LINE
  5
2AB
330
1F
100
AcDbEntity
  8
PROFILES_OUTSIDE
100
AcDbLine
 10
82.6110976162
 20
39.5902071761
 30
0.0
 11
82.6110976162
 21
40.6138292233
 31
0.0
  0
LINE
  5
2AC
330
1F
100
AcDbEntity
  8
PROFILES_OUTSIDE
100
AcDbLine
 10
89.5026881917
 20
39.1177662312
 30
0.0
 11
83.0835385611
 21
39.1177662312
 31
0.0
  0
LINE
  5
2AD
330
1F
100
AcDbEntity
  8
PROFILES_OUTSIDE
100
AcDbLine
 10
89.9751291366
 20
33.999655995
 30
0.0
 11
89.9751291366
 21
38.6453252863
 31
0.0
  0
LINE
  5
2AE
330
1F
100
AcDbEntity
  8
PROFILES_OUTSIDE
100
AcDbLine
 10
89.8954512484
 20
33.999655995
 30
0.0
 11
89.9751291366
 21
33.999655995
 31
0.0
  0
LINE
  5
2AF
330
1F
100
AcDbEntity
  8
PROFILES_OUTSIDE
100
AcDbLine
 10
89.4829244122
 20
33.5232011094
 30
0.0
 11
89.4829244122
 21
33.8633458224
 31
0.0
  0
LINE
  5
2B0
330
1F
100
AcDbEntity
  8
PROFILES_OUTSIDE
100
AcDbLine
 10
89.7289874043
 20
33.4705221367
 30
0.0
 11
89.5197799504
 21
33.4839114138
 31
0.0
  0
LINE
  5
2B1
330
1F
100
AcDbEntity
  8
PROFILES_OUTSIDE
100
AcDbLine
 10
89.7289874043
 20
33.0547741052
 30
0.0
 11
89.7289874043
 21
33.4705221367
 31
0.0
  0
LINE
  5
2B2
330
1F
100
AcDbEntity
  8
PROFILES_OUTSIDE
100
AcDbLine
 10
89.2270189004
 20
33.0154040265
 30
0.0
 11
89.6896173256
 21
33.0154040265
 31
0.0
  0
LINE
  5
2B3
330
1F
100
AcDbEntity
  8
PROFILES_OUTSIDE
100
AcDbLine
 10
88.9907984279
 20
37.8953252863
 30
0.0
 11
88.9907984279
 21
33.2516244989
 31
0.0
  0
LINE
  5
2B4
330
1F
100
AcDbEntity
  8
PROFILES_OUTSIDE
100
AcDbLine
 10
82.6110976162
 20
38.3677662312
 30
0.0
 11
88.5183574831
 21
38.3677662312
 31
0.0
  0
LINE
  5
2B5
330
1F
100
AcDbEntity
  8
PROFILES_OUTSIDE
100
AcDbLine
 10
77.0185451464
 20
39.1177662312
 30
0.0
 11
81.3120595105
 21
39.1177662312
 31
0.0
  0
LINE
  5
2B6
330
1F
100
AcDbEntity
  8
PROFILES_OUTSIDE
100
AcDbLine
 10
69.8122471739
 20
38.3677662312
 30
0.0
 11
75.7195070407
 21
38.3677662312
 31
0.0
  0
LINE
  5
2B7
330
1F
100
AcDbEntity
  8
PROFILES_OUTSIDE
100
AcDbLine
 10
69.339806229
 20
33.2516244989
 30
0.0
 11
69.339806229
 21
37.8953252863
 31
0.0
  0
LINE
  5
2B8
330
1F
100
AcDbEntity
  8
PROFILES_OUTSIDE
100
AcDbLine
 10
68.6409873314
 20
33.0154040265
 30
0.0
 11
69.1035857566
 21
33.0154040265
 31
0.0
  0
LINE
  5
2B9
330
1F
100
AcDbEntity
  8
POCKETS
100
AcDbLine
 10
23.973388753
 20
6.978437229
 30
0.0
 11
22.3877275618
 21
6.6988423787
 31
0.0
  0
LINE
  5
2BA
330
1F
100
AcDbEntity
  8
POCKETS
100
AcDbLine
 10
46.5680425224
 20
24.605566969
 30
0.0
 11
48.1537037136
 21
24.3259721187
 31
0.0
  0
LINE
  5
2BB
330
1F
100
AcDbEntity
  8
POCKETS
100
AcDbLine
 10
48.1537037136
 20
24.3259721187
 30
0.0
 11
48.5414233014
 21
24.2576066945
 31
0.0
  0
LINE
  5
2BC
330
1F
100
AcDbEntity
  8
POCKETS
100
AcDbLine
 10
48.5414233014
 20
24.2576066945
 30
0.0
 11
48.6328962391
 21
24.7763755029
 31
0.0
  0
LINE
  5
2BD
330
1F
100
AcDbEntity
  8
POCKETS
100
AcDbLine
 10
48.6328962391
 20
24.7763755029
 30
0.0
 11
48.2451766513
 21
24.8447409272
 31
0.0
  0
LINE
  5
2BE
330
1F
100
AcDbEntity
  8
POCKETS
100
AcDbLine
 10
48.2451766513
 20
24.8447409272
 30
0.0
 11
25.2778668374
 21
28.8944973217
 31
0.0
  0
LINE
  5
2BF
330
1F
100
AcDbEntity
  8
POCKETS
100
AcDbLine
 10
25.2778668374
 20
28.8944973217
 30
0.0
 11
24.8901472496
 21
28.962862746
 31
0.0
  0
LINE
  5
2C0
330
1F
100
AcDbEntity
  8
POCKETS
100
AcDbLine
 10
24.8901472496
 20
28.962862746
 30
0.0
 11
24.7986743119
 21
28.4440939375
 31
0.0
  0
LINE
  5
2C1
330
1F
100
AcDbEntity
  8
POCKETS
100
AcDbLine
 10
24.7986743119
 20
28.4440939375
 30
0.0
 11
25.1863938997
 21
28.3757285132
 31
0.0
  0
LINE
  5
2C2
330
1F
100
AcDbEntity
  8
POCKETS
100
AcDbLine
 10
25.1863938997
 20
28.3757285132
 30
0.0
 11
46.0546566957
 21
24.6960907418
 31
0.0
  0
LINE
  5
2C3
330
1F
100
AcDbEntity
  8
POCKETS
100
AcDbLine
 10
46.0546566957
 20
24.6960907418
 30
0.0
 11
46.0546566957
 21
6.6083186059
 31
0.0
  0
LINE
  5
2C4
330
1F
100
AcDbEntity
  8
POCKETS
100
AcDbLine
 10
46.0546566957
 20
6.6083186059
 30
0.0
 11
25.1863938997
 21
2.9286808345
 31
0.0
  0
LINE
  5
2C5
330
1F
100
AcDbEntity
  8
POCKETS
100
AcDbLine
 10
25.1863938997
 20
2.9286808345
 30
0.0
 11
24.7986743119
 21
2.8603154102
 31
0.0
  0
LINE
  5
2C6
330
1F
100
AcDbEntity
  8
POCKETS
100
AcDbLine
 10
24.7986743119
 20
2.8603154102
 30
0.0
 11
24.8901472496
 21
2.3415466017
 31
0.0
  0
LINE
  5
2C7
330
1F
100
AcDbEntity
  8
POCKETS
100
AcDbLine
 10
24.8901472496
 20
2.3415466017
 30
0.0
 11
25.2778668374
 21
2.409912026
 31
0.0
  0
LINE
  5
2C8
330
1F
100
AcDbEntity
  8
POCKETS
100
AcDbLine
 10
25.2778668374
 20
2.409912026
 30
0.0
 11
48.2451766513
 21
6.4596684205
 31
0.0
  0
LINE
  5
2C9
330
1F
100
AcDbEntity
  8
POCKETS
100
AcDbLine
 10
48.2451766513
 20
6.4596684205
 30
0.0
 11
48.6328962391
 21
6.5280338448
 31
0.0
  0
LINE
  5
2CA
330
1F
100
AcDbEntity
  8
POCKETS
100
AcDbLine
 10
48.6328962391
 20
6.5280338448
 30
0.0
 11
48.5414233014
 21
7.0468026532
 31
0.0
  0
LINE
  5
2CB
330
1F
100
AcDbEntity
  8
POCKETS
100
AcDbLine
 10
48.5414233014
 20
7.0468026532
 30
0.0
 11
48.1537037136
 21
6.978437229
 31
0.0
  0
LINE
  5
2CC
330
1F
100
AcDbEntity
  8
POCKETS
100
AcDbLine
 10
48.1537037136
 20
6.978437229
 30
0.0
 11
46.5680425224
 21
6.6988423787
 31
0.0
  0
LINE
  5
2CD
330
1F
100
AcDbEntity
  8
POCKETS
100
AcDbLine
 10
46.5680425224
 20
6.6988423787
 30
0.0
 11
46.5680425224
 21
24.605566969
 31
0.0
  0
LINE
  5
2CE
330
1F
100
AcDbEntity
  8
PROFILES_OUTSIDE
100
AcDbLine
 10
48.142845672
 20
5.546054853
 30
0.0
 11
48.142845672
 21
8.2992361296
 31
0.0
  0
LINE
  5
2CF
330
1F
100
AcDbEntity
  8
PROFILES_OUTSIDE
100
AcDbLine
 10
25.4791405172
 20
1.3516196401
 30
0.0
 11
47.9476444542
 21
5.3134231003
 31
0.0
  0
ARC
  5
2D0
330
1F
100
AcDbEntity
  8
PROFILES_OUTSIDE
100
AcDbCircle
 10
23.726310239
 20
8.2992361296
 30
0.0
 40
0.2362204724409449
100
AcDbArc
 50
0.0
 51
80.0
  0
ARC
  5
2D1
330
1F
100
AcDbEntity
  8
PROFILES_OUTSIDE
100
AcDbCircle
 10
23.411349609
 20
8.8345012945
 30
0.0
 40
0.2362204724409467
100
AcDbArc
 50
180.0
 51
260.0
  0
ARC
  5
2D2
330
1F
100
AcDbEntity
  8
PROFILES_OUTSIDE
100
AcDbCircle
 10
23.411349609
 20
22.4699080532
 30
0.0
 40
0.2362204724409484
100
AcDbArc
 50
100.0
 51
180.0
  0
ARC
  5
2D3
330
1F
100
AcDbEntity
  8
PROFILES_OUTSIDE
100
AcDbCircle
 10
23.726310239
 20
23.0051732181
 30
0.0
 40
0.2362204724409449
100
AcDbArc
 50
280.0
 51
0.0
  0
ARC
  5
2D4
330
1F
100
AcDbEntity
  8
PROFILES_INSIDE
100
AcDbCircle
 10
23.6987511838
 20
15.8333843164
 30
0.0
 40
0.2362204724409449
100
AcDbArc
 50
280.0
 51
0.0
  0
ARC
  5
2D5
330
1F
100
AcDbEntity
  8
PROFILES_OUTSIDE
100
AcDbCircle
 10
66.8307511109
 20
33.0547741052
 30
0.0
 40
0.0393700787401627
100
AcDbArc
 50
270.0
 51
0.0
  0
ARC
  5
2D6
330
1F
100
AcDbEntity
  8
PROFILES_INSIDE
100
AcDbCircle
 10
22.5781574924
 20
25.6477816256
 30
0.0
 40
0.0393700787401585
100
AcDbArc
 50
260.0000472348
 51
332.3995430525
  0
ARC
  5
2D7
330
1F
100
AcDbEntity
  8
PROFILES_INSIDE
100
AcDbCircle
 10
22.7934273068
 20
25.5352391002
 30
0.0
 40
0.2035433070866127
100
AcDbArc
 50
325.1121889858
 51
152.3995430525
  0
ARC
  5
2D8
330
1F
100
AcDbEntity
  8
PROFILES_INSIDE
100
AcDbCircle
 10
22.9926838395
 20
25.3962988269
 30
0.0
 40
0.0393714215238469
100
AcDbArc
 50
145.1121889858
 51
170.0
  0
ARC
  5
2D9
330
1F
100
AcDbEntity
  8
PROFILES_INSIDE
100
AcDbCircle
 10
22.9508740814
 20
25.1591916389
 30
0.0
 40
0.0393700787401596
100
AcDbArc
 50
170.0
 51
194.8879031485
  0
ARC
  5
2DA
330
1F
100
AcDbEntity
  8
PROFILES_INSIDE
100
AcDbCircle
 10
22.7161152139
 20
25.0967802048
 30
0.0
 40
0.2035433070866143
100
AcDbArc
 50
187.6004766242
 51
14.8879031485
  0
ARC
  5
2DB
330
1F
100
AcDbEntity
  8
PROFILES_INSIDE
100
AcDbCircle
 10
22.4753359582
 20
25.0646513543
 30
0.0
 40
0.0393700787401588
100
AcDbArc
 50
7.6004766242
 51
80.0000472348
  0
ARC
  5
2DC
330
1F
100
AcDbEntity
  8
PROFILES_INSIDE
100
AcDbCircle
 10
22.3185562191
 20
25.092295719
 30
0.0
 40
0.0393700787401586
100
AcDbArc
 50
80.0000472348
 51
152.3995430525
  0
ARC
  5
2DD
330
1F
100
AcDbEntity
  8
PROFILES_INSIDE
100
AcDbCircle
 10
22.1032864047
 20
25.2048382444
 30
0.0
 40
0.2035433070866142
100
AcDbArc
 50
145.1121190957
 51
332.3995430525
  0
ARC
  5
2DE
330
1F
100
AcDbEntity
  8
PROFILES_INSIDE
100
AcDbCircle
 10
21.9040311429
 20
25.3437779927
 30
0.0
 40
0.0393700787401637
100
AcDbArc
 50
325.1121190957
 51
350.0
  0
ARC
  5
2DF
330
1F
100
AcDbEntity
  8
PROFILES_INSIDE
100
AcDbCircle
 10
21.9458396815
 20
25.5808859975
 30
0.0
 40
0.0393700264954954
100
AcDbArc
 50
350.0
 51
14.8878397487
  0
ARC
  5
2E0
330
1F
100
AcDbEntity
  8
PROFILES_INSIDE
100
AcDbCircle
 10
22.1805984976
 20
25.6432971398
 30
0.0
 40
0.2035432572735661
100
AcDbArc
 50
7.6004766242
 51
194.8878397487
  0
ARC
  5
2E1
330
1F
100
AcDbEntity
  8
PROFILES_INSIDE
100
AcDbCircle
 10
22.4213777533
 20
25.6754259903
 30
0.0
 40
0.0393701285532057
100
AcDbArc
 50
187.6004766242
 51
260.0000472348
  0
ARC
  5
2E2
330
1F
100
AcDbEntity
  8
PROFILES_INSIDE
100
AcDbCircle
 10
3.6402343676
 20
28.8086578116
 30
0.0
 40
0.0393714215238461
100
AcDbArc
 50
145.1121889858
 51
170.0
  0
ARC
  5
2E3
330
1F
100
AcDbEntity
  8
PROFILES_INSIDE
100
AcDbCircle
 10
3.4409778349
 20
28.9475980849
 30
0.0
 40
0.2035433070866157
100
AcDbArc
 50
325.1121889858
 51
152.3995430525
  0
ARC
  5
2E4
330
1F
100
AcDbEntity
  8
PROFILES_INSIDE
100
AcDbCircle
 10
3.2257080205
 20
29.0601406103
 30
0.0
 40
0.0393700787401579
100
AcDbArc
 50
260.0000472348
 51
332.3995430525
  0
ARC
  5
2E5
330
1F
100
AcDbEntity
  8
PROFILES_INSIDE
100
AcDbCircle
 10
3.0689282814
 20
29.087784975
 30
0.0
 40
0.0393701059109102
100
AcDbArc
 50
187.6004766242
 51
260.0000472348
  0
ARC
  5
2E6
330
1F
100
AcDbEntity
  8
PROFILES_INSIDE
100
AcDbCircle
 10
2.8281490257
 20
29.0556561245
 30
0.0
 40
0.2035432799158602
100
AcDbArc
 50
7.6004766242
 51
194.8878397487
  0
ARC
  5
2E7
330
1F
100
AcDbEntity
  8
PROFILES_INSIDE
100
AcDbCircle
 10
2.5933902096
 20
28.9932449822
 30
0.0
 40
0.0393700219670389
100
AcDbArc
 50
350.0
 51
14.8878397487
  0
ARC
  5
2E8
330
1F
100
AcDbEntity
  8
PROFILES_INSIDE
100
AcDbCircle
 10
2.551581671
 20
28.7561369774
 30
0.0
 40
0.039370078740157
100
AcDbArc
 50
325.1121190957
 51
350.0
  0
ARC
  5
2E9
330
1F
100
AcDbEntity
  8
PROFILES_INSIDE
100
AcDbCircle
 10
2.7508369328
 20
28.6171972291
 30
0.0
 40
0.203543307086615
100
AcDbArc
 50
145.1121190957
 51
332.3995430525
  0
ARC
  5
2EA
330
1F
100
AcDbEntity
  8
PROFILES_INSIDE
100
AcDbCircle
 10
2.9661067472
 20
28.5046547037
 30
0.0
 40
0.0393700787401594
100
AcDbArc
 50
80.0000472348
 51
152.3995430525
  0
ARC
  5
2EB
330
1F
100
AcDbEntity
  8
PROFILES_INSIDE
100
AcDbCircle
 10
3.1228864863
 20
28.477010339
 30
0.0
 40
0.0393700787401579
100
AcDbArc
 50
7.6004766242
 51
80.0000472348
  0
ARC
  5
2EC
330
1F
100
AcDbEntity
  8
PROFILES_INSIDE
100
AcDbCircle
 10
3.363665742
 20
28.5091391895
 30
0.0
 40
0.2035433070866164
100
AcDbArc
 50
187.6004766242
 51
14.8879031485
  0
ARC
  5
2ED
330
1F
100
AcDbEntity
  8
PROFILES_INSIDE
100
AcDbCircle
 10
3.5984246095
 20
28.5715506236
 30
0.0
 40
0.039370078740155
100
AcDbArc
 50
170.0
 51
194.8879031485
  0
ARC
  5
2EE
330
1F
100
AcDbEntity
  8
PROFILES_INSIDE
100
AcDbCircle
 10
22.7934273093
 20
5.7691704619
 30
0.0
 40
0.2035433070866158
100
AcDbArc
 50
207.6004766242
 51
34.8879031485
  0
ARC
  5
2EF
330
1F
100
AcDbEntity
  8
PROFILES_INSIDE
100
AcDbCircle
 10
22.9926825171
 20
5.9081102876
 30
0.0
 40
0.0393700787401568
100
AcDbArc
 50
190.0
 51
214.8879031485
  0
ARC
  5
2F0
330
1F
100
AcDbEntity
  8
PROFILES_INSIDE
100
AcDbCircle
 10
22.9508754038
 20
6.1452179419
 30
0.0
 40
0.0393714215238468
100
AcDbArc
 50
165.1121889858
 51
190.0
  0
ARC
  5
2F1
330
1F
100
AcDbEntity
  8
PROFILES_INSIDE
100
AcDbCircle
 10
22.7161151382
 20
6.2076293436
 30
0.0
 40
0.2035433070866122
100
AcDbArc
 50
345.1121889858
 51
172.3995430525
  0
ARC
  5
2F2
330
1F
100
AcDbEntity
  8
PROFILES_INSIDE
100
AcDbCircle
 10
22.4753358715
 20
6.2397581114
 30
0.0
 40
0.0393700787401596
100
AcDbArc
 50
280.0000472348
 51
352.3995430525
  0
ARC
  5
2F3
330
1F
100
AcDbEntity
  8
PROFILES_INSIDE
100
AcDbCircle
 10
22.318556178
 20
6.2121134882
 30
0.0
 40
0.0393701013824491
100
AcDbArc
 50
207.6004766242
 51
280.0000472348
  0
ARC
  5
2F4
330
1F
100
AcDbEntity
  8
PROFILES_INSIDE
100
AcDbCircle
 10
22.1032864022
 20
6.0995708889
 30
0.0
 40
0.203543284444321
100
AcDbArc
 50
27.6004766242
 51
214.8878397487
  0
ARC
  5
2F5
330
1F
100
AcDbEntity
  8
PROFILES_INSIDE
100
AcDbCircle
 10
21.9040311429
 20
5.960631355
 30
0.0
 40
0.0393700174385829
100
AcDbArc
 50
10.0
 51
34.8878397487
  0
ARC
  5
2F6
330
1F
100
AcDbEntity
  8
PROFILES_INSIDE
100
AcDbCircle
 10
21.9458396815
 20
5.7235233502
 30
0.0
 40
0.0393700787401588
100
AcDbArc
 50
345.1121190957
 51
10.0
  0
ARC
  5
2F7
330
1F
100
AcDbEntity
  8
PROFILES_INSIDE
100
AcDbCircle
 10
22.1805985733
 20
5.6611120072
 30
0.0
 40
0.2035433070866119
100
AcDbArc
 50
165.1121190957
 51
352.3995430525
  0
ARC
  5
2F8
330
1F
100
AcDbEntity
  8
PROFILES_INSIDE
100
AcDbCircle
 10
22.42137784
 20
5.6289832394
 30
0.0
 40
0.0393700787401596
100
AcDbArc
 50
100.0000472348
 51
172.3995430525
  0
ARC
  5
2F9
330
1F
100
AcDbEntity
  8
PROFILES_INSIDE
100
AcDbCircle
 10
22.5781575335
 20
5.6566278626
 30
0.0
 40
0.0393700787401563
100
AcDbArc
 50
27.6004766242
 51
100.0000472348
  0
ARC
  5
2FA
330
1F
100
AcDbEntity
  8
PROFILES_INSIDE
100
AcDbCircle
 10
2.5933902096
 20
2.3111643655
 30
0.0
 40
0.0393700787401569
100
AcDbArc
 50
345.1121190957
 51
10.0
  0
ARC
  5
2FB
330
1F
100
AcDbEntity
  8
PROFILES_INSIDE
100
AcDbCircle
 10
2.8281491014
 20
2.2487530225
 30
0.0
 40
0.2035433070866151
100
AcDbArc
 50
165.1121190957
 51
352.3995430525
  0
ARC
  5
2FC
330
1F
100
AcDbEntity
  8
PROFILES_INSIDE
100
AcDbCircle
 10
3.0689283681
 20
2.2166242547
 30
0.0
 40
0.0393700787401596
100
AcDbArc
 50
100.0000472348
 51
172.3995430525
  0
ARC
  5
2FD
330
1F
100
AcDbEntity
  8
PROFILES_INSIDE
100
AcDbCircle
 10
3.2257080616
 20
2.2442688779
 30
0.0
 40
0.0393700787401608
100
AcDbArc
 50
27.6004766242
 51
100.0000472348
  0
ARC
  5
2FE
330
1F
100
AcDbEntity
  8
PROFILES_INSIDE
100
AcDbCircle
 10
3.4409778374
 20
2.3568114772
 30
0.0
 40
0.2035433070866157
100
AcDbArc
 50
207.6004766242
 51
34.8879031485
  0
ARC
  5
2FF
330
1F
100
AcDbEntity
  8
PROFILES_INSIDE
100
AcDbCircle
 10
3.6402330452
 20
2.4957513029
 30
0.0
 40
0.0393700787401584
100
AcDbArc
 50
190.0
 51
214.8879031485
  0
ARC
  5
300
330
1F
100
AcDbEntity
  8
PROFILES_INSIDE
100
AcDbCircle
 10
3.5984259319
 20
2.7328589572
 30
0.0
 40
0.0393714215238418
100
AcDbArc
 50
165.1121889858
 51
190.0
  0
ARC
  5
301
330
1F
100
AcDbEntity
  8
PROFILES_INSIDE
100
AcDbCircle
 10
3.3636656663
 20
2.7952703589
 30
0.0
 40
0.2035433070866172
100
AcDbArc
 50
345.1121889858
 51
172.3995430525
  0
ARC
  5
302
330
1F
100
AcDbEntity
  8
PROFILES_INSIDE
100
AcDbCircle
 10
3.1228863996
 20
2.8273991267
 30
0.0
 40
0.0393700787401603
100
AcDbArc
 50
280.0000472348
 51
352.3995430525
  0
ARC
  5
303
330
1F
100
AcDbEntity
  8
PROFILES_INSIDE
100
AcDbCircle
 10
2.9661067061
 20
2.7997545035
 30
0.0
 40
0.039370083268615
100
AcDbArc
 50
207.6004766242
 51
280.0000472348
  0
ARC
  5
304
330
1F
100
AcDbEntity
  8
PROFILES_INSIDE
100
AcDbCircle
 10
2.7508369303
 20
2.6872119042
 30
0.0
 40
0.2035433025581519
100
AcDbArc
 50
27.6004766242
 51
214.8878397487
  0
ARC
  5
305
330
1F
100
AcDbEntity
  8
PROFILES_INSIDE
100
AcDbCircle
 10
2.551581671
 20
2.5482723703
 30
0.0
 40
0.0393700264954972
100
AcDbArc
 50
10.0
 51
34.8878397487
  0
ARC
  5
306
330
1F
100
AcDbEntity
  8
PROFILES_INSIDE
100
AcDbCircle
 10
46.758472453
 20
25.6477816256
 30
0.0
 40
0.0393700787401585
100
AcDbArc
 50
260.0000472348
 51
332.3995430525
  0
ARC
  5
307
330
1F
100
AcDbEntity
  8
PROFILES_INSIDE
100
AcDbCircle
 10
46.9737422674
 20
25.5352391002
 30
0.0
 40
0.2035433070866142
100
AcDbArc
 50
325.1121889858
 51
152.3995430525
  0
ARC
  5
308
330
1F
100
AcDbEntity
  8
PROFILES_INSIDE
100
AcDbCircle
 10
47.1729988001
 20
25.3962988269
 30
0.0
 40
0.039371421523849
100
AcDbArc
 50
145.1121889858
 51
170.0
  0
ARC
  5
309
330
1F
100
AcDbEntity
  8
PROFILES_INSIDE
100
AcDbCircle
 10
47.1311890421
 20
25.1591916389
 30
0.0
 40
0.039370078740159
100
AcDbArc
 50
170.0
 51
194.8879031485
  0
ARC
  5
30A
330
1F
100
AcDbEntity
  8
PROFILES_INSIDE
100
AcDbCircle
 10
46.8964301745
 20
25.0967802048
 30
0.0
 40
0.2035433070866177
100
AcDbArc
 50
187.6004766242
 51
14.8879031485
  0
ARC
  5
30B
330
1F
100
AcDbEntity
  8
PROFILES_INSIDE
100
AcDbCircle
 10
46.6556509188
 20
25.0646513543
 30
0.0
 40
0.0393700787401664
100
AcDbArc
 50
7.6004766242
 51
80.0000472348
  0
ARC
  5
30C
330
1F
100
AcDbEntity
  8
PROFILES_INSIDE
100
AcDbCircle
 10
46.4988711798
 20
25.092295719
 30
0.0
 40
0.0393700787401585
100
AcDbArc
 50
80.0000472348
 51
152.3995430525
  0
ARC
  5
30D
330
1F
100
AcDbEntity
  8
PROFILES_INSIDE
100
AcDbCircle
 10
46.2836013654
 20
25.2048382444
 30
0.0
 40
0.2035433070866142
100
AcDbArc
 50
145.1121190957
 51
332.3995430525
  0
ARC
  5
30E
330
1F
100
AcDbEntity
  8
PROFILES_INSIDE
100
AcDbCircle
 10
46.0843461036
 20
25.3437779927
 30
0.0
 40
0.0393700787401609
100
AcDbArc
 50
325.1121190957
 51
350.0
  0
ARC
  5
30F
330
1F
100
AcDbEntity
  8
PROFILES_INSIDE
100
AcDbCircle
 10
46.1261546421
 20
25.5808859975
 30
0.0
 40
0.0393700264954925
100
AcDbArc
 50
350.0
 51
14.8878397487
  0
ARC
  5
310
330
1F
100
AcDbEntity
  8
PROFILES_INSIDE
100
AcDbCircle
 10
46.3609134583
 20
25.6432971398
 30
0.0
 40
0.2035432572735771
100
AcDbArc
 50
7.6004766242
 51
194.8878397487
  0
ARC
  5
311
330
1F
100
AcDbEntity
  8
PROFILES_INSIDE
100
AcDbCircle
 10
46.601692714
 20
25.6754259903
 30
0.0
 40
0.0393701285532003
100
AcDbArc
 50
187.6004766242
 51
260.0000472348
  0
ARC
  5
312
330
1F
100
AcDbEntity
  8
PROFILES_INSIDE
100
AcDbCircle
 10
27.8261557535
 20
28.8076692476
 30
0.0
 40
0.039371421523844
100
AcDbArc
 50
145.1121889858
 51
170.0
  0
ARC
  5
313
330
1F
100
AcDbEntity
  8
PROFILES_INSIDE
100
AcDbCircle
 10
27.6268992208
 20
28.9466095209
 30
0.0
 40
0.2035433070866159
100
AcDbArc
 50
325.1121889858
 51
152.3995430525
  0
ARC
  5
314
330
1F
100
AcDbEntity
  8
PROFILES_INSIDE
100
AcDbCircle
 10
27.4116294063
 20
29.0591520462
 30
0.0
 40
0.0393700787401569
100
AcDbArc
 50
260.0000472348
 51
332.3995430525
  0
ARC
  5
315
330
1F
100
AcDbEntity
  8
PROFILES_INSIDE
100
AcDbCircle
 10
27.2548496673
 20
29.086796411
 30
0.0
 40
0.039370105910915
100
AcDbArc
 50
187.6004766242
 51
260.0000472348
  0
ARC
  5
316
330
1F
100
AcDbEntity
  8
PROFILES_INSIDE
100
AcDbCircle
 10
27.0140704116
 20
29.0546675605
 30
0.0
 40
0.2035432799158615
100
AcDbArc
 50
7.6004766242
 51
194.8878397487
  0
ARC
  5
317
330
1F
100
AcDbEntity
  8
PROFILES_INSIDE
100
AcDbCircle
 10
26.7793115955
 20
28.9922564181
 30
0.0
 40
0.0393700219670376
100
AcDbArc
 50
350.0
 51
14.8878397487
  0
ARC
  5
318
330
1F
100
AcDbEntity
  8
PROFILES_INSIDE
100
AcDbCircle
 10
26.7375030569
 20
28.7551484133
 30
0.0
 40
0.0393700787401596
100
AcDbArc
 50
325.1121190957
 51
350.0
  0
ARC
  5
319
330
1F
100
AcDbEntity
  8
PROFILES_INSIDE
100
AcDbCircle
 10
26.9367583187
 20
28.616208665
 30
0.0
 40
0.2035433070866143
100
AcDbArc
 50
145.1121190957
 51
332.3995430525
  0
ARC
  5
31A
330
1F
100
AcDbEntity
  8
PROFILES_INSIDE
100
AcDbCircle
 10
27.1520281331
 20
28.5036661397
 30
0.0
 40
0.0393700787401591
100
AcDbArc
 50
80.0000472348
 51
152.3995430525
  0
ARC
  5
31B
330
1F
100
AcDbEntity
  8
PROFILES_INSIDE
100
AcDbCircle
 10
27.3088078721
 20
28.4760217749
 30
0.0
 40
0.0393700787401579
100
AcDbArc
 50
7.6004766242
 51
80.0000472348
  0
ARC
  5
31C
330
1F
100
AcDbEntity
  8
PROFILES_INSIDE
100
AcDbCircle
 10
27.5495871279
 20
28.5081506254
 30
0.0
 40
0.2035433070866137
100
AcDbArc
 50
187.6004766242
 51
14.8879031485
  0
ARC
  5
31D
330
1F
100
AcDbEntity
  8
PROFILES_INSIDE
100
AcDbCircle
 10
27.7843459954
 20
28.5705620596
 30
0.0
 40
0.0393700787401632
100
AcDbArc
 50
170.0
 51
194.8879031485
  0
ARC
  5
31E
330
1F
100
AcDbEntity
  8
PROFILES_INSIDE
100
AcDbCircle
 10
46.9737422699
 20
5.7691704619
 30
0.0
 40
0.2035433070866139
100
AcDbArc
 50
207.6004766242
 51
34.8879031485
  0
ARC
  5
31F
330
1F
100
AcDbEntity
  8
PROFILES_INSIDE
100
AcDbCircle
 10
47.1729974778
 20
5.9081102876
 30
0.0
 40
0.0393700787401553
100
AcDbArc
 50
190.0
 51
214.8879031485
  0
ARC
  5
320
330
1F
100
AcDbEntity
  8
PROFILES_INSIDE
100
AcDbCircle
 10
47.1311903645
 20
6.1452179419
 30
0.0
 40
0.0393714215238493
100
AcDbArc
 50
165.1121889858
 51
190.0
  0
ARC
  5
321
330
1F
100
AcDbEntity
  8
PROFILES_INSIDE
100
AcDbCircle
 10
46.8964300988
 20
6.2076293436
 30
0.0
 40
0.2035433070866186
100
AcDbArc
 50
345.1121889858
 51
172.3995430525
  0
ARC
  5
322
330
1F
100
AcDbEntity
  8
PROFILES_INSIDE
100
AcDbCircle
 10
46.6556508321
 20
6.2397581114
 30
0.0
 40
0.0393700787401578
100
AcDbArc
 50
280.0000472348
 51
352.3995430525
  0
ARC
  5
323
330
1F
100
AcDbEntity
  8
PROFILES_INSIDE
100
AcDbCircle
 10
46.4988711386
 20
6.2121134882
 30
0.0
 40
0.039370101382451
100
AcDbArc
 50
207.6004766242
 51
280.0000472348
  0
ARC
  5
324
330
1F
100
AcDbEntity
  8
PROFILES_INSIDE
100
AcDbCircle
 10
46.2836013629
 20
6.0995708889
 30
0.0
 40
0.203543284444321
100
AcDbArc
 50
27.6004766242
 51
214.8878397487
  0
ARC
  5
325
330
1F
100
AcDbEntity
  8
PROFILES_INSIDE
100
AcDbCircle
 10
46.0843461036
 20
5.960631355
 30
0.0
 40
0.0393700174385756
100
AcDbArc
 50
10.0
 51
34.8878397487
  0
ARC
  5
326
330
1F
100
AcDbEntity
  8
PROFILES_INSIDE
100
AcDbCircle
 10
46.1261546421
 20
5.7235233502
 30
0.0
 40
0.0393700787401554
100
AcDbArc
 50
345.1121190957
 51
10.0
  0
ARC
  5
327
330
1F
100
AcDbEntity
  8
PROFILES_INSIDE
100
AcDbCircle
 10
46.3609135339
 20
5.6611120072
 30
0.0
 40
0.2035433070866115
100
AcDbArc
 50
165.1121190957
 51
352.3995430525
  0
ARC
  5
328
330
1F
100
AcDbEntity
  8
PROFILES_INSIDE
100
AcDbCircle
 10
46.6016928007
 20
5.6289832394
 30
0.0
 40
0.0393700787401593
100
AcDbArc
 50
100.0000472348
 51
172.3995430525
  0
ARC
  5
329
330
1F
100
AcDbEntity
  8
PROFILES_INSIDE
100
AcDbCircle
 10
46.7584724941
 20
5.6566278626
 30
0.0
 40
0.0393700787401603
100
AcDbArc
 50
27.6004766242
 51
100.0000472348
  0
ARC
  5
32A
330
1F
100
AcDbEntity
  8
PROFILES_INSIDE
100
AcDbCircle
 10
26.7793115955
 20
2.3121529296
 30
0.0
 40
0.0393700787401566
100
AcDbArc
 50
345.1121190957
 51
10.0
  0
ARC
  5
32B
330
1F
100
AcDbEntity
  8
PROFILES_INSIDE
100
AcDbCircle
 10
27.0140704873
 20
2.2497415866
 30
0.0
 40
0.2035433070866159
100
AcDbArc
 50
165.1121190957
 51
352.3995430525
  0
ARC
  5
32C
330
1F
100
AcDbEntity
  8
PROFILES_INSIDE
100
AcDbCircle
 10
27.254849754
 20
2.2176128187
 30
0.0
 40
0.0393700787401601
100
AcDbArc
 50
100.0000472348
 51
172.3995430525
  0
ARC
  5
32D
330
1F
100
AcDbEntity
  8
PROFILES_INSIDE
100
AcDbCircle
 10
27.4116294475
 20
2.245257442
 30
0.0
 40
0.0393700787401551
100
AcDbArc
 50
27.6004766242
 51
100.0000472348
  0
ARC
  5
32E
330
1F
100
AcDbEntity
  8
PROFILES_INSIDE
100
AcDbCircle
 10
27.6268992232
 20
2.3578000413
 30
0.0
 40
0.2035433070866181
100
AcDbArc
 50
207.6004766242
 51
34.8879031485
  0
ARC
  5
32F
330
1F
100
AcDbEntity
  8
PROFILES_INSIDE
100
AcDbCircle
 10
27.8261544311
 20
2.4967398669
 30
0.0
 40
0.0393700787401593
100
AcDbArc
 50
190.0
 51
214.8879031485
  0
ARC
  5
330
330
1F
100
AcDbEntity
  8
PROFILES_INSIDE
100
AcDbCircle
 10
27.7843473178
 20
2.7338475213
 30
0.0
 40
0.0393714215238468
100
AcDbArc
 50
165.1121889858
 51
190.0
  0
ARC
  5
331
330
1F
100
AcDbEntity
  8
PROFILES_INSIDE
100
AcDbCircle
 10
27.5495870522
 20
2.7962589229
 30
0.0
 40
0.2035433070866128
100
AcDbArc
 50
345.1121889858
 51
172.3995430525
  0
ARC
  5
332
330
1F
100
AcDbEntity
  8
PROFILES_INSIDE
100
AcDbCircle
 10
27.3088077854
 20
2.8283876908
 30
0.0
 40
0.0393700787401631
100
AcDbArc
 50
280.0000472348
 51
352.3995430525
  0
ARC
  5
333
330
1F
100
AcDbEntity
  8
PROFILES_INSIDE
100
AcDbCircle
 10
27.152028092
 20
2.8007430675
 30
0.0
 40
0.0393700832686132
100
AcDbArc
 50
207.6004766242
 51
280.0000472348
  0
ARC
  5
334
330
1F
100
AcDbEntity
  8
PROFILES_INSIDE
100
AcDbCircle
 10
26.9367583162
 20
2.6882004682
 30
0.0
 40
0.2035433025581578
100
AcDbArc
 50
27.6004766242
 51
214.8878397487
  0
ARC
  5
335
330
1F
100
AcDbEntity
  8
PROFILES_INSIDE
100
AcDbCircle
 10
26.7375030569
 20
2.5492609343
 30
0.0
 40
0.0393700264954924
100
AcDbArc
 50
10.0
 51
34.8878397487
  0
ARC
  5
336
330
1F
100
AcDbEntity
  8
PROFILES_OUTSIDE
100
AcDbCircle
 10
25.4381212626
 20
29.720157955
 30
0.0
 40
0.2362204724409468
100
AcDbArc
 50
80.0
 51
180.0
  0
ARC
  5
337
330
1F
100
AcDbEntity
  8
PROFILES_OUTSIDE
100
AcDbCircle
 10
47.9066251996
 20
25.7583544947
 30
0.0
 40
0.2362204724409484
100
AcDbArc
 50
0.0
 51
80.0
  0
ARC
  5
338
330
1F
100
AcDbEntity
  8
PROFILES_OUTSIDE
100
AcDbCircle
 10
47.9066251996
 20
23.0051732181
 30
0.0
 40
0.2362204724409484
100
AcDbArc
 50
280.0
 51
0.0
  0
ARC
  5
339
330
1F
100
AcDbEntity
  8
PROFILES_OUTSIDE
100
AcDbCircle
 10
47.5916645697
 20
22.4699080532
 30
0.0
 40
0.236220472440948
100
AcDbArc
 50
100.0
 51
180.0
  0
ARC
  5
33A
330
1F
100
AcDbEntity
  8
PROFILES_OUTSIDE
100
AcDbCircle
 10
47.5916645697
 20
8.8345012945
 30
0.0
 40
0.236220472440948
100
AcDbArc
 50
180.0
 51
260.0
  0
ARC
  5
33B
330
1F
100
AcDbEntity
  8
PROFILES_OUTSIDE
100
AcDbCircle
 10
47.9066251996
 20
8.2992361296
 30
0.0
 40
0.236220472440948
100
AcDbArc
 50
0.0
 51
80.0
  0
ARC
  5
33C
330
1F
100
AcDbEntity
  8
PROFILES_OUTSIDE
100
AcDbCircle
 10
47.9066251996
 20
5.546054853
 30
0.0
 40
0.236220472440948
100
AcDbArc
 50
280.0
 51
0.0
  0
ARC
  5
33D
330
1F
100
AcDbEntity
  8
PROFILES_OUTSIDE
100
AcDbCircle
 10
25.4381212626
 20
1.5842513927
 30
0.0
 40
0.2362204724409478
100
AcDbArc
 50
180.0
 51
280.0
  0
ARC
  5
33E
330
1F
100
AcDbEntity
  8
PROFILES_OUTSIDE
100
AcDbCircle
 10
65.6594912684
 20
37.8953252863
 30
0.0
 40
0.4724409448818889
100
AcDbArc
 50
0.0
 51
90.0
  0
ARC
  5
33F
330
1F
100
AcDbEntity
  8
PROFILES_OUTSIDE
100
AcDbCircle
 10
46.9533809592
 20
37.8953252863
 30
0.0
 40
0.472440944881896
100
AcDbArc
 50
90.0
 51
180.0
  0
ARC
  5
340
330
1F
100
AcDbEntity
  8
PROFILES_OUTSIDE
100
AcDbCircle
 10
45.7821211167
 20
33.0547741052
 30
0.0
 40
0.0393700787401627
100
AcDbArc
 50
180.0
 51
270.0
  0
ARC
  5
341
330
1F
100
AcDbEntity
  8
PROFILES_OUTSIDE
100
AcDbCircle
 10
66.6634282762
 20
46.68083529
 30
0.0
 40
0.039370078740159
100
AcDbArc
 50
93.6619355755
 51
180.0
  0
ARC
  5
342
330
1F
100
AcDbEntity
  8
PROFILES_OUTSIDE
100
AcDbCircle
 10
66.5846881188
 20
46.340690577
 30
0.0
 40
0.0393700787401627
100
AcDbArc
 50
335.1121079736
 51
0.0
  0
ARC
  5
343
330
1F
100
AcDbEntity
  8
PROFILES_OUTSIDE
100
AcDbCircle
 10
66.8050428597
 20
46.238461906
 30
0.0
 40
0.2035433070866079
100
AcDbArc
 50
155.1121079736
 51
342.3995332141
  0
ARC
  5
344
330
1F
100
AcDbEntity
  8
PROFILES_OUTSIDE
100
AcDbCircle
 10
67.0365850337
 20
46.1650103257
 30
0.0
 40
0.0393700787401726
100
AcDbArc
 50
90.0
 51
162.3995332141
  0
ARC
  5
345
330
1F
100
AcDbEntity
  8
PROFILES_OUTSIDE
100
AcDbCircle
 10
66.643821977
 20
41.5587111131
 30
0.0
 40
0.472440944881896
100
AcDbArc
 50
270.0
 51
0.0
  0
ARC
  5
346
330
1F
100
AcDbEntity
  8
PROFILES_OUTSIDE
100
AcDbCircle
 10
60.2246723464
 20
40.6138292233
 30
0.0
 40
0.472440944881896
100
AcDbArc
 50
90.0
 51
180.0
  0
ARC
  5
347
330
1F
100
AcDbEntity
  8
PROFILES_OUTSIDE
100
AcDbCircle
 10
60.2246723464
 20
39.5902071761
 30
0.0
 40
0.472440944881896
100
AcDbArc
 50
180.0
 51
270.0
  0
ARC
  5
348
330
1F
100
AcDbEntity
  8
PROFILES_OUTSIDE
100
AcDbCircle
 10
66.643821977
 20
38.6453252863
 30
0.0
 40
0.472440944881896
100
AcDbArc
 50
0.0
 51
90.0
  0
ARC
  5
349
330
1F
100
AcDbEntity
  8
PROFILES_OUTSIDE
100
AcDbCircle
 10
67.0365850337
 20
34.0390260737
 30
0.0
 40
0.0393700787401726
100
AcDbArc
 50
197.6004667859
 51
270.0
  0
ARC
  5
34A
330
1F
100
AcDbEntity
  8
PROFILES_OUTSIDE
100
AcDbCircle
 10
66.8050428597
 20
33.9655744934
 30
0.0
 40
0.2035433070866079
100
AcDbArc
 50
17.6004667859
 51
204.8878920264
  0
ARC
  5
34B
330
1F
100
AcDbEntity
  8
PROFILES_OUTSIDE
100
AcDbCircle
 10
66.5846881188
 20
33.8633458224
 30
0.0
 40
0.0393700787401627
100
AcDbArc
 50
0.0
 51
24.8878920264
  0
ARC
  5
34C
330
1F
100
AcDbEntity
  8
PROFILES_OUTSIDE
100
AcDbCircle
 10
66.6634282762
 20
33.5232011094
 30
0.0
 40
0.039370078740159
100
AcDbArc
 50
180.0
 51
266.3380644245
  0
ARC
  5
34D
330
1F
100
AcDbEntity
  8
PROFILES_OUTSIDE
100
AcDbCircle
 10
66.3681526857
 20
33.2516244989
 30
0.0
 40
0.2362204724409551
100
AcDbArc
 50
180.0
 51
270.0
  0
ARC
  5
34E
330
1F
100
AcDbEntity
  8
PROFILES_OUTSIDE
100
AcDbCircle
 10
45.7821211167
 20
47.1492622942
 30
0.0
 40
0.0393700787401627
100
AcDbArc
 50
90.0
 51
180.0
  0
ARC
  5
34F
330
1F
100
AcDbEntity
  8
PROFILES_OUTSIDE
100
AcDbCircle
 10
59.7522314015
 20
39.1177662312
 30
0.0
 40
0.7500000000000062
100
AcDbArc
 50
210.0
 51
270.0
  0
ARC
  5
350
330
1F
100
AcDbEntity
  8
PROFILES_OUTSIDE
100
AcDbCircle
 10
58.4531932959
 20
38.3677662312
 30
0.0
 40
0.7499999999999964
100
AcDbArc
 50
30.0
 51
90.0
  0
ARC
  5
351
330
1F
100
AcDbEntity
  8
PROFILES_OUTSIDE
100
AcDbCircle
 10
54.1596789317
 20
38.3677662312
 30
0.0
 40
0.75
100
AcDbArc
 50
90.0
 51
150.0
  0
ARC
  5
352
330
1F
100
AcDbEntity
  8
PROFILES_OUTSIDE
100
AcDbCircle
 10
52.860640826
 20
39.1177662312
 30
0.0
 40
0.75
100
AcDbArc
 50
270.0
 51
330.0
  0
ARC
  5
353
330
1F
100
AcDbEntity
  8
PROFILES_OUTSIDE
100
AcDbCircle
 10
46.2447195419
 20
33.2516244989
 30
0.0
 40
0.236220472440948
100
AcDbArc
 50
270.0
 51
0.0
  0
ARC
  5
354
330
1F
100
AcDbEntity
  8
PROFILES_OUTSIDE
100
AcDbCircle
 10
46.9533809592
 20
42.3087111131
 30
0.0
 40
0.4724409448818889
100
AcDbArc
 50
180.0
 51
270.0
  0
ARC
  5
355
330
1F
100
AcDbEntity
  8
PROFILES_OUTSIDE
100
AcDbCircle
 10
45.9494439513
 20
33.5232011094
 30
0.0
 40
0.0393700787401627
100
AcDbArc
 50
273.6619355755
 51
0.0
  0
ARC
  5
356
330
1F
100
AcDbEntity
  8
PROFILES_OUTSIDE
100
AcDbCircle
 10
46.0281841088
 20
33.8633458224
 30
0.0
 40
0.0393700787401627
100
AcDbArc
 50
155.1121079736
 51
180.0
  0
ARC
  5
357
330
1F
100
AcDbEntity
  8
PROFILES_OUTSIDE
100
AcDbCircle
 10
45.8078293679
 20
33.9655744934
 30
0.0
 40
0.2035433070866198
100
AcDbArc
 50
335.1121079736
 51
162.3995332141
  0
ARC
  5
358
330
1F
100
AcDbEntity
  8
PROFILES_OUTSIDE
100
AcDbCircle
 10
45.5762871938
 20
34.0390260737
 30
0.0
 40
0.0393700787401658
100
AcDbArc
 50
270.0
 51
342.3995332141
  0
ARC
  5
359
330
1F
100
AcDbEntity
  8
PROFILES_OUTSIDE
100
AcDbCircle
 10
45.9690502505
 20
38.6453252863
 30
0.0
 40
0.4724409448818889
100
AcDbArc
 50
90.0
 51
180.0
  0
ARC
  5
35A
330
1F
100
AcDbEntity
  8
PROFILES_OUTSIDE
100
AcDbCircle
 10
52.3881998811
 20
39.5902071761
 30
0.0
 40
0.472440944881896
100
AcDbArc
 50
270.0
 51
0.0
  0
ARC
  5
35B
330
1F
100
AcDbEntity
  8
PROFILES_OUTSIDE
100
AcDbCircle
 10
52.3881998811
 20
40.6138292233
 30
0.0
 40
0.472440944881896
100
AcDbArc
 50
0.0
 51
90.0
  0
ARC
  5
35C
330
1F
100
AcDbEntity
  8
PROFILES_OUTSIDE
100
AcDbCircle
 10
45.9690502505
 20
41.5587111131
 30
0.0
 40
0.4724409448818889
100
AcDbArc
 50
180.0
 51
270.0
  0
ARC
  5
35D
330
1F
100
AcDbEntity
  8
PROFILES_OUTSIDE
100
AcDbCircle
 10
45.5762871938
 20
46.1650103257
 30
0.0
 40
0.0393700787401658
100
AcDbArc
 50
17.6004667859
 51
90.0
  0
ARC
  5
35E
330
1F
100
AcDbEntity
  8
PROFILES_OUTSIDE
100
AcDbCircle
 10
45.8078293679
 20
46.238461906
 30
0.0
 40
0.2035433070866144
100
AcDbArc
 50
197.6004667859
 51
24.8878920264
  0
ARC
  5
35F
330
1F
100
AcDbEntity
  8
PROFILES_OUTSIDE
100
AcDbCircle
 10
46.0281841088
 20
46.340690577
 30
0.0
 40
0.0393700787401627
100
AcDbArc
 50
180.0
 51
204.8878920264
  0
ARC
  5
360
330
1F
100
AcDbEntity
  8
PROFILES_OUTSIDE
100
AcDbCircle
 10
45.9494439513
 20
46.68083529
 30
0.0
 40
0.0393700787401627
100
AcDbArc
 50
0.0
 51
86.3380644245
  0
ARC
  5
361
330
1F
100
AcDbEntity
  8
PROFILES_OUTSIDE
100
AcDbCircle
 10
46.2447195419
 20
46.9524119005
 30
0.0
 40
0.2362204724409551
100
AcDbArc
 50
0.0
 51
90.0
  0
ARC
  5
362
330
1F
100
AcDbEntity
  8
PROFILES_OUTSIDE
100
AcDbCircle
 10
65.6594912684
 20
42.3087111131
 30
0.0
 40
0.4724409448818818
100
AcDbArc
 50
270.0
 51
0.0
  0
ARC
  5
363
330
1F
100
AcDbEntity
  8
PROFILES_OUTSIDE
100
AcDbCircle
 10
52.860640826
 20
41.0862701682
 30
0.0
 40
0.75
100
AcDbArc
 50
30.0
 51
90.0
  0
ARC
  5
364
330
1F
100
AcDbEntity
  8
PROFILES_OUTSIDE
100
AcDbCircle
 10
54.1596789317
 20
41.8362701682
 30
0.0
 40
0.75
100
AcDbArc
 50
210.0
 51
270.0
  0
ARC
  5
365
330
1F
100
AcDbEntity
  8
PROFILES_OUTSIDE
100
AcDbCircle
 10
58.4531932959
 20
41.8362701682
 30
0.0
 40
0.75
100
AcDbArc
 50
270.0
 51
330.0
  0
ARC
  5
366
330
1F
100
AcDbEntity
  8
PROFILES_OUTSIDE
100
AcDbCircle
 10
59.7522314015
 20
41.0862701682
 30
0.0
 40
0.7500000000000062
100
AcDbArc
 50
90.0
 51
150.0
  0
ARC
  5
367
330
1F
100
AcDbEntity
  8
PROFILES_OUTSIDE
100
AcDbCircle
 10
66.3681526857
 20
46.9524119005
 30
0.0
 40
0.2362204724409551
100
AcDbArc
 50
90.0
 51
180.0
  0
ARC
  5
368
330
1F
100
AcDbEntity
  8
PROFILES_OUTSIDE
100
AcDbCircle
 10
66.8307511109
 20
47.1492622942
 30
0.0
 40
0.0393700787401627
100
AcDbArc
 50
0.0
 51
90.0
  0
ARC
  5
369
330
1F
100
AcDbEntity
  8
PROFILES_OUTSIDE
100
AcDbCircle
 10
68.6409873314
 20
47.1492622942
 30
0.0
 40
0.0393700787401627
100
AcDbArc
 50
90.0
 51
180.0
  0
ARC
  5
36A
330
1F
100
AcDbEntity
  8
PROFILES_OUTSIDE
100
AcDbCircle
 10
69.8122471739
 20
42.3087111131
 30
0.0
 40
0.472440944881896
100
AcDbArc
 50
180.0
 51
270.0
  0
ARC
  5
36B
330
1F
100
AcDbEntity
  8
PROFILES_OUTSIDE
100
AcDbCircle
 10
88.5183574831
 20
42.3087111131
 30
0.0
 40
0.472440944881896
100
AcDbArc
 50
270.0
 51
0.0
  0
ARC
  5
36C
330
1F
100
AcDbEntity
  8
PROFILES_OUTSIDE
100
AcDbCircle
 10
89.6896173256
 20
47.1492622942
 30
0.0
 40
0.0393700787401627
100
AcDbArc
 50
0.0
 51
90.0
  0
ARC
  5
36D
330
1F
100
AcDbEntity
  8
PROFILES_OUTSIDE
100
AcDbCircle
 10
68.808310166
 20
33.5232011094
 30
0.0
 40
0.0393700787401581
100
AcDbArc
 50
273.6619355755
 51
0.0
  0
ARC
  5
36E
330
1F
100
AcDbEntity
  8
PROFILES_OUTSIDE
100
AcDbCircle
 10
68.8870503235
 20
33.8633458224
 30
0.0
 40
0.0393700787401627
100
AcDbArc
 50
155.1121079736
 51
180.0
  0
ARC
  5
36F
330
1F
100
AcDbEntity
  8
PROFILES_OUTSIDE
100
AcDbCircle
 10
68.6666955826
 20
33.9655744934
 30
0.0
 40
0.2035433070866198
100
AcDbArc
 50
335.1121079736
 51
162.3995332141
  0
ARC
  5
370
330
1F
100
AcDbEntity
  8
PROFILES_OUTSIDE
100
AcDbCircle
 10
68.4351534085
 20
34.0390260737
 30
0.0
 40
0.039370078740159
100
AcDbArc
 50
270.0
 51
342.3995332141
  0
ARC
  5
371
330
1F
100
AcDbEntity
  8
PROFILES_OUTSIDE
100
AcDbCircle
 10
68.8279164652
 20
38.6453252863
 30
0.0
 40
0.4724409448818889
100
AcDbArc
 50
90.0
 51
180.0
  0
ARC
  5
372
330
1F
100
AcDbEntity
  8
PROFILES_OUTSIDE
100
AcDbCircle
 10
75.2470660958
 20
39.5902071761
 30
0.0
 40
0.472440944881896
100
AcDbArc
 50
270.0
 51
0.0
  0
ARC
  5
373
330
1F
100
AcDbEntity
  8
PROFILES_OUTSIDE
100
AcDbCircle
 10
75.2470660958
 20
40.6138292233
 30
0.0
 40
0.472440944881896
100
AcDbArc
 50
0.0
 51
90.0
  0
ARC
  5
374
330
1F
100
AcDbEntity
  8
PROFILES_OUTSIDE
100
AcDbCircle
 10
68.8279164652
 20
41.5587111131
 30
0.0
 40
0.4724409448818889
100
AcDbArc
 50
180.0
 51
270.0
  0
ARC
  5
375
330
1F
100
AcDbEntity
  8
PROFILES_OUTSIDE
100
AcDbCircle
 10
68.4351534085
 20
46.1650103257
 30
0.0
 40
0.0393700787401698
100
AcDbArc
 50
17.6004667859
 51
90.0
  0
ARC
  5
376
330
1F
100
AcDbEntity
  8
PROFILES_OUTSIDE
100
AcDbCircle
 10
68.6666955826
 20
46.238461906
 30
0.0
 40
0.2035433070866198
100
AcDbArc
 50
197.6004667859
 51
24.8878920264
  0
ARC
  5
377
330
1F
100
AcDbEntity
  8
PROFILES_OUTSIDE
100
AcDbCircle
 10
68.8870503235
 20
46.340690577
 30
0.0
 40
0.0393700787401627
100
AcDbArc
 50
180.0
 51
204.8878920264
  0
ARC
  5
378
330
1F
100
AcDbEntity
  8
PROFILES_OUTSIDE
100
AcDbCircle
 10
68.808310166
 20
46.68083529
 30
0.0
 40
0.0393700787401581
100
AcDbArc
 50
0.0
 51
86.3380644245
  0
ARC
  5
379
330
1F
100
AcDbEntity
  8
PROFILES_OUTSIDE
100
AcDbCircle
 10
69.1035857566
 20
46.9524119005
 30
0.0
 40
0.2362204724409551
100
AcDbArc
 50
0.0
 51
90.0
  0
ARC
  5
37A
330
1F
100
AcDbEntity
  8
PROFILES_OUTSIDE
100
AcDbCircle
 10
89.6896173256
 20
33.0547741052
 30
0.0
 40
0.0393700787401627
100
AcDbArc
 50
270.0
 51
0.0
  0
ARC
  5
37B
330
1F
100
AcDbEntity
  8
PROFILES_OUTSIDE
100
AcDbCircle
 10
75.7195070407
 20
41.0862701682
 30
0.0
 40
0.75
100
AcDbArc
 50
30.0
 51
90.0
  0
ARC
  5
37C
330
1F
100
AcDbEntity
  8
PROFILES_OUTSIDE
100
AcDbCircle
 10
77.0185451464
 20
41.8362701682
 30
0.0
 40
0.7499999999999929
100
AcDbArc
 50
210.0
 51
270.0
  0
ARC
  5
37D
330
1F
100
AcDbEntity
  8
PROFILES_OUTSIDE
100
AcDbCircle
 10
81.3120595105
 20
41.8362701682
 30
0.0
 40
0.75
100
AcDbArc
 50
270.0
 51
330.0
  0
ARC
  5
37E
330
1F
100
AcDbEntity
  8
PROFILES_OUTSIDE
100
AcDbCircle
 10
82.6110976162
 20
41.0862701682
 30
0.0
 40
0.75
100
AcDbArc
 50
90.0
 51
150.0
  0
ARC
  5
37F
330
1F
100
AcDbEntity
  8
PROFILES_OUTSIDE
100
AcDbCircle
 10
89.2270189004
 20
46.9524119005
 30
0.0
 40
0.2362204724409551
100
AcDbArc
 50
90.0
 51
180.0
  0
ARC
  5
380
330
1F
100
AcDbEntity
  8
PROFILES_OUTSIDE
100
AcDbCircle
 10
88.5183574831
 20
37.8953252863
 30
0.0
 40
0.4724409448818889
100
AcDbArc
 50
0.0
 51
90.0
  0
ARC
  5
381
330
1F
100
AcDbEntity
  8
PROFILES_OUTSIDE
100
AcDbCircle
 10
89.5222944909
 20
46.68083529
 30
0.0
 40
0.0393700787401572
100
AcDbArc
 50
93.6619355755
 51
180.0
  0
ARC
  5
382
330
1F
100
AcDbEntity
  8
PROFILES_OUTSIDE
100
AcDbCircle
 10
89.4435543335
 20
46.340690577
 30
0.0
 40
0.0393700787401627
100
AcDbArc
 50
335.1121079736
 51
0.0
  0
ARC
  5
383
330
1F
100
AcDbEntity
  8
PROFILES_OUTSIDE
100
AcDbCircle
 10
89.6639090744
 20
46.238461906
 30
0.0
 40
0.2035433070866241
100
AcDbArc
 50
155.1121079736
 51
342.3995332141
  0
ARC
  5
384
330
1F
100
AcDbEntity
  8
PROFILES_OUTSIDE
100
AcDbCircle
 10
89.8954512484
 20
46.1650103257
 30
0.0
 40
0.0393700787401627
100
AcDbArc
 50
90.0
 51
162.3995332141
  0
ARC
  5
385
330
1F
100
AcDbEntity
  8
PROFILES_OUTSIDE
100
AcDbCircle
 10
89.5026881917
 20
41.5587111131
 30
0.0
 40
0.4724409448818889
100
AcDbArc
 50
270.0
 51
0.0
  0
ARC
  5
386
330
1F
100
AcDbEntity
  8
PROFILES_OUTSIDE
100
AcDbCircle
 10
83.0835385611
 20
40.6138292233
 30
0.0
 40
0.472440944881896
100
AcDbArc
 50
90.0
 51
180.0
  0
ARC
  5
387
330
1F
100
AcDbEntity
  8
PROFILES_OUTSIDE
100
AcDbCircle
 10
83.0835385611
 20
39.5902071761
 30
0.0
 40
0.472440944881896
100
AcDbArc
 50
180.0
 51
270.0
  0
ARC
  5
388
330
1F
100
AcDbEntity
  8
PROFILES_OUTSIDE
100
AcDbCircle
 10
89.5026881917
 20
38.6453252863
 30
0.0
 40
0.4724409448818889
100
AcDbArc
 50
0.0
 51
90.0
  0
ARC
  5
389
330
1F
100
AcDbEntity
  8
PROFILES_OUTSIDE
100
AcDbCircle
 10
89.8954512484
 20
34.0390260737
 30
0.0
 40
0.0393700787401627
100
AcDbArc
 50
197.6004667859
 51
270.0
  0
ARC
  5
38A
330
1F
100
AcDbEntity
  8
PROFILES_OUTSIDE
100
AcDbCircle
 10
89.6639090744
 20
33.9655744934
 30
0.0
 40
0.2035433070866198
100
AcDbArc
 50
17.6004667859
 51
204.8878920264
  0
ARC
  5
38B
330
1F
100
AcDbEntity
  8
PROFILES_OUTSIDE
100
AcDbCircle
 10
89.4435543335
 20
33.8633458224
 30
0.0
 40
0.0393700787401627
100
AcDbArc
 50
0.0
 51
24.8878920264
  0
ARC
  5
38C
330
1F
100
AcDbEntity
  8
PROFILES_OUTSIDE
100
AcDbCircle
 10
89.5222944909
 20
33.5232011094
 30
0.0
 40
0.0393700787401627
100
AcDbArc
 50
180.0
 51
266.3380644245
  0
ARC
  5
38D
330
1F
100
AcDbEntity
  8
PROFILES_OUTSIDE
100
AcDbCircle
 10
89.2270189004
 20
33.2516244989
 30
0.0
 40
0.236220472440948
100
AcDbArc
 50
180.0
 51
270.0
  0
ARC
  5
38E
330
1F
100
AcDbEntity
  8
PROFILES_OUTSIDE
100
AcDbCircle
 10
69.8122471739
 20
37.8953252863
 30
0.0
 40
0.4724409448818818
100
AcDbArc
 50
90.0
 51
180.0
  0
ARC
  5
38F
330
1F
100
AcDbEntity
  8
PROFILES_OUTSIDE
100
AcDbCircle
 10
82.6110976162
 20
39.1177662312
 30
0.0
 40
0.75
100
AcDbArc
 50
210.0
 51
270.0
  0
ARC
  5
390
330
1F
100
AcDbEntity
  8
PROFILES_OUTSIDE
100
AcDbCircle
 10
81.3120595105
 20
38.3677662312
 30
0.0
 40
0.75
100
AcDbArc
 50
30.0
 51
90.0
  0
ARC
  5
391
330
1F
100
AcDbEntity
  8
PROFILES_OUTSIDE
100
AcDbCircle
 10
77.0185451464
 20
38.3677662312
 30
0.0
 40
0.75
100
AcDbArc
 50
90.0
 51
150.0
  0
ARC
  5
392
330
1F
100
AcDbEntity
  8
PROFILES_OUTSIDE
100
AcDbCircle
 10
75.7195070407
 20
39.1177662312
 30
0.0
 40
0.75
100
AcDbArc
 50
270.0
 51
330.0
  0
ARC
  5
393
330
1F
100
AcDbEntity
  8
PROFILES_OUTSIDE
100
AcDbCircle
 10
69.1035857566
 20
33.2516244989
 30
0.0
 40
0.236220472440948
100
AcDbArc
 50
270.0
 51
0.0
  0
ARC
  5
394
330
1F
100
AcDbEntity
  8
PROFILES_OUTSIDE
100
AcDbCircle
 10
68.6409873314
 20
33.0547741052
 30
0.0
 40
0.0393700787401627
100
AcDbArc
 50
180.0
 51
270.0
  0
ENDSEC
  0
SECTION
  2
OBJECTS
  0
DICTIONARY
  5
C
330
0
100
AcDbDictionary
  3
ACAD_GROUP
350
D
  3
ACAD_MLINESTYLE
350
17
  3
ACAD_SCALELIST
350
47
  0
DICTIONARY
  5
D
102
{ACAD_REACTORS
330
C
102
}
330
C
100
AcDbDictionary
  0
DICTIONARY
  5
17
102
{ACAD_REACTORS
330
C
102
}
330
C
100
AcDbDictionary
  3
STANDARD
350
18
  0
DICTIONARY
  5
47
102
{ACAD_REACTORS
330
C
102
}
330
C
100
AcDbDictionary
  0
MLINESTYLE
  5
18
102
{ACAD_REACTORS
330
17
102
}
330
17
100
AcDbMlineStyle
  2
Standard
 70
     0
  3

 62
   256
 51
90.0
 52
90.0
 71
     2
 49
0.5
 62
   256
  6
BYLAYER
 49
-0.5
 62
   256
  6
BYLAYER
  0
ENDSEC
  0
EOF
